<svg xmlns="http://www.w3.org/2000/svg" width="519" height="609" fill="none" xmlns:v="https://vecta.io/nano"><path d="M213.734 526.042l-5.759 5.734a23.21 23.21 0 0 1-16.379 6.764H57.649c-1.068 0-1.934-.866-1.934-1.934V80.61c0-6.02 2.339-11.805 6.523-16.134l26.69-27.61c4.251-4.398 10.066-6.94 16.181-7.074l76.708-1.682a23.21 23.21 0 0 1 18.793 8.907l17.976 22.983a23.21 23.21 0 0 0 18.284 8.912h202.632c12.82 0 23.213 10.393 23.213 23.213v423.201c0 12.82-10.393 23.213-23.213 23.213H331.476a23.21 23.21 0 0 1-16.379-6.764l-5.758-5.734a23.21 23.21 0 0 0-16.38-6.765h-62.846a23.21 23.21 0 0 0-16.379 6.765z" fill="#ffa32a"/><path d="M57.262 538.54h.387m0 0h133.947a23.21 23.21 0 0 0 16.379-6.764l5.759-5.734a23.21 23.21 0 0 1 16.379-6.765h62.846a23.21 23.21 0 0 1 16.38 6.765l5.758 5.734a23.21 23.21 0 0 0 16.379 6.764h108.026c12.82 0 23.213-10.393 23.213-23.213V92.126c0-12.82-10.393-23.213-23.213-23.213H236.87a23.21 23.21 0 0 1-18.284-8.912L200.61 37.017a23.21 23.21 0 0 0-18.793-8.907l-76.708 1.682c-6.115.134-11.93 2.676-16.181 7.074l-26.69 27.61c-4.184 4.329-6.523 10.113-6.523 16.134v455.996c0 1.068.866 1.934 1.935 1.934z" stroke="#ffcc89" stroke-width="4.643" stroke-linejoin="bevel"/><rect x="30.18" y="120.707" width="50.295" height="191.894" rx="25.147" fill="#fac50a"/><rect x="30.18" y="120.707" width="50.295" height="191.894" rx="25.147" stroke="#ffd647" stroke-width="6" stroke-linejoin="bevel"/><path d="M57.21 272.212h3.618v2.682h-11.25v-4.86c0-.9.132-1.62.396-2.16a2.27 2.27 0 0 1 1.26-1.188c.576-.252 1.35-.378 2.322-.378 1.272 0 2.202.276 2.79.828.576.54.864 1.416.864 2.628v2.448zm-2.016 0v-2.106c0-.372-.054-.624-.162-.756-.108-.144-.306-.216-.594-.216h-1.89c-.288 0-.486.072-.594.216-.108.132-.162.384-.162.756v2.106h3.402zm.342-3.87l5.292-2.52v2.916l-4.23 1.98-1.062-2.376zm.666-6.958h2.412v-4.608h2.214v7.29h-11.25v-7.308l2.214.342v4.284h2.412v-3.942h1.998v3.942zm4.626-5.537l-11.25-3.114v-4.122l11.25-3.114v2.682l-8.712 2.412v.162l8.712 2.412v2.682zm-2.16-1.872H56.67v-6.624h1.998v6.624zm1.962-17.239a7.03 7.03 0 0 1 .36 1.44 12.63 12.63 0 0 1 .108 1.764c0 .888-.096 1.626-.288 2.214-.192.576-.51 1.032-.954 1.368s-1.044.576-1.8.72-1.704.216-2.844.216c-1.152 0-2.106-.072-2.862-.216-.768-.156-1.374-.414-1.818-.774s-.756-.846-.936-1.458c-.192-.612-.288-1.392-.288-2.34a10.01 10.01 0 0 1 .054-.99l.144-1.026c.06-.336.132-.6.216-.792l2.16.342c-.072.264-.132.558-.18.882l-.108.918-.054.738c0 .672.084 1.146.252 1.422s.522.414 1.062.414h5.778l.144-.864c.036-.312.054-.618.054-.918 0-.504-.036-1.002-.108-1.494a9.03 9.03 0 0 0-.324-1.332l2.232-.234zm-8.838-6.012h9.036v2.682h-9.036v2.754h-2.214v-8.19h2.214v2.754zm-2.214-4.187v-2.682h11.25v2.682h-11.25zm5.634-4.825c-1.176 0-2.142-.072-2.898-.216-.768-.156-1.368-.42-1.8-.792-.444-.372-.756-.876-.936-1.512-.18-.648-.27-1.464-.27-2.448 0-.972.09-1.782.27-2.43s.492-1.152.936-1.512c.432-.372 1.032-.636 1.8-.792.756-.156 1.722-.234 2.898-.234s2.142.078 2.898.234 1.356.42 1.8.792c.432.36.738.864.918 1.512s.27 1.458.27 2.43c0 .984-.09 1.8-.27 2.448-.18.636-.486 1.14-.918 1.512-.444.372-1.044.636-1.8.792-.756.144-1.722.216-2.898.216zm3.6-2.88v-2.682c0-.564-.084-.954-.252-1.17s-.462-.324-.882-.324h-6.084v2.718c0 .552.084.936.252 1.152.168.204.462.306.882.306h6.084zm2.016-9.278h-11.25v-2.646l5.508-3.42c.288-.168.516-.282.684-.342a1.31 1.31 0 0 1 .522-.108v-.108h-6.714v-2.682h11.25v2.628l-5.508 3.42-.684.36c-.168.06-.342.096-.522.108v.108h6.714v2.682zm-9.036-20.35h9.036v2.682h-9.036v2.754h-2.214v-8.19h2.214v2.754zm-2.214-4.187v-2.682h11.25v2.682h-11.25zm11.25-4.951l-11.25-.72v-3.492l7.11-1.962v-.126l-7.11-1.962v-3.474l11.25-.72v2.664l-7.2.432v.108l7.2 1.962v2.106l-7.2 1.962v.108l7.2.45v2.664zm-4.626-17.401h2.412v-4.608h2.214v7.29h-11.25v-7.308l2.214.342v4.284h2.412v-3.942h1.998v3.942zm53.48-104.278c0-1.92.13-3.51.39-4.77.28-1.28.74-2.29 1.38-3.03.66-.74 1.54-1.26 2.64-1.56 1.12-.32 2.52-.48 4.2-.48s3.07.16 4.17.48c1.1.3 1.97.82 2.61 1.56.64.72 1.1 1.72 1.38 3 .28 1.26.42 2.86.42 4.8 0 1.54-.09 2.87-.27 3.99-.16 1.12-.43 2.06-.81 2.82-.38.74-.9 1.33-1.56 1.77s-1.48.75-2.46.93c-.98.2-2.14.3-3.48.3-1.36 0-2.53-.1-3.51-.3-.96-.18-1.77-.49-2.43-.93-.66-.46-1.19-1.06-1.59-1.8-.38-.76-.66-1.69-.84-2.79-.16-1.12-.24-2.45-.24-3.99zm5.67-5.34v9.06c0 .64.13 1.07.39 1.29.28.2.85.3 1.71.3h3.75v-9.06c0-.64-.16-1.06-.48-1.26-.3-.22-.91-.33-1.83-.33h-3.54zm14.223 5.34c0-1.92.13-3.51.39-4.77.28-1.28.74-2.29 1.38-3.03.66-.74 1.54-1.26 2.64-1.56 1.12-.32 2.52-.48 4.2-.48s3.07.16 4.17.48c1.1.3 1.97.82 2.61 1.56.64.72 1.1 1.72 1.38 3 .28 1.26.42 2.86.42 4.8 0 1.54-.09 2.87-.27 3.99-.16 1.12-.43 2.06-.81 2.82-.38.74-.9 1.33-1.56 1.77s-1.48.75-2.46.93c-.98.2-2.14.3-3.48.3-1.36 0-2.53-.1-3.51-.3-.96-.18-1.77-.49-2.43-.93-.66-.46-1.19-1.06-1.59-1.8-.38-.76-.66-1.69-.84-2.79-.16-1.12-.24-2.45-.24-3.99zm5.67-5.34v9.06c0 .64.13 1.07.39 1.29.28.2.85.3 1.71.3h3.75v-9.06c0-.64-.16-1.06-.48-1.26-.3-.22-.91-.33-1.83-.33h-3.54zm13.682 14.7v-4.35h4.92v-9.66l-5.22.45v-4.74l10.5-.9v14.85h3.66v4.35h-13.86z" fill="#fff"/><g filter="url(#A)"><rect x="154.754" y="154.753" width="208.916" height="298.967" rx="104.458" fill="#fec600"/></g><defs><filter id="A" x=".001" y="0" width="518.424" height="608.472" filterUnits="userSpaceOnUse" color-interpolation-filters="sRGB"><feFlood flood-opacity="0"/><feBlend in="SourceGraphic"/><feGaussianBlur stdDeviation="77.376"/></filter></defs></svg>