<svg xmlns="http://www.w3.org/2000/svg" width="654" height="733" fill="none" xmlns:v="https://vecta.io/nano"><path d="M275.033 608.164l-1.786 1.778a30 30 0 0 1-21.169 8.743H120.934c-1.068 0-1.934-.867-1.934-1.935V163.499a30 30 0 0 1 8.43-20.851l22.843-23.63a30 30 0 0 1 20.912-9.142l70.517-1.546a30 30 0 0 1 24.289 11.511l13.842 17.698a30 30 0 0 0 23.631 11.519H496c16.569 0 30 13.431 30 30v409.627c0 16.568-13.431 30-30 30h-98.436a30 30 0 0 1-21.168-8.743l-1.786-1.778a30 30 0 0 0-21.169-8.742h-57.24a30 30 0 0 0-21.168 8.742z" fill="#0299d5"/><path d="M120.548 618.685h.386m0 0h131.144a30 30 0 0 0 21.169-8.743l1.786-1.778a30 30 0 0 1 21.168-8.742h57.24a30 30 0 0 1 21.169 8.742l1.786 1.778a30 30 0 0 0 21.168 8.743H496c16.569 0 30-13.432 30-30V179.058c0-16.569-13.431-30-30-30H303.464a30 30 0 0 1-23.631-11.519l-13.842-17.698a30 30 0 0 0-24.289-11.511l-70.517 1.546c-7.903.174-15.418 3.459-20.912 9.142l-22.843 23.63a30 30 0 0 0-8.43 20.851V616.75c0 1.068.866 1.935 1.934 1.935z" stroke="#3ecaf9" stroke-width="6" stroke-linejoin="bevel"/><use href="#B" fill="#099ed5"/><use href="#B" stroke="#40cbf8" stroke-width="6" stroke-linejoin="bevel"/><path d="M119.68 320.558H124v2.682h-11.25v-6.75l2.214.324v3.744h2.7v-3.348h2.016v3.348zm-1.296-5.201c-1.176 0-2.142-.072-2.898-.216-.768-.156-1.368-.42-1.8-.792-.444-.372-.756-.876-.936-1.512-.18-.648-.27-1.464-.27-2.448 0-.972.09-1.782.27-2.43s.492-1.152.936-1.512c.432-.372 1.032-.636 1.8-.792.756-.156 1.722-.234 2.898-.234s2.142.078 2.898.234 1.356.42 1.8.792c.432.36.738.864.918 1.512s.27 1.458.27 2.43c0 .984-.09 1.8-.27 2.448-.18.636-.486 1.14-.918 1.512-.444.372-1.044.636-1.8.792-.756.144-1.722.216-2.898.216zm3.6-2.88v-2.682c0-.564-.084-.954-.252-1.17s-.462-.324-.882-.324h-6.084v2.718c0 .552.084.936.252 1.152.168.204.462.306.882.306h6.084zm1.818-16.514a7.03 7.03 0 0 1 .36 1.44 12.63 12.63 0 0 1 .108 1.764c0 .888-.096 1.626-.288 2.214-.192.576-.51 1.032-.954 1.368s-1.044.576-1.8.72-1.704.216-2.844.216c-1.152 0-2.106-.072-2.862-.216-.768-.156-1.374-.414-1.818-.774s-.756-.846-.936-1.458c-.192-.612-.288-1.392-.288-2.34a10.01 10.01 0 0 1 .054-.99l.144-1.026c.06-.336.132-.6.216-.792l2.16.342c-.072.264-.132.558-.18.882l-.108.918-.054.738c0 .672.084 1.146.252 1.422s.522.414 1.062.414h5.778l.144-.864c.036-.312.054-.618.054-.918 0-.504-.036-1.002-.108-1.494a9.03 9.03 0 0 0-.324-1.332l2.232-.234zm.468-6.121c0 .936-.06 1.704-.18 2.304s-.33 1.074-.63 1.422c-.3.336-.714.576-1.242.72-.528.132-1.2.198-2.016.198h-7.452v-2.682h9.234v-2.034c0-.516-.024-.906-.072-1.17-.06-.264-.156-.45-.288-.558-.144-.108-.342-.162-.594-.162h-8.28v-2.682h7.452c.804 0 1.476.072 2.016.216.528.144.942.39 1.242.738.3.336.51.804.63 1.404s.18 1.362.18 2.286zm-2.754-6.745c.156-.552.282-1.14.378-1.764.084-.624.126-1.236.126-1.836l-.018-.828c-.012-.264-.042-.57-.09-.918h-2.178l-.144 1.674c-.06.744-.162 1.368-.306 1.872s-.342.906-.594 1.206a2.11 2.11 0 0 1-.972.648c-.396.12-.888.18-1.476.18-.924 0-1.662-.126-2.214-.378s-.948-.666-1.188-1.242c-.24-.588-.36-1.362-.36-2.322a17.6 17.6 0 0 1 .108-1.98c.072-.648.18-1.296.324-1.944l2.142.342-.234 1.584a14.86 14.86 0 0 0-.072 1.512l.018.846.072.684h2.196l.126-1.656c.072-.96.24-1.722.504-2.286.252-.576.624-.99 1.116-1.242.48-.264 1.116-.396 1.908-.396.852 0 1.542.15 2.07.45s.912.78 1.152 1.44c.24.648.36 1.506.36 2.574 0 .744-.042 1.458-.126 2.142s-.222 1.356-.414 2.016l-2.214-.378zm51.451-144.565c0-1.92.13-3.51.39-4.77.28-1.28.74-2.29 1.38-3.03.66-.74 1.54-1.26 2.64-1.56 1.12-.32 2.52-.48 4.2-.48s3.07.16 4.17.48c1.1.3 1.97.82 2.61 1.56.64.72 1.1 1.72 1.38 3 .28 1.26.42 2.86.42 4.8 0 1.54-.09 2.87-.27 3.99-.16 1.12-.43 2.06-.81 2.82-.38.74-.9 1.33-1.56 1.77s-1.48.75-2.46.93c-.98.2-2.14.3-3.48.3-1.36 0-2.53-.1-3.51-.3-.96-.18-1.77-.49-2.43-.93-.66-.46-1.19-1.06-1.59-1.8-.38-.76-.66-1.69-.84-2.79-.16-1.12-.24-2.45-.24-3.99zm5.67-5.34v9.06c0 .64.13 1.07.39 1.29.28.2.85.3 1.71.3h3.75v-9.06c0-.64-.16-1.06-.48-1.26-.3-.22-.91-.33-1.83-.33h-3.54zm14.223 5.34c0-1.92.13-3.51.39-4.77.28-1.28.74-2.29 1.38-3.03.66-.74 1.54-1.26 2.64-1.56 1.12-.32 2.52-.48 4.2-.48s3.07.16 4.17.48c1.1.3 1.97.82 2.61 1.56.64.72 1.1 1.72 1.38 3 .28 1.26.42 2.86.42 4.8 0 1.54-.09 2.87-.27 3.99-.16 1.12-.43 2.06-.81 2.82-.38.74-.9 1.33-1.56 1.77s-1.48.75-2.46.93c-.98.2-2.14.3-3.48.3-1.36 0-2.53-.1-3.51-.3-.96-.18-1.77-.49-2.43-.93-.66-.46-1.19-1.06-1.59-1.8-.38-.76-.66-1.69-.84-2.79-.16-1.12-.24-2.45-.24-3.99zm5.67-5.34v9.06c0 .64.13 1.07.39 1.29.28.2.85.3 1.71.3h3.75v-9.06c0-.64-.16-1.06-.48-1.26-.3-.22-.91-.33-1.83-.33h-3.54zm20.522 15.12a28.19 28.19 0 0 1-3.54-.24l-3.66-.66.69-4.17a24.15 24.15 0 0 0 2.67.42l2.76.15c1.38 0 2.38-.07 3-.21v-2.94l-5.19-.78v-2.79l5.19-.87v-2.82c-.58-.14-1.49-.21-2.73-.21-.86 0-1.77.05-2.73.15-.94.1-1.82.24-2.64.42l-.69-4.14a31.92 31.92 0 0 1 3.66-.69c1.26-.16 2.43-.24 3.51-.24 2.46 0 4.29.4 5.49 1.2 1.2.78 1.8 2 1.8 3.66 0 1.14-.24 2.12-.72 2.94-.46.8-1.16 1.44-2.1 1.92v.15c.96.4 1.67.97 2.13 1.71s.69 1.65.69 2.73c0 1.22-.27 2.23-.81 3.03-.52.78-1.34 1.36-2.46 1.74-1.12.36-2.56.54-4.32.54z" fill="#fff"/><g filter="url(#A)"><rect x="200" y="200" width="254" height="333" rx="127" fill="#82ffd8"/></g><defs><filter id="A" x="0" y="0" width="654" height="733" filterUnits="userSpaceOnUse" color-interpolation-filters="sRGB"><feFlood flood-opacity="0"/><feBlend in="SourceGraphic"/><feGaussianBlur stdDeviation="100"/></filter><path id="B" d="M93 226.5c0-14.083 11.417-25.5 25.5-25.5s25.5 11.417 25.5 25.5v145c0 14.083-11.417 25.5-25.5 25.5S93 385.583 93 371.5v-145z"/></defs></svg>