<svg width="514" height="514" viewBox="0 0 514 514" fill="none" xmlns="http://www.w3.org/2000/svg">
<path d="M496.719 274.281C506.263 141.887 406.674 26.8244 274.281 17.2805C141.887 7.73665 26.8246 107.326 17.2807 239.719C7.73686 372.112 107.326 487.175 239.719 496.719C372.113 506.263 487.175 406.674 496.719 274.281Z" fill="#013A69"/>
<path d="M241.844 96.8385C289.202 97.2281 364.564 100.527 442.891 104.676C440.819 102.149 438.674 99.6846 436.503 97.2458C382.17 94.2428 322.534 91.7659 257.305 90.6173C197.077 89.5573 137.171 90.5617 81.712 92.6008C77.3984 97.1977 73.2645 101.962 69.3203 106.887C134.504 100.828 197.621 96.4741 241.844 96.8385Z" fill="#013159"/>
<path d="M357.643 332.133C182.587 328.685 54.5439 329.269 27.7695 329.446C34.5928 351.047 44.3963 371.319 56.6791 389.803C100.123 383.926 149.885 380.698 185.574 387.217C238.569 396.899 338.623 419.975 424.236 429.482C453.416 401.185 475.43 365.571 487.325 325.575C449.495 330.304 406.157 333.089 357.643 332.133Z" fill="#013159"/>
<path d="M216.207 168.648C216.207 168.648 382.728 175.19 481.089 170.153C479.255 165.425 477.284 160.77 475.166 156.193C466.969 156.917 458.876 157.663 450.932 158.432C320.261 171.082 216.207 168.648 216.207 168.648Z" fill="#013159"/>
<path d="M16.6997 259.766C68.6799 249.892 134.858 240.741 188.164 242.955C244.715 245.305 382.025 248.419 497.153 250.501C496.93 242.051 496.275 233.71 495.2 225.498C419.81 224.59 329.119 222.738 262.099 218.971C124.546 211.242 67.8071 214.217 29.9794 220.028C26.7993 220.517 23.1536 221.182 19.1943 221.971C17.5271 233.402 16.6289 245.08 16.6289 256.973C16.6289 257.912 16.6871 258.832 16.6997 259.766Z" fill="#013159"/>
<path d="M496.243 279.404C484.683 280.047 377.862 285.992 333.978 288.818C287.553 291.806 206.742 285.827 65.751 284.137C49.4076 283.943 33.555 284.117 18.2539 284.557C19.2153 292.952 20.6143 301.209 22.4156 309.32C53.6933 304.913 81.3329 301.994 98.4201 302.254C162.038 303.221 327.099 305.581 358.05 304.724C387.205 303.914 484.985 282.119 496.23 279.594C496.233 279.528 496.238 279.467 496.243 279.404Z" fill="#014985"/>
<path d="M191.429 422.872C155.666 414.447 111.531 418.229 82.7227 422.414C94.8967 435.233 108.429 446.744 123.156 456.634C129.038 454.706 134.538 453.231 139.317 452.452C171.577 447.205 227.41 450.256 268.344 457.699C309.279 465.142 365.13 443.934 365.13 443.934C365.13 443.934 337.834 445.654 310.539 445.654C283.243 445.656 249.742 436.609 191.429 422.872Z" fill="#014985"/>
<path d="M490.481 200.08C483.033 199.964 475.55 199.797 468.031 199.556C279.163 193.545 158.204 176.832 132.738 181.753C107.272 186.674 41.4883 202.167 41.4883 202.167C41.4883 202.167 147.108 187.534 196.159 191.827C245.212 196.121 319.486 210.356 462.726 214.832C472.648 215.141 483.011 215.371 493.684 215.533C492.776 210.321 491.719 205.168 490.481 200.08Z" fill="#014985"/>
<path d="M414.588 75.6177C406.988 69.007 399.001 62.8289 390.606 57.2048C230.294 55.659 125.734 63.8889 125.734 63.8889C242.941 65.6295 338.262 70.1227 414.588 75.6177Z" fill="#014985"/>
<path d="M278.562 140.976C306.34 135.908 395.149 135.293 426.634 136.02C434.798 136.207 448.594 136.093 464.522 135.825C462.473 132.323 460.345 128.878 458.127 125.49C444.07 124.635 429.202 123.754 413.756 122.874C324.862 117.807 215.594 112.015 68.0328 119.254C65.2397 119.39 62.5023 119.54 59.7447 119.686C51.6615 131.276 44.5853 143.609 38.6172 156.565C123.866 150.24 251.266 145.957 278.562 140.976Z" fill="#014985"/>
<path d="M389.583 341.307C389.583 352.067 380.86 360.79 370.1 360.79C359.34 360.79 350.617 352.067 350.617 341.307C350.617 330.547 359.34 321.824 370.1 321.824C380.86 321.824 389.583 330.547 389.583 341.307Z" fill="#013159"/>
<path d="M163.657 260.42C172.99 251.087 172.99 235.954 163.657 226.62C154.323 217.287 139.191 217.287 129.857 226.62C120.523 235.954 120.523 251.087 129.857 260.42C139.191 269.754 154.323 269.754 163.657 260.42Z" fill="#013159"/>
<path d="M323.971 140.573C323.971 150.554 313.973 158.645 301.642 158.645C289.311 158.645 279.312 150.554 279.312 140.573C279.312 130.593 289.311 122.502 301.642 122.502C313.975 122.5 323.971 130.593 323.971 140.573Z" fill="#014985"/>
<path d="M363.386 85.8637C372.916 85.8637 380.642 80.4234 380.642 73.7125C380.642 67.0015 372.916 61.5612 363.386 61.5612C353.855 61.5612 346.129 67.0015 346.129 73.7125C346.129 80.4234 353.855 85.8637 363.386 85.8637Z" fill="#014985"/>
<path d="M67.262 180.858C67.262 185.708 62.4753 189.637 56.5704 189.637C50.6655 189.637 45.8789 185.706 45.8789 180.858C45.8789 176.008 50.6655 172.077 56.5704 172.077C62.4753 172.077 67.262 176.008 67.262 180.858Z" fill="#013159"/>
<path d="M94.8705 166.475C94.8705 170.001 91.3893 172.86 87.0935 172.86C82.7976 172.86 79.3164 170.001 79.3164 166.475C79.3164 162.948 82.7976 160.089 87.0935 160.089C91.3893 160.089 94.8705 162.948 94.8705 166.475Z" fill="#013159"/>
<path d="M205.039 264.588C205.039 270.779 198.927 275.798 191.39 275.798C183.851 275.798 177.738 270.779 177.738 264.588C177.738 258.398 183.851 253.378 191.39 253.378C198.927 253.378 205.039 258.398 205.039 264.588Z" fill="#014985"/>
<path d="M113.252 262.911C113.252 267.131 109.469 270.551 104.802 270.551C100.134 270.551 96.3516 267.131 96.3516 262.911C96.3516 258.691 100.134 255.273 104.802 255.273C109.469 255.273 113.252 258.691 113.252 262.911Z" fill="#013159"/>
<path d="M249.976 267.268C249.976 269.674 247.818 271.624 245.159 271.624C242.498 271.624 240.34 269.674 240.34 267.268C240.34 264.862 242.498 262.911 245.159 262.911C247.818 262.911 249.976 264.862 249.976 267.268Z" fill="#013159"/>
<path d="M396.969 183.567C396.969 185.973 394.811 187.924 392.149 187.924C389.488 187.924 387.332 185.973 387.332 183.567C387.332 181.161 389.49 179.211 392.149 179.211C394.813 179.211 396.969 181.161 396.969 183.567Z" fill="#013159"/>
<path d="M252.781 39.6422C252.781 41.694 251.354 43.3562 249.595 43.3562C247.837 43.3562 246.41 41.694 246.41 39.6422C246.41 37.5904 247.837 35.9283 249.595 35.9283C251.356 35.9283 252.781 37.5904 252.781 39.6422Z" fill="#013159"/>
<path d="M313.956 79.3318C313.956 81.3836 312.532 83.0458 310.771 83.0458C309.013 83.0458 307.586 81.3836 307.586 79.3318C307.586 77.2801 309.013 75.6179 310.771 75.6179C312.532 75.6179 313.956 77.2801 313.956 79.3318Z" fill="#013159"/>
<path d="M341.574 320.599C341.574 322.651 339.938 324.313 337.916 324.313C335.895 324.313 334.258 322.651 334.258 320.599C334.258 318.547 335.895 316.885 337.916 316.885C339.935 316.885 341.574 318.55 341.574 320.599Z" fill="#013159"/>
<path d="M203.352 172.863C203.352 174.915 201.715 176.577 199.693 176.577C197.675 176.577 196.035 174.915 196.035 172.863C196.035 170.811 197.672 169.149 199.693 169.149C201.715 169.146 203.352 170.811 203.352 172.863Z" fill="#013159"/>
<path d="M165.847 459.285C165.847 461.336 164.42 462.999 162.662 462.999C160.903 462.999 159.477 461.334 159.477 459.285C159.477 457.233 160.903 455.571 162.662 455.571C164.42 455.571 165.847 457.233 165.847 459.285Z" fill="#013159"/>
<path d="M240.339 464.542C240.339 466.594 238.912 468.256 237.154 468.256C235.396 468.256 233.969 466.594 233.969 464.542C233.969 462.49 235.396 460.828 237.154 460.828C238.912 460.828 240.339 462.49 240.339 464.542Z" fill="#013159"/>
<path d="M130.984 275.799C130.984 277.85 129.557 279.513 127.798 279.513C126.04 279.513 124.613 277.85 124.613 275.799C124.613 273.747 126.04 272.085 127.798 272.085C129.557 272.085 130.984 273.747 130.984 275.799Z" fill="#013159"/>
<path d="M292.136 432.829C310.573 432.829 325.519 419.487 325.519 403.029C325.519 386.571 310.573 373.229 292.136 373.229C273.7 373.229 258.754 386.571 258.754 403.029C258.754 419.487 273.7 432.829 292.136 432.829Z" fill="#013159"/>
<path d="M267.585 154.627C267.585 156.679 266.158 158.341 264.4 158.341C262.642 158.341 261.215 156.679 261.215 154.627C261.215 152.575 262.642 150.913 264.4 150.913C266.158 150.913 267.585 152.575 267.585 154.627Z" fill="#013159"/>
<path d="M352.676 151.419C352.676 155.867 348.687 159.475 343.766 159.475C338.845 159.475 334.855 155.87 334.855 151.419C334.855 146.969 338.845 143.364 343.766 143.364C348.687 143.364 352.676 146.972 352.676 151.419Z" fill="#014985"/>
<path d="M319.524 53.804C319.524 59.2889 314.176 63.7365 307.581 63.7365C300.985 63.7365 295.637 59.2889 295.637 53.804C295.637 48.3165 300.985 43.8689 307.581 43.8689C314.179 43.8689 319.524 48.3165 319.524 53.804Z" fill="#014985"/>
<path d="M369.993 147.139C369.993 149.223 368.124 150.913 365.819 150.913C363.514 150.913 361.645 149.223 361.645 147.139C361.645 145.054 363.514 143.364 365.819 143.364C368.126 143.364 369.993 145.054 369.993 147.139Z" fill="#014985"/>
<path d="M283.251 47.6436C283.251 49.7282 281.561 51.4157 279.476 51.4157C277.392 51.4157 275.699 49.7257 275.699 47.6436C275.699 45.5589 277.389 43.8689 279.476 43.8689C281.561 43.8689 283.251 45.5589 283.251 47.6436Z" fill="#014985"/>
<path d="M333.872 81.1652C333.872 83.2499 332.003 84.9399 329.698 84.9399C327.393 84.9399 325.523 83.2499 325.523 81.1652C325.523 79.0806 327.393 77.3906 329.698 77.3906C332.003 77.3906 333.872 79.0831 333.872 81.1652Z" fill="#014985"/>
<path d="M217.854 263.541C220.16 263.541 222.028 261.851 222.028 259.767C222.028 257.682 220.16 255.992 217.854 255.992C215.549 255.992 213.68 257.682 213.68 259.767C213.68 261.851 215.549 263.541 217.854 263.541Z" fill="#014985"/>
<path d="M204.679 407.568C204.679 410.69 201.878 413.222 198.425 413.222C194.969 413.222 192.168 410.69 192.168 407.568C192.168 404.446 194.969 401.913 198.425 401.913C201.878 401.913 204.679 404.443 204.679 407.568Z" fill="#014985"/>
<path d="M222.976 466.741C222.976 470.73 219.399 473.966 214.984 473.966C210.572 473.966 206.992 470.73 206.992 466.741C206.992 462.751 210.57 459.515 214.984 459.515C219.399 459.515 222.976 462.751 222.976 466.741Z" fill="#014985"/>
<path d="M335.93 430.671C335.93 432.229 334.534 433.492 332.811 433.492C331.088 433.492 329.691 432.229 329.691 430.671C329.691 429.113 331.088 427.85 332.811 427.85C334.534 427.85 335.93 429.113 335.93 430.671Z" fill="#014985"/>
<path d="M197.626 477.033C197.626 478.591 196.229 479.853 194.506 479.853C192.783 479.853 191.387 478.591 191.387 477.033C191.387 475.474 192.783 474.212 194.506 474.212C196.229 474.212 197.626 475.477 197.626 477.033Z" fill="#014985"/>
<path d="M69.3209 267.417C69.3209 268.975 67.9243 270.238 66.2014 270.238C64.4786 270.238 63.082 268.975 63.082 267.417C63.082 265.859 64.4786 264.596 66.2014 264.596C67.9243 264.596 69.3209 265.859 69.3209 267.417Z" fill="#014985"/>
<path d="M409.453 314.985C409.453 318.762 406.066 321.823 401.889 321.823C397.712 321.823 394.324 318.762 394.324 314.985C394.324 311.207 397.712 308.146 401.889 308.146C406.066 308.144 409.453 311.207 409.453 314.985Z" fill="#013159"/>
<path d="M237.156 416.828C237.156 420.605 233.769 423.667 229.592 423.667C225.415 423.667 222.027 420.605 222.027 416.828C222.027 413.051 225.415 409.99 229.592 409.99C233.769 409.987 237.156 413.051 237.156 416.828Z" fill="#013159"/>
<path d="M106.736 406.885C110.914 406.885 114.301 403.823 114.301 400.046C114.301 396.27 110.914 393.208 106.736 393.208C102.559 393.208 99.1719 396.27 99.1719 400.046C99.1719 403.823 102.559 406.885 106.736 406.885Z" fill="#013159"/>
<path d="M182.795 424.926C182.795 439.091 170.97 450.574 156.38 450.574C141.792 450.574 129.965 439.091 129.965 424.926C129.965 410.76 141.79 399.277 156.38 399.277C170.97 399.277 182.795 410.76 182.795 424.926Z" fill="#014985"/>
<path d="M201.771 451.417C201.771 456.985 197.124 461.496 191.391 461.496C185.658 461.496 181.008 456.982 181.008 451.417C181.008 445.851 185.655 441.337 191.391 441.337C197.124 441.335 201.771 445.848 201.771 451.417Z" fill="#014985"/>
<path opacity="0.2" d="M366.251 42.9325C397.333 90.7458 415.615 149.223 415.615 212.373C415.615 346.915 332.638 460.231 219.641 494.418C231.81 496.315 244.275 497.317 256.975 497.317C389.713 497.317 497.319 389.711 497.319 256.973C497.319 163.6 444.036 82.7259 366.251 42.9325Z" fill="#001F33"/>
</svg>
