<svg xmlns="http://www.w3.org/2000/svg" width="61" height="55" fill="none" xmlns:v="https://vecta.io/nano"><style><![CDATA[.B{stroke:#000}.C{fill:#fff}.D{stroke-width:1.879}.E{stroke-width:1.992}.F{color-interpolation-filters:sRGB}.G{flood-opacity:0}.H{stroke-width:.125}]]></style><g filter="url(#A)" class="B"><g filter="url(#B)" class="E"><path d="M45.961 8.752c1.116-3.13 4.865-4.36 6.094-1.999l6.122 11.764c1.038 1.995-.576 5.144-3.018 5.891l-11.577 3.539c-2.381.728-3.994-1.314-3.075-3.892l5.455-15.303z" fill="#29dafc"/><path d="M12.219 19.334c1.116-3.13 4.865-4.36 6.094-1.999L24.434 29.1c1.038 1.995-.576 5.144-3.018 5.891L9.839 38.53c-2.381.728-3.994-1.314-3.075-3.892l5.455-15.304z" fill="#fb5cc7"/><path d="M36.499 8.726c2.682-.82 4.267 1.839 2.75 4.616l-3.587 6.567 3.423 3.939c1.583 1.822.007 5.517-2.708 6.348l-8.186 2.503c-1.841.563-3.334-.542-3.334-2.467v-14.46c0-1.925 1.493-3.943 3.334-4.506l8.309-2.54z" class="C"/></g><path d="M26.356 35.017l-7.52 2.458-.996-1.37 22.972-7.346.124 1.681-6.772 2.143-7.808 2.434z" fill="#000" class="H"/><path d="M56.5 24.777l-3.05 1.743 1.245-1.183 1.805-.56z" fill="#000" class="H"/><g filter="url(#C)" class="C D"><path d="M58.404 23.947c.255-.078.641-.139.954.071l.001-.001c.011.007.021.017.031.025s.031.019.045.03l-.002.003c.296.233.359.619.364.885l.029 1.649a1.9 1.9 0 0 1-.363 1.162c-.316.435-.73.61-.98.686l-2.518.77.047 2.701 2.518-.77c.255-.078.641-.139.954.07h.001c.011.007.021.017.031.024l.045.032-.002.002c.297.233.359.619.364.885l.028 1.623a1.9 1.9 0 0 1-.363 1.162c-.316.434-.73.609-.98.685l-3.181.973c-1.18.361-2.238.441-3.011.021l-.006-.003c-.801-.446-1.135-1.357-1.155-2.483l-.074-4.24c-.02-1.125.279-2.23 1.056-3.159.75-.898 1.802-1.469 2.985-1.83l3.181-.973z"/><path d="M43.997 28.351c.247-.076.514-.116.772-.076l.001-.002c.017.004.021.003.023.004l-.001.001c.269.043.486.169.661.322l.001-.001.974.85-.007-.4c-.005-.262.033-.71.349-1.145l.12-.148a1.91 1.91 0 0 1 .874-.555l1.956-.598c.255-.078.64-.138.953.072l.002-.003c.011.007.02.016.03.023l.046.032-.002.003c.296.233.358.619.363.885l.154 8.834a1.9 1.9 0 0 1-.362 1.162c-.316.435-.73.609-.98.686l-1.956.598c-.264.081-.648.145-.968-.051l-.04-.025-.036-.03c-.286-.244-.343-.628-.348-.905l-.023-1.34-.442-.415.033 1.886c.005.3-.054.738-.363 1.162-.316.434-.73.609-.98.686l-1.956.598c-.264.081-.649.145-.969-.051l-.04-.025-.035-.03c-.285-.244-.344-.628-.349-.904l-.154-8.834c-.005-.262.033-.71.349-1.145l.119-.148a1.91 1.91 0 0 1 .875-.555l1.356-.415z"/><path d="M28.485 33.094c.256-.078.552-.111.825-.008l.001-.001c.02.009.027.01.033.013l-.001.001a1.1 1.1 0 0 1 .435.319l.106.141.004.006.7 1.075.645-1.482.005-.012c.11-.247.269-.533.505-.781l.017-.017.017-.016c.266-.261.559-.414.83-.497l2.113-.646c.255-.078.64-.137.953.072l.002-.002c.013.008.024.019.036.027l.04.028-.002.003c.296.233.359.619.364.885l.154 8.834c.005.3-.054.738-.363 1.162-.316.434-.73.609-.98.685l-2.008.614c-.264.081-.648.145-.968-.052l-.041-.025-.035-.031c-.286-.244-.344-.628-.349-.904l-.035-2.025c-.191.123-.383.205-.56.259l-.522.16c-.181.055-.373.089-.563.086l.035 2.023c.005.3-.055.738-.363 1.162-.316.435-.73.609-.98.686l-1.942.594c-.264.081-.649.145-.969-.051l-.04-.025-.035-.03c-.286-.244-.344-.628-.349-.904l-.154-8.834c-.005-.262.033-.711.349-1.145l.119-.148a1.91 1.91 0 0 1 .875-.555l2.098-.642z"/><path d="M21.651 35.183c.278-.085.59-.12.878-.018l.028.009-.001.001c.298.109.491.337.602.605h.001l1.189 2.747.135.327c.128.321.23.626.303.912h-.001c.104.369.168.739.174 1.105l.063 3.599a1.9 1.9 0 0 1-.362 1.162c-.316.435-.73.609-.981.686l-1.969.602c-.27.082-.64.143-.958-.023l-.039-.02-.036-.026c-.32-.232-.393-.629-.398-.93l-.017-.97-.511.156.017.97c.005.3-.055.738-.363 1.162-.316.435-.73.609-.98.686l-1.916.586c-.264.081-.649.145-.969-.051l-.04-.025-.035-.03c-.286-.244-.344-.628-.349-.904l-.063-3.599c-.006-.363.038-.766.12-1.195l.003-.012.003-.013c.091-.43.226-.923.399-1.473l1.081-3.441a2.32 2.32 0 0 1 .562-.962l.013-.014.014-.013a2.22 2.22 0 0 1 .897-.524l3.508-1.072z"/><path d="M12.459 37.995c.255-.078.64-.137.953.072l.002-.003c.013.008.024.019.036.027l.04.028-.002.002c.296.233.359.619.364.885l.029 1.649a1.9 1.9 0 0 1-.363 1.162c-.316.435-.729.61-.98.687l-2.609.798.048 2.728.068-.021-.021-1.186c-.005-.262.033-.711.349-1.145a1.9 1.9 0 0 1 .993-.703l2.021-.618c.255-.078.641-.139.954.071l.002-.002c.018.011.033.025.049.037l.026.019h-.001c.297.233.358.621.363.887l.074 4.212a1.9 1.9 0 0 1-.362 1.162c-.316.435-.73.609-.981.686l-4.106 1.255c-1.18.361-2.238.441-3.011.021l-.006-.003c-.801-.446-1.135-1.357-1.155-2.483l-.074-4.253c-.02-1.126.279-2.23 1.056-3.159l.006-.007c.75-.885 1.799-1.449 2.979-1.81l3.259-.997z"/><path d="M39.705 29.686c.746-.228 1.362.22 1.376 1l.023 1.324c.006.353-.113.713-.314 1.023.209.185.34.469.346.822l.099 5.678c.013.78-.581 1.597-1.327 1.825l-2.081.636c-.746.228-1.362-.219-1.376-.999l-.099-5.678c-.006-.353.113-.713.314-1.023-.209-.185-.34-.469-.346-.822l-.023-1.324c-.014-.78.58-1.598 1.327-1.826l2.081-.636z"/></g></g><defs><filter id="A" x="-.001" y="4.481" width="60.853" height="50.428" filterUnits="userSpaceOnUse" class="F"><feFlood result="A" class="G"/><feColorMatrix in="SourceAlpha" values="0 0 0 0 0 0 0 0 0 0 0 0 0 0 0 0 0 0 127 0" result="B"/><feOffset dx="-4.25875" dy="2.94056"/><feComposite in2="B" operator="out"/><feColorMatrix values="0 0 0 0 0 0 0 0 0 0 0 0 0 0 0 0 0 0 0.25 0"/><feBlend in2="A"/><feBlend in="SourceGraphic"/></filter><filter id="B" x="2.932" y="4.481" width="56.517" height="36.73" filterUnits="userSpaceOnUse" class="F"><feFlood result="A" class="G"/><feColorMatrix in="SourceAlpha" values="0 0 0 0 0 0 0 0 0 0 0 0 0 0 0 0 0 0 127 0" result="B"/><feOffset dx="-2.61465" dy="1.49409"/><feComposite in2="B" operator="out"/><feColorMatrix values="0 0 0 0 0 0 0 0 0 0 0 0 0 0 0 0 0 0 1 0"/><feBlend in2="A"/><feBlend in="SourceGraphic"/></filter><filter id="C" x="3.36" y="22.895" width="57.492" height="29.573" filterUnits="userSpaceOnUse" class="F"><feFlood result="A" class="G"/><feColorMatrix in="SourceAlpha" values="0 0 0 0 0 0 0 0 0 0 0 0 0 0 0 0 0 0 127 0" result="B"/><feOffset dx="-0.897936" dy="0.498854"/><feComposite in2="B" operator="out"/><feColorMatrix values="0 0 0 0 0 0 0 0 0 0 0 0 0 0 0 0 0 0 1 0"/><feBlend in2="A"/><feBlend in="SourceGraphic"/></filter></defs></svg>