<?xml version="1.0" encoding="UTF-8"?>
<svg width="154px" height="46px" viewBox="0 0 154 46" version="1.1" xmlns="http://www.w3.org/2000/svg" xmlns:xlink="http://www.w3.org/1999/xlink">
    <title>65F76CE8-0955-4E36-A2A6-07F7115E6D03</title>
    <g id="Design" stroke="none" stroke-width="1" fill="none" fill-rule="evenodd">
        <g id="Game-Detail-Among-Us" transform="translate(-224.000000, -824.000000)">
            <g id="app-stor" transform="translate(224.989349, 824.940299)">
                <rect id="Rectangle" stroke="#979797" fill="#000000" x="1.51065089" y="0.559701493" width="151" height="43" rx="6"></rect>
                <g id="Download_on_the_App_Store_Badge_US-UK_blk_092917" transform="translate(20.010651, 8.059701)" fill="#FFFFFE">
                    <path d="M16.9024201,13.9761763 C16.8738636,10.8322127 19.4747968,9.30194467 19.5947345,9.22994551 C18.121215,7.08139892 15.8366886,6.78768803 15.0348198,6.76483115 C13.1169599,6.56254778 11.2573555,7.9133893 10.2795782,7.9133893 C9.28352469,7.9133893 7.77916407,6.7842595 6.15829261,6.81854482 C4.07252003,6.85054445 2.11924998,8.05967332 1.04894937,9.93622305 C-1.16018763,13.7624645 0.488098149,19.3863995 2.60356957,22.4789352 C3.66244755,23.9943462 4.89951858,25.6868981 6.51924778,25.6263273 C8.10356682,25.5611852 8.69525915,24.6149105 10.6074077,24.6149105 C12.5024224,24.6149105 13.0575623,25.6263273 14.7092748,25.5886135 C16.4089625,25.5611852 17.4804053,24.0663454 18.5027309,22.5372202 C19.7260947,20.8012403 20.2172679,19.0904029 20.2366864,19.0035468 C20.1967072,18.9898326 16.9344035,17.7452756 16.9024201,13.9761763" id="Fill-5"></path>
                    <path d="M13.6186328,4.88794686 C14.419114,3.76184492 14.9663599,2.23020145 14.8150625,0.674418605 C13.6561889,0.732353109 12.2075969,1.57602434 11.3727787,2.6779869 C10.6345332,3.64838985 9.97569214,5.2391748 10.1452311,6.7346092 C11.4468178,6.84444337 12.7838146,5.99594427 13.6186328,4.88794686" id="Fill-6"></path>
                    <path d="M32.5440103,20.0337301 L36.8958441,20.0337301 L34.7500838,13.8213995 L34.6909304,13.8213995 L32.5440103,20.0337301 Z M37.4653404,21.8003723 L31.9756738,21.8003723 L30.6569011,25.627907 L28.3313609,25.627907 L33.5322199,11.4651163 L35.9482299,11.4651163 L41.147929,25.627907 L38.7829532,25.627907 L37.4653404,21.8003723 L37.4653404,21.8003723 Z" id="Fill-7"></path>
                    <path d="M49.674908,20.2280039 C49.674908,18.0901141 48.5502522,16.684682 46.8359825,16.684682 C45.1513715,16.684682 44.0184113,18.1192725 44.0184113,20.2280039 C44.0184113,22.3553966 45.1513715,23.7806565 46.8359825,23.7806565 C48.5502522,23.7806565 49.674908,22.384555 49.674908,20.2280039 Z M51.9408284,20.2280039 C51.9408284,23.5089007 50.1541917,25.6176321 47.4576277,25.6176321 C45.9272416,25.6176321 44.7124235,24.9446576 44.0789149,23.7701595 L44.027902,23.7701595 L44.027902,29 L41.8224852,29 L41.8224852,14.9468447 L43.9567213,14.9468447 L43.9567213,16.7033433 L43.997057,16.7033433 C44.6103978,15.5708332 45.9177509,14.8372093 47.4172919,14.8372093 C50.1435145,14.8372093 51.9408284,16.9552714 51.9408284,20.2280039 L51.9408284,20.2280039 Z" id="Fill-8"></path>
                    <path d="M61.1420979,20.2280039 C61.1420979,18.0901141 60.0184967,16.684682 58.304026,16.684682 C56.6192174,16.684682 55.4861244,18.1192725 55.4861244,20.2280039 C55.4861244,22.3553966 56.6192174,23.7806565 58.304026,23.7806565 C60.0184967,23.7806565 61.1420979,22.384555 61.1420979,20.2280039 Z M63.408284,20.2280039 C63.408284,23.5089007 61.6226243,25.6176321 58.9257441,25.6176321 C57.3951786,25.6176321 56.180218,24.9446576 55.5466351,23.7701595 L55.4956163,23.7701595 L55.4956163,29 L53.2899408,29 L53.2899408,14.9468447 L55.4244272,14.9468447 L55.4244272,16.7033433 L55.4647676,16.7033433 C56.0781803,15.5708332 57.3845002,14.8372093 58.8854036,14.8372093 C61.6119459,14.8372093 63.408284,16.9552714 63.408284,20.2280039 L63.408284,20.2280039 Z" id="Fill-9"></path>
                    <path d="M70.9603684,21.3878784 C71.115556,22.8123985 72.471465,23.7466617 74.3223883,23.7466617 C76.097417,23.7466617 77.3740331,22.8123985 77.3740331,21.5277866 C77.3740331,20.4131459 76.603759,19.7459803 74.7811545,19.2892551 L72.9574173,18.8406237 C70.3747336,18.203521 69.1751449,16.9709411 69.1751449,14.9694441 C69.1751449,12.4927217 71.2911332,10.7906977 74.2940694,10.7906977 C77.2664212,10.7906977 79.3042493,12.4927217 79.3722147,14.9694441 L77.2471644,14.9694441 C77.1202957,13.5368302 75.9592208,12.671943 74.2646178,12.671943 C72.5677492,12.671943 71.4078071,13.5472366 71.4078071,14.8202858 C71.4078071,15.8354876 72.1486295,16.4332773 73.9621719,16.8911587 L75.5117822,17.2785079 C78.3980445,17.9757365 79.5976331,19.158597 79.5976331,21.2595329 C79.5976331,23.9455395 77.5009017,25.627907 74.1672008,25.627907 C71.0475907,25.627907 68.9406645,23.9848525 68.8047337,21.3878784 L70.9603684,21.3878784" id="Fill-10"></path>
                    <path d="M84.4486619,12.8139535 L84.4486619,15.254164 L86.3431953,15.254164 L86.3431953,16.9310968 L84.4486619,16.9310968 L84.4486619,22.6169469 C84.4486619,23.5009821 84.8282287,23.9122407 85.6610752,23.9122407 C85.8690118,23.9122407 86.2012703,23.882621 86.3332935,23.8632542 L86.3332935,25.529934 C86.1066536,25.5891735 85.6522737,25.627907 85.1978937,25.627907 C83.1812388,25.627907 82.3946004,24.842984 82.3946004,22.8436518 L82.3946004,16.9310968 L80.9467456,16.9310968 L80.9467456,15.254164 L82.3946004,15.254164 L82.3946004,12.8139535 L84.4486619,12.8139535" id="Fill-11"></path>
                    <path d="M94.9048522,20.2331397 C94.9048522,17.9603119 93.8504899,16.6180176 92.076334,16.6180176 C90.3021782,16.6180176 89.248994,17.9696173 89.248994,20.2331397 C89.248994,22.5152728 90.3021782,23.8459356 92.076334,23.8459356 C93.8504899,23.8459356 94.9048522,22.5152728 94.9048522,20.2331397 Z M87.0177515,20.2331397 C87.0177515,16.9192777 88.9945334,14.8372093 92.076334,14.8372093 C95.1687372,14.8372093 97.1360947,16.9192777 97.1360947,20.2331397 C97.1360947,23.5551439 95.1793397,25.627907 92.076334,25.627907 C88.9745064,25.627907 87.0177515,23.5551439 87.0177515,20.2331397 L87.0177515,20.2331397 Z" id="Fill-12"></path>
                    <path d="M99.1597633,14.9480888 L101.226266,14.9480888 L101.226266,16.7658047 L101.276384,16.7658047 C101.607397,15.557926 102.570133,14.8372093 103.813764,14.8372093 C104.124963,14.8372093 104.384879,14.8784942 104.556213,14.9185996 L104.556213,16.9686906 C104.384879,16.8979164 104.003747,16.8365788 103.582987,16.8365788 C102.189001,16.8365788 101.326502,17.7920298 101.326502,19.2936212 L101.326502,25.627907 L99.1597633,25.627907 L99.1597633,14.9480888" id="Fill-13"></path>
                    <path d="M106.708497,19.2618955 L111.876261,19.2618955 C111.827164,17.6497464 110.815534,16.5889384 109.341476,16.5889384 C107.877695,16.5889384 106.816967,17.6706834 106.708497,19.2618955 Z M113.881253,22.404772 C113.595805,24.3170181 111.768932,25.627907 109.430536,25.627907 C106.423048,25.627907 104.556213,23.5760809 104.556213,20.2831559 C104.556213,16.9797624 106.433324,14.8372093 109.341476,14.8372093 C112.201673,14.8372093 114,16.8390192 114,20.0319119 L114,20.7728491 L106.698221,20.7728491 L106.698221,20.9031238 C106.698221,22.704869 107.809187,23.8854832 109.479633,23.8854832 C110.657966,23.8854832 111.58282,23.3155315 111.867127,22.404772 L113.881253,22.404772 L113.881253,22.404772 Z" id="Fill-14"></path>
                    <path d="M30.6884341,6.46467587 L31.9116873,6.46467587 C33.2686829,6.46467587 34.0504777,5.58647367 34.0504777,4.03916502 C34.0504777,2.51559157 33.2556349,1.62721714 31.9116873,1.62721714 L30.6884341,1.62721714 L30.6884341,6.46467587 Z M32.0236829,0.674418605 C33.9482681,0.674418605 35.0769231,1.90299749 35.0769231,4.02560205 C35.0769231,6.17985354 33.9569668,7.41860465 32.0236829,7.41860465 L29.6804734,7.41860465 L29.6804734,0.674418605 L32.0236829,0.674418605 L32.0236829,0.674418605 Z" id="Fill-15"></path>
                    <path d="M40.1317268,4.71804625 C40.1317268,3.59214066 39.6436385,2.93459333 38.78865,2.93459333 C37.9292142,2.93459333 37.446685,3.59214066 37.446685,4.71804625 C37.446685,5.85318058 37.9292142,6.50726713 38.78865,6.50726713 C39.6436385,6.50726713 40.1317268,5.84856621 40.1317268,4.71804625 Z M36.4260355,4.71804625 C36.4260355,3.04418455 37.3266085,2.02325581 38.78865,2.02325581 C40.2462441,2.02325581 41.147929,3.04418455 41.147929,4.71804625 C41.147929,6.40229028 40.2506914,7.41860465 38.78865,7.41860465 C37.3221613,7.41860465 36.4260355,6.40229028 36.4260355,4.71804625 L36.4260355,4.71804625 Z" id="Fill-16"></path>
                    <polyline id="Fill-17" points="47.7718959 7.41860465 46.6757015 7.41860465 45.5699957 3.44428262 45.4855816 3.44428262 44.3846315 7.41860465 43.2991375 7.41860465 41.8224852 2.02325581 42.894901 2.02325581 43.8531793 6.14015979 43.9328377 6.14015979 45.0337878 2.02325581 46.046757 2.02325581 47.1477071 6.14015979 47.2309323 6.14015979 48.1856439 2.02325581 49.2426036 2.02325581 47.7718959 7.41860465"></polyline>
                    <path d="M49.9171598,2.1255206 L50.9729179,2.1255206 L50.9729179,2.96597254 L51.054415,2.96597254 C51.3248372,2.37824391 51.876795,2.02325581 52.7139926,2.02325581 C53.9549714,2.02325581 54.6390533,2.73205654 54.6390533,3.99214673 L54.6390533,7.41860465 L53.5413118,7.41860465 L53.5413118,4.2542737 C53.5413118,3.40324264 53.1535831,2.98007803 52.3410816,2.98007803 C51.5298148,2.98007803 51.0136664,3.49610376 51.0136664,4.32127476 L51.0136664,7.41860465 L49.9171598,7.41860465 L49.9171598,2.1255206" id="Fill-18"></path>
                    <polygon id="Fill-19" points="56.0630414 7.41860465 57.2624024 7.41860465 57.2624024 0 56.0630414 0"></polygon>
                    <path d="M62.3920818,4.71804625 C62.3920818,3.59214066 61.9039935,2.93459333 61.049005,2.93459333 C60.1895692,2.93459333 59.70704,3.59214066 59.70704,4.71804625 C59.70704,5.85318058 60.1895692,6.50726713 61.049005,6.50726713 C61.9039935,6.50726713 62.3920818,5.84856621 62.3920818,4.71804625 Z M58.6863905,4.71804625 C58.6863905,3.04418455 59.5869636,2.02325581 61.049005,2.02325581 C62.5065992,2.02325581 63.408284,3.04418455 63.408284,4.71804625 C63.408284,6.40229028 62.5110464,7.41860465 61.049005,7.41860465 C59.5825163,7.41860465 58.6863905,6.40229028 58.6863905,4.71804625 L58.6863905,4.71804625 Z" id="Fill-20"></path>
                    <path d="M67.8568921,5.41501456 L67.8568921,4.97889824 L66.6798549,5.05987475 C66.0158302,5.10846065 65.7148771,5.35254697 65.7148771,5.81179943 C65.7148771,6.28030635 66.0908008,6.55331286 66.6080974,6.55331286 C67.3256724,6.55331286 67.8568921,6.06051298 67.8568921,5.41501456 Z M64.7573964,5.85922853 C64.7573964,4.92221469 65.403214,4.38082891 66.551334,4.30447964 L67.8568921,4.22350313 L67.8568921,3.77350513 C67.8568921,3.2240217 67.5205958,2.91284056 66.8704942,2.91284056 C66.3392745,2.91284056 65.9708479,3.12337947 65.8648182,3.49124417 L64.9437518,3.49124417 C65.0412134,2.59703219 65.8198359,2.02325581 66.9144055,2.02325581 C68.123573,2.02325581 68.8047337,2.67338147 68.8047337,3.77350513 L68.8047337,7.33300092 L67.8890223,7.33300092 L67.8890223,6.60074195 L67.8129808,6.60074195 C67.5259508,7.122462 66.9990151,7.41860465 66.3649787,7.41860465 C65.4353442,7.41860465 64.7573964,6.81128086 64.7573964,5.85922853 L64.7573964,5.85922853 Z" id="Fill-21"></path>
                    <path d="M71.8592462,4.69239919 C71.8592462,5.81075237 72.3645618,6.48410639 73.2101232,6.48410639 C74.0511929,6.48410639 74.5711065,5.80138397 74.5711065,4.69708339 C74.5711065,3.59863806 74.0455783,2.90537619 73.2101232,2.90537619 C72.3701764,2.90537619 71.8592462,3.5834144 71.8592462,4.69239919 Z M70.8284024,4.69239919 C70.8284024,3.02599438 71.6503824,1.97087792 72.9271465,1.97087792 C73.6199903,1.97087792 74.2039105,2.31516676 74.4779039,2.89600778 L74.5531398,2.89600778 L74.5531398,0 L75.5502959,0 L75.5502959,7.33194692 L74.5946879,7.33194692 L74.5946879,6.49815899 L74.5149604,6.49815899 C74.2140168,7.07548687 73.6233591,7.41860465 72.9271465,7.41860465 C71.641399,7.41860465 70.8284024,6.36348819 70.8284024,4.69239919 L70.8284024,4.69239919 Z" id="Fill-22"></path>
                    <path d="M83.3033244,4.71804625 C83.3033244,3.59214066 82.8152361,2.93459333 81.9602476,2.93459333 C81.1008119,2.93459333 80.6182826,3.59214066 80.6182826,4.71804625 C80.6182826,5.85318058 81.1008119,6.50726713 81.9602476,6.50726713 C82.8152361,6.50726713 83.3033244,5.84856621 83.3033244,4.71804625 Z M79.5976331,4.71804625 C79.5976331,3.04418455 80.499318,2.02325581 81.9602476,2.02325581 C83.4178418,2.02325581 84.3195266,3.04418455 84.3195266,4.71804625 C84.3195266,6.40229028 83.422289,7.41860465 81.9602476,7.41860465 C80.4948707,7.41860465 79.5976331,6.40229028 79.5976331,4.71804625 L79.5976331,4.71804625 Z" id="Fill-23"></path>
                    <path d="M85.6686391,2.1255206 L86.7243971,2.1255206 L86.7243971,2.96597254 L86.8058943,2.96597254 C87.0763165,2.37824391 87.6282742,2.02325581 88.4654719,2.02325581 C89.7064507,2.02325581 90.3905325,2.73205654 90.3905325,3.99214673 L90.3905325,7.41860465 L89.2927911,7.41860465 L89.2927911,4.2542737 C89.2927911,3.40324264 88.9050624,2.98007803 88.0925608,2.98007803 C87.2812941,2.98007803 86.7651457,3.49610376 86.7651457,4.32127476 L86.7651457,7.41860465 L85.6686391,7.41860465 L85.6686391,2.1255206" id="Fill-24"></path>
                    <path d="M96.1153709,0.674418605 L96.1153709,2.03662719 L97.1360947,2.03662719 L97.1360947,2.93083773 L96.1153709,2.93083773 L96.1153709,5.69465269 C96.1153709,6.25816053 96.3193065,6.50529215 96.7815605,6.50529215 C96.9248383,6.50529215 97.0064125,6.4945473 97.1360947,6.48022083 L97.1360947,7.36368651 C96.9844503,7.39353333 96.8108435,7.41860465 96.6299161,7.41860465 C95.5966424,7.41860465 95.1856337,7.003137 95.1856337,5.96685563 L95.1856337,2.93083773 L94.4378698,2.93083773 L94.4378698,2.03662719 L95.1856337,2.03662719 L95.1856337,0.674418605 L96.1153709,0.674418605" id="Fill-25"></path>
                    <path d="M98.4852071,0 L99.5587524,0 L99.5587524,2.9397154 L99.6440512,2.9397154 C99.9096957,2.34253017 100.489727,1.98469299 101.317125,1.98469299 C102.485717,1.98469299 103.207101,2.70510692 103.207101,3.97412554 L103.207101,7.41860465 L102.122588,7.41860465 L102.122588,4.23361674 C102.122588,3.38167987 101.714373,2.94919453 100.949122,2.94919453 C100.062015,2.94919453 99.5672823,3.49424455 99.5672823,4.30234044 L99.5672823,7.41860465 L98.4852071,7.41860465 L98.4852071,0" id="Fill-26"></path>
                    <path d="M104.927756,4.24161284 L107.557451,4.24161284 C107.533177,3.42602344 107.036136,2.89537121 106.275547,2.89537121 C105.516114,2.89537121 104.985551,3.43063781 104.927756,4.24161284 Z M108.541131,5.91547454 C108.307637,6.84642312 107.475382,7.41860465 106.28595,7.41860465 C104.794826,7.41860465 103.881657,6.39767591 103.881657,4.73650372 C103.881657,3.07648513 104.814476,2.02325581 106.281327,2.02325581 C107.729682,2.02325581 108.60355,3.01073039 108.60355,4.64190919 L108.60355,4.99952265 L104.927756,4.99952265 L104.927756,5.05720224 C104.962433,5.96738617 105.492996,6.54533566 106.313692,6.54533566 C106.936728,6.54533566 107.362103,6.32038526 107.552828,5.91547454 L108.541131,5.91547454 L108.541131,5.91547454 Z" id="Fill-27"></path>
                </g>
            </g>
        </g>
    </g>
</svg>