<svg width="205" height="59" viewBox="0 0 205 59" fill="none" xmlns="http://www.w3.org/2000/svg">
<path d="M203.094 52.1957C203.094 55.3399 200.494 57.8867 197.279 57.8867H6.95615C3.74186 57.8867 1.13281 55.3399 1.13281 52.1957V6.81162C1.13281 3.66892 3.74186 1.11316 6.95615 1.11316H197.277C200.494 1.11316 203.093 3.66892 203.093 6.81162L203.094 52.1957Z" fill="black"/>
<path d="M196.667 1.18185C200.169 1.18185 203.019 3.96038 203.019 7.37501V51.625C203.019 55.0396 200.169 57.8182 196.667 57.8182H7.5641C4.06192 57.8182 1.21215 55.0396 1.21215 51.625V7.37501C1.21215 3.96038 4.06192 1.18185 7.5641 1.18185H196.667ZM196.667 5.4802e-06H7.5641C3.40574 5.4802e-06 0 3.3206 0 7.37501V51.625C0 55.6794 3.40574 59 7.5641 59H196.667C200.825 59 204.231 55.6794 204.231 51.625V7.37501C204.231 3.3206 200.825 5.4802e-06 196.667 5.4802e-06Z" fill="#A6A6A6"/>
<path d="M45.578 29.1814C45.5341 24.4274 49.5703 22.1146 49.7549 22.007C47.469 18.7575 43.926 18.3136 42.6809 18.2782C39.7052 17.9728 36.8187 20.0142 35.3029 20.0142C33.7568 20.0142 31.4225 18.3077 28.9067 18.3578C25.6692 18.4065 22.6406 20.234 20.9795 23.0719C17.5515 28.8583 20.1081 37.3617 23.3925 42.0389C25.0354 44.3296 26.9551 46.8873 29.4679 46.7973C31.9263 46.6985 32.8446 45.2692 35.8112 45.2692C38.7506 45.2692 39.6129 46.7973 42.1756 46.7398C44.814 46.6985 46.4751 44.4388 48.0605 42.1274C49.9591 39.5019 50.7216 36.9163 50.7518 36.7835C50.6898 36.7629 45.6279 34.8793 45.578 29.1814Z" fill="white"/>
<path d="M40.7369 15.2013C42.0591 13.5891 42.9638 11.3958 42.7127 9.17004C40.799 9.25264 38.4057 10.4607 37.0275 12.0374C35.8082 13.4269 34.7189 15.7043 35.0003 17.846C37.15 18.0023 39.3572 16.7884 40.7369 15.2013Z" fill="white"/>
<path d="M81.1567 46.4684H77.7211L75.8391 40.7026H69.2977L67.505 46.4684H64.1602L70.6411 26.8391H74.644L81.1567 46.4684ZM75.2718 38.2836L73.5699 33.158C73.3899 32.6344 73.0525 31.4013 72.5548 29.4602H72.4943C72.2961 30.295 71.9769 31.5281 71.5382 33.158L69.8665 38.2836H75.2718Z" fill="white"/>
<path d="M97.8237 39.2174C97.8237 41.6246 97.1566 43.5273 95.8223 44.9242C94.6271 46.1676 93.1431 46.7886 91.3715 46.7886C89.4593 46.7886 88.0857 46.1189 87.2491 44.7796H87.1886V52.2357H83.9633V36.9739C83.9633 35.4606 83.9224 33.9074 83.8438 32.3144H86.6803L86.8603 34.5579H86.9208C87.9964 32.8675 89.6288 32.0238 91.8193 32.0238C93.5319 32.0238 94.9615 32.6831 96.1052 34.0033C97.2519 35.3249 97.8237 37.0624 97.8237 39.2174ZM94.5379 39.3324C94.5379 37.9548 94.2202 36.819 93.5818 35.9252C92.8844 34.993 91.9479 34.5269 90.774 34.5269C89.9782 34.5269 89.2551 34.7865 88.6091 35.2983C87.9616 35.8146 87.5381 36.4886 87.3399 37.3235C87.24 37.7129 87.1901 38.0315 87.1901 38.2822V40.6422C87.1901 41.6718 87.5139 42.5406 88.1613 43.25C88.8088 43.9595 89.65 44.3135 90.6847 44.3135C91.8995 44.3135 92.845 43.8563 93.5213 42.9447C94.199 42.0317 94.5379 40.8281 94.5379 39.3324Z" fill="white"/>
<path d="M114.521 39.2174C114.521 41.6246 113.854 43.5273 112.518 44.9242C111.325 46.1676 109.841 46.7886 108.069 46.7886C106.157 46.7886 104.783 46.1189 103.948 44.7796H103.888V52.2357H100.662V36.9739C100.662 35.4606 100.622 33.9074 100.543 32.3144H103.38L103.56 34.5579H103.62C104.694 32.8675 106.326 32.0238 108.519 32.0238C110.23 32.0238 111.659 32.6831 112.806 34.0033C113.948 35.3249 114.521 37.0624 114.521 39.2174ZM111.236 39.3324C111.236 37.9548 110.916 36.819 110.278 35.9252C109.581 34.993 108.647 34.5269 107.472 34.5269C106.674 34.5269 105.953 34.7865 105.305 35.2983C104.658 35.8146 104.236 36.4886 104.038 37.3235C103.939 37.7129 103.888 38.0315 103.888 38.2822V40.6422C103.888 41.6718 104.212 42.5406 104.856 43.25C105.504 43.958 106.345 44.3135 107.382 44.3135C108.597 44.3135 109.543 43.8563 110.219 42.9447C110.897 42.0317 111.236 40.8281 111.236 39.3324Z" fill="white"/>
<path d="M133.189 40.9637C133.189 42.6334 132.595 43.9919 131.401 45.0406C130.089 46.1867 128.263 46.759 125.917 46.759C123.751 46.759 122.014 46.3519 120.699 45.5362L121.447 42.9152C122.863 43.75 124.416 44.1689 126.109 44.1689C127.324 44.1689 128.269 43.9005 128.949 43.3665C129.625 42.8326 129.962 42.1157 129.962 41.2219C129.962 40.4254 129.684 39.7542 129.126 39.21C128.57 38.6657 127.643 38.1598 126.348 37.6922C122.823 36.4104 121.062 34.5327 121.062 32.0636C121.062 30.4499 121.68 29.1269 122.916 28.0973C124.147 27.0663 125.79 26.5515 127.844 26.5515C129.676 26.5515 131.198 26.8627 132.413 27.4837L131.607 30.0473C130.472 29.4455 129.189 29.1446 127.754 29.1446C126.619 29.1446 125.732 29.4174 125.097 29.9602C124.56 30.4455 124.291 31.037 124.291 31.7376C124.291 32.5135 124.598 33.1551 125.215 33.6595C125.752 34.1256 126.728 34.6301 128.144 35.1744C129.876 35.8543 131.148 36.6494 131.967 37.5609C132.782 38.4695 133.189 39.6067 133.189 40.9637Z" fill="white"/>
<path d="M143.853 34.6743H140.298V41.5463C140.298 43.2942 140.924 44.1674 142.179 44.1674C142.756 44.1674 143.234 44.1187 143.612 44.0214L143.701 46.4094C143.066 46.641 142.229 46.7575 141.193 46.7575C139.919 46.7575 138.924 46.3784 138.205 45.6218C137.49 44.8636 137.13 43.5922 137.13 41.8059V34.6714H135.012V32.3114H137.13V29.7198L140.298 28.7876V32.3114H143.853V34.6743Z" fill="white"/>
<path d="M159.895 39.2749C159.895 41.4505 159.256 43.2367 157.983 44.6336C156.647 46.0717 154.874 46.7885 152.664 46.7885C150.533 46.7885 148.838 46.0997 147.573 44.7221C146.308 43.3444 145.676 41.6054 145.676 39.5094C145.676 37.3161 146.326 35.5195 147.632 34.1227C148.934 32.7244 150.692 32.0253 152.903 32.0253C155.033 32.0253 156.747 32.7141 158.04 34.0932C159.278 35.431 159.895 37.1583 159.895 39.2749ZM156.548 39.3767C156.548 38.0713 156.262 36.9518 155.683 36.0181C155.007 34.8882 154.04 34.3248 152.788 34.3248C151.491 34.3248 150.506 34.8897 149.83 36.0181C149.251 36.9532 148.965 38.0905 148.965 39.4357C148.965 40.741 149.251 41.8606 149.83 42.7928C150.527 43.9226 151.502 44.4861 152.759 44.4861C153.99 44.4861 154.957 43.9108 155.654 42.7633C156.249 41.8119 156.548 40.6806 156.548 39.3767Z" fill="white"/>
<path d="M170.376 35.08C170.057 35.0225 169.717 34.993 169.36 34.993C168.225 34.993 167.348 35.4104 166.73 36.2467C166.193 36.9842 165.924 37.9164 165.924 39.0419V46.4685H162.7L162.73 36.7718C162.73 35.1405 162.69 33.6552 162.609 32.3159H165.419L165.537 35.024H165.626C165.966 34.0932 166.503 33.3439 167.239 32.782C167.957 32.276 168.733 32.0238 169.57 32.0238C169.868 32.0238 170.137 32.0445 170.376 32.0813V35.08Z" fill="white"/>
<path d="M184.8 38.7217C184.8 39.2852 184.762 39.7601 184.682 40.148H175.006C175.044 41.5463 175.511 42.6157 176.41 43.3532C177.225 44.0125 178.28 44.3429 179.574 44.3429C181.007 44.3429 182.314 44.1202 183.49 43.6733L183.995 45.8563C182.621 46.4404 181 46.731 179.128 46.731C176.877 46.731 175.11 46.0849 173.824 44.7943C172.541 43.5037 171.898 41.7705 171.898 39.5964C171.898 37.4621 172.496 35.6847 173.693 34.2672C174.945 32.7539 176.638 31.9972 178.768 31.9972C180.86 31.9972 182.444 32.7539 183.52 34.2672C184.372 35.4693 184.8 36.9561 184.8 38.7217ZM181.724 37.906C181.745 36.9738 181.535 36.1685 181.098 35.4885C180.54 34.6138 179.682 34.1772 178.528 34.1772C177.473 34.1772 176.615 34.6035 175.96 35.459C175.423 36.139 175.104 36.9547 175.006 37.9046H181.724V37.906Z" fill="white"/>
<path d="M74.2041 14.7633C74.2041 16.4994 73.6701 17.8063 72.6036 18.6839C71.6157 19.4937 70.2118 19.8993 68.3934 19.8993C67.4917 19.8993 66.7202 19.8609 66.0742 19.7842V10.2985C66.9169 10.1657 67.8246 10.0979 68.8049 10.0979C70.537 10.0979 71.8426 10.4652 72.7231 11.1997C73.7094 12.0302 74.2041 13.2175 74.2041 14.7633ZM72.5325 14.8061C72.5325 13.6807 72.2269 12.8178 71.6157 12.216C71.0045 11.6157 70.1119 11.3148 68.9365 11.3148C68.4372 11.3148 68.0121 11.3472 67.6597 11.4151V18.6264C67.8548 18.6559 68.2118 18.6691 68.7307 18.6691C69.944 18.6691 70.8805 18.3402 71.54 17.6824C72.1996 17.0245 72.5325 16.0658 72.5325 14.8061Z" fill="white"/>
<path d="M83.0667 16.2796C83.0667 17.349 82.7536 18.2252 82.1273 18.9125C81.4707 19.619 80.6008 19.9716 79.5146 19.9716C78.4678 19.9716 77.6342 19.6338 77.0124 18.9553C76.3922 18.2783 76.082 17.4242 76.082 16.3947C76.082 15.3179 76.4012 14.4344 77.0427 13.7485C77.6841 13.0627 78.5464 12.719 79.6326 12.719C80.6795 12.719 81.5206 13.0568 82.1575 13.7338C82.7627 14.3916 83.0667 15.2412 83.0667 16.2796ZM81.4223 16.3298C81.4223 15.6882 81.2801 15.138 80.9972 14.6793C80.6644 14.1247 80.1909 13.8474 79.5751 13.8474C78.9382 13.8474 78.4541 14.1247 78.1213 14.6793C77.8369 15.138 77.6962 15.697 77.6962 16.3578C77.6962 16.9994 77.8384 17.5496 78.1213 18.0083C78.4647 18.5629 78.9428 18.8402 79.56 18.8402C80.1651 18.8402 80.6402 18.5585 80.9821 17.9936C81.2755 17.526 81.4223 16.9714 81.4223 16.3298Z" fill="white"/>
<path d="M94.9536 12.8606L92.7222 19.8137H91.2699L90.3456 16.7944C90.1111 16.0407 89.9205 15.2914 89.7722 14.548H89.7435C89.6058 15.312 89.4152 16.0599 89.1701 16.7944L88.1883 19.8137H86.7194L84.6211 12.8606H86.2504L87.0567 16.1661C87.2519 16.9478 87.4122 17.6927 87.5408 18.3977H87.5696C87.6876 17.8166 87.8827 17.0761 88.1581 16.1808L89.1701 12.8621H90.4621L91.4318 16.11C91.6663 16.9021 91.8569 17.6647 92.0036 18.3992H92.0475C92.1549 17.6838 92.3168 16.9213 92.5316 16.11L93.397 12.8621H94.9536V12.8606Z" fill="white"/>
<path d="M103.173 19.8138H101.587V15.8313C101.587 14.6041 101.109 13.9905 100.15 13.9905C99.6797 13.9905 99.3 14.1586 99.005 14.4964C98.713 14.8342 98.5648 15.2324 98.5648 15.6882V19.8123H96.9794V14.8475C96.9794 14.2368 96.9597 13.5745 96.9219 12.8577H98.3152L98.3893 13.9448H98.4332C98.6177 13.607 98.8931 13.3282 99.2546 13.1055C99.6843 12.8459 100.165 12.7146 100.692 12.7146C101.357 12.7146 101.911 12.924 102.351 13.3444C102.899 13.8592 103.173 14.6277 103.173 15.6484V19.8138Z" fill="white"/>
<path d="M107.545 19.8137H105.961V9.67017H107.545V19.8137Z" fill="white"/>
<path d="M116.879 16.2796C116.879 17.349 116.566 18.2252 115.94 18.9125C115.283 19.619 114.412 19.9716 113.327 19.9716C112.279 19.9716 111.445 19.6338 110.825 18.9553C110.205 18.2783 109.895 17.4242 109.895 16.3947C109.895 15.3179 110.214 14.4344 110.855 13.7485C111.497 13.0627 112.359 12.719 113.444 12.719C114.492 12.719 115.332 13.0568 115.97 13.7338C116.575 14.3916 116.879 15.2412 116.879 16.2796ZM115.233 16.3298C115.233 15.6882 115.091 15.138 114.808 14.6793C114.477 14.1247 114.002 13.8474 113.388 13.8474C112.749 13.8474 112.265 14.1247 111.934 14.6793C111.649 15.138 111.509 15.697 111.509 16.3578C111.509 16.9994 111.651 17.5496 111.934 18.0083C112.277 18.5629 112.755 18.8402 113.373 18.8402C113.978 18.8402 114.451 18.5585 114.793 17.9936C115.088 17.526 115.233 16.9714 115.233 16.3298Z" fill="white"/>
<path d="M124.55 19.8137H123.126L123.008 19.0128H122.964C122.477 19.6515 121.783 19.9716 120.881 19.9716C120.208 19.9716 119.664 19.7606 119.254 19.3417C118.881 18.9612 118.695 18.4877 118.695 17.9257C118.695 17.0761 119.058 16.4286 119.789 15.9802C120.518 15.5318 121.544 15.312 122.865 15.3224V15.1926C122.865 14.2766 122.371 13.8193 121.384 13.8193C120.68 13.8193 120.06 13.9919 119.524 14.3341L119.202 13.3193C119.865 12.9196 120.683 12.719 121.648 12.719C123.512 12.719 124.447 13.6777 124.447 15.5952V18.1558C124.447 18.8506 124.482 19.4037 124.55 19.8137ZM122.904 17.4242V16.3519C121.155 16.3224 120.281 16.79 120.281 17.7532C120.281 18.116 120.381 18.3874 120.585 18.5688C120.789 18.7503 121.049 18.8402 121.359 18.8402C121.707 18.8402 122.033 18.7326 122.329 18.5187C122.627 18.3033 122.81 18.0305 122.878 17.6956C122.895 17.6204 122.904 17.529 122.904 17.4242Z" fill="white"/>
<path d="M133.562 19.8137H132.155L132.081 18.6972H132.037C131.587 19.5468 130.822 19.9716 129.746 19.9716C128.887 19.9716 128.171 19.6426 127.604 18.9848C127.037 18.3269 126.754 17.4729 126.754 16.4242C126.754 15.2988 127.061 14.3872 127.678 13.691C128.276 13.042 129.008 12.7175 129.879 12.7175C130.837 12.7175 131.507 13.0317 131.888 13.6615H131.919V9.67017H133.506V17.9405C133.506 18.6175 133.524 19.2414 133.562 19.8137ZM131.919 16.8814V15.7221C131.919 15.5215 131.904 15.3592 131.875 15.2353C131.786 14.8636 131.593 14.5509 131.301 14.2987C131.006 14.0465 130.651 13.9196 130.241 13.9196C129.649 13.9196 129.187 14.1483 128.846 14.607C128.509 15.0657 128.338 15.6513 128.338 16.3667C128.338 17.054 128.5 17.6116 128.825 18.0408C129.168 18.498 129.631 18.7267 130.211 18.7267C130.731 18.7267 131.147 18.5364 131.463 18.1544C131.769 17.8018 131.919 17.377 131.919 16.8814Z" fill="white"/>
<path d="M147.118 16.2796C147.118 17.349 146.804 18.2252 146.178 18.9125C145.521 19.619 144.653 19.9716 143.565 19.9716C142.52 19.9716 141.686 19.6338 141.063 18.9553C140.443 18.2783 140.133 17.4242 140.133 16.3947C140.133 15.3179 140.452 14.4344 141.093 13.7485C141.735 13.0627 142.597 12.719 143.685 12.719C144.73 12.719 145.573 13.0568 146.208 13.7338C146.813 14.3916 147.118 15.2412 147.118 16.2796ZM145.475 16.3298C145.475 15.6882 145.332 15.138 145.049 14.6793C144.715 14.1247 144.243 13.8474 143.626 13.8474C142.991 13.8474 142.506 14.1247 142.172 14.6793C141.888 15.138 141.747 15.697 141.747 16.3578C141.747 16.9994 141.889 17.5496 142.172 18.0083C142.516 18.5629 142.994 18.8402 143.611 18.8402C144.216 18.8402 144.692 18.5585 145.034 17.9936C145.326 17.526 145.475 16.9714 145.475 16.3298Z" fill="white"/>
<path d="M155.644 19.8138H154.06V15.8313C154.06 14.6041 153.582 13.9905 152.621 13.9905C152.151 13.9905 151.771 14.1586 151.478 14.4964C151.184 14.8342 151.037 15.2324 151.037 15.6882V19.8123H149.451V14.8475C149.451 14.2368 149.432 13.5745 149.395 12.8577H150.786L150.86 13.9448H150.904C151.09 13.607 151.366 13.3282 151.726 13.1055C152.157 12.8459 152.637 12.7146 153.164 12.7146C153.829 12.7146 154.382 12.924 154.823 13.3444C155.372 13.8592 155.644 14.6277 155.644 15.6484V19.8138Z" fill="white"/>
<path d="M166.312 14.0184H164.566V17.3962C164.566 18.2546 164.876 18.6839 165.491 18.6839C165.775 18.6839 166.011 18.6603 166.197 18.6116L166.238 19.7842C165.925 19.8993 165.513 19.9568 165.006 19.9568C164.38 19.9568 163.893 19.7709 163.541 19.3992C163.187 19.0275 163.011 18.4021 163.011 17.5245V14.0184H161.969V12.8606H163.011V11.5862L164.565 11.1289V12.8591H166.311V14.0184H166.312Z" fill="white"/>
<path d="M174.705 19.8137H173.118V15.8607C173.118 14.6144 172.64 13.9904 171.683 13.9904C170.947 13.9904 170.445 14.3518 170.17 15.0746C170.123 15.2265 170.096 15.4123 170.096 15.6306V19.8123H168.512V9.67017H170.096V13.8606H170.126C170.625 13.0981 171.341 12.7175 172.268 12.7175C172.925 12.7175 173.468 12.927 173.899 13.3473C174.436 13.871 174.705 14.6498 174.705 15.6793V19.8137Z" fill="white"/>
<path d="M183.364 16.0082C183.364 16.2855 183.342 16.5186 183.305 16.7088H178.55C178.571 17.3962 178.798 17.9198 179.238 18.2827C179.641 18.6072 180.16 18.7694 180.795 18.7694C181.498 18.7694 182.14 18.6603 182.718 18.4405L182.966 19.5143C182.29 19.8004 181.494 19.9435 180.573 19.9435C179.468 19.9435 178.598 19.6264 177.969 18.9921C177.337 18.3579 177.023 17.5068 177.023 16.4389C177.023 15.3902 177.315 14.517 177.904 13.8208C178.518 13.0774 179.349 12.7057 180.397 12.7057C181.423 12.7057 182.202 13.0774 182.728 13.8208C183.153 14.4108 183.364 15.1409 183.364 16.0082ZM181.851 15.6085C181.863 15.1498 181.759 14.7545 181.544 14.4211C181.268 13.9919 180.849 13.7765 180.282 13.7765C179.765 13.7765 179.343 13.986 179.02 14.4064C178.757 14.7412 178.601 15.1409 178.55 15.6085H181.851Z" fill="white"/>
</svg>
