<svg width="171" height="171" viewBox="0 0 171 171" fill="none" xmlns="http://www.w3.org/2000/svg">
<path d="M64.9141 147.693C79.3822 154.984 92.1161 155.013 100.979 149.166L109.097 143.81C118.736 138.329 124.429 126.321 123.527 109.605C123.498 109.099 123.466 108.594 123.429 108.085C122.273 92.9088 116.07 76.5703 106.809 62.0994L126.785 48.9481C129.504 48.9923 141.189 48.9941 146.164 45.9178C148.059 44.7466 149.093 42.9445 149.63 41.0662C157.299 38.8471 153.72 33.2789 152.684 31.8966L156.399 29.4507L156.353 29.4762C156.638 29.3177 156.802 28.9663 156.767 28.4688C156.703 27.5426 155.982 26.4674 155.158 26.0672C154.749 25.8688 154.391 25.8741 154.142 26.0424L154.148 26.0378L150.795 28.2453C146.009 21.8209 142.725 24.972 141.175 27.4686C138.925 27.0115 136.375 27.1551 133.952 28.7666C127.254 33.2219 125.376 42.0393 124.9 45.2938L104.548 58.6926C94.7445 44.436 81.9978 32.3175 68.3368 25.4334C53.8591 18.1392 41.1178 18.1102 32.2564 23.9641L32.2669 23.9571L22.5893 30.342C13.8397 36.1146 8.86529 47.6154 9.72353 63.5117C11.4512 95.5099 36.1582 133.2 64.9141 147.693Z" fill="#DB513A"/>
<path d="M74.7136 132.057C98.2153 143.902 116.503 133.89 117.65 109.756C117.737 107.996 117.732 106.162 117.627 104.253C116.915 91.0716 111.757 76.7914 103.872 64.0356L106.813 62.0994L126.789 48.948C129.508 48.9922 141.193 48.994 146.169 45.9177C148.063 44.7465 149.097 42.9444 149.634 41.0661C157.303 38.847 153.724 33.2788 152.688 31.8965L156.403 29.4506L156.357 29.476C156.643 29.3176 156.806 28.9662 156.771 28.4687C156.707 27.5425 155.987 26.4673 155.162 26.0672C154.753 25.8688 154.395 25.874 154.146 26.0423L154.152 26.0376L150.799 28.2451C146.014 21.8207 142.729 24.9718 141.179 27.4684C138.929 27.0113 136.379 27.1549 133.956 28.7664C127.258 33.2217 125.38 42.0391 124.904 45.2937L104.552 58.6925L101.657 60.5986C92.9738 47.6678 81.5223 36.6361 69.2282 30.4376C46.9833 19.227 29.4101 27.5885 26.6164 48.9812C26.2445 51.8368 26.134 54.9256 26.3144 58.2343C27.8291 86.2948 49.4956 119.348 74.7136 132.057Z" fill="#EBEDEE"/>
<path d="M69.7307 39.7137C79.7364 44.7565 89.0593 53.7174 96.1462 64.2281L91.326 67.4016C85.636 59.0079 78.1746 51.8577 70.1686 47.8223C53.5793 39.4643 40.9402 47.6485 41.936 66.1095C42.3092 73.0124 44.5359 80.3746 48.0476 87.3241C53.92 98.9578 63.3929 109.437 73.7771 114.672C84.7543 120.206 93.9996 118.49 98.7095 111.348C101.119 107.697 102.342 102.626 102.006 96.3814C101.555 88.0276 98.3902 79.0032 93.5225 70.8509L98.3533 67.6704C104.628 77.972 108.722 89.4481 109.295 100.053C109.52 104.218 109.187 107.96 108.366 111.234C104.67 126.009 91.0874 131.287 74.2151 122.781C56.2866 113.747 40.5538 92.1335 35.9439 71.566C35.2537 68.4846 34.8127 65.4233 34.6504 62.4341C33.4117 39.4965 49.1156 29.3223 69.7307 39.7137Z" fill="#DB513A"/>
<path d="M73.0973 80.1412C73.1613 81.0674 73.8819 82.1427 74.7069 82.5428C75.1126 82.7396 75.4679 82.7364 75.7167 82.5723L76.4644 82.08L76.6236 81.9752L79.52 80.0683C80.5924 82.1429 81.2749 84.3523 81.3866 86.4211C81.6769 91.7989 77.9937 94.1827 73.1592 91.7489C68.3283 89.311 64.1763 82.9777 63.8859 77.5999C63.5954 72.2183 67.2748 69.8347 72.1095 72.2723C74.0052 73.2267 75.7957 74.7805 77.2898 76.6413L74.3477 78.5783L74.1846 78.6855L73.4652 79.1592C73.208 79.3289 73.0647 79.6706 73.0973 80.1412Z" fill="#DB513A"/>
<path d="M71.7131 65.0272C63.2848 60.7795 56.8643 64.9403 57.3706 74.3191C57.8768 83.6979 65.1197 94.7425 73.5479 98.9902C81.9764 103.242 88.3967 99.0771 87.8904 89.6983C87.6701 85.6176 86.1751 81.2217 83.862 77.2072L88.4529 74.1847C91.8541 80.0828 94.0529 86.5424 94.377 92.5381C94.9055 102.373 90.2523 108.299 83.0409 108.614C80.1527 108.743 76.8549 107.973 73.3123 106.187C70.9401 104.991 68.635 103.432 66.4472 101.587C57.2202 93.8219 50.1558 81.0848 49.5575 69.9525C48.8128 56.1771 58.2434 50.0714 70.6186 56.3074C76.5312 59.2876 82.0456 64.5443 86.2747 70.7234L81.6233 73.7858C78.8562 70.0389 75.3986 66.8838 71.7131 65.0272Z" fill="#DB513A"/>
<path d="M126.237 48.9141L149.808 33.3158C149.808 33.3158 151.81 42.4107 146.166 45.9001C140.522 49.3894 126.237 48.9141 126.237 48.9141Z" fill="#87B046"/>
<path d="M124.783 46.5202L147.948 30.747C147.948 30.747 140.497 24.4291 133.973 28.7687C125.672 34.2904 124.783 46.5202 124.783 46.5202Z" fill="#87B046"/>
<path d="M69.7363 81.6269C70.2056 82.886 70.9725 84.1156 71.9044 85.1104C73.1886 84.7355 74.4728 84.3607 75.7571 83.9859L75.755 83.9864C76.3559 83.8121 76.7166 83.1992 76.6527 82.2745C76.6458 82.1757 76.6342 82.0758 76.6183 81.9752L76.4591 82.0801L75.7114 82.5723C75.4626 82.7365 75.1072 82.7396 74.7016 82.5428C73.8766 82.1427 73.156 81.0675 73.092 80.1413C73.0594 79.6706 73.2027 79.329 73.4599 79.1594L74.1792 78.6857L74.3423 78.5784C74.2556 78.5262 74.1679 78.4782 74.0794 78.4353C73.2701 78.0428 72.5875 78.1495 72.2034 78.6315L72.2139 78.6152L69.7363 81.6269Z" fill="#A8241B"/>
<path d="M64.9152 147.693C79.3833 154.984 92.1173 155.013 100.98 149.166L110.657 142.781C102.002 148.492 89.6525 148.598 75.6018 141.806C75.5571 141.784 75.5122 141.762 75.4674 141.74C75.4004 141.708 75.3336 141.676 75.2667 141.643C75.042 141.533 74.8171 141.421 74.5916 141.307C45.8351 126.816 21.1316 89.1245 19.4008 57.1279C18.9863 49.4283 19.9372 42.7611 22.0254 37.2765L22.0274 37.2712C22.0565 37.1947 22.0859 37.1186 22.1154 37.0427L22.1469 36.9623C22.1649 36.9164 22.1829 36.8707 22.2011 36.825C22.2285 36.756 22.256 36.6873 22.2837 36.6187L22.3031 36.5705C24.1671 31.9772 26.8498 28.2496 30.2058 25.4818L30.2164 25.4731C30.3389 25.3722 30.4622 25.2725 30.5864 25.1743L30.6155 25.1513C30.653 25.1216 30.6907 25.0922 30.7284 25.0627L30.7761 25.0257C30.8352 24.9799 30.8944 24.9344 30.954 24.8892L31.0209 24.8383L31.1167 24.7665L31.193 24.7097C31.2304 24.6819 31.2678 24.6543 31.3053 24.6269C31.3464 24.5968 31.3876 24.5668 31.4289 24.5369L31.5079 24.4802C31.5417 24.4559 31.5756 24.4318 31.6096 24.4077L31.6814 24.3569C31.7344 24.3197 31.7876 24.2826 31.8409 24.2457L31.901 24.2044C31.9433 24.1753 31.9857 24.1465 32.0283 24.1176L32.0853 24.0791C32.1426 24.0405 32.2001 24.0022 32.2577 23.9641L32.2682 23.9571L22.5906 30.342C13.841 36.1146 8.86659 47.6154 9.72483 63.5117C11.4523 95.5099 36.1593 133.2 64.9152 147.693Z" fill="#C63127"/>
<path d="M150.796 28.2452C146.01 21.8208 142.726 24.9719 141.176 27.4686C144.124 28.0675 146.556 29.6976 147.51 30.4083L150.796 28.2452Z" fill="#65892A"/>
<path d="M149.634 41.0662C157.303 38.8471 153.725 33.279 152.689 31.8966L149.893 33.737C150.084 34.8599 150.495 38.0605 149.634 41.0662Z" fill="#65892A"/>
<path d="M72.068 80.0472C72.1624 81.4136 73.2256 82.9997 74.4426 83.5901C75.6596 84.1804 76.5696 83.5513 76.4752 82.1849C76.4727 82.1501 76.4695 82.1152 76.4659 82.08L75.7182 82.5722C75.4695 82.7364 75.1141 82.7395 74.7084 82.5428C73.8834 82.1426 73.1628 81.0674 73.0988 80.1413C73.0662 79.6706 73.2095 79.3289 73.4667 79.1593L74.1861 78.6857L74.1006 78.6422C72.8836 78.0518 71.9736 78.6809 72.068 80.0472Z" fill="#7B1B16"/>
<path d="M73.0956 80.1413C73.1597 81.0675 73.8803 82.1426 74.7052 82.5428C75.1109 82.7396 75.4662 82.7365 75.715 82.5722L76.4627 82.0801L76.6219 81.9752L79.5183 80.0684L83.864 77.2073L88.4549 74.1848L93.5189 70.8508L98.3498 67.6704L103.871 64.0357L106.811 62.0995L126.787 48.9481C126.418 48.9421 126.214 48.9353 126.214 48.9353L149.813 33.319C149.813 33.319 149.846 33.4688 149.891 33.7371L152.687 31.8966L156.402 29.4508L156.356 29.4762C156.641 29.3178 156.804 28.9664 156.77 28.4688C156.706 27.5427 155.985 26.4674 155.16 26.0673C154.751 25.8689 154.394 25.8742 154.144 26.0424L154.15 26.0378L150.797 28.2453L147.512 30.4083C147.793 30.6176 147.946 30.7472 147.946 30.7472L124.754 46.5387C124.754 46.5387 124.787 46.0775 124.902 45.2939L104.551 58.6927L101.655 60.5988L96.1426 64.2283L91.3224 67.4018L86.2766 70.7237L81.6252 73.7861L77.288 76.6416L74.346 78.5785L74.1829 78.6859L73.4635 79.1596C73.2064 79.329 73.0631 79.6706 73.0956 80.1413Z" fill="#7D511F"/>
<path d="M155.372 29.1709C156.074 29.5113 156.598 29.1485 156.544 28.3606C156.489 27.5726 155.876 26.6579 155.175 26.3174C154.473 25.977 153.948 26.3398 154.003 27.1278C154.057 27.9157 154.67 28.8304 155.372 29.1709Z" fill="#5F3E1E"/>
<path d="M18.796 93.9628C16.6953 87.7536 15.0147 81.3923 13.9963 74.9128C13.48 71.6279 13.1347 68.3158 12.986 64.9936C12.8874 62.7895 12.9279 60.5905 13.0283 58.3873C13.2099 54.4016 13.6007 50.2791 15.1123 46.5492C15.8036 44.8435 16.7735 43.2068 18.1475 41.9618C18.6229 41.5311 19.1389 41.1645 19.6831 40.8522C20.6619 37.0791 22.1065 33.7041 23.9947 30.7866L23.2233 31.2956C14.4497 37.0841 10.0623 48.5034 10.8693 63.45C11.4369 73.9642 14.5305 85.1149 19.449 95.8415C19.2282 95.2164 19.0085 94.591 18.796 93.9628Z" fill="#A8241B"/>
<path d="M54.9461 138.913C51.4746 136.722 48.1332 134.329 44.8954 131.805C51.2851 137.93 58.2334 143.043 65.4345 146.672C73.4596 150.717 81.0053 152.57 87.8619 152.18L87.8627 152.18C92.5673 151.913 96.7701 150.578 100.355 148.212L101.157 147.684C100.025 147.878 98.862 148.009 97.6709 148.077C96.4904 148.144 95.2904 148.143 94.0753 148.086C90.6273 149.06 87.025 149.45 83.4349 149.284C78.4584 149.055 73.5776 147.834 68.9355 146.064C64.0332 144.194 59.378 141.71 54.9461 138.913Z" fill="#A8241B"/>
<path d="M60.5731 140.223C65.9697 143.236 71.8597 145.667 77.9858 146.51C72.614 144.916 67.6434 142.465 62.9613 139.491C39.0003 123.915 20.0381 94.7265 15.5853 66.4619C16.0743 95.0428 35.9966 126.083 60.5731 140.223Z" fill="#A8241B"/>
<path d="M30.4988 50.9889C27.1774 69.5065 35.4262 89.1964 46.0877 104.047C51.6934 111.653 58.4136 118.599 66.2708 123.894C74.0383 129.091 83.2915 133.211 92.8208 132.346C85.7677 132.281 79.0978 129.717 73.0958 126.231C49.5783 112.576 28.172 78.6267 30.4988 50.9889Z" fill="#B7CAD7"/>
<path d="M47.3297 73.6359C46.8697 71.0087 46.5377 68.2585 46.7216 65.5875C46.0403 68.2132 46.0622 71.0919 46.2241 73.7887C46.3382 74.5616 46.5029 76.1 46.6392 76.8704C46.8536 77.8585 47.0469 78.9363 47.303 79.9116L47.8868 81.9035C51.5259 93.4356 59.9846 104.747 70.8815 110.261C74.5308 112.134 78.79 113.34 82.8817 112.792C80.1534 112.665 77.5454 111.922 75.1192 110.827C73.6004 110.177 72.1437 109.314 70.7512 108.425C70.2019 108.14 68.799 107.073 68.2924 106.726C67.5442 106.207 66.685 105.41 65.9642 104.852C65.251 104.281 64.068 103.116 63.3872 102.501C60.2518 99.3139 57.3646 95.7933 54.976 92.0062C53.5645 89.8121 52.2427 87.3617 51.1145 85.011C50.0424 82.6201 49.0017 80.0592 48.2977 77.5288C47.922 76.422 47.5999 74.7938 47.3297 73.6359Z" fill="#B7CAD7"/>
<path d="M70.906 93.9817C73.1554 95.338 75.9451 96.3793 78.5739 95.773C73.6503 94.9316 69.7787 90.9223 66.9092 87.1367C64.0343 83.0856 61.7364 78.5084 61.448 73.4161C59.1941 80.802 64.62 90.1625 70.906 93.9817Z" fill="#B7CAD7"/>
<path d="M75.3531 81.4916C73.697 81.2604 73.5087 79.4601 73.5087 79.4601C73.4025 81.8768 75.5552 82.0747 75.5552 82.0747L125.419 49.3833L75.3531 81.4916Z" fill="#AC8C65"/>
<path d="M74.0165 79.1633L124.721 48.7168C124.721 48.7168 124.08 47.7143 124.416 46.2016L74.0165 79.1633Z" fill="#5A361B"/>
<path d="M141.922 33.4696L145.999 30.6567C145.999 30.6567 141.418 27.1502 137.104 28.3863C132.79 29.6223 128.938 33.9732 127.038 38.942C127.038 38.942 135.442 25.7049 141.922 33.4696Z" fill="#65892A"/>
<path d="M133.724 46.0288C134.649 44.617 144.401 37.6632 144.401 37.6632L127.963 48.3378C127.963 48.3378 134.013 48.5297 137.604 47.449C137.604 47.449 132.873 47.3282 133.724 46.0288Z" fill="#65892A"/>
</svg>
