<svg width="270" height="276" viewBox="0 0 270 276" fill="none" xmlns="http://www.w3.org/2000/svg">
<g clip-path="url(#clip0_487_80903)">
<g filter="url(#filter0_i_487_80903)">
<path d="M103.813 170.662C106.486 156.843 111.441 143.813 113.891 138.892C118.557 138.247 125.943 137.251 134.156 136.117C142.369 134.983 150.44 134.02 154.828 133.414C158.519 137.488 166.663 148.855 172.793 161.003C179.54 175.312 179.878 179.822 179.633 190.735C180.646 193.466 182.861 200.54 184.808 208.884C186.755 217.228 188.51 223.03 190.113 235.803C187.553 238.775 178.321 244.646 161.101 244.362C159.604 239.28 157.292 231.741 156.041 228.439C154.712 224.931 153.252 219.758 149.864 218.261C148.357 217.713 146.171 218.015 145.39 218.122C144.688 218.218 142.58 218.51 141.278 219.445C138.421 221.804 138.244 227.201 137.915 230.938C137.605 234.456 137.592 242.317 137.528 247.615C123.069 252.477 109.145 249.563 107.1 247.428C105.185 234.698 105.279 228.342 104.894 219.782C104.508 211.223 104.931 203.912 105.167 201.009C101.977 190.57 101.515 187.449 103.813 170.662Z" fill="#ECF2FF"/>
</g>
<mask id="mask0_487_80903" style="mask-type:alpha" maskUnits="userSpaceOnUse" x="102" y="133" width="89" height="118">
<path d="M103.887 170.516C106.56 156.696 111.516 143.805 113.966 138.884C118.632 138.24 126.318 137.202 134.531 136.069C142.744 134.934 150.815 133.971 155.203 133.365C158.894 137.439 167.038 148.806 173.168 160.954C179.915 175.263 180.253 179.773 180.008 190.686C181.021 193.417 183.236 200.491 185.183 208.835C187.13 217.179 188.885 222.981 190.488 235.754C187.928 238.726 178.696 244.597 161.476 244.313C159.979 239.232 157.667 231.692 156.416 228.39C155.087 224.882 153.627 219.709 150.239 218.212C148.732 217.664 146.546 217.966 145.765 218.074C145.063 218.169 142.955 218.461 141.653 219.397C138.796 221.755 138.619 227.152 138.29 230.889C137.98 234.407 137.967 242.268 137.903 247.566C123.444 252.428 109.52 249.514 107.475 247.379C105.56 234.649 105.654 228.293 105.269 219.734C104.883 211.174 105.306 203.863 105.542 200.96C102.352 190.521 101.589 187.302 103.887 170.516Z" fill="#D9D9D9"/>
</mask>
<g mask="url(#mask0_487_80903)">
<path d="M179.49 169.323C180.234 171.236 180.878 173.332 181.446 175.086C181.731 175.968 181.996 176.761 182.247 177.414C182.502 178.079 182.725 178.552 182.916 178.821L183.26 179.306L182.764 179.633C176.059 184.058 163.468 189.03 148.466 191.85C133.454 194.672 115.967 195.352 99.4682 191.14L99.0043 191.021L99.037 190.544C99.2374 187.6 99.2952 185.436 99.3684 183.799C99.4401 182.193 99.5265 181.029 99.8146 180.189L99.9714 179.731L100.449 179.807C112.913 181.802 146.088 182.446 178.735 169L179.278 168.777L179.49 169.323Z" fill="#AEB2BB" stroke="black" stroke-width="1.14945"/>
<g filter="url(#filter1_i_487_80903)">
<rect x="118.508" y="176.136" width="42.0893" height="25.0004" rx="4.114" transform="rotate(-7.85527 118.508 176.136)" fill="#D0D8E8"/>
</g>
<rect x="119.043" y="176.541" width="41.14" height="24.0511" rx="3.6393" transform="rotate(-7.85527 119.043 176.541)" stroke="black" stroke-width="0.949384"/>
<path d="M145.325 173.31L146.463 181.558C146.637 182.825 146.24 184.105 145.379 185.05L144.319 186.213C143.458 187.159 143.061 188.438 143.235 189.706L144.275 197.242" stroke="black" stroke-width="1.14945"/>
<circle cx="131.239" cy="187.143" r="3.87938" transform="rotate(-7.85527 131.239 187.143)" fill="#DA452D" stroke="black" stroke-width="0.862084"/>
<path d="M144.316 211.853C123.993 214.657 110.002 205.994 105.548 201.312C104.828 209.553 104.932 211.514 105.282 214.918C105.282 214.918 120.924 233.827 146.854 230.25C172.784 226.672 181.489 205.654 183.023 198.658L179.483 191.112C176.228 196.857 164.639 209.049 144.316 211.853Z" fill="#D7DDEA"/>
</g>
<path d="M105.12 198.513C104.709 206.934 104.445 230.065 107.046 246.816C107.104 247.195 107.278 247.546 107.592 247.768C111.53 250.545 125.337 251.394 136.389 247.962C137.09 247.744 137.564 247.098 137.58 246.363C137.805 236.229 137.007 225.782 140.213 220.773C141.358 218.984 143.017 218.422 145.411 218.092M179.118 188.304C181.793 196.299 188.094 218.524 190.121 235.354C190.167 235.736 190.095 236.12 189.853 236.419C186.814 240.159 173.753 244.715 162.185 244.403C161.45 244.384 160.819 243.889 160.605 243.187C157.645 233.492 155.584 223.219 151.141 219.266C149.555 217.854 147.806 217.761 145.411 218.092" stroke="black" stroke-width="1.21326"/>
<path d="M158.121 211.932C158.197 211.886 158.296 211.905 158.351 211.975C158.406 212.045 158.401 212.145 158.338 212.208C156.595 213.975 151.603 217.707 145.524 218.545C139.444 219.384 134.115 217.075 132.199 215.807C132.125 215.758 132.099 215.662 132.137 215.583C132.176 215.503 132.267 215.464 132.351 215.491C134.501 216.18 140.131 217.703 145.31 216.989C150.491 216.274 155.989 213.213 158.121 211.932Z" fill="black" stroke="black" stroke-width="0.353722" stroke-linecap="round" stroke-linejoin="round"/>
<path d="M102.128 188.109C101.982 172.294 107.315 155.361 109.311 150.25C108.332 155.069 105.403 167.058 103.808 180.841C102.387 193.125 108.207 204.495 112.104 209.699C108.834 207.884 103.276 199.887 102.128 188.109Z" fill="black"/>
<path d="M179.535 177.431C175.393 162.167 165.674 147.31 162.369 142.932C164.616 147.305 170.673 157.876 175.94 170.713C180.635 182.153 178.12 194.851 175.777 200.916C178.434 198.283 181.619 189.08 179.535 177.431Z" fill="black"/>
<path d="M92.0995 168.48C96.8416 154.973 107.95 142.285 114.084 137.597L117.857 138.679C117.577 139.1 115.478 141.469 111.331 148.785C105.517 159.042 102.086 173.553 102.378 183.451C102.569 189.94 103.678 193.12 104.582 195.71L104.619 195.818C105.53 198.428 104.735 210.374 104.888 214.598C101.207 215.437 98.1634 214.474 94.1396 210.743C87.6815 203.761 86.751 183.714 92.0995 168.48Z" fill="#ECF2FF"/>
<g filter="url(#filter2_i_487_80903)">
<path d="M104.908 214.594C101.226 215.432 98.1829 214.469 94.1591 210.738C89.171 205.345 87.4805 192.158 89.434 179.415C95.4172 177.732 100.604 179.064 102.449 179.94C101.94 186.616 103.728 193.202 104.639 195.813C105.55 198.424 104.754 210.369 104.908 214.594Z" fill="#D2D7E1"/>
</g>
<path d="M99.988 197.475C101.3 201.208 103.681 204.162 104.947 204.591C104.877 205.375 104.972 206.838 104.899 209.419C102.443 206.897 99.8756 201.723 99.414 197.555C99.3697 197.156 99.8548 197.096 99.988 197.475Z" fill="black"/>
<path d="M102.804 179.895C100.673 179.118 95.0693 177.927 89.6997 179.382" stroke="black" stroke-width="1.21326"/>
<path d="M114.086 137.368C107.941 142.056 96.0876 155.968 91.8998 169.374C86.6651 186.131 87.8611 203.51 94.1827 210.73C97.767 214.499 101.224 215.356 104.912 214.517C104.828 206.138 105.136 199.314 105.172 196.985" stroke="black" stroke-width="1.21326"/>
<path d="M183.378 155.88C175.156 144.162 161.027 134.956 153.853 132.104L150.513 134.167C150.896 134.497 153.559 136.208 159.532 142.129C167.906 150.428 175.138 163.468 177.538 173.075C179.111 179.374 178.904 182.735 178.735 185.473L178.728 185.587C178.559 188.346 182.559 199.63 183.555 203.739C187.326 203.549 189.995 201.798 192.858 197.117C197.184 188.646 192.652 169.097 183.378 155.88Z" fill="#ECF2FF"/>
<g filter="url(#filter3_i_487_80903)">
<path d="M183.57 203.738C187.34 203.549 190.009 201.798 192.873 197.116C196.214 190.574 194.271 177.422 188.939 165.683C182.724 165.684 178.092 168.37 176.553 169.713C178.85 176.002 178.912 182.827 178.743 185.586C178.573 188.346 182.573 199.63 183.57 203.738Z" fill="#D2D7E1"/>
</g>
<path d="M183.654 185.926C183.402 189.874 181.91 193.363 180.807 194.119C181.087 194.854 181.392 196.288 182.16 198.753C183.841 195.66 184.912 189.985 184.228 185.847C184.163 185.451 183.679 185.524 183.654 185.926Z" fill="black"/>
<path d="M176.202 169.758C178.043 168.433 183.115 165.77 188.678 165.716" stroke="black" stroke-width="1.21326"/>
<path d="M153.836 131.884C161.021 134.733 176.198 144.916 183.86 156.687C193.436 171.4 196.991 188.454 192.86 197.115C190.43 201.714 187.334 203.476 183.557 203.667C181.37 195.577 179.225 189.092 178.56 186.859" stroke="black" stroke-width="1.21326"/>
<g filter="url(#filter4_i_487_80903)">
<path d="M104.609 262.939C102.396 258.457 109.174 249.537 109.772 249.015L135.503 245.465C135.559 245.982 136.507 251.837 136.939 255.872C137.479 260.915 129.97 263.228 122.589 264.645C115.024 266.097 106.596 266.961 104.609 262.939Z" fill="#D2D7E1"/>
</g>
<path d="M104.609 262.939C102.396 258.457 109.174 249.537 109.772 249.015L135.503 245.465C135.559 245.982 136.507 251.837 136.939 255.872C137.479 260.915 129.97 263.228 122.589 264.645C115.024 266.097 106.596 266.961 104.609 262.939Z" stroke="black" stroke-width="1.21326" stroke-linejoin="round"/>
<g filter="url(#filter5_i_487_80903)">
<path d="M196.889 250.209C197.806 245.296 188.866 238.544 188.149 238.203L162.418 241.753C162.504 242.266 163.177 248.159 163.853 252.16C164.699 257.161 172.555 257.354 180.043 256.72C187.719 256.069 196.066 254.619 196.889 250.209Z" fill="#D2D7E1"/>
</g>
<path d="M196.889 250.209C197.806 245.296 188.866 238.544 188.149 238.203L162.418 241.753C162.504 242.266 163.177 248.159 163.853 252.16C164.699 257.161 172.555 257.354 180.043 256.72C187.719 256.069 196.066 254.619 196.889 250.209Z" stroke="black" stroke-width="1.21326" stroke-linejoin="round"/>
<g filter="url(#filter6_i_487_80903)">
<path d="M200.188 61.1362C198.073 54.2856 191.364 52.8609 188.273 53.0048C190.835 57.4507 192.498 64.1264 193.528 71.0734C194.417 78.0398 194.625 84.9163 193.362 89.8898C196.376 89.1916 202.449 86.0034 202.63 78.836C202.602 75.9816 202.26 72.6721 201.89 69.9197C201.501 67.17 200.934 63.8913 200.188 61.1362Z" fill="#ECF2FF"/>
</g>
<path d="M188.245 52.3985C189.883 52.3222 192.44 52.6585 194.874 53.9071C197.323 55.1641 199.654 57.3517 200.768 60.9568L200.771 60.9672L200.773 60.9777C201.53 63.7683 202.1 67.0756 202.491 69.8348L202.492 69.8387C202.863 72.6007 203.209 75.9389 203.236 78.8301L203.237 78.8409L203.236 78.8518C203.141 82.6236 201.489 85.3607 199.472 87.234C197.467 89.0949 195.096 90.1111 193.499 90.4811L192.529 90.7067L192.774 89.7403C194.006 84.8852 193.814 78.1081 192.928 71.1622L192.727 69.8678C191.69 63.4181 190.093 57.3793 187.747 53.3081L187.25 52.4442L188.245 52.3985Z" stroke="black" stroke-width="1.2145"/>
<g filter="url(#filter7_i_487_80903)">
<path d="M50.8264 81.7421C51.0075 74.5748 57.0801 71.3866 60.0938 70.6884C58.8315 75.6618 59.0386 82.5384 59.9279 89.5048C60.9581 96.4518 62.6209 103.127 65.1826 107.573C62.0925 107.717 55.3835 106.293 53.2684 99.4419C52.5217 96.6868 51.9552 93.4082 51.5658 90.6585C51.1961 87.9061 50.8536 84.5965 50.8264 81.7421Z" fill="#ECF2FF"/>
</g>
<path d="M59.957 70.0971C58.3599 70.4671 55.9887 71.4833 53.9844 73.3442C51.9667 75.2175 50.315 77.9546 50.2196 81.7265L50.2192 81.7374L50.2197 81.7481C50.2472 84.6393 50.5933 87.9776 50.9643 90.7395L50.9648 90.7434C51.3556 93.5027 51.9263 96.8099 52.6827 99.6005L52.6851 99.611L52.6885 99.6214C53.8017 103.226 56.1328 105.414 58.5823 106.671C61.0157 107.92 63.5734 108.256 65.2111 108.18L66.2064 108.134L65.7086 107.27C63.2078 102.93 61.558 96.354 60.5301 89.4277L60.3724 88.1275C59.6245 81.6378 59.5264 75.3923 60.6822 70.8379L60.9274 69.8715L59.957 70.0971Z" stroke="black" stroke-width="1.2145"/>
<circle cx="126.274" cy="80.7425" r="66.5722" transform="rotate(-7.85527 126.274 80.7425)" fill="#181F2D" stroke="black" stroke-width="1.20766"/>
<path d="M117.233 15.4256C144.007 11.7316 165.118 23.4591 178.965 41.009C153.566 17.3757 127.192 18.821 117.878 20.106C108.565 21.3909 82.7848 27.1411 64.734 56.769C73.3121 36.1251 90.4581 19.1196 117.233 15.4256Z" fill="#D1DEEF"/>
<path d="M134.362 139.699C103.015 144.024 79.3245 125.742 69.8906 114.97C88.6915 146 121.399 148.212 135.272 146.298C149.146 144.384 180.032 133.398 189.728 98.4362C183.564 111.361 165.709 135.374 134.362 139.699Z" fill="#D1DEEF"/>
<path d="M117.595 21.7978C80.1275 26.9671 63.9099 57.8977 60.8488 72.6541C65.1514 59.8765 82.7479 33.4379 118.52 28.5025C154.293 23.5672 178.972 43.1032 186.625 53.873C179.556 41.458 155.063 16.6285 117.595 21.7978Z" fill="#D1DEEF"/>
<g filter="url(#filter8_i_487_80903)">
<path d="M134.354 138.219C166.416 133.749 195.217 104.442 190.677 71.534C187.32 47.2008 155.424 25.0196 119.416 29.9444C83.4194 34.9538 58.7219 64.9428 62.079 89.276C66.6192 122.184 102.28 142.598 134.354 138.219Z" fill="#013159"/>
</g>
<path d="M74.2405 67.8412C68.3889 80.3764 71.3625 96.3556 74.5067 105.998C74.9736 107.43 76.7678 107.088 76.8157 105.582C77.0707 97.5816 78.2924 84.8434 84.7764 71.7418C91.7284 57.6945 102.008 47.1883 109.117 41.9677C110.286 41.109 109.774 39.5301 108.376 39.9171C98.5241 42.6436 81.4825 52.3272 74.2405 67.8412Z" fill="#EBF6FE" fill-opacity="0.53"/>
<ellipse cx="171.596" cy="75.5199" rx="9.56417" ry="11.9932" transform="rotate(1.73239 171.596 75.5199)" fill="#EBF6FE" fill-opacity="0.53"/>
<ellipse cx="163.462" cy="99.9815" rx="4.97987" ry="5.5456" transform="rotate(0.581174 163.462 99.9815)" fill="#EBF6FE" fill-opacity="0.53"/>
</g>
<defs>
<filter id="filter0_i_487_80903" x="102.375" y="133.413" width="87.7344" height="116.852" filterUnits="userSpaceOnUse" color-interpolation-filters="sRGB">
<feFlood flood-opacity="0" result="BackgroundImageFix"/>
<feBlend mode="normal" in="SourceGraphic" in2="BackgroundImageFix" result="shape"/>
<feColorMatrix in="SourceAlpha" type="matrix" values="0 0 0 0 0 0 0 0 0 0 0 0 0 0 0 0 0 0 127 0" result="hardAlpha"/>
<feOffset dy="-6.36699"/>
<feComposite in2="hardAlpha" operator="arithmetic" k2="-1" k3="1"/>
<feColorMatrix type="matrix" values="0 0 0 0 0.843137 0 0 0 0 0.866667 0 0 0 0 0.917647 0 0 0 1 0"/>
<feBlend mode="normal" in2="shape" result="effect1_innerShadow_487_80903"/>
</filter>
<filter id="filter1_i_487_80903" x="119.031" y="170.907" width="44.0625" height="29.4707" filterUnits="userSpaceOnUse" color-interpolation-filters="sRGB">
<feFlood flood-opacity="0" result="BackgroundImageFix"/>
<feBlend mode="normal" in="SourceGraphic" in2="BackgroundImageFix" result="shape"/>
<feColorMatrix in="SourceAlpha" type="matrix" values="0 0 0 0 0 0 0 0 0 0 0 0 0 0 0 0 0 0 127 0" result="hardAlpha"/>
<feOffset dx="3.18349" dy="-4.59838"/>
<feComposite in2="hardAlpha" operator="arithmetic" k2="-1" k3="1"/>
<feColorMatrix type="matrix" values="0 0 0 0 0.592569 0 0 0 0 0.618657 0 0 0 0 0.670833 0 0 0 1 0"/>
<feBlend mode="normal" in2="shape" result="effect1_innerShadow_487_80903"/>
</filter>
<filter id="filter2_i_487_80903" x="88.6406" y="178.606" width="16.4453" height="36.2695" filterUnits="userSpaceOnUse" color-interpolation-filters="sRGB">
<feFlood flood-opacity="0" result="BackgroundImageFix"/>
<feBlend mode="normal" in="SourceGraphic" in2="BackgroundImageFix" result="shape"/>
<feColorMatrix in="SourceAlpha" type="matrix" values="0 0 0 0 0 0 0 0 0 0 0 0 0 0 0 0 0 0 127 0" result="hardAlpha"/>
<feOffset dx="2.47605" dy="-6.36699"/>
<feComposite in2="hardAlpha" operator="arithmetic" k2="-1" k3="1"/>
<feColorMatrix type="matrix" values="0 0 0 0 0.705882 0 0 0 0 0.733333 0 0 0 0 0.792157 0 0 0 1 0"/>
<feBlend mode="normal" in2="shape" result="effect1_innerShadow_487_80903"/>
</filter>
<filter id="filter3_i_487_80903" x="176.555" y="165.683" width="17.9688" height="38.0547" filterUnits="userSpaceOnUse" color-interpolation-filters="sRGB">
<feFlood flood-opacity="0" result="BackgroundImageFix"/>
<feBlend mode="normal" in="SourceGraphic" in2="BackgroundImageFix" result="shape"/>
<feColorMatrix in="SourceAlpha" type="matrix" values="0 0 0 0 0 0 0 0 0 0 0 0 0 0 0 0 0 0 127 0" result="hardAlpha"/>
<feOffset dx="-2.47605" dy="-6.36699"/>
<feComposite in2="hardAlpha" operator="arithmetic" k2="-1" k3="1"/>
<feColorMatrix type="matrix" values="0 0 0 0 0.705882 0 0 0 0 0.733333 0 0 0 0 0.792157 0 0 0 1 0"/>
<feBlend mode="normal" in2="shape" result="effect1_innerShadow_487_80903"/>
</filter>
<filter id="filter4_i_487_80903" x="103.562" y="244.858" width="34.0078" height="21.6055" filterUnits="userSpaceOnUse" color-interpolation-filters="sRGB">
<feFlood flood-opacity="0" result="BackgroundImageFix"/>
<feBlend mode="normal" in="SourceGraphic" in2="BackgroundImageFix" result="shape"/>
<feColorMatrix in="SourceAlpha" type="matrix" values="0 0 0 0 0 0 0 0 0 0 0 0 0 0 0 0 0 0 127 0" result="hardAlpha"/>
<feOffset dx="4.24466" dy="-4.59838"/>
<feComposite in2="hardAlpha" operator="arithmetic" k2="-1" k3="1"/>
<feColorMatrix type="matrix" values="0 0 0 0 0.705882 0 0 0 0 0.733333 0 0 0 0 0.792157 0 0 0 1 0"/>
<feBlend mode="normal" in2="shape" result="effect1_innerShadow_487_80903"/>
</filter>
<filter id="filter5_i_487_80903" x="161.812" y="237.597" width="35.75" height="19.9883" filterUnits="userSpaceOnUse" color-interpolation-filters="sRGB">
<feFlood flood-opacity="0" result="BackgroundImageFix"/>
<feBlend mode="normal" in="SourceGraphic" in2="BackgroundImageFix" result="shape"/>
<feColorMatrix in="SourceAlpha" type="matrix" values="0 0 0 0 0 0 0 0 0 0 0 0 0 0 0 0 0 0 127 0" result="hardAlpha"/>
<feOffset dx="-2.82977" dy="-4.59838"/>
<feComposite in2="hardAlpha" operator="arithmetic" k2="-1" k3="1"/>
<feColorMatrix type="matrix" values="0 0 0 0 0.705903 0 0 0 0 0.734491 0 0 0 0 0.791667 0 0 0 1 0"/>
<feBlend mode="normal" in2="shape" result="effect1_innerShadow_487_80903"/>
</filter>
<filter id="filter6_i_487_80903" x="186.227" y="51.7802" width="17.6172" height="39.7422" filterUnits="userSpaceOnUse" color-interpolation-filters="sRGB">
<feFlood flood-opacity="0" result="BackgroundImageFix"/>
<feBlend mode="normal" in="SourceGraphic" in2="BackgroundImageFix" result="shape"/>
<feColorMatrix in="SourceAlpha" type="matrix" values="0 0 0 0 0 0 0 0 0 0 0 0 0 0 0 0 0 0 127 0" result="hardAlpha"/>
<feOffset dx="-3.64349" dy="-6.98336"/>
<feComposite in2="hardAlpha" operator="arithmetic" k2="-1" k3="1"/>
<feColorMatrix type="matrix" values="0 0 0 0 0.819608 0 0 0 0 0.870588 0 0 0 0 0.937255 0 0 0 1 0"/>
<feBlend mode="normal" in2="shape" result="effect1_innerShadow_487_80903"/>
</filter>
<filter id="filter7_i_487_80903" x="49.6094" y="69.0556" width="17.6172" height="39.7422" filterUnits="userSpaceOnUse" color-interpolation-filters="sRGB">
<feFlood flood-opacity="0" result="BackgroundImageFix"/>
<feBlend mode="normal" in="SourceGraphic" in2="BackgroundImageFix" result="shape"/>
<feColorMatrix in="SourceAlpha" type="matrix" values="0 0 0 0 0 0 0 0 0 0 0 0 0 0 0 0 0 0 127 0" result="hardAlpha"/>
<feOffset dx="3.33987" dy="-6.98336"/>
<feComposite in2="hardAlpha" operator="arithmetic" k2="-1" k3="1"/>
<feColorMatrix type="matrix" values="0 0 0 0 0.819608 0 0 0 0 0.870588 0 0 0 0 0.937255 0 0 0 1 0"/>
<feBlend mode="normal" in2="shape" result="effect1_innerShadow_487_80903"/>
</filter>
<filter id="filter8_i_487_80903" x="61.7734" y="29.2529" width="129.375" height="109.555" filterUnits="userSpaceOnUse" color-interpolation-filters="sRGB">
<feFlood flood-opacity="0" result="BackgroundImageFix"/>
<feBlend mode="normal" in="SourceGraphic" in2="BackgroundImageFix" result="shape"/>
<feColorMatrix in="SourceAlpha" type="matrix" values="0 0 0 0 0 0 0 0 0 0 0 0 0 0 0 0 0 0 127 0" result="hardAlpha"/>
<feOffset dx="-0.353722" dy="-17.6861"/>
<feComposite in2="hardAlpha" operator="arithmetic" k2="-1" k3="1"/>
<feColorMatrix type="matrix" values="0 0 0 0 0.0196078 0 0 0 0 0.12549 0 0 0 0 0.211765 0 0 0 1 0"/>
<feBlend mode="normal" in2="shape" result="effect1_innerShadow_487_80903"/>
</filter>
<clipPath id="clip0_487_80903">
<rect width="249" height="255" fill="white" transform="translate(0 21.0751) rotate(-4.85527)"/>
</clipPath>
</defs>
</svg>
