<svg xmlns="http://www.w3.org/2000/svg" width="1184" height="766" fill="none" xmlns:v="https://vecta.io/nano"><g clip-path="url(#A)"><path d="M1125.82 708.394c-.03 10.139-8.27 18.338-18.4 18.313l-510.651-1.263c-10.137-.025-18.336-8.265-18.311-18.404l1.614-652.493a18.36 18.36 0 0 1 18.402-18.312l510.646 1.263c10.14.025 18.34 8.263 18.31 18.402l-1.61 652.493z" fill="#edf7ff"/><path d="M596.812 708.754a1.67 1.67 0 0 1-1.664-1.673l1.613-652.493a1.67 1.67 0 0 1 1.673-1.664l510.646 1.263a1.68 1.68 0 0 1 1.67 1.673l-1.62 652.495c0 .921-.75 1.666-1.67 1.664l-510.648-1.263v-.002z" fill="#fefff0"/><path d="M22.786 705.665a18.36 18.36 0 0 0 18.312 18.404l510.648 1.263a18.36 18.36 0 0 0 18.402-18.313l1.614-652.493a18.36 18.36 0 0 0-18.311-18.402L42.802 34.861A18.36 18.36 0 0 0 24.4 53.172l-1.614 652.493z" fill="#edf7ff"/><path d="M551.788 708.642a1.67 1.67 0 0 0 1.673-1.664l1.614-652.493a1.67 1.67 0 0 0-1.665-1.673L42.762 51.549a1.67 1.67 0 0 0-1.673 1.665l-1.614 652.495a1.67 1.67 0 0 0 1.665 1.673l510.648 1.263v-.002z" fill="#fefff0"/><g fill="#aed074"><path d="M636.615 130.891c-.016 6.452-5.258 11.67-11.709 11.654s-11.67-5.26-11.654-11.712 5.26-11.667 11.712-11.651 11.667 5.259 11.651 11.709zm-121.792-.301c-.016 6.452 5.201 11.695 11.653 11.711s11.694-5.202 11.709-11.653-5.201-11.694-11.651-11.71-11.695 5.202-11.711 11.652z"/></g><path d="M624.926 138.353l-98.433-.243c-4.137-.011-7.483-3.373-7.472-7.51a7.49 7.49 0 0 1 7.509-7.472l98.433.243c4.137.01 7.483 3.373 7.472 7.51a7.49 7.49 0 0 1-7.509 7.472z" fill="#6faa28"/><path d="M229.975-2.466L212.418 14.26 194.945-2.553l-.135 54.76 35.03.087.135-54.76z" fill="#ea598f"/><path opacity=".2" d="M229.873 40.153l-35.029-.087-.03 12.139 35.029.087.03-12.139z" fill="#1d1d1b"/><path d="M287.978 25.77l-40.658-.101-.067 27.38 40.657.101.068-27.38z" fill="#ffd31a"/><path opacity=".2" d="M287.939 41.01l-40.658-.101-.03 12.139 40.657.101.031-12.139z" fill="#1d1d1b"/><path d="M331.703-2.214l-26.258-.065-.135 54.76 26.258.065.135-54.76z" fill="#3eae6d"/><path opacity=".2" d="M331.594 40.405l-26.258-.065-.03 12.139 26.258.065.03-12.139z" fill="#1d1d1b"/><path d="M1172.31 545.921l-23.67-24.849 23.8-24.731-62.9-.156-.12 49.58 62.89.156z" fill="#3eae6d"/><use href="#B" fill="#ea598f"/><path opacity=".2" d="M1127.15 239.461l-16.98-.042-.14 57.547 16.98.042.14-57.547z" fill="#1d1d1b"/><path d="M1148.39 457.513l.14-57.546-38.75-.096-.14 57.546 38.75.096z" fill="#f29120"/><path opacity=".2" d="M1126.76 399.726l-16.98-.042-.14 57.546 16.98.042.14-57.546z" fill="#1d1d1b"/><path d="M1187.36 371.078l.09-37.165-77.5-.192-.1 37.166 77.51.191z" fill="#ffd31a"/><g fill="#1d1d1b"><path opacity=".2" d="M1126.93 333.577l-16.98-.042-.1 37.165 16.99.042.09-37.165zm-.41 162.456l-16.98-.042-.12 49.581 16.98.042.12-49.581z"/></g><g fill="#aed074"><path d="M635.85 440.912c-.016 6.452-5.258 11.67-11.71 11.654s-11.669-5.26-11.653-11.712a11.682 11.682 0 1 1 23.363.058zm-121.793-.301c-.016 6.452 5.202 11.695 11.653 11.711s11.694-5.202 11.71-11.653-5.202-11.692-11.652-11.708a11.68 11.68 0 0 0-11.711 11.65z"/></g><path d="M624.152 448.296l-98.432-.243c-4.137-.011-7.483-3.373-7.473-7.51s3.373-7.483 7.51-7.472l98.432.243c4.137.01 7.483 3.373 7.473 7.51s-3.373 7.482-7.51 7.472z" fill="#6faa28"/><g fill="#aed074"><path d="M636.232 285.902c-.016 6.45-5.257 11.668-11.709 11.652s-11.669-5.259-11.653-11.709 5.259-11.67 11.711-11.654 11.667 5.26 11.651 11.711zm-121.792-.301c-.016 6.45 5.202 11.694 11.653 11.71s11.694-5.202 11.71-11.652-5.202-11.695-11.652-11.711-11.695 5.201-11.711 11.653z"/></g><path d="M624.535 292.857l-98.433-.244c-4.136-.01-7.482-3.372-7.472-7.509s3.373-7.483 7.51-7.473l98.432.244c4.137.01 7.483 3.372 7.473 7.509s-3.373 7.483-7.51 7.473z" fill="#6faa28"/><g fill="#aed074"><path d="M635.467 595.922c-.016 6.451-5.258 11.669-11.71 11.653s-11.669-5.26-11.653-11.711 5.259-11.67 11.711-11.654 11.668 5.26 11.652 11.712zm-121.793-.302c-.016 6.452 5.202 11.696 11.654 11.712s11.693-5.202 11.709-11.654-5.202-11.695-11.652-11.711-11.695 5.202-11.711 11.653z"/></g><path d="M623.77 605.607l-98.433-.243c-4.137-.011-7.483-3.373-7.473-7.51s3.373-7.483 7.51-7.472l98.433.243c4.137.01 7.482 3.373 7.472 7.51s-3.373 7.482-7.509 7.472z" fill="#6faa28"/></g><defs><clipPath id="A"><path fill="#fff" d="M0 0h1184v766H0z"/></clipPath><path id="B" d="M1148.78 297.248l.14-57.546-38.75-.096-.14 57.546 38.75.096z"/></defs></svg>