<svg xmlns="http://www.w3.org/2000/svg" width="1506" height="1239" fill="none" xmlns:v="https://vecta.io/nano"><path d="M1440.33 0C1476.6 0 1506 29.401 1506 65.669V1173.28c0 36.27-29.4 65.67-65.67 65.67H65.669c-36.268 0-65.669-29.4-65.669-65.67V65.669C0 29.401 29.401 0 65.669 0H1440.33zM743.908 111.007c-186.904.269-373.806 9.015-560.542 26.238-46.02 3.751-85.63 45.581-95.537 88.635C47.34 476.122 45.48 725.742 82.248 975.922l.347 2.341.598 4.029.521 3.461.398 2.633.709 4.636.157 1.015.862 5.548.041.265 1.944 12.22c4.102 17.83 13.297 35.44 25.931 50.23l.002.01.719.83.32.37a132 132 0 0 0 4.136 4.5l1.72 1.74.812.8 1.382 1.34 1.414 1.31c.066.07.132.13.198.19l1.636 1.47.825.72 1.214 1.04c15.82 13.34 34.9 22.43 55.231 24.09 379.4 34.99 759.487 34.99 1138.884 0 42.35-6.49 85.76-40.89 94.81-84.61l.23-1.16.33-1.8c0-.02 0-.04.01-.06l.16-1.01.94-5.85.63-3.96.31-1.99.08-.492c40.47-258.169 39.82-515.702-1.96-773.898-7.13-45.628-51.9-81.952-95.54-88.635-186.73-17.223-373.636-25.969-560.541-26.238a5868.07 5868.07 0 0 0-17.801 0z" fill="#f2512c"/><g fill="#cd3f39"><path d="M0 1175V73l93.5 135c-54 237-46.5 667 9 839.5L0 1175z"/><path d="M1505.5 1177V75l-92 133.5c44 195 54 637-10.5 842l102.5 126.5z" stroke="#cd3f39"/></g></svg>