<svg xmlns="http://www.w3.org/2000/svg" width="104" height="104" fill="none" xmlns:v="https://vecta.io/nano"><style><![CDATA[.B{stroke:#000}.C{stroke-width:2.221}.D{fill:#ff8e0a}.E{fill:#f8e41c}.F{fill:#fcbd0e}.G{color-interpolation-filters:sRGB}]]></style><path d="M5.715 49.946l3.067-22.981 38.099-6.101 38.099-6.101 10.09 20.874-44.677 7.155-44.677 7.155z" fill="#db0e47"/><path d="M7.913 63.651L5.719 49.946l44.677-7.155 44.677-7.155 2.195 13.705a3.33 3.33 0 0 1-2.762 3.816l-41.388 6.628-41.388 6.628a3.33 3.33 0 0 1-3.816-2.762z" fill="#ac0a34"/><path d="M23.345 97.659L13.367 66.15l40.018-6.409 40.018-6.409.362 33.049a3.33 3.33 0 0 1-2.804 3.326l-31.956 5.118-31.956 5.118a3.33 3.33 0 0 1-3.702-2.284z" fill="#b40b36"/><path d="M36.407 45.03l2.749-23.211 7.949-1.273 7.949-1.273 9.86 21.192-28.506 4.565z" fill="#fae820"/><path d="M46.329 95.596l-7.204-33.572 28.506-4.565 3.64 34.143c.157 1.468-.863 2.802-2.321 3.035l-19.467 3.118c-1.458.234-2.843-.715-3.153-2.158z" class="F"/><path d="M14.948 73.063l-1.737-6.67 79.935-12.801 1.085 6.774-79.283 12.697z" fill="#000" fill-opacity=".2"/><path d="M39.128 62.023L36.407 45.03l28.506-4.565 2.721 16.994-28.506 4.565z" class="F"/><g class="B C"><path d="M82.357 14.058a4.44 4.44 0 0 1 4.701 2.453l8.652 17.899.281-.045.15.935.578 1.197-.377.06 2.019 12.608c.388 2.422-1.261 4.7-3.683 5.088l-.151.024.351 32.093a4.44 4.44 0 0 1-3.738 4.434l-63.913 10.235a4.44 4.44 0 0 1-4.936-3.045L12.6 67.397l-.699.112c-2.422.388-4.7-1.261-5.088-3.683L4.794 51.218l-.377.06.176-1.318-.15-.935.281-.045 2.63-19.706a4.44 4.44 0 0 1 3.7-3.798l71.303-11.419z"/><path d="M5.719 49.946l89.354-14.31M10.609 67.505L95.625 53.89"/></g><g filter="url(#E)"><path d="M14.842 22.673c.228.167.965.534 2.281.757 1.289.218 3.076.289 5.353-.076l18.948-3.034 2.18 13.615-19.776 3.167c-4.246.68-7.827-1.147-10.238-3.204-1.21-1.032-2.162-2.151-2.795-3.114-.315-.479-.568-.943-.732-1.357-.081-.207-.151-.426-.188-.645-.034-.2-.061-.503.04-.82l.049-.153.09-.133 3.21-4.731.648-.955.929.685z" class="B C D"/><mask id="A" maskUnits="userSpaceOnUse" x="10" y="21" width="33" height="16" mask-type="alpha"><path d="M23.653 36.005c-7.628 1.222-13.056-6.522-12.679-7.707l3.21-4.731c.833.613 3.692 1.648 8.469.883l17.851-2.859.923 5.765.906 5.657-18.68 2.992z" class="D"/></mask><g mask="url(#A)"><path d="M24.483 29.507c-7.035 1.127-9.327 4.075-10.016 4.696l.615 3.837 23.484-3.761c-1.555-2.042-7.048-5.899-14.083-4.773z" fill="#ffbc0f"/></g><path d="M43.142 31.047l-2.557-2.97c-1.183-1.374-3.519-3.418-6.593-4.943-3.065-1.521-6.8-2.497-10.823-1.853-3.595.576-5.91 1.623-7.534 2.951s-2.655 3.018-3.557 5.059l-.783 1.77-1.134-1.569.9-.649-.9.648-.001-.001-.001-.002c-.007-.01-.011-.015-.015-.021l-.031-.045c-.025-.038-.059-.089-.1-.154a8.58 8.58 0 0 1-.316-.556c-.251-.478-.565-1.171-.842-2.062-.556-1.786-.962-4.36-.424-7.584.697-4.178 5.542-8.117 13.449-9.383 5.049-.809 9.278-.016 12.465 1.339 3.148 1.338 5.352 3.258 6.279 4.794l.111.185 2.41 15.047z" class="B C E"/><mask id="B" maskUnits="userSpaceOnUse" x="9" y="10" width="33" height="19" mask-type="alpha"><path d="M22.993 20.184c8.62-1.381 15.881 4.204 18.433 7.168l-1.756-10.964c-1.543-2.56-7.947-7.158-17.617-5.61-7.736 1.239-11.951 5.005-12.529 8.469-1.012 6.067 1.536 9.593 1.536 9.593 1.872-4.235 4.472-7.463 11.932-8.658z" class="E"/></mask><g mask="url(#B)"><path d="M18.937 21.4c1.32-4.147-.145-9.16-.795-10.274 2.118-.339 7.187-.799 13.117-1.257-2.776 2.131-3.091 7.242-2.476 11.079-2.361.003-7.635.098-9.846.452z" fill="#fcfd9f"/></g><path d="M78.365 12.498c-.164.23-.749.809-1.931 1.432-1.156.61-2.832 1.235-5.109 1.6l-18.948 3.034 2.18 13.615 19.776-3.167c4.246-.68 7.078-3.533 8.726-6.24.827-1.359 1.382-2.719 1.683-3.831.15-.553.245-1.073.271-1.518.013-.222.01-.452-.023-.672-.03-.201-.099-.497-.294-.767l-.094-.13-.127-.098-4.527-3.492-.914-.705-.669.941z" class="B C D"/><mask id="C" maskUnits="userSpaceOnUse" x="53" y="13" width="31" height="18" mask-type="alpha"><path d="M74.158 27.915c7.629-1.222 10.367-10.274 9.639-11.281l-4.527-3.492c-.599.842-2.993 2.719-7.769 3.484l-17.851 2.859.923 5.765.906 5.657 18.68-2.992z" class="D"/></mask><g mask="url(#C)"><path d="M71.337 22.002c7.035-1.126 10.133.959 10.982 1.334l.615 3.837-23.484 3.761c.84-2.426 4.853-7.805 11.888-8.932z" fill="#ffbc0f"/></g><path d="M54.101 29.291l1.502-3.62c.695-1.675 2.276-4.346 4.72-6.755 2.437-2.403 5.68-4.496 9.703-5.14 3.595-.576 6.121-.304 8.079.451s3.465 2.038 4.959 3.695l1.296 1.437.587-1.844-1.058-.336 1.058.335.001-.001.001-.002c.003-.012.006-.018.008-.025l.015-.053c.012-.043.028-.103.047-.178.037-.149.083-.361.127-.627.089-.532.171-1.289.157-2.222-.03-1.87-.448-4.443-1.965-7.337-1.966-3.751-7.799-5.981-15.707-4.714-5.049.809-8.819 2.883-11.424 5.164-2.573 2.254-4.067 4.766-4.467 6.515l-.047.21 2.41 15.047z" class="B C E"/><mask id="D" maskUnits="userSpaceOnUse" x="52" y="3" width="33" height="23" mask-type="alpha"><path d="M69.85 12.679c-8.62 1.38-13.774 8.953-15.273 12.566l-1.756-10.964C53.488 11.368 58.136 5 67.806 3.451c7.736-1.239 12.916 1.022 14.547 4.133 2.856 5.447 1.536 9.593 1.536 9.593-3.101-3.439-6.579-5.693-14.039-4.499z" class="E"/></mask><g mask="url(#D)"><path d="M74.085 12.567C71.537 9.04 71.362 3.82 71.632 2.558c-2.118.339-7.077 1.485-12.854 2.902 3.303 1.158 5.198 5.915 5.812 9.752 2.244-.734 7.284-2.291 9.494-2.645z" fill="#fcfd9f"/></g><g filter="url(#F)" class="F"><path transform="rotate(350.902 39.664 16.392)" d="M39.664 16.392h13.324v13.879H39.664z"/></g><path d="M52.603 12.914L55.676 32.1l-13.157 2.107-3.073-19.186 13.157-2.107z" class="B C"/></g><defs><filter id="E" x="7.07" y=".89" width="79.344" height="39.687" filterUnits="userSpaceOnUse" class="G"><feFlood flood-opacity="0" result="A"/><feColorMatrix in="SourceAlpha" values="0 0 0 0 0 0 0 0 0 0 0 0 0 0 0 0 0 0 127 0" result="B"/><feOffset dy="2.22068"/><feComposite in2="B" operator="out"/><feColorMatrix values="0 0 0 0 0 0 0 0 0 0 0 0 0 0 0 0 0 0 0.25 0"/><feBlend in2="A"/><feBlend in="SourceGraphic"/></filter><filter id="F" x="39.664" y="14.285" width="15.352" height="19.698" filterUnits="userSpaceOnUse" class="G"><feFlood flood-opacity="0" result="A"/><feColorMatrix in="SourceAlpha" values="0 0 0 0 0 0 0 0 0 0 0 0 0 0 0 0 0 0 127 0" result="B"/><feOffset dy="3.8862"/><feComposite in2="B" operator="out"/><feColorMatrix values="0 0 0 0 1 0 0 0 0 0.556863 0 0 0 0 0.0392157 0 0 0 1 0"/><feBlend in2="A"/><feBlend in="SourceGraphic"/></filter></defs></svg>