<svg xmlns="http://www.w3.org/2000/svg" width="204" height="59" fill="none" xmlns:v="https://vecta.io/nano"><path d="M196.396 59H7.554C3.401 59 0 55.679 0 51.625V7.375C0 3.321 3.401 0 7.554 0h188.842c4.153 0 7.554 3.321 7.554 7.375v44.25c0 4.054-3.401 7.375-7.554 7.375z" fill="#000"/><path d="M196.396 1.182c3.498 0 6.344 2.779 6.344 6.193v44.25c0 3.415-2.846 6.193-6.344 6.193H7.554c-3.497 0-6.343-2.779-6.343-6.193V7.375c0-3.415 2.846-6.193 6.343-6.193h188.842zm0-1.182H7.554C3.401 0 0 3.321 0 7.375v44.25C0 55.679 3.401 59 7.554 59h188.842c4.153 0 7.554-3.321 7.554-7.375V7.375c0-4.054-3.401-7.375-7.554-7.375z" fill="#a6a6a6"/><g fill="#fff"><path d="M71.635 15.11c0 1.232-.378 2.218-1.122 2.954-.855.872-1.97 1.311-3.335 1.311-1.305 0-2.419-.446-3.333-1.326-.916-.892-1.373-1.988-1.373-3.298s.457-2.406 1.373-3.291 2.028-1.333 3.333-1.333a4.85 4.85 0 0 1 1.86.374c.591.243 1.069.577 1.416.986l-.789.778c-.606-.699-1.431-1.044-2.487-1.044-.952 0-1.777.325-2.478.979-.693.656-1.04 1.506-1.04 2.55s.347 1.901 1.04 2.557c.701.647 1.526.979 2.478.979 1.01 0 1.86-.332 2.531-.986.442-.433.693-1.031.759-1.794h-3.29V14.44h4.389a2.96 2.96 0 0 1 .068.669zm6.963-3.695h-4.123v2.803h3.716v1.066h-3.716v2.803h4.123v1.086h-5.29V10.33h5.29v1.086zm4.914 7.756h-1.167v-7.757h-2.529v-1.086h6.226v1.086h-2.53v7.757zm7.035 0v-8.843h1.165v8.843h-1.165zm6.332 0h-1.158v-7.757h-2.538v-1.086h6.234v1.086h-2.538v7.757zm14.326-1.137c-.893.894-2 1.34-3.32 1.34-1.327 0-2.434-.446-3.327-1.34s-1.335-1.988-1.335-3.284.443-2.391 1.335-3.284 2-1.34 3.327-1.34c1.313 0 2.419.446 3.312 1.348a4.45 4.45 0 0 1 1.343 3.276c0 1.296-.444 2.391-1.335 3.284zm-5.784-.741c.672.662 1.49.994 2.464.994.967 0 1.792-.332 2.457-.994.67-.662 1.01-1.512 1.01-2.543s-.34-1.881-1.01-2.543-1.49-.994-2.457-.994c-.974 0-1.792.332-2.464.994s-1.011 1.512-1.011 2.543.34 1.881 1.011 2.543zm8.755 1.878v-8.843h1.416l4.404 6.877h.051l-.051-1.7v-5.177h1.165v8.843h-1.216l-4.612-7.216h-.051l.051 1.707v5.509h-1.157z" stroke="#fff" stroke-width=".16" stroke-miterlimit="10"/><path d="M102.934 32.085c-3.549 0-6.448 2.637-6.448 6.274 0 3.608 2.899 6.272 6.448 6.272 3.555 0 6.454-2.664 6.454-6.272 0-3.638-2.899-6.274-6.454-6.274zm0 10.076c-1.947 0-3.623-1.569-3.623-3.802 0-2.262 1.675-3.804 3.623-3.804s3.629 1.541 3.629 3.804c0 2.233-1.683 3.802-3.629 3.802zM88.867 32.085c-3.556 0-6.447 2.637-6.447 6.274 0 3.608 2.891 6.272 6.447 6.272s6.447-2.664 6.447-6.272c0-3.638-2.893-6.274-6.447-6.274zm0 10.076c-1.949 0-3.63-1.569-3.63-3.802 0-2.262 1.681-3.804 3.63-3.804s3.622 1.541 3.622 3.804c0 2.233-1.675 3.802-3.622 3.802zm-16.739-8.153v2.666h6.521c-.191 1.49-.701 2.585-1.483 3.348-.952.922-2.434 1.945-5.038 1.945-4.013 0-7.155-3.162-7.155-7.08s3.142-7.08 7.155-7.08a7 7 0 0 1 4.914 1.901l1.924-1.879c-1.63-1.519-3.798-2.686-6.838-2.686-5.503 0-10.128 4.372-10.128 9.744s4.625 9.744 10.128 9.744c2.974 0 5.208-.951 6.965-2.736 1.8-1.757 2.361-4.228 2.361-6.223 0-.62-.053-1.189-.147-1.665h-9.178zm68.448 2.067c-.531-1.403-2.168-3.99-5.503-3.99-3.305 0-6.057 2.543-6.057 6.274 0 3.514 2.724 6.272 6.374 6.272 2.951 0 4.655-1.757 5.355-2.78l-2.19-1.425c-.731 1.044-1.726 1.735-3.165 1.735-1.43 0-2.455-.64-3.112-1.901l8.594-3.472-.296-.713zm-8.763 2.089c-.073-2.419 1.925-3.658 3.356-3.658 1.122 0 2.073.548 2.391 1.331l-5.747 2.327zm-6.985 6.086h2.825V25.813h-2.825V44.25zm-4.627-10.767h-.094c-.635-.734-1.845-1.398-3.379-1.398-3.217 0-6.16 2.758-6.16 6.295 0 3.516 2.943 6.252 6.16 6.252 1.534 0 2.744-.669 3.379-1.425h.094v.9c0 2.399-1.312 3.688-3.429 3.688-1.726 0-2.797-1.217-3.239-2.24l-2.457 1.001c.709 1.663 2.584 3.71 5.696 3.71 3.312 0 6.107-1.903 6.107-6.532V32.467h-2.678v1.016zm-3.231 8.679c-1.947 0-3.577-1.591-3.577-3.782 0-2.211 1.63-3.824 3.577-3.824 1.919 0 3.431 1.613 3.431 3.824 0 2.19-1.512 3.782-3.431 3.782zm36.832-16.349h-6.757V44.25h2.818v-6.986h3.939c3.129 0 6.198-2.211 6.198-5.727s-3.076-5.725-6.198-5.725zm.074 8.887h-4.013v-6.322h4.013c2.103 0 3.304 1.706 3.304 3.16 0 1.427-1.201 3.162-3.304 3.162zm17.417-2.649c-2.036 0-4.153.878-5.024 2.823l2.501 1.023c.538-1.023 1.527-1.355 2.574-1.355 1.461 0 2.944.857 2.966 2.371v.194c-.51-.288-1.601-.714-2.944-.714-2.693 0-5.437 1.447-5.437 4.148 0 2.471 2.206 4.062 4.686 4.062 1.896 0 2.942-.835 3.599-1.807h.096v1.425h2.722v-7.073c0-3.269-2.501-5.098-5.739-5.098zm-.34 10.104c-.922 0-2.206-.446-2.206-1.562 0-1.427 1.601-1.975 2.988-1.975 1.24 0 1.822.267 2.575.62-.221 1.707-1.726 2.917-3.357 2.917zm15.993-9.7l-3.239 7.993h-.096l-3.348-7.993h-3.039l5.031 11.169-2.87 6.215h2.944l7.752-17.385h-3.135zM161.548 44.25h2.825V25.813h-2.825V44.25z"/></g><path d="M15.763 11.12c-.444.454-.701 1.16-.701 2.074v32.62c0 .915.257 1.621.701 2.074l.11.1 18.722-18.272v-.431L15.873 11.013l-.11.107z" fill="url(#A)"/><path d="M40.831 35.809l-6.234-6.094v-.431l6.241-6.094.14.079 7.391 4.106c2.109 1.165 2.109 3.083 0 4.255l-7.391 4.099-.147.079z" fill="url(#B)"/><path d="M40.978 35.73l-6.381-6.23-18.831 18.388c.701.719 1.843.806 3.142.087l22.07-12.244z" fill="url(#C)"/><path d="M40.978 23.27l-22.07-12.244c-1.299-.712-2.442-.625-3.142.094L34.597 29.5l6.381-6.23z" fill="url(#D)"/><defs><linearGradient id="A" x1="32.932" y1="46.153" x2="8.185" y2="20.807" href="#E"><stop stop-color="#00a0ff"/><stop offset=".007" stop-color="#00a1ff"/><stop offset=".26" stop-color="#00beff"/><stop offset=".512" stop-color="#00d2ff"/><stop offset=".76" stop-color="#00dfff"/><stop offset="1" stop-color="#00e3ff"/></linearGradient><linearGradient id="B" x1="51.117" y1="29.498" x2="14.562" y2="29.498" href="#E"><stop stop-color="#ffe000"/><stop offset=".409" stop-color="#ffbd00"/><stop offset=".775" stop-color="orange"/><stop offset="1" stop-color="#ff9c00"/></linearGradient><linearGradient id="C" x1="37.508" y1="26.113" x2="3.949" y2="-8.259" href="#E"><stop stop-color="#ff3a44"/><stop offset="1" stop-color="#c31162"/></linearGradient><linearGradient id="D" x1="11.025" y1="58.74" x2="26.011" y2="43.392" href="#E"><stop stop-color="#32a071"/><stop offset=".069" stop-color="#2da771"/><stop offset=".476" stop-color="#15cf74"/><stop offset=".801" stop-color="#06e775"/><stop offset="1" stop-color="#00f076"/></linearGradient><linearGradient id="E" gradientUnits="userSpaceOnUse"/></defs></svg>