<svg xmlns="http://www.w3.org/2000/svg" width="1512" height="720" fill="none" xmlns:v="https://vecta.io/nano"><path d="M2026.97 0H-729V720H2026.97V0Z" fill="#ff5834"/><path d="M-729 102.108S-527.696 552.5 740.922 552.5c1217.438 0 1286.048-450.392 1286.048-450.392v617.889H-729V102.108zm898.066 15.504c0 3.627 13.189 6.57 29.46 6.57s29.459-2.943 29.459-6.57-13.191-6.57-29.459-6.57-29.46 2.943-29.46 6.57zm-23.898 15.581c0 2.252 8.187 4.079 18.285 4.079s18.285-1.827 18.285-4.079-8.187-4.079-18.285-4.079-18.285 1.826-18.285 4.079zM1200.08 99.544c0 3.627 13.19 6.57 29.46 6.57s29.46-2.943 29.46-6.57-13.19-6.57-29.46-6.57-29.46 2.94-29.46 6.57zm-23.91 15.576c0 2.253 8.19 4.079 18.29 4.079s18.29-1.826 18.29-4.079-8.19-4.079-18.29-4.079-18.29 1.827-18.29 4.079zM638.602 401.767c0 3.627 13.188 6.571 29.459 6.571s29.46-2.944 29.46-6.571-13.189-6.57-29.46-6.57-29.459 2.94-29.459 6.57zm-5.626 19.655c10.099 0 18.285-1.826 18.285-4.078s-8.186-4.079-18.285-4.079-18.285 1.826-18.285 4.079 8.187 4.078 18.285 4.078zm870.574-162.969c0 3.627-13.19 6.57-29.46 6.57s-29.46-2.943-29.46-6.57 13.19-6.57 29.46-6.57 29.46 2.943 29.46 6.57zm23.91 15.581c0 2.253-8.19 4.079-18.29 4.079s-18.28-1.826-18.28-4.079 8.18-4.079 18.28-4.079 18.29 1.826 18.29 4.079zM815.947 83.369c0 2.039-.93 4.035-2.709 5.971-15.573 16.948-96.249 29.857-193.425 29.857S441.961 106.288 426.399 89.34c-1.793-1.937-2.719-3.932-2.719-5.971 0-19.788 87.816-35.828 196.133-35.828s196.134 16.04 196.134 35.828z" fill="#e6301f"/><path d="M813.242 89.34c-15.573 16.947-96.25 29.856-193.425 29.856S441.964 106.287 426.402 89.34c15.562-16.947 96.239-29.856 193.415-29.856S797.669 72.392 813.242 89.34z" fill="#ed4024"/><path d="M389.693 324.055c0 2.039-.93 4.035-2.709 5.971-15.573 16.948-96.249 29.857-193.425 29.857S15.707 346.974.145 330.026c-1.793-1.936-2.719-3.932-2.719-5.971 0-19.788 87.813-35.828 196.133-35.828s196.134 16.04 196.134 35.828z" fill="#e6301f"/><path d="M386.976 330.028c-15.573 16.947-96.249 29.856-193.425 29.856S15.699 346.975.137 330.028c15.562-16.948 96.239-29.857 193.414-29.857s177.852 12.909 193.425 29.857z" fill="#ed4024"/><path d="M476.963 249.05c0 .908-.412 1.793-1.205 2.657-6.927 7.54-42.828 13.284-86.068 13.284s-79.136-5.744-86.063-13.284c-.797-.864-1.209-1.749-1.209-2.657 0-8.804 39.076-15.941 87.272-15.941s87.273 7.137 87.273 15.941z" fill="#e6301f"/><path d="M475.752 251.706c-6.927 7.54-42.828 13.284-86.067 13.284s-79.137-5.744-86.064-13.284c6.923-7.54 42.824-13.284 86.064-13.284s79.14 5.744 86.067 13.284z" fill="#ed4024"/><path d="M1219.23 368.33c0 1.242-.56 2.455-1.65 3.634-9.48 10.322-58.6 18.179-117.77 18.179s-108.297-7.86-117.77-18.179c-1.091-1.179-1.657-2.395-1.657-3.634 0-12.049 53.467-21.816 119.427-21.816 65.95 0 119.42 9.767 119.42 21.816z" fill="#e6301f"/><path d="M1217.59 371.969c-9.48 10.322-58.61 18.178-117.78 18.178s-108.294-7.86-117.767-18.178c9.477-10.322 58.597-18.179 117.767-18.179s108.3 7.857 117.78 18.179z" fill="#ed4024"/><path d="M1646.87 111.039c0 1.242-.56 2.455-1.65 3.638-9.48 10.322-58.6 18.178-117.77 18.178s-108.3-7.86-117.77-18.178c-1.09-1.18-1.66-2.396-1.66-3.638 0-12.049 53.47-21.816 119.43-21.816 65.95.004 119.42 9.767 119.42 21.816z" fill="#e6301f"/><path d="M1645.22 114.677c-9.48 10.322-58.6 18.179-117.77 18.179s-108.3-7.86-117.77-18.179c9.48-10.322 58.6-18.178 117.77-18.178s108.29 7.856 117.77 18.178z" fill="#ed4024"/><path d="M970.739 160.994c0 1.018-.463 2.018-1.356 2.988-7.787 8.473-48.123 14.93-96.713 14.93s-88.926-6.453-96.709-14.93c-.896-.97-1.359-1.966-1.359-2.988 0-9.896 43.908-17.914 98.068-17.914s98.069 8.018 98.069 17.914z" fill="#e6301f"/><path d="M969.382 163.982c-7.786 8.474-48.122 14.931-96.712 14.931s-88.926-6.453-96.709-14.931c7.783-8.473 48.119-14.93 96.709-14.93s88.926 6.453 96.712 14.93z" fill="#ed4024"/></svg>