<svg xmlns="http://www.w3.org/2000/svg" width="1512" height="319" fill="none" xmlns:v="https://vecta.io/nano"><style><![CDATA[.G{fill:#ff5834}.H{fill:#e6301f}.I{fill:#da1720}]]></style><path d="M1424.52 295.863l40.28-173.097L1628.47.227l151.67 3.428 73.7 311.918h-429.32v-19.709z" class="I"/><path d="M1464.8 122.765l139.67 17.995L1780.14 3.654 1628.47.226 1464.8 122.765z" class="G"/><path d="M1604.48 140.759l-35.99 174.811h-143.97v-19.709l40.28-173.097 139.68 17.995z" class="H"/><g class="I"><path d="M-84.183 0l46.75 11.688 128.565 303.88h-286.351L-84.183 0z"/><path d="M-117.418 295.863l40.275-173.097L86.528.227l151.674 3.428 73.695 311.918h-429.315v-19.709z"/></g><path d="M-77.144 122.765L62.533 140.76 238.201 3.654 86.527.226-77.144 122.765z" class="G"/><g class="H"><path d="M62.535 140.759L26.544 315.57h-143.962v-19.709l40.275-173.097 139.678 17.995zM3.969 80.472c0 3.386 12.302 6.129 27.48 6.129s27.48-2.742 27.48-6.129-12.302-6.129-27.48-6.129-27.48 2.746-27.48 6.129z"/><use href="#A"/><path d="M155.621 23.882c0 2.101 7.637 3.805 17.056 3.805s17.056-1.703 17.056-3.805-7.637-3.805-17.056-3.805-17.056 1.703-17.056 3.805z"/></g><path d="M683.277 35.065l-87.656 280.503h40.906L747.559 0l-64.282 35.065z" class="G"/><path d="M747.56 0l46.75 11.688 128.565 303.88H636.527L747.56 0z" class="I"/><path d="M39.035 212.52l169.79-114.607h59.429L77.24 212.52H39.035z" class="G"/><path d="M39.033 212.52L.832 318.637h46.692L77.238 212.52H39.033z" class="H"/><path d="M268.251 97.913l97.627 220.724H47.523L77.238 212.52 268.251 97.913zm879.859-65.981l150.83 283.743h-297.18l-11.944-165.766L1148.11 31.932z" class="I"/><path d="M965.925 37.907L783.734 160.363l206.085-10.454L1148.12 31.932l-182.195 5.974z" class="G"/><path d="M783.735 160.361l-77.657 155.311h295.692l-11.95-165.765-206.085 10.454zm96.855-43.896c0 3.387 12.302 6.129 27.479 6.129s27.48-2.742 27.48-6.129-12.302-6.128-27.48-6.128-27.479 2.745-27.479 6.128zm-22.297 14.534c0 2.101 7.637 3.804 17.056 3.804s17.056-1.703 17.056-3.804-7.637-3.805-17.056-3.805-17.056 1.704-17.056 3.805zm149.097-47.988c0 2.101 7.64 3.805 17.06 3.805s17.06-1.704 17.06-3.805-7.64-3.805-17.06-3.805-17.06 1.704-17.06 3.805zm-34.265-31.707c0 2.101 7.637 3.805 17.056 3.805s17.059-1.704 17.059-3.805-7.64-3.805-17.059-3.805-17.056 1.704-17.056 3.805z" class="H"/><path d="M912.164 245.482L1185.45 57.317h43.31L961.447 245.482h-49.283z" class="G"/><path d="M961.438 245.482l4.479 70.189h407.693L1228.75 57.317 961.438 245.482z" class="I"/><path d="M912.162 245.484l-22.4 70.188h76.162l-4.479-70.188h-49.283z" class="H"/><path d="M1176.44 176.932l198.89-123.125 123.13 14.204-161.01 123.125-161.01-14.204z" class="G"/><path d="M1337.45 191.135l-23.68 127.862h-188.66l51.33-142.066 161.01 14.204z" class="H"/><path d="M1596.41 235.488l-97.96-167.479-161.01 123.125-23.68 127.863h282.65v-83.509z" class="I"/><path d="M1399.88 86.472c0 3.386 12.3 6.129 27.48 6.129s27.48-2.742 27.48-6.129-12.3-6.129-27.48-6.129-27.48 2.746-27.48 6.129zm-22.3 14.534c0 2.101 7.64 3.804 17.06 3.804s17.05-1.703 17.05-3.804-7.63-3.805-17.05-3.805-17.06 1.704-17.06 3.805zm-143.96 59.126c0 2.102 7.64 3.805 17.06 3.805s17.05-1.703 17.05-3.805-7.63-3.804-17.05-3.804-17.06 1.703-17.06 3.804z" class="H"/><path d="M1291.35 315.568l274.66-198.691-29.22 198.691h-245.44zM183.27 176.933L382.163 53.807l123.126 14.204-161.008 123.125-161.011-14.204z" class="G"/><path d="M344.279 191.136L320.6 318.998H131.941l51.326-142.067 161.012 14.205z" class="H"/><path d="M505.284 68.01l146.803 250.987H320.598l23.678-127.862L505.284 68.01z" class="I"/><g class="H"><path d="M412.715 77.048c0 3.387 12.302 6.129 27.479 6.129s27.48-2.742 27.48-6.129-12.302-6.129-27.48-6.129-27.479 2.746-27.479 6.129z"/><use href="#A" x="408.746" y="-3.425"/><path d="M263.513 163.937c9.42 0 17.056-1.703 17.056-3.804s-7.636-3.805-17.056-3.805-17.056 1.703-17.056 3.805 7.636 3.804 17.056 3.804z"/></g><path d="M320.469 315.568L595.131 116.877L565.91 315.568H320.469Z" class="G"/><path d="M595.127 116.877l53.557 47.415-6.019 151.276h-76.759l29.221-198.691z" class="I"/><defs><path id="A" d="M-18.336 95.006c0 2.101 7.637 3.805 17.056 3.805s17.056-1.704 17.056-3.805-7.637-3.805-17.056-3.805-17.056 1.704-17.056 3.805z"/></defs></svg>