<svg width="764" height="638" viewBox="0 0 764 638" fill="none" xmlns="http://www.w3.org/2000/svg">
<g opacity="0.52" filter="url(#filter0_i_487_79916)">
<path d="M573.553 622.375C574.129 611.263 603.45 604.293 614.457 604.293C623.94 603.037 645.361 612.452 645.099 620.933C644.545 638.828 572.814 636.623 573.553 622.375Z" fill="#585858"/>
<path d="M614.457 604.293C611.726 604.255 608.962 604.543 606.247 604.922C599.816 605.862 593.459 607.398 587.357 609.737C581.637 612.228 574.166 614.898 572.917 622.342C572.83 626.013 576.119 627.976 578.668 629.296C581.388 630.629 584.256 631.484 587.16 632.177C592.933 633.522 598.848 634.154 604.754 634.396C612.326 634.674 619.919 634.328 627.41 632.934C631.14 632.216 634.864 631.244 638.335 629.598C641.689 627.985 645.534 625.285 645.644 620.949C645.213 615.378 640.218 612.509 636.226 610.051C631.975 607.666 627.392 605.913 622.651 604.865C619.966 604.301 617.18 603.912 614.457 604.293C617.19 604.016 619.937 604.503 622.583 605.153C631.307 607.787 642.609 611.863 644.554 620.916C643.451 628.274 633.962 630.081 627.148 631.517C619.792 632.808 612.288 633.114 604.815 632.839C598.988 632.6 593.147 631.997 587.495 630.728C584.656 630.076 581.859 629.266 579.282 628.039C576.804 626.84 574.086 624.997 574.188 622.408C574.96 616.264 582.071 613.046 587.682 610.546C593.644 608.087 599.923 606.368 606.294 605.215C608.985 604.744 611.728 604.359 614.457 604.293Z" fill="white"/>
<path d="M611.504 604.297C608.879 604.532 606.235 604.885 603.615 605.324C597.619 606.346 591.656 607.765 585.961 610.032C580.595 612.36 573.757 615.371 572.926 622.346C572.835 626 576.108 627.965 578.649 629.284C581.359 630.618 584.219 631.475 587.115 632.168C592.869 633.515 598.771 634.151 604.66 634.396C612.247 634.681 619.857 634.337 627.363 632.942C631.1 632.224 634.832 631.251 638.309 629.603C641.668 627.99 645.52 625.286 645.626 620.953C643.57 611.212 633.174 608.29 625.257 605.521C622.697 604.816 620.054 604.216 617.41 604.297C620.052 604.321 622.653 605.015 625.171 605.805C632.937 608.679 643.156 612.56 644.571 620.92C643.449 628.314 633.933 630.099 627.104 631.533C619.731 632.82 612.21 633.121 604.722 632.839C598.912 632.597 593.084 631.992 587.45 630.724C584.618 630.073 581.828 629.263 579.259 628.038C576.788 626.841 574.079 625.001 574.179 622.411C574.651 616.548 581.023 613.197 586.291 610.823C591.839 608.443 597.73 606.844 603.669 605.615C606.265 605.085 608.89 604.635 611.504 604.297Z" fill="white"/>
</g>
<g opacity="0.52" filter="url(#filter1_i_487_79916)">
<path d="M344.303 542.459C344.879 531.347 374.2 524.377 385.207 524.377C394.69 523.121 416.111 532.536 415.849 541.017C415.295 558.912 343.564 556.707 344.303 542.459Z" fill="#585858"/>
<path d="M385.207 524.377C382.476 524.339 379.712 524.626 376.997 525.006C370.566 525.946 364.209 527.482 358.107 529.821C352.387 532.312 344.916 534.982 343.667 542.426C343.58 546.097 346.869 548.06 349.418 549.38C352.138 550.713 355.006 551.568 357.91 552.261C363.683 553.606 369.598 554.238 375.504 554.48C383.076 554.758 390.669 554.412 398.16 553.018C401.89 552.3 405.614 551.328 409.085 549.682C412.439 548.069 416.284 545.369 416.394 541.033C415.963 535.462 410.968 532.593 406.976 530.135C402.725 527.75 398.142 525.996 393.401 524.949C390.716 524.385 387.93 523.996 385.207 524.377C387.94 524.1 390.687 524.587 393.333 525.237C402.057 527.871 413.359 531.947 415.304 541C414.201 548.358 404.712 550.165 397.898 551.601C390.542 552.892 383.038 553.198 375.565 552.923C369.738 552.684 363.897 552.081 358.245 550.812C355.406 550.16 352.609 549.35 350.032 548.123C347.554 546.924 344.836 545.081 344.938 542.491C345.71 536.348 352.821 533.13 358.432 530.63C364.394 528.171 370.673 526.452 377.044 525.299C379.735 524.828 382.478 524.443 385.207 524.377Z" fill="white"/>
<path d="M382.254 524.381C379.629 524.616 376.985 524.969 374.365 525.408C368.369 526.43 362.406 527.849 356.711 530.116C351.345 532.444 344.507 535.455 343.676 542.43C343.585 546.084 346.858 548.049 349.399 549.368C352.109 550.702 354.969 551.559 357.865 552.252C363.619 553.599 369.521 554.235 375.41 554.48C382.997 554.765 390.607 554.421 398.113 553.026C401.85 552.308 405.582 551.335 409.059 549.687C412.418 548.074 416.27 545.37 416.376 541.037C414.32 531.296 403.924 528.374 396.007 525.605C393.447 524.9 390.804 524.3 388.16 524.381C390.802 524.405 393.403 525.099 395.921 525.888C403.687 528.763 413.906 532.644 415.321 541.004C414.199 548.398 404.683 550.182 397.854 551.617C390.481 552.904 382.96 553.205 375.472 552.923C369.662 552.681 363.834 552.076 358.2 550.808C355.368 550.157 352.578 549.347 350.009 548.122C347.538 546.925 344.829 545.085 344.929 542.495C345.401 536.632 351.773 533.281 357.041 530.907C362.589 528.527 368.48 526.928 374.419 525.699C377.015 525.169 379.64 524.719 382.254 524.381Z" fill="white"/>
</g>
<g opacity="0.52" filter="url(#filter2_i_487_79916)">
<path d="M119.092 625.062C119.668 613.951 148.989 606.981 159.996 606.981C169.479 605.725 190.9 615.139 190.638 623.62C190.084 641.516 118.353 639.31 119.092 625.062Z" fill="#585858"/>
<path d="M159.996 606.981C157.265 606.943 154.501 607.23 151.786 607.61C145.355 608.55 138.998 610.086 132.896 612.425C127.176 614.915 119.705 617.585 118.456 625.029C118.369 628.701 121.659 630.663 124.207 631.983C126.927 633.317 129.795 634.172 132.699 634.865C138.472 636.209 144.387 636.842 150.293 637.083C157.865 637.362 165.458 637.016 172.949 635.622C176.679 634.903 180.403 633.932 183.874 632.285C187.228 630.673 191.073 627.972 191.183 623.637C190.752 618.065 185.758 615.197 181.765 612.739C177.514 610.353 172.931 608.6 168.19 607.553C165.505 606.988 162.719 606.6 159.996 606.981C162.729 606.704 165.476 607.19 168.122 607.841C176.846 610.474 188.148 614.551 190.093 623.603C188.991 630.962 179.501 632.768 172.687 634.204C165.331 635.496 157.827 635.802 150.354 635.526C144.527 635.288 138.686 634.685 133.034 633.416C130.195 632.764 127.398 631.953 124.821 630.727C122.343 629.528 119.625 627.685 119.728 625.095C120.499 618.951 127.61 615.733 133.221 613.234C139.183 610.774 145.462 609.056 151.833 607.902C154.524 607.432 157.267 607.047 159.996 606.981Z" fill="white"/>
<path d="M157.043 606.985C154.418 607.219 151.774 607.572 149.154 608.011C143.158 609.034 137.195 610.453 131.5 612.719C126.134 615.048 119.296 618.059 118.465 625.034C118.375 628.687 121.648 630.653 124.188 631.972C126.898 633.306 129.758 634.162 132.654 634.856C138.408 636.202 144.31 636.838 150.199 637.084C157.786 637.369 165.396 637.025 172.902 635.63C176.639 634.911 180.371 633.939 183.848 632.29C187.207 630.677 191.059 627.974 191.165 623.641C189.109 613.899 178.713 610.977 170.796 608.209C168.236 607.503 165.593 606.904 162.949 606.985C165.591 607.008 168.192 607.702 170.71 608.492C178.476 611.367 188.696 615.248 190.111 623.608C188.988 631.002 179.472 632.786 172.643 634.221C165.27 635.507 157.749 635.808 150.261 635.527C144.451 635.285 138.623 634.679 132.99 633.412C130.157 632.76 127.367 631.95 124.798 630.726C122.327 629.528 119.618 627.689 119.718 625.099C120.19 619.236 126.562 615.885 131.83 613.51C137.378 611.131 143.269 609.531 149.208 608.302C151.804 607.773 154.429 607.323 157.043 606.985Z" fill="white"/>
</g>
<g opacity="0.52" filter="url(#filter3_i_487_79916)">
<path d="M0.638479 578.304C1.21454 567.193 30.5362 560.223 41.5428 560.223C51.0256 558.967 72.447 568.381 72.1845 576.862C71.6307 594.758 -0.100223 592.553 0.638479 578.304Z" fill="#585858"/>
<path d="M41.5428 560.223C38.812 560.185 36.048 560.472 33.333 560.852C26.9024 561.792 20.5448 563.328 14.4427 565.667C8.72298 568.158 1.25147 570.827 0.00252777 578.271C-0.0842036 581.943 3.20538 583.905 5.75411 585.225C8.47412 586.559 11.3417 587.414 14.2455 588.107C20.0191 589.452 25.9342 590.084 31.8399 590.326C39.412 590.604 47.0045 590.258 54.4956 588.864C58.2257 588.145 61.9501 587.174 65.4205 585.528C68.7753 583.915 72.6202 581.214 72.7295 576.879C72.2987 571.307 67.3044 568.439 63.3122 565.981C59.0608 563.595 54.4779 561.842 49.7366 560.795C47.0516 560.23 44.2662 559.842 41.5428 560.223C44.2762 559.946 47.0233 560.432 49.6692 561.083C58.3932 563.716 69.6947 567.793 71.6394 576.845C70.5374 584.204 61.0478 586.01 54.234 587.446C46.8777 588.738 39.3735 589.044 31.9011 588.768C26.0737 588.53 20.233 587.927 14.581 586.658C11.7417 586.006 8.94451 585.195 6.36787 583.969C3.88959 582.77 1.17212 580.927 1.27443 578.337C2.04589 572.193 9.1565 568.975 14.7681 566.476C20.73 564.016 27.0087 562.298 33.3797 561.144C36.0711 560.674 38.8136 560.289 41.5428 560.223Z" fill="white"/>
<path d="M38.5895 560.229C35.9646 560.464 33.3205 560.817 30.7006 561.255C24.7048 562.278 18.7418 563.697 13.0469 565.964C7.68137 568.292 0.843112 571.303 0.012005 578.278C-0.0786096 581.931 3.19441 583.897 5.73469 585.216C8.44513 586.55 11.3048 587.406 14.2008 588.1C19.9546 589.447 25.8572 590.082 31.7456 590.328C39.3333 590.613 46.943 590.269 54.4487 588.874C58.1863 588.155 61.9182 587.183 65.3952 585.534C68.7536 583.921 72.6062 581.218 72.7116 576.885C70.6559 567.144 60.2597 564.221 52.3424 561.453C49.783 560.748 47.1396 560.148 44.4962 560.229C47.1375 560.252 49.7387 560.946 52.2569 561.736C60.0228 564.611 70.2424 568.492 71.6574 576.852C70.5353 584.246 61.0188 586.03 54.1896 587.465C46.8168 588.752 39.2958 589.053 31.8079 588.771C25.9977 588.529 20.1696 587.923 14.5364 586.656C11.7042 586.004 8.91423 585.195 6.34505 583.97C3.87418 582.773 1.16446 580.933 1.26495 578.343C1.73673 572.48 8.10929 569.129 13.3773 566.755C18.925 564.375 24.8155 562.776 30.7548 561.547C33.351 561.017 35.9761 560.567 38.5895 560.229Z" fill="white"/>
</g>
<g opacity="0.52" filter="url(#filter4_i_487_79916)">
<path d="M78.5682 378.808C79.1442 367.697 108.466 360.727 119.473 360.727C128.955 359.471 150.377 368.885 150.114 377.366C149.56 395.262 77.8295 393.057 78.5682 378.808Z" fill="#585858"/>
<path d="M119.473 360.727C116.742 360.689 113.978 360.976 111.263 361.356C104.832 362.296 98.4745 363.832 92.3724 366.171C86.6527 368.662 79.1812 371.331 77.9322 378.775C77.8455 382.447 81.1351 384.409 83.6838 385.729C86.4038 387.063 89.2714 387.918 92.1752 388.611C97.9488 389.955 103.864 390.588 109.77 390.83C117.342 391.108 124.934 390.762 132.425 389.368C136.155 388.649 139.88 387.678 143.35 386.031C146.705 384.419 150.55 381.718 150.659 377.383C150.228 371.811 145.234 368.943 141.242 366.485C136.991 364.099 132.408 362.346 127.666 361.299C124.981 360.734 122.196 360.346 119.473 360.727C122.206 360.45 124.953 360.936 127.599 361.587C136.323 364.22 147.624 368.297 149.569 377.349C148.467 384.708 138.977 386.514 132.164 387.95C124.807 389.242 117.303 389.548 109.831 389.272C104.003 389.034 98.1627 388.431 92.5107 387.162C89.6714 386.51 86.8742 385.699 84.2976 384.473C81.8193 383.274 79.1018 381.431 79.2041 378.841C79.9756 372.697 87.0862 369.479 92.6978 366.98C98.6596 364.52 104.938 362.802 111.309 361.648C114.001 361.178 116.743 360.793 119.473 360.727Z" fill="white"/>
<path d="M116.519 360.731C113.894 360.965 111.25 361.319 108.63 361.757C102.635 362.78 96.6715 364.199 90.9766 366.466C85.6111 368.794 78.7728 371.805 77.9417 378.78C77.8511 382.433 81.1241 384.399 83.6644 385.718C86.3748 387.052 89.2345 387.908 92.1305 388.602C97.8843 389.948 103.787 390.584 109.675 390.83C117.263 391.115 124.873 390.771 132.378 389.376C136.116 388.657 139.848 387.685 143.325 386.036C146.683 384.423 150.536 381.72 150.641 377.387C148.586 367.646 138.189 364.723 130.272 361.955C127.713 361.249 125.069 360.65 122.426 360.731C125.067 360.754 127.668 361.448 130.187 362.238C137.953 365.113 148.172 368.994 149.587 377.354C148.465 384.748 138.948 386.532 132.119 387.967C124.747 389.254 117.225 389.555 109.738 389.273C103.927 389.031 98.0993 388.425 92.4661 387.158C89.6339 386.506 86.8439 385.697 84.2747 384.472C81.8039 383.275 79.0942 381.435 79.1946 378.845C79.6664 372.982 86.039 369.631 91.307 367.257C96.8547 364.877 102.745 363.277 108.684 362.049C111.281 361.519 113.906 361.069 116.519 360.731Z" fill="white"/>
</g>
<g opacity="0.52" filter="url(#filter5_i_487_79916)">
<path d="M608.482 390.498C609.058 379.386 638.38 372.416 649.387 372.416C658.869 371.16 680.291 380.575 680.028 389.056C679.474 406.951 607.744 404.746 608.482 390.498Z" fill="#585858"/>
<path d="M649.387 372.416C646.656 372.378 643.892 372.666 641.177 373.045C634.746 373.985 628.389 375.521 622.286 377.86C616.567 380.351 609.095 383.021 607.846 390.465C607.76 394.137 611.049 396.099 613.598 397.419C616.318 398.752 619.185 399.607 622.089 400.3C627.863 401.645 633.778 402.277 639.684 402.519C647.256 402.797 654.848 402.452 662.339 401.057C666.069 400.339 669.794 399.367 673.264 397.721C676.619 396.108 680.464 393.408 680.573 389.073C680.142 383.501 675.148 380.632 671.156 378.175C666.905 375.789 662.322 374.036 657.58 372.988C654.895 372.424 652.11 372.035 649.387 372.416C652.12 372.139 654.867 372.626 657.513 373.276C666.237 375.91 677.538 379.986 679.483 389.039C678.381 396.397 668.892 398.204 662.078 399.64C654.721 400.931 647.217 401.237 639.745 400.962C633.917 400.724 628.077 400.12 622.425 398.851C619.585 398.199 616.788 397.389 614.212 396.162C611.733 394.963 609.016 393.12 609.118 390.531C609.89 384.387 617 381.169 622.612 378.669C628.574 376.21 634.852 374.491 641.223 373.338C643.915 372.867 646.657 372.482 649.387 372.416Z" fill="white"/>
<path d="M646.433 372.42C643.808 372.655 641.164 373.008 638.544 373.447C632.549 374.469 626.586 375.888 620.891 378.155C615.525 380.483 608.687 383.494 607.856 390.469C607.765 394.123 611.038 396.088 613.578 397.407C616.289 398.741 619.149 399.598 622.045 400.292C627.798 401.638 633.701 402.274 639.589 402.519C647.177 402.804 654.787 402.46 662.292 401.065C666.03 400.347 669.762 399.374 673.239 397.726C676.597 396.113 680.45 393.409 680.555 389.076C678.5 379.335 668.103 376.413 660.186 373.644C657.627 372.939 654.983 372.339 652.34 372.42C654.981 372.444 657.582 373.138 660.101 373.928C667.867 376.802 678.086 380.683 679.501 389.044C678.379 396.437 668.863 398.222 662.033 399.657C654.661 400.943 647.14 401.244 639.652 400.962C633.841 400.72 628.013 400.115 622.38 398.847C619.548 398.196 616.758 397.386 614.189 396.161C611.718 394.964 609.008 393.124 609.109 390.534C609.58 384.671 615.953 381.32 621.221 378.946C626.769 376.566 632.659 374.967 638.599 373.738C641.195 373.208 643.82 372.758 646.433 372.42Z" fill="white"/>
</g>
<g opacity="0.52" filter="url(#filter6_i_487_79916)">
<path d="M691.084 576.746C691.66 565.634 720.982 558.664 731.988 558.664C741.471 557.408 762.892 566.823 762.63 575.304C762.076 593.199 690.345 590.994 691.084 576.746Z" fill="#585858"/>
<path d="M731.988 558.664C729.257 558.626 726.493 558.914 723.778 559.293C717.348 560.233 710.99 561.769 704.888 564.109C699.168 566.599 691.697 569.269 690.448 576.713C690.361 580.385 693.651 582.347 696.199 583.667C698.919 585 701.787 585.855 704.691 586.548C710.464 587.893 716.38 588.525 722.285 588.767C729.857 589.045 737.45 588.7 744.941 587.305C748.671 586.587 752.395 585.616 755.866 583.969C759.221 582.356 763.066 579.656 763.175 575.321C762.744 569.749 757.75 566.88 753.758 564.423C749.506 562.037 744.923 560.284 740.182 559.236C737.497 558.672 734.712 558.283 731.988 558.664C734.722 558.387 737.469 558.874 740.115 559.524C748.839 562.158 760.14 566.234 762.085 575.287C760.983 582.645 751.493 584.452 744.679 585.888C737.323 587.179 729.819 587.485 722.346 587.21C716.519 586.972 710.678 586.368 705.026 585.099C702.187 584.447 699.39 583.637 696.813 582.41C694.335 581.211 691.617 579.368 691.72 576.779C692.491 570.635 699.602 567.417 705.213 564.917C711.175 562.458 717.454 560.739 723.825 559.586C726.516 559.115 729.259 558.73 731.988 558.664Z" fill="white"/>
<path d="M729.035 558.67C726.41 558.905 723.766 559.258 721.146 559.697C715.15 560.719 709.187 562.138 703.492 564.405C698.127 566.733 691.288 569.744 690.457 576.719C690.367 580.373 693.64 582.338 696.18 583.657C698.89 584.991 701.75 585.848 704.646 586.542C710.4 587.888 716.303 588.524 722.191 588.769C729.779 589.054 737.388 588.71 744.894 587.315C748.632 586.597 752.364 585.624 755.84 583.976C759.199 582.363 763.051 579.659 763.157 575.326C761.101 565.585 750.705 562.663 742.788 559.894C740.228 559.189 737.585 558.589 734.941 558.67C737.583 558.694 740.184 559.388 742.702 560.178C750.468 563.052 760.688 566.933 762.103 575.294C760.981 582.687 751.464 584.472 744.635 585.907C737.262 587.193 729.741 587.494 722.253 587.212C716.443 586.97 710.615 586.365 704.982 585.097C702.149 584.446 699.36 583.636 696.79 582.411C694.319 581.214 691.61 579.374 691.71 576.784C692.182 570.921 698.555 567.57 703.823 565.196C709.37 562.816 715.261 561.217 721.2 559.988C723.796 559.458 726.421 559.008 729.035 558.67Z" fill="white"/>
</g>
<path d="M380.368 527.584C385.069 527.584 389.363 528.757 392.506 530.695C395.637 532.626 397.734 535.395 397.734 538.59C397.734 541.785 395.637 544.554 392.506 546.484C389.363 548.422 385.069 549.596 380.368 549.596C375.667 549.596 371.374 548.422 368.23 546.484C365.1 544.554 363.002 541.785 363.002 538.59C363.002 535.395 365.1 532.626 368.23 530.695C371.374 528.757 375.667 527.584 380.368 527.584Z" fill="#4A5C65" stroke="#1B282F" stroke-width="1.55857"/>
<g filter="url(#filter7_i_487_79916)">
<path d="M374.008 534.474V517.513V513.211V501.176H386.729V513.647V518.386V534.474C386.729 537.987 383.881 540.834 380.368 540.834C376.855 540.834 374.008 537.987 374.008 534.474Z" fill="#5F747E"/>
</g>
<path d="M387.508 500.396V534.474C387.508 538.417 384.311 541.613 380.368 541.613C376.425 541.613 373.229 538.417 373.229 534.474V500.396H387.508Z" stroke="#1B282F" stroke-width="1.55857"/>
<path d="M212.892 501.396C217.593 501.397 221.886 502.57 225.029 504.508C228.16 506.438 230.258 509.208 230.258 512.402C230.258 515.597 228.16 518.367 225.029 520.297C221.886 522.235 217.593 523.408 212.892 523.408C208.191 523.408 203.897 522.235 200.754 520.297C197.623 518.367 195.525 515.597 195.525 512.402C195.525 509.208 197.623 506.438 200.754 504.508C203.897 502.57 208.191 501.396 212.892 501.396Z" fill="#4A5C65" stroke="#1B282F" stroke-width="1.55857"/>
<g filter="url(#filter8_i_487_79916)">
<path d="M206.531 508.287V491.326V487.023V474.988H219.252V487.46V492.199V508.287C219.252 511.799 216.404 514.647 212.892 514.647C209.379 514.647 206.531 511.799 206.531 508.287Z" fill="#5F747E"/>
</g>
<path d="M220.031 474.209V508.286C220.031 512.229 216.835 515.426 212.892 515.426C208.948 515.426 205.752 512.229 205.752 508.286V474.209H220.031Z" stroke="#1B282F" stroke-width="1.55857"/>
<path d="M132.579 429.561C137.28 429.561 141.574 430.734 144.717 432.672C147.848 434.602 149.945 437.372 149.945 440.566C149.945 443.761 147.848 446.531 144.717 448.461C141.574 450.399 137.28 451.572 132.579 451.572C127.878 451.572 123.585 450.399 120.441 448.461C117.311 446.531 115.213 443.761 115.213 440.566C115.213 437.372 117.311 434.602 120.441 432.672C123.585 430.734 127.878 429.561 132.579 429.561Z" fill="#4A5C65" stroke="#1B282F" stroke-width="1.55857"/>
<g filter="url(#filter9_i_487_79916)">
<path d="M126.219 436.449V419.488V415.185V403.15H138.939V415.622V420.361V436.449C138.939 439.961 136.092 442.809 132.579 442.809C129.066 442.809 126.219 439.961 126.219 436.449Z" fill="#5F747E"/>
</g>
<path d="M139.719 402.371V436.448C139.719 440.391 136.522 443.588 132.579 443.588C128.636 443.588 125.439 440.391 125.439 436.448V402.371H139.719Z" stroke="#1B282F" stroke-width="1.55857"/>
<path d="M118.524 364.424C123.225 364.424 127.519 365.597 130.662 367.535C133.793 369.465 135.891 372.235 135.891 375.43C135.891 378.624 133.793 381.394 130.662 383.324C127.519 385.262 123.225 386.436 118.524 386.436C113.823 386.436 109.53 385.262 106.387 383.324C103.256 381.394 101.158 378.624 101.158 375.43C101.158 372.235 103.256 369.465 106.387 367.535C109.53 365.597 113.823 364.424 118.524 364.424Z" fill="#4A5C65" stroke="#1B282F" stroke-width="1.55857"/>
<g filter="url(#filter10_i_487_79916)">
<path d="M112.164 371.312V354.351V350.048V338.014H124.885V350.485V355.224V371.312C124.885 374.825 122.037 377.672 118.524 377.672C115.012 377.672 112.164 374.825 112.164 371.312Z" fill="#5F747E"/>
</g>
<path d="M125.664 337.234V371.312C125.664 375.255 122.468 378.451 118.524 378.451C114.581 378.451 111.385 375.255 111.385 371.312V337.234H125.664Z" stroke="#1B282F" stroke-width="1.55857"/>
<path d="M510.212 507.133C514.913 507.133 519.206 508.306 522.35 510.244C525.48 512.174 527.578 514.944 527.578 518.139C527.578 521.333 525.48 524.103 522.35 526.033C519.206 527.971 514.913 529.145 510.212 529.145C505.511 529.145 501.217 527.971 498.074 526.033C494.943 524.103 492.846 521.333 492.846 518.139C492.846 514.944 494.943 512.174 498.074 510.244C501.218 508.306 505.511 507.133 510.212 507.133Z" fill="#4A5C65" stroke="#1B282F" stroke-width="1.55857"/>
<g filter="url(#filter11_i_487_79916)">
<path d="M503.852 514.021V497.06V492.757V480.723H516.572V493.194V497.933V514.021C516.572 517.534 513.725 520.381 510.212 520.381C506.699 520.381 503.852 517.534 503.852 514.021Z" fill="#5F747E"/>
</g>
<path d="M517.352 479.943V514.021C517.352 517.964 514.155 521.16 510.212 521.16C506.269 521.16 503.072 517.964 503.072 514.021V479.943H517.352Z" stroke="#1B282F" stroke-width="1.55857"/>
<path d="M621.946 440.793C626.647 440.793 630.941 441.966 634.084 443.904C637.215 445.835 639.312 448.604 639.312 451.799C639.312 454.994 637.215 457.763 634.084 459.693C630.941 461.631 626.647 462.805 621.946 462.805C617.245 462.805 612.952 461.631 609.809 459.693C606.678 457.763 604.58 454.994 604.58 451.799C604.58 448.604 606.678 445.835 609.809 443.904C612.952 441.966 617.245 440.793 621.946 440.793Z" fill="#4A5C65" stroke="#1B282F" stroke-width="1.55857"/>
<g filter="url(#filter12_i_487_79916)">
<path d="M615.586 447.683V430.722V426.42V414.385H628.307V426.856V431.595V447.683C628.307 451.196 625.459 454.043 621.946 454.043C618.434 454.043 615.586 451.196 615.586 447.683Z" fill="#5F747E"/>
</g>
<path d="M629.086 413.605V447.683C629.086 451.626 625.889 454.822 621.946 454.822C618.003 454.822 614.807 451.626 614.807 447.683V413.605H629.086Z" stroke="#1B282F" stroke-width="1.55857"/>
<path d="M642.985 376.111C647.686 376.111 651.98 377.285 655.123 379.223C658.254 381.153 660.352 383.922 660.352 387.117C660.352 390.312 658.254 393.081 655.123 395.012C651.98 396.95 647.686 398.123 642.985 398.123C638.284 398.123 633.991 396.95 630.848 395.012C627.717 393.081 625.619 390.312 625.619 387.117C625.619 383.922 627.717 381.153 630.848 379.223C633.991 377.285 638.284 376.111 642.985 376.111Z" fill="#4A5C65" stroke="#1B282F" stroke-width="1.55857"/>
<g filter="url(#filter13_i_487_79916)">
<path d="M636.625 383.001V366.04V361.738V349.703H649.346V362.174V366.913V383.001C649.346 386.514 646.498 389.362 642.985 389.362C639.473 389.362 636.625 386.514 636.625 383.001Z" fill="#5F747E"/>
</g>
<path d="M650.125 348.924V383.001C650.125 386.944 646.928 390.141 642.985 390.141C639.042 390.141 635.846 386.944 635.846 383.001V348.924H650.125Z" stroke="#1B282F" stroke-width="1.55857"/>
<g filter="url(#filter14_i_487_79916)">
<path d="M499.48 410.51L362.296 427.97L231.223 403.401L147.292 345.909L132.576 275.82L112.07 313.077L111.125 356.26L132.201 421.859L212.891 493.07L380.534 522.315L510.081 500.677L621.449 434.081L649.136 364.616V318.142L640.78 303.507L628.932 294.278L601.121 354.514L499.48 410.51Z" fill="#EFF5FF"/>
</g>
<path d="M649.915 364.766L649.859 364.904L622.173 434.369L622.075 434.614L621.85 434.75L510.48 501.346L510.354 501.422L510.209 501.446L380.662 523.083L380.53 523.105L380.399 523.082L212.757 493.838L212.54 493.8L212.375 493.654L131.686 422.443L131.525 422.302L131.46 422.098L110.383 356.498L110.343 356.374L110.346 356.243L111.291 313.06L111.295 312.868L111.388 312.701L131.893 275.444L132.906 273.604L133.338 275.66L147.99 345.441L231.528 402.665L362.32 427.182L499.232 409.756L600.521 353.953L628.225 293.951L628.637 293.06L629.411 293.663L641.259 302.892L641.38 302.986L641.457 303.12L649.812 317.756L649.915 317.936V364.766Z" stroke="#3B4353" stroke-width="1.55857"/>
<path d="M111.68 312.688L130.772 371.523L212.597 443.607L295.98 458.574L380.922 471.822L468.592 457.1L510.284 451.01L622.89 383.602L649.386 317.363" stroke="#3B4353" stroke-width="1.55857"/>
<path d="M147.152 345.027L130.773 370.875L130.773 421.918" stroke="#3B4353" stroke-width="1.55857"/>
<path d="M362.672 428.094L380.535 471.661V523.093" stroke="#3B4353" stroke-width="1.55857"/>
<path d="M499.234 410.137L510.084 450.62L510.288 501.273" stroke="#3B4353" stroke-width="1.55857"/>
<path d="M599.875 353.141L622.892 383.603L622.112 434.642" stroke="#3B4353" stroke-width="1.55857"/>
<path d="M231.476 403.154L212.602 443.217V493.871" stroke="#3B4353" stroke-width="1.55857"/>
<path d="M155.149 609.895C159.85 609.895 164.144 611.068 167.287 613.006C170.418 614.936 172.516 617.706 172.516 620.9C172.516 624.095 170.418 626.865 167.287 628.795C164.144 630.733 159.85 631.906 155.149 631.906C150.448 631.906 146.155 630.733 143.012 628.795C139.881 626.865 137.783 624.095 137.783 620.9C137.783 617.706 139.881 614.936 143.012 613.006C146.155 611.068 150.448 609.895 155.149 609.895Z" fill="#4A5C65" stroke="#1B282F" stroke-width="1.55857"/>
<g filter="url(#filter15_i_487_79916)">
<path d="M148.797 616.787V599.826V595.523V583.488H161.518V595.96V600.699V616.787C161.518 620.299 158.67 623.147 155.157 623.147C151.645 623.147 148.797 620.299 148.797 616.787Z" fill="#5F747E"/>
</g>
<path d="M162.297 582.709V616.786C162.297 620.729 159.1 623.926 155.157 623.926C151.214 623.926 148.018 620.729 148.018 616.786V582.709H162.297Z" stroke="#1B282F" stroke-width="1.55857"/>
<path d="M36.7041 562.357C41.4051 562.357 45.6985 563.531 48.8418 565.469C51.9726 567.399 54.0703 570.169 54.0703 573.363C54.0703 576.558 51.9726 579.328 48.8418 581.258C45.6985 583.196 41.4051 584.369 36.7041 584.369C32.0031 584.369 27.7097 583.196 24.5664 581.258C21.4356 579.328 19.3379 576.558 19.3379 573.363C19.3379 570.169 21.4355 567.399 24.5664 565.469C27.7097 563.531 32.003 562.357 36.7041 562.357Z" fill="#4A5C65" stroke="#1B282F" stroke-width="1.55857"/>
<g filter="url(#filter16_i_487_79916)">
<path d="M30.2422 569.461V556.906V553.44V543.744H42.7107V553.792V557.61V569.461C42.7107 572.904 39.9196 575.695 36.4765 575.695C33.0334 575.695 30.2422 572.904 30.2422 569.461Z" fill="#5F747E"/>
</g>
<path d="M43.4902 542.965V569.461C43.49 573.334 40.3499 576.474 36.4766 576.474C32.6032 576.474 29.4631 573.334 29.4629 569.461V542.965H43.4902Z" stroke="#1B282F" stroke-width="1.55857"/>
<path d="M153.027 361.748L296.447 415.624L241.199 466.631L209.896 559.667L176.36 602.191L151.043 607.055L27.9062 555.064V536.731L77.0012 497.377L108.13 398.538L153.027 361.748Z" fill="#EFF5FF"/>
<g filter="url(#filter17_i_487_79916)">
<path d="M91.8125 500.494L118.698 421.396L232.084 463.088L205.588 546.472L91.8125 500.494Z" fill="#2DC8FF"/>
</g>
<path d="M231.115 463.562L205.1 545.434L92.7871 500.047L119.178 422.403L231.115 463.562Z" stroke="#004F6B" stroke-width="1.55857"/>
<mask id="mask0_487_79916" style="mask-type:alpha" maskUnits="userSpaceOnUse" x="91" y="421" width="142" height="126">
<path d="M91.8125 500.495L115.97 421.787L232.084 463.089L205.588 546.473L91.8125 500.495Z" fill="#4E4E4E"/>
</mask>
<g mask="url(#mask0_487_79916)">
<path d="M102.68 451.42L125.349 460.985L138.367 446.662L205.236 473.558L204.726 493.137L222.86 499.803" stroke="#004F6B" stroke-opacity="0.58" stroke-width="1.49655"/>
<path d="M111.151 434.451L131.596 443.452L144.614 429.129L211.483 456.025L210.973 475.604L229.107 482.27" stroke="#004F6B" stroke-opacity="0.58" stroke-width="1.49655"/>
<path d="M96.3449 467.306L118.866 477.5L131.884 463.176L198.753 490.072L198.243 509.651L216.377 516.317" stroke="#004F6B" stroke-opacity="0.58" stroke-width="1.49655"/>
<path d="M90.0941 484.461L111.842 494.002L124.86 479.679L191.729 506.575L191.218 526.154L209.353 532.82" stroke="#004F6B" stroke-opacity="0.58" stroke-width="1.49655"/>
<path d="M85.1825 501.273L105.627 510.275L118.645 495.952L185.514 522.847L185.004 542.426L203.138 549.092" stroke="#004F6B" stroke-opacity="0.58" stroke-width="1.49655"/>
</g>
<path d="M108.252 417.5V398.414L76.9988 497.377L64.1406 507.897L75.8299 512.963L85.9606 505.56L91.8052 500.494L118.691 421.397L108.252 417.5Z" fill="#EFF5FF"/>
<g filter="url(#filter18_i_487_79916)">
<path d="M42.3281 538.29L86.3945 505.082L201.692 552.317L162.294 591.39L148.7 594.009L42.3281 547.643V538.29Z" fill="#B8BEC4"/>
</g>
<path d="M86.6162 504.541L201.913 551.776L202.729 552.11L202.104 552.732L162.706 591.805L162.579 591.93L162.404 591.964L148.811 594.583L148.633 594.617L148.467 594.545L42.0947 548.179L41.7441 548.026V537.998L41.9766 537.823L86.043 504.615L86.3086 504.415L86.6162 504.541Z" stroke="#3B4353" stroke-width="1.16893"/>
<path d="M209.869 559.721L240.651 466.596L255.457 449.842L295.98 457.635L294.576 507.54L239.453 557.799L224.285 568.683L176.359 602.192L191.166 582.71L209.869 559.721Z" fill="#EFF5FF"/>
<path d="M270.382 472.118L295.574 458.803L294.701 508.863L239.453 557.796L270.382 472.118Z" fill="#9FA7AF"/>
<path d="M209.895 559.297L172.009 597.655L151.031 607.075L176.358 602.192L224.284 568.683L239.452 557.801L270.38 472.123L241.322 466.137L209.895 559.297Z" fill="#B8BEC4"/>
<path d="M134.953 401.781L244.95 442.438" stroke="#3B4353" stroke-width="1.24713"/>
<path d="M137.945 397.914L247.942 438.57" stroke="#3B4353" stroke-width="1.24713"/>
<path d="M142.68 394.668L252.676 435.324" stroke="#3B4353" stroke-width="1.24713"/>
<path d="M146.43 390.684L256.426 431.34" stroke="#3B4353" stroke-width="1.24713"/>
<path d="M149.914 387.189L261.657 428.843" stroke="#3B4353" stroke-width="1.24713"/>
<path d="M121.352 404.52V413.126L128.959 415.246V406.391L133.111 396.46L158.048 377.757L149.038 376.086L126.215 394.419L121.352 404.52Z" fill="#7A919B"/>
<path d="M133.084 411.757L128.969 415.249L128.969 406.394L133.12 396.461L158.057 377.758V384.771L136.077 401.031L133.084 406.394V411.757Z" fill="#5F747E"/>
<path d="M178.344 427.097V435.702L185.951 437.822V428.967L190.316 419.489L214.76 400.533L206.03 398.662L183.208 416.995L178.344 427.097Z" fill="#7A919B"/>
<path d="M190.068 434.33L185.952 437.822L185.578 428.968L190.068 418.991L214.511 400.533L214.546 407.37L193.061 423.605L190.068 428.968V434.33Z" fill="#5F747E"/>
<path d="M239.961 449.044V457.649L247.568 459.769V450.915L251.933 441.436L276.377 422.48L267.647 420.609L244.825 438.942L239.961 449.044Z" fill="#7A919B"/>
<path d="M251.677 456.278L247.562 459.77L247.188 450.915L251.677 440.938L276.121 422.48V429.09L254.67 445.552L251.677 450.915V456.278Z" fill="#5F747E"/>
<g filter="url(#filter19_i_487_79916)">
<path d="M134.669 400.358L157.268 383.994L214.545 406.593L276.498 428.896L270.654 433.478L254.289 445.556L251.951 450.622V456.077L247.275 459.584L239.872 457.635L183.968 437.838L127.859 415.163L132.331 411.268L131.941 405.423L134.669 400.358Z" fill="#8992A1" fill-opacity="0.32"/>
</g>
<path d="M128.825 415.163L121.422 413.215V404.643L126.098 394.512L149.086 376.199L158.048 377.758M128.825 415.163L133.111 411.657V406.202L135.839 401.136L158.048 384.771V377.758M128.825 415.163V406.591L133.111 396.461L158.048 377.758" stroke="#1B282F" stroke-width="0.779284"/>
<path d="M185.716 437.763L178.312 435.815V427.243L182.988 417.112L205.977 398.799L214.939 400.357M185.716 437.763L190.002 434.256V428.801L192.729 423.736L214.939 407.371V400.357M185.716 437.763V429.191L190.002 419.06L214.939 400.357" stroke="#1B282F" stroke-width="0.779284"/>
<path d="M247.278 459.581L239.875 457.633V449.061L244.551 438.93L267.54 420.617L276.501 422.176M247.278 459.581L251.564 456.075V450.62L254.292 445.554L276.501 429.189V422.176M247.278 459.581V451.009L251.564 440.879L276.501 422.176" stroke="#1B282F" stroke-width="0.779284"/>
<path d="M151.033 607.257L176.36 602.192L239.482 557.772L294.421 508.933L295.201 459.058L270.264 472.051L241.43 466.207L209.869 559.331L172.074 597.906L151.033 607.257ZM151.033 607.257L27.9062 555.045V536.732L77.0012 497.378L108.173 398.409M108.173 398.409L136.227 375.42M108.173 398.409V417.891L118.693 422.177" stroke="#3B4353" stroke-width="1.55857"/>
<path d="M608.718 607.98C604.017 607.98 599.723 609.154 596.58 611.092C593.449 613.022 591.352 615.792 591.352 618.986C591.352 622.181 593.449 624.951 596.58 626.881C599.723 628.819 604.017 629.992 608.718 629.992C613.419 629.992 617.712 628.819 620.855 626.881C623.986 624.951 626.084 622.181 626.084 618.986C626.084 615.792 623.986 613.022 620.855 611.092C617.712 609.154 613.419 607.98 608.718 607.98Z" fill="#4A5C65" stroke="#1B282F" stroke-width="1.55857"/>
<g filter="url(#filter20_i_487_79916)">
<path d="M615.078 614.873V597.912V593.609V581.574H602.357V594.045V598.785V614.873C602.357 618.385 605.205 621.233 608.718 621.233C612.23 621.233 615.078 618.385 615.078 614.873Z" fill="#5F747E"/>
</g>
<path d="M601.578 580.795V614.872C601.578 618.815 604.775 622.012 608.718 622.012C612.661 622.012 615.857 618.815 615.857 614.872V580.795H601.578Z" stroke="#1B282F" stroke-width="1.55857"/>
<path d="M727.483 560.443C722.782 560.443 718.489 561.617 715.346 563.555C712.215 565.485 710.117 568.255 710.117 571.449C710.117 574.644 712.215 577.413 715.346 579.344C718.489 581.282 722.782 582.455 727.483 582.455C732.184 582.455 736.478 581.282 739.621 579.344C742.752 577.413 744.85 574.644 744.85 571.449C744.85 568.254 742.752 565.485 739.621 563.555C736.478 561.617 732.184 560.443 727.483 560.443Z" fill="#4A5C65" stroke="#1B282F" stroke-width="1.55857"/>
<g filter="url(#filter21_i_487_79916)">
<path d="M733.156 567.546V554.992V551.526V541.83H720.688V551.877V555.695V567.546C720.688 570.99 723.479 573.781 726.922 573.781C730.365 573.781 733.156 570.99 733.156 567.546Z" fill="#5F747E"/>
</g>
<path d="M719.908 541.051V567.547C719.908 571.42 723.049 574.56 726.922 574.56C730.795 574.56 733.935 571.42 733.936 567.547V541.051H719.908Z" stroke="#1B282F" stroke-width="1.55857"/>
<path d="M603.414 352.432L467.428 413.711L522.676 464.718L553.979 557.754L587.515 600.277L612.832 605.141L735.969 553.15V534.818L686.874 495.464L655.745 396.625L603.414 352.432Z" fill="#EFF5FF"/>
<g filter="url(#filter22_i_487_79916)">
<path d="M672.062 498.58L645.177 419.482L531.791 461.174L558.287 544.558L672.062 498.58Z" fill="#2DC8FF"/>
</g>
<path d="M532.76 461.647L558.775 543.52L671.088 498.133L644.697 420.489L532.76 461.647Z" stroke="#004F6B" stroke-width="1.55857"/>
<mask id="mask1_487_79916" style="mask-type:alpha" maskUnits="userSpaceOnUse" x="531" y="419" width="142" height="126">
<path d="M672.062 498.581L647.905 419.873L531.791 461.175L558.287 544.559L672.062 498.581Z" fill="#4E4E4E"/>
</mask>
<g mask="url(#mask1_487_79916)">
<path d="M661.195 449.506L638.526 459.071L625.508 444.748L558.639 471.644L559.149 491.222L541.015 497.889" stroke="#004F6B" stroke-opacity="0.58" stroke-width="1.49655"/>
<path d="M652.716 432.537L632.271 441.538L619.253 427.215L552.385 454.111L552.895 473.69L534.76 480.356" stroke="#004F6B" stroke-opacity="0.58" stroke-width="1.49655"/>
<path d="M667.53 465.392L645.009 475.585L631.991 461.262L565.122 488.158L565.632 507.737L547.498 514.403" stroke="#004F6B" stroke-opacity="0.58" stroke-width="1.49655"/>
<path d="M673.781 482.545L652.033 492.086L639.015 477.763L572.146 504.659L572.657 524.238L554.522 530.904" stroke="#004F6B" stroke-opacity="0.58" stroke-width="1.49655"/>
<path d="M678.693 499.359L658.248 508.361L645.23 494.038L578.361 520.933L578.871 540.512L560.737 547.178" stroke="#004F6B" stroke-opacity="0.58" stroke-width="1.49655"/>
</g>
<path d="M655.615 415.586V396.5L686.868 495.463L699.727 505.983L688.037 511.049L677.907 503.645L672.062 498.58L645.177 419.483L655.615 415.586Z" fill="#EFF5FF"/>
<g filter="url(#filter23_i_487_79916)">
<path d="M721.547 536.376L677.48 503.168L562.183 550.403L601.581 589.476L615.175 592.095L721.547 545.729V536.376Z" fill="#B8BEC4"/>
</g>
<path d="M677.259 502.627L561.962 549.862L561.146 550.196L561.771 550.818L601.169 589.891L601.296 590.016L601.471 590.05L615.064 592.669L615.242 592.703L615.408 592.631L721.78 546.265L722.131 546.112V536.084L721.898 535.909L677.832 502.701L677.566 502.501L677.259 502.627Z" stroke="#3B4353" stroke-width="1.16893"/>
<path d="M554.006 557.805L523.224 464.68L508.418 447.926L467.895 455.719L469.299 505.624L524.422 555.883L539.59 566.767L587.516 600.276L572.709 580.794L554.006 557.805Z" fill="#EFF5FF"/>
<path d="M493.493 470.204L468.301 456.889L469.174 506.949L524.422 555.882L493.493 470.204Z" fill="#9FA7AF"/>
<path d="M553.973 557.381L591.858 595.739L612.836 605.159L587.509 600.276L539.583 566.767L524.416 555.885L493.487 470.207L522.545 464.221L553.973 557.381Z" fill="#B8BEC4"/>
<path d="M625.344 397.998L515.347 438.654" stroke="#3B4353" stroke-width="1.24713"/>
<path d="M622.352 394.131L512.355 434.787" stroke="#3B4353" stroke-width="1.24713"/>
<path d="M617.609 390.885L507.613 431.541" stroke="#3B4353" stroke-width="1.24713"/>
<path d="M613.867 386.898L503.871 427.555" stroke="#3B4353" stroke-width="1.24713"/>
<path d="M610.383 383.406L498.64 425.06" stroke="#3B4353" stroke-width="1.24713"/>
<path d="M638.938 400.737V409.342L631.33 411.463V402.608L627.178 392.677L602.241 373.974L611.251 372.303L634.074 390.636L638.938 400.737Z" fill="#7A919B"/>
<path d="M627.213 407.973L631.328 411.465L631.328 402.611L627.176 392.677L602.239 373.975V380.988L624.22 397.248L627.213 402.611V407.973Z" fill="#5F747E"/>
<path d="M581.945 423.311V431.917L574.338 434.037V425.182L569.973 415.704L545.529 396.748L554.259 394.877L577.082 413.21L581.945 423.311Z" fill="#7A919B"/>
<path d="M570.229 430.547L574.345 434.039L574.719 425.184L570.229 415.207L545.785 396.75V403.36L567.236 419.822L570.229 425.184V430.547Z" fill="#5F747E"/>
<path d="M520.336 445.261V453.866L512.728 455.986V447.131L508.364 437.653L483.92 418.697L492.65 416.826L515.472 435.159L520.336 445.261Z" fill="#7A919B"/>
<path d="M508.612 452.494L512.727 455.986L513.102 447.132L508.612 437.155L484.168 418.697V425.307L505.619 441.769L508.612 447.132V452.494Z" fill="#5F747E"/>
<g filter="url(#filter24_i_487_79916)">
<path d="M624.837 397.351L602.238 380.986L544.96 403.586L483.787 425.11L489.631 429.692L505.996 441.77L508.334 446.836V452.291L513.01 455.798L520.413 453.849L575.352 434.052L631.461 411.377L627.175 407.872V402.417L624.837 397.351Z" fill="#8992A1" fill-opacity="0.32"/>
</g>
<path d="M631.464 411.38L638.867 409.432V400.86L634.191 390.729L611.203 372.416L602.241 373.975M631.464 411.38L627.178 407.873V402.418L624.45 397.353L602.241 380.988V373.975M631.464 411.38V402.808L627.178 392.677L602.241 373.975" stroke="#1B282F" stroke-width="0.779284"/>
<path d="M574.573 433.978L581.977 432.03V423.458L577.301 413.327L554.312 395.014L545.35 396.572M574.573 433.978L570.287 430.471V425.016L567.56 419.951L545.35 403.586V396.572M574.573 433.978V425.406L570.287 415.275L545.35 396.572" stroke="#1B282F" stroke-width="0.779284"/>
<path d="M513.011 455.798L520.414 453.85V445.278L515.738 435.147L492.749 416.834L483.788 418.393M513.011 455.798L508.725 452.291V446.836L505.997 441.771L483.788 425.406V418.393M513.011 455.798V447.226L508.725 437.095L483.788 418.393" stroke="#1B282F" stroke-width="0.779284"/>
<path d="M612.842 605.342L587.515 600.277L524.393 555.858L469.454 507.542L468.674 457.668L493.611 470.136L522.445 464.292L554.006 557.416L591.801 595.991L612.842 605.342ZM612.842 605.342L735.969 553.13V534.817L686.874 495.463L655.702 396.494M655.702 396.494L626.792 372.303M655.702 396.494V415.943L645.105 419.839" stroke="#3B4353" stroke-width="1.55857"/>
<path d="M604.112 358.509L631.798 296.402L628.93 294.282L601.119 354.518L499.353 410.514L362.668 427.849L231.595 403.281L147.289 345.539L132.573 275.824L130.453 279.441L144.67 349.031L229.475 407.77L362.668 433.212L500.6 415.502L604.112 358.509Z" fill="#555F71" fill-opacity="0.66"/>
<g filter="url(#filter25_i_487_79916)">
<path d="M481.65 187.646C451.681 177.861 389.292 175.912 389.292 175.912C366.908 175.704 334.882 175.91 290.247 189.192C253.424 200.149 235.106 215.151 225.802 224.521C212.295 238.059 159.089 298.398 284.327 341.852C394.744 369.184 465.621 346.749 507.634 324.961C550.636 302.661 568.013 269.001 557.415 243.345C547.172 218.549 521.14 200.539 481.65 187.646Z" fill="#5F747E"/>
</g>
<g filter="url(#filter26_d_487_79916)">
<ellipse cx="98.6907" cy="96.7985" rx="98.6907" ry="96.7985" transform="matrix(0.866025 -0.5 0.866025 0.5 214.008 259.66)" fill="#93B2BF"/>
</g>
<path d="M205.215 259.14L205.049 259.901L206.571 260.234L206.738 259.473L205.977 259.306L205.215 259.14ZM249.616 212.549L249.228 211.874L249.616 212.549ZM390.277 182.154L390.277 181.375L390.277 182.154ZM559.424 257.611C559.564 258.018 560.007 258.235 560.414 258.095C560.821 257.956 561.038 257.513 560.898 257.106L560.161 257.358L559.424 257.611ZM205.977 259.306L206.738 259.473C207.391 256.487 209.118 252.838 211.707 248.83C214.29 244.833 217.701 240.524 221.677 236.224C229.63 227.622 239.798 219.102 250.005 213.225L249.616 212.549L249.228 211.874C238.862 217.842 228.574 226.468 220.532 235.166C216.51 239.517 213.039 243.897 210.398 247.985C207.764 252.062 205.926 255.893 205.215 259.14L205.977 259.306ZM249.616 212.549L250.005 213.225C275.588 198.496 319.869 182.931 390.277 182.934L390.277 182.154L390.277 181.375C319.635 181.372 275.078 196.99 249.228 211.874L249.616 212.549ZM390.277 182.154L390.277 182.934C427.427 182.935 465.119 188.092 495.832 200.028C526.55 211.966 550.176 230.639 559.424 257.611L560.161 257.358L560.898 257.106C551.443 229.528 527.339 210.6 496.396 198.575C465.447 186.547 427.549 181.377 390.277 181.375L390.277 182.154Z" fill="#1B282F"/>
<path d="M384.434 189.952C415.044 189.78 445.495 196.389 468.551 209.77C492.54 223.693 504.52 242.305 503.273 260.421L503.27 260.475L503.273 260.528C504.563 279.067 491.993 298.004 466.908 312.563C443.394 326.211 412.711 333.162 382.102 333.334C351.492 333.506 321.04 326.899 297.984 313.518C273.993 299.593 261.626 281.289 262.859 263.193L262.863 263.138L262.859 263.082C261.455 244.476 274.428 225.348 299.627 210.723C323.141 197.075 353.825 190.124 384.434 189.952Z" stroke="#1B282F" stroke-width="1.55857"/>
<path d="M393.196 156.201L497.456 169.421L497.581 169.437L497.694 169.491L589.233 213.266L589.439 213.364L589.561 213.559L633.708 285.02L633.929 285.375L633.753 285.755L601.702 355.22L601.595 355.453L601.37 355.576L500.228 411.198L500.098 411.27L499.951 411.288L362.393 428.873L362.271 428.889L362.15 428.866L230.952 404.173L230.806 404.146L230.68 404.065C216.883 395.326 195.887 380.974 178.351 368.815C169.58 362.735 161.671 357.199 155.955 353.185C153.097 351.177 150.787 349.549 149.191 348.424C148.394 347.861 147.774 347.424 147.354 347.127C147.145 346.979 146.984 346.866 146.877 346.79C146.823 346.752 146.783 346.722 146.756 346.703C146.742 346.693 146.731 346.686 146.725 346.682C146.721 346.679 146.718 346.678 146.717 346.677L146.715 346.675L146.469 346.501L146.404 346.207L147.165 346.038L146.403 346.206V346.204C146.403 346.202 146.402 346.198 146.401 346.194C146.4 346.186 146.396 346.174 146.393 346.157C146.385 346.124 146.375 346.075 146.36 346.01C146.332 345.88 146.289 345.688 146.233 345.437C146.122 344.934 145.958 344.195 145.751 343.256C145.336 341.377 144.745 338.69 144.036 335.461C142.619 329.002 140.736 320.372 138.873 311.688C137.01 303.004 135.166 294.262 133.826 287.581C133.157 284.242 132.612 281.411 132.254 279.358C132.075 278.333 131.941 277.493 131.861 276.878C131.822 276.572 131.794 276.308 131.782 276.101C131.776 275.998 131.773 275.896 131.776 275.803C131.779 275.731 131.787 275.585 131.84 275.438L131.903 275.294C131.926 275.25 131.948 275.211 131.965 275.182C132.007 275.11 132.059 275.029 132.117 274.942C132.233 274.768 132.391 274.545 132.584 274.279C132.971 273.747 133.517 273.023 134.199 272.136C135.564 270.36 137.486 267.916 139.791 265.019C144.402 259.222 150.559 251.6 156.897 243.857C163.236 236.115 169.76 228.251 175.105 221.969C180.427 215.716 184.635 210.965 186.313 209.513C186.707 209.172 187.425 208.729 188.354 208.213C189.303 207.686 190.533 207.05 191.997 206.324C194.927 204.873 198.823 203.049 203.343 200.99C212.385 196.872 223.952 191.803 235.352 186.876C246.752 181.949 257.991 177.162 266.379 173.607C270.573 171.83 274.054 170.36 276.487 169.335C277.704 168.822 278.659 168.421 279.31 168.147C279.635 168.011 279.884 167.906 280.052 167.836C280.135 167.801 280.199 167.774 280.241 167.756C280.263 167.747 280.279 167.74 280.29 167.735C280.295 167.733 280.299 167.732 280.302 167.73C280.303 167.73 280.304 167.73 280.305 167.729C280.305 167.729 280.306 167.729 280.481 168.147L280.306 167.729L280.413 167.684L280.528 167.672L393.02 156.199L393.107 156.19L393.196 156.201ZM389.266 176.996C366.917 176.789 334.984 176.997 290.467 190.207C253.776 201.094 235.57 215.984 226.352 225.24L226.351 225.241C222.995 228.595 217.187 234.835 212.303 242.975C207.417 251.117 203.485 261.109 203.812 271.981C204.461 293.614 222.034 319.31 284.553 340.947C394.747 368.138 465.419 345.803 507.274 324.158C528.678 313.089 543.646 299.23 551.949 285.018C560.249 270.811 561.88 256.28 556.693 243.76C546.584 219.354 520.829 201.495 481.407 188.659C466.516 183.811 443.508 180.89 424.162 179.185C414.502 178.333 405.776 177.786 399.465 177.452C396.31 177.285 393.759 177.171 391.997 177.099C391.116 177.063 390.433 177.037 389.97 177.021C389.738 177.012 389.562 177.006 389.443 177.002C389.384 177 389.339 176.999 389.31 176.998C389.295 176.998 389.284 176.997 389.276 176.997H389.266V176.996Z" fill="#5F747E" stroke="#1B282F" stroke-width="1.55857"/>
<mask id="mask2_487_79916" style="mask-type:alpha" maskUnits="userSpaceOnUse" x="132" y="156" width="502" height="273">
<path fill-rule="evenodd" clip-rule="evenodd" d="M231.096 403.409L362.294 428.102L499.852 410.517L600.994 354.896L633.045 285.431L588.897 213.97L497.358 170.196L393.098 156.977L280.607 168.45C280.607 168.45 192.011 205.614 186.823 210.104C180.338 215.716 133.197 273.956 132.573 275.702C131.95 277.448 147.165 346.04 147.165 346.04C147.165 346.04 203.535 385.949 231.096 403.409ZM481.648 187.92C451.679 178.162 389.29 176.22 389.29 176.22C366.906 176.012 334.88 176.217 290.245 189.462C253.422 200.389 235.104 215.349 225.8 224.692C212.293 238.192 159.087 298.363 284.325 341.696C394.742 368.951 465.619 346.579 507.632 324.852C550.634 302.614 568.011 269.048 557.413 243.464C547.17 218.737 521.138 200.778 481.648 187.92Z" fill="#5F747E"/>
</mask>
<g mask="url(#mask2_487_79916)">
<path fill-rule="evenodd" clip-rule="evenodd" d="M231.252 373.102L362.45 397.795L500.008 380.21L601.15 324.588L633.201 255.123L589.053 183.663L497.514 139.889L395.873 127.293L280.763 138.142C280.763 138.142 192.167 175.307 186.979 179.796C180.494 185.408 133.353 243.649 132.729 245.395C132.106 247.141 147.667 316.607 147.667 316.607C147.667 316.607 203.691 355.642 231.252 373.102Z" fill="#7A919B"/>
<path d="M137.398 268.658C137.398 269.282 144.412 301.128 147.919 316.974L231.302 373.082L362.612 397.63L499.376 380.485L601.073 325.156L625.62 272.165" stroke="#1B282F" stroke-width="1.55857"/>
</g>
<path d="M380.128 251.508L372.521 327.583V331.324L368.031 354.022L362.544 398.17L362.219 428.411" stroke="#1B282F" stroke-width="1.16893"/>
<path d="M380.383 251.508L444.61 317.231V321.596L464.689 342.423L499.483 380.96V411.267" stroke="#1B282F" stroke-width="1.16893"/>
<path d="M379.258 250.758L492.497 285.927L493.37 289.918L535.149 305.881L600.872 325.087V355.547" stroke="#1B282F" stroke-width="1.16893"/>
<path d="M379.508 250.383L491.583 228.914L493.531 230.472L534.65 220.452L536.895 216.462L588.994 213.328" stroke="#1B282F" stroke-width="1.16893"/>
<path d="M379.508 250.637L502.973 257.371L503.272 262.813L560.092 263.732L626.01 272.944L633.803 285.412" stroke="#1B282F" stroke-width="1.16893"/>
<path d="M378.883 251.008L450.28 201.25L453.212 201.622L473.166 191.395V185.534L497.426 169.689" stroke="#1B282F" stroke-width="1.16893"/>
<path d="M380.5 250.012L387.858 189.526L390.851 182.293V176.432L392.998 156.441" stroke="#1B282F" stroke-width="1.16893"/>
<path d="M380.257 251.01L306.802 312.743V315.985L276.746 338.683L272.256 337.062L231.226 372.729L230.914 403.862" stroke="#1B282F" stroke-width="1.16893"/>
<path d="M380.131 250.758L272.13 285.677V288.795L217.257 303.761L213.64 299.52L147.919 316.973L146.75 346.196" stroke="#1B282F" stroke-width="1.16893"/>
<path d="M380.007 250.385L264.399 252.505L263.152 257.992L206.158 259.738L204.911 257.992L137.192 269.84L131.555 275.672" stroke="#1B282F" stroke-width="1.16893"/>
<path d="M380.008 249.887L281.36 223.697L278.491 226.316L244.071 215.965L240.579 212.349L186.578 209.355" stroke="#1B282F" stroke-width="1.16893"/>
<path d="M380.507 249.636L325.597 199.3L323.014 199.626L308.548 190.646L307.675 184.104L280.398 167.447" stroke="#1B282F" stroke-width="1.16893"/>
<path d="M184.636 144.435L184.432 144.61L167.778 158.884L166.814 159.711V151.978L167.028 151.803L183.681 138.163L184.636 137.381V144.435Z" fill="#EFF5FF" stroke="#555F71" stroke-width="1.16893"/>
<path d="M172.615 193.636V200.083L187.623 211.854V188.045L172.615 193.636ZM172.615 188.749L187.623 183.305V176.871L172.615 165.689V188.749ZM176.897 160.438L194.76 174.854L194.978 175.03V245.806C194.978 248.449 192.834 250.593 190.19 250.593C187.546 250.593 185.402 248.45 185.402 245.806V221.234L165.442 202.219L165.261 202.046V97.2588L163.103 92.9424L163.041 92.8184V83.0566H176.897V92.8145L176.839 92.9346L174.677 97.4141V145.542L176.693 147.27L176.897 147.445V160.438Z" fill="#EFF5FF" stroke="#555F71" stroke-width="1.16893"/>
<g filter="url(#filter27_i_487_79916)">
<circle cx="206.097" cy="131.321" r="25.5341" fill="#EFF5FF"/>
</g>
<circle cx="206.097" cy="131.321" r="26.1186" stroke="#555F71" stroke-width="1.16893"/>
<g filter="url(#filter28_i_487_79916)">
<ellipse cx="170.517" cy="74.2254" rx="24.1578" ry="10.5203" fill="#EFF5FF"/>
</g>
<path d="M170.518 63.1211C177.249 63.1211 183.372 64.3082 187.833 66.251C190.063 67.222 191.904 68.3934 193.196 69.7236C194.491 71.0566 195.26 72.5789 195.26 74.2256C195.26 75.8723 194.491 77.3946 193.196 78.7275C191.904 80.0578 190.063 81.2292 187.833 82.2002C183.372 84.143 177.249 85.33 170.518 85.3301C163.786 85.3301 157.663 84.1429 153.202 82.2002C150.972 81.2292 149.131 80.0578 147.839 78.7275C146.544 77.3945 145.775 75.8724 145.775 74.2256C145.775 72.5787 146.544 71.0567 147.839 69.7236C149.131 68.3933 150.972 67.222 153.202 66.251C157.663 64.3082 163.786 63.1211 170.518 63.1211Z" stroke="#555F71" stroke-width="1.16893"/>
<path d="M159.172 74.4901V0.583984" stroke="#555F71" stroke-width="1.16893" stroke-linecap="round"/>
<path d="M181.375 74.4914L181.375 37.0625" stroke="#555F71" stroke-width="1.16893" stroke-linecap="round"/>
<path d="M165.516 74.4933L165.516 18.9844" stroke="#555F71" stroke-width="1.16893" stroke-linecap="round"/>
<path d="M174.398 74.4896L174.398 7.87891" stroke="#555F71" stroke-width="1.16893" stroke-linecap="round"/>
<defs>
<filter id="filter0_i_487_79916" x="572.914" y="604.141" width="72.7266" height="37.2833" filterUnits="userSpaceOnUse" color-interpolation-filters="sRGB">
<feFlood flood-opacity="0" result="BackgroundImageFix"/>
<feBlend mode="normal" in="SourceGraphic" in2="BackgroundImageFix" result="shape"/>
<feColorMatrix in="SourceAlpha" type="matrix" values="0 0 0 0 0 0 0 0 0 0 0 0 0 0 0 0 0 0 127 0" result="hardAlpha"/>
<feOffset dy="7.79284"/>
<feGaussianBlur stdDeviation="3.46781"/>
<feComposite in2="hardAlpha" operator="arithmetic" k2="-1" k3="1"/>
<feColorMatrix type="matrix" values="0 0 0 0 0 0 0 0 0 0 0 0 0 0 0 0 0 0 1 0"/>
<feBlend mode="normal" in2="shape" result="effect1_innerShadow_487_79916"/>
</filter>
<filter id="filter1_i_487_79916" x="343.664" y="524.225" width="72.7266" height="37.2833" filterUnits="userSpaceOnUse" color-interpolation-filters="sRGB">
<feFlood flood-opacity="0" result="BackgroundImageFix"/>
<feBlend mode="normal" in="SourceGraphic" in2="BackgroundImageFix" result="shape"/>
<feColorMatrix in="SourceAlpha" type="matrix" values="0 0 0 0 0 0 0 0 0 0 0 0 0 0 0 0 0 0 127 0" result="hardAlpha"/>
<feOffset dy="7.79284"/>
<feGaussianBlur stdDeviation="3.46781"/>
<feComposite in2="hardAlpha" operator="arithmetic" k2="-1" k3="1"/>
<feColorMatrix type="matrix" values="0 0 0 0 0 0 0 0 0 0 0 0 0 0 0 0 0 0 1 0"/>
<feBlend mode="normal" in2="shape" result="effect1_innerShadow_487_79916"/>
</filter>
<filter id="filter2_i_487_79916" x="118.453" y="606.828" width="72.7266" height="37.2833" filterUnits="userSpaceOnUse" color-interpolation-filters="sRGB">
<feFlood flood-opacity="0" result="BackgroundImageFix"/>
<feBlend mode="normal" in="SourceGraphic" in2="BackgroundImageFix" result="shape"/>
<feColorMatrix in="SourceAlpha" type="matrix" values="0 0 0 0 0 0 0 0 0 0 0 0 0 0 0 0 0 0 127 0" result="hardAlpha"/>
<feOffset dy="7.79284"/>
<feGaussianBlur stdDeviation="3.46781"/>
<feComposite in2="hardAlpha" operator="arithmetic" k2="-1" k3="1"/>
<feColorMatrix type="matrix" values="0 0 0 0 0 0 0 0 0 0 0 0 0 0 0 0 0 0 1 0"/>
<feBlend mode="normal" in2="shape" result="effect1_innerShadow_487_79916"/>
</filter>
<filter id="filter3_i_487_79916" x="0" y="560.07" width="72.7266" height="37.2852" filterUnits="userSpaceOnUse" color-interpolation-filters="sRGB">
<feFlood flood-opacity="0" result="BackgroundImageFix"/>
<feBlend mode="normal" in="SourceGraphic" in2="BackgroundImageFix" result="shape"/>
<feColorMatrix in="SourceAlpha" type="matrix" values="0 0 0 0 0 0 0 0 0 0 0 0 0 0 0 0 0 0 127 0" result="hardAlpha"/>
<feOffset dy="7.79284"/>
<feGaussianBlur stdDeviation="3.46781"/>
<feComposite in2="hardAlpha" operator="arithmetic" k2="-1" k3="1"/>
<feColorMatrix type="matrix" values="0 0 0 0 0 0 0 0 0 0 0 0 0 0 0 0 0 0 1 0"/>
<feBlend mode="normal" in2="shape" result="effect1_innerShadow_487_79916"/>
</filter>
<filter id="filter4_i_487_79916" x="77.9297" y="360.574" width="72.7266" height="37.2833" filterUnits="userSpaceOnUse" color-interpolation-filters="sRGB">
<feFlood flood-opacity="0" result="BackgroundImageFix"/>
<feBlend mode="normal" in="SourceGraphic" in2="BackgroundImageFix" result="shape"/>
<feColorMatrix in="SourceAlpha" type="matrix" values="0 0 0 0 0 0 0 0 0 0 0 0 0 0 0 0 0 0 127 0" result="hardAlpha"/>
<feOffset dy="7.79284"/>
<feGaussianBlur stdDeviation="3.46781"/>
<feComposite in2="hardAlpha" operator="arithmetic" k2="-1" k3="1"/>
<feColorMatrix type="matrix" values="0 0 0 0 0 0 0 0 0 0 0 0 0 0 0 0 0 0 1 0"/>
<feBlend mode="normal" in2="shape" result="effect1_innerShadow_487_79916"/>
</filter>
<filter id="filter5_i_487_79916" x="607.844" y="372.264" width="72.7266" height="37.2833" filterUnits="userSpaceOnUse" color-interpolation-filters="sRGB">
<feFlood flood-opacity="0" result="BackgroundImageFix"/>
<feBlend mode="normal" in="SourceGraphic" in2="BackgroundImageFix" result="shape"/>
<feColorMatrix in="SourceAlpha" type="matrix" values="0 0 0 0 0 0 0 0 0 0 0 0 0 0 0 0 0 0 127 0" result="hardAlpha"/>
<feOffset dy="7.79284"/>
<feGaussianBlur stdDeviation="3.46781"/>
<feComposite in2="hardAlpha" operator="arithmetic" k2="-1" k3="1"/>
<feColorMatrix type="matrix" values="0 0 0 0 0 0 0 0 0 0 0 0 0 0 0 0 0 0 1 0"/>
<feBlend mode="normal" in2="shape" result="effect1_innerShadow_487_79916"/>
</filter>
<filter id="filter6_i_487_79916" x="690.445" y="558.512" width="72.7266" height="37.2852" filterUnits="userSpaceOnUse" color-interpolation-filters="sRGB">
<feFlood flood-opacity="0" result="BackgroundImageFix"/>
<feBlend mode="normal" in="SourceGraphic" in2="BackgroundImageFix" result="shape"/>
<feColorMatrix in="SourceAlpha" type="matrix" values="0 0 0 0 0 0 0 0 0 0 0 0 0 0 0 0 0 0 127 0" result="hardAlpha"/>
<feOffset dy="7.79284"/>
<feGaussianBlur stdDeviation="3.46781"/>
<feComposite in2="hardAlpha" operator="arithmetic" k2="-1" k3="1"/>
<feColorMatrix type="matrix" values="0 0 0 0 0 0 0 0 0 0 0 0 0 0 0 0 0 0 1 0"/>
<feBlend mode="normal" in2="shape" result="effect1_innerShadow_487_79916"/>
</filter>
<filter id="filter7_i_487_79916" x="372.453" y="496.5" width="18.9531" height="45.8925" filterUnits="userSpaceOnUse" color-interpolation-filters="sRGB">
<feFlood flood-opacity="0" result="BackgroundImageFix"/>
<feBlend mode="normal" in="SourceGraphic" in2="BackgroundImageFix" result="shape"/>
<feColorMatrix in="SourceAlpha" type="matrix" values="0 0 0 0 0 0 0 0 0 0 0 0 0 0 0 0 0 0 127 0" result="hardAlpha"/>
<feOffset dx="7.01356" dy="-3.89642"/>
<feGaussianBlur stdDeviation="1.55857"/>
<feComposite in2="hardAlpha" operator="arithmetic" k2="-1" k3="1"/>
<feColorMatrix type="matrix" values="0 0 0 0 0 0 0 0 0 0 0 0 0 0 0 0 0 0 0.25 0"/>
<feBlend mode="normal" in2="shape" result="effect1_innerShadow_487_79916"/>
</filter>
<filter id="filter8_i_487_79916" x="204.977" y="470.313" width="18.9531" height="45.8925" filterUnits="userSpaceOnUse" color-interpolation-filters="sRGB">
<feFlood flood-opacity="0" result="BackgroundImageFix"/>
<feBlend mode="normal" in="SourceGraphic" in2="BackgroundImageFix" result="shape"/>
<feColorMatrix in="SourceAlpha" type="matrix" values="0 0 0 0 0 0 0 0 0 0 0 0 0 0 0 0 0 0 127 0" result="hardAlpha"/>
<feOffset dx="7.79284" dy="-4.6757"/>
<feGaussianBlur stdDeviation="1.55857"/>
<feComposite in2="hardAlpha" operator="arithmetic" k2="-1" k3="1"/>
<feColorMatrix type="matrix" values="0 0 0 0 0 0 0 0 0 0 0 0 0 0 0 0 0 0 0.25 0"/>
<feBlend mode="normal" in2="shape" result="effect1_innerShadow_487_79916"/>
</filter>
<filter id="filter9_i_487_79916" x="124.664" y="398.475" width="18.9531" height="45.8925" filterUnits="userSpaceOnUse" color-interpolation-filters="sRGB">
<feFlood flood-opacity="0" result="BackgroundImageFix"/>
<feBlend mode="normal" in="SourceGraphic" in2="BackgroundImageFix" result="shape"/>
<feColorMatrix in="SourceAlpha" type="matrix" values="0 0 0 0 0 0 0 0 0 0 0 0 0 0 0 0 0 0 127 0" result="hardAlpha"/>
<feOffset dx="8.57213" dy="-4.6757"/>
<feGaussianBlur stdDeviation="1.55857"/>
<feComposite in2="hardAlpha" operator="arithmetic" k2="-1" k3="1"/>
<feColorMatrix type="matrix" values="0 0 0 0 0 0 0 0 0 0 0 0 0 0 0 0 0 0 0.25 0"/>
<feBlend mode="normal" in2="shape" result="effect1_innerShadow_487_79916"/>
</filter>
<filter id="filter10_i_487_79916" x="110.609" y="336.455" width="18.9531" height="45.8925" filterUnits="userSpaceOnUse" color-interpolation-filters="sRGB">
<feFlood flood-opacity="0" result="BackgroundImageFix"/>
<feBlend mode="normal" in="SourceGraphic" in2="BackgroundImageFix" result="shape"/>
<feColorMatrix in="SourceAlpha" type="matrix" values="0 0 0 0 0 0 0 0 0 0 0 0 0 0 0 0 0 0 127 0" result="hardAlpha"/>
<feOffset dx="6.23427" dy="3.11714"/>
<feGaussianBlur stdDeviation="1.55857"/>
<feComposite in2="hardAlpha" operator="arithmetic" k2="-1" k3="1"/>
<feColorMatrix type="matrix" values="0 0 0 0 0 0 0 0 0 0 0 0 0 0 0 0 0 0 0.25 0"/>
<feBlend mode="normal" in2="shape" result="effect1_innerShadow_487_79916"/>
</filter>
<filter id="filter11_i_487_79916" x="502.297" y="475.657" width="19.3427" height="46.2822" filterUnits="userSpaceOnUse" color-interpolation-filters="sRGB">
<feFlood flood-opacity="0" result="BackgroundImageFix"/>
<feBlend mode="normal" in="SourceGraphic" in2="BackgroundImageFix" result="shape"/>
<feColorMatrix in="SourceAlpha" type="matrix" values="0 0 0 0 0 0 0 0 0 0 0 0 0 0 0 0 0 0 127 0" result="hardAlpha"/>
<feOffset dx="7.01356" dy="-4.6757"/>
<feGaussianBlur stdDeviation="1.75339"/>
<feComposite in2="hardAlpha" operator="arithmetic" k2="-1" k3="1"/>
<feColorMatrix type="matrix" values="0 0 0 0 0 0 0 0 0 0 0 0 0 0 0 0 0 0 0.25 0"/>
<feBlend mode="normal" in2="shape" result="effect1_innerShadow_487_79916"/>
</filter>
<filter id="filter12_i_487_79916" x="614.031" y="409.709" width="20.122" height="45.8925" filterUnits="userSpaceOnUse" color-interpolation-filters="sRGB">
<feFlood flood-opacity="0" result="BackgroundImageFix"/>
<feBlend mode="normal" in="SourceGraphic" in2="BackgroundImageFix" result="shape"/>
<feColorMatrix in="SourceAlpha" type="matrix" values="0 0 0 0 0 0 0 0 0 0 0 0 0 0 0 0 0 0 127 0" result="hardAlpha"/>
<feOffset dx="7.01356" dy="-3.11714"/>
<feGaussianBlur stdDeviation="2.14303"/>
<feComposite in2="hardAlpha" operator="arithmetic" k2="-1" k3="1"/>
<feColorMatrix type="matrix" values="0 0 0 0 0 0 0 0 0 0 0 0 0 0 0 0 0 0 0.25 0"/>
<feBlend mode="normal" in2="shape" result="effect1_innerShadow_487_79916"/>
</filter>
<filter id="filter13_i_487_79916" x="635.07" y="345.027" width="18.9531" height="45.8925" filterUnits="userSpaceOnUse" color-interpolation-filters="sRGB">
<feFlood flood-opacity="0" result="BackgroundImageFix"/>
<feBlend mode="normal" in="SourceGraphic" in2="BackgroundImageFix" result="shape"/>
<feColorMatrix in="SourceAlpha" type="matrix" values="0 0 0 0 0 0 0 0 0 0 0 0 0 0 0 0 0 0 127 0" result="hardAlpha"/>
<feOffset dx="10.91" dy="-3.11714"/>
<feGaussianBlur stdDeviation="1.55857"/>
<feComposite in2="hardAlpha" operator="arithmetic" k2="-1" k3="1"/>
<feColorMatrix type="matrix" values="0 0 0 0 0 0 0 0 0 0 0 0 0 0 0 0 0 0 0.25 0"/>
<feBlend mode="normal" in2="shape" result="effect1_innerShadow_487_79916"/>
</filter>
<filter id="filter14_i_487_79916" x="109.562" y="271.387" width="541.133" height="252.51" filterUnits="userSpaceOnUse" color-interpolation-filters="sRGB">
<feFlood flood-opacity="0" result="BackgroundImageFix"/>
<feBlend mode="normal" in="SourceGraphic" in2="BackgroundImageFix" result="shape"/>
<feColorMatrix in="SourceAlpha" type="matrix" values="0 0 0 0 0 0 0 0 0 0 0 0 0 0 0 0 0 0 127 0" result="hardAlpha"/>
<feOffset dy="-51.3816"/>
<feComposite in2="hardAlpha" operator="arithmetic" k2="-1" k3="1"/>
<feColorMatrix type="matrix" values="0 0 0 0 0.721569 0 0 0 0 0.745098 0 0 0 0 0.768627 0 0 0 1 0"/>
<feBlend mode="normal" in2="shape" result="effect1_innerShadow_487_79916"/>
</filter>
<filter id="filter15_i_487_79916" x="147.242" y="578.813" width="18.9531" height="45.8925" filterUnits="userSpaceOnUse" color-interpolation-filters="sRGB">
<feFlood flood-opacity="0" result="BackgroundImageFix"/>
<feBlend mode="normal" in="SourceGraphic" in2="BackgroundImageFix" result="shape"/>
<feColorMatrix in="SourceAlpha" type="matrix" values="0 0 0 0 0 0 0 0 0 0 0 0 0 0 0 0 0 0 127 0" result="hardAlpha"/>
<feOffset dx="6.23427" dy="-4.6757"/>
<feGaussianBlur stdDeviation="1.55857"/>
<feComposite in2="hardAlpha" operator="arithmetic" k2="-1" k3="1"/>
<feColorMatrix type="matrix" values="0 0 0 0 0 0 0 0 0 0 0 0 0 0 0 0 0 0 0.25 0"/>
<feBlend mode="normal" in2="shape" result="effect1_innerShadow_487_79916"/>
</filter>
<filter id="filter16_i_487_79916" x="28.6875" y="539.068" width="18.6953" height="38.1855" filterUnits="userSpaceOnUse" color-interpolation-filters="sRGB">
<feFlood flood-opacity="0" result="BackgroundImageFix"/>
<feBlend mode="normal" in="SourceGraphic" in2="BackgroundImageFix" result="shape"/>
<feColorMatrix in="SourceAlpha" type="matrix" values="0 0 0 0 0 0 0 0 0 0 0 0 0 0 0 0 0 0 127 0" result="hardAlpha"/>
<feOffset dx="7.79284" dy="-4.6757"/>
<feGaussianBlur stdDeviation="1.55857"/>
<feComposite in2="hardAlpha" operator="arithmetic" k2="-1" k3="1"/>
<feColorMatrix type="matrix" values="0 0 0 0 0 0 0 0 0 0 0 0 0 0 0 0 0 0 0.25 0"/>
<feBlend mode="normal" in2="shape" result="effect1_innerShadow_487_79916"/>
</filter>
<filter id="filter17_i_487_79916" x="91.8125" y="421.396" width="140.273" height="125.074" filterUnits="userSpaceOnUse" color-interpolation-filters="sRGB">
<feFlood flood-opacity="0" result="BackgroundImageFix"/>
<feBlend mode="normal" in="SourceGraphic" in2="BackgroundImageFix" result="shape"/>
<feColorMatrix in="SourceAlpha" type="matrix" values="0 0 0 0 0 0 0 0 0 0 0 0 0 0 0 0 0 0 127 0" result="hardAlpha"/>
<feOffset dx="5.45499" dy="10.1307"/>
<feComposite in2="hardAlpha" operator="arithmetic" k2="-1" k3="1"/>
<feColorMatrix type="matrix" values="0 0 0 0 0 0 0 0 0 0 0 0 0 0 0 0 0 0 0.25 0"/>
<feBlend mode="normal" in2="shape" result="effect1_innerShadow_487_79916"/>
</filter>
<filter id="filter18_i_487_79916" x="41.1562" y="503.748" width="162.609" height="91.4766" filterUnits="userSpaceOnUse" color-interpolation-filters="sRGB">
<feFlood flood-opacity="0" result="BackgroundImageFix"/>
<feBlend mode="normal" in="SourceGraphic" in2="BackgroundImageFix" result="shape"/>
<feColorMatrix in="SourceAlpha" type="matrix" values="0 0 0 0 0 0 0 0 0 0 0 0 0 0 0 0 0 0 127 0" result="hardAlpha"/>
<feOffset dy="-3.89642"/>
<feComposite in2="hardAlpha" operator="arithmetic" k2="-1" k3="1"/>
<feColorMatrix type="matrix" values="0 0 0 0 0.623529 0 0 0 0 0.654902 0 0 0 0 0.686275 0 0 0 1 0"/>
<feBlend mode="normal" in2="shape" result="effect1_innerShadow_487_79916"/>
</filter>
<filter id="filter19_i_487_79916" x="127.859" y="383.994" width="148.641" height="75.5898" filterUnits="userSpaceOnUse" color-interpolation-filters="sRGB">
<feFlood flood-opacity="0" result="BackgroundImageFix"/>
<feBlend mode="normal" in="SourceGraphic" in2="BackgroundImageFix" result="shape"/>
<feColorMatrix in="SourceAlpha" type="matrix" values="0 0 0 0 0 0 0 0 0 0 0 0 0 0 0 0 0 0 127 0" result="hardAlpha"/>
<feOffset dx="-12.4685" dy="-17.9235"/>
<feComposite in2="hardAlpha" operator="arithmetic" k2="-1" k3="1"/>
<feColorMatrix type="matrix" values="0 0 0 0 0 0 0 0 0 0 0 0 0 0 0 0 0 0 0.07 0"/>
<feBlend mode="normal" in2="shape" result="effect1_innerShadow_487_79916"/>
</filter>
<filter id="filter20_i_487_79916" x="600.797" y="576.898" width="18.9531" height="45.8925" filterUnits="userSpaceOnUse" color-interpolation-filters="sRGB">
<feFlood flood-opacity="0" result="BackgroundImageFix"/>
<feBlend mode="normal" in="SourceGraphic" in2="BackgroundImageFix" result="shape"/>
<feColorMatrix in="SourceAlpha" type="matrix" values="0 0 0 0 0 0 0 0 0 0 0 0 0 0 0 0 0 0 127 0" result="hardAlpha"/>
<feOffset dx="6.23427" dy="-4.6757"/>
<feGaussianBlur stdDeviation="1.55857"/>
<feComposite in2="hardAlpha" operator="arithmetic" k2="-1" k3="1"/>
<feColorMatrix type="matrix" values="0 0 0 0 0 0 0 0 0 0 0 0 0 0 0 0 0 0 0.25 0"/>
<feBlend mode="normal" in2="shape" result="effect1_innerShadow_487_79916"/>
</filter>
<filter id="filter21_i_487_79916" x="719.133" y="537.154" width="18.6953" height="38.1855" filterUnits="userSpaceOnUse" color-interpolation-filters="sRGB">
<feFlood flood-opacity="0" result="BackgroundImageFix"/>
<feBlend mode="normal" in="SourceGraphic" in2="BackgroundImageFix" result="shape"/>
<feColorMatrix in="SourceAlpha" type="matrix" values="0 0 0 0 0 0 0 0 0 0 0 0 0 0 0 0 0 0 127 0" result="hardAlpha"/>
<feOffset dx="7.79284" dy="-4.6757"/>
<feGaussianBlur stdDeviation="1.55857"/>
<feComposite in2="hardAlpha" operator="arithmetic" k2="-1" k3="1"/>
<feColorMatrix type="matrix" values="0 0 0 0 0 0 0 0 0 0 0 0 0 0 0 0 0 0 0.25 0"/>
<feBlend mode="normal" in2="shape" result="effect1_innerShadow_487_79916"/>
</filter>
<filter id="filter22_i_487_79916" x="531.789" y="419.482" width="140.273" height="125.074" filterUnits="userSpaceOnUse" color-interpolation-filters="sRGB">
<feFlood flood-opacity="0" result="BackgroundImageFix"/>
<feBlend mode="normal" in="SourceGraphic" in2="BackgroundImageFix" result="shape"/>
<feColorMatrix in="SourceAlpha" type="matrix" values="0 0 0 0 0 0 0 0 0 0 0 0 0 0 0 0 0 0 127 0" result="hardAlpha"/>
<feOffset dx="5.45499" dy="10.1307"/>
<feComposite in2="hardAlpha" operator="arithmetic" k2="-1" k3="1"/>
<feColorMatrix type="matrix" values="0 0 0 0 0 0 0 0 0 0 0 0 0 0 0 0 0 0 0.25 0"/>
<feBlend mode="normal" in2="shape" result="effect1_innerShadow_487_79916"/>
</filter>
<filter id="filter23_i_487_79916" x="560.109" y="501.834" width="162.609" height="91.4766" filterUnits="userSpaceOnUse" color-interpolation-filters="sRGB">
<feFlood flood-opacity="0" result="BackgroundImageFix"/>
<feBlend mode="normal" in="SourceGraphic" in2="BackgroundImageFix" result="shape"/>
<feColorMatrix in="SourceAlpha" type="matrix" values="0 0 0 0 0 0 0 0 0 0 0 0 0 0 0 0 0 0 127 0" result="hardAlpha"/>
<feOffset dy="-3.89642"/>
<feComposite in2="hardAlpha" operator="arithmetic" k2="-1" k3="1"/>
<feColorMatrix type="matrix" values="0 0 0 0 0.623529 0 0 0 0 0.654902 0 0 0 0 0.686275 0 0 0 1 0"/>
<feBlend mode="normal" in2="shape" result="effect1_innerShadow_487_79916"/>
</filter>
<filter id="filter24_i_487_79916" x="483.789" y="380.986" width="147.672" height="74.8105" filterUnits="userSpaceOnUse" color-interpolation-filters="sRGB">
<feFlood flood-opacity="0" result="BackgroundImageFix"/>
<feBlend mode="normal" in="SourceGraphic" in2="BackgroundImageFix" result="shape"/>
<feColorMatrix in="SourceAlpha" type="matrix" values="0 0 0 0 0 0 0 0 0 0 0 0 0 0 0 0 0 0 127 0" result="hardAlpha"/>
<feOffset dx="9.35141" dy="-20.2614"/>
<feComposite in2="hardAlpha" operator="arithmetic" k2="-1" k3="1"/>
<feColorMatrix type="matrix" values="0 0 0 0 0 0 0 0 0 0 0 0 0 0 0 0 0 0 0.07 0"/>
<feBlend mode="normal" in2="shape" result="effect1_innerShadow_487_79916"/>
</filter>
<filter id="filter25_i_487_79916" x="203.016" y="175.875" width="357.43" height="178.588" filterUnits="userSpaceOnUse" color-interpolation-filters="sRGB">
<feFlood flood-opacity="0" result="BackgroundImageFix"/>
<feBlend mode="normal" in="SourceGraphic" in2="BackgroundImageFix" result="shape"/>
<feColorMatrix in="SourceAlpha" type="matrix" values="0 0 0 0 0 0 0 0 0 0 0 0 0 0 0 0 0 0 127 0" result="hardAlpha"/>
<feOffset dy="6.48506"/>
<feComposite in2="hardAlpha" operator="arithmetic" k2="-1" k3="1"/>
<feColorMatrix type="matrix" values="0 0 0 0 0.152778 0 0 0 0 0.206533 0 0 0 0 0.229167 0 0 0 1 0"/>
<feBlend mode="normal" in2="shape" result="effect1_innerShadow_487_79916"/>
</filter>
<filter id="filter26_d_487_79916" x="263.586" y="189.596" width="239.438" height="143.693" filterUnits="userSpaceOnUse" color-interpolation-filters="sRGB">
<feFlood flood-opacity="0" result="BackgroundImageFix"/>
<feColorMatrix in="SourceAlpha" type="matrix" values="0 0 0 0 0 0 0 0 0 0 0 0 0 0 0 0 0 0 127 0" result="hardAlpha"/>
<feOffset dy="5.45499"/>
<feComposite in2="hardAlpha" operator="out"/>
<feColorMatrix type="matrix" values="0 0 0 0 0.208333 0 0 0 0 0.349462 0 0 0 0 0.416667 0 0 0 1 0"/>
<feBlend mode="normal" in2="BackgroundImageFix" result="effect1_dropShadow_487_79916"/>
<feBlend mode="normal" in="SourceGraphic" in2="effect1_dropShadow_487_79916" result="shape"/>
</filter>
<filter id="filter27_i_487_79916" x="179.391" y="104.619" width="53.4062" height="53.4043" filterUnits="userSpaceOnUse" color-interpolation-filters="sRGB">
<feFlood flood-opacity="0" result="BackgroundImageFix"/>
<feBlend mode="normal" in="SourceGraphic" in2="BackgroundImageFix" result="shape"/>
<feColorMatrix in="SourceAlpha" type="matrix" values="0 0 0 0 0 0 0 0 0 0 0 0 0 0 0 0 0 0 127 0" result="hardAlpha"/>
<feOffset dx="3.80633" dy="5.45499"/>
<feComposite in2="hardAlpha" operator="arithmetic" k2="-1" k3="1"/>
<feColorMatrix type="matrix" values="0 0 0 0 0.721569 0 0 0 0 0.745098 0 0 0 0 0.768627 0 0 0 0.76 0"/>
<feBlend mode="normal" in2="shape" result="effect1_innerShadow_487_79916"/>
</filter>
<filter id="filter28_i_487_79916" x="145.188" y="62.5371" width="50.6562" height="23.377" filterUnits="userSpaceOnUse" color-interpolation-filters="sRGB">
<feFlood flood-opacity="0" result="BackgroundImageFix"/>
<feBlend mode="normal" in="SourceGraphic" in2="BackgroundImageFix" result="shape"/>
<feColorMatrix in="SourceAlpha" type="matrix" values="0 0 0 0 0 0 0 0 0 0 0 0 0 0 0 0 0 0 127 0" result="hardAlpha"/>
<feOffset dy="-5.45499"/>
<feComposite in2="hardAlpha" operator="arithmetic" k2="-1" k3="1"/>
<feColorMatrix type="matrix" values="0 0 0 0 0.721569 0 0 0 0 0.745098 0 0 0 0 0.768627 0 0 0 0.65 0"/>
<feBlend mode="normal" in2="shape" result="effect1_innerShadow_487_79916"/>
</filter>
</defs>
</svg>
