<svg width="150" height="171" viewBox="0 0 150 171" fill="none" xmlns="http://www.w3.org/2000/svg">
<g filter="url(#filter0_d_228_30705)">
<path d="M82.4831 22.7462C83.901 21.7163 85.8711 22.3893 85.9813 23.9412L86.3762 29.5029C86.4856 31.0435 87.3405 32.3981 88.7174 33.2122L93.6702 36.141C95.0447 36.9537 94.7655 38.9051 93.1709 39.6313L87.335 42.289C85.754 43.0089 84.5283 44.284 83.9726 45.7868L81.9169 51.346C81.3532 52.8703 79.215 53.4104 78.1097 52.3075L74.1787 48.3853C73.0706 47.2797 71.4316 46.7198 69.6957 46.8538L63.5373 47.3294C61.8057 47.4631 60.7646 45.837 61.6835 44.434L65.0348 39.3174C65.9408 37.9342 66.1777 36.3214 65.6849 34.893L63.8655 29.6202C63.3684 28.1794 64.8567 26.641 66.5275 26.8686L72.5484 27.6887C74.2221 27.9166 75.9946 27.4596 77.4021 26.4372L82.4831 22.7462Z" fill="#FCB201"/>
<mask id="mask0_228_30705" style="mask-type:alpha" maskUnits="userSpaceOnUse" x="61" y="22" width="34" height="31">
<path d="M82.4831 22.7462C83.901 21.7163 85.8711 22.3893 85.9813 23.9412L86.3762 29.5029C86.4856 31.0435 87.3405 32.3981 88.7174 33.2122L93.6702 36.141C95.0447 36.9537 94.7655 38.9051 93.1709 39.6313L87.335 42.289C85.754 43.0089 84.5283 44.284 83.9726 45.7868L81.9169 51.346C81.3532 52.8703 79.215 53.4104 78.1097 52.3075L74.1787 48.3853C73.0706 47.2797 71.4316 46.7198 69.6957 46.8539L63.5373 47.3294C61.8057 47.4631 60.7646 45.837 61.6835 44.434L65.0348 39.3174C65.9408 37.9342 66.1777 36.3214 65.6849 34.893L63.8655 29.6202C63.3684 28.1794 64.8567 26.641 66.5275 26.8686L72.5484 27.6887C74.2221 27.9166 75.9946 27.4596 77.4021 26.4372L82.4831 22.7462Z" fill="#FCB201"/>
</mask>
<g mask="url(#mask0_228_30705)">
<path d="M86.4516 31.3388L77.4447 36.7522L92.8844 37.9661L94.8723 37.9068L94.1595 35.4485L86.4516 31.3388Z" fill="#F7DE31"/>
<path d="M76.1156 37.0402L65.8425 37.2222L62.5588 28.2429L64.6357 25.7883L75.093 27.4622L84.3283 20.6501L86.4604 21.3785L87.2849 31.9962L76.7833 37.2683L76.1156 37.0402Z" fill="#F99C00"/>
<path d="M63.9977 27.7307L77.1068 36.6388L85.0912 21.6473L65.9554 26.1847L63.9977 27.7307Z" fill="#FFC61D"/>
<path d="M77.2772 37.0669L85.0871 21.6467L85.9292 22.3035L87.2856 31.9956L77.2772 37.0669Z" fill="#FAC41A"/>
<path d="M61.0648 46.6614L77.4397 36.7512L80.2668 53.5903L61.0648 46.6614Z" fill="#F08500"/>
<path d="M94.876 37.9076L76.7807 36.5249L85.2164 43.8364L94.0791 39.4811L94.876 37.9076Z" fill="#F79D00"/>
</g>
<mask id="mask1_228_30705" style="mask-type:alpha" maskUnits="userSpaceOnUse" x="61" y="22" width="34" height="31">
<path d="M82.4831 22.7462C83.901 21.7163 85.8711 22.3893 85.9813 23.9412L86.3762 29.5029C86.4856 31.0435 87.3405 32.3981 88.7174 33.2122L93.6702 36.141C95.0447 36.9537 94.7655 38.9051 93.1709 39.6313L87.335 42.289C85.754 43.0089 84.5283 44.284 83.9726 45.7868L81.9169 51.346C81.3532 52.8703 79.215 53.4104 78.1097 52.3075L74.1787 48.3853C73.0706 47.2797 71.4316 46.7198 69.6957 46.8539L63.5373 47.3294C61.8057 47.4631 60.7646 45.837 61.6835 44.434L65.0348 39.3174C65.9408 37.9342 66.1777 36.3214 65.6849 34.893L63.8655 29.6202C63.3684 28.1794 64.8567 26.641 66.5275 26.8686L72.5484 27.6887C74.2221 27.9166 75.9946 27.4596 77.4021 26.4372L82.4831 22.7462Z" fill="url(#paint0_radial_228_30705)"/>
</mask>
<g mask="url(#mask1_228_30705)">
<g filter="url(#filter1_f_228_30705)">
<path d="M84.7787 22.2773L78.5101 36.3629L94.8745 37.9081L78.2961 37.8416L80.2741 53.5925L76.6882 38.2514L61.072 46.6637L75.9086 37.026L64.0039 27.7314L77.0346 35.8588L84.7787 22.2773Z" fill="#FFF61C"/>
</g>
</g>
<g filter="url(#filter2_f_228_30705)">
<path d="M78.6201 37.5237C78.268 38.219 77.3848 38.5783 76.6473 38.3264C75.9099 38.0745 75.5975 37.3067 75.9496 36.6115C76.3017 35.9162 77.1849 35.5569 77.9224 35.8088C78.6598 36.0607 78.9722 36.8285 78.6201 37.5237Z" fill="#FFFFF6"/>
</g>
<path d="M82.1431 22.3433C83.937 21.0404 86.4291 21.8917 86.5687 23.8551L86.9639 29.4166C87.0625 30.8039 87.8328 32.024 89.0726 32.7572L94.0253 35.6856C95.7644 36.714 95.4106 39.1831 93.3928 40.102L87.5575 42.7604C86.1339 43.4087 85.0299 44.5565 84.5294 45.9097L82.4738 51.4688C81.7606 53.3975 79.0555 54.0809 77.6569 52.6857L73.7257 48.7635C72.7279 47.7679 71.2514 47.2635 69.6882 47.3842L63.5297 47.8597C61.3389 48.0287 60.022 45.9713 61.1846 44.1962L64.5359 39.0796C65.3516 37.8341 65.5644 36.3818 65.1206 35.0956L63.3014 29.8223C62.6729 27.9994 64.5562 26.0528 66.6702 26.3407L72.6906 27.1608C74.1978 27.3661 75.7945 26.9546 77.0619 26.0339L82.1431 22.3433Z" stroke="black" stroke-width="1.12312"/>
</g>
<g filter="url(#filter3_d_228_30705)">
<path d="M118.031 27.6537C116.945 26.2781 114.866 26.3921 114.34 27.8562L112.453 33.1027C111.93 34.556 110.74 35.6283 109.194 36.0389L103.633 37.516C102.089 37.9259 101.829 39.8799 103.168 41.0111L108.065 45.1506C109.392 46.2721 110.226 47.8316 110.354 49.4287L110.826 55.337C110.956 56.957 112.868 58.0562 114.23 57.2942L119.077 54.5838C120.443 53.8199 122.173 53.725 123.807 54.3244L129.607 56.4509C131.237 57.0488 132.68 55.7656 132.176 54.1661L130.336 48.3329C129.839 46.756 130.048 45.1392 130.909 43.8978L134.089 39.3153C134.958 38.0631 133.943 36.179 132.272 35.9453L126.255 35.1032C124.582 34.8692 122.999 33.9489 121.922 32.5834L118.031 27.6537Z" fill="#FCB201"/>
<mask id="mask2_228_30705" style="mask-type:alpha" maskUnits="userSpaceOnUse" x="102" y="26" width="33" height="32">
<path d="M118.031 27.6537C116.945 26.2781 114.866 26.3921 114.34 27.8562L112.453 33.1027C111.93 34.556 110.74 35.6283 109.194 36.0389L103.633 37.516C102.089 37.9259 101.829 39.8799 103.168 41.0111L108.065 45.1506C109.392 46.2721 110.226 47.8316 110.354 49.4287L110.826 55.337C110.956 56.957 112.868 58.0562 114.23 57.2942L119.077 54.5838C120.443 53.8199 122.173 53.725 123.807 54.3244L129.607 56.4509C131.237 57.0488 132.68 55.7656 132.176 54.1661L130.336 48.3329C129.839 46.756 130.048 45.1392 130.909 43.8978L134.089 39.3153C134.958 38.0631 133.943 36.179 132.272 35.9453L126.255 35.1032C124.582 34.8692 122.999 33.9489 121.922 32.5834L118.031 27.6537Z" fill="#FCB201"/>
</mask>
<g mask="url(#mask2_228_30705)">
<path d="M111.881 34.8498L119.084 42.5014L103.893 39.4861L101.996 38.8905L103.348 36.7172L111.881 34.8498Z" fill="#F7DE31"/>
<path d="M120.28 43.1373L130.119 46.0962L135.713 38.3426L134.379 35.417L123.86 34.1947L116.816 25.1351L114.566 25.2585L110.895 35.2556L119.575 43.1759L120.28 43.1373Z" fill="#F99C00"/>
<path d="M134.47 37.4606L119.438 42.4832L115.814 25.8891L133.005 35.4418L134.47 37.4606Z" fill="#FFC61D"/>
<path d="M119.153 42.8483L115.814 25.8888L114.825 26.2929L110.893 35.2548L119.153 42.8483Z" fill="#FAC41A"/>
<path d="M132.168 56.4785L119.091 42.502L111.807 57.945L132.168 56.4785Z" fill="#F08500"/>
<path d="M102 38.8918L119.793 42.4641L109.692 47.2163L102.341 40.6224L102 38.8918Z" fill="#F79D00"/>
</g>
<mask id="mask3_228_30705" style="mask-type:alpha" maskUnits="userSpaceOnUse" x="102" y="26" width="33" height="32">
<path d="M118.031 27.6537C116.945 26.2781 114.866 26.3921 114.34 27.8562L112.453 33.1027C111.93 34.556 110.74 35.6283 109.194 36.0389L103.633 37.516C102.089 37.9259 101.829 39.8799 103.168 41.0111L108.065 45.1506C109.392 46.2721 110.226 47.8316 110.354 49.4287L110.826 55.337C110.956 56.957 112.868 58.0562 114.23 57.2942L119.077 54.5838C120.443 53.8199 122.173 53.725 123.807 54.3244L129.607 56.4509C131.237 57.0488 132.68 55.7656 132.176 54.1661L130.336 48.3329C129.839 46.756 130.048 45.1392 130.909 43.8978L134.089 39.3153C134.958 38.0631 133.943 36.179 132.272 35.9453L126.255 35.1032C124.582 34.8692 122.999 33.9489 121.922 32.5834L118.031 27.6537Z" fill="url(#paint1_radial_228_30705)"/>
</mask>
<g mask="url(#mask3_228_30705)">
<g filter="url(#filter4_f_228_30705)">
<path d="M115.955 26.5818L118.172 41.839L102.001 38.8921L117.978 43.3204L111.806 57.9461L119.414 44.1505L132.167 56.4796L120.497 43.1822L134.475 37.4611L119.729 41.7536L115.955 26.5818Z" fill="#FFF61C"/>
</g>
</g>
<g filter="url(#filter5_f_228_30705)">
<path d="M117.745 42.9258C117.896 43.6904 118.648 44.2757 119.427 44.233C120.205 44.1903 120.713 43.5359 120.563 42.7713C120.412 42.0067 119.659 41.4214 118.881 41.4641C118.103 41.5068 117.594 42.1612 117.745 42.9258Z" fill="#FFFFF6"/>
</g>
<path d="M118.467 27.3582C117.093 25.618 114.464 25.7621 113.798 27.6143L111.91 32.8606C111.439 34.1693 110.367 35.1351 108.975 35.5048L103.414 36.9817C101.462 37.5004 101.133 39.973 102.826 41.4042L107.723 45.5443C108.918 46.5542 109.669 47.9582 109.784 49.3964L110.257 55.3045C110.421 57.3543 112.839 58.7451 114.564 57.7811L119.411 55.0708C120.641 54.3828 122.199 54.2974 123.671 54.8372L129.47 56.9636C131.533 57.7199 133.358 56.0964 132.72 54.0726L130.881 48.2394C130.433 46.8195 130.622 45.3639 131.397 44.246L134.577 39.6629C135.676 38.0785 134.391 35.6944 132.278 35.3988L126.261 34.5569C124.754 34.3461 123.329 33.5173 122.358 32.2876L118.467 27.3582Z" stroke="black" stroke-width="1.12312"/>
</g>
<g filter="url(#filter6_d_228_30705)">
<path d="M125.257 40.466C125.27 38.5945 123.224 37.4348 121.625 38.4068L115.894 41.8902C114.306 42.8551 112.376 43.0794 110.61 42.5044L104.255 40.4358C102.491 39.8617 100.774 41.4275 101.183 43.2364L102.681 49.8565C103.087 51.6499 102.699 53.5312 101.616 55.0173L97.6107 60.5148C96.5123 62.0222 97.4865 64.1507 99.3452 64.3048L105.956 64.8526C107.819 65.007 109.521 65.9718 110.61 67.4914L114.475 72.8826C115.562 74.3985 117.888 74.1414 118.618 72.4249L121.278 66.1648C121.997 64.4726 123.412 63.1733 125.16 62.6006L131.61 60.4867C133.372 59.909 133.834 57.6315 132.436 56.413L127.397 52.022C125.997 50.8014 125.198 49.0305 125.211 47.1727L125.257 40.466Z" fill="#FCB201"/>
<mask id="mask4_228_30705" style="mask-type:alpha" maskUnits="userSpaceOnUse" x="97" y="38" width="37" height="36">
<path d="M125.257 40.466C125.27 38.5945 123.224 37.4348 121.625 38.4068L115.894 41.8902C114.306 42.8551 112.376 43.0794 110.61 42.5044L104.255 40.4358C102.491 39.8617 100.774 41.4275 101.183 43.2364L102.681 49.8565C103.087 51.6499 102.699 53.5312 101.616 55.0173L97.6107 60.5148C96.5123 62.0222 97.4865 64.1507 99.3452 64.3048L105.956 64.8526C107.819 65.007 109.521 65.9718 110.61 67.4914L114.475 72.8826C115.562 74.3985 117.888 74.1414 118.618 72.4249L121.278 66.1648C121.997 64.4726 123.412 63.1733 125.16 62.6006L131.61 60.4867C133.372 59.909 133.834 57.6315 132.436 56.413L127.397 52.022C125.997 50.8014 125.198 49.0305 125.211 47.1727L125.257 40.466Z" fill="#FCB201"/>
</mask>
<g mask="url(#mask4_228_30705)">
<path d="M114.042 43.0891L115.068 54.2045L103.019 42.3356L101.679 40.66L104.591 39.563L114.042 43.0891Z" fill="#F7DE31"/>
<path d="M115.715 55.4868L122.762 64.0616L133.876 60.6143L134.822 57.2252L125.827 49.7697L126.012 37.5088L123.798 36.2537L112.806 42.8458L115.022 55.0938L115.715 55.4868Z" fill="#F99C00"/>
<path d="M133.365 59.0845L115.41 54.4011L124.496 37.5685L133.504 56.4155L133.365 59.0845Z" fill="#FFC61D"/>
<path d="M114.873 54.5508L124.501 37.5681L123.265 37.3252L112.807 42.8459L114.873 54.5508Z" fill="#FAC41A"/>
<path d="M116.865 74.4594L115.067 54.2044L96.567 63.4091L116.865 74.4594Z" fill="#F08500"/>
<path d="M101.678 40.66L115.759 54.5975L102.657 52.6651L100.695 42.393L101.678 40.66Z" fill="#F79D00"/>
</g>
<mask id="mask5_228_30705" style="mask-type:alpha" maskUnits="userSpaceOnUse" x="97" y="38" width="37" height="36">
<path d="M125.257 40.466C125.27 38.5945 123.224 37.4348 121.625 38.4068L115.894 41.8902C114.306 42.8551 112.376 43.0794 110.61 42.5044L104.255 40.4358C102.491 39.8617 100.774 41.4275 101.183 43.2364L102.681 49.8565C103.087 51.6499 102.699 53.5312 101.616 55.0173L97.6107 60.5148C96.5123 62.0222 97.4865 64.1507 99.3452 64.3048L105.956 64.8526C107.819 65.007 109.521 65.9718 110.61 67.4914L114.475 72.8826C115.562 74.3985 117.888 74.1414 118.618 72.4249L121.278 66.1648C121.997 64.4726 123.412 63.1733 125.16 62.6006L131.61 60.4867C133.372 59.909 133.834 57.6315 132.436 56.413L127.397 52.022C125.997 50.8014 125.198 49.0305 125.211 47.1727L125.257 40.466Z" fill="url(#paint2_radial_228_30705)"/>
</mask>
<g mask="url(#mask5_228_30705)">
<g filter="url(#filter7_f_228_30705)">
<path d="M124.105 38.262L114.701 53.063L101.678 40.6604L113.402 54.2515L96.5659 63.4096L114.131 55.8547L116.864 74.4599L115.881 55.6569L133.367 59.0848L116.233 53.9315L124.105 38.262Z" fill="#FFF61C"/>
</g>
</g>
<g filter="url(#filter8_f_228_30705)">
<path d="M113.482 53.7648C113.047 54.5305 113.316 55.503 114.082 55.9371C114.848 56.3712 115.82 56.1024 116.254 55.3368C116.688 54.5711 116.42 53.5985 115.654 53.1644C114.888 52.7304 113.916 52.9991 113.482 53.7648Z" fill="#FFFFF6"/>
</g>
<path d="M125.891 40.4706C125.907 38.1027 123.32 36.6356 121.296 37.8654L115.564 41.348C114.135 42.2169 112.397 42.4192 110.806 41.9014L104.451 39.8328C102.219 39.1068 100.047 41.0876 100.565 43.3762L102.063 49.9968C102.428 51.6117 102.079 53.3059 101.104 54.6441L97.0982 60.1413C95.7085 62.0486 96.9409 64.7423 99.2926 64.9374L105.903 65.4847C107.581 65.6238 109.114 66.4927 110.095 67.8611L113.96 73.2529C115.335 75.1705 118.279 74.845 119.202 72.6732L121.862 66.413C122.51 64.8893 123.784 63.7191 125.357 63.2034L131.807 61.0891C134.037 60.3582 134.621 57.4769 132.852 55.9351L127.814 51.5439C126.553 50.4447 125.834 48.8496 125.845 47.1768L125.891 40.4706Z" stroke="black" stroke-width="1.26847"/>
</g>
<g filter="url(#filter9_d_228_30705)">
<path d="M58.6238 21.2285C60.0416 20.1986 62.0117 20.8716 62.1219 22.4235L62.5168 27.9852C62.6262 29.5258 63.4812 30.8804 64.858 31.6945L69.8108 34.6233C71.1853 35.436 70.9061 37.3874 69.3115 38.1136L63.4756 40.7713C61.8947 41.4912 60.669 42.7663 60.1132 44.2691L58.0575 49.8283C57.4938 51.3526 55.3556 51.8927 54.2503 50.7898L50.3193 46.8676C49.2112 45.762 47.5722 45.2021 45.8363 45.3361L39.6779 45.8117C37.9464 45.9454 36.9052 44.3193 37.8242 42.9163L41.1754 37.7997C42.0814 36.4165 42.3183 34.8037 41.8255 33.3753L40.0062 28.1025C39.509 26.6617 40.9973 25.1233 42.6682 25.3509L48.689 26.171C50.3627 26.3989 52.1352 25.9419 53.5427 24.9195L58.6238 21.2285Z" fill="#FCB201"/>
<mask id="mask6_228_30705" style="mask-type:alpha" maskUnits="userSpaceOnUse" x="37" y="20" width="34" height="32">
<path d="M58.6238 21.2285C60.0416 20.1986 62.0117 20.8716 62.1219 22.4235L62.5168 27.9852C62.6262 29.5258 63.4812 30.8804 64.858 31.6945L69.8108 34.6233C71.1853 35.436 70.9061 37.3874 69.3115 38.1136L63.4756 40.7713C61.8947 41.4912 60.669 42.7663 60.1132 44.2691L58.0575 49.8283C57.4938 51.3526 55.3556 51.8927 54.2503 50.7898L50.3193 46.8676C49.2112 45.762 47.5722 45.2021 45.8363 45.3362L39.6779 45.8117C37.9464 45.9454 36.9052 44.3193 37.8242 42.9163L41.1754 37.7997C42.0814 36.4165 42.3183 34.8037 41.8255 33.3753L40.0062 28.1025C39.509 26.6617 40.9973 25.1233 42.6681 25.3509L48.689 26.171C50.3627 26.3989 52.1352 25.9419 53.5427 24.9195L58.6238 21.2285Z" fill="#FCB201"/>
</mask>
<g mask="url(#mask6_228_30705)">
<path d="M62.5923 29.8202L53.5853 35.2337L69.0251 36.4475L71.0129 36.3883L70.3002 33.9299L62.5923 29.8202Z" fill="#F7DE31"/>
<path d="M52.2562 35.5217L41.9831 35.7038L38.6994 26.7244L40.7763 24.2698L51.2336 25.9437L60.4689 19.1317L62.601 19.8601L63.4255 30.4778L52.9239 35.7498L52.2562 35.5217Z" fill="#F99C00"/>
<path d="M40.1383 26.2126L53.2475 35.1206L61.2318 20.1291L42.0961 24.6665L40.1383 26.2126Z" fill="#FFC61D"/>
<path d="M53.4178 35.5491L61.2277 20.1289L62.0698 20.7857L63.4263 30.4778L53.4178 35.5491Z" fill="#FAC41A"/>
<path d="M37.1976 45.1437L53.5725 35.2335L56.3996 52.0726L37.1976 45.1437Z" fill="#F08500"/>
<path d="M71.0088 36.3893L52.9135 35.0066L61.3493 42.3181L70.2119 37.9628L71.0088 36.3893Z" fill="#F79D00"/>
</g>
<mask id="mask7_228_30705" style="mask-type:alpha" maskUnits="userSpaceOnUse" x="37" y="20" width="34" height="32">
<path d="M58.6238 21.2285C60.0416 20.1986 62.0117 20.8716 62.1219 22.4235L62.5168 27.9852C62.6262 29.5258 63.4812 30.8804 64.858 31.6945L69.8108 34.6233C71.1853 35.436 70.9061 37.3874 69.3115 38.1136L63.4756 40.7713C61.8947 41.4912 60.669 42.7663 60.1132 44.2691L58.0575 49.8283C57.4938 51.3526 55.3556 51.8927 54.2503 50.7898L50.3193 46.8676C49.2112 45.762 47.5722 45.2021 45.8363 45.3362L39.6779 45.8117C37.9464 45.9454 36.9052 44.3193 37.8242 42.9163L41.1754 37.7997C42.0814 36.4165 42.3183 34.8037 41.8255 33.3753L40.0062 28.1025C39.509 26.6617 40.9973 25.1233 42.6681 25.3509L48.689 26.171C50.3627 26.3989 52.1352 25.9419 53.5427 24.9195L58.6238 21.2285Z" fill="url(#paint3_radial_228_30705)"/>
</mask>
<g mask="url(#mask7_228_30705)">
<g filter="url(#filter10_f_228_30705)">
<path d="M60.9193 20.7596L54.6508 34.8452L71.0152 36.3904L54.4367 36.3239L56.4147 52.0748L52.8289 36.7337L37.2126 45.146L52.0492 35.5083L40.1446 26.2137L53.1752 34.3411L60.9193 20.7596Z" fill="#FFF61C"/>
</g>
</g>
<g filter="url(#filter11_f_228_30705)">
<path d="M54.7607 36.0062C54.4086 36.7014 53.5254 37.0607 52.7879 36.8088C52.0505 36.5569 51.7381 35.7891 52.0902 35.0939C52.4423 34.3987 53.3256 34.0393 54.063 34.2912C54.8005 34.5432 55.1128 35.311 54.7607 36.0062Z" fill="#FFFFF6"/>
</g>
<path d="M58.2837 20.8258C60.0776 19.5229 62.5698 20.3742 62.7094 22.3377L63.1046 27.8991C63.2031 29.2865 63.9734 30.5066 65.2132 31.2397L70.1659 34.1682C71.905 35.1966 71.5512 37.6656 69.5335 38.5845L63.6981 41.2429C62.2745 41.8912 61.1705 43.039 60.67 44.3922L58.6144 49.9514C57.9012 51.88 55.1961 52.5634 53.7975 51.1683L49.8664 47.246C48.8685 46.2504 47.3921 45.746 45.8288 45.8667L39.6704 46.3422C37.4795 46.5112 36.1626 44.4538 37.3253 42.6787L40.6765 37.5622C41.4923 36.3167 41.7051 34.8644 41.2613 33.5781L39.442 28.3048C38.8135 26.4819 40.6968 24.5353 42.8108 24.8233L48.8312 25.6434C50.3384 25.8487 51.9351 25.4372 53.2026 24.5165L58.2837 20.8258Z" stroke="black" stroke-width="1.12312"/>
</g>
<g filter="url(#filter12_d_228_30705)">
<path d="M57.5308 43.8776C56.4451 42.502 54.3664 42.616 53.8398 44.08L51.9526 49.3266C51.4299 50.7799 50.2398 51.8522 48.6939 52.2628L43.1328 53.7399C41.5895 54.1498 41.3294 56.1038 42.6677 57.2349L47.5651 61.3745C48.8918 62.4959 49.7261 64.0555 49.8538 65.6526L50.3263 71.5609C50.4558 73.1809 52.3677 74.2801 53.7305 73.518L58.5773 70.8077C59.9435 70.0437 61.6728 69.9489 63.3075 70.5483L69.1066 72.6748C70.7372 73.2727 72.18 71.9895 71.6756 70.39L69.8361 64.5567C69.3389 62.9798 69.5478 61.3631 70.4093 60.1217L73.5893 55.5391C74.4582 54.2869 73.4425 52.4029 71.7725 52.1692L65.7547 51.3271C64.0818 51.093 62.4995 50.1728 61.4217 48.8073L57.5308 43.8776Z" fill="#FCB201"/>
<mask id="mask8_228_30705" style="mask-type:alpha" maskUnits="userSpaceOnUse" x="41" y="42" width="33" height="32">
<path d="M57.5308 43.8776C56.4451 42.502 54.3664 42.616 53.8398 44.08L51.9526 49.3266C51.4299 50.7799 50.2398 51.8522 48.6939 52.2628L43.1328 53.7399C41.5895 54.1498 41.3294 56.1038 42.6677 57.2349L47.5651 61.3745C48.8918 62.4959 49.7261 64.0555 49.8538 65.6526L50.3263 71.5609C50.4558 73.1809 52.3677 74.2801 53.7305 73.518L58.5773 70.8077C59.9435 70.0437 61.6728 69.9489 63.3075 70.5483L69.1066 72.6748C70.7372 73.2727 72.18 71.9895 71.6756 70.39L69.8361 64.5567C69.3389 62.9798 69.5478 61.3631 70.4093 60.1217L73.5893 55.5391C74.4582 54.2869 73.4425 52.4029 71.7725 52.1692L65.7547 51.3271C64.0818 51.093 62.4995 50.1728 61.4217 48.8073L57.5308 43.8776Z" fill="#FCB201"/>
</mask>
<g mask="url(#mask8_228_30705)">
<path d="M51.3889 51.0745L58.5921 58.726L43.401 55.7107L41.5036 55.1151L42.8558 52.9418L51.3889 51.0745Z" fill="#F7DE31"/>
<path d="M59.7877 59.3617L69.6272 62.3206L75.2212 54.567L73.8871 51.6414L63.3674 50.4191L56.3235 41.3594L54.0738 41.4828L50.4031 51.4799L59.0833 59.4003L59.7877 59.3617Z" fill="#F99C00"/>
<path d="M73.978 53.6849L58.9455 58.7075L55.3221 42.1134L72.5124 51.6662L73.978 53.6849Z" fill="#FFC61D"/>
<path d="M58.6608 59.0729L55.3215 42.1134L54.333 42.5175L50.401 51.4794L58.6608 59.0729Z" fill="#FAC41A"/>
<path d="M71.6682 72.702L58.5912 58.7255L51.307 74.1685L71.6682 72.702Z" fill="#F08500"/>
<path d="M41.5004 55.1156L59.2934 58.6878L49.1921 63.44L41.8412 56.8461L41.5004 55.1156Z" fill="#F79D00"/>
</g>
<mask id="mask9_228_30705" style="mask-type:alpha" maskUnits="userSpaceOnUse" x="41" y="42" width="33" height="32">
<path d="M57.5308 43.8776C56.4451 42.502 54.3664 42.616 53.8398 44.08L51.9526 49.3266C51.4299 50.7799 50.2398 51.8522 48.6939 52.2628L43.1328 53.7399C41.5895 54.1498 41.3294 56.1038 42.6677 57.2349L47.5651 61.3745C48.8918 62.4959 49.7261 64.0555 49.8538 65.6526L50.3263 71.5609C50.4558 73.1809 52.3677 74.2801 53.7305 73.518L58.5773 70.8077C59.9435 70.0437 61.6728 69.9489 63.3075 70.5483L69.1066 72.6748C70.7372 73.2727 72.18 71.9895 71.6756 70.39L69.8361 64.5567C69.3389 62.9798 69.5478 61.3631 70.4093 60.1217L73.5893 55.5391C74.4582 54.2869 73.4425 52.4029 71.7725 52.1692L65.7547 51.3271C64.0818 51.093 62.4995 50.1728 61.4217 48.8073L57.5308 43.8776Z" fill="url(#paint4_radial_228_30705)"/>
</mask>
<g mask="url(#mask9_228_30705)">
<g filter="url(#filter13_f_228_30705)">
<path d="M55.4549 42.8056L57.6722 58.0627L41.5013 55.1159L57.4775 59.5441L51.3056 74.1698L58.9142 60.3743L71.6667 72.7033L59.9967 59.406L73.9745 53.6848L59.2291 57.9774L55.4549 42.8056Z" fill="#FFF61C"/>
</g>
</g>
<g filter="url(#filter14_f_228_30705)">
<path d="M57.2528 59.15C57.4034 59.9146 58.1562 60.4998 58.9343 60.4571C59.7125 60.4145 60.2212 59.76 60.0707 58.9954C59.9201 58.2308 59.1673 57.6456 58.3891 57.6882C57.611 57.7309 57.1023 58.3853 57.2528 59.15Z" fill="#FFFFF6"/>
</g>
<path d="M57.9673 43.5817C56.5935 41.8415 53.9639 41.9857 53.2975 43.8378L51.4101 49.0841C50.9394 50.3929 49.8672 51.3586 48.4751 51.7284L42.9143 53.2052C40.9615 53.7239 40.6331 56.1965 42.3263 57.6277L47.223 61.7679C48.4177 62.7777 49.1694 64.1817 49.2845 65.6199L49.7569 71.5281C49.9208 73.5778 52.3395 74.9686 54.0638 74.0047L58.9107 71.2943C60.141 70.6063 61.6989 70.5209 63.1709 71.0607L68.9701 73.1872C71.0332 73.9435 72.8584 72.3199 72.2202 70.2961L70.3807 64.4629C69.933 63.043 70.1217 61.5874 70.8974 60.4695L74.0775 55.8864C75.1765 54.302 73.8911 51.9179 71.7781 51.6223L65.7607 50.7804C64.2543 50.5696 62.8288 49.7408 61.8583 48.5111L57.9673 43.5817Z" stroke="black" stroke-width="1.12312"/>
</g>
<g filter="url(#filter15_d_228_30705)">
<path d="M83.7019 40.2335C85.1197 39.2036 87.0898 39.8766 87.2 41.4285L87.5949 46.9902C87.7043 48.5308 88.5593 49.8854 89.9361 50.6995L94.889 53.6283C96.2634 54.441 95.9843 56.3924 94.3896 57.1186L88.5537 59.7763C86.9728 60.4962 85.7471 61.7713 85.1914 63.2741L83.1356 68.8333C82.572 70.3577 80.4338 70.8977 79.3285 69.7948L75.3974 65.8726C74.2893 64.767 72.6504 64.2071 70.9144 64.3412L64.7561 64.8167C63.0245 64.9504 61.9834 63.3243 62.9023 61.9213L66.2536 56.8047C67.1595 55.4215 67.3965 53.8087 66.9036 52.3803L65.0843 47.1075C64.5872 45.6667 66.0754 44.1284 67.7463 44.3559L73.7671 45.176C75.4408 45.4039 77.2133 44.9469 78.6208 43.9245L83.7019 40.2335Z" fill="#FCB201"/>
<mask id="mask10_228_30705" style="mask-type:alpha" maskUnits="userSpaceOnUse" x="62" y="39" width="34" height="32">
<path d="M83.7019 40.2335C85.1197 39.2036 87.0898 39.8766 87.2 41.4285L87.5949 46.9902C87.7043 48.5308 88.5593 49.8854 89.9361 50.6995L94.889 53.6283C96.2634 54.441 95.9843 56.3924 94.3896 57.1186L88.5537 59.7763C86.9728 60.4962 85.7471 61.7713 85.1914 63.2741L83.1356 68.8333C82.572 70.3577 80.4338 70.8977 79.3285 69.7948L75.3974 65.8726C74.2893 64.767 72.6504 64.2071 70.9144 64.3412L64.7561 64.8167C63.0245 64.9504 61.9834 63.3243 62.9023 61.9213L66.2536 56.8047C67.1595 55.4215 67.3965 53.8087 66.9036 52.3803L65.0843 47.1075C64.5872 45.6667 66.0754 44.1284 67.7463 44.3559L73.7671 45.176C75.4408 45.4039 77.2133 44.9469 78.6208 43.9245L83.7019 40.2335Z" fill="#FCB201"/>
</mask>
<g mask="url(#mask10_228_30705)">
<path d="M87.6626 48.8263L78.6556 54.2398L94.0954 55.4536L96.0832 55.3944L95.3705 52.936L87.6626 48.8263Z" fill="#F7DE31"/>
<path d="M77.3344 54.5277L67.0612 54.7097L63.7775 45.7304L65.8544 43.2758L76.3117 44.9497L85.547 38.1377L87.6792 38.866L88.5036 49.4838L78.002 54.7558L77.3344 54.5277Z" fill="#F99C00"/>
<path d="M65.2086 45.2183L78.3178 54.1263L86.3021 39.1349L67.1664 43.6722L65.2086 45.2183Z" fill="#FFC61D"/>
<path d="M78.496 54.5545L86.3059 39.1343L87.1479 39.7911L88.5044 49.4831L78.496 54.5545Z" fill="#FAC41A"/>
<path d="M62.2757 64.1488L78.6506 54.2386L81.4778 71.0777L62.2757 64.1488Z" fill="#F08500"/>
<path d="M96.0869 55.395L77.9917 54.0123L86.4274 61.3239L95.29 56.9685L96.0869 55.395Z" fill="#F79D00"/>
</g>
<mask id="mask11_228_30705" style="mask-type:alpha" maskUnits="userSpaceOnUse" x="62" y="39" width="34" height="32">
<path d="M83.7019 40.2335C85.1197 39.2036 87.0898 39.8766 87.2 41.4285L87.5949 46.9902C87.7043 48.5308 88.5593 49.8854 89.9361 50.6995L94.889 53.6283C96.2634 54.441 95.9843 56.3924 94.3896 57.1186L88.5537 59.7763C86.9728 60.4962 85.7471 61.7713 85.1914 63.2741L83.1356 68.8333C82.572 70.3577 80.4338 70.8977 79.3285 69.7948L75.3974 65.8726C74.2893 64.767 72.6504 64.2071 70.9144 64.3412L64.7561 64.8167C63.0245 64.9504 61.9834 63.3243 62.9023 61.9213L66.2536 56.8047C67.1595 55.4215 67.3965 53.8087 66.9036 52.3803L65.0843 47.1075C64.5872 45.6667 66.0754 44.1284 67.7463 44.3559L73.7671 45.176C75.4408 45.4039 77.2133 44.9469 78.6208 43.9245L83.7019 40.2335Z" fill="url(#paint5_radial_228_30705)"/>
</mask>
<g mask="url(#mask11_228_30705)">
<g filter="url(#filter16_f_228_30705)">
<path d="M85.9896 39.7649L79.7211 53.8504L96.0855 55.3956L79.507 55.3291L81.485 71.0801L77.8992 55.7389L62.283 64.1512L77.1196 54.5135L65.2149 45.2189L78.2455 53.3464L85.9896 39.7649Z" fill="#FFF61C"/>
</g>
</g>
<g filter="url(#filter17_f_228_30705)">
<path d="M79.8311 55.0115C79.4789 55.7068 78.5957 56.0661 77.8582 55.8142C77.1208 55.5623 76.8084 54.7945 77.1605 54.0992C77.5126 53.404 78.3959 53.0447 79.1333 53.2966C79.8708 53.5485 80.1832 54.3163 79.8311 55.0115Z" fill="#FFFFF6"/>
</g>
<path d="M83.3618 39.8317C85.1558 38.5288 87.6479 39.3801 87.7875 41.3435L88.1827 46.905C88.2812 48.2923 89.0515 49.5124 90.2914 50.2456L95.244 53.174C96.9832 54.2024 96.6293 56.6715 94.6116 57.5904L88.7763 60.2488C87.3527 60.8971 86.2486 62.0449 85.7481 63.3981L83.6925 68.9572C82.9793 70.8859 80.2742 71.5693 78.8756 70.1741L74.9445 66.2519C73.9466 65.2563 72.4702 64.7519 70.907 64.8726L64.7485 65.3481C62.5577 65.5171 61.2407 63.4597 62.4034 61.6846L65.7547 56.568C66.5704 55.3225 66.7832 53.8703 66.3394 52.584L64.5202 47.3107C63.8916 45.4878 65.7749 43.5412 67.8889 43.8291L73.9094 44.6493C75.4165 44.8545 77.0132 44.443 78.2807 43.5223L83.3618 39.8317Z" stroke="black" stroke-width="1.12312"/>
</g>
<g filter="url(#filter18_d_228_30705)">
<path d="M96.4215 36.2167C95.3357 34.8411 93.257 34.9551 92.7304 36.4191L90.8432 41.6657C90.3205 43.119 89.1304 44.1913 87.5845 44.6019L82.0234 46.079C80.4801 46.4889 80.2201 48.4429 81.5583 49.5741L86.4557 53.7136C87.7824 54.8351 88.6167 56.3946 88.7445 57.9917L89.2169 63.9C89.3465 65.52 91.2583 66.6192 92.6211 65.8571L97.4679 63.1468C98.8341 62.3828 100.563 62.288 102.198 62.8874L107.997 65.0139C109.628 65.6118 111.071 64.3286 110.566 62.7291L108.727 56.8958C108.23 55.319 108.438 53.7022 109.3 52.4608L112.48 47.8782C113.349 46.6261 112.333 44.742 110.663 44.5083L104.645 43.6662C102.972 43.4321 101.39 42.5119 100.312 41.1464L96.4215 36.2167Z" fill="#FCB201"/>
<mask id="mask12_228_30705" style="mask-type:alpha" maskUnits="userSpaceOnUse" x="80" y="35" width="33" height="32">
<path d="M96.4215 36.2167C95.3357 34.8411 93.257 34.9551 92.7304 36.4191L90.8432 41.6657C90.3205 43.119 89.1305 44.1913 87.5845 44.6019L82.0234 46.079C80.4801 46.4889 80.2201 48.4429 81.5583 49.5741L86.4557 53.7136C87.7824 54.8351 88.6167 56.3946 88.7445 57.9917L89.2169 63.9C89.3465 65.52 91.2583 66.6192 92.6211 65.8571L97.4679 63.1468C98.8341 62.3828 100.563 62.288 102.198 62.8874L107.997 65.0139C109.628 65.6118 111.071 64.3286 110.566 62.7291L108.727 56.8958C108.23 55.319 108.438 53.7022 109.3 52.4608L112.48 47.8782C113.349 46.6261 112.333 44.742 110.663 44.5083L104.645 43.6662C102.972 43.4321 101.39 42.5119 100.312 41.1464L96.4215 36.2167Z" fill="#FCB201"/>
</mask>
<g mask="url(#mask12_228_30705)">
<path d="M90.2718 43.4128L97.4749 51.0644L82.2838 48.0491L80.3864 47.4535L81.7386 45.2802L90.2718 43.4128Z" fill="#F7DE31"/>
<path d="M98.6705 51.7003L108.51 54.6592L114.104 46.9056L112.77 43.98L102.25 42.7577L95.2063 33.6981L92.9566 33.8214L89.2859 43.8186L97.9661 51.7389L98.6705 51.7003Z" fill="#F99C00"/>
<path d="M112.861 46.0235L97.8283 51.0462L94.2049 34.4521L111.395 44.0048L112.861 46.0235Z" fill="#FFC61D"/>
<path d="M97.5436 51.4113L94.2043 34.4518L93.2158 34.8558L89.2838 43.8177L97.5436 51.4113Z" fill="#FAC41A"/>
<path d="M110.559 65.0413L97.4818 51.0647L90.1976 66.5078L110.559 65.0413Z" fill="#F08500"/>
<path d="M80.3832 47.4537L98.1762 51.026L88.0749 55.7781L80.724 49.1843L80.3832 47.4537Z" fill="#F79D00"/>
</g>
<mask id="mask13_228_30705" style="mask-type:alpha" maskUnits="userSpaceOnUse" x="80" y="35" width="33" height="32">
<path d="M96.4215 36.2167C95.3357 34.8411 93.257 34.9551 92.7304 36.4191L90.8432 41.6657C90.3205 43.119 89.1305 44.1913 87.5845 44.6019L82.0234 46.079C80.4801 46.4889 80.2201 48.4429 81.5583 49.5741L86.4557 53.7136C87.7824 54.8351 88.6167 56.3946 88.7445 57.9917L89.2169 63.9C89.3465 65.52 91.2583 66.6192 92.6211 65.8571L97.4679 63.1468C98.8341 62.3828 100.563 62.288 102.198 62.8874L107.997 65.0139C109.628 65.6118 111.071 64.3286 110.566 62.7291L108.727 56.8958C108.23 55.319 108.438 53.7022 109.3 52.4608L112.48 47.8782C113.349 46.6261 112.333 44.742 110.663 44.5083L104.645 43.6662C102.972 43.4321 101.39 42.5119 100.312 41.1464L96.4215 36.2167Z" fill="url(#paint6_radial_228_30705)"/>
</mask>
<g mask="url(#mask13_228_30705)">
<g filter="url(#filter19_f_228_30705)">
<path d="M94.3377 35.1438L96.555 50.401L80.3841 47.4541L96.3604 51.8824L90.1884 66.5081L97.797 52.7125L110.55 65.0416L98.8795 51.7442L112.857 46.0231L98.1119 50.3156L94.3377 35.1438Z" fill="#FFF61C"/>
</g>
</g>
<g filter="url(#filter20_f_228_30705)">
<path d="M96.1356 51.4887C96.2862 52.2533 97.039 52.8386 97.8171 52.7959C98.5953 52.7532 99.104 52.0988 98.9535 51.3342C98.8029 50.5695 98.0501 49.9843 97.2719 50.027C96.4938 50.0696 95.9851 50.7241 96.1356 51.4887Z" fill="#FFFFF6"/>
</g>
<path d="M96.8579 35.9212C95.4841 34.1809 92.8545 34.3251 92.1881 36.1773L90.3007 41.4236C89.83 42.7323 88.7579 43.6981 87.3658 44.0678L81.8049 45.5447C79.8522 46.0634 79.5237 48.536 81.217 49.9672L86.1136 54.1073C87.3083 55.1171 88.0601 56.5212 88.1751 57.9594L88.6475 63.8675C88.8114 65.9173 91.2301 67.3081 92.9545 66.3441L97.8013 63.6338C99.0316 62.9458 100.59 62.8604 102.062 63.4002L107.861 65.5266C109.924 66.2829 111.749 64.6594 111.111 62.6356L109.271 56.8024C108.824 55.3825 109.012 53.9268 109.788 52.809L112.968 48.2259C114.067 46.6415 112.782 44.2574 110.669 43.9617L104.651 43.1199C103.145 42.9091 101.719 42.0803 100.749 40.8506L96.8579 35.9212Z" stroke="black" stroke-width="1.12312"/>
</g>
<g filter="url(#filter21_d_228_30705)">
<path d="M94.1661 20.1065C92.7535 19.0695 90.78 19.7327 90.6621 21.2841L90.2395 26.8437C90.1224 28.3837 89.2607 29.734 87.8798 30.5413L82.9124 33.4453C81.5339 34.2512 81.8034 36.2039 83.3944 36.9381L89.2169 39.6248C90.7943 40.3527 92.0136 41.6338 92.5618 43.1394L94.5898 48.7088C95.1459 50.2359 97.2813 50.7866 98.3921 49.6893L102.343 45.7867C103.456 44.6866 105.098 44.1349 106.833 44.2776L112.989 44.7838C114.72 44.9262 115.769 43.3053 114.857 41.8977L111.532 36.7644C110.633 35.3768 110.404 33.7628 110.904 32.3368L112.749 27.0732C113.254 25.6349 111.773 24.0892 110.101 24.3084L104.076 25.0984C102.401 25.318 100.631 24.8522 99.2288 23.8228L94.1661 20.1065Z" fill="#FCB201"/>
<mask id="mask14_228_30705" style="mask-type:alpha" maskUnits="userSpaceOnUse" x="82" y="19" width="34" height="32">
<path d="M94.1661 20.1065C92.7535 19.0695 90.78 19.7327 90.6621 21.2841L90.2395 26.8437C90.1224 28.3837 89.2607 29.734 87.8798 30.5413L82.9124 33.4453C81.5339 34.2512 81.8034 36.2039 83.3944 36.9381L89.2169 39.6248C90.7943 40.3527 92.0136 41.6338 92.5618 43.1394L94.5898 48.7088C95.1459 50.2359 97.2814 50.7866 98.3921 49.6893L102.343 45.7867C103.456 44.6866 105.098 44.1349 106.833 44.2776L112.989 44.7838C114.72 44.9262 115.769 43.3053 114.857 41.8977L111.532 36.7644C110.633 35.3768 110.404 33.7628 110.904 32.3368L112.749 27.0732C113.254 25.6349 111.773 24.0892 110.101 24.3084L104.076 25.0984C102.401 25.318 100.631 24.8522 99.2288 23.8228L94.1661 20.1065Z" fill="#FCB201"/>
</mask>
<g mask="url(#mask14_228_30705)">
<path d="M90.1667 28.6795L99.1465 34.1378L83.7009 35.2747L81.7134 35.2056L82.4384 32.7508L90.1667 28.6795Z" fill="#F7DE31"/>
<path d="M100.459 34.4318L110.731 34.665L114.059 25.7022L111.995 23.2373L101.529 24.859L92.3279 18.001L90.1922 18.7187L89.3148 29.3322L99.79 34.6565L100.459 34.4318Z" fill="#F99C00"/>
<path d="M112.628 25.1829L99.4744 34.0255L91.5649 18.9944L110.678 23.6271L112.628 25.1829Z" fill="#FFC61D"/>
<path d="M99.3044 34.4544L91.5715 18.9955L90.7262 19.6481L89.3214 29.3332L99.3044 34.4544Z" fill="#FAC41A"/>
<path d="M115.465 44.1297L99.14 34.1379L96.229 50.9627L115.465 44.1297Z" fill="#F08500"/>
<path d="M81.7087 35.2058L99.8106 33.9134L91.3385 41.1827L82.4977 36.7833L81.7087 35.2058Z" fill="#F79D00"/>
</g>
<mask id="mask15_228_30705" style="mask-type:alpha" maskUnits="userSpaceOnUse" x="82" y="19" width="34" height="32">
<path d="M94.1661 20.1065C92.7535 19.0695 90.78 19.7327 90.6621 21.2841L90.2395 26.8437C90.1224 28.3837 89.2607 29.734 87.8798 30.5413L82.9124 33.4453C81.5339 34.2512 81.8034 36.2039 83.3944 36.9381L89.2169 39.6248C90.7943 40.3527 92.0136 41.6338 92.5618 43.1394L94.5898 48.7088C95.1459 50.2359 97.2814 50.7866 98.3921 49.6893L102.343 45.7867C103.456 44.6866 105.098 44.1349 106.833 44.2776L112.989 44.7838C114.72 44.9262 115.769 43.3053 114.857 41.8977L111.532 36.7644C110.633 35.3768 110.404 33.7628 110.904 32.3368L112.749 27.0732C113.254 25.6349 111.773 24.0892 110.101 24.3084L104.076 25.0984C102.401 25.318 100.631 24.8522 99.2288 23.8228L94.1661 20.1065Z" fill="url(#paint7_radial_228_30705)"/>
</mask>
<g mask="url(#mask15_228_30705)">
<g filter="url(#filter22_f_228_30705)">
<path d="M91.8774 19.626L98.0757 33.7426L81.7037 35.2062L98.2823 35.2224L96.2259 50.9633L99.8881 35.6402L115.462 44.1302L100.674 34.4187L112.625 25.1835L99.5537 33.2459L91.8774 19.626Z" fill="#FFF61C"/>
</g>
</g>
<g filter="url(#filter23_f_228_30705)">
<path d="M97.9574 34.9026C98.306 35.5996 99.1875 35.9633 99.9262 35.7151C100.665 35.4669 100.981 34.7006 100.632 34.0037C100.284 33.3067 99.4023 32.9429 98.6637 33.1912C97.925 33.4394 97.6087 34.2057 97.9574 34.9026Z" fill="#FFFFF6"/>
</g>
<path d="M94.5082 19.7055C92.7208 18.3937 90.2245 19.2326 90.0751 21.1953L89.6521 26.7547C89.5467 28.1415 88.7703 29.3578 87.5268 30.0847L82.5597 32.9884C80.8154 34.0082 81.1569 36.479 83.1701 37.4079L88.992 40.0954C90.4124 40.7508 91.5107 41.9041 92.0044 43.2597L94.0323 48.829C94.7359 50.7613 97.4375 51.4581 98.8431 50.0699L102.794 46.1673C103.797 45.1767 105.275 44.6797 106.838 44.8082L112.994 45.3144C115.184 45.4943 116.511 43.4435 115.357 41.6626L112.032 36.5294C111.222 35.2799 111.017 33.8265 111.467 32.5425L113.312 27.2784C113.95 25.4586 112.076 23.5026 109.961 23.78L103.937 24.5701C102.428 24.7679 100.834 24.3484 99.5709 23.4214L94.5082 19.7055Z" stroke="black" stroke-width="1.12312"/>
</g>
<g filter="url(#filter24_d_228_30705)">
<path d="M53.7418 36.5415C52.6561 35.166 50.5773 35.28 50.0507 36.744L48.1635 41.9905C47.6408 43.4438 46.4508 44.5161 44.9048 44.9267L39.3437 46.4038C37.8004 46.8137 37.5404 48.7677 38.8786 49.8989L43.776 54.0385C45.1027 55.1599 45.9371 56.7194 46.0648 58.3165L46.5372 64.2248C46.6668 65.8449 48.5786 66.944 49.9414 66.182L54.7882 63.4717C56.1544 62.7077 57.8838 62.6128 59.5184 63.2122L65.3176 65.3387C66.9481 65.9366 68.3909 64.6535 67.8865 63.054L66.0471 57.2207C65.5498 55.6438 65.7588 54.0271 66.6202 52.7856L69.8002 48.2031C70.6692 46.9509 69.6534 45.0668 67.9834 44.8332L61.9656 43.9911C60.2928 43.757 58.7104 42.8368 57.6326 41.4712L53.7418 36.5415Z" fill="#FCB201"/>
<mask id="mask16_228_30705" style="mask-type:alpha" maskUnits="userSpaceOnUse" x="38" y="35" width="33" height="32">
<path d="M53.7418 36.5415C52.6561 35.166 50.5773 35.28 50.0507 36.744L48.1635 41.9905C47.6408 43.4438 46.4508 44.5161 44.9048 44.9267L39.3437 46.4038C37.8004 46.8137 37.5404 48.7677 38.8786 49.8989L43.776 54.0385C45.1027 55.1599 45.9371 56.7194 46.0648 58.3165L46.5372 64.2248C46.6668 65.8449 48.5786 66.944 49.9414 66.182L54.7882 63.4717C56.1544 62.7077 57.8838 62.6128 59.5184 63.2122L65.3176 65.3387C66.9481 65.9366 68.3909 64.6535 67.8865 63.054L66.0471 57.2207C65.5498 55.6438 65.7588 54.0271 66.6202 52.7856L69.8002 48.2031C70.6692 46.9509 69.6534 45.0668 67.9834 44.8332L61.9656 43.9911C60.2928 43.757 58.7104 42.8368 57.6326 41.4712L53.7418 36.5415Z" fill="#FCB201"/>
</mask>
<g mask="url(#mask16_228_30705)">
<path d="M47.5921 43.7377L54.7952 51.3892L39.6041 48.3739L37.7067 47.7783L39.0589 45.605L47.5921 43.7377Z" fill="#F7DE31"/>
<path d="M55.9909 52.0251L65.8303 54.984L71.4243 47.2304L70.0902 44.3049L59.5706 43.0826L52.5266 34.0229L50.2769 34.1463L46.6062 44.1434L55.2864 52.0638L55.9909 52.0251Z" fill="#F99C00"/>
<path d="M70.1811 46.3484L55.1486 51.371L51.5252 34.7769L68.7155 44.3296L70.1811 46.3484Z" fill="#FFC61D"/>
<path d="M54.864 51.7363L51.5246 34.7767L50.5361 35.1808L46.6042 44.1427L54.864 51.7363Z" fill="#FAC41A"/>
<path d="M67.8791 65.3661L54.8022 51.3895L47.5179 66.8326L67.8791 65.3661Z" fill="#F08500"/>
<path d="M37.7114 47.7794L55.5043 51.3516L45.403 56.1038L38.0521 49.51L37.7114 47.7794Z" fill="#F79D00"/>
</g>
<mask id="mask17_228_30705" style="mask-type:alpha" maskUnits="userSpaceOnUse" x="38" y="35" width="33" height="32">
<path d="M53.7418 36.5415C52.6561 35.166 50.5773 35.28 50.0507 36.744L48.1635 41.9905C47.6408 43.4438 46.4508 44.5161 44.9048 44.9267L39.3437 46.4038C37.8004 46.8137 37.5404 48.7677 38.8786 49.8989L43.776 54.0385C45.1027 55.1599 45.9371 56.7194 46.0648 58.3165L46.5372 64.2248C46.6668 65.8449 48.5786 66.944 49.9414 66.182L54.7882 63.4717C56.1544 62.7077 57.8838 62.6128 59.5184 63.2122L65.3176 65.3387C66.9481 65.9366 68.3909 64.6535 67.8865 63.054L66.0471 57.2207C65.5498 55.6438 65.7588 54.0271 66.6202 52.7856L69.8002 48.2031C70.6692 46.9509 69.6534 45.0668 67.9834 44.8332L61.9656 43.9911C60.2928 43.757 58.7104 42.8368 57.6326 41.4712L53.7418 36.5415Z" fill="url(#paint8_radial_228_30705)"/>
</mask>
<g mask="url(#mask17_228_30705)">
<g filter="url(#filter25_f_228_30705)">
<path d="M51.658 35.4688L53.8753 50.7259L37.7044 47.7791L53.6807 52.2073L47.5087 66.833L55.1173 53.0375L67.8698 65.3665L56.1998 52.0692L70.1776 46.348L55.4322 50.6406L51.658 35.4688Z" fill="#FFF61C"/>
</g>
</g>
<g filter="url(#filter26_f_228_30705)">
<path d="M53.4559 51.8135C53.6065 52.5781 54.3593 53.1634 55.1375 53.1207C55.9156 53.078 56.4243 52.4236 56.2738 51.659C56.1232 50.8944 55.3704 50.3091 54.5923 50.3518C53.8141 50.3945 53.3054 51.0489 53.4559 51.8135Z" fill="#FFFFF6"/>
</g>
<path d="M54.1782 36.246C52.8044 34.5058 50.1749 34.65 49.5084 36.5021L47.621 41.7484C47.1503 43.0572 46.0782 44.0229 44.6861 44.3927L39.1252 45.8695C37.1725 46.3882 36.844 48.8608 38.5373 50.292L43.434 54.4322C44.6286 55.442 45.3804 56.846 45.4954 58.2842L45.9678 64.1924C46.1317 66.2421 48.5504 67.6329 50.2748 66.669L55.1216 63.9586C56.3519 63.2707 57.9098 63.1852 59.3818 63.725L65.1811 65.8515C67.2441 66.6078 69.0693 64.9842 68.4311 62.9604L66.5916 57.1272C66.1439 55.7073 66.3326 54.2517 67.1083 53.1338L70.2884 48.5507C71.3874 46.9663 70.102 44.5822 67.9891 44.2866L61.9716 43.4447C60.4652 43.2339 59.0398 42.4051 58.0692 41.1754L54.1782 36.246Z" stroke="black" stroke-width="1.12312"/>
</g>
<g filter="url(#filter27_i_228_30705)">
<path d="M132.826 54.4429C134.35 57.1144 135.981 64.2304 133.792 68.0173C131.056 72.751 123.208 73.3713 122.593 77.8298C121.977 82.2883 127.684 88.9448 131.13 94.1534C134.575 99.3619 135.676 107.021 128.205 123.155C120.733 139.289 108.17 146.641 100.246 147.819C92.3214 148.996 80.9471 146.868 70.6483 146.482C60.3495 146.096 50.7617 144.086 39.34 137.078C27.9182 130.071 20.3863 118.808 18.1073 107.892C15.8282 96.9759 17.2583 84.4246 22.8325 77.3703C28.3524 70.3845 38.3146 62.6303 38.4391 62.5415C38.3295 62.5653 31.7021 55.9923 29.8569 51.585C28.0061 47.1646 33.7498 39.5606 37.7765 38.1015C36.8589 40.3929 34.7486 44.4986 37.4998 46.9609C40.251 49.4232 48.7798 54.3869 56.2036 59.5768C63.6275 64.7666 74.8887 68.2145 80.0203 65.3261C85.1519 62.4377 86.5944 53.3606 92.3152 51.6894C98.0359 50.0182 106.683 55.9449 111.84 58.3606C116.996 60.7764 122.912 62.8053 126.97 61.2069C130.173 59.9453 131.75 56.7554 132.826 54.4429Z" fill="#B75A1D"/>
</g>
<path d="M38.3892 38.3468C37.9085 39.5472 37.1944 41.0512 36.9116 42.5869C36.6339 44.0954 36.8076 45.4555 37.9401 46.4691C39.2675 47.657 42.0328 49.481 45.4576 51.6918C48.856 53.8856 52.8576 56.4326 56.5821 59.0362C60.2299 61.5863 64.8301 63.7126 69.1394 64.8424C71.2927 65.407 73.3551 65.7182 75.1771 65.7165C77.0053 65.7147 78.5469 65.3981 79.6963 64.7513C80.8642 64.0939 81.851 63.0671 82.7707 61.82C83.6937 60.5682 84.5121 59.1477 85.3818 57.7097C87.0756 54.9091 88.9863 51.9742 92.1307 51.0556C95.243 50.1467 99.0369 51.3148 102.559 52.8897C104.343 53.6874 106.103 54.6129 107.729 55.4826C109.365 56.3575 110.851 57.1684 112.12 57.7627C114.68 58.9621 117.4 60.0517 119.965 60.646C122.543 61.2431 124.881 61.3206 126.729 60.593C129.655 59.4405 131.138 56.5051 132.228 54.1646L132.767 53.0068L133.4 54.1164C134.216 55.548 135.024 58.0841 135.356 60.7293C135.686 63.3595 135.567 66.2644 134.363 68.3476C132.882 70.9094 130.034 72.335 127.714 73.6059C126.517 74.2612 125.455 74.8734 124.653 75.5778C123.863 76.2709 123.371 77.0124 123.246 77.9201C123.113 78.8819 123.317 80.0154 123.8 81.2962C124.281 82.5715 125.02 83.9433 125.899 85.3627C126.778 86.7802 127.785 88.2261 128.794 89.6515C129.799 91.0707 130.811 92.4758 131.68 93.7892C133.479 96.5087 134.655 99.8644 134.42 104.59C134.186 109.29 132.557 115.326 128.803 123.432C121.249 139.743 108.512 147.257 100.342 148.471C96.2962 149.072 91.4025 148.827 86.2824 148.394C81.1319 147.959 75.753 147.334 70.6238 147.142C60.2323 146.753 50.5296 144.718 38.9952 137.641C27.4227 130.541 19.7785 119.126 17.4613 108.027C16.3067 102.497 16.0912 96.5527 16.8718 91.0899C17.6515 85.6342 19.432 80.6091 22.3143 76.9613C25.1115 73.4213 29.0182 69.7051 32.2225 66.8749C34.51 64.8546 36.4606 63.2688 37.4209 62.5038C37.255 62.3409 37.0584 62.1455 36.8389 61.9207C36.1654 61.2308 35.2605 60.2633 34.3005 59.1569C32.3987 56.965 30.2154 54.1502 29.248 51.8395C28.7121 50.5593 28.7455 49.0989 29.1076 47.658C29.4708 46.2129 30.1764 44.7353 31.0586 43.3738C32.8053 40.678 35.3478 38.2795 37.5515 37.4809L38.9369 36.9791L38.3892 38.3468Z" stroke="black" stroke-width="1.31979"/>
<mask id="mask18_228_30705" style="mask-type:alpha" maskUnits="userSpaceOnUse" x="17" y="38" width="118" height="111">
<path d="M35.4985 40.913C35.3407 41.4088 35.2017 41.912 35.11 42.4061C34.7764 44.2041 34.9489 46.2232 36.7325 47.8195C38.1924 49.1261 41.108 51.0405 44.4756 53.2144C47.8894 55.4181 51.8544 57.9421 55.5441 60.5215C59.3677 63.1945 64.1637 65.4108 68.6797 66.5948C70.9398 67.1874 73.1619 67.5307 75.1794 67.5287C77.1861 67.5267 79.069 67.183 80.5846 66.33C82.0681 65.4949 83.2355 64.2419 84.2282 62.8956C85.2147 61.5578 86.0922 60.0354 86.9312 58.6482C88.689 55.7419 90.2729 53.4866 92.6378 52.7956C95.0585 52.0885 98.2986 52.9701 101.819 54.5443C103.539 55.3136 105.252 56.2117 106.875 57.08C108.481 57.9391 110.027 58.7828 111.351 59.4035C113.961 60.6259 116.812 61.7757 119.557 62.4114C122.281 63.0423 125.046 63.2027 127.392 62.2786C129.996 61.2531 131.625 59.1375 132.73 57.1865C133.082 58.2815 133.388 59.5899 133.56 60.9564C133.874 63.4659 133.698 65.8798 132.795 67.4421C131.624 69.4687 129.33 70.656 126.844 72.0179C125.664 72.664 124.432 73.3629 123.459 74.2171C122.463 75.0912 121.656 76.1981 121.452 77.6734C121.262 79.0545 121.569 80.5133 122.105 81.9356C122.645 83.3673 123.452 84.8519 124.36 86.3174C125.27 87.7861 126.305 89.2711 127.316 90.6984C128.334 92.1365 129.322 93.507 130.17 94.7893C131.76 97.1922 132.827 100.167 132.612 104.501C132.394 108.877 130.864 114.674 127.16 122.672C119.832 138.496 107.573 145.566 100.076 146.681C96.261 147.247 91.5577 147.024 86.4348 146.591C81.364 146.163 75.876 145.528 70.6913 145.334C60.5544 144.954 51.1668 142.985 39.9419 136.098C28.7833 129.252 21.4463 118.255 19.2337 107.657C18.1206 102.326 17.9145 96.5938 18.6642 91.3472C19.4157 86.0884 21.115 81.4018 23.7356 78.0852C26.4307 74.6745 30.2394 71.0435 33.4211 68.2333C35.0061 66.8334 36.4244 65.6466 37.4533 64.8053C38.4791 63.9664 39.09 63.4935 39.1071 63.4799L38.195 61.4179C38.5378 61.3436 38.8056 61.451 38.8384 61.4633C38.9217 61.4945 38.9822 61.5284 39.0068 61.5428C39.0601 61.5737 39.0964 61.6011 39.1017 61.6052C39.119 61.6181 39.1213 61.6218 39.1009 61.6041C39.0648 61.5726 39.0014 61.514 38.9087 61.4257C38.7262 61.2519 38.4608 60.9905 38.1345 60.6563C37.483 59.9889 36.6022 59.0482 35.668 57.9715C33.768 55.7817 31.7633 53.1583 30.9188 51.1416L30.9038 51.1079L30.8587 50.9913C30.7564 50.68 30.6755 50.0882 30.7508 49.2384C30.8336 48.3037 31.0976 47.1644 31.6175 45.9599C32.3474 44.2689 33.5756 42.4617 35.4985 40.913Z" fill="#D9D9D9" stroke="black" stroke-width="2.30217"/>
</mask>
<g mask="url(#mask18_228_30705)">
<path d="M83.8177 87.2426C88.3439 79.6892 91.6222 71.8502 88.5305 62.1468C88.1421 60.3894 87.9698 59.9115 89.9074 56.8471C92.3293 53.0167 96.8516 55.9128 108.305 60.7124C125.171 66.07 130.135 64.3967 131.265 61.7877C132.168 59.7005 133.034 54.4295 133.353 52.0548C134.361 53.8977 136.518 59.1381 137.087 65.3565C137.797 73.1297 126.861 75.7688 128.071 79.3435C129.282 82.9181 138.223 89.4534 140.106 95.0141C141.989 100.575 133.299 125.121 127.308 136.978C121.317 148.835 101.913 150.888 73.0475 148.796C101.978 142.189 110.501 116.105 110.062 103.752C109.624 91.3989 82.6705 91.4383 83.8177 87.2426Z" fill="#98491F"/>
<g filter="url(#filter28_i_228_30705)">
<path d="M85.4775 80.626C75.3379 80.2632 50.8102 70.5304 39.8138 65.7094L27.9147 62.7754L25.9856 35.1005L147.854 54.5914C149.045 57.9116 151.072 65.8798 149.65 71.1916C147.043 74.4894 143.148 73.091 133.155 71.7168C123.162 70.3425 114.616 63.1273 108.129 61.8014C101.642 60.4754 100.178 63.2857 99.6342 69.332C99.0899 75.3784 98.1521 81.0795 85.4775 80.626Z" fill="url(#paint9_linear_228_30705)"/>
</g>
</g>
<g filter="url(#filter29_di_228_30705)">
<path d="M116.281 76.3213C121.648 75.2889 124.111 75.0108 123.964 77.4515C123.476 80.9811 115.878 83.9076 101.208 88.6973C86.0551 93.6446 76.6987 93.4536 63.439 88.026C48.1847 81.7819 46.2665 73.9176 40.3413 71.5851C34.4161 69.2525 30.2217 65.0666 34.667 60.5792C39.9464 55.2498 46.3421 64.5718 55.8875 70.3029C66.1695 76.4763 79.4428 79.7892 90.1338 79.785C102.44 79.7803 110.915 77.3536 116.281 76.3213Z" fill="#F4CE29"/>
<path d="M125.103 77.6087C124.927 78.8905 124.123 79.9701 123.005 80.9064C121.882 81.846 120.324 82.7426 118.392 83.6449C114.524 85.4509 108.89 87.4008 101.566 89.792C93.9219 92.2876 87.6584 93.5138 81.5921 93.4028C75.5179 93.2916 69.72 91.8408 63.0032 89.0914C55.2131 85.9026 50.7994 82.2827 47.59 79.1645C46.7956 78.3926 46.0749 77.6513 45.4087 76.9705C44.7375 76.2848 44.1244 75.6634 43.5213 75.1031C42.3182 73.9851 41.2101 73.1638 39.9199 72.6558C36.8794 71.4589 34.0791 69.7173 32.65 67.5176C31.916 66.3876 31.5213 65.0985 31.7034 63.7137C31.8841 62.3388 32.6136 61.016 33.849 59.7689C35.4105 58.1925 37.1593 57.6358 39.0316 57.9045C40.7989 58.1583 42.5754 59.1346 44.3315 60.3457C46.0978 61.5638 48.0085 63.1419 50.0004 64.7128C52.0158 66.3023 54.1591 67.9224 56.4805 69.3162C66.5737 75.3761 79.6401 78.6385 90.1336 78.6344C102.298 78.6297 110.616 76.2387 116.064 75.1905C118.69 74.6854 120.825 74.3141 122.286 74.4368C123.033 74.4994 123.826 74.7049 124.403 75.2959C125.009 75.916 125.16 76.7319 125.113 77.5213L125.109 77.5652L125.103 77.6087Z" stroke="black" stroke-width="2.30217"/>
</g>
<g filter="url(#filter30_d_228_30705)">
<path d="M46.9736 78.0884L49.3943 79.7469L49.4571 79.7891L49.5133 79.8404C52.1789 82.2337 55.9458 89.676 53.2738 100.078C50.5659 110.619 41.6911 115.855 37.5328 117.181L36.4363 117.53L36.0863 116.434C34.9376 112.837 31.6255 104.032 27.605 97.6232L26.9269 96.5419L28.0724 95.9777C33.1201 93.495 37.3002 89.5588 40.2985 85.9955C41.7933 84.2188 42.9819 82.5491 43.8258 81.2269C44.6961 79.8633 45.1394 78.9616 45.2245 78.6919L45.6921 77.2104L46.9736 78.0884Z" fill="url(#paint10_linear_228_30705)" stroke="black" stroke-width="2.30217"/>
<mask id="mask19_228_30705" style="mask-type:alpha" maskUnits="userSpaceOnUse" x="28" y="81" width="26" height="36">
<path d="M48.2779 82.4847C50.3311 84.8364 53.2968 90.765 51.0515 99.5054C48.8183 108.198 41.8967 112.936 37.9066 114.592C36.5602 110.647 33.683 103.293 30.1739 97.403C35.9308 93.8447 38.7001 89.9071 39.5493 87.8L48.2779 82.4847Z" fill="#D9D9D9" stroke="black" stroke-width="2.30217"/>
</mask>
<g mask="url(#mask19_228_30705)">
<path d="M48.4258 90.9209C46.2941 100.529 39.619 104.984 36.5479 106.011C36.7353 106.743 37.1543 109.831 37.3304 116.333C41.0449 116.836 47.9301 112.98 52.0946 104.095C55.4262 96.987 54.2492 88.3229 53.2443 84.8794L48.9621 82.5478C49.0712 83.1821 49.1166 85.7447 48.4258 90.9209Z" fill="#CD8622"/>
</g>
<path d="M46.0779 97.2974C48.1708 90.8679 49.1553 84.5407 48.4025 80.461C48.746 80.1899 49.9927 81.6308 50.4176 82.254C50.6734 85.8862 49.6752 90.6284 46.0779 97.2974Z" fill="black"/>
<path d="M24.3286 99.6273C24.8551 98.079 25.792 97.0814 26.9396 96.519C28.0451 95.9774 29.251 95.8856 30.2812 95.9379C34.3808 96.1464 37.6654 99.7944 39.7031 105.132C40.7568 107.892 41.055 110.618 40.4594 112.892C39.8511 115.214 38.3102 117.027 35.8624 117.779C33.178 118.603 30.8786 117.191 29.2197 115.436C27.5422 113.662 26.2489 111.279 25.4422 109.414C23.8275 105.68 23.3318 102.559 24.3286 99.6273Z" fill="url(#paint11_linear_228_30705)" stroke="black" stroke-width="2.30217"/>
</g>
<g filter="url(#filter31_d_228_30705)">
<path d="M35.7683 71.505L46.895 74.5564L47.7204 74.7827L47.7414 75.6374C47.8285 79.17 45.4838 87.0273 36.0387 92.2456C26.512 97.509 16.6137 94.6448 12.7961 92.5294L11.7896 91.9724L12.3467 90.9649C14.1757 87.6606 18.308 79.2105 20.2113 71.8887L20.5122 70.7304L21.6583 71.076C28.8793 73.2527 33.6677 72.2058 34.9625 71.579L35.3513 71.3912L35.7683 71.505Z" fill="url(#paint12_linear_228_30705)" stroke="black" stroke-width="2.30217"/>
<mask id="mask20_228_30705" style="mask-type:alpha" maskUnits="userSpaceOnUse" x="13" y="72" width="34" height="23">
<path d="M45.4035 76.5344C45.1016 79.6417 42.8238 85.867 34.9249 90.231C27.0692 94.5709 18.8732 92.7868 14.9308 91.0204C16.8763 87.3345 20.2522 80.195 22.1289 73.601C28.6676 75.3472 33.4321 74.66 35.5477 73.832L45.4035 76.5344Z" fill="url(#paint13_linear_228_30705)" stroke="black" stroke-width="2.30217"/>
</mask>
<g mask="url(#mask20_228_30705)">
<path d="M39.3721 82.4306C30.9199 87.4727 23.0987 85.6739 20.2447 84.1443C19.8411 84.7827 17.8815 87.2069 13.2727 91.7963C15.4555 94.8435 22.9847 97.2064 32.3059 94.1392C39.7627 91.6854 45.2578 84.8843 47.0733 81.7904L45.8311 77.0755C45.4446 77.59 43.6116 79.3814 39.3721 82.4306Z" fill="#CD8622"/>
</g>
<path d="M33.1285 85.1066C39.2417 82.2174 42.1498 79.3967 43.3451 77.638C43.778 77.7018 45.106 77.7595 46.9547 77.479C44.2108 80.553 40.4482 83.1474 33.1285 85.1066Z" fill="black"/>
<path d="M14.5482 70.5417C15.9374 69.6222 17.3061 69.4134 18.5689 69.7098C19.7797 69.9941 20.7747 70.7142 21.5362 71.4306C24.5561 74.2716 24.7753 79.364 22.9637 85.0399C22.0284 87.9701 20.5352 90.3802 18.6371 91.8431C16.6957 93.3392 14.3366 93.8244 11.9428 92.8254C9.33147 91.7355 8.46784 89.0807 8.30389 86.5934C8.13702 84.0606 8.64986 81.2784 9.21106 79.2303C10.3328 75.1368 11.9239 72.2788 14.5482 70.5417Z" fill="url(#paint14_linear_228_30705)" stroke="black" stroke-width="2.30217"/>
</g>
<g filter="url(#filter32_i_228_30705)">
<path d="M52.9022 64.1914C49.2655 63.0504 46.5638 63.9611 45.6676 64.5591C50.2349 65.7576 53.5912 68.8714 55.1668 71.1714C56.7423 73.4714 59.0027 80.4093 59.393 84.4388C60.527 83.0808 63.813 76.8771 62.3092 72.9148C60.8472 69.0627 57.448 65.6177 52.9022 64.1914Z" fill="#F4CE29"/>
</g>
<path d="M45.0289 63.6017C46.2346 62.7972 49.3015 61.8551 53.247 63.093C58.1357 64.6269 61.8009 68.3307 63.3858 72.5066C64.2882 74.8847 63.7229 77.759 62.9273 80.0332C62.1214 82.3366 60.9567 84.3618 60.276 85.1769L58.5126 87.2886L58.247 84.5498C58.0631 82.6507 57.4273 79.9965 56.6284 77.5083C55.8211 74.9934 54.9033 72.8238 54.2174 71.8224C52.7651 69.7023 49.6235 66.7873 45.3758 65.6725L42.8984 65.0229L45.0289 63.6017Z" stroke="black" stroke-width="2.30217"/>
<g filter="url(#filter33_i_228_30705)">
<path d="M46.3857 64.8479C42.8394 64.2069 41.7518 66.4168 41.6513 67.6019C43.2036 68.6997 46.8373 71.6216 48.9543 74.5268C51.0712 77.432 51.7074 83.0944 51.6551 85.6425C51.8534 88.3203 54.5283 89.7876 57.2345 87.738C60.6172 85.1761 59.0998 78.3407 57.012 74.2662C54.9242 70.1917 50.8185 65.6493 46.3857 64.8479Z" fill="#F4CE29"/>
</g>
<path d="M46.5902 63.7148C49.1067 64.1697 51.4373 65.6621 53.3704 67.4941C55.3133 69.3353 56.9376 71.5974 58.0364 73.7417C59.1356 75.8871 60.0896 78.7584 60.322 81.4707C60.5491 84.1212 60.1091 87.0043 57.9292 88.6553C56.3187 89.8751 54.5381 90.1632 53.0483 89.5203C51.5728 88.8834 50.6335 87.4367 50.5069 85.7279L50.5036 85.6732L50.5042 85.6191C50.5285 84.4332 50.3913 82.4637 49.9895 80.4434C49.5825 78.3973 48.9341 76.4529 48.0244 75.2045C46.017 72.4496 42.5023 69.6135 40.9868 68.5417L40.4488 68.1608L40.5039 67.5049C40.5748 66.6692 40.9798 65.5169 41.9795 64.6644C43.0219 63.7756 44.5512 63.3463 46.5902 63.7148Z" stroke="black" stroke-width="2.30217"/>
<g filter="url(#filter34_i_228_30705)">
<path d="M41.4083 67.9471C37.7955 66.691 36.0268 68.5296 35.6166 71.5018C35.1806 74.6599 37.6035 76.3833 42.1948 77.3321C47.7166 78.4731 50.2168 81.8471 51.1369 83.8673C51.2395 83.1242 51.5667 79.3831 50.4396 76.5772C48.9585 72.8898 45.9243 69.5171 41.4083 67.9471Z" fill="#F4CE29"/>
</g>
<path d="M36.6431 67.2019C37.9963 66.2365 39.7688 66.1588 41.786 66.8601C46.6491 68.5508 49.9158 72.1856 51.5074 76.1481C52.1426 77.7294 52.3518 79.5183 52.4001 80.9569C52.4487 82.4061 52.3368 83.5931 52.2772 84.0246L51.7344 87.9561L50.0889 84.3446C49.2913 82.5934 47.0591 79.5123 41.962 78.459C39.6081 77.9726 37.6268 77.2567 36.2803 76.1268C34.9388 75.0008 34.2888 73.512 34.4366 71.7091L34.4761 71.3439C34.7024 69.7048 35.3329 68.1366 36.6431 67.2019Z" stroke="black" stroke-width="2.30217"/>
<path d="M73.9722 131.513C71.953 126.832 67.6438 126.627 63.5204 127.81C61.0011 128.988 59.7401 129.936 60.3597 133.669C61.1342 138.336 65.1989 139.503 68.6568 139.832C72.6324 140.211 76.1412 136.541 73.9722 131.513Z" fill="#98491F"/>
<g filter="url(#filter35_d_228_30705)">
<path d="M113.811 126.559C115.229 125.529 117.199 126.202 117.309 127.754L117.704 133.316C117.814 134.856 118.669 136.211 120.045 137.025L124.998 139.954C126.373 140.767 126.094 142.718 124.499 143.444L118.663 146.102C117.082 146.822 115.856 148.097 115.301 149.6L113.245 155.159C112.681 156.683 110.543 157.223 109.438 156.121L105.507 152.198C104.399 151.093 102.76 150.533 101.024 150.667L94.8654 151.142C93.1339 151.276 92.0927 149.65 93.0117 148.247L96.3629 143.13C97.2689 141.747 97.5058 140.134 97.013 138.706L95.1937 133.433C94.6965 131.992 96.1848 130.454 97.8557 130.682L103.876 131.502C105.55 131.73 107.323 131.273 108.73 130.25L113.811 126.559Z" fill="#FCB201"/>
<mask id="mask21_228_30705" style="mask-type:alpha" maskUnits="userSpaceOnUse" x="92" y="126" width="34" height="31">
<path d="M113.811 126.559C115.229 125.529 117.199 126.202 117.309 127.754L117.704 133.316C117.814 134.856 118.669 136.211 120.045 137.025L124.998 139.954C126.373 140.767 126.094 142.718 124.499 143.444L118.663 146.102C117.082 146.822 115.856 148.097 115.301 149.6L113.245 155.159C112.681 156.683 110.543 157.223 109.438 156.121L105.507 152.198C104.399 151.093 102.76 150.533 101.024 150.667L94.8654 151.142C93.1339 151.276 92.0927 149.65 93.0117 148.247L96.3629 143.13C97.2689 141.747 97.5058 140.134 97.013 138.706L95.1937 133.433C94.6965 131.992 96.1848 130.454 97.8556 130.682L103.876 131.502C105.55 131.73 107.323 131.273 108.73 130.25L113.811 126.559Z" fill="#FCB201"/>
</mask>
<g mask="url(#mask21_228_30705)">
<path d="M117.772 135.152L108.765 140.565L124.205 141.779L126.193 141.72L125.48 139.261L117.772 135.152Z" fill="#F7DE31"/>
<path d="M107.444 140.853L97.1706 141.035L93.8869 132.056L95.9638 129.601L106.421 131.275L115.656 124.463L117.789 125.191L118.613 135.809L108.111 141.081L107.444 140.853Z" fill="#F99C00"/>
<path d="M95.3258 131.544L108.435 140.452L116.419 125.46L97.2836 129.998L95.3258 131.544Z" fill="#FFC61D"/>
<path d="M108.605 140.88L116.415 125.46L117.257 126.117L118.614 135.809L108.605 140.88Z" fill="#FAC41A"/>
<path d="M92.3851 150.474L108.76 140.564L111.587 157.403L92.3851 150.474Z" fill="#F08500"/>
<path d="M126.196 141.721L108.101 140.338L116.537 147.65L125.399 143.294L126.196 141.721Z" fill="#F79D00"/>
</g>
<mask id="mask22_228_30705" style="mask-type:alpha" maskUnits="userSpaceOnUse" x="92" y="126" width="34" height="31">
<path d="M113.811 126.559C115.229 125.529 117.199 126.202 117.309 127.754L117.704 133.316C117.814 134.856 118.669 136.211 120.045 137.025L124.998 139.954C126.373 140.767 126.094 142.718 124.499 143.444L118.663 146.102C117.082 146.822 115.856 148.097 115.301 149.6L113.245 155.159C112.681 156.683 110.543 157.223 109.438 156.121L105.507 152.198C104.399 151.093 102.76 150.533 101.024 150.667L94.8654 151.142C93.1339 151.276 92.0927 149.65 93.0117 148.247L96.3629 143.13C97.2689 141.747 97.5058 140.134 97.013 138.706L95.1937 133.433C94.6965 131.992 96.1848 130.454 97.8556 130.682L103.876 131.502C105.55 131.73 107.323 131.273 108.73 130.25L113.811 126.559Z" fill="url(#paint15_radial_228_30705)"/>
</mask>
<g mask="url(#mask22_228_30705)">
<g filter="url(#filter36_f_228_30705)">
<path d="M116.099 126.09L109.83 140.176L126.195 141.721L109.616 141.654L111.594 157.405L108.009 142.064L92.3923 150.477L107.229 140.839L95.3243 131.544L108.355 139.672L116.099 126.09Z" fill="#FFF61C"/>
</g>
</g>
<g filter="url(#filter37_f_228_30705)">
<path d="M109.94 141.336C109.588 142.031 108.705 142.391 107.968 142.139C107.23 141.887 106.918 141.119 107.27 140.424C107.622 139.729 108.505 139.369 109.243 139.621C109.98 139.873 110.293 140.641 109.94 141.336Z" fill="#FFFFF6"/>
</g>
<path d="M113.471 126.157C115.265 124.854 117.757 125.705 117.897 127.668L118.292 133.23C118.391 134.617 119.161 135.837 120.401 136.57L125.353 139.499C127.093 140.527 126.739 142.996 124.721 143.915L118.886 146.574C117.462 147.222 116.358 148.37 115.858 149.723L113.802 155.282C113.089 157.211 110.384 157.894 108.985 156.499L105.054 152.577C104.056 151.581 102.58 151.077 101.016 151.197L94.8579 151.673C92.667 151.842 91.3501 149.785 92.5128 148.009L95.864 142.893C96.6798 141.647 96.8926 140.195 96.4488 138.909L94.6295 133.636C94.001 131.813 95.8843 129.866 97.9983 130.154L104.019 130.974C105.526 131.179 107.123 130.768 108.39 129.847L113.471 126.157Z" stroke="black" stroke-width="1.12312"/>
</g>
<g filter="url(#filter38_d_228_30705)">
<path d="M85.1558 130.663C84.0701 129.287 81.9914 129.401 81.4648 130.865L79.5776 136.112C79.0549 137.565 77.8648 138.638 76.3189 139.048L70.7578 140.525C69.2145 140.935 68.9544 142.889 70.2927 144.02L75.1901 148.16C76.5168 149.281 77.3511 150.841 77.4788 152.438L77.9513 158.346C78.0808 159.966 79.9927 161.065 81.3555 160.303L86.2023 157.593C87.5685 156.829 89.2978 156.734 90.9325 157.334L96.7316 159.46C98.3622 160.058 99.805 158.775 99.3006 157.175L97.4611 151.342C96.9639 149.765 97.1728 148.149 98.0343 146.907L101.214 142.325C102.083 141.072 101.068 139.188 99.3975 138.955L93.3797 138.113C91.7068 137.878 90.1245 136.958 89.0467 135.593L85.1558 130.663Z" fill="#FCB201"/>
<mask id="mask23_228_30705" style="mask-type:alpha" maskUnits="userSpaceOnUse" x="69" y="129" width="33" height="32">
<path d="M85.1558 130.663C84.0701 129.287 81.9914 129.401 81.4648 130.865L79.5776 136.112C79.0549 137.565 77.8648 138.638 76.3189 139.048L70.7578 140.525C69.2145 140.935 68.9544 142.889 70.2927 144.02L75.1901 148.16C76.5168 149.281 77.3511 150.841 77.4788 152.438L77.9513 158.346C78.0808 159.966 79.9927 161.065 81.3555 160.303L86.2023 157.593C87.5685 156.829 89.2978 156.734 90.9325 157.334L96.7316 159.46C98.3622 160.058 99.805 158.775 99.3006 157.175L97.4611 151.342C96.9639 149.765 97.1728 148.149 98.0343 146.907L101.214 142.325C102.083 141.072 101.068 139.188 99.3975 138.955L93.3797 138.113C91.7068 137.878 90.1245 136.958 89.0467 135.593L85.1558 130.663Z" fill="#FCB201"/>
</mask>
<g mask="url(#mask23_228_30705)">
<path d="M79.0061 137.858L86.2093 145.51L71.0182 142.495L69.1208 141.899L70.473 139.726L79.0061 137.858Z" fill="#F7DE31"/>
<path d="M87.4127 146.147L97.2522 149.106L102.846 141.352L101.512 138.426L90.9924 137.204L83.9485 128.144L81.6988 128.268L78.0281 138.265L86.7083 146.185L87.4127 146.147Z" fill="#F99C00"/>
<path d="M101.603 140.47L86.5705 145.493L82.9471 128.898L100.137 138.451L101.603 140.47Z" fill="#FFC61D"/>
<path d="M86.2858 145.858L82.9465 128.899L81.958 129.303L78.026 138.265L86.2858 145.858Z" fill="#FAC41A"/>
<path d="M99.2853 159.487L86.2084 145.51L78.9242 160.953L99.2853 159.487Z" fill="#F08500"/>
<path d="M69.1254 141.9L86.9184 145.473L76.8171 150.225L69.4662 143.631L69.1254 141.9Z" fill="#F79D00"/>
</g>
<mask id="mask24_228_30705" style="mask-type:alpha" maskUnits="userSpaceOnUse" x="69" y="129" width="33" height="32">
<path d="M85.1558 130.663C84.0701 129.287 81.9914 129.401 81.4648 130.865L79.5776 136.112C79.0549 137.565 77.8648 138.638 76.3189 139.048L70.7578 140.525C69.2145 140.935 68.9544 142.889 70.2927 144.02L75.1901 148.16C76.5168 149.281 77.3511 150.841 77.4788 152.438L77.9513 158.346C78.0808 159.966 79.9927 161.065 81.3555 160.303L86.2023 157.593C87.5685 156.829 89.2978 156.734 90.9325 157.334L96.7316 159.46C98.3622 160.058 99.805 158.775 99.3006 157.175L97.4611 151.342C96.9639 149.765 97.1728 148.149 98.0343 146.907L101.214 142.325C102.083 141.072 101.068 139.188 99.3975 138.955L93.3797 138.113C91.7068 137.878 90.1245 136.958 89.0467 135.593L85.1558 130.663Z" fill="url(#paint16_radial_228_30705)"/>
</mask>
<g mask="url(#mask24_228_30705)">
<g filter="url(#filter39_f_228_30705)">
<path d="M83.0721 129.59L85.2894 144.848L69.1185 141.901L85.0947 146.329L78.9228 160.955L86.5314 147.159L99.2839 159.488L87.6139 146.191L101.592 140.47L86.8463 144.762L83.0721 129.59Z" fill="#FFF61C"/>
</g>
</g>
<g filter="url(#filter40_f_228_30705)">
<path d="M84.87 145.935C85.0206 146.7 85.7734 147.285 86.5515 147.243C87.3296 147.2 87.8384 146.545 87.6878 145.781C87.5373 145.016 86.7844 144.431 86.0063 144.474C85.2282 144.516 84.7195 145.171 84.87 145.935Z" fill="#FFFFF6"/>
</g>
<path d="M85.5923 130.368C84.2185 128.627 81.5889 128.772 80.9225 130.624L79.0351 135.87C78.5644 137.179 77.4922 138.145 76.1001 138.514L70.5393 139.991C68.5865 140.51 68.2581 142.982 69.9513 144.414L74.848 148.554C76.0427 149.564 76.7944 150.968 76.9095 152.406L77.3819 158.314C77.5458 160.364 79.9645 161.755 81.6888 160.791L86.5357 158.08C87.766 157.392 89.3239 157.307 90.7959 157.847L96.5951 159.973C98.6582 160.729 100.483 159.106 99.8452 157.082L98.0057 151.249C97.558 149.829 97.7467 148.373 98.5224 147.256L101.702 142.672C102.801 141.088 101.516 138.704 99.4031 138.408L93.3857 137.566C91.8793 137.356 90.4538 136.527 89.4833 135.297L85.5923 130.368Z" stroke="black" stroke-width="1.12312"/>
</g>
<g filter="url(#filter41_d_228_30705)">
<path d="M50.0109 124.111C50.103 122.481 48.3159 121.414 46.8376 122.215L41.5401 125.087C40.0727 125.882 38.33 126.023 36.7682 125.472L31.1496 123.491C29.5904 122.941 27.9808 124.256 28.2705 125.843L29.3308 131.652C29.6181 133.225 29.1883 134.853 28.1518 136.117L24.3175 140.791C23.2662 142.073 24.0494 143.955 25.7122 144.142L31.6258 144.806C33.2927 144.993 34.7794 145.881 35.6924 147.236L38.9311 152.041C39.8418 153.392 41.9425 153.234 42.6716 151.759L45.3307 146.382C46.0495 144.928 47.3762 143.837 48.9701 143.387L54.854 141.729C56.4618 141.275 56.9746 139.305 55.7713 138.204L51.4354 134.237C50.2301 133.134 49.5893 131.569 49.6807 129.951L50.0109 124.111Z" fill="#FCB201"/>
<mask id="mask25_228_30705" style="mask-type:alpha" maskUnits="userSpaceOnUse" x="23" y="121" width="34" height="32">
<path d="M50.0109 124.111C50.103 122.481 48.3159 121.414 46.8376 122.215L41.5401 125.087C40.0727 125.882 38.33 126.023 36.7682 125.472L31.1496 123.491C29.5904 122.941 27.9808 124.256 28.2705 125.843L29.3308 131.652C29.6181 133.225 29.1883 134.853 28.1518 136.117L24.3175 140.791C23.2662 142.073 24.0494 143.955 25.7122 144.142L31.6258 144.806C33.2927 144.993 34.7794 145.881 35.6924 147.236L38.9311 152.041C39.8418 153.392 41.9425 153.234 42.6716 151.759L45.3307 146.382C46.0495 144.928 47.3762 143.837 48.9701 143.387L54.854 141.729C56.4618 141.275 56.9746 139.305 55.7713 138.204L51.4354 134.237C50.2301 133.134 49.5893 131.569 49.6807 129.951L50.0109 124.111Z" fill="#FCB201"/>
</mask>
<g mask="url(#mask25_228_30705)">
<path d="M39.828 126.078L40.2707 135.789L29.9608 125.11L28.8296 123.613L31.4921 122.74L39.828 126.078Z" fill="#F7DE31"/>
<path d="M40.7905 136.923L46.7495 144.591L56.88 141.903L57.876 138.978L50.1178 132.23L50.812 121.556L48.8779 120.4L38.7223 125.831L40.1848 136.561L40.7905 136.923Z" fill="#F99C00"/>
<path d="M56.4933 140.557L40.5698 135.97L49.4546 121.566L56.7333 138.236L56.4933 140.557Z" fill="#FFC61D"/>
<path d="M40.0753 136.085L49.4543 121.566L48.3545 121.319L38.7243 125.832L40.0753 136.085Z" fill="#FAC41A"/>
<path d="M41.0089 153.481L40.2665 135.788L23.2544 143.282L41.0089 153.481Z" fill="#F08500"/>
<path d="M28.8255 123.613L40.8723 136.15L29.1882 134.097L27.8685 125.094L28.8255 123.613Z" fill="#F79D00"/>
</g>
<mask id="mask26_228_30705" style="mask-type:alpha" maskUnits="userSpaceOnUse" x="23" y="121" width="34" height="32">
<path d="M50.0109 124.111C50.103 122.481 48.3159 121.414 46.8376 122.215L41.5401 125.087C40.0727 125.882 38.33 126.023 36.7682 125.472L31.1496 123.491C29.5904 122.941 27.9808 124.256 28.2705 125.843L29.3308 131.652C29.6181 133.225 29.1883 134.853 28.1518 136.117L24.3175 140.791C23.2662 142.073 24.0494 143.955 25.7122 144.142L31.6258 144.806C33.2927 144.993 34.7794 145.881 35.6924 147.236L38.9311 152.041C39.8418 153.392 41.9425 153.234 42.6716 151.759L45.3307 146.382C46.0495 144.928 47.3762 143.837 48.9701 143.387L54.854 141.729C56.4618 141.275 56.9746 139.305 55.7713 138.204L51.4354 134.237C50.2301 133.134 49.5893 131.569 49.6807 129.951L50.0109 124.111Z" fill="url(#paint17_radial_228_30705)"/>
</mask>
<g mask="url(#mask26_228_30705)">
<g filter="url(#filter42_f_228_30705)">
<path d="M49.0796 122.159L39.9964 134.785L28.8337 123.614L38.7782 135.783L23.2627 143.284L39.3637 137.2L41.0173 153.482L40.9439 137.077L56.5011 140.558L41.3349 135.585L49.0796 122.159Z" fill="#FFF61C"/>
</g>
</g>
<g filter="url(#filter43_f_228_30705)">
<path d="M38.8677 135.361C38.4449 136.016 38.6444 136.871 39.3134 137.27C39.9823 137.67 40.8674 137.463 41.2902 136.809C41.7131 136.154 41.5136 135.299 40.8446 134.9C40.1757 134.5 39.2906 134.707 38.8677 135.361Z" fill="#FFFFF6"/>
</g>
<path d="M50.58 124.132C50.6964 122.071 48.4358 120.72 46.5654 121.733L41.2679 124.605C39.9464 125.321 38.3767 125.448 36.9702 124.952L31.3521 122.97C29.3792 122.275 27.3428 123.939 27.7094 125.947L28.7688 131.756C29.0274 133.173 28.6409 134.638 27.7077 135.776L23.8734 140.451C22.5432 142.073 23.5339 144.454 25.6376 144.69L31.5513 145.354C33.0524 145.523 34.3917 146.323 35.2138 147.543L38.4526 152.348C39.605 154.057 42.2627 153.857 43.1852 151.991L45.8442 146.614C46.4915 145.305 47.6865 144.323 49.1218 143.918L55.006 142.259C57.04 141.685 57.6889 139.191 56.1665 137.799L51.8307 133.832C50.7453 132.839 50.1679 131.429 50.2502 129.972L50.58 124.132Z" stroke="black" stroke-width="1.12312"/>
</g>
<defs>
<filter id="filter0_d_228_30705" x="56.8118" y="17.8327" width="40.6726" height="37.8806" filterUnits="userSpaceOnUse" color-interpolation-filters="sRGB">
<feFlood flood-opacity="0" result="BackgroundImageFix"/>
<feColorMatrix in="SourceAlpha" type="matrix" values="0 0 0 0 0 0 0 0 0 0 0 0 0 0 0 0 0 0 127 0" result="hardAlpha"/>
<feOffset dx="-0.798446" dy="-0.798446"/>
<feGaussianBlur stdDeviation="1.27751"/>
<feComposite in2="hardAlpha" operator="out"/>
<feColorMatrix type="matrix" values="0 0 0 0 0 0 0 0 0 0 0 0 0 0 0 0 0 0 0.39 0"/>
<feBlend mode="normal" in2="BackgroundImageFix" result="effect1_dropShadow_228_30705"/>
<feBlend mode="normal" in="SourceGraphic" in2="effect1_dropShadow_228_30705" result="shape"/>
</filter>
<filter id="filter1_f_228_30705" x="60.7893" y="21.9951" width="34.3691" height="31.8796" filterUnits="userSpaceOnUse" color-interpolation-filters="sRGB">
<feFlood flood-opacity="0" result="BackgroundImageFix"/>
<feBlend mode="normal" in="SourceGraphic" in2="BackgroundImageFix" result="shape"/>
<feGaussianBlur stdDeviation="0.141102" result="effect1_foregroundBlur_228_30705"/>
</filter>
<filter id="filter2_f_228_30705" x="75.4531" y="35.3756" width="3.66645" height="3.38398" filterUnits="userSpaceOnUse" color-interpolation-filters="sRGB">
<feFlood flood-opacity="0" result="BackgroundImageFix"/>
<feBlend mode="normal" in="SourceGraphic" in2="BackgroundImageFix" result="shape"/>
<feGaussianBlur stdDeviation="0.176377" result="effect1_foregroundBlur_228_30705"/>
</filter>
<filter id="filter3_d_228_30705" x="97.804" y="22.2295" width="39.5007" height="38.1735" filterUnits="userSpaceOnUse" color-interpolation-filters="sRGB">
<feFlood flood-opacity="0" result="BackgroundImageFix"/>
<feColorMatrix in="SourceAlpha" type="matrix" values="0 0 0 0 0 0 0 0 0 0 0 0 0 0 0 0 0 0 127 0" result="hardAlpha"/>
<feOffset dx="-0.798446" dy="-0.798446"/>
<feGaussianBlur stdDeviation="1.27751"/>
<feComposite in2="hardAlpha" operator="out"/>
<feColorMatrix type="matrix" values="0 0 0 0 0 0 0 0 0 0 0 0 0 0 0 0 0 0 0.39 0"/>
<feBlend mode="normal" in2="BackgroundImageFix" result="effect1_dropShadow_228_30705"/>
<feBlend mode="normal" in="SourceGraphic" in2="effect1_dropShadow_228_30705" result="shape"/>
</filter>
<filter id="filter4_f_228_30705" x="101.719" y="26.2996" width="33.041" height="31.9287" filterUnits="userSpaceOnUse" color-interpolation-filters="sRGB">
<feFlood flood-opacity="0" result="BackgroundImageFix"/>
<feBlend mode="normal" in="SourceGraphic" in2="BackgroundImageFix" result="shape"/>
<feGaussianBlur stdDeviation="0.141102" result="effect1_foregroundBlur_228_30705"/>
</filter>
<filter id="filter5_f_228_30705" x="117.367" y="41.1092" width="3.5727" height="3.47883" filterUnits="userSpaceOnUse" color-interpolation-filters="sRGB">
<feFlood flood-opacity="0" result="BackgroundImageFix"/>
<feBlend mode="normal" in="SourceGraphic" in2="BackgroundImageFix" result="shape"/>
<feGaussianBlur stdDeviation="0.176377" result="effect1_foregroundBlur_228_30705"/>
</filter>
<filter id="filter6_d_228_30705" x="93.7204" y="36.2261" width="44.5569" height="44.273" filterUnits="userSpaceOnUse" color-interpolation-filters="sRGB">
<feFlood flood-opacity="0" result="BackgroundImageFix"/>
<feColorMatrix in="SourceAlpha" type="matrix" values="0 0 0 0 0 0 0 0 0 0 0 0 0 0 0 0 0 0 127 0" result="hardAlpha"/>
<feOffset dx="0.798446" dy="2.39534"/>
<feGaussianBlur stdDeviation="1.47713"/>
<feComposite in2="hardAlpha" operator="out"/>
<feColorMatrix type="matrix" values="0 0 0 0 0 0 0 0 0 0 0 0 0 0 0 0 0 0 0.25 0"/>
<feBlend mode="normal" in2="BackgroundImageFix" result="effect1_dropShadow_228_30705"/>
<feBlend mode="normal" in="SourceGraphic" in2="effect1_dropShadow_228_30705" result="shape"/>
</filter>
<filter id="filter7_f_228_30705" x="96.245" y="37.9432" width="37.4421" height="36.8355" filterUnits="userSpaceOnUse" color-interpolation-filters="sRGB">
<feFlood flood-opacity="0" result="BackgroundImageFix"/>
<feBlend mode="normal" in="SourceGraphic" in2="BackgroundImageFix" result="shape"/>
<feGaussianBlur stdDeviation="0.159363" result="effect1_foregroundBlur_228_30705"/>
</filter>
<filter id="filter8_f_228_30705" x="112.876" y="52.5585" width="3.98432" height="3.98468" filterUnits="userSpaceOnUse" color-interpolation-filters="sRGB">
<feFlood flood-opacity="0" result="BackgroundImageFix"/>
<feBlend mode="normal" in="SourceGraphic" in2="BackgroundImageFix" result="shape"/>
<feGaussianBlur stdDeviation="0.199204" result="effect1_foregroundBlur_228_30705"/>
</filter>
<filter id="filter9_d_228_30705" x="32.9524" y="16.3152" width="40.6726" height="37.8806" filterUnits="userSpaceOnUse" color-interpolation-filters="sRGB">
<feFlood flood-opacity="0" result="BackgroundImageFix"/>
<feColorMatrix in="SourceAlpha" type="matrix" values="0 0 0 0 0 0 0 0 0 0 0 0 0 0 0 0 0 0 127 0" result="hardAlpha"/>
<feOffset dx="-0.798446" dy="-0.798446"/>
<feGaussianBlur stdDeviation="1.27751"/>
<feComposite in2="hardAlpha" operator="out"/>
<feColorMatrix type="matrix" values="0 0 0 0 0 0 0 0 0 0 0 0 0 0 0 0 0 0 0.39 0"/>
<feBlend mode="normal" in2="BackgroundImageFix" result="effect1_dropShadow_228_30705"/>
<feBlend mode="normal" in="SourceGraphic" in2="effect1_dropShadow_228_30705" result="shape"/>
</filter>
<filter id="filter10_f_228_30705" x="36.9299" y="20.4774" width="34.3691" height="31.8796" filterUnits="userSpaceOnUse" color-interpolation-filters="sRGB">
<feFlood flood-opacity="0" result="BackgroundImageFix"/>
<feBlend mode="normal" in="SourceGraphic" in2="BackgroundImageFix" result="shape"/>
<feGaussianBlur stdDeviation="0.141102" result="effect1_foregroundBlur_228_30705"/>
</filter>
<filter id="filter11_f_228_30705" x="51.5937" y="33.8581" width="3.66645" height="3.38398" filterUnits="userSpaceOnUse" color-interpolation-filters="sRGB">
<feFlood flood-opacity="0" result="BackgroundImageFix"/>
<feBlend mode="normal" in="SourceGraphic" in2="BackgroundImageFix" result="shape"/>
<feGaussianBlur stdDeviation="0.176377" result="effect1_foregroundBlur_228_30705"/>
</filter>
<filter id="filter12_d_228_30705" x="37.304" y="38.453" width="39.5007" height="38.1735" filterUnits="userSpaceOnUse" color-interpolation-filters="sRGB">
<feFlood flood-opacity="0" result="BackgroundImageFix"/>
<feColorMatrix in="SourceAlpha" type="matrix" values="0 0 0 0 0 0 0 0 0 0 0 0 0 0 0 0 0 0 127 0" result="hardAlpha"/>
<feOffset dx="-0.798446" dy="-0.798446"/>
<feGaussianBlur stdDeviation="1.27751"/>
<feComposite in2="hardAlpha" operator="out"/>
<feColorMatrix type="matrix" values="0 0 0 0 0 0 0 0 0 0 0 0 0 0 0 0 0 0 0.39 0"/>
<feBlend mode="normal" in2="BackgroundImageFix" result="effect1_dropShadow_228_30705"/>
<feBlend mode="normal" in="SourceGraphic" in2="effect1_dropShadow_228_30705" result="shape"/>
</filter>
<filter id="filter13_f_228_30705" x="41.219" y="42.5233" width="33.041" height="31.9287" filterUnits="userSpaceOnUse" color-interpolation-filters="sRGB">
<feFlood flood-opacity="0" result="BackgroundImageFix"/>
<feBlend mode="normal" in="SourceGraphic" in2="BackgroundImageFix" result="shape"/>
<feGaussianBlur stdDeviation="0.141102" result="effect1_foregroundBlur_228_30705"/>
</filter>
<filter id="filter14_f_228_30705" x="56.875" y="57.3333" width="3.5727" height="3.47883" filterUnits="userSpaceOnUse" color-interpolation-filters="sRGB">
<feFlood flood-opacity="0" result="BackgroundImageFix"/>
<feBlend mode="normal" in="SourceGraphic" in2="BackgroundImageFix" result="shape"/>
<feGaussianBlur stdDeviation="0.176377" result="effect1_foregroundBlur_228_30705"/>
</filter>
<filter id="filter15_d_228_30705" x="58.0305" y="35.3211" width="40.6726" height="37.8806" filterUnits="userSpaceOnUse" color-interpolation-filters="sRGB">
<feFlood flood-opacity="0" result="BackgroundImageFix"/>
<feColorMatrix in="SourceAlpha" type="matrix" values="0 0 0 0 0 0 0 0 0 0 0 0 0 0 0 0 0 0 127 0" result="hardAlpha"/>
<feOffset dx="-0.798446" dy="-0.798446"/>
<feGaussianBlur stdDeviation="1.27751"/>
<feComposite in2="hardAlpha" operator="out"/>
<feColorMatrix type="matrix" values="0 0 0 0 0 0 0 0 0 0 0 0 0 0 0 0 0 0 0.39 0"/>
<feBlend mode="normal" in2="BackgroundImageFix" result="effect1_dropShadow_228_30705"/>
<feBlend mode="normal" in="SourceGraphic" in2="effect1_dropShadow_228_30705" result="shape"/>
</filter>
<filter id="filter16_f_228_30705" x="62.0002" y="39.4827" width="34.3691" height="31.8796" filterUnits="userSpaceOnUse" color-interpolation-filters="sRGB">
<feFlood flood-opacity="0" result="BackgroundImageFix"/>
<feBlend mode="normal" in="SourceGraphic" in2="BackgroundImageFix" result="shape"/>
<feGaussianBlur stdDeviation="0.141102" result="effect1_foregroundBlur_228_30705"/>
</filter>
<filter id="filter17_f_228_30705" x="76.664" y="52.8634" width="3.66645" height="3.38398" filterUnits="userSpaceOnUse" color-interpolation-filters="sRGB">
<feFlood flood-opacity="0" result="BackgroundImageFix"/>
<feBlend mode="normal" in="SourceGraphic" in2="BackgroundImageFix" result="shape"/>
<feGaussianBlur stdDeviation="0.176377" result="effect1_foregroundBlur_228_30705"/>
</filter>
<filter id="filter18_d_228_30705" x="76.1946" y="30.7925" width="39.5007" height="38.1735" filterUnits="userSpaceOnUse" color-interpolation-filters="sRGB">
<feFlood flood-opacity="0" result="BackgroundImageFix"/>
<feColorMatrix in="SourceAlpha" type="matrix" values="0 0 0 0 0 0 0 0 0 0 0 0 0 0 0 0 0 0 127 0" result="hardAlpha"/>
<feOffset dx="-0.798446" dy="-0.798446"/>
<feGaussianBlur stdDeviation="1.27751"/>
<feComposite in2="hardAlpha" operator="out"/>
<feColorMatrix type="matrix" values="0 0 0 0 0 0 0 0 0 0 0 0 0 0 0 0 0 0 0.39 0"/>
<feBlend mode="normal" in2="BackgroundImageFix" result="effect1_dropShadow_228_30705"/>
<feBlend mode="normal" in="SourceGraphic" in2="effect1_dropShadow_228_30705" result="shape"/>
</filter>
<filter id="filter19_f_228_30705" x="80.1018" y="34.8616" width="33.041" height="31.9287" filterUnits="userSpaceOnUse" color-interpolation-filters="sRGB">
<feFlood flood-opacity="0" result="BackgroundImageFix"/>
<feBlend mode="normal" in="SourceGraphic" in2="BackgroundImageFix" result="shape"/>
<feGaussianBlur stdDeviation="0.141102" result="effect1_foregroundBlur_228_30705"/>
</filter>
<filter id="filter20_f_228_30705" x="95.7578" y="49.672" width="3.5727" height="3.47883" filterUnits="userSpaceOnUse" color-interpolation-filters="sRGB">
<feFlood flood-opacity="0" result="BackgroundImageFix"/>
<feBlend mode="normal" in="SourceGraphic" in2="BackgroundImageFix" result="shape"/>
<feGaussianBlur stdDeviation="0.176377" result="effect1_foregroundBlur_228_30705"/>
</filter>
<filter id="filter21_d_228_30705" x="77.4915" y="15.1852" width="40.6413" height="37.9033" filterUnits="userSpaceOnUse" color-interpolation-filters="sRGB">
<feFlood flood-opacity="0" result="BackgroundImageFix"/>
<feColorMatrix in="SourceAlpha" type="matrix" values="0 0 0 0 0 0 0 0 0 0 0 0 0 0 0 0 0 0 127 0" result="hardAlpha"/>
<feOffset dx="-0.798446" dy="-0.798446"/>
<feGaussianBlur stdDeviation="1.27751"/>
<feComposite in2="hardAlpha" operator="out"/>
<feColorMatrix type="matrix" values="0 0 0 0 0 0 0 0 0 0 0 0 0 0 0 0 0 0 0.39 0"/>
<feBlend mode="normal" in2="BackgroundImageFix" result="effect1_dropShadow_228_30705"/>
<feBlend mode="normal" in="SourceGraphic" in2="effect1_dropShadow_228_30705" result="shape"/>
</filter>
<filter id="filter22_f_228_30705" x="81.4221" y="19.3438" width="34.3222" height="31.9017" filterUnits="userSpaceOnUse" color-interpolation-filters="sRGB">
<feFlood flood-opacity="0" result="BackgroundImageFix"/>
<feBlend mode="normal" in="SourceGraphic" in2="BackgroundImageFix" result="shape"/>
<feGaussianBlur stdDeviation="0.141102" result="effect1_foregroundBlur_228_30705"/>
</filter>
<filter id="filter23_f_228_30705" x="97.4609" y="32.7604" width="3.66645" height="3.38544" filterUnits="userSpaceOnUse" color-interpolation-filters="sRGB">
<feFlood flood-opacity="0" result="BackgroundImageFix"/>
<feBlend mode="normal" in="SourceGraphic" in2="BackgroundImageFix" result="shape"/>
<feGaussianBlur stdDeviation="0.176377" result="effect1_foregroundBlur_228_30705"/>
</filter>
<filter id="filter24_d_228_30705" x="33.5149" y="31.1174" width="39.5007" height="38.1735" filterUnits="userSpaceOnUse" color-interpolation-filters="sRGB">
<feFlood flood-opacity="0" result="BackgroundImageFix"/>
<feColorMatrix in="SourceAlpha" type="matrix" values="0 0 0 0 0 0 0 0 0 0 0 0 0 0 0 0 0 0 127 0" result="hardAlpha"/>
<feOffset dx="-0.798446" dy="-0.798446"/>
<feGaussianBlur stdDeviation="1.27751"/>
<feComposite in2="hardAlpha" operator="out"/>
<feColorMatrix type="matrix" values="0 0 0 0 0 0 0 0 0 0 0 0 0 0 0 0 0 0 0.39 0"/>
<feBlend mode="normal" in2="BackgroundImageFix" result="effect1_dropShadow_228_30705"/>
<feBlend mode="normal" in="SourceGraphic" in2="effect1_dropShadow_228_30705" result="shape"/>
</filter>
<filter id="filter25_f_228_30705" x="37.4221" y="35.1865" width="33.041" height="31.9287" filterUnits="userSpaceOnUse" color-interpolation-filters="sRGB">
<feFlood flood-opacity="0" result="BackgroundImageFix"/>
<feBlend mode="normal" in="SourceGraphic" in2="BackgroundImageFix" result="shape"/>
<feGaussianBlur stdDeviation="0.141102" result="effect1_foregroundBlur_228_30705"/>
</filter>
<filter id="filter26_f_228_30705" x="53.0781" y="49.9969" width="3.5727" height="3.47883" filterUnits="userSpaceOnUse" color-interpolation-filters="sRGB">
<feFlood flood-opacity="0" result="BackgroundImageFix"/>
<feBlend mode="normal" in="SourceGraphic" in2="BackgroundImageFix" result="shape"/>
<feGaussianBlur stdDeviation="0.176377" result="effect1_foregroundBlur_228_30705"/>
</filter>
<filter id="filter27_i_228_30705" x="14.2509" y="34.3567" width="121.922" height="115.133" filterUnits="userSpaceOnUse" color-interpolation-filters="sRGB">
<feFlood flood-opacity="0" result="BackgroundImageFix"/>
<feBlend mode="normal" in="SourceGraphic" in2="BackgroundImageFix" result="shape"/>
<feColorMatrix in="SourceAlpha" type="matrix" values="0 0 0 0 0 0 0 0 0 0 0 0 0 0 0 0 0 0 127 0" result="hardAlpha"/>
<feOffset dx="-31.8805" dy="-11.2519"/>
<feGaussianBlur stdDeviation="0.750129"/>
<feComposite in2="hardAlpha" operator="arithmetic" k2="-1" k3="1"/>
<feColorMatrix type="matrix" values="0 0 0 0 0 0 0 0 0 0 0 0 0 0 0 0 0 0 0.07 0"/>
<feBlend mode="normal" in2="shape" result="effect1_innerShadow_228_30705"/>
</filter>
<filter id="filter28_i_228_30705" x="25.9856" y="35.1005" width="124.148" height="45.5509" filterUnits="userSpaceOnUse" color-interpolation-filters="sRGB">
<feFlood flood-opacity="0" result="BackgroundImageFix"/>
<feBlend mode="normal" in="SourceGraphic" in2="BackgroundImageFix" result="shape"/>
<feColorMatrix in="SourceAlpha" type="matrix" values="0 0 0 0 0 0 0 0 0 0 0 0 0 0 0 0 0 0 127 0" result="hardAlpha"/>
<feOffset dy="-1"/>
<feComposite in2="hardAlpha" operator="arithmetic" k2="-1" k3="1"/>
<feColorMatrix type="matrix" values="0 0 0 0 0.921154 0 0 0 0 0.517476 0 0 0 0 0.36049 0 0 0 0.76 0"/>
<feBlend mode="normal" in2="shape" result="effect1_innerShadow_228_30705"/>
</filter>
<filter id="filter29_di_228_30705" x="30.509" y="56.689" width="95.7656" height="40.1226" filterUnits="userSpaceOnUse" color-interpolation-filters="sRGB">
<feFlood flood-opacity="0" result="BackgroundImageFix"/>
<feColorMatrix in="SourceAlpha" type="matrix" values="0 0 0 0 0 0 0 0 0 0 0 0 0 0 0 0 0 0 127 0" result="hardAlpha"/>
<feOffset dy="2.25039"/>
<feComposite in2="hardAlpha" operator="out"/>
<feColorMatrix type="matrix" values="0 0 0 0 0 0 0 0 0 0 0 0 0 0 0 0 0 0 0.25 0"/>
<feBlend mode="normal" in2="BackgroundImageFix" result="effect1_dropShadow_228_30705"/>
<feBlend mode="normal" in="SourceGraphic" in2="effect1_dropShadow_228_30705" result="shape"/>
<feColorMatrix in="SourceAlpha" type="matrix" values="0 0 0 0 0 0 0 0 0 0 0 0 0 0 0 0 0 0 127 0" result="hardAlpha"/>
<feOffset dy="-7.50129"/>
<feComposite in2="hardAlpha" operator="arithmetic" k2="-1" k3="1"/>
<feColorMatrix type="matrix" values="0 0 0 0 0.796078 0 0 0 0 0.509804 0 0 0 0 0.133333 0 0 0 0.69 0"/>
<feBlend mode="normal" in2="shape" result="effect2_innerShadow_228_30705"/>
</filter>
<filter id="filter30_d_228_30705" x="22.6652" y="75.3831" width="34.5472" height="46.0418" filterUnits="userSpaceOnUse" color-interpolation-filters="sRGB">
<feFlood flood-opacity="0" result="BackgroundImageFix"/>
<feColorMatrix in="SourceAlpha" type="matrix" values="0 0 0 0 0 0 0 0 0 0 0 0 0 0 0 0 0 0 127 0" result="hardAlpha"/>
<feOffset dx="1.87532" dy="2.25039"/>
<feComposite in2="hardAlpha" operator="out"/>
<feColorMatrix type="matrix" values="0 0 0 0 0 0 0 0 0 0 0 0 0 0 0 0 0 0 0.15 0"/>
<feBlend mode="normal" in2="BackgroundImageFix" result="effect1_dropShadow_228_30705"/>
<feBlend mode="normal" in="SourceGraphic" in2="effect1_dropShadow_228_30705" result="shape"/>
</filter>
<filter id="filter31_d_228_30705" x="7.11837" y="68.4327" width="43.2737" height="29.8283" filterUnits="userSpaceOnUse" color-interpolation-filters="sRGB">
<feFlood flood-opacity="0" result="BackgroundImageFix"/>
<feColorMatrix in="SourceAlpha" type="matrix" values="0 0 0 0 0 0 0 0 0 0 0 0 0 0 0 0 0 0 127 0" result="hardAlpha"/>
<feOffset dx="1.50026" dy="1.87532"/>
<feComposite in2="hardAlpha" operator="out"/>
<feColorMatrix type="matrix" values="0 0 0 0 0 0 0 0 0 0 0 0 0 0 0 0 0 0 0.17 0"/>
<feBlend mode="normal" in2="BackgroundImageFix" result="effect1_dropShadow_228_30705"/>
<feBlend mode="normal" in="SourceGraphic" in2="effect1_dropShadow_228_30705" result="shape"/>
</filter>
<filter id="filter32_i_228_30705" x="40.134" y="61.3441" width="24.8672" height="28.7947" filterUnits="userSpaceOnUse" color-interpolation-filters="sRGB">
<feFlood flood-opacity="0" result="BackgroundImageFix"/>
<feBlend mode="normal" in="SourceGraphic" in2="BackgroundImageFix" result="shape"/>
<feColorMatrix in="SourceAlpha" type="matrix" values="0 0 0 0 0 0 0 0 0 0 0 0 0 0 0 0 0 0 127 0" result="hardAlpha"/>
<feOffset dx="-5.2509" dy="-1.50026"/>
<feComposite in2="hardAlpha" operator="arithmetic" k2="-1" k3="1"/>
<feColorMatrix type="matrix" values="0 0 0 0 0.796078 0 0 0 0 0.509804 0 0 0 0 0.133333 0 0 0 0.72 0"/>
<feBlend mode="normal" in2="shape" result="effect1_innerShadow_228_30705"/>
</filter>
<filter id="filter33_i_228_30705" x="39.2434" y="62.4323" width="22.2812" height="28.5728" filterUnits="userSpaceOnUse" color-interpolation-filters="sRGB">
<feFlood flood-opacity="0" result="BackgroundImageFix"/>
<feBlend mode="normal" in="SourceGraphic" in2="BackgroundImageFix" result="shape"/>
<feColorMatrix in="SourceAlpha" type="matrix" values="0 0 0 0 0 0 0 0 0 0 0 0 0 0 0 0 0 0 127 0" result="hardAlpha"/>
<feOffset dx="-5.2509" dy="-1.50026"/>
<feComposite in2="hardAlpha" operator="arithmetic" k2="-1" k3="1"/>
<feColorMatrix type="matrix" values="0 0 0 0 0.796078 0 0 0 0 0.509804 0 0 0 0 0.133333 0 0 0 0.72 0"/>
<feBlend mode="normal" in2="shape" result="effect1_innerShadow_228_30705"/>
</filter>
<filter id="filter34_i_228_30705" x="33.2668" y="65.2451" width="20.2969" height="26.8002" filterUnits="userSpaceOnUse" color-interpolation-filters="sRGB">
<feFlood flood-opacity="0" result="BackgroundImageFix"/>
<feBlend mode="normal" in="SourceGraphic" in2="BackgroundImageFix" result="shape"/>
<feColorMatrix in="SourceAlpha" type="matrix" values="0 0 0 0 0 0 0 0 0 0 0 0 0 0 0 0 0 0 127 0" result="hardAlpha"/>
<feOffset dx="-5.2509" dy="-1.50026"/>
<feComposite in2="hardAlpha" operator="arithmetic" k2="-1" k3="1"/>
<feColorMatrix type="matrix" values="0 0 0 0 0.796078 0 0 0 0 0.509804 0 0 0 0 0.133333 0 0 0 0.72 0"/>
<feBlend mode="normal" in2="shape" result="effect1_innerShadow_228_30705"/>
</filter>
<filter id="filter35_d_228_30705" x="90.9345" y="121.247" width="39.8741" height="37.0821" filterUnits="userSpaceOnUse" color-interpolation-filters="sRGB">
<feFlood flood-opacity="0" result="BackgroundImageFix"/>
<feColorMatrix in="SourceAlpha" type="matrix" values="0 0 0 0 0 0 0 0 0 0 0 0 0 0 0 0 0 0 127 0" result="hardAlpha"/>
<feOffset dx="1.59689" dy="-1.59689"/>
<feGaussianBlur stdDeviation="1.0779"/>
<feComposite in2="hardAlpha" operator="out"/>
<feColorMatrix type="matrix" values="0 0 0 0 0 0 0 0 0 0 0 0 0 0 0 0 0 0 0.29 0"/>
<feBlend mode="normal" in2="BackgroundImageFix" result="effect1_dropShadow_228_30705"/>
<feBlend mode="normal" in="SourceGraphic" in2="effect1_dropShadow_228_30705" result="shape"/>
</filter>
<filter id="filter36_f_228_30705" x="92.1096" y="125.808" width="34.3691" height="31.8796" filterUnits="userSpaceOnUse" color-interpolation-filters="sRGB">
<feFlood flood-opacity="0" result="BackgroundImageFix"/>
<feBlend mode="normal" in="SourceGraphic" in2="BackgroundImageFix" result="shape"/>
<feGaussianBlur stdDeviation="0.141102" result="effect1_foregroundBlur_228_30705"/>
</filter>
<filter id="filter37_f_228_30705" x="106.773" y="139.188" width="3.66645" height="3.38398" filterUnits="userSpaceOnUse" color-interpolation-filters="sRGB">
<feFlood flood-opacity="0" result="BackgroundImageFix"/>
<feBlend mode="normal" in="SourceGraphic" in2="BackgroundImageFix" result="shape"/>
<feGaussianBlur stdDeviation="0.176377" result="effect1_foregroundBlur_228_30705"/>
</filter>
<filter id="filter38_d_228_30705" x="64.929" y="125.239" width="39.5007" height="38.1735" filterUnits="userSpaceOnUse" color-interpolation-filters="sRGB">
<feFlood flood-opacity="0" result="BackgroundImageFix"/>
<feColorMatrix in="SourceAlpha" type="matrix" values="0 0 0 0 0 0 0 0 0 0 0 0 0 0 0 0 0 0 127 0" result="hardAlpha"/>
<feOffset dx="-0.798446" dy="-0.798446"/>
<feGaussianBlur stdDeviation="1.27751"/>
<feComposite in2="hardAlpha" operator="out"/>
<feColorMatrix type="matrix" values="0 0 0 0 0 0 0 0 0 0 0 0 0 0 0 0 0 0 0.39 0"/>
<feBlend mode="normal" in2="BackgroundImageFix" result="effect1_dropShadow_228_30705"/>
<feBlend mode="normal" in="SourceGraphic" in2="effect1_dropShadow_228_30705" result="shape"/>
</filter>
<filter id="filter39_f_228_30705" x="68.8362" y="129.308" width="33.041" height="31.9287" filterUnits="userSpaceOnUse" color-interpolation-filters="sRGB">
<feFlood flood-opacity="0" result="BackgroundImageFix"/>
<feBlend mode="normal" in="SourceGraphic" in2="BackgroundImageFix" result="shape"/>
<feGaussianBlur stdDeviation="0.141102" result="effect1_foregroundBlur_228_30705"/>
</filter>
<filter id="filter40_f_228_30705" x="84.4922" y="144.119" width="3.5727" height="3.47883" filterUnits="userSpaceOnUse" color-interpolation-filters="sRGB">
<feFlood flood-opacity="0" result="BackgroundImageFix"/>
<feBlend mode="normal" in="SourceGraphic" in2="BackgroundImageFix" result="shape"/>
<feGaussianBlur stdDeviation="0.176377" result="effect1_foregroundBlur_228_30705"/>
</filter>
<filter id="filter41_d_228_30705" x="19.1035" y="118.041" width="40.4641" height="38.8251" filterUnits="userSpaceOnUse" color-interpolation-filters="sRGB">
<feFlood flood-opacity="0" result="BackgroundImageFix"/>
<feColorMatrix in="SourceAlpha" type="matrix" values="0 0 0 0 0 0 0 0 0 0 0 0 0 0 0 0 0 0 127 0" result="hardAlpha"/>
<feOffset dx="-0.798446"/>
<feGaussianBlur stdDeviation="1.39728"/>
<feComposite in2="hardAlpha" operator="out"/>
<feColorMatrix type="matrix" values="0 0 0 0 0 0 0 0 0 0 0 0 0 0 0 0 0 0 0.44 0"/>
<feBlend mode="normal" in2="BackgroundImageFix" result="effect1_dropShadow_228_30705"/>
<feBlend mode="normal" in="SourceGraphic" in2="effect1_dropShadow_228_30705" result="shape"/>
</filter>
<filter id="filter42_f_228_30705" x="22.9768" y="121.877" width="33.8066" height="31.8877" filterUnits="userSpaceOnUse" color-interpolation-filters="sRGB">
<feFlood flood-opacity="0" result="BackgroundImageFix"/>
<feBlend mode="normal" in="SourceGraphic" in2="BackgroundImageFix" result="shape"/>
<feGaussianBlur stdDeviation="0.141102" result="effect1_foregroundBlur_228_30705"/>
</filter>
<filter id="filter43_f_228_30705" x="38.2969" y="134.343" width="3.56488" height="3.48346" filterUnits="userSpaceOnUse" color-interpolation-filters="sRGB">
<feFlood flood-opacity="0" result="BackgroundImageFix"/>
<feBlend mode="normal" in="SourceGraphic" in2="BackgroundImageFix" result="shape"/>
<feGaussianBlur stdDeviation="0.176377" result="effect1_foregroundBlur_228_30705"/>
</filter>
<radialGradient id="paint0_radial_228_30705" cx="0" cy="0" r="1" gradientTransform="matrix(-7.8099 15.4202 -17.0247 -5.81589 77.9191 35.8086)" gradientUnits="userSpaceOnUse">
<stop stop-color="#FCB201"/>
<stop offset="1" stop-color="#966A01"/>
</radialGradient>
<radialGradient id="paint1_radial_228_30705" cx="0" cy="0" r="1" gradientTransform="matrix(3.33934 16.9595 17.9637 -0.985169 118.885 41.4641)" gradientUnits="userSpaceOnUse">
<stop stop-color="#FCB201"/>
<stop offset="1" stop-color="#966A01"/>
</radialGradient>
<radialGradient id="paint2_radial_228_30705" cx="0" cy="0" r="1" gradientUnits="userSpaceOnUse" gradientTransform="translate(115.658 53.1643) rotate(119.551) scale(19.5222 20.319)">
<stop stop-color="#FCB201"/>
<stop offset="1" stop-color="#966A01"/>
</radialGradient>
<radialGradient id="paint3_radial_228_30705" cx="0" cy="0" r="1" gradientTransform="matrix(-7.8099 15.4202 -17.0247 -5.81589 54.0597 34.2909)" gradientUnits="userSpaceOnUse">
<stop stop-color="#FCB201"/>
<stop offset="1" stop-color="#966A01"/>
</radialGradient>
<radialGradient id="paint4_radial_228_30705" cx="0" cy="0" r="1" gradientTransform="matrix(3.33934 16.9595 17.9637 -0.985169 58.3846 57.688)" gradientUnits="userSpaceOnUse">
<stop stop-color="#FCB201"/>
<stop offset="1" stop-color="#966A01"/>
</radialGradient>
<radialGradient id="paint5_radial_228_30705" cx="0" cy="0" r="1" gradientTransform="matrix(-7.8099 15.4202 -17.0247 -5.81589 79.1379 53.2959)" gradientUnits="userSpaceOnUse">
<stop stop-color="#FCB201"/>
<stop offset="1" stop-color="#966A01"/>
</radialGradient>
<radialGradient id="paint6_radial_228_30705" cx="0" cy="0" r="1" gradientTransform="matrix(3.33934 16.9595 17.9637 -0.985169 97.2753 50.0271)" gradientUnits="userSpaceOnUse">
<stop stop-color="#FCB201"/>
<stop offset="1" stop-color="#966A01"/>
</radialGradient>
<radialGradient id="paint7_radial_228_30705" cx="0" cy="0" r="1" gradientTransform="matrix(7.73293 15.4589 17.0535 -5.73094 98.665 33.1915)" gradientUnits="userSpaceOnUse">
<stop stop-color="#FCB201"/>
<stop offset="1" stop-color="#966A01"/>
</radialGradient>
<radialGradient id="paint8_radial_228_30705" cx="0" cy="0" r="1" gradientTransform="matrix(3.33934 16.9595 17.9637 -0.985169 54.5956 50.3519)" gradientUnits="userSpaceOnUse">
<stop stop-color="#FCB201"/>
<stop offset="1" stop-color="#966A01"/>
</radialGradient>
<linearGradient id="paint9_linear_228_30705" x1="29.1854" y1="55.4202" x2="149.606" y2="72.2133" gradientUnits="userSpaceOnUse">
<stop stop-color="#A64F36"/>
<stop offset="1" stop-color="#D87D51"/>
</linearGradient>
<linearGradient id="paint10_linear_228_30705" x1="54.7" y1="87.9642" x2="41.9441" y2="101.151" gradientUnits="userSpaceOnUse">
<stop stop-color="#CC701A"/>
<stop offset="1" stop-color="#FAC728"/>
</linearGradient>
<linearGradient id="paint11_linear_228_30705" x1="26.9468" y1="97.8368" x2="37.6946" y2="115.579" gradientUnits="userSpaceOnUse">
<stop stop-color="#C26221"/>
<stop offset="1" stop-color="#9B4F21"/>
</linearGradient>
<linearGradient id="paint12_linear_228_30705" x1="40.3699" y1="78.2148" x2="26.7434" y2="85.0418" gradientUnits="userSpaceOnUse">
<stop stop-color="#F49E18"/>
<stop offset="1" stop-color="#F8C927"/>
</linearGradient>
<linearGradient id="paint13_linear_228_30705" x1="31.6134" y1="72.0841" x2="28.4639" y2="94.8955" gradientUnits="userSpaceOnUse">
<stop stop-color="#F69F1C"/>
<stop offset="1" stop-color="#F9C527"/>
</linearGradient>
<linearGradient id="paint14_linear_228_30705" x1="17.7392" y1="70.7358" x2="14.764" y2="92.2851" gradientUnits="userSpaceOnUse">
<stop stop-color="#C36321"/>
<stop offset="1" stop-color="#964C21"/>
</linearGradient>
<radialGradient id="paint15_radial_228_30705" cx="0" cy="0" r="1" gradientTransform="matrix(-7.8099 15.4202 -17.0247 -5.81589 109.247 139.622)" gradientUnits="userSpaceOnUse">
<stop stop-color="#FCB201"/>
<stop offset="1" stop-color="#966A01"/>
</radialGradient>
<radialGradient id="paint16_radial_228_30705" cx="0" cy="0" r="1" gradientTransform="matrix(3.33934 16.9595 17.9637 -0.985169 86.0096 144.473)" gradientUnits="userSpaceOnUse">
<stop stop-color="#FCB201"/>
<stop offset="1" stop-color="#966A01"/>
</radialGradient>
<radialGradient id="paint17_radial_228_30705" cx="0" cy="0" r="1" gradientTransform="matrix(-9.37896 14.5194 15.4435 9.22843 40.8428 134.9)" gradientUnits="userSpaceOnUse">
<stop stop-color="#FCB201"/>
<stop offset="1" stop-color="#966A01"/>
</radialGradient>
</defs>
</svg>
