<svg xmlns="http://www.w3.org/2000/svg" width="150" height="171" fill="none" xmlns:v="https://vecta.io/nano"><style><![CDATA[.B{color-interpolation-filters:sRGB}.C{flood-opacity:0}.D{fill:#fcb201}.E{stroke:#000}.F{fill:#f7de31}.G{fill:#f99c00}.H{fill:#ffc61d}.I{fill:#fac41a}.J{fill:#f08500}.K{fill:#f79d00}.L{fill:#fff61c}.M{fill:#fffff6}.N{stroke-width:1.123}.O{stroke-width:2.302}.P{fill:#f4ce29}]]></style><g filter="url(#b)"><path d="M82.483 22.746c1.418-1.03 3.388-.357 3.498 1.195l.395 5.562c.109 1.541.964 2.895 2.341 3.709l4.953 2.929c1.375.813 1.095 2.764-.499 3.49l-5.836 2.658c-1.581.72-2.807 1.995-3.362 3.498l-2.056 5.559c-.564 1.524-2.702 2.064-3.807.962l-3.931-3.922c-1.108-1.106-2.747-1.666-4.483-1.532l-6.158.476c-1.732.134-2.773-1.492-1.854-2.895l3.351-5.117c.906-1.383 1.143-2.996.65-4.424l-1.819-5.273c-.497-1.441.991-2.979 2.662-2.752l6.021.82c1.674.228 3.446-.229 4.854-1.251l5.081-3.691z" class="D"/><mask id="A" maskUnits="userSpaceOnUse" x="61" y="22" width="34" height="31" mask-type="alpha"><path d="M82.483 22.746c1.418-1.03 3.388-.357 3.498 1.195l.395 5.562c.109 1.541.964 2.895 2.341 3.709l4.953 2.929c1.375.813 1.095 2.764-.499 3.49l-5.836 2.658c-1.581.72-2.807 1.995-3.362 3.498l-2.056 5.559c-.564 1.524-2.702 2.064-3.807.962l-3.931-3.922c-1.108-1.106-2.747-1.666-4.483-1.531l-6.158.475c-1.732.134-2.773-1.492-1.854-2.895l3.351-5.117c.906-1.383 1.143-2.996.65-4.424l-1.819-5.273c-.497-1.441.991-2.979 2.662-2.752l6.021.82c1.674.228 3.446-.229 4.854-1.251l5.081-3.691z" class="D"/></mask><g mask="url(#A)"><use href="#Al" class="F"/><use href="#Am" class="G"/><use href="#An" class="H"/><use href="#Ao" class="I"/><use href="#Ap" class="J"/><path d="M94.876 37.908l-18.095-1.383 8.436 7.311 8.863-4.355.797-1.573z" class="K"/></g><mask id="B" maskUnits="userSpaceOnUse" x="61" y="22" width="34" height="31" mask-type="alpha"><path d="M82.483 22.746c1.418-1.03 3.388-.357 3.498 1.195l.395 5.562c.109 1.541.964 2.895 2.341 3.709l4.953 2.929c1.375.813 1.095 2.764-.499 3.49l-5.836 2.658c-1.581.72-2.807 1.995-3.362 3.498l-2.056 5.559c-.564 1.524-2.702 2.064-3.807.962l-3.931-3.922c-1.108-1.106-2.747-1.666-4.483-1.531l-6.158.475c-1.732.134-2.773-1.492-1.854-2.895l3.351-5.117c.906-1.383 1.143-2.996.65-4.424l-1.819-5.273c-.497-1.441.991-2.979 2.662-2.752l6.021.82c1.674.228 3.446-.229 4.854-1.251l5.081-3.691z" fill="url(#AT)"/></mask><g mask="url(#B)" class="L"><g filter="url(#c)"><path d="M84.779 22.277L78.51 36.363l16.364 1.545-16.578-.066 1.978 15.751-3.586-15.341-15.616 8.412 14.837-9.638-11.905-9.295 13.031 8.127 7.744-13.582z"/></g></g><g filter="url(#d)" class="M"><use href="#Aq"/></g><path d="M82.143 22.343c1.794-1.303 4.286-.452 4.426 1.512l.395 5.561c.099 1.387.869 2.607 2.109 3.341l4.953 2.928c1.739 1.028 1.385 3.498-.633 4.416l-5.835 2.658c-1.424.648-2.528 1.796-3.028 3.149l-2.056 5.559c-.713 1.929-3.418 2.612-4.817 1.217l-3.931-3.922c-.998-.996-2.474-1.5-4.038-1.379l-6.158.475c-2.191.169-3.508-1.888-2.345-3.663l3.351-5.117c.816-1.245 1.029-2.698.585-3.984l-1.819-5.273c-.629-1.823 1.255-3.769 3.369-3.482l6.02.82c1.507.205 3.104-.206 4.371-1.127l5.081-3.691z" class="E N"/></g><g filter="url(#e)"><path d="M118.031 27.654c-1.086-1.376-3.165-1.262-3.691.203l-1.887 5.246c-.523 1.453-1.713 2.526-3.259 2.936l-5.561 1.477c-1.544.41-1.804 2.364-.465 3.495l4.897 4.139c1.327 1.122 2.161 2.681 2.289 4.278l.472 5.908c.13 1.62 2.042 2.719 3.404 1.957l4.847-2.71c1.366-.764 3.096-.859 4.73-.259l5.8 2.127c1.63.598 3.073-.685 2.569-2.285l-1.84-5.833c-.497-1.577-.288-3.194.573-4.435l3.18-4.582c.869-1.252-.146-3.136-1.817-3.37l-6.017-.842c-1.673-.234-3.256-1.154-4.333-2.52l-3.891-4.93z" class="D"/><mask id="C" maskUnits="userSpaceOnUse" x="102" y="26" width="33" height="32" mask-type="alpha"><path d="M118.031 27.654c-1.086-1.376-3.165-1.262-3.691.203l-1.887 5.246c-.523 1.453-1.713 2.526-3.259 2.936l-5.561 1.477c-1.544.41-1.804 2.364-.465 3.495l4.897 4.139c1.327 1.122 2.161 2.681 2.289 4.278l.472 5.908c.13 1.62 2.042 2.719 3.404 1.957l4.847-2.71c1.366-.764 3.096-.859 4.73-.259l5.8 2.127c1.63.598 3.073-.685 2.569-2.285l-1.84-5.833c-.497-1.577-.288-3.194.573-4.435l3.18-4.582c.869-1.252-.146-3.136-1.817-3.37l-6.017-.842c-1.673-.234-3.256-1.154-4.333-2.52l-3.891-4.93z" class="D"/></mask><g mask="url(#C)"><use href="#Ar" class="F"/><path d="M120.28 43.137l9.839 2.959 5.594-7.754-1.334-2.926-10.519-1.222-7.044-9.06-2.25.123-3.671 9.997 8.68 7.92.705-.039z" class="G"/><path d="M134.47 37.461l-15.032 5.023-3.624-16.594 17.191 9.553 1.465 2.019z" class="H"/><path d="M119.153 42.848l-3.339-16.96-.989.404-3.932 8.962 8.26 7.593z" class="I"/><path d="M132.168 56.479l-13.077-13.976-7.284 15.443 20.361-1.467z" class="J"/><use href="#As" class="K"/></g><mask id="D" maskUnits="userSpaceOnUse" x="102" y="26" width="33" height="32" mask-type="alpha"><path d="M118.031 27.654c-1.086-1.376-3.165-1.262-3.691.203l-1.887 5.246c-.523 1.453-1.713 2.526-3.259 2.936l-5.561 1.477c-1.544.41-1.804 2.364-.465 3.495l4.897 4.139c1.327 1.122 2.161 2.681 2.289 4.278l.472 5.908c.13 1.62 2.042 2.719 3.404 1.957l4.847-2.71c1.366-.764 3.096-.859 4.73-.259l5.8 2.127c1.63.598 3.073-.685 2.569-2.285l-1.84-5.833c-.497-1.577-.288-3.194.573-4.435l3.18-4.582c.869-1.252-.146-3.136-1.817-3.37l-6.017-.842c-1.673-.234-3.256-1.154-4.333-2.52l-3.891-4.93z" fill="url(#AU)"/></mask><g mask="url(#D)" class="L"><g filter="url(#f)"><path d="M115.955 26.582l2.217 15.257-16.171-2.947 15.977 4.428-6.172 14.626 7.608-13.796 12.753 12.329-11.67-13.297 13.978-5.721-14.746 4.292-3.774-15.172z"/></g></g><g filter="url(#g)" class="M"><path d="M117.745 42.926c.151.765.903 1.35 1.682 1.307a1.19 1.19 0 0 0 1.136-1.462c-.151-.765-.904-1.35-1.682-1.307a1.19 1.19 0 0 0-1.136 1.462z"/></g><path d="M118.467 27.358c-1.374-1.74-4.003-1.596-4.669.256l-1.888 5.246c-.471 1.309-1.543 2.275-2.935 2.644l-5.561 1.477c-1.952.519-2.281 2.991-.588 4.423l4.897 4.14c1.195 1.01 1.946 2.414 2.061 3.852l.473 5.908c.164 2.05 2.582 3.441 4.307 2.477l4.847-2.71c1.23-.688 2.788-.773 4.26-.234l5.799 2.126c2.063.756 3.888-.867 3.25-2.891l-1.839-5.833c-.448-1.42-.259-2.876.516-3.993l3.18-4.583c1.099-1.584-.186-3.968-2.299-4.264l-6.017-.842c-1.507-.211-2.932-1.04-3.903-2.269l-3.891-4.929z" class="E N"/></g><g filter="url(#h)"><path d="M125.257 40.466c.013-1.872-2.033-3.031-3.632-2.059l-5.731 3.483c-1.588.965-3.518 1.189-5.284.614l-6.355-2.069c-1.764-.574-3.481.992-3.072 2.801l1.498 6.62c.406 1.793.018 3.675-1.065 5.161l-4.005 5.498c-1.098 1.507-.124 3.636 1.735 3.79l6.611.548c1.863.154 3.565 1.119 4.654 2.639l3.865 5.391c1.087 1.516 3.413 1.259 4.143-.458l2.66-6.26c.719-1.692 2.134-2.992 3.882-3.564l6.45-2.114c1.762-.578 2.224-2.855.826-4.074l-5.039-4.391c-1.4-1.221-2.199-2.991-2.186-4.849l.046-6.707z" class="D"/><mask id="E" maskUnits="userSpaceOnUse" x="97" y="38" width="37" height="36" mask-type="alpha"><path d="M125.257 40.466c.013-1.872-2.033-3.031-3.632-2.059l-5.731 3.483c-1.588.965-3.518 1.189-5.284.614l-6.355-2.069c-1.764-.574-3.481.992-3.072 2.801l1.498 6.62c.406 1.793.018 3.675-1.065 5.161l-4.005 5.498c-1.098 1.507-.124 3.636 1.735 3.79l6.611.548c1.863.154 3.565 1.119 4.654 2.639l3.865 5.391c1.087 1.516 3.413 1.259 4.143-.458l2.66-6.26c.719-1.692 2.134-2.992 3.882-3.564l6.45-2.114c1.762-.578 2.224-2.855.826-4.074l-5.039-4.391c-1.4-1.221-2.199-2.991-2.186-4.849l.046-6.707z" class="D"/></mask><g mask="url(#E)"><path d="M114.042 43.089l1.026 11.115-12.049-11.869-1.34-1.676 2.912-1.097 9.451 3.526z" class="F"/><path d="M115.715 55.487l7.047 8.575 11.114-3.447.946-3.389-8.995-7.456.185-12.261-2.214-1.255-10.992 6.592 2.216 12.248.693.393z" class="G"/><path d="M133.365 59.085l-17.955-4.683 9.086-16.833 9.008 18.847-.139 2.669z" class="H"/><path d="M114.873 54.551l9.628-16.983-1.236-.243-10.458 5.521 2.066 11.705z" class="I"/><path d="M116.865 74.459l-1.798-20.255-18.5 9.205 20.298 11.05z" class="J"/><path d="M101.678 40.66l14.081 13.938-13.102-1.932-1.962-10.272.983-1.733z" class="K"/></g><mask id="F" maskUnits="userSpaceOnUse" x="97" y="38" width="37" height="36" mask-type="alpha"><path d="M125.257 40.466c.013-1.872-2.033-3.031-3.632-2.059l-5.731 3.483c-1.588.965-3.518 1.189-5.284.614l-6.355-2.069c-1.764-.574-3.481.992-3.072 2.801l1.498 6.62c.406 1.793.018 3.675-1.065 5.161l-4.005 5.498c-1.098 1.507-.124 3.636 1.735 3.79l6.611.548c1.863.154 3.565 1.119 4.654 2.639l3.865 5.391c1.087 1.516 3.413 1.259 4.143-.458l2.66-6.26c.719-1.692 2.134-2.992 3.882-3.564l6.45-2.114c1.762-.578 2.224-2.855.826-4.074l-5.039-4.391c-1.4-1.221-2.199-2.991-2.186-4.849l.046-6.707z" fill="url(#AV)"/></mask><g mask="url(#F)" class="L"><g filter="url(#i)"><path d="M124.105 38.262l-9.404 14.801-13.023-12.403 11.724 13.591-16.836 9.158 17.565-7.555 2.733 18.605-.983-18.803 17.486 3.428-17.134-5.153 7.872-15.669z"/></g></g><g filter="url(#j)" class="M"><path d="M113.482 53.765c-.435.766-.166 1.738.6 2.172s1.738.165 2.172-.6.166-1.738-.6-2.172-1.738-.165-2.172.6z"/></g><path d="M125.891 40.471c.016-2.368-2.571-3.835-4.595-2.605l-5.732 3.483a5.74 5.74 0 0 1-4.758.553l-6.355-2.069c-2.232-.726-4.404 1.255-3.886 3.543l1.498 6.621a5.74 5.74 0 0 1-.959 4.647l-4.006 5.497a3.03 3.03 0 0 0 2.194 4.796l6.61.547a5.74 5.74 0 0 1 4.192 2.376l3.865 5.392c1.375 1.918 4.319 1.592 5.242-.58l2.66-6.26c.648-1.524 1.922-2.694 3.495-3.21l6.45-2.114c2.23-.731 2.814-3.612 1.045-5.154l-5.038-4.391c-1.261-1.099-1.98-2.694-1.969-4.367l.046-6.706z" stroke-width="1.268" class="E"/></g><g filter="url(#k)"><path d="M58.624 21.229c1.418-1.03 3.388-.357 3.498 1.195l.395 5.562c.109 1.541.964 2.895 2.341 3.709l4.953 2.929c1.374.813 1.095 2.764-.499 3.49l-5.836 2.658c-1.581.72-2.807 1.995-3.362 3.498l-2.056 5.559c-.564 1.524-2.702 2.064-3.807.962l-3.931-3.922c-1.108-1.106-2.747-1.666-4.483-1.532l-6.158.476c-1.732.134-2.773-1.492-1.854-2.895l3.351-5.117c.906-1.383 1.143-2.996.65-4.424l-1.819-5.273c-.497-1.441.991-2.979 2.662-2.752l6.021.82c1.674.228 3.446-.229 4.854-1.251l5.081-3.691z" class="D"/><mask id="G" maskUnits="userSpaceOnUse" x="37" y="20" width="34" height="32" mask-type="alpha"><path d="M58.624 21.229c1.418-1.03 3.388-.357 3.498 1.195l.395 5.562c.109 1.541.964 2.895 2.341 3.709l4.953 2.929c1.374.813 1.095 2.764-.499 3.49l-5.836 2.658c-1.581.72-2.807 1.995-3.362 3.498l-2.056 5.559c-.564 1.524-2.702 2.064-3.807.962l-3.931-3.922c-1.108-1.106-2.747-1.666-4.483-1.531l-6.158.476c-1.732.134-2.773-1.492-1.854-2.895l3.351-5.117c.906-1.383 1.143-2.996.65-4.424l-1.819-5.273c-.497-1.441.991-2.979 2.662-2.752l6.021.82c1.674.228 3.446-.229 4.854-1.251l5.081-3.691z" class="D"/></mask><g mask="url(#G)"><use href="#Al" x="-23.86" y="-1.519" class="F"/><path d="M52.256 35.522l-10.273.182-3.284-8.979 2.077-2.455 10.457 1.674 9.235-6.812 2.132.728.825 10.618-10.502 5.272-.668-.228z" class="G"/><use href="#An" x="-23.86" y="-1.518" class="H"/><use href="#Ao" x="-23.859" y="-1.518" class="I"/><path d="M37.198 45.144l16.375-9.91L56.4 52.073l-19.202-6.929z" class="J"/><path d="M71.009 36.389l-18.095-1.383 8.436 7.312 8.863-4.355.797-1.574z" class="K"/></g><mask id="H" maskUnits="userSpaceOnUse" x="37" y="20" width="34" height="32" mask-type="alpha"><path d="M58.624 21.229c1.418-1.03 3.388-.357 3.498 1.195l.395 5.562c.109 1.541.964 2.895 2.341 3.709l4.953 2.929c1.374.813 1.095 2.764-.499 3.49l-5.836 2.658c-1.581.72-2.807 1.995-3.362 3.498l-2.056 5.559c-.564 1.524-2.702 2.064-3.807.962l-3.931-3.922c-1.108-1.106-2.747-1.666-4.483-1.531l-6.158.476c-1.732.134-2.773-1.492-1.854-2.895l3.351-5.117c.906-1.383 1.143-2.996.65-4.424l-1.819-5.273c-.497-1.441.991-2.979 2.662-2.752l6.021.82c1.674.228 3.446-.229 4.854-1.251l5.081-3.691z" fill="url(#AW)"/></mask><g mask="url(#H)" class="L"><g filter="url(#l)"><path d="M60.919 20.76l-6.269 14.086 16.364 1.545-16.578-.066 1.978 15.751-3.586-15.341-15.616 8.412 14.837-9.638-11.905-9.295 13.031 8.127 7.744-13.581z"/></g></g><g filter="url(#m)" class="M"><path d="M54.761 36.006c-.352.695-1.235 1.054-1.973.803a1.19 1.19 0 0 1-.698-1.715c.352-.695 1.235-1.055 1.973-.803a1.19 1.19 0 0 1 .698 1.715z"/></g><path d="M58.284 20.826c1.794-1.303 4.286-.452 4.426 1.512l.395 5.561c.099 1.387.869 2.607 2.109 3.341l4.953 2.928c1.739 1.028 1.385 3.497-.632 4.416l-5.835 2.658c-1.424.648-2.528 1.796-3.028 3.149l-2.056 5.559c-.713 1.929-3.418 2.612-4.817 1.217l-3.931-3.922c-.998-.996-2.474-1.5-4.038-1.379l-6.158.475c-2.191.169-3.508-1.888-2.345-3.663l3.351-5.117c.816-1.245 1.029-2.698.585-3.984l-1.819-5.273c-.629-1.823 1.255-3.77 3.369-3.482l6.02.82c1.507.205 3.104-.206 4.371-1.127l5.081-3.691z" class="E N"/></g><g filter="url(#n)"><path d="M57.531 43.878c-1.086-1.376-3.164-1.262-3.691.202l-1.887 5.247c-.523 1.453-1.713 2.526-3.259 2.936l-5.561 1.477c-1.543.41-1.803 2.364-.465 3.495l4.897 4.14c1.327 1.121 2.161 2.681 2.289 4.278l.473 5.908c.13 1.62 2.041 2.719 3.404 1.957l4.847-2.71c1.366-.764 3.096-.859 4.73-.259l5.799 2.127c1.631.598 3.073-.685 2.569-2.285l-1.84-5.833c-.497-1.577-.288-3.194.573-4.435l3.18-4.583c.869-1.252-.147-3.136-1.817-3.37l-6.018-.842c-1.673-.234-3.255-1.154-4.333-2.52l-3.891-4.93z" class="D"/><mask id="I" maskUnits="userSpaceOnUse" x="41" y="42" width="33" height="32" mask-type="alpha"><path d="M57.531 43.878c-1.086-1.376-3.164-1.262-3.691.202l-1.887 5.247c-.523 1.453-1.713 2.526-3.259 2.936l-5.561 1.477c-1.543.41-1.803 2.364-.465 3.495l4.897 4.14c1.327 1.121 2.161 2.681 2.289 4.278l.473 5.908c.13 1.62 2.041 2.719 3.404 1.957l4.847-2.71c1.366-.764 3.096-.859 4.73-.259l5.799 2.127c1.631.598 3.073-.685 2.569-2.285l-1.84-5.833c-.497-1.577-.288-3.194.573-4.435l3.18-4.583c.869-1.252-.147-3.136-1.817-3.37l-6.018-.842c-1.673-.234-3.255-1.154-4.333-2.52l-3.891-4.93z" class="D"/></mask><g mask="url(#I)"><path d="M51.389 51.075l7.203 7.651-15.191-3.015-1.897-.596 1.352-2.173 8.533-1.867z" class="F"/><use href="#At" class="G"/><use href="#Au" class="H"/><use href="#Av" class="I"/><path d="M71.668 72.702L58.591 58.726l-7.284 15.443 20.361-1.466z" class="J"/><path d="M41.5 55.116l17.793 3.572-10.101 4.752-7.351-6.594-.341-1.73z" class="K"/></g><mask id="J" maskUnits="userSpaceOnUse" x="41" y="42" width="33" height="32" mask-type="alpha"><path d="M57.531 43.878c-1.086-1.376-3.164-1.262-3.691.202l-1.887 5.247c-.523 1.453-1.713 2.526-3.259 2.936l-5.561 1.477c-1.543.41-1.803 2.364-.465 3.495l4.897 4.14c1.327 1.121 2.161 2.681 2.289 4.278l.473 5.908c.13 1.62 2.041 2.719 3.404 1.957l4.847-2.71c1.366-.764 3.096-.859 4.73-.259l5.799 2.127c1.631.598 3.073-.685 2.569-2.285l-1.84-5.833c-.497-1.577-.288-3.194.573-4.435l3.18-4.583c.869-1.252-.147-3.136-1.817-3.37l-6.018-.842c-1.673-.234-3.255-1.154-4.333-2.52l-3.891-4.93z" fill="url(#AX)"/></mask><g mask="url(#J)" class="L"><g filter="url(#o)"><path d="M55.455 42.806l2.217 15.257-16.171-2.947 15.976 4.428-6.172 14.626 7.609-13.795 12.753 12.329-11.67-13.297 13.978-5.721-14.745 4.293-3.774-15.172z"/></g></g><g filter="url(#p)" class="M"><use href="#Aw"/></g><path d="M57.967 43.582c-1.374-1.74-4.003-1.596-4.67.256l-1.887 5.246c-.471 1.309-1.543 2.275-2.935 2.644l-5.561 1.477c-1.953.519-2.281 2.991-.588 4.422l4.897 4.14c1.195 1.01 1.946 2.414 2.062 3.852l.472 5.908c.164 2.05 2.583 3.441 4.307 2.477l4.847-2.71c1.23-.688 2.788-.773 4.26-.234l5.799 2.127c2.063.756 3.888-.867 3.25-2.891l-1.84-5.833c-.448-1.42-.259-2.876.517-3.993l3.18-4.583c1.099-1.584-.186-3.968-2.299-4.264l-6.017-.842c-1.506-.211-2.932-1.04-3.902-2.269l-3.891-4.929z" class="E N"/></g><g filter="url(#q)"><path d="M83.702 40.234c1.418-1.03 3.388-.357 3.498 1.195l.395 5.562c.109 1.541.964 2.895 2.341 3.709l4.953 2.929c1.374.813 1.095 2.764-.499 3.49l-5.836 2.658c-1.581.72-2.807 1.995-3.362 3.498l-2.056 5.559c-.564 1.524-2.702 2.064-3.807.962l-3.931-3.922c-1.108-1.106-2.747-1.666-4.483-1.531l-6.158.475c-1.732.134-2.773-1.492-1.854-2.895l3.351-5.117c.906-1.383 1.143-2.996.65-4.424l-1.819-5.273c-.497-1.441.991-2.979 2.662-2.752l6.021.82c1.674.228 3.446-.229 4.854-1.251l5.081-3.691z" class="D"/><mask id="K" maskUnits="userSpaceOnUse" x="62" y="39" width="34" height="32" mask-type="alpha"><path d="M83.702 40.234c1.418-1.03 3.388-.357 3.498 1.195l.395 5.562c.109 1.541.964 2.895 2.341 3.709l4.953 2.929c1.374.813 1.095 2.764-.499 3.49l-5.836 2.658c-1.581.72-2.807 1.995-3.362 3.498l-2.056 5.559c-.564 1.524-2.702 2.064-3.807.962l-3.931-3.922c-1.108-1.106-2.747-1.666-4.483-1.531l-6.158.475c-1.732.134-2.773-1.492-1.854-2.895l3.351-5.117c.906-1.383 1.143-2.996.65-4.424l-1.819-5.273c-.497-1.441.991-2.979 2.662-2.752l6.021.82c1.674.228 3.446-.229 4.854-1.251l5.081-3.691z" class="D"/></mask><g mask="url(#K)"><use href="#Al" x="1.211" y="17.487" class="F"/><use href="#Am" x="1.218" y="17.488" class="G"/><path d="M65.209 45.218l13.109 8.908 7.984-14.991-19.136 4.537-1.958 1.546z" class="H"/><use href="#Ao" x="1.219" y="17.488" class="I"/><use href="#Ap" x="1.211" y="17.488" class="J"/><path d="M96.087 55.395l-18.095-1.383 8.436 7.312 8.863-4.355.797-1.573z" class="K"/></g><mask id="L" maskUnits="userSpaceOnUse" x="62" y="39" width="34" height="32" mask-type="alpha"><path d="M83.702 40.234c1.418-1.03 3.388-.357 3.498 1.195l.395 5.562c.109 1.541.964 2.895 2.341 3.709l4.953 2.929c1.374.813 1.095 2.764-.499 3.49l-5.836 2.658c-1.581.72-2.807 1.995-3.362 3.498l-2.056 5.559c-.564 1.524-2.702 2.064-3.807.962l-3.931-3.922c-1.108-1.106-2.747-1.666-4.483-1.531l-6.158.475c-1.732.134-2.773-1.492-1.854-2.895l3.351-5.117c.906-1.383 1.143-2.996.65-4.424l-1.819-5.273c-.497-1.441.991-2.979 2.662-2.752l6.021.82c1.674.228 3.446-.229 4.854-1.251l5.081-3.691z" fill="url(#AY)"/></mask><g mask="url(#L)" class="L"><g filter="url(#r)"><path d="M85.99 39.765L79.721 53.85l16.364 1.545-16.578-.067 1.978 15.751-3.586-15.341-15.616 8.412 14.837-9.638-11.905-9.295 13.031 8.128 7.744-13.582z"/></g></g><g filter="url(#s)" class="M"><use href="#Aq" x="1.211" y="17.488"/></g><path d="M83.362 39.832c1.794-1.303 4.286-.452 4.426 1.512l.395 5.562c.099 1.387.869 2.607 2.109 3.341l4.953 2.928c1.739 1.028 1.385 3.498-.632 4.416l-5.835 2.658c-1.424.648-2.528 1.796-3.028 3.149l-2.056 5.559c-.713 1.929-3.418 2.612-4.817 1.217l-3.931-3.922c-.998-.996-2.474-1.5-4.038-1.379l-6.158.475c-2.191.169-3.508-1.888-2.345-3.663l3.351-5.117c.816-1.245 1.028-2.698.585-3.984l-1.819-5.273c-.629-1.823 1.255-3.769 3.369-3.482l6.02.82c1.507.205 3.104-.206 4.371-1.127l5.081-3.691z" class="E N"/></g><g filter="url(#t)"><path d="M96.422 36.217c-1.086-1.376-3.164-1.262-3.691.202l-1.887 5.247c-.523 1.453-1.713 2.526-3.259 2.936l-5.561 1.477c-1.543.41-1.803 2.364-.465 3.495l4.897 4.139c1.327 1.121 2.161 2.681 2.289 4.278l.472 5.908c.13 1.62 2.041 2.719 3.404 1.957l4.847-2.71c1.366-.764 3.095-.859 4.73-.259l5.799 2.127c1.631.598 3.074-.685 2.569-2.285l-1.839-5.833c-.497-1.577-.289-3.194.573-4.435l3.18-4.583c.869-1.252-.147-3.136-1.817-3.37l-6.018-.842c-1.673-.234-3.255-1.154-4.333-2.52l-3.891-4.93z" class="D"/><mask id="M" maskUnits="userSpaceOnUse" x="80" y="35" width="33" height="32" mask-type="alpha"><path d="M96.422 36.217c-1.086-1.376-3.164-1.262-3.691.202l-1.887 5.247c-.523 1.453-1.713 2.526-3.259 2.936l-5.561 1.477c-1.543.41-1.803 2.364-.465 3.495l4.897 4.139c1.327 1.121 2.161 2.681 2.289 4.278l.472 5.908c.13 1.62 2.041 2.719 3.404 1.957l4.847-2.71c1.366-.764 3.095-.859 4.73-.259l5.799 2.127c1.631.598 3.074-.685 2.569-2.285l-1.839-5.833c-.497-1.577-.289-3.194.573-4.435l3.18-4.583c.869-1.252-.147-3.136-1.817-3.37l-6.018-.842c-1.673-.234-3.255-1.154-4.333-2.52l-3.891-4.93z" class="D"/></mask><g mask="url(#M)"><use href="#Ar" x="-21.609" y="8.563" class="F"/><use href="#At" x="38.883" y="-7.662" class="G"/><path d="M112.861 46.024l-15.033 5.023-3.623-16.594 17.19 9.553 1.466 2.019z" class="H"/><path d="M97.544 51.411l-3.339-16.959-.989.404-3.932 8.962 8.26 7.594z" class="I"/><path d="M110.559 65.041L97.482 51.065l-7.284 15.443 20.361-1.466z" class="J"/><use href="#As" x="-21.617" y="8.562" class="K"/></g><mask id="N" maskUnits="userSpaceOnUse" x="80" y="35" width="33" height="32" mask-type="alpha"><path d="M96.422 36.217c-1.086-1.376-3.164-1.262-3.691.202l-1.887 5.247c-.523 1.453-1.713 2.526-3.259 2.936l-5.561 1.477c-1.543.41-1.803 2.364-.465 3.495l4.897 4.139c1.327 1.121 2.161 2.681 2.289 4.278l.472 5.908c.13 1.62 2.041 2.719 3.404 1.957l4.847-2.71c1.366-.764 3.095-.859 4.73-.259l5.799 2.127c1.631.598 3.074-.685 2.569-2.285l-1.839-5.833c-.497-1.577-.289-3.194.573-4.435l3.18-4.583c.869-1.252-.147-3.136-1.817-3.37l-6.018-.842c-1.673-.234-3.255-1.154-4.333-2.52l-3.891-4.93z" fill="url(#AZ)"/></mask><g mask="url(#N)" class="L"><g filter="url(#u)"><path d="M94.338 35.144l2.217 15.257-16.171-2.947 15.976 4.428-6.172 14.626 7.609-13.796 12.753 12.329L98.88 51.744l13.978-5.721-14.745 4.293-3.774-15.172z"/></g></g><g filter="url(#v)" class="M"><use href="#Aw" x="38.883" y="-7.661"/></g><path d="M96.858 35.921c-1.374-1.74-4.003-1.596-4.67.256l-1.887 5.246c-.471 1.309-1.543 2.274-2.935 2.644l-5.561 1.477c-1.953.519-2.281 2.991-.588 4.422l4.897 4.14c1.195 1.01 1.947 2.414 2.061 3.852l.472 5.908c.164 2.05 2.583 3.441 4.307 2.477l4.847-2.71c1.23-.688 2.789-.773 4.261-.234l5.799 2.126c2.063.756 3.888-.867 3.25-2.891l-1.84-5.833c-.447-1.42-.259-2.876.517-3.993l3.18-4.583c1.099-1.584-.186-3.969-2.299-4.264l-6.018-.842c-1.506-.211-2.932-1.04-3.902-2.269l-3.891-4.929z" class="E N"/></g><g filter="url(#w)"><path d="M94.166 20.107c-1.413-1.037-3.386-.374-3.504 1.178l-.423 5.56c-.117 1.54-.979 2.89-2.36 3.698l-4.967 2.904c-1.379.806-1.109 2.759.482 3.493l5.822 2.687c1.577.728 2.797 2.009 3.345 3.515l2.028 5.569c.556 1.527 2.692 2.078 3.802.981l3.951-3.903c1.113-1.1 2.755-1.652 4.49-1.509l6.156.506c1.731.142 2.78-1.478 1.868-2.886l-3.325-5.133c-.899-1.388-1.128-3.002-.628-4.428l1.845-5.264c.505-1.438-.976-2.984-2.648-2.765l-6.025.79c-1.675.22-3.445-.246-4.847-1.276l-5.063-3.716z" class="D"/><mask id="O" maskUnits="userSpaceOnUse" x="82" y="19" width="34" height="32" mask-type="alpha"><path d="M94.166 20.107c-1.413-1.037-3.386-.374-3.504 1.178l-.423 5.56c-.117 1.54-.979 2.89-2.36 3.698l-4.967 2.904c-1.379.806-1.109 2.759.482 3.493l5.822 2.687c1.577.728 2.797 2.009 3.345 3.515l2.028 5.569c.556 1.527 2.692 2.078 3.802.981l3.951-3.903c1.113-1.1 2.755-1.652 4.49-1.509l6.156.506c1.731.142 2.78-1.478 1.868-2.886l-3.325-5.133c-.899-1.388-1.128-3.002-.628-4.428l1.845-5.264c.505-1.438-.976-2.984-2.648-2.765l-6.025.79c-1.675.22-3.445-.246-4.847-1.276l-5.063-3.716z" class="D"/></mask><g mask="url(#O)"><path d="M90.167 28.68l8.98 5.458-15.446 1.137-1.988-.069.725-2.455 7.728-4.071z" class="F"/><path d="M100.459 34.432l10.272.233 3.328-8.963-2.064-2.465-10.466 1.622-9.201-6.858-2.136.718-.877 10.614 10.475 5.324.669-.225z" class="G"/><path d="M112.628 25.183l-13.154 8.843-7.91-15.031 19.113 4.633 1.95 1.556z" class="H"/><path d="M99.304 34.454l-7.733-15.459-.845.653-1.405 9.685 9.983 5.121z" class="I"/><path d="M115.465 44.13L99.14 34.138l-2.911 16.825 19.236-6.833z" class="J"/><path d="M81.709 35.206l18.102-1.292-8.472 7.269-8.841-4.399-.789-1.577z" class="K"/></g><mask id="P" maskUnits="userSpaceOnUse" x="82" y="19" width="34" height="32" mask-type="alpha"><path d="M94.166 20.107c-1.413-1.037-3.386-.374-3.504 1.178l-.423 5.56c-.117 1.54-.979 2.89-2.36 3.698l-4.967 2.904c-1.379.806-1.109 2.759.482 3.493l5.822 2.687c1.577.728 2.797 2.009 3.345 3.515l2.028 5.569c.556 1.527 2.692 2.078 3.802.981l3.951-3.903c1.113-1.1 2.755-1.652 4.49-1.509l6.156.506c1.731.142 2.78-1.478 1.868-2.886l-3.325-5.133c-.899-1.388-1.128-3.002-.628-4.428l1.845-5.264c.505-1.438-.976-2.984-2.648-2.765l-6.025.79c-1.675.22-3.445-.246-4.847-1.276l-5.063-3.716z" fill="url(#Aa)"/></mask><g mask="url(#P)" class="L"><g filter="url(#x)"><path d="M91.877 19.626l6.198 14.117-16.372 1.464 16.579.016-2.056 15.741 3.662-15.323 15.574 8.49-14.788-9.711 11.951-9.235-13.071 8.062-7.676-13.62z"/></g></g><g filter="url(#y)" class="M"><path d="M97.957 34.903c.349.697 1.23 1.061 1.969.813a1.19 1.19 0 0 0 .706-1.711c-.348-.697-1.23-1.061-1.968-.812a1.19 1.19 0 0 0-.706 1.711z"/></g><path d="M94.508 19.706c-1.787-1.312-4.284-.473-4.433 1.49l-.423 5.559c-.105 1.387-.882 2.603-2.125 3.33l-4.967 2.904c-1.744 1.02-1.403 3.491.61 4.419l5.822 2.688c1.42.655 2.519 1.809 3.012 3.164l2.028 5.569c.704 1.932 3.405 2.629 4.811 1.241l3.951-3.903c1.003-.991 2.481-1.488 4.044-1.359l6.156.506c2.19.18 3.517-1.871 2.363-3.652l-3.325-5.133c-.81-1.25-1.015-2.703-.565-3.987l1.845-5.264c.638-1.82-1.236-3.776-3.351-3.498l-6.024.79c-1.509.198-3.103-.222-4.366-1.149l-5.063-3.716z" class="E N"/></g><g filter="url(#z)"><path d="M53.742 36.542c-1.086-1.376-3.164-1.261-3.691.203l-1.887 5.246c-.523 1.453-1.713 2.526-3.259 2.936l-5.561 1.477c-1.543.41-1.803 2.364-.465 3.495l4.897 4.14c1.327 1.121 2.161 2.681 2.289 4.278l.472 5.908c.13 1.62 2.041 2.719 3.404 1.957l4.847-2.71c1.366-.764 3.096-.859 4.73-.259l5.799 2.127c1.63.598 3.073-.685 2.569-2.285l-1.839-5.833c-.497-1.577-.288-3.194.573-4.435l3.18-4.583c.869-1.252-.147-3.136-1.817-3.37l-6.018-.842c-1.673-.234-3.255-1.154-4.333-2.52l-3.891-4.93z" class="D"/><mask id="Q" maskUnits="userSpaceOnUse" x="38" y="35" width="33" height="32" mask-type="alpha"><path d="M53.742 36.542c-1.086-1.376-3.164-1.261-3.691.203l-1.887 5.246c-.523 1.453-1.713 2.526-3.259 2.936l-5.561 1.477c-1.543.41-1.803 2.364-.465 3.495l4.897 4.14c1.327 1.121 2.161 2.681 2.289 4.278l.472 5.908c.13 1.62 2.041 2.719 3.404 1.957l4.847-2.71c1.366-.764 3.096-.859 4.73-.259l5.799 2.127c1.63.598 3.073-.685 2.569-2.285l-1.839-5.833c-.497-1.577-.288-3.194.573-4.435l3.18-4.583c.869-1.252-.147-3.136-1.817-3.37l-6.018-.842c-1.673-.234-3.255-1.154-4.333-2.52l-3.891-4.93z" class="D"/></mask><g mask="url(#Q)"><use href="#Ar" x="-64.289" y="8.888" class="F"/><path d="M55.991 52.025l9.839 2.959 5.594-7.754-1.334-2.925-10.52-1.222-7.044-9.06-2.25.123-3.671 9.997 8.68 7.92.705-.039z" class="G"/><use href="#Au" x="-3.797" y="-7.337" class="H"/><path d="M54.864 51.736l-3.339-16.96-.989.404-3.932 8.962 8.26 7.594z" class="I"/><path d="M67.879 65.366L54.802 51.39l-7.284 15.443 20.361-1.466z" class="J"/><use href="#As" x="-64.289" y="8.887" class="K"/></g><mask id="R" maskUnits="userSpaceOnUse" x="38" y="35" width="33" height="32" mask-type="alpha"><path d="M53.742 36.542c-1.086-1.376-3.164-1.261-3.691.203l-1.887 5.246c-.523 1.453-1.713 2.526-3.259 2.936l-5.561 1.477c-1.543.41-1.803 2.364-.465 3.495l4.897 4.14c1.327 1.121 2.161 2.681 2.289 4.278l.472 5.908c.13 1.62 2.041 2.719 3.404 1.957l4.847-2.71c1.366-.764 3.096-.859 4.73-.259l5.799 2.127c1.63.598 3.073-.685 2.569-2.285l-1.839-5.833c-.497-1.577-.288-3.194.573-4.435l3.18-4.583c.869-1.252-.147-3.136-1.817-3.37l-6.018-.842c-1.673-.234-3.255-1.154-4.333-2.52l-3.891-4.93z" fill="url(#Ab)"/></mask><g mask="url(#R)" class="L"><g filter="url(#AA)"><path d="M51.658 35.469l2.217 15.257-16.171-2.947 15.976 4.428-6.172 14.626 7.609-13.795L67.87 65.367 56.2 52.069l13.978-5.721-14.745 4.293-3.774-15.172z"/></g></g><g filter="url(#AB)" class="M"><path d="M53.456 51.814c.151.765.903 1.35 1.682 1.307a1.19 1.19 0 0 0 1.136-1.462c-.151-.765-.903-1.35-1.681-1.307a1.19 1.19 0 0 0-1.136 1.462z"/></g><path d="M54.178 36.246c-1.374-1.74-4.003-1.596-4.67.256l-1.887 5.246c-.471 1.309-1.543 2.275-2.935 2.644l-5.561 1.477c-1.953.519-2.281 2.991-.588 4.422l4.897 4.14c1.195 1.01 1.946 2.414 2.061 3.852l.472 5.908c.164 2.05 2.583 3.441 4.307 2.477l4.847-2.71c1.23-.688 2.788-.773 4.26-.234l5.799 2.127c2.063.756 3.888-.867 3.25-2.891l-1.84-5.833c-.448-1.42-.259-2.876.517-3.993l3.18-4.583c1.099-1.584-.186-3.968-2.299-4.264l-6.017-.842c-1.506-.211-2.932-1.04-3.902-2.269l-3.891-4.929z" class="E N"/></g><g filter="url(#AC)"><path d="M132.826 54.443c1.524 2.672 3.155 9.788.966 13.574-2.736 4.734-10.584 5.354-11.199 9.813s5.091 11.115 8.537 16.324 4.546 12.868-2.925 29.002-20.035 23.486-27.959 24.664-19.299-.951-29.598-1.337-19.887-2.396-31.308-9.404-18.954-18.27-21.233-29.186-.849-23.467 4.725-30.522c5.52-6.986 15.482-14.74 15.607-14.829-.11.024-6.737-6.549-8.582-10.956-1.851-4.42 3.893-12.024 7.92-13.483-.918 2.291-3.028 6.397-.277 8.859s11.28 7.426 18.704 12.616 18.685 8.638 23.817 5.749 6.574-11.965 12.295-13.637 14.368 4.255 19.525 6.671 11.072 4.445 15.13 2.846c3.203-1.262 4.78-4.451 5.856-6.764z" fill="#b75a1d"/></g><path d="M38.389 38.347c-.481 1.2-1.195 2.704-1.478 4.24-.278 1.508-.104 2.869 1.029 3.882 1.327 1.188 4.093 3.012 7.517 5.223l11.124 7.344c3.648 2.55 8.248 4.676 12.557 5.806 2.153.565 4.216.876 6.038.874 1.828-.002 3.37-.318 4.519-.965 1.168-.657 2.155-1.684 3.074-2.931s1.741-2.672 2.611-4.11c1.694-2.801 3.605-5.735 6.749-6.654 3.112-.909 6.906.259 10.428 1.834 1.784.798 3.544 1.723 5.17 2.593 1.636.875 3.122 1.686 4.391 2.28 2.56 1.199 5.28 2.289 7.845 2.883 2.578.597 4.916.675 6.764-.053 2.926-1.153 4.409-4.088 5.499-6.428l.539-1.158.633 1.11c.816 1.432 1.624 3.968 1.956 6.613.33 2.63.211 5.535-.993 7.618-1.481 2.562-4.329 3.987-6.649 5.258-1.197.655-2.259 1.267-3.061 1.972-.79.693-1.282 1.435-1.407 2.342-.133.962.071 2.095.554 3.376.481 1.275 1.22 2.647 2.099 4.067s1.886 2.863 2.895 4.289l2.886 4.138c1.799 2.72 2.975 6.075 2.74 10.801-.234 4.7-1.863 10.736-5.617 18.842-7.554 16.311-20.291 23.825-28.461 25.039-4.046.601-8.939.356-14.06-.077-5.15-.435-10.529-1.06-15.659-1.252-10.391-.389-20.094-2.424-31.629-9.501-11.572-7.1-19.217-18.515-21.534-29.614-1.155-5.53-1.37-11.474-.59-16.937.78-5.456 2.56-10.481 5.442-14.129 2.797-3.54 6.704-7.256 9.908-10.086 2.288-2.02 4.238-3.606 5.198-4.371l-.582-.583c-.674-.69-1.578-1.657-2.538-2.764-1.902-2.192-4.085-5.007-5.052-7.317-.536-1.28-.503-2.741-.14-4.181s1.069-2.923 1.951-4.284c1.747-2.696 4.289-5.094 6.493-5.893l1.385-.502-.548 1.368z" stroke-width="1.32" class="E"/><mask id="S" maskUnits="userSpaceOnUse" x="17" y="38" width="118" height="111" mask-type="alpha"><path d="M35.499 40.913c-.158.496-.297.999-.389 1.493-.334 1.798-.161 3.817 1.623 5.413 1.46 1.307 4.375 3.221 7.743 5.395l11.069 7.307c3.824 2.673 8.62 4.889 13.136 6.073 2.26.593 4.482.936 6.5.934 2.007-.002 3.89-.346 5.405-1.199 1.484-.835 2.651-2.088 3.644-3.434.986-1.338 1.864-2.86 2.703-4.247 1.758-2.906 3.342-5.162 5.707-5.853 2.421-.707 5.661.175 9.181 1.749 1.72.769 3.433 1.667 5.056 2.536 1.606.859 3.152 1.703 4.476 2.324 2.61 1.222 5.461 2.372 8.206 3.008 2.724.631 5.489.791 7.835-.133 2.604-1.025 4.233-3.141 5.338-5.092.352 1.095.658 2.403.83 3.77.314 2.509.138 4.923-.765 6.486-1.171 2.027-3.465 3.214-5.951 4.576-1.18.646-2.412 1.345-3.385 2.199-.996.874-1.803 1.981-2.007 3.456-.19 1.381.117 2.84.653 4.262.54 1.432 1.347 2.916 2.255 4.382s1.945 2.954 2.956 4.381l2.854 4.091c1.59 2.403 2.657 5.378 2.442 9.712-.218 4.376-1.748 10.173-5.452 18.171-7.328 15.824-19.587 22.894-27.084 24.009-3.815.566-8.518.343-13.641-.09-5.071-.428-10.559-1.063-15.743-1.257-10.137-.38-19.524-2.349-30.749-9.236-11.159-6.846-18.496-17.843-20.708-28.441-1.113-5.331-1.319-11.063-.569-16.31.752-5.259 2.451-9.945 5.071-13.262 2.695-3.411 6.504-7.042 9.686-9.852 1.585-1.4 3.003-2.587 4.032-3.428l1.654-1.325-.912-2.062c.343-.074.611.033.643.045.083.031.144.065.168.08a.94.94 0 0 1 .095.062c.017.013.02.017-.001-.001a6.95 6.95 0 0 1-.192-.178 31.31 31.31 0 0 1-.774-.769c-.652-.667-1.532-1.608-2.467-2.685-1.9-2.19-3.905-4.813-4.749-6.83l-.015-.034-.045-.117c-.102-.311-.183-.903-.108-1.753.083-.935.347-2.074.867-3.279.73-1.691 1.958-3.498 3.881-5.047z" fill="#d9d9d9" class="E O"/></mask><g mask="url(#S)"><path d="M83.818 87.243c4.526-7.553 7.805-15.392 4.713-25.096-.388-1.757-.561-2.235 1.377-5.3 2.422-3.83 6.944-.934 18.398 3.865 16.866 5.358 21.83 3.684 22.96 1.075.903-2.087 1.769-7.358 2.088-9.733 1.008 1.843 3.165 7.083 3.734 13.302.71 7.773-10.226 10.412-9.016 13.987s10.152 10.11 12.035 15.671-6.807 30.107-12.798 41.964-25.395 13.91-54.261 11.818c28.93-6.607 37.454-32.691 37.015-45.044S82.671 91.438 83.818 87.243z" fill="#98491f"/><g filter="url(#AD)"><path d="M85.478 80.626c-10.14-.363-34.667-10.096-45.664-14.917l-11.899-2.934-1.929-27.675 121.868 19.491c1.191 3.32 3.218 11.288 1.796 16.6-2.607 3.298-6.502 1.899-16.495.525s-18.539-8.59-25.026-9.915-7.951 1.484-8.495 7.531-1.482 11.748-14.157 11.294z" fill="url(#Ac)"/></g></g><g filter="url(#AE)"><path d="M116.281 76.321c5.367-1.032 7.83-1.31 7.683 1.13-.488 3.53-8.086 6.456-22.756 11.246-15.153 4.947-24.509 4.756-37.769-.671-15.254-6.244-17.172-14.108-23.098-16.441s-10.12-6.519-5.674-11.006c5.279-5.329 11.675 3.993 21.221 9.724 10.282 6.173 23.555 9.486 34.246 9.482 12.306-.005 20.781-2.431 26.147-3.464z" class="P"/><path d="M125.103 77.609c-.176 1.282-.98 2.361-2.098 3.298s-2.681 1.836-4.613 2.739c-3.868 1.806-9.502 3.756-16.826 6.147-7.644 2.496-13.908 3.722-19.974 3.611-6.074-.111-11.872-1.562-18.589-4.311-7.79-3.189-12.204-6.809-15.413-9.927-.794-.772-1.515-1.513-2.181-2.194-.671-.686-1.284-1.307-1.887-1.867-1.203-1.118-2.311-1.939-3.601-2.447-3.041-1.197-5.841-2.939-7.27-5.138-.734-1.13-1.129-2.419-.947-3.804.181-1.375.91-2.698 2.146-3.945 1.562-1.576 3.31-2.133 5.183-1.864 1.767.254 3.544 1.23 5.3 2.441 1.766 1.218 3.677 2.796 5.669 4.367 2.015 1.59 4.159 3.21 6.48 4.603 10.093 6.06 23.16 9.322 33.653 9.318 12.164-.005 20.482-2.396 25.93-3.444 2.626-.505 4.761-.876 6.222-.754.747.063 1.54.268 2.117.859.606.62.757 1.436.71 2.225l-.004.044-.006.043z" class="E O"/></g><g filter="url(#AF)"><path d="M46.974 78.088l2.421 1.659.063.042.056.051c2.666 2.393 6.432 9.836 3.761 20.238-2.708 10.541-11.583 15.777-15.741 17.103l-1.096.349-.35-1.096c-1.149-3.597-4.461-12.402-8.481-18.811l-.678-1.081 1.145-.564c5.048-2.483 9.228-6.419 12.226-9.982 1.495-1.777 2.683-3.446 3.527-4.769.87-1.364 1.314-2.265 1.399-2.535l.468-1.481 1.281.878z" fill="url(#Ad)" class="E O"/><mask id="T" maskUnits="userSpaceOnUse" x="28" y="81" width="26" height="36" mask-type="alpha"><path d="M48.278 82.485c2.053 2.352 5.019 8.28 2.774 17.021-2.233 8.693-9.155 13.431-13.145 15.087-1.346-3.945-4.224-11.299-7.733-17.189 5.757-3.558 8.526-7.496 9.375-9.603l8.729-5.315z" fill="#d9d9d9" class="E O"/></mask><g mask="url(#T)"><path d="M48.426 90.921c-2.132 9.608-8.807 14.063-11.878 15.09.187.732.606 3.82.782 10.322 3.715.503 10.6-3.353 14.764-12.238 3.332-7.108 2.155-15.772 1.15-19.216l-4.282-2.332c.109.634.154 3.197-.536 8.373z" fill="#cd8622"/></g><path d="M46.078 97.297c2.093-6.429 3.077-12.757 2.325-16.836.343-.271 1.59 1.17 2.015 1.793.256 3.632-.742 8.374-4.34 15.043z" fill="#000"/><path d="M24.329 99.627c.526-1.548 1.463-2.546 2.611-3.108 1.106-.542 2.311-.633 3.342-.581 4.1.209 7.384 3.856 9.422 9.194 1.054 2.76 1.352 5.486.756 7.76-.608 2.322-2.149 4.135-4.597 4.887-2.684.824-4.984-.588-6.643-2.343-1.677-1.774-2.971-4.157-3.777-6.022-1.615-3.734-2.11-6.855-1.114-9.787z" fill="url(#Ae)" class="E O"/></g><g filter="url(#AG)"><path d="M35.768 71.505l11.127 3.051.825.226.021.855c.087 3.533-2.258 11.39-11.703 16.608-9.527 5.263-19.425 2.399-23.243.284l-1.006-.557.557-1.007c1.829-3.304 5.961-11.754 7.865-19.076l.301-1.158 1.146.346c7.221 2.177 12.009 1.13 13.304.503l.389-.188.417.114z" fill="url(#Af)" class="E O"/><mask id="U" maskUnits="userSpaceOnUse" x="13" y="72" width="34" height="23" mask-type="alpha"><path d="M45.404 76.534c-.302 3.107-2.58 9.333-10.479 13.697-7.856 4.34-16.052 2.556-19.994.789 1.946-3.686 5.321-10.825 7.198-17.419 6.539 1.746 11.303 1.059 13.419.231l9.856 2.702z" fill="url(#Ag)" class="E O"/></mask><g mask="url(#U)"><path d="M39.372 82.431c-8.452 5.042-16.273 3.243-19.127 1.714-.404.638-2.363 3.063-6.972 7.652 2.183 3.047 9.712 5.41 19.033 2.343 7.457-2.454 12.952-9.255 14.767-12.349l-1.242-4.715c-.386.514-2.219 2.306-6.459 5.355z" fill="#cd8622"/></g><path d="M33.129 85.107c6.113-2.889 9.021-5.71 10.217-7.469.433.064 1.761.121 3.61-.159-2.744 3.074-6.507 5.668-13.826 7.628z" fill="#000"/><path d="M14.548 70.542c1.389-.919 2.758-1.128 4.021-.832 1.211.284 2.206 1.004 2.967 1.721 3.02 2.841 3.239 7.933 1.427 13.609-.935 2.93-2.428 5.34-4.327 6.803-1.941 1.496-4.3 1.981-6.694.982-2.611-1.09-3.475-3.745-3.639-6.232-.167-2.533.346-5.315.907-7.363 1.122-4.094 2.713-6.951 5.337-8.689z" fill="url(#Ah)" class="E O"/></g><g filter="url(#AH)" class="P"><path d="M52.902 64.191c-3.637-1.141-6.338-.23-7.235.368 4.567 1.198 7.924 4.312 9.499 6.612s3.836 9.238 4.226 13.267c1.134-1.358 4.42-7.562 2.916-11.524-1.462-3.852-4.861-7.297-9.407-8.723z"/></g><path d="M45.029 63.602c1.206-.805 4.273-1.747 8.218-.509 4.889 1.534 8.554 5.238 10.139 9.414.902 2.378.337 5.252-.459 7.527-.806 2.303-1.971 4.329-2.651 5.144l-1.763 2.112-.266-2.739c-.184-1.899-.82-4.553-1.619-7.041-.807-2.515-1.725-4.684-2.411-5.686-1.452-2.12-4.594-5.035-8.842-6.15l-2.477-.65 2.13-1.421z" class="E O"/><g filter="url(#AI)" class="P"><path d="M46.386 64.848c-3.546-.641-4.634 1.569-4.734 2.754 1.552 1.098 5.186 4.02 7.303 6.925s2.753 8.568 2.701 11.116c.198 2.678 2.873 4.145 5.579 2.096 3.383-2.562 1.865-9.397-.222-13.472s-6.193-8.617-10.626-9.418z"/></g><path d="M46.59 63.715c2.516.455 4.847 1.947 6.78 3.779a23.78 23.78 0 0 1 4.666 6.248c1.099 2.145 2.053 5.017 2.286 7.729.227 2.651-.213 5.534-2.393 7.185-1.611 1.22-3.391 1.508-4.881.865-1.475-.637-2.415-2.084-2.541-3.792l-.003-.055v-.054c.024-1.186-.113-3.155-.515-5.176-.407-2.046-1.055-3.99-1.965-5.239-2.007-2.755-5.522-5.591-7.038-6.663l-.538-.381.055-.656c.071-.836.476-1.988 1.476-2.841 1.042-.889 2.572-1.318 4.611-.95z" class="E O"/><g filter="url(#AJ)" class="P"><path d="M41.408 67.947c-3.613-1.256-5.381.582-5.792 3.555-.436 3.158 1.987 4.882 6.578 5.83 5.522 1.141 8.022 4.515 8.942 6.535.103-.743.43-4.484-.697-7.29-1.481-3.687-4.515-7.06-9.031-8.63z"/></g><path d="M36.643 67.202c1.353-.965 3.126-1.043 5.143-.342 4.863 1.691 8.13 5.325 9.721 9.288.635 1.581.844 3.37.893 4.809.049 1.449-.063 2.636-.123 3.068l-.543 3.932-1.645-3.612c-.798-1.751-3.03-4.832-8.127-5.886-2.354-.486-4.335-1.202-5.682-2.332-1.341-1.126-1.991-2.615-1.844-4.418l.04-.365c.226-1.639.857-3.207 2.167-4.142z" class="E O"/><path d="M73.972 131.513c-2.019-4.681-6.328-4.886-10.452-3.703-2.519 1.178-3.78 2.126-3.161 5.859.775 4.667 4.839 5.834 8.297 6.163 3.976.379 7.484-3.291 5.315-8.319z" fill="#98491f"/><g filter="url(#AK)"><path d="M113.811 126.559c1.418-1.03 3.388-.357 3.498 1.195l.395 5.562c.11 1.54.965 2.895 2.341 3.709l4.953 2.929c1.375.813 1.096 2.764-.499 3.49l-5.836 2.658c-1.581.72-2.807 1.995-3.362 3.498l-2.056 5.559c-.564 1.524-2.702 2.064-3.807.962l-3.931-3.923c-1.108-1.105-2.747-1.665-4.483-1.531l-6.159.475c-1.731.134-2.773-1.492-1.854-2.895l3.351-5.117c.906-1.383 1.143-2.996.65-4.424l-1.819-5.273c-.497-1.441.991-2.979 2.662-2.751l6.02.82c1.674.228 3.447-.229 4.854-1.252l5.081-3.691z" class="D"/><mask id="V" maskUnits="userSpaceOnUse" x="92" y="126" width="34" height="31" mask-type="alpha"><path d="M113.811 126.559c1.418-1.03 3.388-.357 3.498 1.195l.395 5.562c.11 1.54.965 2.895 2.341 3.709l4.953 2.929c1.375.813 1.096 2.764-.499 3.49l-5.836 2.658c-1.581.72-2.807 1.995-3.362 3.498l-2.056 5.559c-.564 1.524-2.702 2.064-3.807.962l-3.931-3.923c-1.108-1.105-2.747-1.665-4.483-1.531l-6.159.475c-1.731.134-2.773-1.492-1.854-2.895l3.351-5.117c.906-1.383 1.143-2.996.65-4.424l-1.819-5.273c-.497-1.441.991-2.979 2.662-2.751l6.02.82c1.674.228 3.447-.229 4.854-1.252l5.081-3.691z" class="D"/></mask><g mask="url(#V)"><path d="M117.772 135.152l-9.007 5.413 15.44 1.214 1.988-.059-.713-2.459-7.708-4.109z" class="F"/><path d="M107.444 140.853l-10.273.182-3.284-8.979 2.077-2.455 10.457 1.674 9.235-6.812 2.133.728.824 10.618-10.502 5.272-.667-.228z" class="G"/><path d="M95.326 131.544l13.109 8.908 7.984-14.992-19.135 4.538-1.958 1.546z" class="H"/><path d="M108.605 140.88l7.81-15.42.842.657 1.357 9.692-10.009 5.071z" class="I"/><use href="#Ap" x="31.32" y="103.813" class="J"/><path d="M126.196 141.721l-18.095-1.383 8.436 7.312 8.862-4.356.797-1.573z" class="K"/></g><mask id="W" maskUnits="userSpaceOnUse" x="92" y="126" width="34" height="31" mask-type="alpha"><path d="M113.811 126.559c1.418-1.03 3.388-.357 3.498 1.195l.395 5.562c.11 1.54.965 2.895 2.341 3.709l4.953 2.929c1.375.813 1.096 2.764-.499 3.49l-5.836 2.658c-1.581.72-2.807 1.995-3.362 3.498l-2.056 5.559c-.564 1.524-2.702 2.064-3.807.962l-3.931-3.923c-1.108-1.105-2.747-1.665-4.483-1.531l-6.159.475c-1.731.134-2.773-1.492-1.854-2.895l3.351-5.117c.906-1.383 1.143-2.996.65-4.424l-1.819-5.273c-.497-1.441.991-2.979 2.662-2.751l6.02.82c1.674.228 3.447-.229 4.854-1.252l5.081-3.691z" fill="url(#Ai)"/></mask><g mask="url(#W)" class="L"><g filter="url(#AL)"><path d="M116.099 126.09l-6.269 14.086 16.365 1.545-16.579-.067 1.978 15.751-3.585-15.341-15.617 8.413 14.837-9.638-11.905-9.295 13.031 8.128 7.744-13.582z"/></g></g><g filter="url(#AM)" class="M"><path d="M109.94 141.336c-.352.695-1.235 1.055-1.972.803a1.19 1.19 0 0 1-.698-1.715c.352-.695 1.235-1.055 1.973-.803a1.19 1.19 0 0 1 .697 1.715z"/></g><path d="M113.471 126.157c1.794-1.303 4.286-.452 4.426 1.511l.395 5.562c.099 1.387.869 2.607 2.109 3.34l4.952 2.929c1.74 1.028 1.386 3.497-.632 4.416l-5.835 2.659c-1.424.648-2.528 1.796-3.028 3.149l-2.056 5.559c-.713 1.929-3.418 2.612-4.817 1.217l-3.931-3.922c-.998-.996-2.474-1.5-4.038-1.38l-6.158.476c-2.191.169-3.508-1.888-2.345-3.664l3.351-5.116c.816-1.246 1.029-2.698.585-3.984l-1.819-5.273c-.628-1.823 1.255-3.77 3.369-3.482l6.021.82c1.507.205 3.104-.206 4.371-1.127l5.081-3.69z" class="E N"/></g><g filter="url(#AN)"><path d="M85.156 130.663c-1.086-1.376-3.164-1.262-3.691.202l-1.887 5.247c-.523 1.453-1.713 2.526-3.259 2.936l-5.561 1.477c-1.543.41-1.803 2.364-.465 3.495l4.897 4.14c1.327 1.121 2.161 2.681 2.289 4.278l.472 5.908c.129 1.62 2.041 2.719 3.404 1.957l4.847-2.71c1.366-.764 3.096-.859 4.73-.259l5.799 2.126c1.631.598 3.073-.685 2.569-2.285l-1.84-5.833c-.497-1.577-.288-3.193.573-4.435l3.18-4.582c.869-1.253-.146-3.137-1.817-3.37l-6.018-.842c-1.673-.235-3.255-1.155-4.333-2.52l-3.891-4.93z" class="D"/><mask id="X" maskUnits="userSpaceOnUse" x="69" y="129" width="33" height="32" mask-type="alpha"><path d="M85.156 130.663c-1.086-1.376-3.164-1.262-3.691.202l-1.887 5.247c-.523 1.453-1.713 2.526-3.259 2.936l-5.561 1.477c-1.543.41-1.803 2.364-.465 3.495l4.897 4.14c1.327 1.121 2.161 2.681 2.289 4.278l.472 5.908c.129 1.62 2.041 2.719 3.404 1.957l4.847-2.71c1.366-.764 3.096-.859 4.73-.259l5.799 2.126c1.631.598 3.073-.685 2.569-2.285l-1.84-5.833c-.497-1.577-.288-3.193.573-4.435l3.18-4.582c.869-1.253-.146-3.137-1.817-3.37l-6.018-.842c-1.673-.235-3.255-1.155-4.333-2.52l-3.891-4.93z" class="D"/></mask><g mask="url(#X)"><path d="M79.006 137.858l7.203 7.652-15.191-3.015-1.897-.596 1.352-2.173 8.533-1.868z" class="F"/><path d="M87.413 146.147l9.84 2.959 5.594-7.754-1.334-2.926-10.52-1.222-7.044-9.06-2.25.124-3.671 9.997 8.68 7.92.704-.038z" class="G"/><path d="M101.603 140.47l-15.032 5.023-3.623-16.595 17.19 9.553 1.466 2.019z" class="H"/><use href="#Av" x="27.625" y="86.785" class="I"/><path d="M99.285 159.487L86.208 145.51l-7.284 15.443 20.361-1.466z" class="J"/><path d="M69.125 141.9l17.793 3.573-10.101 4.752-7.351-6.594-.341-1.731z" class="K"/></g><mask id="Y" maskUnits="userSpaceOnUse" x="69" y="129" width="33" height="32" mask-type="alpha"><path d="M85.156 130.663c-1.086-1.376-3.164-1.262-3.691.202l-1.887 5.247c-.523 1.453-1.713 2.526-3.259 2.936l-5.561 1.477c-1.543.41-1.803 2.364-.465 3.495l4.897 4.14c1.327 1.121 2.161 2.681 2.289 4.278l.472 5.908c.129 1.62 2.041 2.719 3.404 1.957l4.847-2.71c1.366-.764 3.096-.859 4.73-.259l5.799 2.126c1.631.598 3.073-.685 2.569-2.285l-1.84-5.833c-.497-1.577-.288-3.193.573-4.435l3.18-4.582c.869-1.253-.146-3.137-1.817-3.37l-6.018-.842c-1.673-.235-3.255-1.155-4.333-2.52l-3.891-4.93z" fill="url(#Aj)"/></mask><g mask="url(#Y)" class="L"><g filter="url(#AO)"><path d="M83.072 129.59l2.217 15.258-16.171-2.947 15.976 4.428-6.172 14.626 7.609-13.796 12.752 12.329-11.67-13.297 13.978-5.721-14.746 4.292-3.774-15.172z"/></g></g><g filter="url(#AP)" class="M"><path d="M84.87 145.935c.151.765.903 1.35 1.681 1.308a1.19 1.19 0 0 0 1.136-1.462c-.15-.765-.903-1.35-1.681-1.307a1.19 1.19 0 0 0-1.136 1.461z"/></g><path d="M85.592 130.368c-1.374-1.741-4.003-1.596-4.67.256l-1.887 5.246c-.471 1.309-1.543 2.275-2.935 2.644l-5.561 1.477c-1.953.519-2.281 2.991-.588 4.423l4.897 4.14c1.195 1.01 1.946 2.414 2.061 3.852l.472 5.908c.164 2.05 2.583 3.441 4.307 2.477l4.847-2.711c1.23-.688 2.788-.773 4.26-.233l5.799 2.126c2.063.756 3.888-.867 3.25-2.891l-1.84-5.833c-.448-1.42-.259-2.876.517-3.993l3.18-4.584c1.099-1.584-.186-3.968-2.299-4.264l-6.017-.842c-1.506-.21-2.932-1.039-3.902-2.269l-3.891-4.929z" class="E N"/></g><g filter="url(#AQ)"><path d="M50.011 124.111c.092-1.63-1.695-2.697-3.173-1.896l-5.297 2.872c-1.467.795-3.21.936-4.772.385l-5.619-1.981c-1.559-.55-3.169.765-2.879 2.352l1.06 5.809c.287 1.573-.142 3.201-1.179 4.465l-3.834 4.674c-1.051 1.282-.268 3.164 1.395 3.351l5.914.664c1.667.187 3.154 1.075 4.067 2.43l3.239 4.805c.911 1.351 3.011 1.193 3.74-.282l2.659-5.377c.719-1.454 2.045-2.545 3.639-2.995l5.884-1.658c1.608-.454 2.121-2.424.917-3.525l-4.336-3.967c-1.205-1.103-1.846-2.668-1.755-4.286l.33-5.84z" class="D"/><mask id="Z" maskUnits="userSpaceOnUse" x="23" y="121" width="34" height="32" mask-type="alpha"><path d="M50.011 124.111c.092-1.63-1.695-2.697-3.173-1.896l-5.297 2.872c-1.467.795-3.21.936-4.772.385l-5.619-1.981c-1.559-.55-3.169.765-2.879 2.352l1.06 5.809c.287 1.573-.142 3.201-1.179 4.465l-3.834 4.674c-1.051 1.282-.268 3.164 1.395 3.351l5.914.664c1.667.187 3.154 1.075 4.067 2.43l3.239 4.805c.911 1.351 3.011 1.193 3.74-.282l2.659-5.377c.719-1.454 2.045-2.545 3.639-2.995l5.884-1.658c1.608-.454 2.121-2.424.917-3.525l-4.336-3.967c-1.205-1.103-1.846-2.668-1.755-4.286l.33-5.84z" class="D"/></mask><g mask="url(#Z)"><path d="M39.828 126.078l.443 9.711-10.31-10.679-1.131-1.497 2.663-.873 8.336 3.338z" class="F"/><path d="M40.791 136.923l5.959 7.668 10.131-2.688.996-2.925-7.758-6.748.694-10.674-1.934-1.156-10.156 5.431 1.463 10.73.606.362z" class="G"/><path d="M56.493 140.557L40.57 135.97l8.885-14.404 7.279 16.67-.24 2.321z" class="H"/><path d="M40.075 136.085l9.379-14.519-1.1-.247-9.63 4.513 1.351 10.253z" class="I"/><path d="M41.009 153.481l-.742-17.693-17.012 7.494 17.754 10.199z" class="J"/><path d="M28.826 123.613l12.047 12.537-11.684-2.053-1.32-9.003.957-1.481z" class="K"/></g><mask id="a" maskUnits="userSpaceOnUse" x="23" y="121" width="34" height="32" mask-type="alpha"><path d="M50.011 124.111c.092-1.63-1.695-2.697-3.173-1.896l-5.297 2.872c-1.467.795-3.21.936-4.772.385l-5.619-1.981c-1.559-.55-3.169.765-2.879 2.352l1.06 5.809c.287 1.573-.142 3.201-1.179 4.465l-3.834 4.674c-1.051 1.282-.268 3.164 1.395 3.351l5.914.664c1.667.187 3.154 1.075 4.067 2.43l3.239 4.805c.911 1.351 3.011 1.193 3.74-.282l2.659-5.377c.719-1.454 2.045-2.545 3.639-2.995l5.884-1.658c1.608-.454 2.121-2.424.917-3.525l-4.336-3.967c-1.205-1.103-1.846-2.668-1.755-4.286l.33-5.84z" fill="url(#Ak)"/></mask><g mask="url(#a)" class="L"><g filter="url(#AR)"><path d="M49.08 122.159l-9.083 12.626-11.163-11.171 9.944 12.169-15.515 7.501 16.101-6.084 1.654 16.282-.073-16.405 15.557 3.481-15.166-4.973 7.745-13.426z"/></g></g><g filter="url(#AS)" class="M"><path d="M38.868 135.361a1.35 1.35 0 0 0 .446 1.909c.669.4 1.554.193 1.977-.461a1.35 1.35 0 0 0-.446-1.909c-.669-.4-1.554-.193-1.977.461z"/></g><path d="M50.58 124.132c.116-2.061-2.144-3.412-4.015-2.399l-5.297 2.872a5.33 5.33 0 0 1-4.298.347l-5.618-1.982c-1.973-.695-4.009.969-3.643 2.977l1.059 5.809c.259 1.417-.128 2.882-1.061 4.02l-3.834 4.675c-1.33 1.622-.34 4.003 1.764 4.239l5.914.664c1.501.169 2.84.969 3.662 2.189l3.239 4.805c1.152 1.709 3.81 1.509 4.733-.357l2.659-5.377c.647-1.309 1.842-2.291 3.278-2.696l5.884-1.659c2.034-.574 2.683-3.068 1.16-4.46l-4.336-3.967a4.85 4.85 0 0 1-1.581-3.86l.33-5.84z" class="E N"/></g><defs><filter id="b" x="56.812" y="17.833" width="40.673" height="37.881" filterUnits="userSpaceOnUse" class="B"><feFlood result="A" class="C"/><feColorMatrix in="SourceAlpha" values="0 0 0 0 0 0 0 0 0 0 0 0 0 0 0 0 0 0 127 0" result="B"/><feOffset dx="-0.798446" dy="-0.798446"/><feGaussianBlur stdDeviation="1.278"/><feComposite in2="B" operator="out"/><feColorMatrix values="0 0 0 0 0 0 0 0 0 0 0 0 0 0 0 0 0 0 0.39 0"/><feBlend in2="A"/><feBlend in="SourceGraphic"/></filter><filter id="c" x="60.789" y="21.995" width="34.369" height="31.88" filterUnits="userSpaceOnUse" class="B"><feFlood class="C"/><feBlend in="SourceGraphic"/><feGaussianBlur stdDeviation=".141"/></filter><filter id="d" x="75.453" y="35.376" width="3.666" height="3.384" filterUnits="userSpaceOnUse" class="B"><feFlood class="C"/><feBlend in="SourceGraphic"/><feGaussianBlur stdDeviation=".176"/></filter><filter id="e" x="97.804" y="22.23" width="39.501" height="38.174" filterUnits="userSpaceOnUse" class="B"><feFlood result="A" class="C"/><feColorMatrix in="SourceAlpha" values="0 0 0 0 0 0 0 0 0 0 0 0 0 0 0 0 0 0 127 0" result="B"/><feOffset dx="-0.798446" dy="-0.798446"/><feGaussianBlur stdDeviation="1.278"/><feComposite in2="B" operator="out"/><feColorMatrix values="0 0 0 0 0 0 0 0 0 0 0 0 0 0 0 0 0 0 0.39 0"/><feBlend in2="A"/><feBlend in="SourceGraphic"/></filter><filter id="f" x="101.719" y="26.3" width="33.041" height="31.929" filterUnits="userSpaceOnUse" class="B"><feFlood class="C"/><feBlend in="SourceGraphic"/><feGaussianBlur stdDeviation=".141"/></filter><filter id="g" x="117.367" y="41.109" width="3.573" height="3.479" filterUnits="userSpaceOnUse" class="B"><feFlood class="C"/><feBlend in="SourceGraphic"/><feGaussianBlur stdDeviation=".176"/></filter><filter id="h" x="93.72" y="36.226" width="44.557" height="44.273" filterUnits="userSpaceOnUse" class="B"><feFlood result="A" class="C"/><feColorMatrix in="SourceAlpha" values="0 0 0 0 0 0 0 0 0 0 0 0 0 0 0 0 0 0 127 0" result="B"/><feOffset dx="0.798446" dy="2.39534"/><feGaussianBlur stdDeviation="1.477"/><feComposite in2="B" operator="out"/><feColorMatrix values="0 0 0 0 0 0 0 0 0 0 0 0 0 0 0 0 0 0 0.25 0"/><feBlend in2="A"/><feBlend in="SourceGraphic"/></filter><filter id="i" x="96.245" y="37.943" width="37.442" height="36.836" filterUnits="userSpaceOnUse" class="B"><feFlood class="C"/><feBlend in="SourceGraphic"/><feGaussianBlur stdDeviation=".159"/></filter><filter id="j" x="112.876" y="52.559" width="3.984" height="3.985" filterUnits="userSpaceOnUse" class="B"><feFlood class="C"/><feBlend in="SourceGraphic"/><feGaussianBlur stdDeviation=".199"/></filter><filter id="k" x="32.952" y="16.315" width="40.673" height="37.881" filterUnits="userSpaceOnUse" class="B"><feFlood result="A" class="C"/><feColorMatrix in="SourceAlpha" values="0 0 0 0 0 0 0 0 0 0 0 0 0 0 0 0 0 0 127 0" result="B"/><feOffset dx="-0.798446" dy="-0.798446"/><feGaussianBlur stdDeviation="1.278"/><feComposite in2="B" operator="out"/><feColorMatrix values="0 0 0 0 0 0 0 0 0 0 0 0 0 0 0 0 0 0 0.39 0"/><feBlend in2="A"/><feBlend in="SourceGraphic"/></filter><filter id="l" x="36.93" y="20.477" width="34.369" height="31.88" filterUnits="userSpaceOnUse" class="B"><feFlood class="C"/><feBlend in="SourceGraphic"/><feGaussianBlur stdDeviation=".141"/></filter><filter id="m" x="51.594" y="33.858" width="3.666" height="3.384" filterUnits="userSpaceOnUse" class="B"><feFlood class="C"/><feBlend in="SourceGraphic"/><feGaussianBlur stdDeviation=".176"/></filter><filter id="n" x="37.304" y="38.453" width="39.501" height="38.174" filterUnits="userSpaceOnUse" class="B"><feFlood result="A" class="C"/><feColorMatrix in="SourceAlpha" values="0 0 0 0 0 0 0 0 0 0 0 0 0 0 0 0 0 0 127 0" result="B"/><feOffset dx="-0.798446" dy="-0.798446"/><feGaussianBlur stdDeviation="1.278"/><feComposite in2="B" operator="out"/><feColorMatrix values="0 0 0 0 0 0 0 0 0 0 0 0 0 0 0 0 0 0 0.39 0"/><feBlend in2="A"/><feBlend in="SourceGraphic"/></filter><filter id="o" x="41.219" y="42.523" width="33.041" height="31.929" filterUnits="userSpaceOnUse" class="B"><feFlood class="C"/><feBlend in="SourceGraphic"/><feGaussianBlur stdDeviation=".141"/></filter><filter id="p" x="56.875" y="57.333" width="3.573" height="3.479" filterUnits="userSpaceOnUse" class="B"><feFlood class="C"/><feBlend in="SourceGraphic"/><feGaussianBlur stdDeviation=".176"/></filter><filter id="q" x="58.031" y="35.321" width="40.673" height="37.881" filterUnits="userSpaceOnUse" class="B"><feFlood result="A" class="C"/><feColorMatrix in="SourceAlpha" values="0 0 0 0 0 0 0 0 0 0 0 0 0 0 0 0 0 0 127 0" result="B"/><feOffset dx="-0.798446" dy="-0.798446"/><feGaussianBlur stdDeviation="1.278"/><feComposite in2="B" operator="out"/><feColorMatrix values="0 0 0 0 0 0 0 0 0 0 0 0 0 0 0 0 0 0 0.39 0"/><feBlend in2="A"/><feBlend in="SourceGraphic"/></filter><filter id="r" x="62" y="39.483" width="34.369" height="31.88" filterUnits="userSpaceOnUse" class="B"><feFlood class="C"/><feBlend in="SourceGraphic"/><feGaussianBlur stdDeviation=".141"/></filter><filter id="s" x="76.664" y="52.863" width="3.666" height="3.384" filterUnits="userSpaceOnUse" class="B"><feFlood class="C"/><feBlend in="SourceGraphic"/><feGaussianBlur stdDeviation=".176"/></filter><filter id="t" x="76.195" y="30.793" width="39.501" height="38.174" filterUnits="userSpaceOnUse" class="B"><feFlood result="A" class="C"/><feColorMatrix in="SourceAlpha" values="0 0 0 0 0 0 0 0 0 0 0 0 0 0 0 0 0 0 127 0" result="B"/><feOffset dx="-0.798446" dy="-0.798446"/><feGaussianBlur stdDeviation="1.278"/><feComposite in2="B" operator="out"/><feColorMatrix values="0 0 0 0 0 0 0 0 0 0 0 0 0 0 0 0 0 0 0.39 0"/><feBlend in2="A"/><feBlend in="SourceGraphic"/></filter><filter id="u" x="80.102" y="34.862" width="33.041" height="31.929" filterUnits="userSpaceOnUse" class="B"><feFlood class="C"/><feBlend in="SourceGraphic"/><feGaussianBlur stdDeviation=".141"/></filter><filter id="v" x="95.758" y="49.672" width="3.573" height="3.479" filterUnits="userSpaceOnUse" class="B"><feFlood class="C"/><feBlend in="SourceGraphic"/><feGaussianBlur stdDeviation=".176"/></filter><filter id="w" x="77.492" y="15.185" width="40.641" height="37.903" filterUnits="userSpaceOnUse" class="B"><feFlood result="A" class="C"/><feColorMatrix in="SourceAlpha" values="0 0 0 0 0 0 0 0 0 0 0 0 0 0 0 0 0 0 127 0" result="B"/><feOffset dx="-0.798446" dy="-0.798446"/><feGaussianBlur stdDeviation="1.278"/><feComposite in2="B" operator="out"/><feColorMatrix values="0 0 0 0 0 0 0 0 0 0 0 0 0 0 0 0 0 0 0.39 0"/><feBlend in2="A"/><feBlend in="SourceGraphic"/></filter><filter id="x" x="81.422" y="19.344" width="34.322" height="31.902" filterUnits="userSpaceOnUse" class="B"><feFlood class="C"/><feBlend in="SourceGraphic"/><feGaussianBlur stdDeviation=".141"/></filter><filter id="y" x="97.461" y="32.76" width="3.666" height="3.385" filterUnits="userSpaceOnUse" class="B"><feFlood class="C"/><feBlend in="SourceGraphic"/><feGaussianBlur stdDeviation=".176"/></filter><filter id="z" x="33.515" y="31.117" width="39.501" height="38.174" filterUnits="userSpaceOnUse" class="B"><feFlood result="A" class="C"/><feColorMatrix in="SourceAlpha" values="0 0 0 0 0 0 0 0 0 0 0 0 0 0 0 0 0 0 127 0" result="B"/><feOffset dx="-0.798446" dy="-0.798446"/><feGaussianBlur stdDeviation="1.278"/><feComposite in2="B" operator="out"/><feColorMatrix values="0 0 0 0 0 0 0 0 0 0 0 0 0 0 0 0 0 0 0.39 0"/><feBlend in2="A"/><feBlend in="SourceGraphic"/></filter><filter id="AA" x="37.422" y="35.187" width="33.041" height="31.929" filterUnits="userSpaceOnUse" class="B"><feFlood class="C"/><feBlend in="SourceGraphic"/><feGaussianBlur stdDeviation=".141"/></filter><filter id="AB" x="53.078" y="49.997" width="3.573" height="3.479" filterUnits="userSpaceOnUse" class="B"><feFlood class="C"/><feBlend in="SourceGraphic"/><feGaussianBlur stdDeviation=".176"/></filter><filter id="AC" x="14.251" y="34.357" width="121.922" height="115.133" filterUnits="userSpaceOnUse" class="B"><feFlood class="C"/><feBlend in="SourceGraphic" result="B"/><feColorMatrix in="SourceAlpha" values="0 0 0 0 0 0 0 0 0 0 0 0 0 0 0 0 0 0 127 0" result="C"/><feOffset dx="-31.8805" dy="-11.2519"/><feGaussianBlur stdDeviation=".75"/><feComposite in2="C" operator="arithmetic" k2="-1" k3="1"/><feColorMatrix values="0 0 0 0 0 0 0 0 0 0 0 0 0 0 0 0 0 0 0.07 0"/><feBlend in2="B"/></filter><filter id="AD" x="25.986" y="35.101" width="124.148" height="45.551" filterUnits="userSpaceOnUse" class="B"><feFlood class="C"/><feBlend in="SourceGraphic" result="B"/><feColorMatrix in="SourceAlpha" values="0 0 0 0 0 0 0 0 0 0 0 0 0 0 0 0 0 0 127 0" result="C"/><feOffset dy="-1"/><feComposite in2="C" operator="arithmetic" k2="-1" k3="1"/><feColorMatrix values="0 0 0 0 0.921154 0 0 0 0 0.517476 0 0 0 0 0.36049 0 0 0 0.76 0"/><feBlend in2="B"/></filter><filter id="AE" x="30.509" y="56.689" width="95.766" height="40.123" filterUnits="userSpaceOnUse" class="B"><feFlood result="A" class="C"/><feColorMatrix in="SourceAlpha" values="0 0 0 0 0 0 0 0 0 0 0 0 0 0 0 0 0 0 127 0" result="B"/><feOffset dy="2.25039"/><feComposite in2="B" operator="out"/><feColorMatrix values="0 0 0 0 0 0 0 0 0 0 0 0 0 0 0 0 0 0 0.25 0"/><feBlend in2="A"/><feBlend in="SourceGraphic" result="D"/><feColorMatrix in="SourceAlpha" values="0 0 0 0 0 0 0 0 0 0 0 0 0 0 0 0 0 0 127 0" result="B"/><feOffset dy="-7.50129"/><feComposite in2="B" operator="arithmetic" k2="-1" k3="1"/><feColorMatrix values="0 0 0 0 0.796078 0 0 0 0 0.509804 0 0 0 0 0.133333 0 0 0 0.69 0"/><feBlend in2="D"/></filter><filter id="AF" x="22.665" y="75.383" width="34.547" height="46.042" filterUnits="userSpaceOnUse" class="B"><feFlood result="A" class="C"/><feColorMatrix in="SourceAlpha" values="0 0 0 0 0 0 0 0 0 0 0 0 0 0 0 0 0 0 127 0" result="B"/><feOffset dx="1.87532" dy="2.25039"/><feComposite in2="B" operator="out"/><feColorMatrix values="0 0 0 0 0 0 0 0 0 0 0 0 0 0 0 0 0 0 0.15 0"/><feBlend in2="A"/><feBlend in="SourceGraphic"/></filter><filter id="AG" x="7.118" y="68.433" width="43.274" height="29.828" filterUnits="userSpaceOnUse" class="B"><feFlood result="A" class="C"/><feColorMatrix in="SourceAlpha" values="0 0 0 0 0 0 0 0 0 0 0 0 0 0 0 0 0 0 127 0" result="B"/><feOffset dx="1.50026" dy="1.87532"/><feComposite in2="B" operator="out"/><feColorMatrix values="0 0 0 0 0 0 0 0 0 0 0 0 0 0 0 0 0 0 0.17 0"/><feBlend in2="A"/><feBlend in="SourceGraphic"/></filter><filter id="AH" x="40.134" y="61.344" width="24.867" height="28.795" filterUnits="userSpaceOnUse" class="B"><feFlood class="C"/><feBlend in="SourceGraphic" result="B"/><feColorMatrix in="SourceAlpha" values="0 0 0 0 0 0 0 0 0 0 0 0 0 0 0 0 0 0 127 0" result="C"/><feOffset dx="-5.2509" dy="-1.50026"/><feComposite in2="C" operator="arithmetic" k2="-1" k3="1"/><feColorMatrix values="0 0 0 0 0.796078 0 0 0 0 0.509804 0 0 0 0 0.133333 0 0 0 0.72 0"/><feBlend in2="B"/></filter><filter id="AI" x="39.243" y="62.432" width="22.281" height="28.573" filterUnits="userSpaceOnUse" class="B"><feFlood class="C"/><feBlend in="SourceGraphic" result="B"/><feColorMatrix in="SourceAlpha" values="0 0 0 0 0 0 0 0 0 0 0 0 0 0 0 0 0 0 127 0" result="C"/><feOffset dx="-5.2509" dy="-1.50026"/><feComposite in2="C" operator="arithmetic" k2="-1" k3="1"/><feColorMatrix values="0 0 0 0 0.796078 0 0 0 0 0.509804 0 0 0 0 0.133333 0 0 0 0.72 0"/><feBlend in2="B"/></filter><filter id="AJ" x="33.267" y="65.245" width="20.297" height="26.8" filterUnits="userSpaceOnUse" class="B"><feFlood class="C"/><feBlend in="SourceGraphic" result="B"/><feColorMatrix in="SourceAlpha" values="0 0 0 0 0 0 0 0 0 0 0 0 0 0 0 0 0 0 127 0" result="C"/><feOffset dx="-5.2509" dy="-1.50026"/><feComposite in2="C" operator="arithmetic" k2="-1" k3="1"/><feColorMatrix values="0 0 0 0 0.796078 0 0 0 0 0.509804 0 0 0 0 0.133333 0 0 0 0.72 0"/><feBlend in2="B"/></filter><filter id="AK" x="90.935" y="121.247" width="39.874" height="37.082" filterUnits="userSpaceOnUse" class="B"><feFlood result="A" class="C"/><feColorMatrix in="SourceAlpha" values="0 0 0 0 0 0 0 0 0 0 0 0 0 0 0 0 0 0 127 0" result="B"/><feOffset dx="1.59689" dy="-1.59689"/><feGaussianBlur stdDeviation="1.078"/><feComposite in2="B" operator="out"/><feColorMatrix values="0 0 0 0 0 0 0 0 0 0 0 0 0 0 0 0 0 0 0.29 0"/><feBlend in2="A"/><feBlend in="SourceGraphic"/></filter><filter id="AL" x="92.11" y="125.808" width="34.369" height="31.88" filterUnits="userSpaceOnUse" class="B"><feFlood class="C"/><feBlend in="SourceGraphic"/><feGaussianBlur stdDeviation=".141"/></filter><filter id="AM" x="106.773" y="139.188" width="3.666" height="3.384" filterUnits="userSpaceOnUse" class="B"><feFlood class="C"/><feBlend in="SourceGraphic"/><feGaussianBlur stdDeviation=".176"/></filter><filter id="AN" x="64.929" y="125.239" width="39.501" height="38.174" filterUnits="userSpaceOnUse" class="B"><feFlood result="A" class="C"/><feColorMatrix in="SourceAlpha" values="0 0 0 0 0 0 0 0 0 0 0 0 0 0 0 0 0 0 127 0" result="B"/><feOffset dx="-0.798446" dy="-0.798446"/><feGaussianBlur stdDeviation="1.278"/><feComposite in2="B" operator="out"/><feColorMatrix values="0 0 0 0 0 0 0 0 0 0 0 0 0 0 0 0 0 0 0.39 0"/><feBlend in2="A"/><feBlend in="SourceGraphic"/></filter><filter id="AO" x="68.836" y="129.308" width="33.041" height="31.929" filterUnits="userSpaceOnUse" class="B"><feFlood class="C"/><feBlend in="SourceGraphic"/><feGaussianBlur stdDeviation=".141"/></filter><filter id="AP" x="84.492" y="144.119" width="3.573" height="3.479" filterUnits="userSpaceOnUse" class="B"><feFlood class="C"/><feBlend in="SourceGraphic"/><feGaussianBlur stdDeviation=".176"/></filter><filter id="AQ" x="19.104" y="118.041" width="40.464" height="38.825" filterUnits="userSpaceOnUse" class="B"><feFlood result="A" class="C"/><feColorMatrix in="SourceAlpha" values="0 0 0 0 0 0 0 0 0 0 0 0 0 0 0 0 0 0 127 0" result="B"/><feOffset dx="-0.798446"/><feGaussianBlur stdDeviation="1.397"/><feComposite in2="B" operator="out"/><feColorMatrix values="0 0 0 0 0 0 0 0 0 0 0 0 0 0 0 0 0 0 0.44 0"/><feBlend in2="A"/><feBlend in="SourceGraphic"/></filter><filter id="AR" x="22.977" y="121.877" width="33.807" height="31.888" filterUnits="userSpaceOnUse" class="B"><feFlood class="C"/><feBlend in="SourceGraphic"/><feGaussianBlur stdDeviation=".141"/></filter><filter id="AS" x="38.297" y="134.343" width="3.565" height="3.483" filterUnits="userSpaceOnUse" class="B"><feFlood class="C"/><feBlend in="SourceGraphic"/><feGaussianBlur stdDeviation=".176"/></filter><radialGradient id="AT" cx="0" cy="0" r="1" gradientTransform="matrix(-7.8099 15.4202 -17.0247 -5.81589 77.9191 35.8086)" href="#Ax"><stop stop-color="#fcb201"/><stop offset="1" stop-color="#966a01"/></radialGradient><radialGradient id="AU" cx="0" cy="0" r="1" gradientTransform="matrix(3.33934 16.9595 17.9637 -0.985169 118.885 41.4641)" href="#Ax"><stop stop-color="#fcb201"/><stop offset="1" stop-color="#966a01"/></radialGradient><radialGradient id="AV" cx="0" cy="0" r="1" gradientTransform="translate(115.658 53.1643) rotate(119.551) scale(19.5222 20.319)" href="#Ax"><stop stop-color="#fcb201"/><stop offset="1" stop-color="#966a01"/></radialGradient><radialGradient id="AW" cx="0" cy="0" r="1" gradientTransform="matrix(-7.8099 15.4202 -17.0247 -5.81589 54.0597 34.2909)" href="#Ax"><stop stop-color="#fcb201"/><stop offset="1" stop-color="#966a01"/></radialGradient><radialGradient id="AX" cx="0" cy="0" r="1" gradientTransform="matrix(3.33934 16.9595 17.9637 -0.985169 58.3846 57.688)" href="#Ax"><stop stop-color="#fcb201"/><stop offset="1" stop-color="#966a01"/></radialGradient><radialGradient id="AY" cx="0" cy="0" r="1" gradientTransform="matrix(-7.8099 15.4202 -17.0247 -5.81589 79.1379 53.2959)" href="#Ax"><stop stop-color="#fcb201"/><stop offset="1" stop-color="#966a01"/></radialGradient><radialGradient id="AZ" cx="0" cy="0" r="1" gradientTransform="matrix(3.33934 16.9595 17.9637 -0.985169 97.2753 50.0271)" href="#Ax"><stop stop-color="#fcb201"/><stop offset="1" stop-color="#966a01"/></radialGradient><radialGradient id="Aa" cx="0" cy="0" r="1" gradientTransform="matrix(7.73293 15.4589 17.0535 -5.73094 98.665 33.1915)" href="#Ax"><stop stop-color="#fcb201"/><stop offset="1" stop-color="#966a01"/></radialGradient><radialGradient id="Ab" cx="0" cy="0" r="1" gradientTransform="matrix(3.33934 16.9595 17.9637 -0.985169 54.5956 50.3519)" href="#Ax"><stop stop-color="#fcb201"/><stop offset="1" stop-color="#966a01"/></radialGradient><linearGradient id="Ac" x1="29.185" y1="55.42" x2="149.606" y2="72.213" href="#Ax"><stop stop-color="#a64f36"/><stop offset="1" stop-color="#d87d51"/></linearGradient><linearGradient id="Ad" x1="54.7" y1="87.964" x2="41.944" y2="101.151" href="#Ax"><stop stop-color="#cc701a"/><stop offset="1" stop-color="#fac728"/></linearGradient><linearGradient id="Ae" x1="26.947" y1="97.837" x2="37.695" y2="115.579" href="#Ax"><stop stop-color="#c26221"/><stop offset="1" stop-color="#9b4f21"/></linearGradient><linearGradient id="Af" x1="40.37" y1="78.215" x2="26.743" y2="85.042" href="#Ax"><stop stop-color="#f49e18"/><stop offset="1" stop-color="#f8c927"/></linearGradient><linearGradient id="Ag" x1="31.613" y1="72.084" x2="28.464" y2="94.896" href="#Ax"><stop stop-color="#f69f1c"/><stop offset="1" stop-color="#f9c527"/></linearGradient><linearGradient id="Ah" x1="17.739" y1="70.736" x2="14.764" y2="92.285" href="#Ax"><stop stop-color="#c36321"/><stop offset="1" stop-color="#964c21"/></linearGradient><radialGradient id="Ai" cx="0" cy="0" r="1" gradientTransform="matrix(-7.8099 15.4202 -17.0247 -5.81589 109.247 139.622)" href="#Ax"><stop stop-color="#fcb201"/><stop offset="1" stop-color="#966a01"/></radialGradient><radialGradient id="Aj" cx="0" cy="0" r="1" gradientTransform="matrix(3.33934 16.9595 17.9637 -0.985169 86.0096 144.473)" href="#Ax"><stop stop-color="#fcb201"/><stop offset="1" stop-color="#966a01"/></radialGradient><radialGradient id="Ak" cx="0" cy="0" r="1" gradientTransform="matrix(-9.37896 14.5194 15.4435 9.22843 40.8428 134.9)" href="#Ax"><stop stop-color="#fcb201"/><stop offset="1" stop-color="#966a01"/></radialGradient><path id="Al" d="M86.452 31.339l-9.007 5.413 15.44 1.214 1.988-.059-.713-2.458-7.708-4.11z"/><path id="Am" d="M76.116 37.04l-10.273.182-3.284-8.979 2.077-2.455 10.457 1.674 9.235-6.812 2.132.728.824 10.618-10.502 5.272-.668-.228z"/><path id="An" d="M63.998 27.731l13.109 8.908 7.984-14.992-19.136 4.537-1.958 1.546z"/><path id="Ao" d="M77.277 37.067l7.81-15.42.842.657 1.356 9.692-10.008 5.071z"/><path id="Ap" d="M61.065 46.661l16.375-9.91 2.827 16.839-19.202-6.929z"/><path id="Aq" d="M78.62 37.524c-.352.695-1.235 1.055-1.973.803a1.19 1.19 0 0 1-.698-1.715c.352-.695 1.235-1.055 1.973-.803a1.19 1.19 0 0 1 .698 1.715z"/><path id="Ar" d="M111.881 34.85l7.203 7.652-15.191-3.015-1.897-.596 1.352-2.173 8.533-1.867z"/><path id="As" d="M102 38.892l17.793 3.572-10.101 4.752-7.351-6.594-.341-1.731z"/><path id="At" d="M59.788 59.362l9.84 2.959 5.594-7.754-1.334-2.926-10.52-1.222-7.044-9.06-2.25.123-3.671 9.997 8.68 7.92.704-.039z"/><path id="Au" d="M73.978 53.685l-15.032 5.023-3.623-16.594 17.19 9.553 1.466 2.019z"/><path id="Av" d="M58.661 59.073l-3.339-16.959-.989.404-3.932 8.962 8.26 7.593z"/><path id="Aw" d="M57.253 59.15c.151.765.903 1.35 1.681 1.307a1.19 1.19 0 0 0 1.136-1.462c-.151-.765-.903-1.35-1.682-1.307a1.19 1.19 0 0 0-1.136 1.462z"/><linearGradient id="Ax" gradientUnits="userSpaceOnUse"/></defs></svg>