<svg xmlns="http://www.w3.org/2000/svg" width="1503" height="1503" fill="none" xmlns:v="https://vecta.io/nano"><g opacity=".6" fill-opacity=".25" fill="url(#A)"><path d="M1503 634.806v234.711L789.842 752.161 1503 634.806z"/><path d="M0 633.483v234.711l713.158-117.355L0 633.483z"/><path d="M634.806 0h234.71L752.161 713.16 634.806 0z"/><path d="M633.484 1503h234.71L750.839 789.84 633.484 1503z"/><path d="M1026.19 42.333l203.26 117.356-458.208 558.937L1026.19 42.333z"/><path d="M273.546 1343.31l203.265 117.36 254.946-676.296-458.211 558.936z"/><path d="M1343.97 274.682l117.35 203.265-676.286 254.947 558.936-458.212z"/><path d="M41.675 1025.04l117.356 203.27 558.935-458.213L41.675 1025.04z"/><path d="M1228.31 1343.96l-203.26 117.36-254.949-676.294 458.209 558.934z"/><path d="M477.952 41.663L274.687 159.019l458.212 558.937L477.952 41.663z"/><path d="M1460.67 1026.17l-117.36 203.27-558.934-458.215 676.294 254.945z"/><path d="M159.687 273.536L42.332 476.801l676.291 254.947-558.936-458.212z"/></g><defs><radialGradient id="A" cx="0" cy="0" r="1" gradientTransform="matrix(-514.8 485.945 -485.944 -514.801 751.5 751.5)" gradientUnits="userSpaceOnUse"><stop offset=".609" stop-color="#fff"/><stop offset="1" stop-color="#fff" stop-opacity="0"/></radialGradient></defs></svg>