<svg xmlns="http://www.w3.org/2000/svg" width="968" height="967" fill="none" xmlns:v="https://vecta.io/nano"><g opacity=".9"><path d="M375.354 954.791l-.202.051c-74.213-17.025-145.647-51.834-207.432-105.132a487.33 487.33 0 0 1-24.199-22.329C78.554 763.221 35.309 684.513 14.394 600.954c-36.626-147.264-3.738-309.481 103.06-433.153 18.894-22.077 39.404-41.93 61.128-59.612 39.203-31.979 82.346-56.784 127.864-74.567C359.188 12.859 414.861 1.694 470.887.229c116.093-3.132 233.6 35.364 328.475 117.155C904.19 207.712 960.67 333.303 966.581 461.369c.101.101.102.101.102.202.909 19.804.554 39.556-1.012 59.36-5.809 77.143-30.261 153.528-73.859 221.78-12.428 19.601-26.42 38.445-42.031 56.581-29.503 34.151-62.746 63.199-98.564 87.045-111.395 74.061-248.049 97.755-375.863 68.454z" fill="#fd4a26"/><g fill="#e72e27"><path d="M882.378 379.983c-71.839 8.386-116.448 14.246-138.323-44.053-21.824-58.3 25.462-66.383 20.208-118.317s-91.086 4.244-94.067-45.063c-3.031-49.307-33.898-83.862-78.304-82.902-43.8.96-160.601-9.043-121.095-89.419 116.093-3.132 233.6 35.364 328.475 117.155C904.1 207.712 960.58 333.303 966.491 461.369c-7.224-28.24-29.148-87.802-84.113-81.386zM716.246 570.387s-15.913-42.234-45.922-35.111c-30.059 7.174-44.406 40.214-39.001 71.738 5.406 31.575 111.749 11.518 84.923-36.627zM375.395 954.792l-.202.051c-74.213-17.025-145.646-51.834-207.432-105.132a487.31 487.31 0 0 1-24.199-22.328c12.933-8.69 27.382-17.884 42.538-27.432 57.087-35.768 133.723 59.259 178.13 36.98s42.285-127.005 88.459-132.714c46.276-5.708 68.555-16.924 116.347-2.88 47.791 13.994 3.435 90.227 81.841 72.596 78.305-17.632 116.801-64.917 128.774-14.852 6.719 28.24-11.417 84.114-28.493 127.308-111.294 74.011-247.949 97.705-375.763 68.403zM14.394 600.954c-36.626-147.264-3.738-309.482 103.06-433.153 18.894-22.077 39.404-41.93 61.128-59.612 39.203-31.979 82.346-56.784 127.864-74.567 4.8 28.19 8.69 71.788 5.456 135.089-6.719 131.805 94.471 88.408 125.944 143.474 31.423 55.117 39.809 90.177 42.234 136.099 2.526 46.023-66.534-23.895-114.982 25.007s-15.205 99.271-63.855 112.912c-48.549 13.69-159.085 13.74-162.015-30.616-2.981-44.406 78.304-69.867 11.416-129.682s-14.853-76.538-5.456-108.365 47.236-91.035-5.86-100.229c-53.146-9.195-46.63 84.165-77.093 151.76-30.463 67.645 25.108 67.594 11.367 130.137-7.325 33.292-33.393 74.617-59.208 101.746zm602.382-309.431s.303-73.506-35.566-76.689c-35.868-3.132-54.056 18.137-51.025 57.593 3.082 39.506 58.654 100.431 81.286 79.061 11.115-10.457 5.305-59.965 5.305-59.965zm274.937 451.24c-27.937-2.375-52.945-14.55-60.018-38.143-18.894-63.755.353-96.34 52.035-108.465 51.782-12.124 28.291-116.548 63.048-103.665 7.679 2.829 13.893 13.59 18.743 28.543-5.759 77.093-30.261 153.478-73.808 221.73z"/></g><path opacity=".2" d="M799.323 117.384c202.227 174.443 224.757 479.68 50.369 681.909-121.146 140.443-305.34 194.145-474.377 155.447 266.59 14.247 479.227-347.169 333.782-605.625C525.763 23.316 178.594 108.138 178.594 108.138c178.434-145.192 440.477-146.202 620.729 9.246z" fill="#000"/><path opacity=".8" d="M100.289 264.696c-47.438 88.358-143.323 330.698 78.659 553.437 21.572 21.673 57.138 20.058 76.537-3.535l9.396-11.418c17.075-20.713 15.459-51.125-3.788-69.817-57.037-55.419-152.115-190.508-66.737-426.585 10.457-28.947-6.516-60.624-36.474-67.848-22.835-5.506-46.479 5.103-57.593 25.766z" fill="url(#A)"/></g><defs><linearGradient id="A" x1="-272.627" y1="656.93" x2="191.006" y2="532.687" gradientUnits="userSpaceOnUse"><stop stop-color="#fff"/><stop offset="1" stop-color="#fff" stop-opacity="0"/></linearGradient></defs></svg>