<svg width="968" height="967" viewBox="0 0 968 967" fill="none" xmlns="http://www.w3.org/2000/svg">
<g opacity="0.9">
<path d="M375.354 954.791L375.152 954.842C300.939 937.817 229.505 903.008 167.72 849.71C159.334 842.486 151.251 835.009 143.521 827.381C78.5536 763.221 35.3091 684.513 14.3941 600.954C-22.2323 453.69 10.6561 291.473 117.454 167.801C136.348 145.724 156.858 125.871 178.582 108.189C217.785 76.2103 260.928 51.4047 306.446 33.6219C359.188 12.8585 414.861 1.69397 470.887 0.22891C586.98 -2.90328 704.487 35.5932 799.362 117.384C904.19 207.712 960.67 333.303 966.581 461.369C966.682 461.47 966.683 461.47 966.683 461.571C967.592 481.375 967.237 501.127 965.671 520.931C959.862 598.074 935.41 674.459 891.812 742.711C879.384 762.312 865.392 781.156 849.781 799.292C820.278 833.443 787.035 862.491 751.217 886.337C639.822 960.398 503.168 984.092 375.354 954.791Z" fill="#FD4A26"/>
<path d="M882.378 379.983C810.539 388.369 765.93 394.229 744.055 335.93C722.231 277.63 769.517 269.547 764.263 217.613C759.009 165.679 673.177 221.857 670.196 172.55C667.165 123.243 636.298 88.6884 591.892 89.6482C548.092 90.6081 431.291 80.6051 470.797 0.22891C586.89 -2.90328 704.397 35.5932 799.272 117.384C904.1 207.712 960.58 333.303 966.491 461.369C959.267 433.129 937.343 373.567 882.378 379.983Z" fill="#E72E27"/>
<path d="M716.246 570.387C716.246 570.387 700.333 528.153 670.324 535.276C640.265 542.45 625.918 575.49 631.323 607.014C636.729 638.589 743.072 618.532 716.246 570.387Z" fill="#E72E27"/>
<path d="M375.395 954.792L375.193 954.843C300.98 937.818 229.547 903.009 167.761 849.711C159.375 842.487 151.292 835.011 143.562 827.383C156.495 818.693 170.944 809.499 186.1 799.951C243.187 764.183 319.823 859.21 364.23 836.931C408.636 814.652 406.515 709.926 452.689 704.217C498.965 698.509 521.244 687.293 569.036 701.337C616.827 715.331 572.471 791.564 650.877 773.933C729.182 756.301 767.678 709.016 779.651 759.081C786.37 787.321 768.234 843.195 751.158 886.389C639.864 960.4 503.209 984.094 375.395 954.792Z" fill="#E72E27"/>
<path d="M14.3941 600.954C-22.2323 453.69 10.6561 291.472 117.454 167.801C136.348 145.724 156.858 125.871 178.582 108.189C217.785 76.2102 260.928 51.4046 306.446 33.6218C311.246 61.8116 315.136 105.41 311.902 168.711C305.183 300.516 406.373 257.119 437.846 312.185C469.269 367.302 477.655 402.362 480.08 448.284C482.606 494.307 413.546 424.389 365.098 473.291C316.65 522.194 349.893 572.562 301.243 586.203C252.694 599.893 142.158 599.943 139.228 555.587C136.247 511.181 217.532 485.72 150.644 425.905C83.7566 366.09 135.791 349.367 145.188 317.54C154.585 285.713 192.424 226.505 139.328 217.311C86.1816 208.116 92.6985 301.476 62.2354 369.071C31.7723 436.716 87.3438 436.665 73.6026 499.208C66.2773 532.5 40.2095 573.825 14.3941 600.954Z" fill="#E72E27"/>
<path d="M616.776 291.523C616.776 291.523 617.079 218.017 581.21 214.834C545.342 211.702 527.154 232.971 530.185 272.427C533.267 311.933 588.839 372.858 611.471 351.488C622.586 341.031 616.776 291.523 616.776 291.523Z" fill="#E72E27"/>
<path d="M891.713 742.763C863.776 740.388 838.768 728.213 831.695 704.62C812.801 640.865 832.048 608.28 883.73 596.155C935.512 584.031 912.021 479.607 946.778 492.49C954.457 495.319 960.671 506.08 965.521 521.033C959.762 598.126 935.26 674.511 891.713 742.763Z" fill="#E72E27"/>
<path opacity="0.2" d="M799.323 117.384C1001.55 291.827 1024.08 597.064 849.692 799.293C728.546 939.736 544.352 993.438 375.315 954.74C641.905 968.987 854.542 607.571 709.097 349.115C525.763 23.316 178.594 108.138 178.594 108.138C357.028 -37.054 619.071 -38.0637 799.323 117.384Z" fill="black"/>
<path opacity="0.8" d="M100.289 264.696C52.8514 353.054 -43.0339 595.394 178.948 818.133C200.52 839.806 236.086 838.191 255.485 814.598L264.881 803.18C281.956 782.467 280.34 752.055 261.093 733.363C204.056 677.944 108.978 542.855 194.356 306.778C204.813 277.831 187.84 246.154 157.882 238.93C135.047 233.424 111.403 244.033 100.289 264.696Z" fill="url(#paint0_linear_142_9646)"/>
</g>
<defs>
<linearGradient id="paint0_linear_142_9646" x1="-272.627" y1="656.93" x2="191.006" y2="532.687" gradientUnits="userSpaceOnUse">
<stop stop-color="white"/>
<stop offset="1" stop-color="white" stop-opacity="0"/>
</linearGradient>
</defs>
</svg>
