<svg width="3819" height="2085" viewBox="0 0 3819 2085" fill="none" xmlns="http://www.w3.org/2000/svg">
<path d="M1167.12 1733.78L521.242 2079.43H146.234L973.245 1711.63L1043.59 1660.67L1113.39 1634.63L1244.11 1534.93L1260.18 1497.26L1238.58 1450.18L1359.33 1134.99L1403.09 1111.73H1909.38V1694.46H1313.91L1167.12 1733.78Z" fill="#003273"/>
<path d="M976.015 1836.26L1208.66 1561.52L1113.39 1634.63L1043.59 1660.67L972.691 1711.63L757.768 1807.46L146.234 2079.44H521.242L976.015 1836.26Z" fill="#052753"/>
<path d="M659.712 1907.17C760.712 1844.94 963.485 1719.72 966.587 1716.62L144.008 2079.99L269.195 2079.44L659.712 1907.17Z" fill="url(#paint0_linear_494_88153)"/>
<path d="M558.368 1917.69L541.75 1927.11L581.633 1951.48L597.696 1942.06L558.368 1917.69Z" fill="#18255A"/>
<path d="M600.466 1897.75L583.848 1907.17L623.731 1931.54L639.795 1922.12L600.466 1897.75Z" fill="#18255A"/>
<path d="M642.564 1878.91L625.947 1888.33L665.829 1912.7L681.893 1903.29L642.564 1878.91Z" fill="#18255A"/>
<path d="M684.663 1861.19L668.045 1870.61L707.928 1894.98L723.991 1885.56L684.663 1861.19Z" fill="#18255A"/>
<path d="M724.545 1843.46L707.928 1852.88L747.81 1877.25L763.874 1867.84L724.545 1843.46Z" fill="#18255A"/>
<path d="M763.32 1824.63L746.702 1834.05L786.585 1858.42L802.649 1849L763.32 1824.63Z" fill="#18255A"/>
<path d="M800.987 1808.01L784.369 1817.43L824.252 1841.8L840.316 1832.39L800.987 1808.01Z" fill="#18255A"/>
<path d="M841.978 1790.29L825.36 1799.7L865.242 1824.08L881.306 1814.66L841.978 1790.29Z" fill="#18255A"/>
<path d="M875.213 1773.67L858.595 1783.09L898.478 1807.46L914.542 1798.04L875.213 1773.67Z" fill="#18255A"/>
<path d="M912.88 1755.94L896.262 1765.36L936.145 1789.73L952.209 1780.32L912.88 1755.94Z" fill="#18255A"/>
<g filter="url(#filter0_ii_494_88153)">
<path d="M977.102 1836.26V1841.8H902.945L392.79 2084.15L390.414 2079.15L901.697 1836.26H977.102Z" fill="#182359"/>
</g>
<path d="M1178.09 1669.82C1178.09 1673.19 1170.65 1675.92 1161.48 1675.92C1152.3 1675.92 1144.86 1673.19 1144.86 1669.82C1144.86 1666.46 1152.3 1663.73 1161.48 1663.73C1170.65 1663.73 1178.09 1666.46 1178.09 1669.82Z" fill="#0E1D4E"/>
<path d="M1147.73 1669.53V1657.35H1175.42V1670.09C1174.31 1671.38 1169.88 1673.96 1161.02 1673.96C1152.16 1673.96 1148.47 1671.01 1147.73 1669.53Z" fill="#283D82"/>
<path d="M1175.42 1657.34C1175.42 1661.01 1169.22 1663.99 1161.57 1663.99C1153.93 1663.99 1147.73 1661.01 1147.73 1657.34C1147.73 1653.67 1153.93 1650.7 1161.57 1650.7C1169.22 1650.7 1175.42 1653.67 1175.42 1657.34Z" fill="#3B5EAC"/>
<path d="M1225.28 1669.82C1225.28 1673.19 1217.84 1675.92 1208.66 1675.92C1199.49 1675.92 1192.05 1673.19 1192.05 1669.82C1192.05 1666.46 1199.49 1663.73 1208.66 1663.73C1217.84 1663.73 1225.28 1666.46 1225.28 1669.82Z" fill="#0E1D4E"/>
<path d="M1194.94 1669.53V1657.35H1222.63V1670.09C1221.53 1671.38 1217.09 1673.96 1208.23 1673.96C1199.37 1673.96 1195.68 1671.01 1194.94 1669.53Z" fill="#283D82"/>
<path d="M1222.63 1657.34C1222.63 1661.01 1216.43 1663.99 1208.79 1663.99C1201.14 1663.99 1194.94 1661.01 1194.94 1657.34C1194.94 1653.67 1201.14 1650.7 1208.79 1650.7C1216.43 1650.7 1222.63 1653.67 1222.63 1657.34Z" fill="#3B5EAC"/>
<path d="M1272.92 1669.82C1272.92 1673.19 1265.48 1675.92 1256.3 1675.92C1247.12 1675.92 1239.68 1673.19 1239.68 1669.82C1239.68 1666.46 1247.12 1663.73 1256.3 1663.73C1265.48 1663.73 1272.92 1666.46 1272.92 1669.82Z" fill="#0E1D4E"/>
<path d="M1242.55 1669.53V1657.35H1270.24V1670.09C1269.14 1671.38 1264.7 1673.96 1255.84 1673.96C1246.98 1673.96 1243.29 1671.01 1242.55 1669.53Z" fill="#283D82"/>
<path d="M1270.24 1657.34C1270.24 1661.01 1264.04 1663.99 1256.4 1663.99C1248.75 1663.99 1242.55 1661.01 1242.55 1657.34C1242.55 1653.67 1248.75 1650.7 1256.4 1650.7C1264.04 1650.7 1270.24 1653.67 1270.24 1657.34Z" fill="#3B5EAC"/>
<path d="M1660.54 1073.35H1670.84L1275.65 60.7109H1267.52L1660.54 1073.35Z" fill="#1362A2"/>
<path d="M1274.57 60.7109L1670.3 1075.52L1713.67 1030.52L1317.34 60.7109H1274.57Z" fill="#052753"/>
<path d="M2157.1 1074.43H2146.8L2541.99 61.793H2550.12L2157.1 1074.43Z" fill="#1362A2"/>
<path d="M2543.07 61.793L2147.34 1076.6L2103.97 1031.6L2500.3 61.793H2543.07Z" fill="#052753"/>
<path d="M1362.65 1457.93L1244.11 1534.93L1260.17 1497.26L1238.57 1450.18L1359.33 1135L1374.84 1126.69H1909.37V1157.71L1456.26 1162.69L1362.65 1457.93Z" fill="#002B63"/>
<path d="M1393.38 1198.23L1327.45 1388.75L1245.44 1431.71L1243.9 1428.76L1324.74 1386.41L1389.54 1199.16L1349.87 1161.12L1352.17 1158.72L1393.38 1198.23Z" fill="#141F51"/>
<path d="M1300.05 1370.41L1260.17 1394.78L1341.05 1182.07L1359.88 1202.02L1300.05 1370.41Z" fill="#141F51"/>
<path d="M1403.09 1111.73L1374.84 1126.68H1909.37V1111.73H1403.09Z" fill="#1A2352"/>
<path d="M788.791 132.941H761.648L823.134 40.4355L835.874 61.4847L788.791 132.941Z" fill="#629FEF"/>
<path d="M835.857 61.4847L823.117 40.4355H1909.37V61.4847H835.857Z" fill="black"/>
<path d="M1909.36 1111.73V1045.26H1723.24L1678.37 1092.34H1402.52L1339.37 1054.12L761.625 132.942L823.111 40.4366H1909.36V0H0.53125V336.787L439.794 34.3434L598.771 59.8239L1223.6 1079.05V1316.13L973.224 1614.14L0.53125 1980.84L40.9678 2061.16L146.214 2079.44L973.224 1711.63L1043.57 1660.67L1113.37 1634.63L1244.09 1534.93L1260.16 1497.26L1238.55 1450.18L1359.31 1134.99L1403.07 1111.73H1909.36Z" fill="#052753"/>
<g filter="url(#filter1_ii_494_88153)">
<path d="M654.711 52.6229L731.153 111.339L784.33 25.4806L707.888 0H687.393L654.711 52.6229Z" fill="#182359"/>
</g>
<g filter="url(#filter2_ii_494_88153)">
<path d="M772.19 171.716C772.19 179.058 766.238 185.01 758.896 185.01C751.554 185.01 745.602 179.058 745.602 171.716C745.602 164.374 751.554 158.422 758.896 158.422C766.238 158.422 772.19 164.374 772.19 171.716Z" fill="#182359"/>
</g>
<g filter="url(#filter3_ii_494_88153)">
<path d="M860.784 16.6145C860.784 23.9567 854.832 29.9087 847.49 29.9087C840.147 29.9087 834.195 23.9567 834.195 16.6145C834.195 9.27233 840.147 3.32031 847.49 3.32031C854.832 3.32031 860.784 9.27233 860.784 16.6145Z" fill="#182359"/>
</g>
<path d="M990.987 1626.88L5 2010.2L33.2502 2060.05L145.143 2079.99L973.262 1711.63L1043.61 1660.67L1113.4 1634.64L1244.13 1534.93L1260.2 1497.26L1238.59 1450.18L1359.35 1135L1403.11 1111.73H1429.14V1092.34H1402.55L1339.41 1054.12L1271.83 947.215L1204.8 1014.24L1242.47 1076.28L1241.92 1104.53L1271.83 1126.13L1240.25 1238.03V1327.21L1203.14 1466.24V1522.74L990.987 1626.88Z" fill="#002B63"/>
<path d="M1743.75 1078.49H1909.37V1111.73H1715.5L1743.75 1078.49Z" fill="#1F306B"/>
<g filter="url(#filter4_ii_494_88153)">
<path d="M1339.31 1043.59L1291.83 1041.88L1167.56 835.323L1174.92 790.008L1180.39 790.895L1173.36 834.206L1295.03 1036.45L1339.51 1038.06L1339.31 1043.59Z" fill="#182359"/>
</g>
<path d="M713.435 129.62L1194.24 961.062L1191.47 1002.05L632.008 84.752L713.435 129.62Z" fill="#2B3C71"/>
<g filter="url(#filter5_ii_494_88153)">
<path d="M1194.25 999.44L1188.72 999.115L1190.95 961.046L692.876 138.738L652.524 130.668L653.611 125.237L696.35 133.785L1196.58 959.65L1194.25 999.44Z" fill="#182359"/>
</g>
<g filter="url(#filter6_ii_494_88153)">
<path d="M918.067 1655.36L899.868 1688.34L60.6879 2030.23L6.17188 2020.68L7.12798 2015.22L60.0728 2024.5L895.964 1683.95L913.217 1652.68L918.067 1655.36Z" fill="#182359"/>
</g>
<path d="M973.267 1711.63L42.6719 2061.71L145.148 2079.99L973.267 1711.63Z" fill="#182359"/>
<g filter="url(#filter7_ii_494_88153)">
<path d="M1060.73 1575.91L1068.49 1597.52H1117.23L1218.05 1510.55L1196.45 1443.53H1167.09L1060.73 1575.91Z" fill="#182359"/>
</g>
<path d="M438.155 10.5215L0.553925 300.778V336.23L439.817 34.3403L598.793 59.8209L1223.62 1079.12V1316.12L973.247 1614.14L0 1980.83L4.98533 2010.19L990.973 1626.88L1239.69 1326.65L1242.45 1076.27L604.333 35.4481L438.155 10.5215Z" fill="url(#paint1_linear_494_88153)"/>
<g filter="url(#filter8_ii_494_88153)">
<path d="M887.406 383.312L894.607 344.537L1132.8 723.976L1101.78 719.545L887.406 383.312Z" fill="#182359"/>
</g>
<path d="M1315.27 1846.38H1909.93V2081.65H1287.56L1239.9 1855.88L1315.27 1846.38Z" fill="#151D4A"/>
<path d="M1185.94 1872.82L1223.6 2079.43H1287.31L1239.67 1855.65L1210.86 1859.52L1185.94 1872.82Z" fill="#1B2759"/>
<path d="M1375.64 1837.01C1386.68 1863.66 1411.51 1904.07 1449.65 1937.25C1487.63 1970.3 1538.34 1995.82 1601.64 1994.14C1666.21 1992.42 1707.05 1974 1733.11 1953.49C1759.27 1932.91 1771.4 1909.55 1777.43 1896.45L1797.56 1905.71C1790.85 1920.3 1776.9 1947.23 1746.81 1970.91C1716.61 1994.66 1671.04 2014.46 1602.23 2016.29C1532.14 2018.15 1476.22 1989.75 1435.1 1953.97C1394.13 1918.32 1367.39 1874.98 1355.17 1845.49L1375.64 1837.01Z" fill="black"/>
<path d="M1306.48 1831.69C1325.2 1879.76 1372.68 1943.58 1453.99 1977.06C1534.96 2010.4 1651.17 2014.35 1808.79 1939.8L1818.26 1959.83C1656.38 2036.4 1533.57 2033.79 1445.56 1997.55C1357.9 1961.45 1306.45 1892.66 1285.84 1839.73L1306.48 1831.69Z" fill="black"/>
<g filter="url(#filter9_i_494_88153)">
<path d="M1528.83 1964.77L1476.2 1846.23H1909.37V1964.77H1528.83Z" fill="#15225E"/>
</g>
<path d="M1614.79 1897.41L1642.38 1890.79L1666.67 1965.37L1663.51 1966.4L1640.17 1894.74L1612.37 1901.41L1598.67 1846.64L1601.9 1845.83L1614.79 1897.41Z" fill="black"/>
<path d="M1223.61 2079.43H814.258L1185.94 1872.82L1223.61 2079.43Z" fill="#1B2759"/>
<path d="M1258.52 1939.29L1316.68 1846.23L1210.88 1859.53L813.719 2079.44H989.313L1258.52 1939.29Z" fill="#0D1536" fill-opacity="0.41"/>
<g filter="url(#filter10_ii_494_88153)">
<path d="M1278.15 1274.81C1278.15 1282.45 1271.95 1288.65 1264.3 1288.65C1256.65 1288.65 1250.45 1282.45 1250.45 1274.81C1250.45 1267.16 1256.65 1260.96 1264.3 1260.96C1271.95 1260.96 1278.15 1267.16 1278.15 1274.81Z" fill="#182359"/>
</g>
<g filter="url(#filter11_ii_494_88153)">
<path d="M1285.12 1097.88C1285.12 1105.23 1279.17 1111.18 1271.83 1111.18C1264.48 1111.18 1258.53 1105.23 1258.53 1097.88C1258.53 1090.54 1264.48 1084.59 1271.83 1084.59C1279.17 1084.59 1285.12 1090.54 1285.12 1097.88Z" fill="#182359"/>
</g>
<g filter="url(#filter12_ii_494_88153)">
<path d="M1745.96 1063.54C1745.96 1070.88 1740.01 1076.83 1732.67 1076.83C1725.33 1076.83 1719.38 1070.88 1719.38 1063.54C1719.38 1056.19 1725.33 1050.24 1732.67 1050.24C1740.01 1050.24 1745.96 1056.19 1745.96 1063.54Z" fill="#182359"/>
</g>
<g filter="url(#filter13_ii_494_88153)">
<path d="M1369.29 1100.09C1369.29 1107.44 1363.34 1113.39 1356 1113.39C1348.66 1113.39 1342.7 1107.44 1342.7 1100.09C1342.7 1092.75 1348.66 1086.8 1356 1086.8C1363.34 1086.8 1369.29 1092.75 1369.29 1100.09Z" fill="#182359"/>
</g>
<path d="M588.823 72.5607L424.861 44.8644L439.817 34.3398L598.793 59.8204L1223.62 1079.04V1316.12L973.247 1614.14L0 1980.83V1921.56L937.242 1590.87L1190.39 1319.45V1079.04L588.823 72.5607Z" fill="#1362A2"/>
<path d="M1210.89 1859.53L814.277 2079.44H521.25L1167.13 1733.79L1313.36 1694.46H1909.39V1846.24H1315.58L1210.89 1859.53Z" fill="#0A3266"/>
<path d="M1207.02 1841.24L762.219 2079.43H814.288L1210.9 1859.52L1315.59 1846.23H1909.4V1824.07H1316.7L1207.02 1841.24Z" fill="#003880"/>
<path d="M814.277 2079.44L1210.89 1859.53L1206.89 1841.25L1167.13 1733.79L521.25 2079.44H814.277Z" fill="#052753"/>
<path d="M1150.51 1793.06L598.242 2079.44H676.346L1154.38 1841.25L1150.51 1793.06Z" fill="#090E3E"/>
<path d="M1139.99 1832.94L1137.77 1799.7L1150.51 1793.06L1154.39 1841.25L676.352 2079.44L1139.99 1832.94Z" fill="#1F2D6B"/>
<path d="M1316.12 1846.24L1313.91 1694.46H1909.38V1846.24H1316.12Z" fill="#052753"/>
<path d="M1274.04 1772.56C1274.04 1786.63 1262.38 1798.04 1248 1798.04C1233.62 1798.04 1221.97 1786.63 1221.97 1772.56C1221.97 1758.48 1233.62 1747.08 1248 1747.08C1262.38 1747.08 1274.04 1758.48 1274.04 1772.56Z" fill="#121952"/>
<path d="M1270.71 1772.56C1270.71 1760.39 1260.61 1750.4 1248 1750.4C1235.39 1750.4 1225.29 1760.39 1225.29 1772.56C1225.29 1784.73 1235.39 1794.71 1248 1794.71V1798.04L1247.33 1798.03C1233.49 1797.69 1222.33 1786.76 1221.98 1773.21L1221.97 1772.56C1221.97 1758.48 1233.63 1747.08 1248 1747.08L1248.68 1747.08C1262.74 1747.43 1274.04 1758.7 1274.04 1772.56L1274.03 1773.21C1273.67 1786.98 1262.16 1798.04 1248 1798.04V1794.71C1260.61 1794.71 1270.71 1784.73 1270.71 1772.56Z" fill="#05052D"/>
<path d="M1444.64 1786.96C1444.64 1799.2 1434.72 1809.12 1422.48 1809.12H1361.55C1349.31 1809.12 1339.39 1799.2 1339.39 1786.96V1732.68C1339.39 1720.44 1349.31 1710.52 1361.55 1710.52H1422.48C1434.72 1710.52 1444.64 1720.44 1444.64 1732.68V1786.96Z" fill="#032C62"/>
<path d="M1361.55 1713.84V1710.52H1422.48V1713.84H1361.55ZM1342.72 1732.68V1786.96C1342.72 1797.36 1351.15 1805.8 1361.55 1805.8H1422.48C1432.88 1805.8 1441.32 1797.36 1441.32 1786.96V1732.68C1441.32 1722.28 1432.88 1713.84 1422.48 1713.84V1710.52L1423.06 1710.53C1435.03 1710.83 1444.64 1720.63 1444.64 1732.68V1786.96C1444.64 1799.01 1435.03 1808.81 1423.06 1809.11L1422.48 1809.12H1361.55L1360.98 1809.11C1349.01 1808.81 1339.4 1799.01 1339.4 1786.96V1732.68C1339.4 1720.63 1349.01 1710.83 1360.98 1710.53L1361.55 1710.52V1713.84C1351.15 1713.84 1342.72 1722.28 1342.72 1732.68Z" fill="#131E4F"/>
<path d="M1908.8 1804.68H1486.71C1474.48 1804.68 1464.56 1794.76 1464.56 1782.53V1737.1C1464.56 1724.87 1474.48 1714.95 1486.71 1714.95H1908.8V1804.68Z" fill="#141C57"/>
<path d="M1467.88 1737.11V1782.53C1467.88 1792.93 1476.31 1801.36 1486.71 1801.36H1905.48V1718.27H1486.71V1714.95H1908.8V1804.68H1486.71L1486.14 1804.68C1474.17 1804.37 1464.56 1794.57 1464.56 1782.53V1737.11C1464.56 1725.06 1474.17 1715.26 1486.14 1714.95L1486.71 1714.95V1718.27C1476.31 1718.27 1467.88 1726.7 1467.88 1737.11Z" fill="#003880"/>
<mask id="mask0_494_88153" style="mask-type:alpha" maskUnits="userSpaceOnUse" x="1464" y="1714" width="445" height="91">
<path d="M1908.8 1804.68H1486.71C1474.48 1804.68 1464.56 1794.76 1464.56 1782.53V1737.1C1464.56 1724.87 1474.48 1714.95 1486.71 1714.95H1908.8V1804.68Z" fill="#002B63"/>
</mask>
<g mask="url(#mask0_494_88153)">
</g>
<mask id="mask1_494_88153" style="mask-type:alpha" maskUnits="userSpaceOnUse" x="1464" y="1714" width="445" height="91">
<path d="M1467.88 1737.11V1782.53C1467.88 1792.93 1476.31 1801.36 1486.71 1801.36H1905.48V1718.27H1486.71V1714.95H1908.8V1804.68H1486.71L1486.14 1804.68C1474.17 1804.37 1464.56 1794.57 1464.56 1782.53V1737.11C1464.56 1725.06 1474.17 1715.26 1486.14 1714.95L1486.71 1714.95V1718.27C1476.31 1718.27 1467.88 1726.7 1467.88 1737.11Z" fill="#003880"/>
</mask>
<g mask="url(#mask1_494_88153)">
<path d="M1464.56 1722.98V1720.77H1908.8V1722.98H1464.56ZM1464.56 1732.95V1730.74H1908.8V1732.95H1464.56ZM1464.56 1741.81V1739.6H1908.8V1741.81H1464.56ZM1464.56 1750.68V1748.46H1908.8V1750.68H1464.56ZM1464.56 1759.54V1757.32H1908.8V1759.54H1464.56ZM1464.56 1768.4V1766.19H1908.8V1768.4H1464.56ZM1464.56 1778.37V1776.16H1908.8V1778.37H1464.56ZM1464.56 1787.24V1785.02H1908.8V1787.24H1464.56ZM1464.56 1796.1V1793.88H1908.8V1796.1H1464.56Z" fill="#003880"/>
</g>
<path d="M823.134 40.4355H1909.38V61.4847H835.874L788.791 132.941L1360.44 1039.16L1409.19 1073.51H1669.53L1713.29 1028.64H1909.38V1045.26H1723.26L1678.4 1092.34H1402.54L1339.39 1054.12L761.648 132.941L823.134 40.4355Z" fill="#1362A2"/>
<path d="M1339.61 1054.38L1360.75 1039.2L1409 1073.35L1402.49 1092.33L1339.61 1054.38Z" fill="#4E7AD2"/>
<path d="M1669.77 1073.35L1713.14 1028.9L1723.44 1045.16L1678.45 1092.32L1669.77 1073.35Z" fill="#4E7AD2"/>
<g filter="url(#filter14_ii_494_88153)">
<path d="M1268.49 1219.19L1292.31 1251.32L1336.07 1134.99L1304.5 1130.01L1268.49 1153.27V1219.19Z" fill="#182359"/>
</g>
<path d="M2651.06 1733.78L3296.94 2079.43H3671.95L2844.93 1711.63L2774.59 1660.67L2704.79 1634.63L2574.07 1534.93L2558 1497.26L2579.6 1450.18L2458.85 1134.99L2415.09 1111.73H1908.8V1694.46H2504.27L2651.06 1733.78Z" fill="#003273"/>
<path d="M2842.16 1836.26L2609.52 1561.52L2704.79 1634.63L2774.59 1660.67L2845.49 1711.63L3060.41 1807.46L3671.95 2079.44H3296.94L2842.16 1836.26Z" fill="#052753"/>
<path d="M3158.48 1907.17C3057.48 1844.94 2854.7 1719.72 2851.6 1716.62L3674.18 2079.99L3548.99 2079.44L3158.48 1907.17Z" fill="url(#paint2_linear_494_88153)"/>
<path d="M3259.83 1917.69L3276.45 1927.11L3236.56 1951.48L3220.5 1942.06L3259.83 1917.69Z" fill="#18255A"/>
<path d="M3217.73 1897.75L3234.35 1907.17L3194.46 1931.54L3178.4 1922.12L3217.73 1897.75Z" fill="#18255A"/>
<path d="M3175.63 1878.91L3192.25 1888.33L3152.37 1912.7L3136.3 1903.29L3175.63 1878.91Z" fill="#18255A"/>
<path d="M3133.53 1861.19L3150.15 1870.61L3110.27 1894.98L3094.2 1885.56L3133.53 1861.19Z" fill="#18255A"/>
<path d="M3093.65 1843.46L3110.27 1852.88L3070.39 1877.25L3054.32 1867.84L3093.65 1843.46Z" fill="#18255A"/>
<path d="M3054.88 1824.63L3071.49 1834.05L3031.61 1858.42L3015.55 1849L3054.88 1824.63Z" fill="#18255A"/>
<path d="M3017.21 1808.01L3033.83 1817.43L2993.94 1841.8L2977.88 1832.39L3017.21 1808.01Z" fill="#18255A"/>
<path d="M2976.22 1790.29L2992.84 1799.7L2952.95 1824.08L2936.89 1814.66L2976.22 1790.29Z" fill="#18255A"/>
<path d="M2942.98 1773.67L2959.6 1783.09L2919.72 1807.46L2903.65 1798.04L2942.98 1773.67Z" fill="#18255A"/>
<path d="M2905.32 1755.94L2921.93 1765.36L2882.05 1789.73L2865.99 1780.32L2905.32 1755.94Z" fill="#18255A"/>
<g filter="url(#filter15_ii_494_88153)">
<path d="M2841.09 1836.26V1841.8H2915.24L3425.4 2084.15L3427.77 2079.15L2916.49 1836.26H2841.09Z" fill="#182359"/>
</g>
<path d="M2640.1 1669.82C2640.1 1673.19 2647.54 1675.92 2656.72 1675.92C2665.9 1675.92 2673.34 1673.19 2673.34 1669.82C2673.34 1666.46 2665.9 1663.73 2656.72 1663.73C2647.54 1663.73 2640.1 1666.46 2640.1 1669.82Z" fill="#0E1D4E"/>
<path d="M2670.47 1669.53V1657.35H2642.77V1670.09C2643.88 1671.38 2648.31 1673.96 2657.17 1673.96C2666.04 1673.96 2669.73 1671.01 2670.47 1669.53Z" fill="#283D82"/>
<path d="M2642.77 1657.34C2642.77 1661.01 2648.97 1663.99 2656.62 1663.99C2664.27 1663.99 2670.47 1661.01 2670.47 1657.34C2670.47 1653.67 2664.27 1650.7 2656.62 1650.7C2648.97 1650.7 2642.77 1653.67 2642.77 1657.34Z" fill="#3B5EAC"/>
<path d="M2592.91 1669.82C2592.91 1673.19 2600.35 1675.92 2609.53 1675.92C2618.71 1675.92 2626.15 1673.19 2626.15 1669.82C2626.15 1666.46 2618.71 1663.73 2609.53 1663.73C2600.35 1663.73 2592.91 1666.46 2592.91 1669.82Z" fill="#0E1D4E"/>
<path d="M2623.26 1669.53V1657.35H2595.56V1670.09C2596.67 1671.38 2601.1 1673.96 2609.96 1673.96C2618.83 1673.96 2622.52 1671.01 2623.26 1669.53Z" fill="#283D82"/>
<path d="M2595.56 1657.34C2595.56 1661.01 2601.76 1663.99 2609.41 1663.99C2617.06 1663.99 2623.26 1661.01 2623.26 1657.34C2623.26 1653.67 2617.06 1650.7 2609.41 1650.7C2601.76 1650.7 2595.56 1653.67 2595.56 1657.34Z" fill="#3B5EAC"/>
<path d="M2545.27 1669.82C2545.27 1673.19 2552.71 1675.92 2561.89 1675.92C2571.07 1675.92 2578.51 1673.19 2578.51 1669.82C2578.51 1666.46 2571.07 1663.73 2561.89 1663.73C2552.71 1663.73 2545.27 1666.46 2545.27 1669.82Z" fill="#0E1D4E"/>
<path d="M2575.64 1669.53V1657.35H2547.94V1670.09C2549.05 1671.38 2553.48 1673.96 2562.35 1673.96C2571.21 1673.96 2574.9 1671.01 2575.64 1669.53Z" fill="#283D82"/>
<path d="M2547.94 1657.34C2547.94 1661.01 2554.14 1663.99 2561.79 1663.99C2569.44 1663.99 2575.64 1661.01 2575.64 1657.34C2575.64 1653.67 2569.44 1650.7 2561.79 1650.7C2554.14 1650.7 2547.94 1653.67 2547.94 1657.34Z" fill="#3B5EAC"/>
<path d="M2455.55 1457.93L2574.09 1534.93L2558.02 1497.26L2579.62 1450.18L2458.87 1135L2443.36 1126.69H1908.82V1157.71L2361.93 1162.69L2455.55 1457.93Z" fill="#002B63"/>
<path d="M2424.82 1198.23L2490.74 1388.75L2572.75 1431.71L2574.3 1428.76L2493.45 1386.41L2428.65 1199.16L2468.32 1161.12L2466.02 1158.72L2424.82 1198.23Z" fill="#141F51"/>
<path d="M2518.14 1370.41L2558.02 1394.78L2477.15 1182.07L2458.32 1202.02L2518.14 1370.41Z" fill="#141F51"/>
<path d="M2415.1 1111.73L2443.35 1126.68H1908.81V1111.73H2415.1Z" fill="#10133E" fill-opacity="0.88"/>
<path d="M2444.25 1379.07L2433.73 1393.46L2375.03 1181.98L2397.74 1193.6L2444.25 1379.07Z" fill="#012554"/>
<path d="M1908.81 1156.84H2371.34L2444.41 1422.47H1908.81V1156.84Z" fill="#012554"/>
<path d="M3029.4 132.941H3056.54L2995.05 40.4355L2982.31 61.4847L3029.4 132.941Z" fill="#629FEF"/>
<path d="M2982.32 61.4847L2995.06 40.4355H1908.81V61.4847H2982.32Z" fill="black"/>
<path d="M1908.83 1111.73V1045.26H2094.95L2139.82 1092.34H2415.67L2478.82 1054.12L3056.56 132.942L2995.08 40.4366H1908.83V0H3817.66V336.787L3378.39 34.3434L3219.42 59.8239L2594.59 1079.05V1316.13L2844.96 1614.14L3817.66 1980.84L3777.22 2061.16L3671.97 2079.44L2844.96 1711.63L2774.61 1660.67L2704.82 1634.63L2574.09 1534.93L2558.03 1497.26L2579.63 1450.18L2458.88 1134.99L2415.12 1111.73H1908.83Z" fill="#052753"/>
<path d="M2827.21 1626.88L3813.2 2010.2L3784.95 2060.05L3673.05 2079.99L2844.93 1711.63L2774.59 1660.67L2704.79 1634.64L2574.06 1534.93L2558 1497.26L2579.6 1450.18L2458.85 1135L2415.09 1111.73H2389.05V1092.34H2415.64L2478.79 1054.12L2546.37 947.215L2613.39 1014.24L2575.73 1076.28L2576.28 1104.53L2546.37 1126.13L2577.94 1238.03V1327.21L2615.05 1466.24V1522.74L2827.21 1626.88Z" fill="#002B63"/>
<path d="M2074.45 1078.49H1908.82V1111.73H2102.7L2074.45 1078.49Z" fill="#1F306B"/>
<g filter="url(#filter16_ii_494_88153)">
<path d="M2478.9 1043.59L2526.37 1041.88L2650.64 835.323L2643.28 790.008L2637.81 790.895L2644.85 834.206L2523.17 1036.45L2478.7 1038.06L2478.9 1043.59Z" fill="#182359"/>
</g>
<path d="M3104.75 129.62L2623.95 961.062L2626.71 1002.05L3186.18 84.752L3104.75 129.62Z" fill="#2B3C71"/>
<g filter="url(#filter17_ii_494_88153)">
<path d="M2623.94 999.44L2629.47 999.115L2627.23 961.046L3125.31 138.738L3165.66 130.668L3164.58 125.237L3121.84 133.785L2621.6 959.65L2623.94 999.44Z" fill="#182359"/>
</g>
<g filter="url(#filter18_ii_494_88153)">
<path d="M2900.13 1655.36L2918.33 1688.34L3757.51 2030.23L3812.02 2020.68L3811.07 2015.22L3758.12 2024.5L2922.23 1683.95L2904.98 1652.68L2900.13 1655.36Z" fill="#182359"/>
</g>
<path d="M2844.94 1711.63L3775.53 2061.71L3673.06 2079.99L2844.94 1711.63Z" fill="#182359"/>
<g filter="url(#filter19_ii_494_88153)">
<path d="M2757.45 1575.91L2749.7 1597.52H2700.95L2600.14 1510.55L2621.74 1443.53H2651.1L2757.45 1575.91Z" fill="#182359"/>
</g>
<path d="M3380.04 10.5215L3817.64 300.778V336.23L3378.38 34.3403L3219.4 59.8209L2594.57 1079.12V1316.12L2844.95 1614.14L3818.2 1980.83L3813.21 2010.19L2827.22 1626.88L2578.51 1326.65L2575.74 1076.27L3213.86 35.4481L3380.04 10.5215Z" fill="url(#paint3_linear_494_88153)"/>
<g filter="url(#filter20_ii_494_88153)">
<path d="M2930.8 383.312L2923.6 344.537L2685.41 723.976L2716.43 719.545L2930.8 383.312Z" fill="#182359"/>
</g>
<path d="M2503.5 1846.38H1908.84V2081.65H2531.21L2578.87 1855.88L2503.5 1846.38Z" fill="#151D4A"/>
<path d="M2632.25 1872.82L2594.58 2079.43H2530.88L2578.52 1855.65L2607.32 1859.52L2632.25 1872.82Z" fill="#1B2759"/>
<path d="M2442.55 1837.01C2431.5 1863.66 2406.67 1904.07 2368.54 1937.25C2330.56 1970.3 2279.85 1995.82 2216.55 1994.14C2151.98 1992.42 2111.14 1974 2085.08 1953.49C2058.92 1932.91 2046.78 1909.55 2040.76 1896.45L2020.62 1905.71C2027.34 1920.3 2041.29 1947.23 2071.38 1970.91C2101.58 1994.66 2147.15 2014.46 2215.96 2016.29C2286.05 2018.15 2341.96 1989.75 2383.09 1953.97C2424.05 1918.32 2450.79 1874.98 2463.02 1845.49L2442.55 1837.01Z" fill="black"/>
<path d="M2511.71 1831.69C2492.99 1879.76 2445.51 1943.58 2364.19 1977.06C2283.23 2010.4 2167.02 2014.35 2009.4 1939.8L1999.93 1959.83C2161.8 2036.4 2284.62 2033.79 2372.63 1997.55C2460.28 1961.45 2511.74 1892.66 2532.35 1839.73L2511.71 1831.69Z" fill="black"/>
<g filter="url(#filter21_i_494_88153)">
<path d="M2289.37 1964.77L2341.99 1846.23H1908.82V1964.77H2289.37Z" fill="#15225E"/>
</g>
<path d="M2203.4 1897.41L2175.81 1890.79L2151.51 1965.37L2154.67 1966.4L2178.02 1894.74L2205.82 1901.41L2219.52 1846.64L2216.29 1845.83L2203.4 1897.41Z" fill="black"/>
<path d="M2594.59 2079.43H3003.94L2632.25 1872.82L2594.59 2079.43Z" fill="#1B2759"/>
<path d="M2559.67 1939.29L2501.51 1846.23L2607.31 1859.53L3004.48 2079.44H2828.88L2559.67 1939.29Z" fill="#0D1536" fill-opacity="0.41"/>
<g filter="url(#filter22_ii_494_88153)">
<path d="M2540.05 1274.81C2540.05 1282.45 2546.25 1288.65 2553.89 1288.65C2561.54 1288.65 2567.74 1282.45 2567.74 1274.81C2567.74 1267.16 2561.54 1260.96 2553.89 1260.96C2546.25 1260.96 2540.05 1267.16 2540.05 1274.81Z" fill="#182359"/>
</g>
<g filter="url(#filter23_ii_494_88153)">
<path d="M2533.08 1097.88C2533.08 1105.23 2539.03 1111.18 2546.37 1111.18C2553.71 1111.18 2559.66 1105.23 2559.66 1097.88C2559.66 1090.54 2553.71 1084.59 2546.37 1084.59C2539.03 1084.59 2533.08 1090.54 2533.08 1097.88Z" fill="#182359"/>
</g>
<g filter="url(#filter24_ii_494_88153)">
<path d="M2072.22 1063.54C2072.22 1070.88 2078.18 1076.83 2085.52 1076.83C2092.86 1076.83 2098.81 1070.88 2098.81 1063.54C2098.81 1056.19 2092.86 1050.24 2085.52 1050.24C2078.18 1050.24 2072.22 1056.19 2072.22 1063.54Z" fill="#182359"/>
</g>
<g filter="url(#filter25_ii_494_88153)">
<path d="M2448.9 1100.09C2448.9 1107.44 2454.85 1113.39 2462.19 1113.39C2469.53 1113.39 2475.48 1107.44 2475.48 1100.09C2475.48 1092.75 2469.53 1086.8 2462.19 1086.8C2454.85 1086.8 2448.9 1092.75 2448.9 1100.09Z" fill="#182359"/>
</g>
<path d="M3229.37 72.5607L3393.33 44.8644L3378.38 34.3398L3219.4 59.8204L2594.57 1079.04V1316.12L2844.95 1614.14L3818.2 1980.83V1921.56L2880.95 1590.87L2627.81 1319.45V1079.04L3229.37 72.5607Z" fill="#1362A2"/>
<path d="M2607.31 1859.53L3003.92 2079.44H3296.95L2651.07 1733.79L2504.83 1694.46H1908.81V1846.24H2502.62L2607.31 1859.53Z" fill="#0A3266"/>
<path d="M2611.16 1841.24L3055.96 2079.43H3003.89L2607.28 1859.52L2502.59 1846.23H1908.78V1824.07H2501.48L2611.16 1841.24Z" fill="#003880"/>
<path d="M3003.92 2079.44L2607.31 1859.53L2611.31 1841.25L2651.07 1733.79L3296.95 2079.44H3003.92Z" fill="#052753"/>
<path d="M2667.68 1793.06L3219.95 2079.44H3141.84L2663.8 1841.25L2667.68 1793.06Z" fill="#090E3E"/>
<path d="M2678.21 1832.94L2680.42 1799.7L2667.68 1793.06L2663.81 1841.25L3141.84 2079.44L2678.21 1832.94Z" fill="#1F2D6B"/>
<path d="M2502.07 1846.24L2504.29 1694.46H1908.82V1846.24H2502.07Z" fill="#052753"/>
<path d="M2544.17 1772.56C2544.17 1786.63 2555.82 1798.04 2570.2 1798.04C2584.58 1798.04 2596.23 1786.63 2596.23 1772.56C2596.23 1758.48 2584.58 1747.08 2570.2 1747.08C2555.82 1747.08 2544.17 1758.48 2544.17 1772.56Z" fill="#121952"/>
<path d="M2547.49 1772.56C2547.49 1760.39 2557.59 1750.4 2570.2 1750.4C2582.81 1750.4 2592.91 1760.39 2592.91 1772.56C2592.91 1784.73 2582.81 1794.71 2570.2 1794.71V1798.04L2570.87 1798.03C2584.72 1797.69 2595.87 1786.76 2596.23 1773.21L2596.23 1772.56C2596.23 1758.48 2584.58 1747.08 2570.2 1747.08L2569.53 1747.08C2555.46 1747.43 2544.17 1758.7 2544.17 1772.56L2544.17 1773.21C2544.53 1786.98 2556.05 1798.04 2570.2 1798.04V1794.71C2557.59 1794.71 2547.49 1784.73 2547.49 1772.56Z" fill="#05052D"/>
<path d="M2478.8 1786.96C2478.8 1799.2 2468.88 1809.12 2456.64 1809.12H2395.71C2383.47 1809.12 2373.55 1799.2 2373.55 1786.96V1732.68C2373.55 1720.44 2383.47 1710.52 2395.71 1710.52H2456.64C2468.88 1710.52 2478.8 1720.44 2478.8 1732.68V1786.96Z" fill="#032C62"/>
<path d="M2395.71 1713.84V1710.52H2456.64V1713.84H2395.71ZM2376.87 1732.68V1786.96C2376.87 1797.36 2385.31 1805.8 2395.71 1805.8H2456.64C2467.04 1805.8 2475.47 1797.36 2475.47 1786.96V1732.68C2475.47 1722.28 2467.04 1713.84 2456.64 1713.84V1710.52L2457.21 1710.53C2469.18 1710.83 2478.8 1720.63 2478.8 1732.68V1786.96C2478.8 1799.01 2469.18 1808.81 2457.21 1809.11L2456.64 1809.12H2395.71L2395.14 1809.11C2383.16 1808.81 2373.55 1799.01 2373.55 1786.96V1732.68C2373.55 1720.63 2383.16 1710.83 2395.14 1710.53L2395.71 1710.52V1713.84C2385.31 1713.84 2376.87 1722.28 2376.87 1732.68Z" fill="#131E4F"/>
<path d="M1908.8 1804.68H2331.45C2343.69 1804.68 2353.61 1794.76 2353.61 1782.53V1737.1C2353.61 1724.87 2343.69 1714.95 2331.45 1714.95H1908.8V1804.68Z" fill="#141C57"/>
<mask id="mask2_494_88153" style="mask-type:alpha" maskUnits="userSpaceOnUse" x="1908" y="1714" width="446" height="91">
<path d="M1908.8 1804.68H2331.45C2343.69 1804.68 2353.61 1794.76 2353.61 1782.53V1737.1C2353.61 1724.87 2343.69 1714.95 2331.45 1714.95H1908.8V1804.68Z" fill="#002B63"/>
</mask>
<g mask="url(#mask2_494_88153)">
<path d="M2353.61 1722.98V1720.77H1908.8V1722.98H2353.61ZM2353.61 1732.95V1730.74H1908.8V1732.95H2353.61ZM2353.61 1741.81V1739.6H1908.8V1741.81H2353.61ZM2353.61 1750.68V1748.46H1908.8V1750.68H2353.61ZM2353.61 1759.54V1757.32H1908.8V1759.54H2353.61ZM2353.61 1768.4V1766.19H1908.8V1768.4H2353.61ZM2353.61 1778.37V1776.16H1908.8V1778.37H2353.61ZM2353.61 1787.24V1785.02H1908.8V1787.24H2353.61ZM2353.61 1796.1V1793.88H1908.8V1796.1H2353.61Z" fill="#003880"/>
</g>
<path d="M2995.05 40.4355H1908.81V61.4847H2982.31L3029.4 132.941L2457.75 1039.16L2409 1073.51H2148.66L2104.9 1028.64H1908.81V1045.26H2094.92L2139.79 1092.34H2415.65L2478.79 1054.12L3056.54 132.941L2995.05 40.4355Z" fill="#1362A2"/>
<path d="M2479.09 1053.84L2457.95 1039.2L2408.62 1073.35L2415.66 1092.33L2479.09 1053.84Z" fill="#4E7AD2"/>
<path d="M2105.05 1028.35L2094.75 1045.16L2139.74 1092.32L2148.42 1073.35L2105.05 1028.35Z" fill="#4E7AD2"/>
<g filter="url(#filter26_ii_494_88153)">
<path d="M2549.7 1219.19L2525.88 1251.32L2482.12 1134.99L2513.7 1130.01L2549.7 1153.27V1219.19Z" fill="#182359"/>
</g>
<path d="M1373.39 1379.07L1383.92 1393.46L1442.61 1181.99L1419.9 1193.61L1373.39 1379.07Z" fill="#012554"/>
<path d="M1908.84 1156.84H1446.31L1373.24 1422.47H1908.84V1156.84Z" fill="#012554"/>
<mask id="mask3_494_88153" style="mask-type:alpha" maskUnits="userSpaceOnUse" x="1360" y="1156" width="1085" height="267">
<path d="M1903.8 1156.83H1434.62L1426.86 1184.47L1369.2 1390.46L1360.41 1422.44H1903.8V1156.83Z" fill="#002B63"/>
<path d="M1903.8 1156.83L2372.42 1156.83L2377.99 1183.39L2436.2 1390.46L2444.44 1422.44L1903.8 1422.44V1156.83Z" fill="#002B63"/>
</mask>
<g mask="url(#mask3_494_88153)">
<path d="M1413.63 1157.03L1319.37 1473.76L1317.25 1473.13L1411.51 1156.39L1413.63 1157.03Z" fill="#060E31" fill-opacity="0.21"/>
<path d="M1448.85 1156.43L1358.17 1473.75L1356.04 1473.14L1446.72 1155.82L1448.85 1156.43Z" fill="#060E31" fill-opacity="0.21"/>
<path d="M1482.86 1156.42L1397.55 1473.73L1395.41 1473.16L1480.72 1155.84L1482.86 1156.42Z" fill="#060E31" fill-opacity="0.21"/>
<path d="M1516.27 1156.39L1440.51 1473.7L1438.35 1473.19L1514.12 1155.87L1516.27 1156.39Z" fill="#060E31" fill-opacity="0.21"/>
<path d="M1549.69 1155.77L1482.28 1473.67L1480.11 1473.21L1547.52 1155.31L1549.69 1155.77Z" fill="#060E31" fill-opacity="0.21"/>
<path d="M1583.69 1155.75L1522.84 1473.65L1520.66 1473.23L1581.51 1155.34L1583.69 1155.75Z" fill="#060E31" fill-opacity="0.21"/>
<path d="M1618.28 1155.74L1562.21 1473.63L1560.02 1473.25L1616.1 1155.35L1618.28 1155.74Z" fill="#060E31" fill-opacity="0.21"/>
<path d="M1651.71 1156.87L1605.18 1473.6L1602.98 1473.28L1649.52 1156.55L1651.71 1156.87Z" fill="#060E31" fill-opacity="0.21"/>
<path d="M1686.34 1156.28L1643.38 1473.59L1641.19 1473.3L1684.14 1155.98L1686.34 1156.28Z" fill="#060E31" fill-opacity="0.21"/>
<path d="M1719.75 1155.66L1686.34 1472.97L1684.14 1472.74L1717.55 1155.43L1719.75 1155.66Z" fill="#060E31" fill-opacity="0.21"/>
<path d="M1753.13 1154.48L1726.88 1472.96L1724.67 1472.77L1750.92 1154.29L1753.13 1154.48Z" fill="#060E31" fill-opacity="0.21"/>
<path d="M1787.74 1155.03L1767.46 1472.93L1765.25 1472.79L1785.53 1154.89L1787.74 1155.03Z" fill="#060E31" fill-opacity="0.21"/>
<path d="M1822.34 1155.01L1808.02 1472.91L1805.8 1472.81L1820.12 1154.91L1822.34 1155.01Z" fill="#060E31" fill-opacity="0.21"/>
<path d="M1855.16 1155.56L1849.79 1472.88L1847.58 1472.84L1852.95 1155.53L1855.16 1155.56Z" fill="#060E31" fill-opacity="0.21"/>
<path d="M2403.49 1188.2V1190.42H1371.41V1188.2H2403.49Z" fill="#060E31" fill-opacity="0.21"/>
<path d="M2411.87 1219.64V1221.86H1363.09V1219.64H2411.87Z" fill="#060E31" fill-opacity="0.21"/>
<path d="M2420.2 1251.09V1253.3H1355.91V1251.09H2420.2Z" fill="#060E31" fill-opacity="0.21"/>
<path d="M2428.56 1282.53L2428.56 1284.75L1346.37 1284.75L1346.38 1282.53L2428.56 1282.53Z" fill="#060E31" fill-opacity="0.21"/>
<path d="M2436.9 1313.97V1316.18H1338.01V1313.97H2436.9Z" fill="#060E31" fill-opacity="0.21"/>
<path d="M2445.26 1345.41V1347.62H1329.66V1345.41H2445.26Z" fill="#060E31" fill-opacity="0.21"/>
<path d="M2452.45 1376.85V1379.07H1322.53V1376.85H2452.45Z" fill="#060E31" fill-opacity="0.21"/>
<path d="M2461.96 1408.29V1410.51H1314.15V1408.29H2461.96Z" fill="#060E31" fill-opacity="0.21"/>
<path d="M1890.36 1155.54V1472.86H1888.14V1155.54H1890.36Z" fill="#060E31" fill-opacity="0.21"/>
<path d="M2365.43 1157.03L2459.69 1473.76L2461.81 1473.13L2367.55 1156.39L2365.43 1157.03Z" fill="#060E31" fill-opacity="0.21"/>
<path d="M2330.25 1156.43L2420.93 1473.75L2423.06 1473.14L2332.38 1155.82L2330.25 1156.43Z" fill="#060E31" fill-opacity="0.21"/>
<path d="M2296.23 1156.42L2381.54 1473.73L2383.68 1473.16L2298.37 1155.84L2296.23 1156.42Z" fill="#060E31" fill-opacity="0.21"/>
<path d="M2262.84 1156.39L2338.6 1473.7L2340.76 1473.19L2264.99 1155.87L2262.84 1156.39Z" fill="#060E31" fill-opacity="0.21"/>
<path d="M2229.43 1155.77L2296.84 1473.67L2299.01 1473.21L2231.59 1155.31L2229.43 1155.77Z" fill="#060E31" fill-opacity="0.21"/>
<path d="M2195.41 1155.75L2256.26 1473.65L2258.44 1473.23L2197.59 1155.34L2195.41 1155.75Z" fill="#060E31" fill-opacity="0.21"/>
<path d="M2160.79 1155.74L2216.87 1473.63L2219.05 1473.25L2162.98 1155.35L2160.79 1155.74Z" fill="#060E31" fill-opacity="0.21"/>
<path d="M2127.39 1156.87L2173.92 1473.6L2176.12 1473.28L2129.58 1156.55L2127.39 1156.87Z" fill="#060E31" fill-opacity="0.21"/>
<path d="M2092.79 1156.28L2135.74 1473.59L2137.94 1473.3L2094.98 1155.98L2092.79 1156.28Z" fill="#060E31" fill-opacity="0.21"/>
<path d="M2059.36 1155.66L2092.77 1472.97L2094.98 1472.74L2061.57 1155.43L2059.36 1155.66Z" fill="#060E31" fill-opacity="0.21"/>
<path d="M2025.96 1154.48L2052.21 1472.96L2054.42 1472.77L2028.17 1154.29L2025.96 1154.48Z" fill="#060E31" fill-opacity="0.21"/>
<path d="M1991.36 1155.03L2011.65 1472.93L2013.86 1472.79L1993.58 1154.89L1991.36 1155.03Z" fill="#060E31" fill-opacity="0.21"/>
<path d="M1956.73 1155.01L1971.05 1472.91L1973.27 1472.81L1958.95 1154.91L1956.73 1155.01Z" fill="#060E31" fill-opacity="0.21"/>
<path d="M1923.94 1155.56L1929.31 1472.88L1931.52 1472.84L1926.15 1155.53L1923.94 1155.56Z" fill="#060E31" fill-opacity="0.21"/>
</g>
<g filter="url(#filter27_i_494_88153)">
<path d="M2399.97 1488.6H2474.23L2530.07 1643.64H2288.3L2243.84 1488.6H2399.97Z" fill="#30487F"/>
</g>
<path d="M2440.55 1506.33H2457.3L2469.89 1540.56H2415.37L2403.39 1506.33H2440.55Z" fill="#7FB8D6"/>
<path d="M2376.99 1506.33H2393.74L2406.33 1540.56H2351.81L2339.83 1506.33H2376.99Z" fill="#7FB8D6"/>
<path d="M2312.42 1506.33H2329.17L2341.76 1540.56H2287.24L2275.26 1506.33H2312.42Z" fill="#7FB8D6"/>
<path d="M2453.88 1550.38H2470.63L2483.22 1584.6H2428.7L2416.72 1550.38H2453.88Z" fill="#7FB8D6"/>
<path d="M2390.3 1550.38H2407.05L2419.64 1584.6H2365.12L2353.14 1550.38H2390.3Z" fill="#7FB8D6"/>
<path d="M2325.77 1550.38H2342.52L2355.11 1584.6H2300.59L2288.61 1550.38H2325.77Z" fill="#7FB8D6"/>
<path d="M2468.18 1596.46H2484.92L2497.52 1630.69H2443L2431.02 1596.46H2468.18Z" fill="#7FB8D6"/>
<path d="M2404.65 1596.46H2421.39L2433.98 1630.69H2379.47L2367.49 1596.46H2404.65Z" fill="#7FB8D6"/>
<path d="M2340.11 1596.46H2356.85L2369.45 1630.69H2314.93L2302.95 1596.46H2340.11Z" fill="#7FB8D6"/>
<g filter="url(#filter28_i_494_88153)">
<path d="M1420.93 1476.67H1346.66L1290.83 1631.71H1532.6L1577.06 1476.67H1420.93Z" fill="#30487F"/>
</g>
<path d="M1380.33 1494.41H1363.58L1350.99 1528.64H1405.51L1417.49 1494.41H1380.33Z" fill="#7FB8D6"/>
<path d="M1443.91 1494.41H1427.16L1414.57 1528.64H1469.09L1481.07 1494.41H1443.91Z" fill="#7FB8D6"/>
<path d="M1508.45 1494.41H1491.71L1479.12 1528.64H1533.64L1545.62 1494.41H1508.45Z" fill="#7FB8D6"/>
<path d="M1367.02 1538.45H1350.27L1337.68 1572.68H1392.2L1404.18 1538.45H1367.02Z" fill="#7FB8D6"/>
<path d="M1430.57 1538.45H1413.83L1401.23 1572.68H1455.75L1467.73 1538.45H1430.57Z" fill="#7FB8D6"/>
<path d="M1495.14 1538.45H1478.4L1465.8 1572.68H1520.32L1532.3 1538.45H1495.14Z" fill="#7FB8D6"/>
<path d="M1352.7 1584.54H1335.95L1323.36 1618.76H1377.88L1389.86 1584.54H1352.7Z" fill="#7FB8D6"/>
<path d="M1416.27 1584.54H1399.52L1386.93 1618.76H1441.45L1453.43 1584.54H1416.27Z" fill="#7FB8D6"/>
<path d="M1480.81 1584.54H1464.07L1451.48 1618.76H1506L1517.97 1584.54H1480.81Z" fill="#7FB8D6"/>
<defs>
<filter id="filter0_ii_494_88153" x="390.414" y="1836.26" width="587.795" height="248.998" filterUnits="userSpaceOnUse" color-interpolation-filters="sRGB">
<feFlood flood-opacity="0" result="BackgroundImageFix"/>
<feBlend mode="normal" in="SourceGraphic" in2="BackgroundImageFix" result="shape"/>
<feColorMatrix in="SourceAlpha" type="matrix" values="0 0 0 0 0 0 0 0 0 0 0 0 0 0 0 0 0 0 127 0" result="hardAlpha"/>
<feOffset dx="1.10785" dy="1.10785"/>
<feGaussianBlur stdDeviation="1.88335"/>
<feComposite in2="hardAlpha" operator="arithmetic" k2="-1" k3="1"/>
<feColorMatrix type="matrix" values="0 0 0 0 0.0431373 0 0 0 0 0.0588235 0 0 0 0 0.239216 0 0 0 0.63 0"/>
<feBlend mode="normal" in2="shape" result="effect1_innerShadow_494_88153"/>
<feColorMatrix in="SourceAlpha" type="matrix" values="0 0 0 0 0 0 0 0 0 0 0 0 0 0 0 0 0 0 127 0" result="hardAlpha"/>
<feOffset dy="-1.10785"/>
<feComposite in2="hardAlpha" operator="arithmetic" k2="-1" k3="1"/>
<feColorMatrix type="matrix" values="0 0 0 0 0.419608 0 0 0 0 0.65098 0 0 0 0 0.894118 0 0 0 1 0"/>
<feBlend mode="normal" in2="effect1_innerShadow_494_88153" result="effect2_innerShadow_494_88153"/>
</filter>
<filter id="filter1_ii_494_88153" x="654.711" y="0" width="136.486" height="115.771" filterUnits="userSpaceOnUse" color-interpolation-filters="sRGB">
<feFlood flood-opacity="0" result="BackgroundImageFix"/>
<feBlend mode="normal" in="SourceGraphic" in2="BackgroundImageFix" result="shape"/>
<feColorMatrix in="SourceAlpha" type="matrix" values="0 0 0 0 0 0 0 0 0 0 0 0 0 0 0 0 0 0 127 0" result="hardAlpha"/>
<feOffset dx="7.75496" dy="4.4314"/>
<feGaussianBlur stdDeviation="3.43434"/>
<feComposite in2="hardAlpha" operator="arithmetic" k2="-1" k3="1"/>
<feColorMatrix type="matrix" values="0 0 0 0 0.0431373 0 0 0 0 0.0588235 0 0 0 0 0.239216 0 0 0 0.49 0"/>
<feBlend mode="normal" in2="shape" result="effect1_innerShadow_494_88153"/>
<feColorMatrix in="SourceAlpha" type="matrix" values="0 0 0 0 0 0 0 0 0 0 0 0 0 0 0 0 0 0 127 0" result="hardAlpha"/>
<feOffset dy="-3.32355"/>
<feComposite in2="hardAlpha" operator="arithmetic" k2="-1" k3="1"/>
<feColorMatrix type="matrix" values="0 0 0 0 0.376471 0 0 0 0 0.580392 0 0 0 0 0.815686 0 0 0 1 0"/>
<feBlend mode="normal" in2="effect1_innerShadow_494_88153" result="effect2_innerShadow_494_88153"/>
</filter>
<filter id="filter2_ii_494_88153" x="745.602" y="158.422" width="26.5898" height="30.842" filterUnits="userSpaceOnUse" color-interpolation-filters="sRGB">
<feFlood flood-opacity="0" result="BackgroundImageFix"/>
<feBlend mode="normal" in="SourceGraphic" in2="BackgroundImageFix" result="shape"/>
<feColorMatrix in="SourceAlpha" type="matrix" values="0 0 0 0 0 0 0 0 0 0 0 0 0 0 0 0 0 0 127 0" result="hardAlpha"/>
<feOffset dy="9.97066"/>
<feGaussianBlur stdDeviation="2.12707"/>
<feComposite in2="hardAlpha" operator="arithmetic" k2="-1" k3="1"/>
<feColorMatrix type="matrix" values="0 0 0 0 0 0 0 0 0 0 0 0 0 0 0 0 0 0 0.25 0"/>
<feBlend mode="normal" in2="shape" result="effect1_innerShadow_494_88153"/>
<feColorMatrix in="SourceAlpha" type="matrix" values="0 0 0 0 0 0 0 0 0 0 0 0 0 0 0 0 0 0 127 0" result="hardAlpha"/>
<feOffset dy="-1.06354"/>
<feComposite in2="hardAlpha" operator="arithmetic" k2="-1" k3="1"/>
<feColorMatrix type="matrix" values="0 0 0 0 0.376471 0 0 0 0 0.580392 0 0 0 0 0.815686 0 0 0 1 0"/>
<feBlend mode="normal" in2="effect1_innerShadow_494_88153" result="effect2_innerShadow_494_88153"/>
</filter>
<filter id="filter3_ii_494_88153" x="834.195" y="3.32031" width="26.5898" height="30.842" filterUnits="userSpaceOnUse" color-interpolation-filters="sRGB">
<feFlood flood-opacity="0" result="BackgroundImageFix"/>
<feBlend mode="normal" in="SourceGraphic" in2="BackgroundImageFix" result="shape"/>
<feColorMatrix in="SourceAlpha" type="matrix" values="0 0 0 0 0 0 0 0 0 0 0 0 0 0 0 0 0 0 127 0" result="hardAlpha"/>
<feOffset dy="9.97066"/>
<feGaussianBlur stdDeviation="2.12707"/>
<feComposite in2="hardAlpha" operator="arithmetic" k2="-1" k3="1"/>
<feColorMatrix type="matrix" values="0 0 0 0 0 0 0 0 0 0 0 0 0 0 0 0 0 0 0.25 0"/>
<feBlend mode="normal" in2="shape" result="effect1_innerShadow_494_88153"/>
<feColorMatrix in="SourceAlpha" type="matrix" values="0 0 0 0 0 0 0 0 0 0 0 0 0 0 0 0 0 0 127 0" result="hardAlpha"/>
<feOffset dy="-1.06354"/>
<feComposite in2="hardAlpha" operator="arithmetic" k2="-1" k3="1"/>
<feColorMatrix type="matrix" values="0 0 0 0 0.376471 0 0 0 0 0.580392 0 0 0 0 0.815686 0 0 0 1 0"/>
<feBlend mode="normal" in2="effect1_innerShadow_494_88153" result="effect2_innerShadow_494_88153"/>
</filter>
<filter id="filter4_ii_494_88153" x="1167.56" y="790.008" width="173.053" height="254.694" filterUnits="userSpaceOnUse" color-interpolation-filters="sRGB">
<feFlood flood-opacity="0" result="BackgroundImageFix"/>
<feBlend mode="normal" in="SourceGraphic" in2="BackgroundImageFix" result="shape"/>
<feColorMatrix in="SourceAlpha" type="matrix" values="0 0 0 0 0 0 0 0 0 0 0 0 0 0 0 0 0 0 127 0" result="hardAlpha"/>
<feOffset dx="1.10785" dy="1.10785"/>
<feGaussianBlur stdDeviation="1.88335"/>
<feComposite in2="hardAlpha" operator="arithmetic" k2="-1" k3="1"/>
<feColorMatrix type="matrix" values="0 0 0 0 0.0431373 0 0 0 0 0.0588235 0 0 0 0 0.239216 0 0 0 0.7 0"/>
<feBlend mode="normal" in2="shape" result="effect1_innerShadow_494_88153"/>
<feColorMatrix in="SourceAlpha" type="matrix" values="0 0 0 0 0 0 0 0 0 0 0 0 0 0 0 0 0 0 127 0" result="hardAlpha"/>
<feOffset dy="-1.99413"/>
<feComposite in2="hardAlpha" operator="arithmetic" k2="-1" k3="1"/>
<feColorMatrix type="matrix" values="0 0 0 0 0.376471 0 0 0 0 0.580392 0 0 0 0 0.815686 0 0 0 1 0"/>
<feBlend mode="normal" in2="effect1_innerShadow_494_88153" result="effect2_innerShadow_494_88153"/>
</filter>
<filter id="filter5_ii_494_88153" x="652.523" y="125.236" width="545.17" height="875.311" filterUnits="userSpaceOnUse" color-interpolation-filters="sRGB">
<feFlood flood-opacity="0" result="BackgroundImageFix"/>
<feBlend mode="normal" in="SourceGraphic" in2="BackgroundImageFix" result="shape"/>
<feColorMatrix in="SourceAlpha" type="matrix" values="0 0 0 0 0 0 0 0 0 0 0 0 0 0 0 0 0 0 127 0" result="hardAlpha"/>
<feOffset dx="1.10785" dy="1.10785"/>
<feGaussianBlur stdDeviation="1.88335"/>
<feComposite in2="hardAlpha" operator="arithmetic" k2="-1" k3="1"/>
<feColorMatrix type="matrix" values="0 0 0 0 0.0431373 0 0 0 0 0.0588235 0 0 0 0 0.239216 0 0 0 0.7 0"/>
<feBlend mode="normal" in2="shape" result="effect1_innerShadow_494_88153"/>
<feColorMatrix in="SourceAlpha" type="matrix" values="0 0 0 0 0 0 0 0 0 0 0 0 0 0 0 0 0 0 127 0" result="hardAlpha"/>
<feOffset dy="-1.99413"/>
<feComposite in2="hardAlpha" operator="arithmetic" k2="-1" k3="1"/>
<feColorMatrix type="matrix" values="0 0 0 0 0.376471 0 0 0 0 0.580392 0 0 0 0 0.815686 0 0 0 1 0"/>
<feBlend mode="normal" in2="effect1_innerShadow_494_88153" result="effect2_innerShadow_494_88153"/>
</filter>
<filter id="filter6_ii_494_88153" x="6.17188" y="1652.68" width="913.002" height="378.657" filterUnits="userSpaceOnUse" color-interpolation-filters="sRGB">
<feFlood flood-opacity="0" result="BackgroundImageFix"/>
<feBlend mode="normal" in="SourceGraphic" in2="BackgroundImageFix" result="shape"/>
<feColorMatrix in="SourceAlpha" type="matrix" values="0 0 0 0 0 0 0 0 0 0 0 0 0 0 0 0 0 0 127 0" result="hardAlpha"/>
<feOffset dx="1.10785" dy="1.10785"/>
<feGaussianBlur stdDeviation="1.88335"/>
<feComposite in2="hardAlpha" operator="arithmetic" k2="-1" k3="1"/>
<feColorMatrix type="matrix" values="0 0 0 0 0.0431373 0 0 0 0 0.0588235 0 0 0 0 0.239216 0 0 0 0.63 0"/>
<feBlend mode="normal" in2="shape" result="effect1_innerShadow_494_88153"/>
<feColorMatrix in="SourceAlpha" type="matrix" values="0 0 0 0 0 0 0 0 0 0 0 0 0 0 0 0 0 0 127 0" result="hardAlpha"/>
<feOffset dy="-1.10785"/>
<feComposite in2="hardAlpha" operator="arithmetic" k2="-1" k3="1"/>
<feColorMatrix type="matrix" values="0 0 0 0 0.376471 0 0 0 0 0.580392 0 0 0 0 0.815686 0 0 0 0.866667 0"/>
<feBlend mode="normal" in2="effect1_innerShadow_494_88153" result="effect2_innerShadow_494_88153"/>
</filter>
<filter id="filter7_ii_494_88153" x="1060.73" y="1443.53" width="157.316" height="162.301" filterUnits="userSpaceOnUse" color-interpolation-filters="sRGB">
<feFlood flood-opacity="0" result="BackgroundImageFix"/>
<feBlend mode="normal" in="SourceGraphic" in2="BackgroundImageFix" result="shape"/>
<feColorMatrix in="SourceAlpha" type="matrix" values="0 0 0 0 0 0 0 0 0 0 0 0 0 0 0 0 0 0 127 0" result="hardAlpha"/>
<feOffset dy="15.5099"/>
<feGaussianBlur stdDeviation="4.15444"/>
<feComposite in2="hardAlpha" operator="arithmetic" k2="-1" k3="1"/>
<feColorMatrix type="matrix" values="0 0 0 0 0.0431373 0 0 0 0 0.0588235 0 0 0 0 0.239216 0 0 0 0.49 0"/>
<feBlend mode="normal" in2="shape" result="effect1_innerShadow_494_88153"/>
<feColorMatrix in="SourceAlpha" type="matrix" values="0 0 0 0 0 0 0 0 0 0 0 0 0 0 0 0 0 0 127 0" result="hardAlpha"/>
<feOffset dy="-2.2157"/>
<feComposite in2="hardAlpha" operator="arithmetic" k2="-1" k3="1"/>
<feColorMatrix type="matrix" values="0 0 0 0 0.376471 0 0 0 0 0.580392 0 0 0 0 0.815686 0 0 0 1 0"/>
<feBlend mode="normal" in2="effect1_innerShadow_494_88153" result="effect2_innerShadow_494_88153"/>
</filter>
<filter id="filter8_ii_494_88153" x="887.406" y="337.89" width="245.391" height="386.087" filterUnits="userSpaceOnUse" color-interpolation-filters="sRGB">
<feFlood flood-opacity="0" result="BackgroundImageFix"/>
<feBlend mode="normal" in="SourceGraphic" in2="BackgroundImageFix" result="shape"/>
<feColorMatrix in="SourceAlpha" type="matrix" values="0 0 0 0 0 0 0 0 0 0 0 0 0 0 0 0 0 0 127 0" result="hardAlpha"/>
<feOffset dy="-6.64711"/>
<feGaussianBlur stdDeviation="3.43434"/>
<feComposite in2="hardAlpha" operator="arithmetic" k2="-1" k3="1"/>
<feColorMatrix type="matrix" values="0 0 0 0 0.0431373 0 0 0 0 0.0588235 0 0 0 0 0.239216 0 0 0 0.89 0"/>
<feBlend mode="normal" in2="shape" result="effect1_innerShadow_494_88153"/>
<feColorMatrix in="SourceAlpha" type="matrix" values="0 0 0 0 0 0 0 0 0 0 0 0 0 0 0 0 0 0 127 0" result="hardAlpha"/>
<feOffset dy="-2.2157"/>
<feComposite in2="hardAlpha" operator="arithmetic" k2="-1" k3="1"/>
<feColorMatrix type="matrix" values="0 0 0 0 0.376471 0 0 0 0 0.580392 0 0 0 0 0.815686 0 0 0 1 0"/>
<feBlend mode="normal" in2="effect1_innerShadow_494_88153" result="effect2_innerShadow_494_88153"/>
</filter>
<filter id="filter9_i_494_88153" x="1476.2" y="1846.23" width="433.168" height="118.541" filterUnits="userSpaceOnUse" color-interpolation-filters="sRGB">
<feFlood flood-opacity="0" result="BackgroundImageFix"/>
<feBlend mode="normal" in="SourceGraphic" in2="BackgroundImageFix" result="shape"/>
<feColorMatrix in="SourceAlpha" type="matrix" values="0 0 0 0 0 0 0 0 0 0 0 0 0 0 0 0 0 0 127 0" result="hardAlpha"/>
<feOffset dx="35.4512"/>
<feComposite in2="hardAlpha" operator="arithmetic" k2="-1" k3="1"/>
<feColorMatrix type="matrix" values="0 0 0 0 0 0 0 0 0 0 0 0 0 0 0 0 0 0 0.27 0"/>
<feBlend mode="normal" in2="shape" result="effect1_innerShadow_494_88153"/>
</filter>
<filter id="filter10_ii_494_88153" x="1250.45" y="1260.96" width="27.6953" height="32.1267" filterUnits="userSpaceOnUse" color-interpolation-filters="sRGB">
<feFlood flood-opacity="0" result="BackgroundImageFix"/>
<feBlend mode="normal" in="SourceGraphic" in2="BackgroundImageFix" result="shape"/>
<feColorMatrix in="SourceAlpha" type="matrix" values="0 0 0 0 0 0 0 0 0 0 0 0 0 0 0 0 0 0 127 0" result="hardAlpha"/>
<feOffset dy="9.97066"/>
<feGaussianBlur stdDeviation="2.2157"/>
<feComposite in2="hardAlpha" operator="arithmetic" k2="-1" k3="1"/>
<feColorMatrix type="matrix" values="0 0 0 0 0 0 0 0 0 0 0 0 0 0 0 0 0 0 0.25 0"/>
<feBlend mode="normal" in2="shape" result="effect1_innerShadow_494_88153"/>
<feColorMatrix in="SourceAlpha" type="matrix" values="0 0 0 0 0 0 0 0 0 0 0 0 0 0 0 0 0 0 127 0" result="hardAlpha"/>
<feOffset dy="-1.10785"/>
<feComposite in2="hardAlpha" operator="arithmetic" k2="-1" k3="1"/>
<feColorMatrix type="matrix" values="0 0 0 0 0.376471 0 0 0 0 0.580392 0 0 0 0 0.815686 0 0 0 1 0"/>
<feBlend mode="normal" in2="effect1_innerShadow_494_88153" result="effect2_innerShadow_494_88153"/>
</filter>
<filter id="filter11_ii_494_88153" x="1258.53" y="1084.59" width="26.5898" height="30.842" filterUnits="userSpaceOnUse" color-interpolation-filters="sRGB">
<feFlood flood-opacity="0" result="BackgroundImageFix"/>
<feBlend mode="normal" in="SourceGraphic" in2="BackgroundImageFix" result="shape"/>
<feColorMatrix in="SourceAlpha" type="matrix" values="0 0 0 0 0 0 0 0 0 0 0 0 0 0 0 0 0 0 127 0" result="hardAlpha"/>
<feOffset dy="9.97066"/>
<feGaussianBlur stdDeviation="2.12707"/>
<feComposite in2="hardAlpha" operator="arithmetic" k2="-1" k3="1"/>
<feColorMatrix type="matrix" values="0 0 0 0 0 0 0 0 0 0 0 0 0 0 0 0 0 0 0.25 0"/>
<feBlend mode="normal" in2="shape" result="effect1_innerShadow_494_88153"/>
<feColorMatrix in="SourceAlpha" type="matrix" values="0 0 0 0 0 0 0 0 0 0 0 0 0 0 0 0 0 0 127 0" result="hardAlpha"/>
<feOffset dy="-1.06354"/>
<feComposite in2="hardAlpha" operator="arithmetic" k2="-1" k3="1"/>
<feColorMatrix type="matrix" values="0 0 0 0 0.376471 0 0 0 0 0.580392 0 0 0 0 0.815686 0 0 0 1 0"/>
<feBlend mode="normal" in2="effect1_innerShadow_494_88153" result="effect2_innerShadow_494_88153"/>
</filter>
<filter id="filter12_ii_494_88153" x="1719.38" y="1050.24" width="26.5898" height="30.842" filterUnits="userSpaceOnUse" color-interpolation-filters="sRGB">
<feFlood flood-opacity="0" result="BackgroundImageFix"/>
<feBlend mode="normal" in="SourceGraphic" in2="BackgroundImageFix" result="shape"/>
<feColorMatrix in="SourceAlpha" type="matrix" values="0 0 0 0 0 0 0 0 0 0 0 0 0 0 0 0 0 0 127 0" result="hardAlpha"/>
<feOffset dy="9.97066"/>
<feGaussianBlur stdDeviation="2.12707"/>
<feComposite in2="hardAlpha" operator="arithmetic" k2="-1" k3="1"/>
<feColorMatrix type="matrix" values="0 0 0 0 0 0 0 0 0 0 0 0 0 0 0 0 0 0 0.25 0"/>
<feBlend mode="normal" in2="shape" result="effect1_innerShadow_494_88153"/>
<feColorMatrix in="SourceAlpha" type="matrix" values="0 0 0 0 0 0 0 0 0 0 0 0 0 0 0 0 0 0 127 0" result="hardAlpha"/>
<feOffset dy="-1.06354"/>
<feComposite in2="hardAlpha" operator="arithmetic" k2="-1" k3="1"/>
<feColorMatrix type="matrix" values="0 0 0 0 0.376471 0 0 0 0 0.580392 0 0 0 0 0.815686 0 0 0 1 0"/>
<feBlend mode="normal" in2="effect1_innerShadow_494_88153" result="effect2_innerShadow_494_88153"/>
</filter>
<filter id="filter13_ii_494_88153" x="1342.7" y="1086.8" width="26.5898" height="30.842" filterUnits="userSpaceOnUse" color-interpolation-filters="sRGB">
<feFlood flood-opacity="0" result="BackgroundImageFix"/>
<feBlend mode="normal" in="SourceGraphic" in2="BackgroundImageFix" result="shape"/>
<feColorMatrix in="SourceAlpha" type="matrix" values="0 0 0 0 0 0 0 0 0 0 0 0 0 0 0 0 0 0 127 0" result="hardAlpha"/>
<feOffset dy="9.97066"/>
<feGaussianBlur stdDeviation="2.12707"/>
<feComposite in2="hardAlpha" operator="arithmetic" k2="-1" k3="1"/>
<feColorMatrix type="matrix" values="0 0 0 0 0 0 0 0 0 0 0 0 0 0 0 0 0 0 0.25 0"/>
<feBlend mode="normal" in2="shape" result="effect1_innerShadow_494_88153"/>
<feColorMatrix in="SourceAlpha" type="matrix" values="0 0 0 0 0 0 0 0 0 0 0 0 0 0 0 0 0 0 127 0" result="hardAlpha"/>
<feOffset dy="-1.06354"/>
<feComposite in2="hardAlpha" operator="arithmetic" k2="-1" k3="1"/>
<feColorMatrix type="matrix" values="0 0 0 0 0.376471 0 0 0 0 0.580392 0 0 0 0 0.815686 0 0 0 1 0"/>
<feBlend mode="normal" in2="effect1_innerShadow_494_88153" result="effect2_innerShadow_494_88153"/>
</filter>
<filter id="filter14_ii_494_88153" x="1268.49" y="1130.01" width="74.4468" height="125.742" filterUnits="userSpaceOnUse" color-interpolation-filters="sRGB">
<feFlood flood-opacity="0" result="BackgroundImageFix"/>
<feBlend mode="normal" in="SourceGraphic" in2="BackgroundImageFix" result="shape"/>
<feColorMatrix in="SourceAlpha" type="matrix" values="0 0 0 0 0 0 0 0 0 0 0 0 0 0 0 0 0 0 127 0" result="hardAlpha"/>
<feOffset dx="7.75496" dy="4.4314"/>
<feGaussianBlur stdDeviation="3.43434"/>
<feComposite in2="hardAlpha" operator="arithmetic" k2="-1" k3="1"/>
<feColorMatrix type="matrix" values="0 0 0 0 0.0431373 0 0 0 0 0.0588235 0 0 0 0 0.239216 0 0 0 0.49 0"/>
<feBlend mode="normal" in2="shape" result="effect1_innerShadow_494_88153"/>
<feColorMatrix in="SourceAlpha" type="matrix" values="0 0 0 0 0 0 0 0 0 0 0 0 0 0 0 0 0 0 127 0" result="hardAlpha"/>
<feOffset dy="-3.32355"/>
<feComposite in2="hardAlpha" operator="arithmetic" k2="-1" k3="1"/>
<feColorMatrix type="matrix" values="0 0 0 0 0.376471 0 0 0 0 0.580392 0 0 0 0 0.815686 0 0 0 1 0"/>
<feBlend mode="normal" in2="effect1_innerShadow_494_88153" result="effect2_innerShadow_494_88153"/>
</filter>
<filter id="filter15_ii_494_88153" x="2841.09" y="1836.26" width="587.795" height="248.998" filterUnits="userSpaceOnUse" color-interpolation-filters="sRGB">
<feFlood flood-opacity="0" result="BackgroundImageFix"/>
<feBlend mode="normal" in="SourceGraphic" in2="BackgroundImageFix" result="shape"/>
<feColorMatrix in="SourceAlpha" type="matrix" values="0 0 0 0 0 0 0 0 0 0 0 0 0 0 0 0 0 0 127 0" result="hardAlpha"/>
<feOffset dx="1.10785" dy="1.10785"/>
<feGaussianBlur stdDeviation="1.88335"/>
<feComposite in2="hardAlpha" operator="arithmetic" k2="-1" k3="1"/>
<feColorMatrix type="matrix" values="0 0 0 0 0.0431373 0 0 0 0 0.0588235 0 0 0 0 0.239216 0 0 0 0.63 0"/>
<feBlend mode="normal" in2="shape" result="effect1_innerShadow_494_88153"/>
<feColorMatrix in="SourceAlpha" type="matrix" values="0 0 0 0 0 0 0 0 0 0 0 0 0 0 0 0 0 0 127 0" result="hardAlpha"/>
<feOffset dy="-1.10785"/>
<feComposite in2="hardAlpha" operator="arithmetic" k2="-1" k3="1"/>
<feColorMatrix type="matrix" values="0 0 0 0 0.419608 0 0 0 0 0.65098 0 0 0 0 0.894118 0 0 0 1 0"/>
<feBlend mode="normal" in2="effect1_innerShadow_494_88153" result="effect2_innerShadow_494_88153"/>
</filter>
<filter id="filter16_ii_494_88153" x="2478.7" y="790.008" width="173.053" height="254.694" filterUnits="userSpaceOnUse" color-interpolation-filters="sRGB">
<feFlood flood-opacity="0" result="BackgroundImageFix"/>
<feBlend mode="normal" in="SourceGraphic" in2="BackgroundImageFix" result="shape"/>
<feColorMatrix in="SourceAlpha" type="matrix" values="0 0 0 0 0 0 0 0 0 0 0 0 0 0 0 0 0 0 127 0" result="hardAlpha"/>
<feOffset dx="1.10785" dy="1.10785"/>
<feGaussianBlur stdDeviation="1.88335"/>
<feComposite in2="hardAlpha" operator="arithmetic" k2="-1" k3="1"/>
<feColorMatrix type="matrix" values="0 0 0 0 0.0431373 0 0 0 0 0.0588235 0 0 0 0 0.239216 0 0 0 0.7 0"/>
<feBlend mode="normal" in2="shape" result="effect1_innerShadow_494_88153"/>
<feColorMatrix in="SourceAlpha" type="matrix" values="0 0 0 0 0 0 0 0 0 0 0 0 0 0 0 0 0 0 127 0" result="hardAlpha"/>
<feOffset dy="-1.99413"/>
<feComposite in2="hardAlpha" operator="arithmetic" k2="-1" k3="1"/>
<feColorMatrix type="matrix" values="0 0 0 0 0.376471 0 0 0 0 0.580392 0 0 0 0 0.815686 0 0 0 1 0"/>
<feBlend mode="normal" in2="effect1_innerShadow_494_88153" result="effect2_innerShadow_494_88153"/>
</filter>
<filter id="filter17_ii_494_88153" x="2621.6" y="125.236" width="545.17" height="875.311" filterUnits="userSpaceOnUse" color-interpolation-filters="sRGB">
<feFlood flood-opacity="0" result="BackgroundImageFix"/>
<feBlend mode="normal" in="SourceGraphic" in2="BackgroundImageFix" result="shape"/>
<feColorMatrix in="SourceAlpha" type="matrix" values="0 0 0 0 0 0 0 0 0 0 0 0 0 0 0 0 0 0 127 0" result="hardAlpha"/>
<feOffset dx="1.10785" dy="1.10785"/>
<feGaussianBlur stdDeviation="1.88335"/>
<feComposite in2="hardAlpha" operator="arithmetic" k2="-1" k3="1"/>
<feColorMatrix type="matrix" values="0 0 0 0 0.0431373 0 0 0 0 0.0588235 0 0 0 0 0.239216 0 0 0 0.7 0"/>
<feBlend mode="normal" in2="shape" result="effect1_innerShadow_494_88153"/>
<feColorMatrix in="SourceAlpha" type="matrix" values="0 0 0 0 0 0 0 0 0 0 0 0 0 0 0 0 0 0 127 0" result="hardAlpha"/>
<feOffset dy="-1.99413"/>
<feComposite in2="hardAlpha" operator="arithmetic" k2="-1" k3="1"/>
<feColorMatrix type="matrix" values="0 0 0 0 0.376471 0 0 0 0 0.580392 0 0 0 0 0.815686 0 0 0 1 0"/>
<feBlend mode="normal" in2="effect1_innerShadow_494_88153" result="effect2_innerShadow_494_88153"/>
</filter>
<filter id="filter18_ii_494_88153" x="2900.12" y="1652.68" width="913.006" height="378.657" filterUnits="userSpaceOnUse" color-interpolation-filters="sRGB">
<feFlood flood-opacity="0" result="BackgroundImageFix"/>
<feBlend mode="normal" in="SourceGraphic" in2="BackgroundImageFix" result="shape"/>
<feColorMatrix in="SourceAlpha" type="matrix" values="0 0 0 0 0 0 0 0 0 0 0 0 0 0 0 0 0 0 127 0" result="hardAlpha"/>
<feOffset dx="1.10785" dy="1.10785"/>
<feGaussianBlur stdDeviation="1.88335"/>
<feComposite in2="hardAlpha" operator="arithmetic" k2="-1" k3="1"/>
<feColorMatrix type="matrix" values="0 0 0 0 0.0431373 0 0 0 0 0.0588235 0 0 0 0 0.239216 0 0 0 0.63 0"/>
<feBlend mode="normal" in2="shape" result="effect1_innerShadow_494_88153"/>
<feColorMatrix in="SourceAlpha" type="matrix" values="0 0 0 0 0 0 0 0 0 0 0 0 0 0 0 0 0 0 127 0" result="hardAlpha"/>
<feOffset dy="-1.10785"/>
<feComposite in2="hardAlpha" operator="arithmetic" k2="-1" k3="1"/>
<feColorMatrix type="matrix" values="0 0 0 0 0.376471 0 0 0 0 0.580392 0 0 0 0 0.815686 0 0 0 0.866667 0"/>
<feBlend mode="normal" in2="effect1_innerShadow_494_88153" result="effect2_innerShadow_494_88153"/>
</filter>
<filter id="filter19_ii_494_88153" x="2600.14" y="1443.53" width="157.312" height="162.301" filterUnits="userSpaceOnUse" color-interpolation-filters="sRGB">
<feFlood flood-opacity="0" result="BackgroundImageFix"/>
<feBlend mode="normal" in="SourceGraphic" in2="BackgroundImageFix" result="shape"/>
<feColorMatrix in="SourceAlpha" type="matrix" values="0 0 0 0 0 0 0 0 0 0 0 0 0 0 0 0 0 0 127 0" result="hardAlpha"/>
<feOffset dy="15.5099"/>
<feGaussianBlur stdDeviation="4.15444"/>
<feComposite in2="hardAlpha" operator="arithmetic" k2="-1" k3="1"/>
<feColorMatrix type="matrix" values="0 0 0 0 0.0431373 0 0 0 0 0.0588235 0 0 0 0 0.239216 0 0 0 0.49 0"/>
<feBlend mode="normal" in2="shape" result="effect1_innerShadow_494_88153"/>
<feColorMatrix in="SourceAlpha" type="matrix" values="0 0 0 0 0 0 0 0 0 0 0 0 0 0 0 0 0 0 127 0" result="hardAlpha"/>
<feOffset dy="-2.2157"/>
<feComposite in2="hardAlpha" operator="arithmetic" k2="-1" k3="1"/>
<feColorMatrix type="matrix" values="0 0 0 0 0.376471 0 0 0 0 0.580392 0 0 0 0 0.815686 0 0 0 1 0"/>
<feBlend mode="normal" in2="effect1_innerShadow_494_88153" result="effect2_innerShadow_494_88153"/>
</filter>
<filter id="filter20_ii_494_88153" x="2685.41" y="337.89" width="245.391" height="386.087" filterUnits="userSpaceOnUse" color-interpolation-filters="sRGB">
<feFlood flood-opacity="0" result="BackgroundImageFix"/>
<feBlend mode="normal" in="SourceGraphic" in2="BackgroundImageFix" result="shape"/>
<feColorMatrix in="SourceAlpha" type="matrix" values="0 0 0 0 0 0 0 0 0 0 0 0 0 0 0 0 0 0 127 0" result="hardAlpha"/>
<feOffset dy="-6.64711"/>
<feGaussianBlur stdDeviation="3.43434"/>
<feComposite in2="hardAlpha" operator="arithmetic" k2="-1" k3="1"/>
<feColorMatrix type="matrix" values="0 0 0 0 0.0431373 0 0 0 0 0.0588235 0 0 0 0 0.239216 0 0 0 0.89 0"/>
<feBlend mode="normal" in2="shape" result="effect1_innerShadow_494_88153"/>
<feColorMatrix in="SourceAlpha" type="matrix" values="0 0 0 0 0 0 0 0 0 0 0 0 0 0 0 0 0 0 127 0" result="hardAlpha"/>
<feOffset dy="-2.2157"/>
<feComposite in2="hardAlpha" operator="arithmetic" k2="-1" k3="1"/>
<feColorMatrix type="matrix" values="0 0 0 0 0.376471 0 0 0 0 0.580392 0 0 0 0 0.815686 0 0 0 1 0"/>
<feBlend mode="normal" in2="effect1_innerShadow_494_88153" result="effect2_innerShadow_494_88153"/>
</filter>
<filter id="filter21_i_494_88153" x="1908.82" y="1846.23" width="433.168" height="118.541" filterUnits="userSpaceOnUse" color-interpolation-filters="sRGB">
<feFlood flood-opacity="0" result="BackgroundImageFix"/>
<feBlend mode="normal" in="SourceGraphic" in2="BackgroundImageFix" result="shape"/>
<feColorMatrix in="SourceAlpha" type="matrix" values="0 0 0 0 0 0 0 0 0 0 0 0 0 0 0 0 0 0 127 0" result="hardAlpha"/>
<feOffset dx="-35.4512"/>
<feComposite in2="hardAlpha" operator="arithmetic" k2="-1" k3="1"/>
<feColorMatrix type="matrix" values="0 0 0 0 0 0 0 0 0 0 0 0 0 0 0 0 0 0 0.27 0"/>
<feBlend mode="normal" in2="shape" result="effect1_innerShadow_494_88153"/>
</filter>
<filter id="filter22_ii_494_88153" x="2540.05" y="1260.96" width="27.6953" height="32.1267" filterUnits="userSpaceOnUse" color-interpolation-filters="sRGB">
<feFlood flood-opacity="0" result="BackgroundImageFix"/>
<feBlend mode="normal" in="SourceGraphic" in2="BackgroundImageFix" result="shape"/>
<feColorMatrix in="SourceAlpha" type="matrix" values="0 0 0 0 0 0 0 0 0 0 0 0 0 0 0 0 0 0 127 0" result="hardAlpha"/>
<feOffset dy="9.97066"/>
<feGaussianBlur stdDeviation="2.2157"/>
<feComposite in2="hardAlpha" operator="arithmetic" k2="-1" k3="1"/>
<feColorMatrix type="matrix" values="0 0 0 0 0 0 0 0 0 0 0 0 0 0 0 0 0 0 0.25 0"/>
<feBlend mode="normal" in2="shape" result="effect1_innerShadow_494_88153"/>
<feColorMatrix in="SourceAlpha" type="matrix" values="0 0 0 0 0 0 0 0 0 0 0 0 0 0 0 0 0 0 127 0" result="hardAlpha"/>
<feOffset dy="-1.10785"/>
<feComposite in2="hardAlpha" operator="arithmetic" k2="-1" k3="1"/>
<feColorMatrix type="matrix" values="0 0 0 0 0.376471 0 0 0 0 0.580392 0 0 0 0 0.815686 0 0 0 1 0"/>
<feBlend mode="normal" in2="effect1_innerShadow_494_88153" result="effect2_innerShadow_494_88153"/>
</filter>
<filter id="filter23_ii_494_88153" x="2533.08" y="1084.59" width="26.5859" height="30.842" filterUnits="userSpaceOnUse" color-interpolation-filters="sRGB">
<feFlood flood-opacity="0" result="BackgroundImageFix"/>
<feBlend mode="normal" in="SourceGraphic" in2="BackgroundImageFix" result="shape"/>
<feColorMatrix in="SourceAlpha" type="matrix" values="0 0 0 0 0 0 0 0 0 0 0 0 0 0 0 0 0 0 127 0" result="hardAlpha"/>
<feOffset dy="9.97066"/>
<feGaussianBlur stdDeviation="2.12707"/>
<feComposite in2="hardAlpha" operator="arithmetic" k2="-1" k3="1"/>
<feColorMatrix type="matrix" values="0 0 0 0 0 0 0 0 0 0 0 0 0 0 0 0 0 0 0.25 0"/>
<feBlend mode="normal" in2="shape" result="effect1_innerShadow_494_88153"/>
<feColorMatrix in="SourceAlpha" type="matrix" values="0 0 0 0 0 0 0 0 0 0 0 0 0 0 0 0 0 0 127 0" result="hardAlpha"/>
<feOffset dy="-1.06354"/>
<feComposite in2="hardAlpha" operator="arithmetic" k2="-1" k3="1"/>
<feColorMatrix type="matrix" values="0 0 0 0 0.376471 0 0 0 0 0.580392 0 0 0 0 0.815686 0 0 0 1 0"/>
<feBlend mode="normal" in2="effect1_innerShadow_494_88153" result="effect2_innerShadow_494_88153"/>
</filter>
<filter id="filter24_ii_494_88153" x="2072.23" y="1050.24" width="26.5859" height="30.842" filterUnits="userSpaceOnUse" color-interpolation-filters="sRGB">
<feFlood flood-opacity="0" result="BackgroundImageFix"/>
<feBlend mode="normal" in="SourceGraphic" in2="BackgroundImageFix" result="shape"/>
<feColorMatrix in="SourceAlpha" type="matrix" values="0 0 0 0 0 0 0 0 0 0 0 0 0 0 0 0 0 0 127 0" result="hardAlpha"/>
<feOffset dy="9.97066"/>
<feGaussianBlur stdDeviation="2.12707"/>
<feComposite in2="hardAlpha" operator="arithmetic" k2="-1" k3="1"/>
<feColorMatrix type="matrix" values="0 0 0 0 0 0 0 0 0 0 0 0 0 0 0 0 0 0 0.25 0"/>
<feBlend mode="normal" in2="shape" result="effect1_innerShadow_494_88153"/>
<feColorMatrix in="SourceAlpha" type="matrix" values="0 0 0 0 0 0 0 0 0 0 0 0 0 0 0 0 0 0 127 0" result="hardAlpha"/>
<feOffset dy="-1.06354"/>
<feComposite in2="hardAlpha" operator="arithmetic" k2="-1" k3="1"/>
<feColorMatrix type="matrix" values="0 0 0 0 0.376471 0 0 0 0 0.580392 0 0 0 0 0.815686 0 0 0 1 0"/>
<feBlend mode="normal" in2="effect1_innerShadow_494_88153" result="effect2_innerShadow_494_88153"/>
</filter>
<filter id="filter25_ii_494_88153" x="2448.9" y="1086.8" width="26.5859" height="30.842" filterUnits="userSpaceOnUse" color-interpolation-filters="sRGB">
<feFlood flood-opacity="0" result="BackgroundImageFix"/>
<feBlend mode="normal" in="SourceGraphic" in2="BackgroundImageFix" result="shape"/>
<feColorMatrix in="SourceAlpha" type="matrix" values="0 0 0 0 0 0 0 0 0 0 0 0 0 0 0 0 0 0 127 0" result="hardAlpha"/>
<feOffset dy="9.97066"/>
<feGaussianBlur stdDeviation="2.12707"/>
<feComposite in2="hardAlpha" operator="arithmetic" k2="-1" k3="1"/>
<feColorMatrix type="matrix" values="0 0 0 0 0 0 0 0 0 0 0 0 0 0 0 0 0 0 0.25 0"/>
<feBlend mode="normal" in2="shape" result="effect1_innerShadow_494_88153"/>
<feColorMatrix in="SourceAlpha" type="matrix" values="0 0 0 0 0 0 0 0 0 0 0 0 0 0 0 0 0 0 127 0" result="hardAlpha"/>
<feOffset dy="-1.06354"/>
<feComposite in2="hardAlpha" operator="arithmetic" k2="-1" k3="1"/>
<feColorMatrix type="matrix" values="0 0 0 0 0.376471 0 0 0 0 0.580392 0 0 0 0 0.815686 0 0 0 1 0"/>
<feBlend mode="normal" in2="effect1_innerShadow_494_88153" result="effect2_innerShadow_494_88153"/>
</filter>
<filter id="filter26_ii_494_88153" x="2482.12" y="1130.01" width="74.4468" height="125.742" filterUnits="userSpaceOnUse" color-interpolation-filters="sRGB">
<feFlood flood-opacity="0" result="BackgroundImageFix"/>
<feBlend mode="normal" in="SourceGraphic" in2="BackgroundImageFix" result="shape"/>
<feColorMatrix in="SourceAlpha" type="matrix" values="0 0 0 0 0 0 0 0 0 0 0 0 0 0 0 0 0 0 127 0" result="hardAlpha"/>
<feOffset dx="7.75496" dy="4.4314"/>
<feGaussianBlur stdDeviation="3.43434"/>
<feComposite in2="hardAlpha" operator="arithmetic" k2="-1" k3="1"/>
<feColorMatrix type="matrix" values="0 0 0 0 0.0431373 0 0 0 0 0.0588235 0 0 0 0 0.239216 0 0 0 0.49 0"/>
<feBlend mode="normal" in2="shape" result="effect1_innerShadow_494_88153"/>
<feColorMatrix in="SourceAlpha" type="matrix" values="0 0 0 0 0 0 0 0 0 0 0 0 0 0 0 0 0 0 127 0" result="hardAlpha"/>
<feOffset dy="-3.32355"/>
<feComposite in2="hardAlpha" operator="arithmetic" k2="-1" k3="1"/>
<feColorMatrix type="matrix" values="0 0 0 0 0.376471 0 0 0 0 0.580392 0 0 0 0 0.815686 0 0 0 1 0"/>
<feBlend mode="normal" in2="effect1_innerShadow_494_88153" result="effect2_innerShadow_494_88153"/>
</filter>
<filter id="filter27_i_494_88153" x="2243.84" y="1488.6" width="294.9" height="163.713" filterUnits="userSpaceOnUse" color-interpolation-filters="sRGB">
<feFlood flood-opacity="0" result="BackgroundImageFix"/>
<feBlend mode="normal" in="SourceGraphic" in2="BackgroundImageFix" result="shape"/>
<feColorMatrix in="SourceAlpha" type="matrix" values="0 0 0 0 0 0 0 0 0 0 0 0 0 0 0 0 0 0 127 0" result="hardAlpha"/>
<feOffset dx="8.67355" dy="8.67355"/>
<feGaussianBlur stdDeviation="7.69777"/>
<feComposite in2="hardAlpha" operator="arithmetic" k2="-1" k3="1"/>
<feColorMatrix type="matrix" values="0 0 0 0 0 0 0 0 0 0 0 0 0 0 0 0 0 0 0.15 0"/>
<feBlend mode="normal" in2="shape" result="effect1_innerShadow_494_88153"/>
</filter>
<filter id="filter28_i_494_88153" x="1290.83" y="1476.67" width="294.9" height="163.713" filterUnits="userSpaceOnUse" color-interpolation-filters="sRGB">
<feFlood flood-opacity="0" result="BackgroundImageFix"/>
<feBlend mode="normal" in="SourceGraphic" in2="BackgroundImageFix" result="shape"/>
<feColorMatrix in="SourceAlpha" type="matrix" values="0 0 0 0 0 0 0 0 0 0 0 0 0 0 0 0 0 0 127 0" result="hardAlpha"/>
<feOffset dx="8.67355" dy="8.67355"/>
<feGaussianBlur stdDeviation="7.69777"/>
<feComposite in2="hardAlpha" operator="arithmetic" k2="-1" k3="1"/>
<feColorMatrix type="matrix" values="0 0 0 0 0 0 0 0 0 0 0 0 0 0 0 0 0 0 0.15 0"/>
<feBlend mode="normal" in2="shape" result="effect1_innerShadow_494_88153"/>
</filter>
<linearGradient id="paint0_linear_494_88153" x1="966.587" y1="1724.95" x2="144.008" y2="2071.66" gradientUnits="userSpaceOnUse">
<stop offset="0.335505" stop-color="#1F2A5F"/>
<stop offset="1" stop-color="#1F2A5F" stop-opacity="0"/>
</linearGradient>
<linearGradient id="paint1_linear_494_88153" x1="621.227" y1="10.5215" x2="621.227" y2="2010.19" gradientUnits="userSpaceOnUse">
<stop stop-color="#143A6C"/>
<stop offset="1" stop-color="#002A60"/>
</linearGradient>
<linearGradient id="paint2_linear_494_88153" x1="2851.6" y1="1724.95" x2="3674.18" y2="2071.66" gradientUnits="userSpaceOnUse">
<stop offset="0.335505" stop-color="#1F2A5F"/>
<stop offset="1" stop-color="#1F2A5F" stop-opacity="0"/>
</linearGradient>
<linearGradient id="paint3_linear_494_88153" x1="3196.97" y1="10.5215" x2="3196.97" y2="2010.19" gradientUnits="userSpaceOnUse">
<stop stop-color="#143A6C"/>
<stop offset="1" stop-color="#002A60"/>
</linearGradient>
</defs>
</svg>
