<svg xmlns="http://www.w3.org/2000/svg" width="537" height="377" fill="none" xmlns:v="https://vecta.io/nano"><style><![CDATA[.B{stroke:#1b282f}.C{color-interpolation-filters:sRGB}.D{flood-opacity:0}.E{stroke-width:1.118}.F{fill:#5f747e}.G{fill:#4a5c65}.H{stroke:#3b4353}.I{fill:#b8bec4}.J{fill:#7a919b}.K{fill:#6490a4}.L{fill:#eff5ff}.M{stroke-width:.956}.N{fill:#76a8c0}.O{stroke-width:.838}.P{fill:#9fa7af}.Q{stroke-width:1.099}.R{stroke-width:.895}.S{stroke-width:.559}.T{fill-rule:evenodd}]]></style><g filter="url(#D)"><path d="M286.619 288.261c.334 3.957-4.597 7.604-11.015 8.146s-11.892-2.227-12.226-6.184 4.598-7.604 11.016-8.145 11.891 2.226 12.225 6.183z" class="G"/><path d="M274.347 281.521c3.295-.278 6.374.289 8.693 1.462 2.31 1.168 3.947 2.988 4.137 5.231s-1.12 4.311-3.201 5.85c-2.09 1.545-5.03 2.622-8.325 2.9s-6.375-.29-8.694-1.463c-2.309-1.168-3.946-2.987-4.135-5.23s1.119-4.312 3.2-5.851c2.089-1.545 5.03-2.621 8.325-2.899z" class="B E"/></g><g filter="url(#E)" class="F"><use href="#c"/></g><g class="B E"><path d="M277.754 262.051l2.017 23.885a5.03 5.03 0 1 1-10.026.846l-2.017-23.885 10.026-.846z"/><path d="M155.46 273.081c3.295-.278 6.375.29 8.693 1.462 2.31 1.169 3.947 2.988 4.137 5.231s-1.12 4.311-3.201 5.85c-2.089 1.545-5.03 2.622-8.325 2.9s-6.375-.29-8.694-1.463c-2.309-1.168-3.945-2.987-4.135-5.23s1.119-4.312 3.2-5.851c2.089-1.545 5.03-2.621 8.325-2.899z" class="G"/></g><g filter="url(#F)" class="F"><path d="M151.411 278.294l-1.003-11.882-.255-3.015-.712-8.431 8.912-.753.738 8.738.28 3.32.952 11.271c.208 2.461-1.619 4.624-4.08 4.832s-4.624-1.619-4.832-4.08z"/></g><g class="B E"><path d="M158.864 253.61l2.016 23.884c.234 2.769-1.821 5.203-4.59 5.437s-5.202-1.822-5.436-4.59l-2.016-23.885 10.026-.846z"/><path d="M94.937 227.504c3.295-.278 6.374.289 8.693 1.462 2.31 1.168 3.947 2.988 4.136 5.231s-1.12 4.311-3.201 5.85c-2.089 1.545-5.029 2.622-8.324 2.9s-6.375-.291-8.694-1.463c-2.309-1.169-3.946-2.987-4.135-5.231s1.119-4.311 3.2-5.85c2.089-1.545 5.03-2.621 8.326-2.899z" class="G"/></g><g filter="url(#G)" class="F"><path d="M90.891 232.717l-1.003-11.883-.254-3.014-.712-8.431 8.912-.753.738 8.738.28 3.32.951 11.271c.208 2.461-1.619 4.624-4.08 4.832s-4.624-1.619-4.832-4.08z"/></g><g class="B E"><path d="M98.344 208.033l2.017 23.884c.233 2.769-1.822 5.203-4.591 5.437a5.03 5.03 0 0 1-5.436-4.59l-2.017-23.885 10.026-.846z"/><path d="M81.25 182.701c3.295-.278 6.374.29 8.693 1.463 2.31 1.168 3.947 2.987 4.136 5.231s-1.12 4.311-3.201 5.849c-2.089 1.545-5.03 2.622-8.325 2.901s-6.375-.291-8.694-1.464c-2.309-1.168-3.946-2.987-4.135-5.23s1.119-4.312 3.2-5.85c2.089-1.545 5.03-2.621 8.326-2.9z" class="G"/></g><g filter="url(#H)" class="F"><path d="M77.2 187.914l-1.003-11.883-.254-3.014-.712-8.432 8.912-.752.738 8.737.28 3.32.952 11.271a4.47 4.47 0 1 1-8.912.753z"/></g><g class="B E"><path d="M84.653 163.229l2.017 23.885a5.03 5.03 0 1 1-10.026.846l-2.016-23.885 10.026-.846z"/><path d="M364.097 259.513c3.295-.278 6.374.29 8.693 1.463 2.31 1.168 3.947 2.987 4.137 5.231s-1.12 4.31-3.201 5.849c-2.09 1.545-5.03 2.622-8.325 2.9s-6.375-.29-8.694-1.463c-2.309-1.168-3.946-2.987-4.135-5.23s1.119-4.312 3.2-5.851c2.089-1.545 5.03-2.621 8.325-2.899z" class="G"/></g><g filter="url(#I)" class="F"><use href="#c" x="89.75" y="-22.009"/></g><g class="B E"><path d="M367.504 240.042l2.017 23.885c.234 2.768-1.822 5.203-4.59 5.437s-5.202-1.822-5.436-4.591l-2.017-23.884 10.026-.847z"/><path d="M438.449 206.427c3.295-.278 6.374.29 8.693 1.462 2.309 1.169 3.947 2.988 4.136 5.232s-1.12 4.31-3.201 5.849c-2.089 1.545-5.029 2.622-8.324 2.9s-6.375-.29-8.694-1.463c-2.31-1.168-3.946-2.987-4.136-5.23s1.119-4.312 3.2-5.851c2.09-1.545 5.031-2.621 8.326-2.899z" class="G"/></g><g filter="url(#J)" class="F"><use href="#d"/></g><g class="B E"><path d="M441.856 186.956l2.016 23.885a5.03 5.03 0 1 1-10.025.846l-2.017-23.885 10.026-.846z"/><path d="M449.367 159.868c3.295-.278 6.374.29 8.693 1.463 2.309 1.168 3.947 2.987 4.136 5.231s-1.12 4.31-3.201 5.849c-2.089 1.545-5.029 2.622-8.324 2.9s-6.376-.29-8.694-1.463c-2.31-1.168-3.946-2.987-4.136-5.23s1.119-4.312 3.2-5.851c2.09-1.545 5.031-2.621 8.326-2.899z" class="G"/></g><g filter="url(#K)" class="F"><use href="#d" x="10.918" y="-46.559"/></g><path d="M452.774 140.397l2.016 23.885a5.03 5.03 0 1 1-10.026.846l-2.016-23.885 10.026-.846z" class="B E"/><g filter="url(#L)" class="L"><path d="M350.865 192.466l-95.077 20.346-93.282-9.459-62.202-35.314-14.456-48.233-12.162 27.314 1.892 30.31 18.646 44.711 60.742 45.117 119.179 10.573 89.48-22.822 74.085-53.244 15.288-50.304-2.749-32.559-6.72-9.759-8.846-5.765-15.921 43.846-67.897 45.242z"/></g><g class="E H"><path d="M453.564 151.521l-.032.103-15.288 50.304-.054.181-.154.11-74.084 53.245-.086.061-.103.026-89.479 22.822-.093.023-.095-.009-119.179-10.572-.157-.014-.127-.095-60.742-45.116-.123-.092-.059-.141-18.646-44.712-.036-.086-.006-.094-1.893-30.309-.009-.138.056-.125 12.162-27.315.613-1.376.434 1.443 14.391 48.019 61.903 35.143 93.076 9.44 94.89-20.306 67.655-45.081 15.858-43.673.241-.662.59.384 8.846 5.765.093.061.063.09 6.72 9.76.083.122 2.771 32.814z"/><path d="M73.395 146.87l16.856 40.09 61.589 45.662 59.303 5.553 60.293 4.257 60.55-15.499 28.848-6.733 74.904-53.886 14.645-47.974"/><path d="M100.151 167.43l-9.946 19.077 3.019 35.76m162.838-9.39l15.092 29.466 3.043 36.034m76.475-86.158l9.996 27.72 3.138 35.476m54.006-109.081l17.928 19.981 2.473 35.803m-275.544 1.046l-10.854 29.184 2.996 35.487"/></g><g filter="url(#M)"><ellipse cx="122.077" cy="360.23" rx="11.662" ry="7.19" transform="rotate(355.174 122.077 360.23)" class="G"/><path d="M121.425 352.509c3.295-.278 6.374.289 8.693 1.462 2.31 1.168 3.947 2.988 4.137 5.231s-1.12 4.311-3.201 5.85c-2.09 1.545-5.03 2.622-8.325 2.9s-6.375-.29-8.694-1.463c-2.309-1.168-3.946-2.987-4.135-5.231s1.119-4.311 3.2-5.85c2.089-1.545 5.03-2.621 8.325-2.899z" class="B E"/></g><g filter="url(#N)" class="F"><path d="M117.38 357.724l-1.003-11.883-.255-3.014-.712-8.432 8.912-.752.738 8.737.28 3.32.952 11.271a4.47 4.47 0 1 1-8.912.753z"/></g><path d="M124.832 333.039l2.017 23.885c.234 2.768-1.822 5.203-4.59 5.437s-5.202-1.822-5.436-4.591l-2.016-23.884 10.025-.847z" class="B E"/><g filter="url(#O)"><ellipse cx="36.284" cy="333.933" rx="11.662" ry="7.19" transform="rotate(355.174 36.284 333.933)" class="G"/><path d="M35.632 326.212c3.295-.278 6.374.29 8.693 1.462 2.31 1.168 3.947 2.988 4.136 5.231s-1.12 4.311-3.201 5.85c-2.089 1.545-5.03 2.622-8.325 2.9s-6.375-.29-8.694-1.463c-2.309-1.168-3.946-2.987-4.135-5.23s1.119-4.312 3.2-5.851c2.089-1.545 5.03-2.621 8.326-2.899z" class="B E"/></g><g filter="url(#P)" class="F"><path d="M31.529 331.58l-.743-8.795-.205-2.428-.573-6.793 8.735-.738.594 7.039.226 2.675.701 8.303c.204 2.412-1.587 4.533-3.999 4.736s-4.533-1.586-4.736-3.999z"/></g><path d="M39.253 312.223l1.568 18.573c.229 2.72-1.79 5.11-4.509 5.34s-5.11-1.789-5.34-4.508l-1.568-18.574 9.849-.831z" class="B E"/><path d="M105.264 178.796l103.665 29.262-35.689 39.003-16.428 67.032-20.979 31.775-17.449 4.905-89.344-29.141-1.084-12.843 32.068-30.475 15.962-71.087 29.278-28.431z" class="L"/><g filter="url(#Q)"><path d="M70.573 279.623l14.157-57.005 81.903 22.502-13.63 59.985-82.43-25.482z" fill="#2dc8ff"/></g><path d="M165.97 245.517l-13.379 58.875-81.348-25.148 13.891-55.936 80.836 22.209z" stroke="#004f6b" class="E"/><mask id="A" maskUnits="userSpaceOnUse" x="70" y="223" width="97" height="83" mask-type="alpha"><path d="M70.574 279.622l12.269-56.571 83.791 22.068-13.631 59.985-82.429-25.482z" fill="#4e4e4e"/></mask><g mask="url(#A)"><path d="M75.287 244.599l16.448 5.361 8.273-10.805 48.438 14.888.801 13.746 13.099 3.598m-82.124-39.178l14.856 5.097 8.273-10.804 48.438 14.887.801 13.747 13.099 3.597m-93.9-2.631l16.381 5.809 8.273-10.805 48.438 14.888.801 13.747 13.099 3.597M68.428 268.49l15.801 5.398 8.273-10.804 48.439 14.887.801 13.747 13.099 3.598M65.98 280.56l14.856 5.097 8.273-10.805 48.439 14.888.801 13.746 13.099 3.598" stroke="#004f6b" stroke-opacity=".58" stroke-width="1.073"/></g><path d="M77.193 220.505l-1.129-13.371-16.042 71.181-8.386 8.131 8.489 2.857 6.66-5.786 3.795-3.894 14.157-57.005-7.543-2.113z" class="I"/><g filter="url(#R)" class="I"><path d="M38.144 309.029l28.908-25.871 83.57 26.272-25.29 29.704-9.369 2.639-77.266-26.191-.553-6.553z"/></g><path d="M67.178 282.758l83.57 26.272.603.19-.41.482-25.29 29.705-.083.097-.122.034-9.369 2.639-.125.035-.123-.042-77.267-26.191-.259-.089-.594-7.034.156-.14 28.908-25.871.178-.159.228.072z" class="H O"/><path d="M156.792 314.132l16.057-67.062 9.383-12.614 28.85 3.062 1.969 35.046-35.646 38.472-9.983 8.522-31.594 26.311 9.221-14.524 11.743-17.213z" class="L"/><path d="M193.999 249.18l16.862-10.819 2.349 35.124-35.812 37.549 16.601-61.854z" class="P"/><path d="M156.785 313.835l-24.274 29.114-14.139 7.84 17.454-4.919 31.595-26.311 9.982-8.521 16.601-61.855-20.712-2.475-16.507 67.127z" class="I"/><path d="M94.965 207.911l79.467 21.977m-77.6-24.863l79.467 21.977m-76.338-24.531l79.467 21.977m-77.08-24.99l79.467 21.977m-77.229-24.632l80.75 22.573" class="H R"/><path d="M85.6 210.635l.509 6.029 5.455 1.035-.524-6.203 2.321-7.203 16.364-14.579-6.411-.637L88.41 203.27l-2.81 7.365z" class="J"/><path d="M94.242 215.011l-2.677 2.69-.524-6.204 2.321-7.205 16.364-14.578.415 4.914-14.437 12.692-1.78 3.934.317 3.757z" class="F"/><path d="M126.862 223.081l.509 6.028 5.455 1.036-.524-6.204 2.497-6.898 16.004-14.727-6.227-.794-14.904 14.194-2.81 7.365z" class="J"/><path d="M135.504 227.456l-2.677 2.689-.786-6.181 2.556-7.255 16.033-14.377.428 4.788-14.092 12.645-1.779 3.934.317 3.757z" class="F"/><path d="M171.326 234.813l.509 6.029 5.456 1.035-.524-6.203 2.497-6.899 16.004-14.726-6.227-.795-14.905 14.194-2.81 7.365z" class="J"/><path d="M179.969 239.189l-2.677 2.69-.786-6.181 2.555-7.256 16.034-14.377.391 4.631-14.055 12.802-1.779 3.934.317 3.757z" class="F"/><g filter="url(#S)"><path d="M94.684 206.931l14.865-12.802 41.464 12.445 44.723 11.961-3.823 3.555-10.751 9.431-1.338 3.687.322 3.821-3.068 2.734-5.302-.927-40.337-10.563-40.65-12.567 2.902-2.994-.619-4.071 1.611-3.71z" fill="#8992a1" fill-opacity=".32"/></g><path d="M91.464 217.65l-5.302-.927-.507-6.006 2.676-7.374 15.022-14.19 6.371.562m-18.26 27.935l2.795-2.711-.323-3.821 1.611-3.71 14.592-12.779-.415-4.914m-18.26 27.935l-.507-6.006 2.404-7.351 16.364-14.578m22.926 40.403l-5.301-.927-.507-6.005 2.676-7.374 15.023-14.19 6.37.562m-18.261 27.934l2.796-2.71-.323-3.822 1.611-3.71 14.592-12.778-.415-4.914m-18.261 27.934l-.507-6.005 2.404-7.351 16.364-14.578m26.165 39.58l-5.302-.927-.507-6.006 2.677-7.374 15.022-14.19 6.371.562m-18.261 27.935l2.796-2.711-.323-3.821 1.611-3.71 14.592-12.779-.415-4.914m-18.261 27.935l-.507-6.006 2.404-7.351 16.364-14.578" class="B S"/><path d="M118.389 350.915l17.444-5.046 41.595-34.854 35.601-37.466-2.404-34.987-16.702 10.577-20.546-2.389-16.603 67.109-24.198 29.26-14.187 7.796zm0 0l-89.35-29.296-1.083-12.83 32.068-30.475 15.984-71.18m0 0l18.295-17.766m-18.295 17.766l1.152 13.649 7.624 2.38" class="E H"/><g filter="url(#T)"><ellipse cx="11.662" cy="7.19" rx="11.662" ry="7.19" transform="matrix(-.996455 .084129 .084129 .996455 450.746 323.915)" class="G"/><path d="M439.078 324.34c-3.295.278-6.235 1.354-8.324 2.899-2.081 1.539-3.391 3.607-3.201 5.851s1.827 4.062 4.136 5.23c2.319 1.172 5.398 1.741 8.693 1.463s6.236-1.355 8.326-2.9c2.081-1.539 3.389-3.606 3.2-5.85s-1.826-4.063-4.136-5.231c-2.319-1.173-5.398-1.74-8.694-1.462z" class="B E"/></g><g filter="url(#U)" class="F"><path d="M443.942 328.802l-1.003-11.882-.254-3.015-.712-8.431-8.912.752.737 8.738.281 3.32.951 11.271c.208 2.461 2.371 4.287 4.832 4.08s4.288-2.372 4.08-4.833z"/></g><path d="M432.456 305.717l2.017 23.884c.234 2.769 2.668 4.824 5.437 4.591a5.03 5.03 0 0 0 4.589-5.437l-2.017-23.885-10.026.847z" class="B E"/><g filter="url(#V)"><ellipse cx="11.662" cy="7.19" rx="11.662" ry="7.19" transform="matrix(-.996455 .084129 .084129 .996455 531.141 283.586)" class="G"/><path d="M519.473 284.011c-3.295.278-6.235 1.354-8.325 2.899-2.081 1.539-3.39 3.607-3.201 5.85s1.827 4.063 4.137 5.231c2.319 1.172 5.398 1.741 8.693 1.463s6.236-1.355 8.325-2.9c2.081-1.539 3.389-3.606 3.2-5.85s-1.826-4.063-4.135-5.231c-2.319-1.173-5.399-1.74-8.694-1.462z" class="B E"/></g><g filter="url(#W)" class="F"><path d="M523.869 288.662l-.743-8.796-.205-2.428-.573-6.793-8.736.738.595 7.039.225 2.675.701 8.302c.204 2.413 2.325 4.203 4.737 3.999s4.202-2.324 3.999-4.736z"/></g><path d="M513.009 270.873l1.568 18.574c.229 2.719 2.621 4.737 5.34 4.508a4.94 4.94 0 0 0 4.508-5.34l-1.568-18.573-9.848.831z" class="B E"/><path d="M420.246 145.629l-91.645 50.974 41.723 32.468 27.434 63.328 26.01 27.808 18.024 1.91 83.194-43.707-1.085-12.844-36.723-24.667-27.655-67.404-39.277-27.866z" class="L"/><g filter="url(#X)" class="I"><path d="M476.935 243.681l-23.587-53.991-77.209 36.026 23.567 57.027 77.229-39.062z"/></g><use href="#e" class="H Q"/><path d="M424.31 240.953L411.701 209.2l-18.841 8.761 8.58 19.959 22.87 3.033z" class="P"/><path d="M386.227 221.005l90.441 22.699-76.955 39.039-23.568-57.026 10.082-4.712z" fill="#838c95"/><mask id="B" maskUnits="userSpaceOnUse" x="376" y="221" width="101" height="62" mask-type="alpha"><path d="M386.227 221.004l90.441 22.7-76.955 39.039-23.568-57.027 10.082-4.712z" fill="#838c95"/></mask><g mask="url(#B)" class="H Q"><path d="M460.849 253.844l-84.439-23.392m57.157 38.278l-46.278-14.394" stroke-opacity=".46"/></g><use href="#e" class="H Q"/><path d="M460.561 186.787l-1.129-13.372 27.749 67.484 9.631 6.61-7.89 4.24-7.535-4.588-4.395-3.203-23.514-53.824 7.083-3.347z" class="I"/><g filter="url(#Y)" class="I"><path d="M513.894 267.51l-32.837-20.658-77.982 39.912 29.913 25.044 9.678 1.03 71.781-38.775-.553-6.553z"/></g><path d="M480.866 246.479l-77.982 39.912-.563.289.485.405 29.912 25.044.098.082.127.013 9.679 1.031.129.014.114-.062 71.782-38.775.241-.131-.594-7.034-.177-.112-32.837-20.658-.202-.127-.212.109z" class="H O"/><path d="M397.777 292.434l-27.074-63.421-11.364-10.863-27.929 7.857 3.935 34.88 41.592 31.951 11.27 6.727 35.558 20.642-11.525-12.773-14.463-15z" class="L"/><path d="M350.205 234.64l-18.437-7.839 3.573 35.021 41.6 31.013-26.736-58.195z" class="P"/><path d="M397.736 292.139l28.811 24.633 15.254 5.358-18.032-1.923-35.559-20.641-11.27-6.727-26.736-58.195 20.004-5.913 27.528 63.408z" class="I"/><path d="M438.312 176.254l-74.657 34.99m72.333-37.523l-74.658 34.99m71.147-36.983l-74.658 34.99m71.802-37.561l-74.658 34.989m72.002-37.23l-75.822 35.792" class="H R"/><path d="M447.998 177.37l.509 6.029-5.204 1.935-.524-6.203-3.496-6.712-18.577-11.628 6.214-1.704 17.073 11.494 4.005 6.789z" class="J"/><path d="M440.218 183.132l3.089 2.203-.523-6.203-3.497-6.714-18.576-11.628.414 4.914 16.361 10.091 2.414 3.58.318 3.757z" class="F"/><path d="M409.408 196.556l.509 6.029-5.204 1.935-.524-6.203-3.618-6.382-18.247-11.835 6.006-1.827 17.073 11.494 4.005 6.789z" class="J"/><path d="M401.623 202.319l3.09 2.203-.262-6.225-3.735-6.725-18.217-11.485.391 4.631 16.002 10.264 2.414 3.58.317 3.757z" class="F"/><path d="M367.541 215.578l.509 6.028-5.204 1.936-.524-6.204-3.618-6.382-18.247-11.835 6.006-1.827 17.073 11.494 4.005 6.79z" class="J"/><path d="M359.756 221.341l3.09 2.203-.262-6.226-3.735-6.724-18.217-11.486.391 4.631 16.002 10.265 2.414 3.58.317 3.757z" class="F"/><g filter="url(#Z)"><path d="M437.925 175.832l-16.801-10.128-38.791 19.221-41.585 18.698 4.366 2.864 12.18 7.494 1.937 3.411.323 3.821 3.483 2.181 5.071-1.803 37.319-17.119 37.968-19.205-3.21-2.203-.323-3.821-1.937-3.411z" fill="#8992a1" fill-opacity=".32"/></g><path d="M443.395 185.267l5.072-1.803-.507-6.005-3.875-6.821-17.189-11.471-6.187 1.622m22.686 24.478l-3.21-2.203-.322-3.822-2.211-3.388-16.528-10.151-.415-4.914m22.686 24.478l-.507-6.006-3.602-6.844-18.577-11.628m-15.833 43.676l5.071-1.803-.507-6.005-3.875-6.821-17.189-11.47-6.186 1.622m22.686 24.477l-3.21-2.203-.323-3.822-2.21-3.387-16.528-10.152-.415-4.913m22.686 24.477l-.507-6.005-3.602-6.844-18.577-11.628m-19.154 43.406l5.071-1.803-.507-6.006-3.875-6.821-17.189-11.47-6.186 1.622m22.686 24.478l-3.21-2.204-.323-3.821-2.21-3.388-16.528-10.151-.415-4.914m22.686 24.478l-.507-6.006-3.602-6.844-18.577-11.628" class="B S"/><path d="M441.812 322.258l-18.044-2.05-46.85-27.386-41.348-30.6-3.496-34.896 18.209 7.261 19.854-5.8 27.62 63.375 28.761 24.789 15.294 5.307zm0 0l83.173-43.862-1.083-12.83-36.724-24.667-27.692-67.493m0 0l-21.685-15.238m21.685 15.238l1.151 13.626-7.194 3.356" class="E H"/><path d="M421.095 149.844l15.723-45.149-2.135-1.316-15.921 43.846-67.984 45.249-94.735 20.23-93.282-9.459-62.479-35.467-14.433-47.971-1.271 2.659 14.077 47.913 62.888 36.136 94.818 9.946 95.587-20.565 69.148-46.052z" fill="#555f71" fill-opacity=".66"/><g filter="url(#a)" class="F"><path d="M325.194 37.383c-21.575-5.083-65.399-2.757-65.399-2.757-15.694 1.178-38.119 3.217-68.605 15.162-25.15 9.855-37.095 21.448-43.06 28.563-8.662 10.284-42.369 55.705 47.943 78.74 78.973 12.618 127.302-7.292 155.447-25.042 28.808-18.167 38.991-42.776 30.049-60.124-8.643-16.766-27.946-27.844-56.375-34.541z"/></g><g filter="url(#b)"><ellipse cx="69.388" cy="68.057" rx="69.388" ry="68.057" transform="matrix(.820891 -.571085 .90502 .42537 141.945 103.666)" fill="#93b2bf"/></g><path d="M135.744 103.822l-.073.554 1.108.146.073-.554-.554-.073-.554-.073zm28.362-35.266l-.319-.459.319.459zm96.748-29.614l-.047-.557.047.557zm122.955 42.864a.56.56 0 0 0 .737.287.56.56 0 0 0 .287-.737l-.512.225-.512.225zm-247.511 22.09l.554.073c.281-2.129 1.274-4.786 2.851-7.746 1.572-2.952 3.707-6.173 6.238-9.42 5.062-6.497 11.681-13.066 18.484-17.787l-.319-.459-.319-.459c-6.91 4.795-13.608 11.448-18.728 18.018-2.561 3.286-4.734 6.561-6.343 9.581-1.604 3.013-2.666 5.807-2.972 8.126l.554.073zm27.808-35.339l.319.459c17.049-11.831 47.15-25.354 96.476-29.517l-.047-.557-.047-.557c-49.493 4.177-79.788 17.755-97.02 29.712l.319.459zm96.748-29.614l.047.557c26.026-2.196 52.736-.813 74.957 5.732s39.879 18.229 47.951 36.575l.512-.225.512-.225c-8.258-18.766-26.268-30.602-48.659-37.197s-49.254-7.977-75.367-5.774l.047.557z" fill="#1b282f"/><g class="B E"><path d="M257.222 44.761c21.434-1.931 43.157.897 60.099 8.907 17.628 8.334 27.118 20.662 27.315 33.422l.001.038.006.039c1.999 12.905-5.683 26.914-22.395 38.596-15.665 10.95-36.748 17.634-58.18 19.565s-43.157-.897-60.098-8.907c-17.63-8.336-27.373-20.425-27.579-33.169v-.04l-.007-.039c-2.083-12.946 5.871-27.112 22.658-38.847 15.665-10.951 36.748-17.635 58.18-19.566z"/><path d="M261.362 20.575l73.826 3.095.09.003.085.032 66.72 25.254.154.058.097.132 35.157 47.454.178.241-.101.282-18.347 50.563-.063.173-.153.102-67.569 44.95-.088.059-.104.022-95.332 20.456-.087.019-.087-.009-93.376-9.54-.107-.01-.095-.05c-10.183-5.307-25.741-14.119-38.746-21.6l-16.615-9.627-5.02-2.935-1.364-.8-.354-.208-.091-.053-.023-.014-.007-.004-.186-.11-.064-.205.534-.167-.534.166-.001-.002-.01-.032-.032-.101-.123-.394-.467-1.499-1.663-5.36-5.023-16.35-4.962-16.591-1.588-5.668c-.186-.707-.329-1.288-.421-1.714-.046-.213-.081-.396-.102-.541a2.32 2.32 0 0 1-.022-.209.87.87 0 0 1 .022-.263l.037-.107a2.04 2.04 0 0 1 .037-.083 4.06 4.06 0 0 1 .092-.177c.071-.129.169-.294.289-.492a78.41 78.41 0 0 1 1.005-1.598l3.497-5.317 10.733-15.837 11.462-16.413c3.357-4.695 6.026-8.274 7.117-9.391.256-.263.734-.617 1.353-1.033.634-.426 1.459-.943 2.442-1.538 1.967-1.19 4.588-2.699 7.634-4.409l21.59-11.782 20.952-11.131 6.83-3.59 1.906-.999.502-.263.129-.067c.014-.007.024-.014.031-.017l.011-.005c0 0 .001-.001.26.494l-.259-.496.074-.039.081-.015 78.132-14.692.062-.012.064.002zm-1.517 14.823c-15.669 1.177-38.03 3.211-68.439 15.099-25.059 9.797-36.932 21.304-42.842 28.333v.001c-2.152 2.548-5.852 7.263-8.792 13.252s-5.103 13.224-4.232 20.819c1.734 15.109 15.557 32.069 60.63 43.529 78.811 12.534 127.001-7.293 155.043-24.933 14.339-9.019 24.005-19.613 28.98-30.059s5.255-20.714.883-29.176c-8.524-16.496-27.62-27.484-55.997-34.145-10.718-2.515-27.009-3.2-40.663-3.251-6.818-.025-12.964.107-17.405.246l-5.253.194-1.425.065-.369.018-.094.005c-.011.001-.019.002-.024.002l-.001-.001z" class="F"/></g><mask id="C" maskUnits="userSpaceOnUse" x="85" y="21" width="353" height="192" mask-type="alpha"><path d="M162.418 203.365l93.377 9.539 95.332-20.456 67.569-44.951 18.346-50.562-35.157-47.453-66.721-25.253-73.825-3.095-78.131 14.692s-59.872 31.277-63.241 34.73c-4.211 4.315-33.793 47.907-34.127 49.167s14.383 48.415 14.383 48.415 41.853 24.626 62.195 35.228zm162.789-165.79c-21.574-5.063-65.398-2.734-65.398-2.734-15.694 1.178-38.119 3.217-68.607 15.136-25.151 9.833-37.099 21.398-43.066 28.494-8.664 10.257-42.38 55.56 47.924 78.511 78.969 12.563 127.301-7.303 155.45-25.009 28.812-18.124 39-42.668 30.062-59.965-8.638-16.718-27.938-27.76-56.365-34.432z" class="F T"/></mask><g mask="url(#C)"><path d="M160.733 182.123l93.376 9.539 95.332-20.456 67.569-44.951 18.346-50.562-35.157-47.453-66.72-25.253L261.525.174l-80.003 14.41s-59.871 31.277-63.24 34.73C114.07 53.629 84.488 97.22 84.155 98.48s14.678 49.007 14.678 49.007l61.901 34.636z" class="J T"/><path d="M88.805 114.501c.037.437 6.834 22.334 10.228 33.228l61.736 34.377 93.446 9.43 94.802-20.1 67.975-44.779 14.064-38.577" class="B E"/></g><g class="B O"><path d="M257.848 88.13l-.83 53.747.221 2.622-1.803 16.167-1.233 31.254 1.562 21.206m2.258-125.011l48.885 42.247.258 3.058 15.299 13.403 26.656 24.94 1.793 21.234M257.191 87.656l81.415 17.941.848 2.745 30.214 8.712 47.181 9.568 1.802 21.34M257.34 87.38l77.249-21.671 1.457.977 28.215-9.452 1.337-2.929 36.314-5.277m-144.56 38.528l86.897-2.585.531 3.795 39.862-2.717 46.726 2.555 6.197 8.274"/><path d="M256.939 87.854l47.077-39.083 2.076.087 13.374-8.345-.346-4.107 16.059-12.535"/><path d="M258.019 87.06l1.577-42.811 1.669-5.245-.346-4.107.322-14.132m-3.339 67.01l-47.811 47.595.192 2.271-19.714 17.68-3.242-.87-26.636 27.415 1.624 21.83m95.487-116.091l-73.599 30.852.184 2.185-37.559 13.73-2.784-2.757-45.012 16.115.91 20.542m157.75-80.921l-80.868 8.324-.55 3.918-39.826 4.594-.977-1.149-46.742 12.306-3.604 4.419m172.537-32.762l-70.661-12.513-1.854 2.004-24.727-5.216-2.661-2.327-38.009 1.097m138.246 16.751L216.55 54.78l-1.79.381-10.667-5.435-.998-4.532L183 35.138"/></g><path d="M229.453 167.967c-1.696-.684-2.672-.571-3.196-.292l-10.649 6.402 7.09 9.835 10.785-6.644.322-.195c.439-.455.548-1.471.325-3.047-.218-1.542-.644-2.773-1.277-3.692-.602-.907-1.736-1.696-3.4-2.367z" class="K"/><path d="M215.059 177.379c-.218-1.542.048-2.999.544-3.302s1.233-.155 2.929.528c1.665.672 2.798 1.46 3.4 2.367.634.92 1.06 2.15 1.278 3.693.222 1.576-.021 2.944-.517 3.246s-1.259.117-2.924-.554-2.809-1.433-3.433-2.285c-.628-.886-1.054-2.117-1.277-3.693z" fill="#fff"/><g class="B M"><path d="M215.734 174.054c.498-.042 1.212.098 3.071.743 2.325.807 3.467 2.465 3.8 3.44s.75 2.945.463 5.476"/><path d="M226.226 167.654l-9.406 5.625c-.865.517-1.574 1.296-1.774 2.284-.076.376-.121.754-.095 1.065.084.996.459 2.468.792 3.443s1.434 2.135 3.779 3.19l1.419.56c1.054.339 2.141-.119 3.082-.704l8.506-5.294c.823-.512 1.579-1.228 1.695-2.19.095-.783-.036-1.633-.296-2.863-.417-1.97-2.058-3.587-4.154-4.664s-3.071-.743-3.548-.452z"/></g><path d="M108.233 131.761l1.951 14.031 6.65-2.211-.761-9.008-7.84-2.812zm8.811-24.762l-5.366-2.12-12.05 7.065 7.966 3.177 1.745 14.149 11.107 4.56.78 5.983 1.135 10.626 5.644 1.723 9.989-5.418-1.451-17.198-1.541-14.991-7.426-3.157-9.674 5.766-.858-10.165z" class="N"/><path d="M117.778 107.868l-10.988 6.443 1.612 13.15 11.393 4.302-3.396-13.5 2.135-1.434-.756-8.961z" class="K"/><g fill="#fff"><path d="M110.964 145.544l-7.263-2.897-4.141-31.236 7.263 2.897 1.64 12.87.796 5.633 1.705 12.733zm5.426-27.281l7.252 2.647 3.946 31.503-6.745-2.69-1.831-12.981-.797-5.633-1.825-12.846z"/><path d="M119.012 136.742l-.797-5.633-9.752-3.931.796 5.633 9.753 3.931z"/></g><path d="M135.353 114.155l-11.713 6.754 3.934 31.755 11.506-6.235-3.727-32.274z" class="K"/><path d="M99.529 111.414l10.987-6.443 7.243 2.648m-18.23 3.795l4.141 31.236 7.264 2.896m-11.405-34.132l7.255 2.897m10.975-6.692l.777 9.209m-.777-9.209l-10.975 6.692m11.752 2.517l8.823-5.257 7.761 2.854m-16.584 2.403l-2.144 1.435 1.84 12.88-9.858-3.931-1.59-12.901m28.336.114l3.694 31.776-11.257 6.214m7.563-37.99l-11.485 6.485 3.922 31.505m0 0l-6.745-2.689-1.59-12.901-3.113-1.242m0 0l.672 7.965-5.847 1.998m5.175-9.963l-6.754-2.688 1.579 12.651" class="B M"/><path d="M163.054 127.109l-7.762-2.855-6.177 4.032-3.659-7.713-7.264-2.896-10.945 6.94 20.204 37.401 10.489-6.401-.882-10.454 5.996-18.054z" class="N"/><path d="M145.416 120.576l-10.718 6.67 6.572 15.489 3.286-11.558 4.54-2.639-3.68-7.962z" class="K"/><path d="M144.554 131.175l7.264 2.897-5.25 17.489.882 10.454-7.065-2.699-1.479-10.462-11.659-24.239 7.45 2.63 6.593 15.218 1.125-4.147 2.139-7.141z" fill="#fff"/><path d="M163.013 127.114l-11.194 6.961-5.292 17.493.883 10.454 10.489-6.4-.882-10.455 5.996-18.053z" class="K"/><path d="M127.2 124.62l10.945-6.94 7.264 2.896M127.2 124.62l11.829 24.32 1.381 10.412 6.994 2.668m-20.204-37.4l7.491 2.626m10.718-6.67l3.659 7.713m-3.659-7.713l-10.718 6.67m14.377 1.043l6.177-4.031 7.762 2.854m-13.939 1.177l-4.519 2.888m18.458-4.065l-5.997 18.054.883 10.454-10.489 6.4m15.603-34.908l-11.195 6.961m-4.408 27.947l-.883-10.454 5.291-17.493m-7.263-2.896l7.263 2.896m-7.263-2.896l-3.307 11.309-6.551-15.24" class="B M"/><path d="M168.753 129.828c1.445-.05 3.423.431 5.936 1.444l5.225 2.391 4.975 2.629.468 5.545-5.961 3.784c1.972 1.024 3.614 2.089 4.925 3.194 1.607 1.312 2.837 2.788 3.691 4.429.881 1.62 1.477 3.536 1.79 5.749.337 2.381.217 4.151-.36 5.31-.183.366-.418.674-.707.922a2.85 2.85 0 0 1-.753.465L177.626 172l-19.886-12.86 6.39-3.472-5.352-4.696-1.934-14.318 10.064-6.206c.487-.419 1.051-.585 1.845-.62z" class="N"/><path d="M169.367 145.876l-7.555-3.373 1.15 7.674 4.42 1.883 9.178 7.749 2.435 8.066-.908 4.088 3.089-2.015 6.903-4.343 1.388-1.371.537-2.552-.336-3.983-1.686-5.122-3.572-3.709-5.045-3.334-9.998.342z" fill="#5890aa" fill-opacity=".56"/><path d="M157.742 159.141l4.663 3.023c1.666.893 3.285 1.657 4.855 2.29l2.16.823 1.937.737-.504-5.974-4.364-2.3c-1.971-.953-3.644-1.897-5.02-2.831s-2.507-1.911-3.392-2.932-1.578-2.154-2.079-3.4c-.471-1.233-.822-2.671-1.054-4.314-.365-2.582-.327-4.511.115-5.787s1.368-1.947 2.781-2.01c1.444-.05 3.423.432 5.935 1.444l5.225 2.391c1.725.885 3.194 1.847 4.946 2.933l.463 5.476c-1.578-.87-3.205-1.512-4.48-2.153l-3.986-1.796-2.207-.843-1.762-.52.867 6.136 4.384 2.099c2.542 1.214 4.602 2.488 6.183 3.821 1.607 1.311 2.837 2.788 3.691 4.428.881 1.62 1.477 3.537 1.79 5.75.337 2.38.216 4.15-.36 5.309s-1.682 1.725-3.314 1.699c-1.602-.013-3.8-.583-6.595-1.709l-5.656-2.613c-1.824-.956-3.412-1.928-5.216-3.161l-.006-6.016z" fill="#fff"/><path d="M184.848 136.295l-10.945 6.941.462 5.476 4.498-3.138 6.426-4.052-.441-5.227z" class="K"/><path d="M184.843 136.294l.462 5.477-5.949 3.76m5.487-9.237c-.353-.22-2.209-1.217-6.808-3.435-5.749-2.774-6.247-2.732-8.259-2.813s-2.966.501-3.443.792l-9.536 5.819m28.046-.363l-10.945 6.941m5.458 2.296c1.487.794 5.073 3.082 7.515 5.883s3.072 7.679 3.081 9.768c.091 1.078-.253 3.531-2.36 4.711s-7.386 4.551-9.763 6.089m1.527-26.451l-4.996 3.18m3.469 23.271c-.643.305-2.489.811-4.73.399-2.801-.516-10.334-3.64-15.4-7.223a254.77 254.77 0 0 0-.006-6.016m20.136 12.84c2.3-2.451 1.442-5.685.509-8.817-1.749-5.868-4.676-7.877-7.582-9.637-2.325-1.408-6.213-3.32-7.867-4.099l-.753-5.953c.614.149 4.226 1.565 5.956 2.255 1.245.496 4.697 2.194 6.268 2.98m-16.667 10.431l5.515-2.972m-5.515 2.972c2.841 2.768 10.261 5.735 13.616 6.873l-.505-5.974c-.631-.348-5.327-2.726-7.596-3.871m0 0c-1.308-.642-4.272-2.497-5.669-4.786-1.745-2.861-2.723-5.536-2.769-9.041s.825-5.083 2.027-5.686m0 0c5.991-.306 13.896 4.258 17.101 6.578m.462 5.476l-.462-5.476" class="B M"/><path d="M212.32 146.511l-21.748-8.191-11.03 5.945 7.576 3.621 3.913 31.506 6.766 2.938 10.447-6.898-1.555-18.419 6.178-4.031-.547-6.471z" class="N"/><path d="M212.279 146.515l-10.781 5.924.589 6.969 10.738-6.421-.546-6.472z" class="K"/><path d="M206.358 156.553l-10.995.412 2.387 25.368 10.21-6.814-1.602-18.966z" fill="#5890aa" fill-opacity=".48"/><path d="M195.381 157.213l2.413 25.115-6.766-2.939-3.346-25.535-7.163-2.905-.98-6.687 21.957 8.173.588 6.971-6.703-2.193z" fill="#fff"/><g class="B M"><path d="M179.5 144.267l21.998 8.17m0 0l.588 6.97m-.588-6.97l10.78-5.923m-10.192 12.893l-6.703-2.192 2.372 25.119m4.331-22.927l4.54-2.64"/><path d="M190.528 138.323l-11.03 5.945 1.066 6.679 7.014 2.917 3.409 25.532 6.766 2.938 10.448-6.898-1.577-18.668 6.199-3.782-.547-6.472-21.748-8.191z"/></g><defs><filter id="D" x="258.242" y="280.892" width="33.512" height="24.7" filterUnits="userSpaceOnUse" class="C"><feFlood result="A" class="D"/><feColorMatrix in="SourceAlpha" values="0 0 0 0 0 0 0 0 0 0 0 0 0 0 0 0 0 0 127 0" result="B"/><feOffset dy="4"/><feGaussianBlur stdDeviation="2"/><feComposite in2="B" operator="out"/><feColorMatrix values="0 0 0 0 0 0 0 0 0 0 0 0 0 0 0 0 0 0 0.25 0"/><feBlend in2="A"/><feBlend in="SourceGraphic"/></filter><filter id="E" x="267.125" y="259.211" width="15.459" height="32.739" filterUnits="userSpaceOnUse" class="C"><feFlood class="D"/><feBlend in="SourceGraphic" result="B"/><feColorMatrix in="SourceAlpha" values="0 0 0 0 0 0 0 0 0 0 0 0 0 0 0 0 0 0 127 0" result="C"/><feOffset dx="5.03055" dy="-2.79475"/><feGaussianBlur stdDeviation="1.118"/><feComposite in2="C" operator="arithmetic" k2="-1" k3="1"/><feColorMatrix values="0 0 0 0 0 0 0 0 0 0 0 0 0 0 0 0 0 0 0.25 0"/><feBlend in2="B"/></filter><filter id="F" x="148.234" y="250.77" width="15.459" height="32.739" filterUnits="userSpaceOnUse" class="C"><feFlood class="D"/><feBlend in="SourceGraphic" result="B"/><feColorMatrix in="SourceAlpha" values="0 0 0 0 0 0 0 0 0 0 0 0 0 0 0 0 0 0 127 0" result="C"/><feOffset dx="5.5895" dy="-3.3537"/><feGaussianBlur stdDeviation="1.118"/><feComposite in2="C" operator="arithmetic" k2="-1" k3="1"/><feColorMatrix values="0 0 0 0 0 0 0 0 0 0 0 0 0 0 0 0 0 0 0.25 0"/><feBlend in2="B"/></filter><filter id="G" x="87.715" y="205.192" width="15.459" height="32.739" filterUnits="userSpaceOnUse" class="C"><feFlood class="D"/><feBlend in="SourceGraphic" result="B"/><feColorMatrix in="SourceAlpha" values="0 0 0 0 0 0 0 0 0 0 0 0 0 0 0 0 0 0 127 0" result="C"/><feOffset dx="6.14845" dy="-3.3537"/><feGaussianBlur stdDeviation="1.118"/><feComposite in2="C" operator="arithmetic" k2="-1" k3="1"/><feColorMatrix values="0 0 0 0 0 0 0 0 0 0 0 0 0 0 0 0 0 0 0.25 0"/><feBlend in2="B"/></filter><filter id="H" x="74.023" y="162.625" width="15.459" height="32.739" filterUnits="userSpaceOnUse" class="C"><feFlood class="D"/><feBlend in="SourceGraphic" result="B"/><feColorMatrix in="SourceAlpha" values="0 0 0 0 0 0 0 0 0 0 0 0 0 0 0 0 0 0 127 0" result="C"/><feOffset dx="4.4716" dy="2.2358"/><feGaussianBlur stdDeviation="1.118"/><feComposite in2="C" operator="arithmetic" k2="-1" k3="1"/><feColorMatrix values="0 0 0 0 0 0 0 0 0 0 0 0 0 0 0 0 0 0 0.25 0"/><feBlend in2="B"/></filter><filter id="I" x="356.875" y="236.922" width="15.738" height="33.018" filterUnits="userSpaceOnUse" class="C"><feFlood class="D"/><feBlend in="SourceGraphic" result="B"/><feColorMatrix in="SourceAlpha" values="0 0 0 0 0 0 0 0 0 0 0 0 0 0 0 0 0 0 127 0" result="C"/><feOffset dx="5.03055" dy="-3.3537"/><feGaussianBlur stdDeviation="1.258"/><feComposite in2="C" operator="arithmetic" k2="-1" k3="1"/><feColorMatrix values="0 0 0 0 0 0 0 0 0 0 0 0 0 0 0 0 0 0 0.25 0"/><feBlend in2="B"/></filter><filter id="J" x="431.227" y="184.116" width="16.297" height="32.739" filterUnits="userSpaceOnUse" class="C"><feFlood class="D"/><feBlend in="SourceGraphic" result="B"/><feColorMatrix in="SourceAlpha" values="0 0 0 0 0 0 0 0 0 0 0 0 0 0 0 0 0 0 127 0" result="C"/><feOffset dx="5.03055" dy="-2.2358"/><feGaussianBlur stdDeviation="1.537"/><feComposite in2="C" operator="arithmetic" k2="-1" k3="1"/><feColorMatrix values="0 0 0 0 0 0 0 0 0 0 0 0 0 0 0 0 0 0 0.25 0"/><feBlend in2="B"/></filter><filter id="K" x="442.145" y="137.557" width="15.459" height="32.739" filterUnits="userSpaceOnUse" class="C"><feFlood class="D"/><feBlend in="SourceGraphic" result="B"/><feColorMatrix in="SourceAlpha" values="0 0 0 0 0 0 0 0 0 0 0 0 0 0 0 0 0 0 127 0" result="C"/><feOffset dx="7.82529" dy="-2.2358"/><feGaussianBlur stdDeviation="1.118"/><feComposite in2="C" operator="arithmetic" k2="-1" k3="1"/><feColorMatrix values="0 0 0 0 0 0 0 0 0 0 0 0 0 0 0 0 0 0 0.25 0"/><feBlend in2="B"/></filter><filter id="L" x="72.555" y="101.672" width="381.574" height="177.289" filterUnits="userSpaceOnUse" class="C"><feFlood class="D"/><feBlend in="SourceGraphic" result="B"/><feColorMatrix in="SourceAlpha" values="0 0 0 0 0 0 0 0 0 0 0 0 0 0 0 0 0 0 127 0" result="C"/><feOffset dy="-36.854"/><feComposite in2="C" operator="arithmetic" k2="-1" k3="1"/><feColorMatrix values="0 0 0 0 0.721569 0 0 0 0 0.745098 0 0 0 0 0.768627 0 0 0 1 0"/><feBlend in2="B"/></filter><filter id="M" x="105.32" y="351.88" width="33.512" height="24.7" filterUnits="userSpaceOnUse" class="C"><feFlood result="A" class="D"/><feColorMatrix in="SourceAlpha" values="0 0 0 0 0 0 0 0 0 0 0 0 0 0 0 0 0 0 127 0" result="B"/><feOffset dy="4"/><feGaussianBlur stdDeviation="2"/><feComposite in2="B" operator="out"/><feColorMatrix values="0 0 0 0 0 0 0 0 0 0 0 0 0 0 0 0 0 0 0.25 0"/><feBlend in2="A"/><feBlend in="SourceGraphic"/></filter><filter id="N" x="114.203" y="330.199" width="15.459" height="32.739" filterUnits="userSpaceOnUse" class="C"><feFlood class="D"/><feBlend in="SourceGraphic" result="B"/><feColorMatrix in="SourceAlpha" values="0 0 0 0 0 0 0 0 0 0 0 0 0 0 0 0 0 0 127 0" result="C"/><feOffset dx="4.4716" dy="-3.3537"/><feGaussianBlur stdDeviation="1.118"/><feComposite in2="C" operator="arithmetic" k2="-1" k3="1"/><feColorMatrix values="0 0 0 0 0 0 0 0 0 0 0 0 0 0 0 0 0 0 0.25 0"/><feBlend in2="B"/></filter><filter id="O" x="19.527" y="325.583" width="33.512" height="24.7" filterUnits="userSpaceOnUse" class="C"><feFlood result="A" class="D"/><feColorMatrix in="SourceAlpha" values="0 0 0 0 0 0 0 0 0 0 0 0 0 0 0 0 0 0 127 0" result="B"/><feOffset dy="4"/><feGaussianBlur stdDeviation="2"/><feComposite in2="B" operator="out"/><feColorMatrix values="0 0 0 0 0 0 0 0 0 0 0 0 0 0 0 0 0 0 0.25 0"/><feBlend in2="A"/><feBlend in="SourceGraphic"/></filter><filter id="P" x="28.801" y="309.383" width="14.834" height="27.331" filterUnits="userSpaceOnUse" class="C"><feFlood class="D"/><feBlend in="SourceGraphic" result="B"/><feColorMatrix in="SourceAlpha" values="0 0 0 0 0 0 0 0 0 0 0 0 0 0 0 0 0 0 127 0" result="C"/><feOffset dx="5.5895" dy="-3.3537"/><feGaussianBlur stdDeviation="1.118"/><feComposite in2="C" operator="arithmetic" k2="-1" k3="1"/><feColorMatrix values="0 0 0 0 0 0 0 0 0 0 0 0 0 0 0 0 0 0 0.25 0"/><feBlend in2="B"/></filter><filter id="Q" x="70.574" y="222.618" width="96.059" height="82.487" filterUnits="userSpaceOnUse" class="C"><feFlood class="D"/><feBlend in="SourceGraphic" result="B"/><feColorMatrix in="SourceAlpha" values="0 0 0 0 0 0 0 0 0 0 0 0 0 0 0 0 0 0 127 0" result="C"/><feOffset dx="3.91265" dy="7.26634"/><feComposite in2="C" operator="arithmetic" k2="-1" k3="1"/><feColorMatrix values="0 0 0 0 0 0 0 0 0 0 0 0 0 0 0 0 0 0 0.25 0"/><feBlend in2="B"/></filter><filter id="R" x="37.273" y="282.215" width="114.809" height="60.436" filterUnits="userSpaceOnUse" class="C"><feFlood class="D"/><feBlend in="SourceGraphic" result="B"/><feColorMatrix in="SourceAlpha" values="0 0 0 0 0 0 0 0 0 0 0 0 0 0 0 0 0 0 127 0" result="C"/><feOffset dy="-2.79475"/><feComposite in2="C" operator="arithmetic" k2="-1" k3="1"/><feColorMatrix values="0 0 0 0 0.623529 0 0 0 0 0.654902 0 0 0 0 0.686275 0 0 0 1 0"/><feBlend in2="B"/></filter><filter id="S" x="90.789" y="194.129" width="104.949" height="47.633" filterUnits="userSpaceOnUse" class="C"><feFlood class="D"/><feBlend in="SourceGraphic" result="B"/><feColorMatrix in="SourceAlpha" values="0 0 0 0 0 0 0 0 0 0 0 0 0 0 0 0 0 0 127 0" result="C"/><feOffset dx="-8.94319" dy="-12.8558"/><feComposite in2="C" operator="arithmetic" k2="-1" k3="1"/><feColorMatrix values="0 0 0 0 0 0 0 0 0 0 0 0 0 0 0 0 0 0 0.07 0"/><feBlend in2="B"/></filter><filter id="T" x="422.977" y="323.711" width="33.508" height="24.7" filterUnits="userSpaceOnUse" class="C"><feFlood result="A" class="D"/><feColorMatrix in="SourceAlpha" values="0 0 0 0 0 0 0 0 0 0 0 0 0 0 0 0 0 0 127 0" result="B"/><feOffset dy="4"/><feGaussianBlur stdDeviation="2"/><feComposite in2="B" operator="out"/><feColorMatrix values="0 0 0 0 0 0 0 0 0 0 0 0 0 0 0 0 0 0 0.25 0"/><feBlend in2="A"/><feBlend in="SourceGraphic"/></filter><filter id="U" x="431.852" y="302.03" width="15.462" height="32.739" filterUnits="userSpaceOnUse" class="C"><feFlood class="D"/><feBlend in="SourceGraphic" result="B"/><feColorMatrix in="SourceAlpha" values="0 0 0 0 0 0 0 0 0 0 0 0 0 0 0 0 0 0 127 0" result="C"/><feOffset dx="4.4716" dy="-3.3537"/><feGaussianBlur stdDeviation="1.118"/><feComposite in2="C" operator="arithmetic" k2="-1" k3="1"/><feColorMatrix values="0 0 0 0 0 0 0 0 0 0 0 0 0 0 0 0 0 0 0.25 0"/><feBlend in2="B"/></filter><filter id="V" x="503.371" y="283.382" width="33.508" height="24.7" filterUnits="userSpaceOnUse" class="C"><feFlood result="A" class="D"/><feColorMatrix in="SourceAlpha" values="0 0 0 0 0 0 0 0 0 0 0 0 0 0 0 0 0 0 127 0" result="B"/><feOffset dy="4"/><feGaussianBlur stdDeviation="2"/><feComposite in2="B" operator="out"/><feColorMatrix values="0 0 0 0 0 0 0 0 0 0 0 0 0 0 0 0 0 0 0.25 0"/><feBlend in2="A"/><feBlend in="SourceGraphic"/></filter><filter id="W" x="512.406" y="267.201" width="14.834" height="27.331" filterUnits="userSpaceOnUse" class="C"><feFlood class="D"/><feBlend in="SourceGraphic" result="B"/><feColorMatrix in="SourceAlpha" values="0 0 0 0 0 0 0 0 0 0 0 0 0 0 0 0 0 0 127 0" result="C"/><feOffset dx="5.5895" dy="-3.3537"/><feGaussianBlur stdDeviation="1.118"/><feComposite in2="C" operator="arithmetic" k2="-1" k3="1"/><feColorMatrix values="0 0 0 0 0 0 0 0 0 0 0 0 0 0 0 0 0 0 0.25 0"/><feBlend in2="B"/></filter><filter id="X" x="376.141" y="189.69" width="100.793" height="93.053" filterUnits="userSpaceOnUse" class="C"><feFlood class="D"/><feBlend in="SourceGraphic" result="B"/><feColorMatrix in="SourceAlpha" values="0 0 0 0 0 0 0 0 0 0 0 0 0 0 0 0 0 0 127 0" result="C"/><feOffset dx="-31.8768" dy="10.992"/><feComposite in2="C" operator="arithmetic" k2="-1" k3="1"/><feColorMatrix values="0 0 0 0 0.623529 0 0 0 0 0.654902 0 0 0 0 0.686275 0 0 0 1 0"/><feBlend in2="B"/></filter><filter id="Y" x="401.566" y="245.888" width="113.762" height="67.811" filterUnits="userSpaceOnUse" class="C"><feFlood class="D"/><feBlend in="SourceGraphic" result="B"/><feColorMatrix in="SourceAlpha" values="0 0 0 0 0 0 0 0 0 0 0 0 0 0 0 0 0 0 127 0" result="C"/><feOffset dy="-2.79475"/><feComposite in2="C" operator="arithmetic" k2="-1" k3="1"/><feColorMatrix values="0 0 0 0 0.623529 0 0 0 0 0.654902 0 0 0 0 0.686275 0 0 0 1 0"/><feBlend in2="B"/></filter><filter id="Z" x="340.75" y="165.704" width="102.645" height="57.69" filterUnits="userSpaceOnUse" class="C"><feFlood class="D"/><feBlend in="SourceGraphic" result="B"/><feColorMatrix in="SourceAlpha" values="0 0 0 0 0 0 0 0 0 0 0 0 0 0 0 0 0 0 127 0" result="C"/><feOffset dx="6.7074" dy="-14.5327"/><feComposite in2="C" operator="arithmetic" k2="-1" k3="1"/><feColorMatrix values="0 0 0 0 0 0 0 0 0 0 0 0 0 0 0 0 0 0 0.07 0"/><feBlend in2="B"/></filter><filter id="a" x="134.785" y="34.095" width="249.926" height="126.969" filterUnits="userSpaceOnUse" class="C"><feFlood class="D"/><feBlend in="SourceGraphic" result="B"/><feColorMatrix in="SourceAlpha" values="0 0 0 0 0 0 0 0 0 0 0 0 0 0 0 0 0 0 127 0" result="C"/><feOffset dy="4.65148"/><feComposite in2="C" operator="arithmetic" k2="-1" k3="1"/><feColorMatrix values="0 0 0 0 0.152778 0 0 0 0 0.206533 0 0 0 0 0.229167 0 0 0 1 0"/><feBlend in2="B"/></filter><filter id="b" x="176.605" y="43.911" width="167.785" height="102.069" filterUnits="userSpaceOnUse" class="C"><feFlood result="A" class="D"/><feColorMatrix in="SourceAlpha" values="0 0 0 0 0 0 0 0 0 0 0 0 0 0 0 0 0 0 127 0" result="B"/><feOffset dy="3.91265"/><feComposite in2="B" operator="out"/><feColorMatrix values="0 0 0 0 0.208333 0 0 0 0 0.349462 0 0 0 0 0.416667 0 0 0 1 0"/><feBlend in2="A"/><feBlend in="SourceGraphic"/></filter><path id="c" d="M270.302 286.736l-1.004-11.883-.254-3.014-.712-8.432 8.912-.752.738 8.737.28 3.32.952 11.271c.207 2.461-1.619 4.625-4.08 4.832a4.47 4.47 0 0 1-4.832-4.079z"/><path id="d" d="M434.403 211.64l-1.003-11.882-.255-3.015-.711-8.431 8.912-.752.737 8.737.281 3.32.951 11.271c.208 2.461-1.619 4.624-4.08 4.832s-4.624-1.619-4.832-4.08z"/><path id="e" d="M376.847 225.992l23.141 55.992 76.236-38.56-23.153-52.998-76.224 35.566z"/></defs></svg>