<svg width="537" height="377" viewBox="0 0 537 377" fill="none" xmlns="http://www.w3.org/2000/svg">
<g filter="url(#filter0_d_142_12715)">
<path d="M286.619 288.261C286.953 292.218 282.022 295.865 275.604 296.407C269.186 296.948 263.712 294.18 263.378 290.223C263.044 286.266 267.976 282.619 274.394 282.078C280.812 281.536 286.285 284.304 286.619 288.261Z" fill="#4A5C65"/>
<path d="M274.347 281.521C277.642 281.243 280.721 281.81 283.04 282.983C285.35 284.151 286.987 285.971 287.177 288.214C287.366 290.458 286.057 292.525 283.976 294.064C281.886 295.609 278.946 296.686 275.651 296.964C272.356 297.242 269.276 296.674 266.957 295.501C264.648 294.333 263.011 292.514 262.822 290.271C262.632 288.027 263.941 285.959 266.022 284.42C268.111 282.875 271.052 281.799 274.347 281.521Z" stroke="#1B282F" stroke-width="1.1179"/>
</g>
<g filter="url(#filter1_i_142_12715)">
<path d="M270.302 286.736L269.298 274.853L269.044 271.839L268.332 263.407L277.244 262.655L277.982 271.392L278.262 274.712L279.214 285.983C279.421 288.444 277.595 290.608 275.134 290.815C272.673 291.023 270.509 289.197 270.302 286.736Z" fill="#5F747E"/>
</g>
<path d="M277.754 262.051L279.771 285.936C280.005 288.704 277.949 291.139 275.181 291.372C272.412 291.606 269.979 289.551 269.745 286.782L267.728 262.897L277.754 262.051Z" stroke="#1B282F" stroke-width="1.1179"/>
<path d="M155.46 273.081C158.755 272.803 161.835 273.371 164.153 274.543C166.463 275.712 168.1 277.531 168.29 279.774C168.479 282.018 167.17 284.085 165.089 285.624C163 287.169 160.059 288.246 156.764 288.524C153.469 288.802 150.389 288.234 148.07 287.061C145.761 285.893 144.125 284.074 143.935 281.831C143.746 279.587 145.054 277.519 147.135 275.98C149.224 274.435 152.165 273.359 155.46 273.081Z" fill="#4A5C65" stroke="#1B282F" stroke-width="1.1179"/>
<g filter="url(#filter2_i_142_12715)">
<path d="M151.411 278.294L150.408 266.412L150.153 263.397L149.441 254.966L158.353 254.213L159.091 262.951L159.371 266.271L160.323 277.542C160.531 280.003 158.704 282.166 156.243 282.374C153.782 282.582 151.619 280.755 151.411 278.294Z" fill="#5F747E"/>
</g>
<path d="M158.864 253.61L160.88 277.494C161.114 280.263 159.059 282.697 156.29 282.931C153.522 283.165 151.088 281.109 150.854 278.341L148.838 254.456L158.864 253.61Z" stroke="#1B282F" stroke-width="1.1179"/>
<path d="M94.9371 227.504C98.232 227.226 101.311 227.793 103.63 228.966C105.94 230.134 107.577 231.954 107.766 234.197C107.956 236.44 106.646 238.508 104.565 240.047C102.476 241.592 99.5359 242.669 96.2409 242.947C92.9457 243.225 89.8658 242.656 87.5469 241.484C85.2376 240.315 83.6012 238.497 83.4116 236.253C83.2222 234.01 84.5304 231.942 86.6114 230.403C88.7008 228.858 91.6418 227.782 94.9371 227.504Z" fill="#4A5C65" stroke="#1B282F" stroke-width="1.1179"/>
<g filter="url(#filter3_i_142_12715)">
<path d="M90.8914 232.717L89.8882 220.834L89.6337 217.82L88.9219 209.389L97.8339 208.636L98.5715 217.374L98.8519 220.694L99.8034 231.965C100.011 234.426 98.1846 236.589 95.7237 236.797C93.2627 237.005 91.0992 235.178 90.8914 232.717Z" fill="#5F747E"/>
</g>
<path d="M98.3441 208.033L100.361 231.917C100.594 234.686 98.5391 237.12 95.7705 237.354C93.002 237.588 90.5685 235.532 90.3348 232.764L88.3183 208.879L98.3441 208.033Z" stroke="#1B282F" stroke-width="1.1179"/>
<path d="M81.2496 182.701C84.5445 182.423 87.6237 182.991 89.9425 184.164C92.252 185.332 93.8894 187.151 94.0788 189.395C94.2681 191.638 92.9589 193.706 90.878 195.244C88.7886 196.789 85.8484 197.866 82.5534 198.145C79.2582 198.423 76.1783 197.854 73.8594 196.681C71.5501 195.513 69.9137 193.694 69.7241 191.451C69.5347 189.208 70.8429 187.139 72.9239 185.601C75.0133 184.056 77.9543 182.98 81.2496 182.701Z" fill="#4A5C65" stroke="#1B282F" stroke-width="1.1179"/>
<g filter="url(#filter4_i_142_12715)">
<path d="M77.2 187.914L76.1968 176.031L75.9423 173.017L75.2305 164.585L84.1425 163.833L84.8801 172.57L85.1604 175.89L86.112 187.161C86.3198 189.622 84.4932 191.786 82.0322 191.993C79.5713 192.201 77.4078 190.375 77.2 187.914Z" fill="#5F747E"/>
</g>
<path d="M84.6527 163.229L86.6693 187.114C86.903 189.882 84.8477 192.317 82.0791 192.55C79.3106 192.784 76.8771 190.729 76.6434 187.96L74.6269 164.075L84.6527 163.229Z" stroke="#1B282F" stroke-width="1.1179"/>
<path d="M364.097 259.513C367.392 259.235 370.471 259.803 372.79 260.976C375.1 262.144 376.737 263.963 376.927 266.207C377.116 268.45 375.807 270.517 373.726 272.056C371.636 273.601 368.696 274.678 365.401 274.956C362.106 275.234 359.026 274.666 356.707 273.493C354.398 272.325 352.761 270.506 352.572 268.263C352.382 266.019 353.691 263.951 355.772 262.412C357.861 260.867 360.802 259.791 364.097 259.513Z" fill="#4A5C65" stroke="#1B282F" stroke-width="1.1179"/>
<g filter="url(#filter5_i_142_12715)">
<path d="M360.052 264.727L359.048 252.844L358.794 249.83L358.082 241.398L366.994 240.646L367.732 249.383L368.012 252.703L368.964 263.974C369.171 266.435 367.345 268.599 364.884 268.806C362.423 269.014 360.259 267.188 360.052 264.727Z" fill="#5F747E"/>
</g>
<path d="M367.504 240.042L369.521 263.927C369.755 266.695 367.699 269.13 364.931 269.364C362.162 269.597 359.729 267.542 359.495 264.773L357.478 240.889L367.504 240.042Z" stroke="#1B282F" stroke-width="1.1179"/>
<path d="M438.449 206.427C441.744 206.149 444.823 206.717 447.142 207.889C449.451 209.058 451.089 210.877 451.278 213.121C451.467 215.364 450.158 217.431 448.077 218.97C445.988 220.515 443.048 221.592 439.753 221.87C436.457 222.148 433.378 221.58 431.059 220.407C428.749 219.239 427.113 217.42 426.923 215.177C426.734 212.933 428.042 210.865 430.123 209.326C432.213 207.781 435.154 206.705 438.449 206.427Z" fill="#4A5C65" stroke="#1B282F" stroke-width="1.1179"/>
<g filter="url(#filter6_i_142_12715)">
<path d="M434.403 211.64L433.4 199.758L433.145 196.743L432.434 188.312L441.346 187.56L442.083 196.297L442.364 199.617L443.315 210.888C443.523 213.349 441.696 215.512 439.235 215.72C436.774 215.928 434.611 214.101 434.403 211.64Z" fill="#5F747E"/>
</g>
<path d="M441.856 186.956L443.872 210.841C444.106 213.609 442.051 216.044 439.282 216.277C436.514 216.511 434.08 214.456 433.847 211.687L431.83 187.802L441.856 186.956Z" stroke="#1B282F" stroke-width="1.1179"/>
<path d="M449.367 159.868C452.662 159.59 455.741 160.158 458.06 161.331C460.369 162.499 462.007 164.318 462.196 166.562C462.385 168.805 461.076 170.872 458.995 172.411C456.906 173.956 453.966 175.033 450.671 175.311C447.375 175.589 444.295 175.021 441.977 173.848C439.667 172.68 438.031 170.861 437.841 168.618C437.652 166.374 438.96 164.306 441.041 162.767C443.131 161.222 446.072 160.146 449.367 159.868Z" fill="#4A5C65" stroke="#1B282F" stroke-width="1.1179"/>
<g filter="url(#filter7_i_142_12715)">
<path d="M445.321 165.081L444.318 153.199L444.063 150.184L443.352 141.753L452.264 141.001L453.001 149.738L453.282 153.058L454.233 164.329C454.441 166.79 452.614 168.953 450.153 169.161C447.692 169.369 445.529 167.542 445.321 165.081Z" fill="#5F747E"/>
</g>
<path d="M452.774 140.397L454.79 164.282C455.024 167.05 452.969 169.485 450.2 169.718C447.432 169.952 444.998 167.897 444.764 165.128L442.748 141.243L452.774 140.397Z" stroke="#1B282F" stroke-width="1.1179"/>
<g filter="url(#filter8_i_142_12715)">
<path d="M350.865 192.466L255.788 212.812L162.506 203.353L100.304 168.039L85.8484 119.806L73.6862 147.12L75.5783 177.43L94.2244 222.141L154.966 267.258L274.145 277.831L363.625 255.009L437.71 201.765L452.998 151.461L450.249 118.902L443.529 109.143L434.683 103.378L418.762 147.224L350.865 192.466Z" fill="#EFF5FF"/>
</g>
<path d="M453.564 151.521L453.532 151.624L438.244 201.928L438.19 202.109L438.036 202.219L363.952 255.464L363.866 255.525L363.763 255.551L274.284 278.373L274.191 278.396L274.096 278.387L154.917 267.815L154.76 267.801L154.633 267.706L93.8907 222.59L93.7673 222.498L93.7083 222.357L75.0623 177.645L75.0266 177.559L75.0207 177.465L73.1281 147.156L73.1194 147.018L73.1755 146.893L85.3377 119.578L85.9506 118.202L86.3841 119.645L100.775 167.664L162.678 202.807L255.754 212.247L350.644 191.941L418.299 146.86L434.157 103.187L434.398 102.525L434.988 102.909L443.834 108.674L443.927 108.735L443.99 108.825L450.71 118.585L450.793 118.707L453.564 151.521Z" stroke="#3B4353" stroke-width="1.1179"/>
<path d="M73.3945 146.87L90.2506 186.96L151.84 232.622L211.143 238.175L271.436 242.432L331.986 226.933L360.834 220.2L435.738 166.314L450.383 118.34" stroke="#3B4353" stroke-width="1.1179"/>
<path d="M100.151 167.43L90.2046 186.507L93.2238 222.267" stroke="#3B4353" stroke-width="1.1179"/>
<path d="M256.062 212.877L271.154 242.343L274.197 278.377" stroke="#3B4353" stroke-width="1.1179"/>
<path d="M350.672 192.219L360.668 219.939L363.806 255.415" stroke="#3B4353" stroke-width="1.1179"/>
<path d="M417.812 146.334L435.74 166.315L438.213 202.118" stroke="#3B4353" stroke-width="1.1179"/>
<path d="M162.669 203.164L151.815 232.348L154.811 267.835" stroke="#3B4353" stroke-width="1.1179"/>
<g filter="url(#filter9_d_142_12715)">
<ellipse cx="122.077" cy="360.23" rx="11.6619" ry="7.19004" transform="rotate(-4.82591 122.077 360.23)" fill="#4A5C65"/>
<path d="M121.425 352.509C124.72 352.231 127.799 352.798 130.118 353.971C132.428 355.139 134.065 356.959 134.255 359.202C134.444 361.446 133.135 363.513 131.054 365.052C128.964 366.597 126.024 367.674 122.729 367.952C119.434 368.23 116.354 367.662 114.035 366.489C111.726 365.321 110.089 363.502 109.9 361.258C109.71 359.015 111.019 356.947 113.1 355.408C115.189 353.863 118.13 352.787 121.425 352.509Z" stroke="#1B282F" stroke-width="1.1179"/>
</g>
<g filter="url(#filter10_i_142_12715)">
<path d="M117.38 357.724L116.377 345.841L116.122 342.827L115.41 334.395L124.322 333.643L125.06 342.38L125.34 345.7L126.292 356.971C126.5 359.432 124.673 361.596 122.212 361.803C119.751 362.011 117.588 360.185 117.38 357.724Z" fill="#5F747E"/>
</g>
<path d="M124.832 333.039L126.849 356.924C127.083 359.692 125.027 362.127 122.259 362.361C119.49 362.594 117.057 360.539 116.823 357.77L114.807 333.886L124.832 333.039Z" stroke="#1B282F" stroke-width="1.1179"/>
<g filter="url(#filter11_d_142_12715)">
<ellipse cx="36.284" cy="333.933" rx="11.6619" ry="7.19004" transform="rotate(-4.82591 36.284 333.933)" fill="#4A5C65"/>
<path d="M35.6324 326.212C38.9274 325.934 42.0065 326.502 44.3253 327.674C46.6348 328.842 48.2722 330.662 48.4617 332.905C48.6509 335.149 47.3417 337.216 45.2608 338.755C43.1714 340.3 40.2312 341.377 36.9362 341.655C33.641 341.933 30.5611 341.365 28.2422 340.192C25.9329 339.024 24.2965 337.205 24.1069 334.962C23.9175 332.718 25.2257 330.65 27.3067 329.111C29.3961 327.566 32.3371 326.49 35.6324 326.212Z" stroke="#1B282F" stroke-width="1.1179"/>
</g>
<g filter="url(#filter12_i_142_12715)">
<path d="M31.5289 331.58L30.7863 322.785L30.5813 320.357L30.0078 313.564L38.7432 312.826L39.3375 319.865L39.5633 322.54L40.2643 330.843C40.4679 333.255 38.6775 335.376 36.2653 335.579C33.8531 335.783 31.7326 333.993 31.5289 331.58Z" fill="#5F747E"/>
</g>
<path d="M39.253 312.223L40.8211 330.796C41.0505 333.516 39.0316 335.906 36.3119 336.136C33.5924 336.365 31.2021 334.347 30.9723 331.628L29.4042 313.054L39.253 312.223Z" stroke="#1B282F" stroke-width="1.1179"/>
<path d="M105.264 178.796L208.929 208.058L173.24 247.061L156.812 314.093L135.833 345.868L118.384 350.773L29.04 321.632L27.9556 308.789L60.0233 278.314L75.9858 207.227L105.264 178.796Z" fill="#EFF5FF"/>
<g filter="url(#filter13_i_142_12715)">
<path d="M70.5731 279.623L84.7301 222.618L166.633 245.12L153.003 305.105L70.5731 279.623Z" fill="#2DC8FF"/>
</g>
<path d="M165.97 245.517L152.591 304.392L71.2428 279.244L85.1341 223.308L165.97 245.517Z" stroke="#004F6B" stroke-width="1.1179"/>
<mask id="mask0_142_12715" style="mask-type:alpha" maskUnits="userSpaceOnUse" x="70" y="223" width="97" height="83">
<path d="M70.5735 279.622L82.8427 223.051L166.634 245.119L153.003 305.104L70.5735 279.622Z" fill="#4E4E4E"/>
</mask>
<g mask="url(#mask0_142_12715)">
<path d="M75.2871 244.599L91.7347 249.96L100.008 239.155L148.446 254.043L149.247 267.789L162.346 271.387" stroke="#004F6B" stroke-opacity="0.58" stroke-width="1.07342"/>
<path d="M80.2219 232.209L95.0776 237.306L103.351 226.502L151.789 241.389L152.59 255.136L165.689 258.733" stroke="#004F6B" stroke-opacity="0.58" stroke-width="1.07342"/>
<path d="M71.7887 256.102L88.1696 261.911L96.4426 251.106L144.881 265.994L145.682 279.741L158.781 283.338" stroke="#004F6B" stroke-opacity="0.58" stroke-width="1.07342"/>
<path d="M68.4278 268.49L84.2284 273.888L92.5014 263.084L140.94 277.971L141.741 291.718L154.84 295.316" stroke="#004F6B" stroke-opacity="0.58" stroke-width="1.07342"/>
<path d="M65.9797 280.56L80.8355 285.657L89.1084 274.852L137.547 289.74L138.348 303.486L151.447 307.084" stroke="#004F6B" stroke-opacity="0.58" stroke-width="1.07342"/>
</g>
<path d="M77.1934 220.505L76.0644 207.134L60.0221 278.315L51.636 286.446L60.125 289.303L66.7846 283.517L70.5797 279.623L84.7367 222.618L77.1934 220.505Z" fill="#B8BEC4"/>
<g filter="url(#filter14_i_142_12715)">
<path d="M38.1439 309.029L67.0522 283.158L150.622 309.43L125.332 339.134L115.963 341.773L38.6972 315.582L38.1439 309.029Z" fill="#B8BEC4"/>
</g>
<path d="M67.1783 282.758L150.748 309.03L151.351 309.22L150.941 309.702L125.651 339.407L125.568 339.504L125.446 339.538L116.077 342.177L115.952 342.212L115.829 342.17L38.5621 315.979L38.3028 315.89L37.7088 308.856L37.8647 308.716L66.773 282.845L66.9507 282.686L67.1783 282.758Z" stroke="#3B4353" stroke-width="0.838424"/>
<path d="M156.792 314.132L172.849 247.07L182.232 234.456L211.082 237.518L213.051 272.564L177.405 311.036L167.422 319.558L135.828 345.869L145.049 331.345L156.792 314.132Z" fill="#EFF5FF"/>
<path d="M193.999 249.18L210.861 238.361L213.21 273.485L177.398 311.034L193.999 249.18Z" fill="#9FA7AF"/>
<path d="M156.785 313.835L132.511 342.949L118.372 350.789L135.826 345.87L167.421 319.559L177.403 311.038L194.004 249.183L173.292 246.708L156.785 313.835Z" fill="#B8BEC4"/>
<path d="M94.9648 207.911L174.432 229.888" stroke="#3B4353" stroke-width="0.894515"/>
<path d="M96.832 205.025L176.299 227.002" stroke="#3B4353" stroke-width="0.894515"/>
<path d="M99.9609 202.471L179.428 224.448" stroke="#3B4353" stroke-width="0.894515"/>
<path d="M102.348 199.458L181.815 221.435" stroke="#3B4353" stroke-width="0.894515"/>
<path d="M104.586 196.803L185.336 219.376" stroke="#3B4353" stroke-width="0.894515"/>
<path d="M85.5999 210.635L86.1088 216.664L91.564 217.699L91.0402 211.496L93.3615 204.293L109.726 189.714L103.315 189.077L88.4099 203.27L85.5999 210.635Z" fill="#7A919B"/>
<path d="M94.242 215.011L91.5652 217.701L91.0415 211.497L93.3626 204.292L109.727 189.714L110.142 194.628L95.7045 207.32L93.9248 211.254L94.242 215.011Z" fill="#5F747E"/>
<path d="M126.862 223.081L127.371 229.109L132.826 230.145L132.302 223.941L134.799 217.043L150.803 202.316L144.576 201.522L129.672 215.716L126.862 223.081Z" fill="#7A919B"/>
<path d="M135.504 227.456L132.827 230.145L132.041 223.964L134.597 216.709L150.63 202.332L151.058 207.12L136.966 219.765L135.187 223.699L135.504 227.456Z" fill="#5F747E"/>
<path d="M171.326 234.813L171.835 240.842L177.291 241.877L176.767 235.674L179.264 228.775L195.268 214.049L189.041 213.254L174.136 227.448L171.326 234.813Z" fill="#7A919B"/>
<path d="M179.969 239.189L177.292 241.879L176.506 235.698L179.061 228.442L195.095 214.065L195.486 218.696L181.431 231.498L179.652 235.432L179.969 239.189Z" fill="#5F747E"/>
<g filter="url(#filter15_i_142_12715)">
<path d="M94.6837 206.931L109.549 194.129L151.013 206.574L195.736 218.535L191.913 222.09L181.162 231.521L179.824 235.208L180.146 239.029L177.078 241.763L171.776 240.836L131.439 230.273L90.789 217.706L93.6911 214.712L93.0725 210.641L94.6837 206.931Z" fill="#8992A1" fill-opacity="0.32"/>
</g>
<path d="M91.464 217.65L86.1621 216.723L85.6551 210.717L88.3316 203.343L103.354 189.153L109.725 189.715M91.464 217.65L94.2593 214.939L93.9367 211.118L95.5479 207.408L110.14 194.629L109.725 189.715M91.464 217.65L90.9569 211.644L93.3605 204.293L109.725 189.715" stroke="#1B282F" stroke-width="0.55895"/>
<path d="M132.651 230.118L127.35 229.191L126.843 223.186L129.519 215.812L144.542 201.622L150.912 202.184M132.651 230.118L135.447 227.408L135.124 223.586L136.735 219.876L151.327 207.098L150.912 202.184M132.651 230.118L132.144 224.113L134.548 216.762L150.912 202.184" stroke="#1B282F" stroke-width="0.55895"/>
<path d="M177.077 241.764L171.775 240.837L171.268 234.831L173.945 227.457L188.967 213.267L195.338 213.829M177.077 241.764L179.873 239.053L179.55 235.232L181.161 231.522L195.753 218.743L195.338 213.829M177.077 241.764L176.57 235.758L178.974 228.407L195.338 213.829" stroke="#1B282F" stroke-width="0.55895"/>
<path d="M118.389 350.915L135.833 345.869L177.428 311.015L213.029 273.549L210.625 238.562L193.923 249.139L173.377 246.75L156.774 313.859L132.576 343.119L118.389 350.915ZM118.389 350.915L29.0388 321.619L27.9555 308.789L60.0232 278.314L76.0076 207.134M76.0076 207.134L94.3024 189.368M76.0076 207.134L77.16 220.783L84.7839 223.163" stroke="#3B4353" stroke-width="1.1179"/>
<g filter="url(#filter16_d_142_12715)">
<ellipse cx="11.6619" cy="7.19004" rx="11.6619" ry="7.19004" transform="matrix(-0.996455 0.0841285 0.0841285 0.996455 450.746 323.915)" fill="#4A5C65"/>
<path d="M439.078 324.34C435.783 324.618 432.843 325.694 430.754 327.239C428.673 328.778 427.363 330.846 427.553 333.09C427.742 335.333 429.38 337.152 431.689 338.32C434.008 339.492 437.087 340.061 440.382 339.783C443.677 339.505 446.618 338.428 448.708 336.883C450.789 335.344 452.097 333.277 451.908 331.033C451.718 328.79 450.082 326.97 447.772 325.802C445.453 324.629 442.374 324.062 439.078 324.34Z" stroke="#1B282F" stroke-width="1.1179"/>
</g>
<g filter="url(#filter17_i_142_12715)">
<path d="M443.942 328.802L442.939 316.92L442.685 313.905L441.973 305.474L433.061 306.226L433.798 314.964L434.079 318.284L435.03 329.555C435.238 332.016 437.401 333.842 439.862 333.635C442.323 333.427 444.15 331.263 443.942 328.802Z" fill="#5F747E"/>
</g>
<path d="M432.456 305.717L434.473 329.601C434.707 332.37 437.141 334.425 439.91 334.192C442.678 333.958 444.733 331.524 444.499 328.755L442.482 304.87L432.456 305.717Z" stroke="#1B282F" stroke-width="1.1179"/>
<g filter="url(#filter18_d_142_12715)">
<ellipse cx="11.6619" cy="7.19004" rx="11.6619" ry="7.19004" transform="matrix(-0.996455 0.0841285 0.0841285 0.996455 531.141 283.586)" fill="#4A5C65"/>
<path d="M519.473 284.011C516.178 284.289 513.238 285.365 511.148 286.91C509.067 288.449 507.758 290.517 507.947 292.76C508.137 295.004 509.774 296.823 512.084 297.991C514.403 299.163 517.482 299.732 520.777 299.454C524.072 299.176 527.013 298.099 529.102 296.554C531.183 295.015 532.491 292.948 532.302 290.704C532.113 288.461 530.476 286.641 528.167 285.473C525.848 284.3 522.768 283.733 519.473 284.011Z" stroke="#1B282F" stroke-width="1.1179"/>
</g>
<g filter="url(#filter19_i_142_12715)">
<path d="M523.869 288.662L523.126 279.866L522.921 277.438L522.348 270.645L513.612 271.383L514.207 278.422L514.432 281.097L515.133 289.399C515.337 291.812 517.458 293.602 519.87 293.398C522.282 293.195 524.072 291.074 523.869 288.662Z" fill="#5F747E"/>
</g>
<path d="M513.009 270.873L514.577 289.447C514.806 292.166 517.198 294.184 519.917 293.955C522.637 293.725 524.655 291.335 524.425 288.615L522.857 270.042L513.009 270.873Z" stroke="#1B282F" stroke-width="1.1179"/>
<path d="M420.246 145.629L328.601 196.603L370.324 229.071L397.758 292.399L423.768 320.207L441.792 322.117L524.986 278.41L523.901 265.566L487.178 240.899L459.523 173.495L420.246 145.629Z" fill="#EFF5FF"/>
<g filter="url(#filter20_i_142_12715)">
<path d="M476.935 243.681L453.348 189.69L376.139 225.716L399.706 282.743L476.935 243.681Z" fill="#B8BEC4"/>
</g>
<path d="M376.847 225.992L399.988 281.984L476.224 243.424L453.071 190.426L376.847 225.992Z" stroke="#3B4353" stroke-width="1.0992"/>
<path d="M424.31 240.953L411.701 209.2L392.86 217.961L401.44 237.92L424.31 240.953Z" fill="#9FA7AF"/>
<path d="M386.227 221.005L476.668 243.704L399.713 282.743L376.145 225.717L386.227 221.005Z" fill="#838C95"/>
<mask id="mask1_142_12715" style="mask-type:alpha" maskUnits="userSpaceOnUse" x="376" y="221" width="101" height="62">
<path d="M386.227 221.004L476.668 243.704L399.713 282.743L376.145 225.716L386.227 221.004Z" fill="#838C95"/>
</mask>
<g mask="url(#mask1_142_12715)">
<path d="M460.849 253.844L376.41 230.452" stroke="#3B4353" stroke-opacity="0.46" stroke-width="1.0992"/>
<path d="M433.567 268.73L387.289 254.336" stroke="#3B4353" stroke-opacity="0.46" stroke-width="1.0992"/>
</g>
<path d="M376.847 225.992L399.988 281.984L476.224 243.424L453.071 190.426L376.847 225.992Z" stroke="#3B4353" stroke-width="1.0992"/>
<path d="M460.561 186.787L459.432 173.415L487.181 240.899L496.812 247.509L488.922 251.749L481.387 247.161L476.992 243.958L453.478 190.134L460.561 186.787Z" fill="#B8BEC4"/>
<g filter="url(#filter21_i_142_12715)">
<path d="M513.894 267.51L481.057 246.852L403.075 286.764L432.988 311.808L442.666 312.838L514.447 274.063L513.894 267.51Z" fill="#B8BEC4"/>
</g>
<path d="M480.866 246.479L402.884 286.391L402.321 286.68L402.806 287.085L432.718 312.129L432.816 312.211L432.943 312.224L442.622 313.255L442.751 313.269L442.865 313.207L514.647 274.432L514.888 274.301L514.294 267.267L514.117 267.155L481.28 246.497L481.078 246.37L480.866 246.479Z" stroke="#3B4353" stroke-width="0.838424"/>
<path d="M397.777 292.434L370.703 229.013L359.339 218.15L331.41 226.007L335.345 260.887L376.937 292.838L388.207 299.565L423.765 320.207L412.24 307.434L397.777 292.434Z" fill="#EFF5FF"/>
<path d="M350.205 234.64L331.768 226.801L335.341 261.822L376.941 292.835L350.205 234.64Z" fill="#9FA7AF"/>
<path d="M397.736 292.139L426.547 316.772L441.801 322.13L423.769 320.207L388.21 299.566L376.94 292.839L350.204 234.644L370.208 228.731L397.736 292.139Z" fill="#B8BEC4"/>
<path d="M438.312 176.254L363.655 211.244" stroke="#3B4353" stroke-width="0.894515"/>
<path d="M435.988 173.721L361.33 208.711" stroke="#3B4353" stroke-width="0.894515"/>
<path d="M432.477 171.728L357.819 206.718" stroke="#3B4353" stroke-width="0.894515"/>
<path d="M429.621 169.157L354.963 204.146" stroke="#3B4353" stroke-width="0.894515"/>
<path d="M426.965 166.916L351.143 202.708" stroke="#3B4353" stroke-width="0.894515"/>
<path d="M447.998 177.37L448.507 183.399L443.303 185.334L442.779 179.131L439.283 172.419L420.706 160.791L426.92 159.087L443.993 170.581L447.998 177.37Z" fill="#7A919B"/>
<path d="M440.218 183.132L443.307 185.335L442.784 179.132L439.287 172.418L420.711 160.79L421.125 165.704L437.486 175.795L439.9 179.375L440.218 183.132Z" fill="#5F747E"/>
<path d="M409.408 196.556L409.917 202.585L404.713 204.52L404.189 198.317L400.571 191.935L382.324 180.1L388.33 178.273L405.403 189.767L409.408 196.556Z" fill="#7A919B"/>
<path d="M401.623 202.319L404.713 204.522L404.451 198.297L400.716 191.572L382.499 180.087L382.89 184.718L398.892 194.982L401.306 198.562L401.623 202.319Z" fill="#5F747E"/>
<path d="M367.541 215.578L368.05 221.606L362.846 223.542L362.322 217.338L358.704 210.956L340.457 199.121L346.463 197.294L363.536 208.788L367.541 215.578Z" fill="#7A919B"/>
<path d="M359.756 221.341L362.846 223.544L362.584 217.318L358.849 210.594L340.632 199.108L341.023 203.739L357.025 214.004L359.439 217.584L359.756 221.341Z" fill="#5F747E"/>
<g filter="url(#filter22_i_142_12715)">
<path d="M437.925 175.832L421.124 165.704L382.333 184.925L340.748 203.623L345.114 206.487L357.294 213.981L359.231 217.392L359.554 221.213L363.037 223.394L368.108 221.591L405.427 204.472L443.395 185.267L440.185 183.064L439.862 179.243L437.925 175.832Z" fill="#8992A1" fill-opacity="0.32"/>
</g>
<path d="M443.395 185.267L448.467 183.464L447.96 177.459L444.085 170.638L426.896 159.167L420.709 160.789M443.395 185.267L440.185 183.064L439.863 179.242L437.652 175.854L421.124 165.703L420.709 160.789M443.395 185.267L442.888 179.261L439.286 172.417L420.709 160.789" stroke="#1B282F" stroke-width="0.55895"/>
<path d="M404.876 204.465L409.947 202.662L409.44 196.657L405.565 189.836L388.376 178.366L382.19 179.988M404.876 204.465L401.666 202.262L401.343 198.44L399.133 195.053L382.605 184.901L382.19 179.988M404.876 204.465L404.369 198.46L400.767 191.616L382.19 179.988" stroke="#1B282F" stroke-width="0.55895"/>
<path d="M363.036 223.394L368.107 221.591L367.6 215.585L363.725 208.764L346.536 197.294L340.35 198.916M363.036 223.394L359.826 221.19L359.503 217.369L357.293 213.981L340.765 203.83L340.35 198.916M363.036 223.394L362.529 217.388L358.927 210.544L340.35 198.916" stroke="#1B282F" stroke-width="0.55895"/>
<path d="M441.812 322.258L423.768 320.208L376.918 292.822L335.57 262.222L332.074 227.326L350.283 234.587L370.137 228.787L397.757 292.162L426.518 316.951L441.812 322.258ZM441.812 322.258L524.985 278.396L523.902 265.566L487.178 240.899L459.486 173.406M459.486 173.406L437.801 158.168M459.486 173.406L460.637 187.032L453.443 190.388" stroke="#3B4353" stroke-width="1.1179"/>
<path d="M421.095 149.844L436.818 104.695L434.683 103.379L418.762 147.225L350.778 192.474L256.043 212.704L162.761 203.245L100.282 167.778L85.8486 119.807L84.5772 122.466L98.6539 170.379L161.542 206.515L256.36 216.461L351.947 195.896L421.095 149.844Z" fill="#555F71" fill-opacity="0.66"/>
<g filter="url(#filter23_i_142_12715)">
<path d="M325.194 37.383C303.619 32.3004 259.795 34.6258 259.795 34.6258C244.101 35.8038 221.676 37.8424 191.19 49.7878C166.04 59.6423 154.095 71.2362 148.13 78.3505C139.468 88.6342 105.761 134.055 196.073 157.09C275.046 169.708 323.375 149.798 351.52 132.048C380.328 113.881 390.511 89.2715 381.569 71.924C372.926 55.1579 353.623 44.0803 325.194 37.383Z" fill="#5F747E"/>
</g>
<g filter="url(#filter24_d_142_12715)">
<ellipse cx="69.3877" cy="68.0574" rx="69.3877" ry="68.0574" transform="matrix(0.820891 -0.571085 0.90502 0.42537 141.945 103.666)" fill="#93B2BF"/>
</g>
<path d="M135.744 103.822L135.671 104.376L136.779 104.522L136.852 103.968L136.298 103.895L135.744 103.822ZM164.106 68.5559L163.787 68.0967L164.106 68.5559ZM260.854 38.9414L260.807 38.3844L260.854 38.9414ZM383.809 81.8052C383.934 82.0877 384.264 82.216 384.546 82.0917C384.829 81.9673 384.957 81.6375 384.833 81.3549L384.321 81.5801L383.809 81.8052ZM136.298 103.895L136.852 103.968C137.133 101.839 138.126 99.1817 139.703 96.2215C141.275 93.2692 143.41 90.0489 145.941 86.8018C151.003 80.305 157.622 73.7355 164.425 69.0151L164.106 68.5559L163.787 68.0967C156.877 72.8918 150.179 79.5444 145.059 86.1146C142.498 89.4009 140.325 92.6752 138.716 95.696C137.112 98.709 136.05 101.503 135.744 103.822L136.298 103.895ZM164.106 68.5559L164.425 69.0151C181.474 57.1841 211.575 43.6608 260.901 39.4984L260.854 38.9414L260.807 38.3844C211.314 42.561 181.019 56.1391 163.787 68.0967L164.106 68.5559ZM260.854 38.9414L260.901 39.4984C286.927 37.3021 313.637 38.6853 335.858 45.2304C358.083 51.7768 375.737 63.4598 383.809 81.8052L384.321 81.5801L384.833 81.3549C376.575 62.5894 358.565 50.7532 336.174 44.158C313.778 37.5615 286.92 36.1808 260.807 38.3844L260.854 38.9414Z" fill="#1B282F"/>
<path d="M257.222 44.7613C278.656 42.8305 300.379 45.6587 317.321 53.6686C334.949 62.003 344.439 74.3309 344.636 87.0906L344.637 87.1288L344.643 87.1675C346.642 100.073 338.96 114.081 322.248 125.764C306.583 136.714 285.5 143.398 264.068 145.329C242.634 147.26 220.911 144.432 203.97 136.422C186.34 128.086 176.597 115.997 176.391 103.253L176.391 103.213L176.384 103.174C174.301 90.2275 182.255 76.0625 199.042 64.3269C214.707 53.3763 235.79 46.6922 257.222 44.7613Z" stroke="#1B282F" stroke-width="1.1179"/>
<path d="M261.362 20.5753L335.188 23.6704L335.278 23.6736L335.363 23.7056L402.083 48.9594L402.237 49.017L402.334 49.1489L437.491 96.6026L437.669 96.8433L437.568 97.1253L419.221 147.688L419.158 147.861L419.005 147.963L351.436 192.913L351.348 192.972L351.244 192.994L255.912 213.45L255.825 213.469L255.738 213.46L162.362 203.92L162.255 203.91L162.16 203.86C151.977 198.553 136.419 189.741 123.414 182.26C116.91 178.518 111.041 175.108 106.799 172.633C104.678 171.396 102.963 170.393 101.779 169.698C101.186 169.351 100.727 169.081 100.415 168.898C100.26 168.807 100.141 168.737 100.061 168.69C100.021 168.667 99.9902 168.649 99.97 168.637C99.96 168.631 99.9523 168.626 99.9472 168.623C99.9449 168.622 99.9433 168.62 99.942 168.62L99.94 168.619L99.7543 168.509L99.69 168.304L100.224 168.137L99.6899 168.303L99.6887 168.301C99.6883 168.3 99.688 168.298 99.6873 168.295C99.6855 168.29 99.6827 168.281 99.6792 168.269C99.6721 168.247 99.6611 168.213 99.6472 168.168C99.6193 168.079 99.5785 167.947 99.5247 167.774C99.417 167.428 99.2589 166.921 99.058 166.275C98.6562 164.983 98.0825 163.135 97.3952 160.915C96.0206 156.474 94.191 150.539 92.372 144.565C90.5531 138.591 88.7437 132.576 87.4098 127.974C86.7431 125.674 86.1942 123.723 85.8219 122.306C85.636 121.599 85.4928 121.018 85.4008 120.592C85.355 120.379 85.3201 120.196 85.2993 120.051C85.289 119.979 85.2808 119.907 85.2776 119.842C85.2752 119.791 85.2711 119.687 85.2996 119.579L85.3366 119.472C85.3499 119.44 85.3634 119.411 85.3737 119.389C85.3992 119.337 85.4302 119.276 85.4656 119.212C85.5368 119.083 85.6348 118.918 85.7543 118.72C85.9942 118.325 86.3338 117.784 86.7592 117.122C87.6106 115.798 88.8123 113.972 90.2559 111.805C93.1436 107.472 97.0061 101.767 100.989 95.9684C104.972 90.1695 109.077 84.2725 112.451 79.5553C115.808 74.8602 118.477 71.2817 119.568 70.1645C119.824 69.9018 120.302 69.5479 120.921 69.1319C121.555 68.7062 122.38 68.1888 123.363 67.5939C125.33 66.4036 127.951 64.895 130.997 63.1851C137.088 59.7647 144.891 55.529 152.587 51.4031C160.283 47.2769 167.873 43.2584 173.539 40.2719C176.372 38.7787 178.725 37.5438 180.369 36.6817C181.19 36.2507 181.835 35.9128 182.275 35.6828C182.494 35.5678 182.663 35.4792 182.777 35.4199C182.834 35.3903 182.877 35.3682 182.906 35.3532C182.92 35.3458 182.93 35.3396 182.937 35.3358C182.941 35.3339 182.944 35.3321 182.946 35.3311L182.948 35.331C182.948 35.3307 182.949 35.3301 183.208 35.8255L182.949 35.3299L183.023 35.2913L183.104 35.2766L261.236 20.585L261.298 20.5729L261.362 20.5753ZM259.845 35.3981C244.176 36.5747 221.815 38.6087 191.406 50.4974C166.347 60.2944 154.474 71.8013 148.564 78.83L148.564 78.831C146.412 81.3787 142.712 86.0935 139.772 92.0834C136.831 98.0758 134.669 105.307 135.54 112.902C137.274 128.011 151.097 144.971 196.17 156.431C274.981 168.965 323.171 149.138 351.213 131.498C365.552 122.479 375.218 111.885 380.193 101.439C385.166 90.9975 385.448 80.7245 381.076 72.2634C372.552 55.7675 353.456 44.7793 325.079 38.1189C314.361 35.6035 298.07 34.9188 284.416 34.8682C277.598 34.8429 271.452 34.9755 267.011 35.1146C264.791 35.1841 262.997 35.2554 261.758 35.3091C261.139 35.3359 260.658 35.3587 260.333 35.3745C260.171 35.3824 260.047 35.3877 259.964 35.392C259.923 35.3941 259.89 35.3959 259.87 35.397C259.859 35.3975 259.851 35.3987 259.846 35.399L259.845 35.3981Z" fill="#5F747E" stroke="#1B282F" stroke-width="1.1179"/>
<mask id="mask2_142_12715" style="mask-type:alpha" maskUnits="userSpaceOnUse" x="85" y="21" width="353" height="192">
<path fill-rule="evenodd" clip-rule="evenodd" d="M162.418 203.365L255.795 212.904L351.127 192.448L418.696 147.497L437.042 96.9352L401.885 49.4821L335.164 24.2288L261.339 21.1342L183.208 35.8258C183.208 35.8258 123.336 67.1032 119.967 70.5555C115.756 74.8708 86.1739 118.462 85.8403 119.722C85.5067 120.982 100.223 168.137 100.223 168.137C100.223 168.137 142.076 192.763 162.418 203.365ZM325.207 37.5752C303.633 32.5118 259.809 34.841 259.809 34.841C244.115 36.0194 221.69 38.0576 191.202 49.977C166.051 59.81 154.103 71.3746 148.136 78.4705C139.472 88.7277 105.756 134.03 196.06 156.981C275.029 169.544 323.361 149.678 351.51 131.972C380.322 113.848 390.51 89.3045 381.572 72.0073C372.934 55.2897 353.634 44.2473 325.207 37.5752Z" fill="#5F747E"/>
</mask>
<g mask="url(#mask2_142_12715)">
<path fill-rule="evenodd" clip-rule="evenodd" d="M160.733 182.123L254.109 191.662L349.441 171.206L417.01 126.255L435.356 75.6932L400.199 28.2401L333.479 2.98677L261.525 0.174134L181.522 14.5838C181.522 14.5838 121.651 45.8612 118.282 49.3135C114.07 53.6288 84.4883 97.2202 84.1547 98.4803C83.8211 99.7404 98.8324 147.487 98.8324 147.487C98.8324 147.487 140.391 171.521 160.733 182.123Z" fill="#7A919B"/>
<path d="M88.8047 114.501C88.8416 114.938 95.6389 136.835 99.033 147.729L160.769 182.106L254.215 191.536L349.017 171.436L416.992 126.657L431.056 88.0802" stroke="#1B282F" stroke-width="1.1179"/>
</g>
<path d="M257.848 88.1301L257.018 141.877L257.239 144.499L255.436 160.666L254.203 191.92L255.765 213.126" stroke="#1B282F" stroke-width="0.838424"/>
<path d="M258.023 88.1154L306.908 130.362L307.166 133.42L322.465 146.823L349.121 171.763L350.914 192.997" stroke="#1B282F" stroke-width="0.838424"/>
<path d="M257.191 87.6563L338.606 105.597L339.454 108.342L369.668 117.054L416.849 126.622L418.651 147.962" stroke="#1B282F" stroke-width="0.838424"/>
<path d="M257.34 87.3803L334.589 65.7097L336.046 66.6864L364.261 57.2343L365.598 54.3056L401.912 49.0287" stroke="#1B282F" stroke-width="0.838424"/>
<path d="M257.352 87.556L344.249 84.9712L344.78 88.7661L384.642 86.0487L431.368 88.6037L437.565 96.8781" stroke="#1B282F" stroke-width="0.838424"/>
<path d="M256.939 87.8537L304.016 48.771L306.092 48.8577L319.466 40.5129L319.12 36.4064L335.179 23.8709" stroke="#1B282F" stroke-width="0.838424"/>
<path d="M258.019 87.0596L259.596 44.2487L261.265 39.0041L260.919 34.8976L261.241 20.7656" stroke="#1B282F" stroke-width="0.838424"/>
<path d="M257.902 87.7745L210.091 135.369L210.283 137.64L190.569 155.32L187.327 154.45L160.691 181.865L162.315 203.695" stroke="#1B282F" stroke-width="0.838424"/>
<path d="M257.802 87.6048L184.203 118.457L184.387 120.642L146.828 134.372L144.044 131.615L99.0324 147.73L99.942 168.272" stroke="#1B282F" stroke-width="0.838424"/>
<path d="M257.692 87.3505L176.824 95.674L176.274 99.5921L136.448 104.186L135.471 103.037L88.7289 115.343L85.1246 119.762" stroke="#1B282F" stroke-width="0.838424"/>
<path d="M257.662 87.0009L187.001 74.4876L185.147 76.4921L160.42 71.2761L157.759 68.9489L119.75 70.046" stroke="#1B282F" stroke-width="0.838424"/>
<path d="M257.996 86.7967L216.55 54.7798L214.76 55.161L204.093 49.7258L203.095 45.1937L183 35.1377" stroke="#1B282F" stroke-width="0.838424"/>
<path d="M229.453 167.967C227.757 167.283 226.781 167.396 226.257 167.675L215.608 174.077L222.698 183.912L233.483 177.268C233.483 177.268 233.815 177.063 233.805 177.073C234.244 176.618 234.353 175.602 234.13 174.026C233.912 172.484 233.486 171.253 232.853 170.334C232.251 169.427 231.117 168.638 229.453 167.967Z" fill="#6490A4"/>
<path d="M215.059 177.379C214.841 175.837 215.107 174.38 215.603 174.077C216.099 173.774 216.836 173.922 218.532 174.605C220.197 175.277 221.33 176.065 221.932 176.972C222.566 177.892 222.992 179.122 223.21 180.665C223.432 182.241 223.189 183.609 222.693 183.911C222.197 184.214 221.434 184.028 219.769 183.357C218.105 182.686 216.96 181.924 216.336 181.072C215.708 180.186 215.282 178.955 215.059 177.379Z" fill="white"/>
<path d="M215.734 174.054C216.232 174.012 216.946 174.152 218.805 174.797C221.13 175.604 222.272 177.262 222.605 178.237C222.938 179.211 223.355 181.182 223.068 183.713" stroke="#1B282F" stroke-width="0.956383"/>
<path d="M226.226 167.654C225.89 167.859 220.445 171.113 216.82 173.279C215.955 173.796 215.246 174.575 215.046 175.563C214.97 175.939 214.925 176.317 214.951 176.628C215.035 177.624 215.41 179.096 215.743 180.071C216.076 181.046 217.177 182.206 219.522 183.261C220.101 183.522 220.565 183.7 220.941 183.821C221.995 184.16 223.082 183.702 224.023 183.117C226.227 181.745 230.394 179.148 232.529 177.823C233.352 177.311 234.108 176.595 234.224 175.633C234.319 174.85 234.188 174 233.928 172.77C233.511 170.8 231.87 169.183 229.774 168.106C227.678 167.03 226.703 167.363 226.226 167.654Z" stroke="#1B282F" stroke-width="0.956383"/>
<path d="M108.233 131.761L110.184 145.792L116.834 143.581L116.073 134.573L108.233 131.761Z" fill="#76A8C0"/>
<path d="M117.044 106.999L111.678 104.879L99.6281 111.944L107.594 115.121L109.339 129.27L120.446 133.83L121.226 139.813L122.361 150.439L128.005 152.162L137.994 146.744L136.543 129.546L135.002 114.555L127.576 111.398L117.902 117.164L117.044 106.999Z" fill="#76A8C0"/>
<path d="M117.778 107.868L106.79 114.311L108.402 127.461L119.795 131.763L116.399 118.263L118.534 116.829L117.778 107.868Z" fill="#6490A4"/>
<path d="M110.964 145.544L103.701 142.647L99.5595 111.411L106.823 114.308L108.463 127.178L109.259 132.811L110.964 145.544ZM116.39 118.263L123.642 120.91L127.588 152.413L120.843 149.723L119.012 136.742L118.215 131.109L116.39 118.263Z" fill="white"/>
<path d="M119.012 136.742L118.215 131.109L108.463 127.178L109.259 132.811L119.012 136.742Z" fill="white"/>
<path d="M135.353 114.155L123.64 120.909L127.574 152.664L139.08 146.429L135.353 114.155Z" fill="#6490A4"/>
<path d="M99.5287 111.414L110.516 104.971L117.759 107.619M99.5287 111.414L103.67 142.65L110.934 145.546M99.5287 111.414L106.784 114.311M117.759 107.619L118.536 116.828M117.759 107.619L106.784 114.311M118.536 116.828L127.359 111.571L135.12 114.425M118.536 116.828L116.392 118.263L118.232 131.143L108.374 127.212L106.784 114.311M135.12 114.425L138.814 146.201L127.557 152.415M135.12 114.425L123.635 120.91L127.557 152.415M127.557 152.415L120.812 149.726L119.222 136.825L116.109 135.583M116.109 135.583L116.781 143.548L110.934 145.546M116.109 135.583L109.355 132.895L110.934 145.546" stroke="#1B282F" stroke-width="0.956383"/>
<path d="M163.054 127.109L155.292 124.254L149.115 128.286L145.456 120.573L138.192 117.677L127.247 124.617L147.451 162.018L157.94 155.617L157.058 145.163L163.054 127.109Z" fill="#76A8C0"/>
<path d="M145.416 120.576L134.698 127.246L141.27 142.735L144.556 131.177L149.096 128.538L145.416 120.576Z" fill="#6490A4"/>
<path d="M144.554 131.175L151.818 134.072L146.568 151.561L147.45 162.015L140.385 159.316L138.906 148.854L127.247 124.615L134.697 127.245L141.29 142.463L142.415 138.316L144.554 131.175Z" fill="white"/>
<path d="M163.013 127.114L151.819 134.075L146.527 151.568L147.41 162.022L157.899 155.622L157.017 145.167L163.013 127.114Z" fill="#6490A4"/>
<path d="M127.2 124.62L138.145 117.68L145.409 120.576M127.2 124.62L139.029 148.94L140.41 159.352L147.404 162.02M127.2 124.62L134.691 127.246M145.409 120.576L149.068 128.289M145.409 120.576L134.691 127.246M149.068 128.289L155.245 124.258L163.007 127.112M149.068 128.289L144.549 131.177M163.007 127.112L157.01 145.166L157.893 155.62L147.404 162.02M163.007 127.112L151.812 134.073M147.404 162.02L146.521 151.566L151.812 134.073M144.549 131.177L151.812 134.073M144.549 131.177L141.242 142.486L134.691 127.246" stroke="#1B282F" stroke-width="0.956383"/>
<path d="M168.753 129.828C170.198 129.778 172.176 130.259 174.689 131.272C176.479 131.994 178.221 132.791 179.914 133.663C181.638 134.548 183.312 135.422 184.889 136.292L185.357 141.837L179.396 145.621C181.368 146.645 183.01 147.71 184.321 148.815C185.928 150.127 187.158 151.603 188.012 153.244C188.893 154.864 189.489 156.78 189.802 158.993C190.139 161.374 190.019 163.144 189.442 164.303C189.259 164.669 189.024 164.977 188.735 165.225C188.515 165.415 188.264 165.57 187.982 165.69L177.626 172L157.74 159.14L164.13 155.668L158.778 150.972L156.844 136.654L166.908 130.448C167.395 130.029 167.959 129.863 168.753 129.828Z" fill="#76A8C0"/>
<path d="M169.367 145.876L161.812 142.503L162.962 150.177L167.382 152.06L176.56 159.809L178.995 167.875L178.087 171.963L181.176 169.948L188.079 165.605L189.467 164.234L190.004 161.682L189.668 157.699L187.982 152.577L184.41 148.868L179.365 145.534L169.367 145.876Z" fill="#5890AA" fill-opacity="0.56"/>
<path d="M157.742 159.141C159.248 160.16 160.734 161.238 162.405 162.164C164.071 163.057 165.69 163.821 167.26 164.454C168.045 164.77 168.765 165.045 169.42 165.277C170.106 165.522 170.839 165.807 171.357 166.014L170.853 160.04L166.489 157.74C164.518 156.787 162.845 155.843 161.469 154.909C160.093 153.975 158.962 152.998 158.077 151.977C157.193 150.956 156.499 149.823 155.998 148.577C155.527 147.344 155.176 145.906 154.944 144.263C154.579 141.681 154.617 139.752 155.059 138.476C155.5 137.199 156.427 136.529 157.84 136.466C159.284 136.416 161.263 136.898 163.775 137.91C165.566 138.632 167.307 139.429 169 140.301C170.725 141.186 172.194 142.148 173.946 143.234L174.409 148.71C172.831 147.84 171.204 147.198 169.929 146.557C168.685 145.929 167.356 145.33 165.943 144.761C165.032 144.393 164.297 144.113 163.736 143.918C163.207 143.737 162.62 143.563 161.974 143.398L162.841 149.534L167.225 151.633C169.767 152.847 171.827 154.121 173.408 155.454C175.015 156.765 176.245 158.242 177.099 159.882C177.98 161.502 178.576 163.419 178.889 165.632C179.226 168.012 179.105 169.782 178.529 170.941C177.952 172.1 176.847 172.666 175.215 172.64C173.613 172.627 171.415 172.057 168.62 170.931C166.673 170.146 164.787 169.275 162.964 168.318C161.14 167.362 159.552 166.39 157.748 165.157L157.742 159.141Z" fill="white"/>
<path d="M184.848 136.295L173.903 143.236L174.365 148.712L178.863 145.574L185.289 141.522L184.848 136.295Z" fill="#6490A4"/>
<path d="M184.843 136.294L185.305 141.771L179.356 145.531M184.843 136.294C184.49 136.074 182.634 135.077 178.035 132.859C172.286 130.085 171.788 130.127 169.776 130.046C167.764 129.965 166.81 130.547 166.333 130.838C165.856 131.129 158.228 135.784 156.797 136.657M184.843 136.294L173.898 143.235M179.356 145.531C180.843 146.325 184.429 148.613 186.871 151.414C189.314 154.216 189.943 159.093 189.952 161.182C190.043 162.26 189.699 164.713 187.592 165.893C185.486 167.074 180.206 170.444 177.829 171.982M179.356 145.531L174.36 148.711M177.829 171.982C177.186 172.287 175.34 172.793 173.099 172.381C170.298 171.865 162.765 168.741 157.699 165.158C157.73 163.15 157.708 160.311 157.693 159.142M177.829 171.982C180.129 169.531 179.271 166.297 178.338 163.165C176.589 157.297 173.662 155.288 170.756 153.528C168.431 152.12 164.543 150.208 162.889 149.429C162.666 147.776 162.203 144.273 162.136 143.476C162.75 143.625 166.362 145.041 168.092 145.731C169.337 146.227 172.789 147.925 174.36 148.711M157.693 159.142L163.208 156.17M157.693 159.142C160.534 161.91 167.954 164.877 171.309 166.015C171.168 164.356 170.871 160.838 170.804 160.041C170.173 159.693 165.477 157.315 163.208 156.17M163.208 156.17C161.9 155.528 158.936 153.673 157.539 151.384C155.794 148.523 154.816 145.848 154.77 142.343C154.725 138.837 155.595 137.26 156.797 136.657M156.797 136.657C162.788 136.351 170.693 140.915 173.898 143.235M174.36 148.711L173.898 143.235" stroke="#1B282F" stroke-width="0.956383"/>
<path d="M212.32 146.511L190.572 138.32L179.542 144.265L187.118 147.886L191.031 179.392L197.797 182.33L208.244 175.432L206.689 157.013L212.867 152.982L212.32 146.511Z" fill="#76A8C0"/>
<path d="M212.279 146.515L201.498 152.439L202.087 159.408L212.825 152.987L212.279 146.515Z" fill="#6490A4"/>
<path d="M206.358 156.553L195.363 156.965L197.75 182.333L207.96 175.519L206.358 156.553Z" fill="#5890AA" fill-opacity="0.48"/>
<path d="M195.381 157.213L197.794 182.328L191.028 179.389L187.682 153.854L180.519 150.949L179.539 144.262L201.496 152.435L202.084 159.406L195.381 157.213Z" fill="white"/>
<path d="M179.5 144.267L201.498 152.437M201.498 152.437L202.086 159.407M201.498 152.437L212.278 146.514M202.086 159.407L195.383 157.215L197.755 182.334M202.086 159.407L206.626 156.767" stroke="#1B282F" stroke-width="0.956383"/>
<path d="M190.528 138.323L179.498 144.268L180.564 150.947L187.578 153.864L190.987 179.396L197.753 182.334L208.201 175.436L206.624 156.768L212.823 152.986L212.276 146.514L190.528 138.323Z" stroke="#1B282F" stroke-width="0.956383"/>
<defs>
<filter id="filter0_d_142_12715" x="258.242" y="280.892" width="33.5117" height="24.7003" filterUnits="userSpaceOnUse" color-interpolation-filters="sRGB">
<feFlood flood-opacity="0" result="BackgroundImageFix"/>
<feColorMatrix in="SourceAlpha" type="matrix" values="0 0 0 0 0 0 0 0 0 0 0 0 0 0 0 0 0 0 127 0" result="hardAlpha"/>
<feOffset dy="4"/>
<feGaussianBlur stdDeviation="2"/>
<feComposite in2="hardAlpha" operator="out"/>
<feColorMatrix type="matrix" values="0 0 0 0 0 0 0 0 0 0 0 0 0 0 0 0 0 0 0.25 0"/>
<feBlend mode="normal" in2="BackgroundImageFix" result="effect1_dropShadow_142_12715"/>
<feBlend mode="normal" in="SourceGraphic" in2="effect1_dropShadow_142_12715" result="shape"/>
</filter>
<filter id="filter1_i_142_12715" x="267.125" y="259.211" width="15.4585" height="32.7386" filterUnits="userSpaceOnUse" color-interpolation-filters="sRGB">
<feFlood flood-opacity="0" result="BackgroundImageFix"/>
<feBlend mode="normal" in="SourceGraphic" in2="BackgroundImageFix" result="shape"/>
<feColorMatrix in="SourceAlpha" type="matrix" values="0 0 0 0 0 0 0 0 0 0 0 0 0 0 0 0 0 0 127 0" result="hardAlpha"/>
<feOffset dx="5.03055" dy="-2.79475"/>
<feGaussianBlur stdDeviation="1.1179"/>
<feComposite in2="hardAlpha" operator="arithmetic" k2="-1" k3="1"/>
<feColorMatrix type="matrix" values="0 0 0 0 0 0 0 0 0 0 0 0 0 0 0 0 0 0 0.25 0"/>
<feBlend mode="normal" in2="shape" result="effect1_innerShadow_142_12715"/>
</filter>
<filter id="filter2_i_142_12715" x="148.234" y="250.77" width="15.4585" height="32.7386" filterUnits="userSpaceOnUse" color-interpolation-filters="sRGB">
<feFlood flood-opacity="0" result="BackgroundImageFix"/>
<feBlend mode="normal" in="SourceGraphic" in2="BackgroundImageFix" result="shape"/>
<feColorMatrix in="SourceAlpha" type="matrix" values="0 0 0 0 0 0 0 0 0 0 0 0 0 0 0 0 0 0 127 0" result="hardAlpha"/>
<feOffset dx="5.5895" dy="-3.3537"/>
<feGaussianBlur stdDeviation="1.1179"/>
<feComposite in2="hardAlpha" operator="arithmetic" k2="-1" k3="1"/>
<feColorMatrix type="matrix" values="0 0 0 0 0 0 0 0 0 0 0 0 0 0 0 0 0 0 0.25 0"/>
<feBlend mode="normal" in2="shape" result="effect1_innerShadow_142_12715"/>
</filter>
<filter id="filter3_i_142_12715" x="87.7148" y="205.192" width="15.4585" height="32.7386" filterUnits="userSpaceOnUse" color-interpolation-filters="sRGB">
<feFlood flood-opacity="0" result="BackgroundImageFix"/>
<feBlend mode="normal" in="SourceGraphic" in2="BackgroundImageFix" result="shape"/>
<feColorMatrix in="SourceAlpha" type="matrix" values="0 0 0 0 0 0 0 0 0 0 0 0 0 0 0 0 0 0 127 0" result="hardAlpha"/>
<feOffset dx="6.14845" dy="-3.3537"/>
<feGaussianBlur stdDeviation="1.1179"/>
<feComposite in2="hardAlpha" operator="arithmetic" k2="-1" k3="1"/>
<feColorMatrix type="matrix" values="0 0 0 0 0 0 0 0 0 0 0 0 0 0 0 0 0 0 0.25 0"/>
<feBlend mode="normal" in2="shape" result="effect1_innerShadow_142_12715"/>
</filter>
<filter id="filter4_i_142_12715" x="74.0234" y="162.625" width="15.4585" height="32.7386" filterUnits="userSpaceOnUse" color-interpolation-filters="sRGB">
<feFlood flood-opacity="0" result="BackgroundImageFix"/>
<feBlend mode="normal" in="SourceGraphic" in2="BackgroundImageFix" result="shape"/>
<feColorMatrix in="SourceAlpha" type="matrix" values="0 0 0 0 0 0 0 0 0 0 0 0 0 0 0 0 0 0 127 0" result="hardAlpha"/>
<feOffset dx="4.4716" dy="2.2358"/>
<feGaussianBlur stdDeviation="1.1179"/>
<feComposite in2="hardAlpha" operator="arithmetic" k2="-1" k3="1"/>
<feColorMatrix type="matrix" values="0 0 0 0 0 0 0 0 0 0 0 0 0 0 0 0 0 0 0.25 0"/>
<feBlend mode="normal" in2="shape" result="effect1_innerShadow_142_12715"/>
</filter>
<filter id="filter5_i_142_12715" x="356.875" y="236.922" width="15.7379" height="33.0181" filterUnits="userSpaceOnUse" color-interpolation-filters="sRGB">
<feFlood flood-opacity="0" result="BackgroundImageFix"/>
<feBlend mode="normal" in="SourceGraphic" in2="BackgroundImageFix" result="shape"/>
<feColorMatrix in="SourceAlpha" type="matrix" values="0 0 0 0 0 0 0 0 0 0 0 0 0 0 0 0 0 0 127 0" result="hardAlpha"/>
<feOffset dx="5.03055" dy="-3.3537"/>
<feGaussianBlur stdDeviation="1.25764"/>
<feComposite in2="hardAlpha" operator="arithmetic" k2="-1" k3="1"/>
<feColorMatrix type="matrix" values="0 0 0 0 0 0 0 0 0 0 0 0 0 0 0 0 0 0 0.25 0"/>
<feBlend mode="normal" in2="shape" result="effect1_innerShadow_142_12715"/>
</filter>
<filter id="filter6_i_142_12715" x="431.227" y="184.116" width="16.2969" height="32.7386" filterUnits="userSpaceOnUse" color-interpolation-filters="sRGB">
<feFlood flood-opacity="0" result="BackgroundImageFix"/>
<feBlend mode="normal" in="SourceGraphic" in2="BackgroundImageFix" result="shape"/>
<feColorMatrix in="SourceAlpha" type="matrix" values="0 0 0 0 0 0 0 0 0 0 0 0 0 0 0 0 0 0 127 0" result="hardAlpha"/>
<feOffset dx="5.03055" dy="-2.2358"/>
<feGaussianBlur stdDeviation="1.53711"/>
<feComposite in2="hardAlpha" operator="arithmetic" k2="-1" k3="1"/>
<feColorMatrix type="matrix" values="0 0 0 0 0 0 0 0 0 0 0 0 0 0 0 0 0 0 0.25 0"/>
<feBlend mode="normal" in2="shape" result="effect1_innerShadow_142_12715"/>
</filter>
<filter id="filter7_i_142_12715" x="442.145" y="137.557" width="15.4585" height="32.7386" filterUnits="userSpaceOnUse" color-interpolation-filters="sRGB">
<feFlood flood-opacity="0" result="BackgroundImageFix"/>
<feBlend mode="normal" in="SourceGraphic" in2="BackgroundImageFix" result="shape"/>
<feColorMatrix in="SourceAlpha" type="matrix" values="0 0 0 0 0 0 0 0 0 0 0 0 0 0 0 0 0 0 127 0" result="hardAlpha"/>
<feOffset dx="7.82529" dy="-2.2358"/>
<feGaussianBlur stdDeviation="1.1179"/>
<feComposite in2="hardAlpha" operator="arithmetic" k2="-1" k3="1"/>
<feColorMatrix type="matrix" values="0 0 0 0 0 0 0 0 0 0 0 0 0 0 0 0 0 0 0.25 0"/>
<feBlend mode="normal" in2="shape" result="effect1_innerShadow_142_12715"/>
</filter>
<filter id="filter8_i_142_12715" x="72.5547" y="101.672" width="381.574" height="177.289" filterUnits="userSpaceOnUse" color-interpolation-filters="sRGB">
<feFlood flood-opacity="0" result="BackgroundImageFix"/>
<feBlend mode="normal" in="SourceGraphic" in2="BackgroundImageFix" result="shape"/>
<feColorMatrix in="SourceAlpha" type="matrix" values="0 0 0 0 0 0 0 0 0 0 0 0 0 0 0 0 0 0 127 0" result="hardAlpha"/>
<feOffset dy="-36.854"/>
<feComposite in2="hardAlpha" operator="arithmetic" k2="-1" k3="1"/>
<feColorMatrix type="matrix" values="0 0 0 0 0.721569 0 0 0 0 0.745098 0 0 0 0 0.768627 0 0 0 1 0"/>
<feBlend mode="normal" in2="shape" result="effect1_innerShadow_142_12715"/>
</filter>
<filter id="filter9_d_142_12715" x="105.32" y="351.88" width="33.5117" height="24.7003" filterUnits="userSpaceOnUse" color-interpolation-filters="sRGB">
<feFlood flood-opacity="0" result="BackgroundImageFix"/>
<feColorMatrix in="SourceAlpha" type="matrix" values="0 0 0 0 0 0 0 0 0 0 0 0 0 0 0 0 0 0 127 0" result="hardAlpha"/>
<feOffset dy="4"/>
<feGaussianBlur stdDeviation="2"/>
<feComposite in2="hardAlpha" operator="out"/>
<feColorMatrix type="matrix" values="0 0 0 0 0 0 0 0 0 0 0 0 0 0 0 0 0 0 0.25 0"/>
<feBlend mode="normal" in2="BackgroundImageFix" result="effect1_dropShadow_142_12715"/>
<feBlend mode="normal" in="SourceGraphic" in2="effect1_dropShadow_142_12715" result="shape"/>
</filter>
<filter id="filter10_i_142_12715" x="114.203" y="330.199" width="15.4585" height="32.7386" filterUnits="userSpaceOnUse" color-interpolation-filters="sRGB">
<feFlood flood-opacity="0" result="BackgroundImageFix"/>
<feBlend mode="normal" in="SourceGraphic" in2="BackgroundImageFix" result="shape"/>
<feColorMatrix in="SourceAlpha" type="matrix" values="0 0 0 0 0 0 0 0 0 0 0 0 0 0 0 0 0 0 127 0" result="hardAlpha"/>
<feOffset dx="4.4716" dy="-3.3537"/>
<feGaussianBlur stdDeviation="1.1179"/>
<feComposite in2="hardAlpha" operator="arithmetic" k2="-1" k3="1"/>
<feColorMatrix type="matrix" values="0 0 0 0 0 0 0 0 0 0 0 0 0 0 0 0 0 0 0.25 0"/>
<feBlend mode="normal" in2="shape" result="effect1_innerShadow_142_12715"/>
</filter>
<filter id="filter11_d_142_12715" x="19.5273" y="325.583" width="33.5117" height="24.7003" filterUnits="userSpaceOnUse" color-interpolation-filters="sRGB">
<feFlood flood-opacity="0" result="BackgroundImageFix"/>
<feColorMatrix in="SourceAlpha" type="matrix" values="0 0 0 0 0 0 0 0 0 0 0 0 0 0 0 0 0 0 127 0" result="hardAlpha"/>
<feOffset dy="4"/>
<feGaussianBlur stdDeviation="2"/>
<feComposite in2="hardAlpha" operator="out"/>
<feColorMatrix type="matrix" values="0 0 0 0 0 0 0 0 0 0 0 0 0 0 0 0 0 0 0.25 0"/>
<feBlend mode="normal" in2="BackgroundImageFix" result="effect1_dropShadow_142_12715"/>
<feBlend mode="normal" in="SourceGraphic" in2="effect1_dropShadow_142_12715" result="shape"/>
</filter>
<filter id="filter12_i_142_12715" x="28.8008" y="309.383" width="14.8335" height="27.3305" filterUnits="userSpaceOnUse" color-interpolation-filters="sRGB">
<feFlood flood-opacity="0" result="BackgroundImageFix"/>
<feBlend mode="normal" in="SourceGraphic" in2="BackgroundImageFix" result="shape"/>
<feColorMatrix in="SourceAlpha" type="matrix" values="0 0 0 0 0 0 0 0 0 0 0 0 0 0 0 0 0 0 127 0" result="hardAlpha"/>
<feOffset dx="5.5895" dy="-3.3537"/>
<feGaussianBlur stdDeviation="1.1179"/>
<feComposite in2="hardAlpha" operator="arithmetic" k2="-1" k3="1"/>
<feColorMatrix type="matrix" values="0 0 0 0 0 0 0 0 0 0 0 0 0 0 0 0 0 0 0.25 0"/>
<feBlend mode="normal" in2="shape" result="effect1_innerShadow_142_12715"/>
</filter>
<filter id="filter13_i_142_12715" x="70.5742" y="222.618" width="96.0586" height="82.4869" filterUnits="userSpaceOnUse" color-interpolation-filters="sRGB">
<feFlood flood-opacity="0" result="BackgroundImageFix"/>
<feBlend mode="normal" in="SourceGraphic" in2="BackgroundImageFix" result="shape"/>
<feColorMatrix in="SourceAlpha" type="matrix" values="0 0 0 0 0 0 0 0 0 0 0 0 0 0 0 0 0 0 127 0" result="hardAlpha"/>
<feOffset dx="3.91265" dy="7.26634"/>
<feComposite in2="hardAlpha" operator="arithmetic" k2="-1" k3="1"/>
<feColorMatrix type="matrix" values="0 0 0 0 0 0 0 0 0 0 0 0 0 0 0 0 0 0 0.25 0"/>
<feBlend mode="normal" in2="shape" result="effect1_innerShadow_142_12715"/>
</filter>
<filter id="filter14_i_142_12715" x="37.2734" y="282.215" width="114.809" height="60.4363" filterUnits="userSpaceOnUse" color-interpolation-filters="sRGB">
<feFlood flood-opacity="0" result="BackgroundImageFix"/>
<feBlend mode="normal" in="SourceGraphic" in2="BackgroundImageFix" result="shape"/>
<feColorMatrix in="SourceAlpha" type="matrix" values="0 0 0 0 0 0 0 0 0 0 0 0 0 0 0 0 0 0 127 0" result="hardAlpha"/>
<feOffset dy="-2.79475"/>
<feComposite in2="hardAlpha" operator="arithmetic" k2="-1" k3="1"/>
<feColorMatrix type="matrix" values="0 0 0 0 0.623529 0 0 0 0 0.654902 0 0 0 0 0.686275 0 0 0 1 0"/>
<feBlend mode="normal" in2="shape" result="effect1_innerShadow_142_12715"/>
</filter>
<filter id="filter15_i_142_12715" x="90.7891" y="194.129" width="104.949" height="47.6334" filterUnits="userSpaceOnUse" color-interpolation-filters="sRGB">
<feFlood flood-opacity="0" result="BackgroundImageFix"/>
<feBlend mode="normal" in="SourceGraphic" in2="BackgroundImageFix" result="shape"/>
<feColorMatrix in="SourceAlpha" type="matrix" values="0 0 0 0 0 0 0 0 0 0 0 0 0 0 0 0 0 0 127 0" result="hardAlpha"/>
<feOffset dx="-8.94319" dy="-12.8558"/>
<feComposite in2="hardAlpha" operator="arithmetic" k2="-1" k3="1"/>
<feColorMatrix type="matrix" values="0 0 0 0 0 0 0 0 0 0 0 0 0 0 0 0 0 0 0.07 0"/>
<feBlend mode="normal" in2="shape" result="effect1_innerShadow_142_12715"/>
</filter>
<filter id="filter16_d_142_12715" x="422.977" y="323.711" width="33.5078" height="24.7002" filterUnits="userSpaceOnUse" color-interpolation-filters="sRGB">
<feFlood flood-opacity="0" result="BackgroundImageFix"/>
<feColorMatrix in="SourceAlpha" type="matrix" values="0 0 0 0 0 0 0 0 0 0 0 0 0 0 0 0 0 0 127 0" result="hardAlpha"/>
<feOffset dy="4"/>
<feGaussianBlur stdDeviation="2"/>
<feComposite in2="hardAlpha" operator="out"/>
<feColorMatrix type="matrix" values="0 0 0 0 0 0 0 0 0 0 0 0 0 0 0 0 0 0 0.25 0"/>
<feBlend mode="normal" in2="BackgroundImageFix" result="effect1_dropShadow_142_12715"/>
<feBlend mode="normal" in="SourceGraphic" in2="effect1_dropShadow_142_12715" result="shape"/>
</filter>
<filter id="filter17_i_142_12715" x="431.852" y="302.03" width="15.4624" height="32.7386" filterUnits="userSpaceOnUse" color-interpolation-filters="sRGB">
<feFlood flood-opacity="0" result="BackgroundImageFix"/>
<feBlend mode="normal" in="SourceGraphic" in2="BackgroundImageFix" result="shape"/>
<feColorMatrix in="SourceAlpha" type="matrix" values="0 0 0 0 0 0 0 0 0 0 0 0 0 0 0 0 0 0 127 0" result="hardAlpha"/>
<feOffset dx="4.4716" dy="-3.3537"/>
<feGaussianBlur stdDeviation="1.1179"/>
<feComposite in2="hardAlpha" operator="arithmetic" k2="-1" k3="1"/>
<feColorMatrix type="matrix" values="0 0 0 0 0 0 0 0 0 0 0 0 0 0 0 0 0 0 0.25 0"/>
<feBlend mode="normal" in2="shape" result="effect1_innerShadow_142_12715"/>
</filter>
<filter id="filter18_d_142_12715" x="503.371" y="283.382" width="33.5078" height="24.7002" filterUnits="userSpaceOnUse" color-interpolation-filters="sRGB">
<feFlood flood-opacity="0" result="BackgroundImageFix"/>
<feColorMatrix in="SourceAlpha" type="matrix" values="0 0 0 0 0 0 0 0 0 0 0 0 0 0 0 0 0 0 127 0" result="hardAlpha"/>
<feOffset dy="4"/>
<feGaussianBlur stdDeviation="2"/>
<feComposite in2="hardAlpha" operator="out"/>
<feColorMatrix type="matrix" values="0 0 0 0 0 0 0 0 0 0 0 0 0 0 0 0 0 0 0.25 0"/>
<feBlend mode="normal" in2="BackgroundImageFix" result="effect1_dropShadow_142_12715"/>
<feBlend mode="normal" in="SourceGraphic" in2="effect1_dropShadow_142_12715" result="shape"/>
</filter>
<filter id="filter19_i_142_12715" x="512.406" y="267.201" width="14.8335" height="27.3306" filterUnits="userSpaceOnUse" color-interpolation-filters="sRGB">
<feFlood flood-opacity="0" result="BackgroundImageFix"/>
<feBlend mode="normal" in="SourceGraphic" in2="BackgroundImageFix" result="shape"/>
<feColorMatrix in="SourceAlpha" type="matrix" values="0 0 0 0 0 0 0 0 0 0 0 0 0 0 0 0 0 0 127 0" result="hardAlpha"/>
<feOffset dx="5.5895" dy="-3.3537"/>
<feGaussianBlur stdDeviation="1.1179"/>
<feComposite in2="hardAlpha" operator="arithmetic" k2="-1" k3="1"/>
<feColorMatrix type="matrix" values="0 0 0 0 0 0 0 0 0 0 0 0 0 0 0 0 0 0 0.25 0"/>
<feBlend mode="normal" in2="shape" result="effect1_innerShadow_142_12715"/>
</filter>
<filter id="filter20_i_142_12715" x="376.141" y="189.69" width="100.793" height="93.0533" filterUnits="userSpaceOnUse" color-interpolation-filters="sRGB">
<feFlood flood-opacity="0" result="BackgroundImageFix"/>
<feBlend mode="normal" in="SourceGraphic" in2="BackgroundImageFix" result="shape"/>
<feColorMatrix in="SourceAlpha" type="matrix" values="0 0 0 0 0 0 0 0 0 0 0 0 0 0 0 0 0 0 127 0" result="hardAlpha"/>
<feOffset dx="-31.8768" dy="10.992"/>
<feComposite in2="hardAlpha" operator="arithmetic" k2="-1" k3="1"/>
<feColorMatrix type="matrix" values="0 0 0 0 0.623529 0 0 0 0 0.654902 0 0 0 0 0.686275 0 0 0 1 0"/>
<feBlend mode="normal" in2="shape" result="effect1_innerShadow_142_12715"/>
</filter>
<filter id="filter21_i_142_12715" x="401.566" y="245.888" width="113.762" height="67.8114" filterUnits="userSpaceOnUse" color-interpolation-filters="sRGB">
<feFlood flood-opacity="0" result="BackgroundImageFix"/>
<feBlend mode="normal" in="SourceGraphic" in2="BackgroundImageFix" result="shape"/>
<feColorMatrix in="SourceAlpha" type="matrix" values="0 0 0 0 0 0 0 0 0 0 0 0 0 0 0 0 0 0 127 0" result="hardAlpha"/>
<feOffset dy="-2.79475"/>
<feComposite in2="hardAlpha" operator="arithmetic" k2="-1" k3="1"/>
<feColorMatrix type="matrix" values="0 0 0 0 0.623529 0 0 0 0 0.654902 0 0 0 0 0.686275 0 0 0 1 0"/>
<feBlend mode="normal" in2="shape" result="effect1_innerShadow_142_12715"/>
</filter>
<filter id="filter22_i_142_12715" x="340.75" y="165.704" width="102.645" height="57.6898" filterUnits="userSpaceOnUse" color-interpolation-filters="sRGB">
<feFlood flood-opacity="0" result="BackgroundImageFix"/>
<feBlend mode="normal" in="SourceGraphic" in2="BackgroundImageFix" result="shape"/>
<feColorMatrix in="SourceAlpha" type="matrix" values="0 0 0 0 0 0 0 0 0 0 0 0 0 0 0 0 0 0 127 0" result="hardAlpha"/>
<feOffset dx="6.7074" dy="-14.5327"/>
<feComposite in2="hardAlpha" operator="arithmetic" k2="-1" k3="1"/>
<feColorMatrix type="matrix" values="0 0 0 0 0 0 0 0 0 0 0 0 0 0 0 0 0 0 0.07 0"/>
<feBlend mode="normal" in2="shape" result="effect1_innerShadow_142_12715"/>
</filter>
<filter id="filter23_i_142_12715" x="134.785" y="34.0949" width="249.926" height="126.969" filterUnits="userSpaceOnUse" color-interpolation-filters="sRGB">
<feFlood flood-opacity="0" result="BackgroundImageFix"/>
<feBlend mode="normal" in="SourceGraphic" in2="BackgroundImageFix" result="shape"/>
<feColorMatrix in="SourceAlpha" type="matrix" values="0 0 0 0 0 0 0 0 0 0 0 0 0 0 0 0 0 0 127 0" result="hardAlpha"/>
<feOffset dy="4.65148"/>
<feComposite in2="hardAlpha" operator="arithmetic" k2="-1" k3="1"/>
<feColorMatrix type="matrix" values="0 0 0 0 0.152778 0 0 0 0 0.206533 0 0 0 0 0.229167 0 0 0 1 0"/>
<feBlend mode="normal" in2="shape" result="effect1_innerShadow_142_12715"/>
</filter>
<filter id="filter24_d_142_12715" x="176.605" y="43.911" width="167.785" height="102.069" filterUnits="userSpaceOnUse" color-interpolation-filters="sRGB">
<feFlood flood-opacity="0" result="BackgroundImageFix"/>
<feColorMatrix in="SourceAlpha" type="matrix" values="0 0 0 0 0 0 0 0 0 0 0 0 0 0 0 0 0 0 127 0" result="hardAlpha"/>
<feOffset dy="3.91265"/>
<feComposite in2="hardAlpha" operator="out"/>
<feColorMatrix type="matrix" values="0 0 0 0 0.208333 0 0 0 0 0.349462 0 0 0 0 0.416667 0 0 0 1 0"/>
<feBlend mode="normal" in2="BackgroundImageFix" result="effect1_dropShadow_142_12715"/>
<feBlend mode="normal" in="SourceGraphic" in2="effect1_dropShadow_142_12715" result="shape"/>
</filter>
</defs>
</svg>
