<svg xmlns="http://www.w3.org/2000/svg" width="1512" height="1680" fill="none" xmlns:v="https://vecta.io/nano"><g fill="#fff"><use href="#B"/><use href="#C"/><use href="#D"/><use href="#D" x="-501.99" y="955.35"/><use href="#E"/><use href="#F"/><path d="M-843.238-351.916c0 4.171-3.655 7.553-8.163 7.553s-8.162-3.382-8.162-7.553 3.654-7.552 8.162-7.552 8.163 3.382 8.163 7.552zm36.731 41.537c0 4.171-3.654 7.553-8.162 7.553s-8.163-3.382-8.163-7.553 3.655-7.552 8.163-7.552 8.162 3.381 8.162 7.552z"/><use href="#G"/><use href="#H"/><use href="#H" x="4.081" y="553.197"/><use href="#H" x="191.818" y="643.823"/><use href="#I"/><use href="#I" x="281.605" y="432.362"/><use href="#J"/><use href="#H" x="636.672" y="968.566"/><use href="#F" x="4007.77" y="1514.211"/><use href="#I" x="-48.975" y="647.599"/><use href="#I" x="-155.087" y="708.016"/><use href="#K"/><use href="#C" x="265.28" y="-188.8"/><use href="#E" x="395.88" y="-1495.33"/><use href="#B" x="391.8" y="-234.12"/><use href="#C" x="1126.42" y="60.42"/><use href="#L"/><use href="#M"/><use href="#L" x="40.812" y="-422.92"/><use href="#N"/><use href="#N" x="191.818" y="94.4"/><use href="#N" x="310.174" y="188.8"/><use href="#O"/><use href="#M" x="514.235" y="-86.85"/><use href="#L" x="873.384" y="-456.91"/><use href="#N" x="640.753" y="-30.21"/><use href="#O" x="371.393" y="-241.67"/><use href="#L" x="926.44" y="98.18"/><use href="#J" x="-28.568" y="758.993"/><use href="#H" x="-175.493" y="1561.412"/><path d="M-1084.03 705.389c0 4.171-3.66 7.552-8.16 7.552-4.51 0-8.17-3.381-8.17-7.552s3.66-7.553 8.17-7.553c4.5 0 8.16 3.382 8.16 7.553z"/><use href="#I" x="-648.916" y="779.762"/><use href="#F" x="1330.48" y="913.813"/><use href="#F" x="461.18" y="1129.05"/><path d="M-1545.21 256.034c0 4.171-3.65 7.552-8.16 7.552s-8.17-3.381-8.17-7.552 3.66-7.552 8.17-7.552 8.16 3.381 8.16 7.552zm53.06 105.731c0 4.171-3.66 7.552-8.17 7.552-4.5 0-8.16-3.381-8.16-7.552s3.66-7.553 8.16-7.553c4.51 0 8.17 3.382 8.17 7.553zm-65.3 33.985c0 4.17-3.66 7.552-8.17 7.552-4.5 0-8.16-3.382-8.16-7.552s3.66-7.553 8.16-7.553c4.51 0 8.17 3.382 8.17 7.553zm-571.38-3.777c0 4.171-3.65 7.553-8.16 7.553s-8.16-3.382-8.16-7.553 3.65-7.552 8.16-7.552 8.16 3.381 8.16 7.552z"/><use href="#P"/><use href="#G" x="363.23" y="1038.424"/><use href="#F" x="436.69" y="1616.165"/><use href="#F" x="-57.14" y="1223.452"/><use href="#G" x="-195.9" y="740.113"/><use href="#F" x="-57.14" y="1687.911"/><use href="#C" x="-228.55" y="3409.81"/><use href="#Q"/><path d="M-1908.44 1007.48c0 4.17-3.65 7.55-8.16 7.55s-8.16-3.38-8.16-7.55c0-4.18 3.65-7.556 8.16-7.556s8.16 3.376 8.16 7.556z"/><use href="#Q" x="595.86" y="-49.09"/><use href="#F" x="767.27" y="1774.761"/><use href="#P" x="379.55" y="343.624"/><use href="#F" x="869.3" y="1782.313"/><use href="#R"/><path d="M-1557.45 1249.15c0 4.17-3.66 7.55-8.17 7.55-4.5 0-8.16-3.38-8.16-7.55 0-4.18 3.66-7.56 8.16-7.56 4.51 0 8.17 3.38 8.17 7.56z"/><use href="#K" x="697.89" y="3511.76"/><use href="#S"/><use href="#C" x="1085.61" y="3496.66"/><path d="M-994.244 1132.09c0 4.17-3.654 7.55-8.166 7.55-4.5 0-8.16-3.38-8.16-7.55s3.66-7.56 8.16-7.56c4.512 0 8.166 3.39 8.166 7.56zm-122.436-94.41c0 4.18-3.66 7.56-8.16 7.56-4.51 0-8.17-3.38-8.17-7.56 0-4.17 3.66-7.55 8.17-7.55 4.5 0 8.16 3.38 8.16 7.55z"/><use href="#F" x="1061.12" y="1918.252"/><use href="#T"/><use href="#D" x="-69.38" y="3424.91"/><use href="#Q" x="567.29" y="298.31"/><use href="#C" x="265.28" y="3802.52"/><use href="#U"/><use href="#C" x="665.24" y="3968.67"/><use href="#U" x="40.81" y="154.82"/><use href="#V"/><use href="#B" x="493.83" y="4293.41"/><use href="#W"/><use href="#X"/><use href="#B" x="457.1" y="4493.54"/><use href="#C" x="-130.6" y="4297.19"/><use href="#B" x="28.57" y="4429.35"/><use href="#C" x="-228.55" y="3881.82"/><use href="#T" x="89.79" y="887.38"/><use href="#K" x="330.58" y="4572.84"/><use href="#C" x="367.31" y="4678.57"/><use href="#Q" x="665.24" y="1174.36"/><use href="#C" x="461.18" y="4467.11"/><use href="#C" x="616.27" y="4410.47"/><use href="#R" x="97.95" y="879.83"/><path d="M-749.37 1887.3c0 4.17-3.654 7.56-8.162 7.56s-8.163-3.39-8.163-7.56 3.655-7.55 8.163-7.55 8.162 3.38 8.162 7.55z"/><use href="#Y"/><use href="#Z"/><use href="#N" x="350.986" y="4183.9"/><use href="#N" x="714.216" y="4293.41"/><path d="M189.314 2000.59c0 4.17-3.655 7.55-8.163 7.55s-8.162-3.38-8.162-7.55c0-4.18 3.654-7.56 8.162-7.56s8.163 3.38 8.163 7.56z"/><use href="#a"/><use href="#L" x="1077.445" y="4976.88"/><use href="#N" x="824.409" y="5335.61"/><use href="#L" x="889.709" y="5267.64"/><use href="#N" x="787.678" y="5758.53"/><use href="#M" x="1367.213" y="5596.16"/><use href="#N" x="1281.507" y="5535.74"/><use href="#L" x="1579.437" y="5373.37"/><use href="#V" x="2452.82" y="1737"/><use href="#C" x="4040.42" y="5683.01"/><use href="#T" x="3869.01" y="2190.13"/><use href="#Q" x="4109.8" y="2148.59"/><use href="#b"/><use href="#Q" x="3513.94" y="2326.07"/><use href="#B" x="3840.44" y="5596.16"/><use href="#X" x="3509.86" y="936.47"/><use href="#C" x="4126.13" y="5192.12"/><use href="#B" x="3869.01" y="5324.28"/><use href="#C" x="3869.01" y="5173.24"/><use href="#Q" x="3942.47" y="1631.27"/><use href="#V" x="2914" y="1110.17"/><use href="#C" x="3799.63" y="4969.33"/><use href="#B" x="3803.71" y="4969.33"/><use href="#b" x="130.6" y="-830.74"/><path d="M1005.56 2782.24c0 4.17-3.65 7.55-8.162 7.55s-8.163-3.38-8.163-7.55 3.655-7.56 8.163-7.56 8.162 3.39 8.162 7.56z"/><use href="#c"/><use href="#L" x="1599.843" y="4882.48"/><use href="#d"/><use href="#K" x="3379.26" y="5161.91"/><use href="#e"/><use href="#B" x="3375.18" y="5452.67"/><use href="#D" x="3105.82" y="5124.15"/><use href="#K" x="3567" y="5335.61"/><use href="#C" x="3301.72" y="4882.48"/><use href="#C" x="791.76" y="4852.27"/><use href="#Q" x="1261.1" y="2284.53"/><use href="#L" x="106.112" y="5596.16"/><path d="M-712.639 3631.86c0 4.17-3.654 7.55-8.162 7.55s-8.163-3.38-8.163-7.55c0-4.18 3.655-7.56 8.163-7.56s8.162 3.38 8.162 7.56z"/><use href="#c" x="-1656.98" y="838.29"/><use href="#K" x="950.93" y="5913.35"/><use href="#V" x="265.28" y="2152.37"/><use href="#U" x="497.91" y="2344.95"/><path d="M-1149.33 3911.29c0 4.17-3.65 7.55-8.16 7.55s-8.17-3.38-8.17-7.55c0-4.18 3.66-7.56 8.17-7.56s8.16 3.38 8.16 7.56z"/><use href="#L" x="159.168" y="6147.47"/><use href="#C" x="359.15" y="6109.71"/><use href="#C" x="550.97" y="5822.73"/><use href="#B" x="32.65" y="6494.87"/><use href="#Q" x="465.26" y="3047.3"/><use href="#C" x="265.28" y="6638.36"/><use href="#E" x="395.88" y="5331.83"/><use href="#e" x="-3375.18" y="1427.36"/><use href="#K" x="689.73" y="5807.62"/><use href="#d" x="-930.521" y="-3981.88"/><path d="M-71.885-1328.03c0 4.17-3.654 7.55-8.162 7.55s-8.162-3.38-8.162-7.55 3.654-7.56 8.162-7.56 8.162 3.39 8.162 7.56z"/><use href="#N" x="281.605" y="1312.19"/><use href="#H" x="440.773" y="-147.267"/><use href="#N" x="759.109" y="1172.47"/><use href="#L" x="1261.101" y="945.91"/><use href="#I" x="579.535" y="-305.863"/><use href="#I" x="910.115" y="-264.326"/><use href="#f"/><use href="#g"/><use href="#F" x="3775.14" y="-9.44"/><use href="#J" x="897.871" y="-560.749"/><use href="#I" x="1003.983" y="-139.715"/><use href="#C" x="3411.91" y="1229.12"/><use href="#C" x="3636.38" y="983.67"/><use href="#E" x="3873.09" y="-356.84"/><use href="#C" x="3440.48" y="957.24"/><use href="#Q" x="3746.57" y="-2546.97"/><use href="#D" x="3109.9" y="579.63"/><use href="#U" x="2718.1" y="-3068.07"/><use href="#Q" x="3677.19" y="-2750.88"/><use href="#C" x="3375.18" y="602.29"/><use href="#K" x="3346.61" y="655.15"/><use href="#M" x="1567.193" y="1051.64"/><use href="#L" x="1440.675" y="624.94"/><use href="#Z" x="865.221" y="-3502.32"/><use href="#N" x="1085.608" y="730.67"/><use href="#N" x="1350.888" y="1028.98"/><use href="#N" x="1334.563" y="1115.83"/><use href="#a" x="636.672" y="-3260.65"/><use href="#Y" x="1632.493" y="-3154.92"/><use href="#N" x="1538.625" y="1202.68"/><use href="#L" x="1669.224" y="375.72"/><use href="#K" x="1191.72" y="558.86"/><use href="#R" y="-2511.1"/><use href="#X" x="563.21" y="-3319.18"/><use href="#D" x="669.32" y="917.59"/><use href="#S" x="359.15" y="-2412.92"/><use href="#C" x="616.27" y="1238.56"/><use href="#F" x="3718" y="698.576"/><use href="#I" x="1101.933" y="681.584"/><use href="#f" x="-265.28" y="1006.327"/><use href="#g" x="-167.33" y="1085.625"/><use href="#f" x="-204.06" y="1119.61"/><use href="#H" x="1428.431" y="1104.505"/><use href="#L" x="1077.445" y="4976.88"/><use href="#N" x="824.409" y="5335.61"/><use href="#L" x="889.709" y="5267.64"/><use href="#N" x="787.678" y="5758.53"/><use href="#M" x="1367.213" y="5596.16"/><use href="#W" x="3342.53" y="-887.38"/><use href="#B" x="3869.01" y="3511.76"/><use href="#B" x="3640.46" y="3760.98"/><use href="#Q" x="3909.82" y="392.71"/><use href="#D" x="3677.19" y="3300.3"/><use href="#L" x="1077.445" y="4976.88"/><use href="#N" x="824.409" y="5335.61"/><use href="#L" x="889.709" y="5267.64"/><use href="#N" x="787.678" y="5758.53"/><use href="#M" x="1367.213" y="5596.16"/><use href="#X" x="2811.97" y="2171.25"/><use href="#B" x="3407.83" y="6627.03"/><use href="#L" x="1746.767" y="6547.73"/><use href="#W" x="2885.43" y="2692.35"/><use href="#C" x="3542.51" y="6642.14"/></g><defs ><path id="B" d="M-2308.4-2402.33c0 4.17-3.66 7.55-8.16 7.55-4.51 0-8.17-3.38-8.17-7.55s3.66-7.55 8.17-7.55c4.5 0 8.16 3.38 8.16 7.55z"/><path id="C" d="M-2194.13-2307.93c0 4.17-3.65 7.55-8.16 7.55s-8.16-3.38-8.16-7.55 3.65-7.55 8.16-7.55 8.16 3.38 8.16 7.55z"/><path id="D" d="M-1867.63-2081.36c0 4.17-3.65 7.55-8.16 7.55s-8.16-3.38-8.16-7.55 3.65-7.56 8.16-7.56 8.16 3.39 8.16 7.56z"/><path id="E" d="M-2255.34-1031.61c0 4.17-3.66 7.55-8.17 7.55s-8.16-3.38-8.16-7.55 3.65-7.55 8.16-7.55 8.17 3.38 8.17 7.55z"/><path id="F" d="M-2365.54-974.97c0 4.171-3.65 7.552-8.16 7.552s-8.16-3.381-8.16-7.552 3.65-7.552 8.16-7.552 8.16 3.381 8.16 7.552z"/><path id="G" d="M-2185.96-453.87c0 4.171-3.66 7.552-8.17 7.552-4.5 0-8.16-3.381-8.16-7.552s3.66-7.552 8.16-7.552c4.51 0 8.17 3.381 8.17 7.552z"/><path id="H" d="M-549.389-757.845c0 4.171-3.655 7.552-8.163 7.552s-8.162-3.381-8.162-7.552 3.654-7.552 8.162-7.552 8.163 3.381 8.163 7.552z"/><path id="I" d="M-190.241-667.219c0 4.171-3.654 7.552-8.162 7.552s-8.163-3.381-8.163-7.552 3.655-7.552 8.163-7.552 8.162 3.381 8.162 7.552z"/><path id="J" d="M21.983-204.648c0 4.171-3.654 7.552-8.162 7.552s-8.162-3.381-8.162-7.552 3.654-7.552 8.162-7.552 8.162 3.381 8.162 7.552z"/><path id="K" d="M-2296.16-2251.29c0 4.17-3.65 7.56-8.16 7.56s-8.16-3.39-8.16-7.56 3.65-7.55 8.16-7.55 8.16 3.38 8.16 7.55z"/><path id="L" d="M-875.888-2073.81c0 4.17-3.654 7.55-8.162 7.55s-8.163-3.38-8.163-7.55 3.655-7.55 8.163-7.55 8.162 3.38 8.162 7.55z"/><path id="M" d="M-875.888-2542.05c0 4.18-3.654 7.56-8.162 7.56s-8.163-3.38-8.163-7.56c0-4.17 3.655-7.55 8.163-7.55s8.162 3.38 8.162 7.55z"/><path id="N" d="M-582.039-2391c0 4.17-3.655 7.55-8.163 7.55s-8.162-3.38-8.162-7.55 3.654-7.55 8.162-7.55 8.163 3.38 8.163 7.55z"/><path id="O" d="M-377.978-2145.56c0 4.17-3.654 7.56-8.162 7.56s-8.162-3.39-8.162-7.56 3.654-7.55 8.162-7.55 8.162 3.38 8.162 7.55z"/><path id="P" d="M-1941.09 490.152c0 4.171-3.65 7.552-8.16 7.552s-8.16-3.381-8.16-7.552 3.65-7.553 8.16-7.553 8.16 3.382 8.16 7.553z"/><path id="Q" d="M-2385.94 1139.64c0 4.17-3.66 7.55-8.17 7.55-4.5 0-8.16-3.38-8.16-7.55s3.66-7.55 8.16-7.55c4.51 0 8.17 3.38 8.17 7.55z"/><path id="R" d="M-1545.21 1109.43c0 4.17-3.65 7.55-8.16 7.55s-8.17-3.38-8.17-7.55 3.66-7.55 8.17-7.55 8.16 3.38 8.16 7.55z"/><path id="S" d="M-1488.07 1218.94c0 4.17-3.66 7.55-8.17 7.55-4.5 0-8.16-3.38-8.16-7.55s3.66-7.56 8.16-7.56c4.51 0 8.17 3.39 8.17 7.56z"/><path id="T" d="M-2128.83 1249.15c0 4.17-3.65 7.55-8.16 7.55s-8.16-3.38-8.16-7.55c0-4.18 3.65-7.56 8.16-7.56s8.16 3.38 8.16 7.56z"/><path id="U" d="M-1537.05 1509.69c0 4.18-3.65 7.56-8.16 7.56s-8.16-3.38-8.16-7.56c0-4.17 3.65-7.55 8.16-7.55s8.16 3.38 8.16 7.55z"/><path id="V" d="M-1418.69 1604.1c0 4.17-3.66 7.55-8.16 7.55-4.51 0-8.17-3.38-8.17-7.55s3.66-7.56 8.17-7.56c4.5 0 8.16 3.39 8.16 7.56z"/><path id="W" d="M-1822.73 1955.27c0 4.17-3.66 7.56-8.17 7.56-4.5 0-8.16-3.39-8.16-7.56s3.66-7.55 8.16-7.55c4.51 0 8.17 3.38 8.17 7.55z"/><path id="X" d="M-1753.35 2011.91c0 4.18-3.66 7.56-8.17 7.56-4.5 0-8.16-3.38-8.16-7.56 0-4.17 3.66-7.55 8.16-7.55 4.51 0 8.17 3.38 8.17 7.55z"/><path id="Y" d="M-708.557 1925.06c0 4.18-3.655 7.56-8.163 7.56s-8.162-3.38-8.162-7.56c0-4.17 3.654-7.55 8.162-7.55s8.163 3.38 8.163 7.55z"/><path id="Z" d="M-455.521 2038.35c0 4.17-3.654 7.55-8.162 7.55s-8.163-3.38-8.163-7.55 3.655-7.56 8.163-7.56 8.162 3.39 8.162 7.56z"/><path id="a" d="M115.852 2038.35c0 4.17-3.655 7.55-8.163 7.55s-8.162-3.38-8.162-7.55 3.654-7.56 8.162-7.56 8.163 3.39 8.163 7.56z"/><path id="b" d="M1234.11 3507.25c0 4.17-3.66 7.55-8.16 7.55-4.51 0-8.17-3.38-8.17-7.55 0-4.18 3.66-7.56 8.17-7.56 4.5 0 8.16 3.38 8.16 7.56z"/><path id="c" d="M879.042 2823.77c0 4.17-3.655 7.56-8.163 7.56s-8.162-3.39-8.162-7.56 3.654-7.55 8.162-7.55 8.163 3.38 8.163 7.55z"/><path id="d" d="M817.823 2612.31c0 4.17-3.654 7.55-8.162 7.55s-8.162-3.38-8.162-7.55 3.654-7.55 8.162-7.55 8.162 3.38 8.162 7.55z"/><path id="e" d="M1066.78 2997.47c0 4.17-3.66 7.56-8.16 7.56-4.51 0-8.17-3.39-8.17-7.56s3.66-7.55 8.17-7.55c4.5 0 8.16 3.38 8.16 7.55z"/><path id="f" d="M1532.04-897.56c0 4.171-3.66 7.552-8.16 7.552-4.51 0-8.17-3.381-8.17-7.552s3.66-7.552 8.17-7.552c4.5 0 8.16 3.381 8.16 7.552z"/><path id="g" d="M1425.93-833.367c0 4.171-3.66 7.553-8.17 7.553-4.5 0-8.16-3.382-8.16-7.553s3.66-7.552 8.16-7.552c4.51 0 8.17 3.381 8.17 7.552z"/></defs></svg>