<svg width="4371" height="7300" viewBox="0 0 4371 7300" fill="none" xmlns="http://www.w3.org/2000/svg">
<path d="M130.599 241.67C130.599 245.84 126.945 249.222 122.437 249.222C117.929 249.222 114.275 245.84 114.275 241.67C114.275 237.499 117.929 234.117 122.437 234.117C126.945 234.117 130.599 237.499 130.599 241.67Z" fill="white"/>
<path d="M244.874 336.072C244.874 340.243 241.219 343.624 236.711 343.624C232.203 343.624 228.549 340.243 228.549 336.072C228.549 331.901 232.203 328.52 236.711 328.52C241.219 328.52 244.874 331.901 244.874 336.072Z" fill="white"/>
<path d="M571.373 562.637C571.373 566.808 567.718 570.189 563.21 570.189C558.702 570.189 555.048 566.808 555.048 562.637C555.048 558.466 558.702 555.085 563.21 555.085C567.718 555.085 571.373 558.466 571.373 562.637Z" fill="white"/>
<path d="M69.381 1517.99C69.381 1522.16 65.7265 1525.54 61.2185 1525.54C56.7105 1525.54 53.056 1522.16 53.056 1517.99C53.056 1513.82 56.7105 1510.43 61.2185 1510.43C65.7265 1510.43 69.381 1513.82 69.381 1517.99Z" fill="white"/>
<path d="M183.655 1612.39C183.655 1616.56 180.001 1619.94 175.493 1619.94C170.985 1619.94 167.331 1616.56 167.331 1612.39C167.331 1608.22 170.985 1604.84 175.493 1604.84C180.001 1604.84 183.655 1608.22 183.655 1612.39Z" fill="white"/>
<path d="M73.4622 1669.03C73.4622 1673.2 69.8077 1676.58 65.2997 1676.58C60.7917 1676.58 57.1373 1673.2 57.1373 1669.03C57.1373 1664.86 60.7917 1661.48 65.2997 1661.48C69.8077 1661.48 73.4622 1664.86 73.4622 1669.03Z" fill="white"/>
<path d="M1595.76 2292.08C1595.76 2296.26 1592.11 2299.64 1587.6 2299.64C1583.09 2299.64 1579.44 2296.26 1579.44 2292.08C1579.44 2287.91 1583.09 2284.53 1587.6 2284.53C1592.11 2284.53 1595.76 2287.91 1595.76 2292.08Z" fill="white"/>
<path d="M1632.49 2333.62C1632.49 2337.79 1628.84 2341.17 1624.33 2341.17C1619.82 2341.17 1616.17 2337.79 1616.17 2333.62C1616.17 2329.45 1619.82 2326.07 1624.33 2326.07C1628.84 2326.07 1632.49 2329.45 1632.49 2333.62Z" fill="white"/>
<path d="M253.036 2190.13C253.036 2194.3 249.382 2197.68 244.874 2197.68C240.366 2197.68 236.711 2194.3 236.711 2190.13C236.711 2185.96 240.366 2182.58 244.874 2182.58C249.382 2182.58 253.036 2185.96 253.036 2190.13Z" fill="white"/>
<path d="M1889.61 1886.16C1889.61 1890.33 1885.96 1893.71 1881.45 1893.71C1876.94 1893.71 1873.29 1890.33 1873.29 1886.16C1873.29 1881.98 1876.94 1878.6 1881.45 1878.6C1885.96 1878.6 1889.61 1881.98 1889.61 1886.16Z" fill="white"/>
<path d="M1893.69 2439.35C1893.69 2443.52 1890.04 2446.9 1885.53 2446.9C1881.02 2446.9 1877.37 2443.52 1877.37 2439.35C1877.37 2435.18 1881.02 2431.8 1885.53 2431.8C1890.04 2431.8 1893.69 2435.18 1893.69 2439.35Z" fill="white"/>
<path d="M2081.43 2529.98C2081.43 2534.15 2077.77 2537.53 2073.27 2537.53C2068.76 2537.53 2065.1 2534.15 2065.1 2529.98C2065.1 2525.81 2068.76 2522.43 2073.27 2522.43C2077.77 2522.43 2081.43 2525.81 2081.43 2529.98Z" fill="white"/>
<path d="M2248.76 1976.78C2248.76 1980.95 2245.1 1984.33 2240.6 1984.33C2236.09 1984.33 2232.43 1980.95 2232.43 1976.78C2232.43 1972.61 2236.09 1969.23 2240.6 1969.23C2245.1 1969.23 2248.76 1972.61 2248.76 1976.78Z" fill="white"/>
<path d="M2530.36 2409.14C2530.36 2413.31 2526.71 2416.7 2522.2 2416.7C2517.69 2416.7 2514.04 2413.31 2514.04 2409.14C2514.04 2404.97 2517.69 2401.59 2522.2 2401.59C2526.71 2401.59 2530.36 2404.97 2530.36 2409.14Z" fill="white"/>
<path d="M2460.98 2439.35C2460.98 2443.52 2457.33 2446.9 2452.82 2446.9C2448.31 2446.9 2444.66 2443.52 2444.66 2439.35C2444.66 2435.18 2448.31 2431.8 2452.82 2431.8C2457.33 2431.8 2460.98 2435.18 2460.98 2439.35Z" fill="white"/>
<path d="M2526.28 2854.72C2526.28 2858.89 2522.63 2862.27 2518.12 2862.27C2513.61 2862.27 2509.96 2858.89 2509.96 2854.72C2509.96 2850.55 2513.61 2847.17 2518.12 2847.17C2522.63 2847.17 2526.28 2850.55 2526.28 2854.72Z" fill="white"/>
<path d="M4081.23 3183.24C4081.23 3187.41 4077.58 3190.79 4073.07 3190.79C4068.56 3190.79 4064.91 3187.41 4064.91 3183.24C4064.91 3179.07 4068.56 3175.69 4073.07 3175.69C4077.58 3175.69 4081.23 3179.07 4081.23 3183.24Z" fill="white"/>
<path d="M2199.78 2624.38C2199.78 2628.55 2196.13 2631.93 2191.62 2631.93C2187.11 2631.93 2183.46 2628.55 2183.46 2624.38C2183.46 2620.21 2187.11 2616.83 2191.62 2616.83C2196.13 2616.83 2199.78 2620.21 2199.78 2624.38Z" fill="white"/>
<path d="M2093.67 2684.8C2093.67 2688.97 2090.02 2692.35 2085.51 2692.35C2081 2692.35 2077.35 2688.97 2077.35 2684.8C2077.35 2680.63 2081 2677.25 2085.51 2677.25C2090.02 2677.25 2093.67 2680.63 2093.67 2684.8Z" fill="white"/>
<path d="M142.843 392.713C142.843 396.884 139.189 400.265 134.681 400.265C130.173 400.265 126.518 396.884 126.518 392.713C126.518 388.542 130.173 385.161 134.681 385.161C139.189 385.161 142.843 388.542 142.843 392.713Z" fill="white"/>
<path d="M510.154 147.267C510.154 151.438 506.5 154.82 501.992 154.82C497.484 154.82 493.829 151.438 493.829 147.267C493.829 143.096 497.484 139.715 501.992 139.715C506.5 139.715 510.154 143.096 510.154 147.267Z" fill="white"/>
<path d="M579.535 117.059C579.535 121.23 575.881 124.611 571.373 124.611C566.865 124.611 563.21 121.23 563.21 117.059C563.21 112.888 566.865 109.507 571.373 109.507C575.881 109.507 579.535 112.888 579.535 117.059Z" fill="white"/>
<path d="M522.398 7.55217C522.398 11.7231 518.743 15.1043 514.235 15.1043C509.727 15.1043 506.073 11.7231 506.073 7.55217C506.073 3.38122 509.727 0 514.235 0C518.743 0 522.398 3.38122 522.398 7.55217Z" fill="white"/>
<path d="M1371.29 396.489C1371.29 400.66 1367.64 404.041 1363.13 404.041C1358.62 404.041 1354.97 400.66 1354.97 396.489C1354.97 392.318 1358.62 388.937 1363.13 388.937C1367.64 388.937 1371.29 392.318 1371.29 396.489Z" fill="white"/>
<path d="M1563.11 570.189C1563.11 574.36 1559.46 577.741 1554.95 577.741C1550.44 577.741 1546.79 574.36 1546.79 570.189C1546.79 566.018 1550.44 562.637 1554.95 562.637C1559.46 562.637 1563.11 566.018 1563.11 570.189Z" fill="white"/>
<path d="M1563.11 101.954C1563.11 106.125 1559.46 109.507 1554.95 109.507C1550.44 109.507 1546.79 106.125 1546.79 101.954C1546.79 97.7834 1550.44 94.4022 1554.95 94.4022C1559.46 94.4022 1563.11 97.7834 1563.11 101.954Z" fill="white"/>
<path d="M1603.92 147.267C1603.92 151.438 1600.27 154.82 1595.76 154.82C1591.25 154.82 1587.6 151.438 1587.6 147.267C1587.6 143.096 1591.25 139.715 1595.76 139.715C1600.27 139.715 1603.92 143.096 1603.92 147.267Z" fill="white"/>
<path d="M1856.96 252.998C1856.96 257.169 1853.31 260.55 1848.8 260.55C1844.29 260.55 1840.64 257.169 1840.64 252.998C1840.64 248.827 1844.29 245.446 1848.8 245.446C1853.31 245.446 1856.96 248.827 1856.96 252.998Z" fill="white"/>
<path d="M2048.78 347.4C2048.78 351.571 2045.12 354.952 2040.62 354.952C2036.11 354.952 2032.45 351.571 2032.45 347.4C2032.45 343.229 2036.11 339.848 2040.62 339.848C2045.12 339.848 2048.78 343.229 2048.78 347.4Z" fill="white"/>
<path d="M2167.13 441.802C2167.13 445.973 2163.48 449.354 2158.97 449.354C2154.46 449.354 2150.81 445.973 2150.81 441.802C2150.81 437.631 2154.46 434.25 2158.97 434.25C2163.48 434.25 2167.13 437.631 2167.13 441.802Z" fill="white"/>
<path d="M2061.02 498.443C2061.02 502.614 2057.37 505.996 2052.86 505.996C2048.35 505.996 2044.7 502.614 2044.7 498.443C2044.7 494.272 2048.35 490.891 2052.86 490.891C2057.37 490.891 2061.02 494.272 2061.02 498.443Z" fill="white"/>
<path d="M2077.35 15.1043C2077.35 19.2753 2073.69 22.6565 2069.18 22.6565C2064.68 22.6565 2061.02 19.2753 2061.02 15.1043C2061.02 10.9334 2064.68 7.55217 2069.18 7.55217C2073.69 7.55217 2077.35 10.9334 2077.35 15.1043Z" fill="white"/>
<path d="M2436.5 113.283C2436.5 117.454 2432.84 120.835 2428.33 120.835C2423.83 120.835 2420.17 117.454 2420.17 113.283C2420.17 109.112 2423.83 105.73 2428.33 105.73C2432.84 105.73 2436.5 109.112 2436.5 113.283Z" fill="white"/>
<path d="M2497.71 222.789C2497.71 226.96 2494.06 230.341 2489.55 230.341C2485.04 230.341 2481.39 226.96 2481.39 222.789C2481.39 218.618 2485.04 215.237 2489.55 215.237C2494.06 215.237 2497.71 218.618 2497.71 222.789Z" fill="white"/>
<path d="M2432.41 256.774C2432.41 260.945 2428.76 264.326 2424.25 264.326C2419.74 264.326 2416.09 260.945 2416.09 256.774C2416.09 252.603 2419.74 249.222 2424.25 249.222C2428.76 249.222 2432.41 252.603 2432.41 256.774Z" fill="white"/>
<path d="M2489.55 668.367C2489.55 672.538 2485.9 675.919 2481.39 675.919C2476.88 675.919 2473.23 672.538 2473.23 668.367C2473.23 664.196 2476.88 660.815 2481.39 660.815C2485.9 660.815 2489.55 664.196 2489.55 668.367Z" fill="white"/>
<path d="M2432.41 3198.35C2432.41 3202.52 2428.76 3205.9 2424.25 3205.9C2419.74 3205.9 2416.09 3202.52 2416.09 3198.35C2416.09 3194.17 2419.74 3190.79 2424.25 3190.79C2428.76 3190.79 2432.41 3194.17 2432.41 3198.35Z" fill="white"/>
<path d="M1714.12 3447.57C1714.12 3451.74 1710.46 3455.12 1705.96 3455.12C1701.45 3455.12 1697.79 3451.74 1697.79 3447.57C1697.79 3443.4 1701.45 3440.01 1705.96 3440.01C1710.46 3440.01 1714.12 3443.4 1714.12 3447.57Z" fill="white"/>
<path d="M1354.97 3349.39C1354.97 3353.56 1351.31 3356.94 1346.81 3356.94C1342.3 3356.94 1338.64 3353.56 1338.64 3349.39C1338.64 3345.22 1342.3 3341.84 1346.81 3341.84C1351.31 3341.84 1354.97 3345.22 1354.97 3349.39Z" fill="white"/>
<path d="M1599.84 2756.54C1599.84 2760.71 1596.19 2764.1 1591.68 2764.1C1587.17 2764.1 1583.52 2760.71 1583.52 2756.54C1583.52 2752.37 1587.17 2748.99 1591.68 2748.99C1596.19 2748.99 1599.84 2752.37 1599.84 2756.54Z" fill="white"/>
<path d="M1403.94 2582.84C1403.94 2587.01 1400.29 2590.4 1395.78 2590.4C1391.27 2590.4 1387.62 2587.01 1387.62 2582.84C1387.62 2578.67 1391.27 2575.29 1395.78 2575.29C1400.29 2575.29 1403.94 2578.67 1403.94 2582.84Z" fill="white"/>
<path d="M534.641 2798.08C534.641 2802.25 530.987 2805.63 526.479 2805.63C521.971 2805.63 518.317 2802.25 518.317 2798.08C518.317 2793.91 521.971 2790.53 526.479 2790.53C530.987 2790.53 534.641 2793.91 534.641 2798.08Z" fill="white"/>
<path d="M893.79 2900.03C893.79 2904.21 890.135 2907.59 885.627 2907.59C881.119 2907.59 877.465 2904.21 877.465 2900.03C877.465 2895.86 881.119 2892.48 885.627 2892.48C890.135 2892.48 893.79 2895.86 893.79 2900.03Z" fill="white"/>
<path d="M946.846 3005.76C946.846 3009.94 943.191 3013.32 938.683 3013.32C934.175 3013.32 930.521 3009.94 930.521 3005.76C930.521 3001.59 934.175 2998.21 938.683 2998.21C943.191 2998.21 946.846 3001.59 946.846 3005.76Z" fill="white"/>
<path d="M881.546 3039.75C881.546 3043.92 877.892 3047.3 873.384 3047.3C868.876 3047.3 865.221 3043.92 865.221 3039.75C865.221 3035.58 868.876 3032.2 873.384 3032.2C877.892 3032.2 881.546 3035.58 881.546 3039.75Z" fill="white"/>
<path d="M310.174 3035.97C310.174 3040.14 306.519 3043.53 302.011 3043.53C297.503 3043.53 293.849 3040.14 293.849 3035.97C293.849 3031.8 297.503 3028.42 302.011 3028.42C306.519 3028.42 310.174 3031.8 310.174 3035.97Z" fill="white"/>
<path d="M497.91 3134.15C497.91 3138.32 494.256 3141.7 489.748 3141.7C485.24 3141.7 481.585 3138.32 481.585 3134.15C481.585 3129.98 485.24 3126.6 489.748 3126.6C494.256 3126.6 497.91 3129.98 497.91 3134.15Z" fill="white"/>
<path d="M616.266 3228.55C616.266 3232.72 612.612 3236.11 608.104 3236.11C603.596 3236.11 599.941 3232.72 599.941 3228.55C599.941 3224.38 603.596 3221 608.104 3221C612.612 3221 616.266 3224.38 616.266 3228.55Z" fill="white"/>
<path d="M510.154 3285.2C510.154 3289.37 506.5 3292.75 501.992 3292.75C497.484 3292.75 493.829 3289.37 493.829 3285.2C493.829 3281.02 497.484 3277.64 501.992 3277.64C506.5 3277.64 510.154 3281.02 510.154 3285.2Z" fill="white"/>
<path d="M16.3249 2892.48C16.3249 2896.65 12.6705 2900.03 8.16247 2900.03C3.65446 2900.03 0 2896.65 0 2892.48C0 2888.31 3.65446 2884.93 8.16247 2884.93C12.6705 2884.93 16.3249 2888.31 16.3249 2892.48Z" fill="white"/>
<path d="M57.1373 2930.24C57.1373 2934.41 53.4828 2937.8 48.9748 2937.8C44.4668 2937.8 40.8123 2934.41 40.8123 2930.24C40.8123 2926.07 44.4668 2922.69 48.9748 2922.69C53.4828 2922.69 57.1373 2926.07 57.1373 2930.24Z" fill="white"/>
<path d="M16.3249 3356.94C16.3249 3361.11 12.6705 3364.49 8.16247 3364.49C3.65446 3364.49 0 3361.11 0 3356.94C0 3352.77 3.65446 3349.39 8.16247 3349.39C12.6705 3349.39 16.3249 3352.77 16.3249 3356.94Z" fill="white"/>
<path d="M16.3249 3745.88C16.3249 3750.05 12.6705 3753.43 8.16247 3753.43C3.65446 3753.43 0 3750.05 0 3745.88C0 3741.71 3.65446 3738.33 8.16247 3738.33C12.6705 3738.33 16.3249 3741.71 16.3249 3745.88Z" fill="white"/>
<path d="M53.056 3783.64C53.056 3787.81 49.4016 3791.19 44.8936 3791.19C40.3856 3791.19 36.7311 3787.81 36.7311 3783.64C36.7311 3779.47 40.3856 3776.09 44.8936 3776.09C49.4016 3776.09 53.056 3779.47 53.056 3783.64Z" fill="white"/>
<path d="M530.56 3651.48C530.56 3655.65 526.906 3659.03 522.398 3659.03C517.89 3659.03 514.235 3655.65 514.235 3651.48C514.235 3647.3 517.89 3643.92 522.398 3643.92C526.906 3643.92 530.56 3647.3 530.56 3651.48Z" fill="white"/>
<path d="M648.916 3734.55C648.916 3738.72 645.262 3742.1 640.754 3742.1C636.246 3742.1 632.591 3738.72 632.591 3734.55C632.591 3730.38 636.246 3727 640.754 3727C645.262 3727 648.916 3730.38 648.916 3734.55Z" fill="white"/>
<path d="M840.734 3443.79C840.734 3447.96 837.079 3451.34 832.571 3451.34C828.063 3451.34 824.409 3447.96 824.409 3443.79C824.409 3439.62 828.063 3436.24 832.571 3436.24C837.079 3436.24 840.734 3439.62 840.734 3443.79Z" fill="white"/>
<path d="M877.465 3477.78C877.465 3481.95 873.811 3485.33 869.303 3485.33C864.795 3485.33 861.14 3481.95 861.14 3477.78C861.14 3473.6 864.795 3470.22 869.303 3470.22C873.811 3470.22 877.465 3473.6 877.465 3477.78Z" fill="white"/>
<path d="M942.765 3451.34C942.765 3455.51 939.11 3458.9 934.602 3458.9C930.094 3458.9 926.44 3455.51 926.44 3451.34C926.44 3447.17 930.094 3443.79 934.602 3443.79C939.11 3443.79 942.765 3447.17 942.765 3451.34Z" fill="white"/>
<path d="M893.79 3753.43C893.79 3757.6 890.135 3760.98 885.627 3760.98C881.119 3760.98 877.465 3757.6 877.465 3753.43C877.465 3749.26 881.119 3745.88 885.627 3745.88C890.135 3745.88 893.79 3749.26 893.79 3753.43Z" fill="white"/>
<path d="M881.546 3893.15C881.546 3897.32 877.892 3900.7 873.384 3900.7C868.876 3900.7 865.221 3897.32 865.221 3893.15C865.221 3888.97 868.876 3885.59 873.384 3885.59C877.892 3885.59 881.546 3888.97 881.546 3893.15Z" fill="white"/>
<path d="M840.734 3904.47C840.734 3908.64 837.079 3912.03 832.571 3912.03C828.063 3912.03 824.409 3908.64 824.409 3904.47C824.409 3900.3 828.063 3896.92 832.571 3896.92C837.079 3896.92 840.734 3900.3 840.734 3904.47Z" fill="white"/>
<path d="M950.927 3862.94C950.927 3867.11 947.273 3870.49 942.765 3870.49C938.257 3870.49 934.602 3867.11 934.602 3862.94C934.602 3858.77 938.257 3855.38 942.765 3855.38C947.273 3855.38 950.927 3858.77 950.927 3862.94Z" fill="white"/>
<path d="M1330.48 3832.73C1330.48 3836.9 1326.83 3840.28 1322.32 3840.28C1317.81 3840.28 1314.16 3836.9 1314.16 3832.73C1314.16 3828.56 1317.81 3825.18 1322.32 3825.18C1326.83 3825.18 1330.48 3828.56 1330.48 3832.73Z" fill="white"/>
<path d="M1444.76 3776.09C1444.76 3780.26 1441.1 3783.64 1436.59 3783.64C1432.09 3783.64 1428.43 3780.26 1428.43 3776.09C1428.43 3771.92 1432.09 3768.53 1436.59 3768.53C1441.1 3768.53 1444.76 3771.92 1444.76 3776.09Z" fill="white"/>
<path d="M1322.32 3681.68C1322.32 3685.86 1318.66 3689.24 1314.16 3689.24C1309.65 3689.24 1305.99 3685.86 1305.99 3681.68C1305.99 3677.51 1309.65 3674.13 1314.16 3674.13C1318.66 3674.13 1322.32 3677.51 1322.32 3681.68Z" fill="white"/>
<path d="M1134.58 3587.28C1134.58 3591.45 1130.93 3594.83 1126.42 3594.83C1121.91 3594.83 1118.26 3591.45 1118.26 3587.28C1118.26 3583.11 1121.91 3579.73 1126.42 3579.73C1130.93 3579.73 1134.58 3583.11 1134.58 3587.28Z" fill="white"/>
<path d="M310.174 3893.15C310.174 3897.32 306.519 3900.7 302.011 3900.7C297.503 3900.7 293.849 3897.32 293.849 3893.15C293.849 3888.97 297.503 3885.59 302.011 3885.59C306.519 3885.59 310.174 3888.97 310.174 3893.15Z" fill="white"/>
<path d="M501.992 3987.55C501.992 3991.72 498.337 3995.1 493.829 3995.1C489.321 3995.1 485.667 3991.72 485.667 3987.55C485.667 3983.38 489.321 3979.99 493.829 3979.99C498.337 3979.99 501.992 3983.38 501.992 3987.55Z" fill="white"/>
<path d="M620.347 4081.95C620.347 4086.12 616.693 4089.5 612.185 4089.5C607.677 4089.5 604.022 4086.12 604.022 4081.95C604.022 4077.78 607.677 4074.4 612.185 4074.4C616.693 4074.4 620.347 4077.78 620.347 4081.95Z" fill="white"/>
<path d="M510.154 4138.59C510.154 4142.76 506.5 4146.14 501.992 4146.14C497.484 4146.14 493.829 4142.76 493.829 4138.59C493.829 4134.42 497.484 4131.04 501.992 4131.04C506.5 4131.04 510.154 4134.42 510.154 4138.59Z" fill="white"/>
<path d="M901.952 4153.7C901.952 4157.87 898.298 4161.25 893.79 4161.25C889.282 4161.25 885.627 4157.87 885.627 4153.7C885.627 4149.52 889.282 4146.14 893.79 4146.14C898.298 4146.14 901.952 4149.52 901.952 4153.7Z" fill="white"/>
<path d="M910.115 4304.74C910.115 4308.91 906.46 4312.29 901.952 4312.29C897.444 4312.29 893.79 4308.91 893.79 4304.74C893.79 4300.57 897.444 4297.19 901.952 4297.19C906.46 4297.19 910.115 4300.57 910.115 4304.74Z" fill="white"/>
<path d="M942.765 4308.51C942.765 4312.69 939.11 4316.07 934.602 4316.07C930.094 4316.07 926.44 4312.69 926.44 4308.51C926.44 4304.34 930.094 4300.96 934.602 4300.96C939.11 4300.96 942.765 4304.34 942.765 4308.51Z" fill="white"/>
<path d="M1020.31 4248.1C1020.31 4252.27 1016.65 4255.65 1012.15 4255.65C1007.64 4255.65 1003.98 4252.27 1003.98 4248.1C1003.98 4243.93 1007.64 4240.54 1012.15 4240.54C1016.65 4240.54 1020.31 4243.93 1020.31 4248.1Z" fill="white"/>
<path d="M624.429 4535.08C624.429 4539.25 620.774 4542.63 616.266 4542.63C611.758 4542.63 608.104 4539.25 608.104 4535.08C608.104 4530.91 611.758 4527.53 616.266 4527.53C620.774 4527.53 624.429 4530.91 624.429 4535.08Z" fill="white"/>
<path d="M616.266 4599.27C616.266 4603.44 612.612 4606.83 608.104 4606.83C603.596 4606.83 599.941 4603.44 599.941 4599.27C599.941 4595.1 603.596 4591.72 608.104 4591.72C612.612 4591.72 616.266 4595.1 616.266 4599.27Z" fill="white"/>
<path d="M685.647 4655.91C685.647 4660.09 681.993 4663.47 677.485 4663.47C672.977 4663.47 669.322 4660.09 669.322 4655.91C669.322 4651.74 672.977 4648.36 677.485 4648.36C681.993 4648.36 685.647 4651.74 685.647 4655.91Z" fill="white"/>
<path d="M587.697 4735.21C587.697 4739.38 584.043 4742.76 579.535 4742.76C575.027 4742.76 571.373 4739.38 571.373 4735.21C571.373 4731.04 575.027 4727.66 579.535 4727.66C584.043 4727.66 587.697 4731.04 587.697 4735.21Z" fill="white"/>
<path d="M114.275 4633.26C114.275 4637.43 110.62 4640.81 106.112 4640.81C101.604 4640.81 97.9496 4637.43 97.9496 4633.26C97.9496 4629.09 101.604 4625.71 106.112 4625.71C110.62 4625.71 114.275 4629.09 114.275 4633.26Z" fill="white"/>
<path d="M159.168 4671.02C159.168 4675.19 155.514 4678.57 151.006 4678.57C146.498 4678.57 142.843 4675.19 142.843 4671.02C142.843 4666.85 146.498 4663.47 151.006 4663.47C155.514 4663.47 159.168 4666.85 159.168 4671.02Z" fill="white"/>
<path d="M16.3249 4217.89C16.3249 4222.06 12.6705 4225.44 8.16247 4225.44C3.65446 4225.44 0 4222.06 0 4217.89C0 4213.72 3.65446 4210.34 8.16247 4210.34C12.6705 4210.34 16.3249 4213.72 16.3249 4217.89Z" fill="white"/>
<path d="M399.961 4780.53C399.961 4784.7 396.306 4788.08 391.798 4788.08C387.29 4788.08 383.636 4784.7 383.636 4780.53C383.636 4776.35 387.29 4772.97 391.798 4772.97C396.306 4772.97 399.961 4776.35 399.961 4780.53Z" fill="white"/>
<path d="M473.423 4965.55C473.423 4969.72 469.769 4973.11 465.261 4973.11C460.753 4973.11 457.098 4969.72 457.098 4965.55C457.098 4961.38 460.753 4958 465.261 4958C469.769 4958 473.423 4961.38 473.423 4965.55Z" fill="white"/>
<path d="M612.185 5014.64C612.185 5018.81 608.53 5022.2 604.022 5022.2C599.514 5022.2 595.86 5018.81 595.86 5014.64C595.86 5010.47 599.514 5007.09 604.022 5007.09C608.53 5007.09 612.185 5010.47 612.185 5014.64Z" fill="white"/>
<path d="M718.297 4958C718.297 4962.17 714.642 4965.55 710.134 4965.55C705.626 4965.55 701.972 4962.17 701.972 4958C701.972 4953.83 705.626 4950.45 710.134 4950.45C714.642 4950.45 718.297 4953.83 718.297 4958Z" fill="white"/>
<path d="M706.053 4803.18C706.053 4807.35 702.399 4810.73 697.891 4810.73C693.383 4810.73 689.728 4807.35 689.728 4803.18C689.728 4799.01 693.383 4795.63 697.891 4795.63C702.399 4795.63 706.053 4799.01 706.053 4803.18Z" fill="white"/>
<path d="M861.14 4746.54C861.14 4750.71 857.486 4754.09 852.978 4754.09C848.47 4754.09 844.815 4750.71 844.815 4746.54C844.815 4742.37 848.47 4738.99 852.978 4738.99C857.486 4738.99 861.14 4742.37 861.14 4746.54Z" fill="white"/>
<path d="M991.74 4633.26C991.74 4637.43 988.085 4640.81 983.577 4640.81C979.069 4640.81 975.415 4637.43 975.415 4633.26C975.415 4629.09 979.069 4625.71 983.577 4625.71C988.085 4625.71 991.74 4629.09 991.74 4633.26Z" fill="white"/>
<path d="M1689.63 4531.3C1689.63 4535.47 1685.98 4538.86 1681.47 4538.86C1676.96 4538.86 1673.31 4535.47 1673.31 4531.3C1673.31 4527.13 1676.96 4523.75 1681.47 4523.75C1685.98 4523.75 1689.63 4527.13 1689.63 4531.3Z" fill="white"/>
<path d="M1730.44 4569.06C1730.44 4573.24 1726.79 4576.62 1722.28 4576.62C1717.77 4576.62 1714.12 4573.24 1714.12 4569.06C1714.12 4564.89 1717.77 4561.51 1722.28 4561.51C1726.79 4561.51 1730.44 4564.89 1730.44 4569.06Z" fill="white"/>
<path d="M1983.48 4682.35C1983.48 4686.52 1979.82 4689.9 1975.32 4689.9C1970.81 4689.9 1967.15 4686.52 1967.15 4682.35C1967.15 4678.18 1970.81 4674.79 1975.32 4674.79C1979.82 4674.79 1983.48 4678.18 1983.48 4682.35Z" fill="white"/>
<path d="M2207.95 4436.9C2207.95 4441.07 2204.29 4444.45 2199.78 4444.45C2195.28 4444.45 2191.62 4441.07 2191.62 4436.9C2191.62 4432.73 2195.28 4429.35 2199.78 4429.35C2204.29 4429.35 2207.95 4432.73 2207.95 4436.9Z" fill="white"/>
<path d="M2571.18 4546.41C2571.18 4550.58 2567.52 4553.96 2563.01 4553.96C2558.51 4553.96 2554.85 4550.58 2554.85 4546.41C2554.85 4542.24 2558.51 4538.86 2563.01 4538.86C2567.52 4538.86 2571.18 4542.24 2571.18 4546.41Z" fill="white"/>
<path d="M2628.31 4644.59C2628.31 4648.76 2624.66 4652.14 2620.15 4652.14C2615.64 4652.14 2611.99 4648.76 2611.99 4644.59C2611.99 4640.42 2615.64 4637.03 2620.15 4637.03C2624.66 4637.03 2628.31 4640.42 2628.31 4644.59Z" fill="white"/>
<path d="M2554.85 4682.35C2554.85 4686.52 2551.2 4689.9 2546.69 4689.9C2542.18 4689.9 2538.53 4686.52 2538.53 4682.35C2538.53 4678.18 2542.18 4674.79 2546.69 4674.79C2551.2 4674.79 2554.85 4678.18 2554.85 4682.35Z" fill="white"/>
<path d="M2640.56 5547.07C2640.56 5551.24 2636.9 5554.62 2632.39 5554.62C2627.89 5554.62 2624.23 5551.24 2624.23 5547.07C2624.23 5542.9 2627.89 5539.52 2632.39 5539.52C2636.9 5539.52 2640.56 5542.9 2640.56 5547.07Z" fill="white"/>
<path d="M2681.37 5588.61C2681.37 5592.78 2677.72 5596.16 2673.21 5596.16C2668.7 5596.16 2665.04 5592.78 2665.04 5588.61C2665.04 5584.44 2668.7 5581.06 2673.21 5581.06C2677.72 5581.06 2681.37 5584.44 2681.37 5588.61Z" fill="white"/>
<path d="M2452.82 5837.83C2452.82 5842 2449.17 5845.38 2444.66 5845.38C2440.15 5845.38 2436.5 5842 2436.5 5837.83C2436.5 5833.66 2440.15 5830.28 2444.66 5830.28C2449.17 5830.28 2452.82 5833.66 2452.82 5837.83Z" fill="white"/>
<path d="M2644.64 6011.53C2644.64 6015.7 2640.98 6019.08 2636.48 6019.08C2631.97 6019.08 2628.31 6015.7 2628.31 6011.53C2628.31 6007.36 2631.97 6003.98 2636.48 6003.98C2640.98 6003.98 2644.64 6007.36 2644.64 6011.53Z" fill="white"/>
<path d="M2930.33 5698.11C2930.33 5702.29 2926.67 5705.67 2922.16 5705.67C2917.65 5705.67 2914 5702.29 2914 5698.11C2914 5693.94 2917.65 5690.56 2922.16 5690.56C2926.67 5690.56 2930.33 5693.94 2930.33 5698.11Z" fill="white"/>
<path d="M3138.47 5788.74C3138.47 5792.91 3134.81 5796.29 3130.31 5796.29C3125.8 5796.29 3122.14 5792.91 3122.14 5788.74C3122.14 5784.57 3125.8 5781.19 3130.31 5781.19C3134.81 5781.19 3138.47 5784.57 3138.47 5788.74Z" fill="white"/>
<path d="M3142.55 5943.56C3142.55 5947.73 3138.89 5951.11 3134.39 5951.11C3129.88 5951.11 3126.22 5947.73 3126.22 5943.56C3126.22 5939.39 3129.88 5936.01 3134.39 5936.01C3138.89 5936.01 3142.55 5939.39 3142.55 5943.56Z" fill="white"/>
<path d="M3473.13 5985.1C3473.13 5989.27 3469.47 5992.65 3464.97 5992.65C3460.46 5992.65 3456.8 5989.27 3456.8 5985.1C3456.8 5980.93 3460.46 5977.54 3464.97 5977.54C3469.47 5977.54 3473.13 5980.93 3473.13 5985.1Z" fill="white"/>
<path d="M4285.29 6019.08C4285.29 6023.25 4281.64 6026.63 4277.13 6026.63C4272.62 6026.63 4268.97 6023.25 4268.97 6019.08C4268.97 6014.91 4272.62 6011.53 4277.13 6011.53C4281.64 6011.53 4285.29 6014.91 4285.29 6019.08Z" fill="white"/>
<path d="M4179.18 6083.28C4179.18 6087.45 4175.53 6090.83 4171.02 6090.83C4166.51 6090.83 4162.86 6087.45 4162.86 6083.28C4162.86 6079.1 4166.51 6075.72 4171.02 6075.72C4175.53 6075.72 4179.18 6079.1 4179.18 6083.28Z" fill="white"/>
<path d="M4162.86 5932.23C4162.86 5936.4 4159.2 5939.78 4154.69 5939.78C4150.19 5939.78 4146.53 5936.4 4146.53 5932.23C4146.53 5928.06 4150.19 5924.68 4154.69 5924.68C4159.2 5924.68 4162.86 5928.06 4162.86 5932.23Z" fill="white"/>
<path d="M3673.11 6151.24C3673.11 6155.42 3669.45 6158.8 3664.95 6158.8C3660.44 6158.8 3656.78 6155.42 3656.78 6151.24C3656.78 6147.07 3660.44 6143.69 3664.95 6143.69C3669.45 6143.69 3673.11 6147.07 3673.11 6151.24Z" fill="white"/>
<path d="M3567 6109.71C3567 6113.88 3563.34 6117.26 3558.83 6117.26C3554.33 6117.26 3550.67 6113.88 3550.67 6109.71C3550.67 6105.54 3554.33 6102.16 3558.83 6102.16C3563.34 6102.16 3567 6105.54 3567 6109.71Z" fill="white"/>
<path d="M3971.04 5837.83C3971.04 5842 3967.38 5845.38 3962.88 5845.38C3958.37 5845.38 3954.71 5842 3954.71 5837.83C3954.71 5833.66 3958.37 5830.28 3962.88 5830.28C3967.38 5830.28 3971.04 5833.66 3971.04 5837.83Z" fill="white"/>
<path d="M4195.51 5592.38C4195.51 5596.56 4191.85 5599.94 4187.34 5599.94C4182.84 5599.94 4179.18 5596.56 4179.18 5592.38C4179.18 5588.21 4182.84 5584.83 4187.34 5584.83C4191.85 5584.83 4195.51 5588.21 4195.51 5592.38Z" fill="white"/>
<path d="M4371 5528.19C4371 5532.36 4367.35 5535.74 4362.84 5535.74C4358.33 5535.74 4354.68 5532.36 4354.68 5528.19C4354.68 5524.02 4358.33 5520.64 4362.84 5520.64C4367.35 5520.64 4371 5524.02 4371 5528.19Z" fill="white"/>
<path d="M3999.61 5565.95C3999.61 5570.12 3995.95 5573.5 3991.45 5573.5C3986.94 5573.5 3983.28 5570.12 3983.28 5565.95C3983.28 5561.78 3986.94 5558.4 3991.45 5558.4C3995.95 5558.4 3999.61 5561.78 3999.61 5565.95Z" fill="white"/>
<path d="M4113.88 5509.31C4113.88 5513.48 4110.23 5516.86 4105.72 5516.86C4101.21 5516.86 4097.56 5513.48 4097.56 5509.31C4097.56 5505.14 4101.21 5501.76 4105.72 5501.76C4110.23 5501.76 4113.88 5505.14 4113.88 5509.31Z" fill="white"/>
<path d="M3995.53 5414.91C3995.53 5419.08 3991.87 5422.46 3987.36 5422.46C3982.86 5422.46 3979.2 5419.08 3979.2 5414.91C3979.2 5410.74 3982.86 5407.36 3987.36 5407.36C3991.87 5407.36 3995.53 5410.74 3995.53 5414.91Z" fill="white"/>
<path d="M3934.31 5358.27C3934.31 5362.44 3930.65 5365.82 3926.15 5365.82C3921.64 5365.82 3917.98 5362.44 3917.98 5358.27C3917.98 5354.1 3921.64 5350.71 3926.15 5350.71C3930.65 5350.71 3934.31 5354.1 3934.31 5358.27Z" fill="white"/>
<path d="M4044.5 5305.4C4044.5 5309.57 4040.85 5312.95 4036.34 5312.95C4031.83 5312.95 4028.18 5309.57 4028.18 5305.4C4028.18 5301.23 4031.83 5297.85 4036.34 5297.85C4040.85 5297.85 4044.5 5301.23 4044.5 5305.4Z" fill="white"/>
<path d="M3934.31 5211C3934.31 5215.17 3930.65 5218.55 3926.15 5218.55C3921.64 5218.55 3917.98 5215.17 3917.98 5211C3917.98 5206.83 3921.64 5203.45 3926.15 5203.45C3930.65 5203.45 3934.31 5206.83 3934.31 5211Z" fill="white"/>
<path d="M3803.71 5320.51C3803.71 5324.68 3800.05 5328.06 3795.55 5328.06C3791.04 5328.06 3787.38 5324.68 3787.38 5320.51C3787.38 5316.33 3791.04 5312.95 3795.55 5312.95C3800.05 5312.95 3803.71 5316.33 3803.71 5320.51Z" fill="white"/>
<path d="M3444.56 5426.24C3444.56 5430.41 3440.91 5433.79 3436.4 5433.79C3431.89 5433.79 3428.24 5430.41 3428.24 5426.24C3428.24 5422.07 3431.89 5418.68 3436.4 5418.68C3440.91 5418.68 3444.56 5422.07 3444.56 5426.24Z" fill="white"/>
<path d="M3318.04 5467.77C3318.04 5471.94 3314.39 5475.33 3309.88 5475.33C3305.37 5475.33 3301.72 5471.94 3301.72 5467.77C3301.72 5463.6 3305.37 5460.22 3309.88 5460.22C3314.39 5460.22 3318.04 5463.6 3318.04 5467.77Z" fill="white"/>
<path d="M3162.96 5452.67C3162.96 5456.84 3159.3 5460.22 3154.79 5460.22C3150.28 5460.22 3146.63 5456.84 3146.63 5452.67C3146.63 5448.5 3150.28 5445.12 3154.79 5445.12C3159.3 5445.12 3162.96 5448.5 3162.96 5452.67Z" fill="white"/>
<path d="M3256.82 5256.31C3256.82 5260.48 3253.17 5263.86 3248.66 5263.86C3244.15 5263.86 3240.5 5260.48 3240.5 5256.31C3240.5 5252.14 3244.15 5248.76 3248.66 5248.76C3253.17 5248.76 3256.82 5252.14 3256.82 5256.31Z" fill="white"/>
<path d="M3522.1 5554.62C3522.1 5558.79 3518.45 5562.18 3513.94 5562.18C3509.43 5562.18 3505.78 5558.79 3505.78 5554.62C3505.78 5550.45 3509.43 5547.07 3513.94 5547.07C3518.45 5547.07 3522.1 5550.45 3522.1 5554.62Z" fill="white"/>
<path d="M3505.78 5641.47C3505.78 5645.64 3502.12 5649.03 3497.62 5649.03C3493.11 5649.03 3489.45 5645.64 3489.45 5641.47C3489.45 5637.3 3493.11 5633.92 3497.62 5633.92C3502.12 5633.92 3505.78 5637.3 3505.78 5641.47Z" fill="white"/>
<path d="M3505.78 5694.34C3505.78 5698.51 3502.12 5701.89 3497.62 5701.89C3493.11 5701.89 3489.45 5698.51 3489.45 5694.34C3489.45 5690.17 3493.11 5686.79 3497.62 5686.79C3502.12 5686.79 3505.78 5690.17 3505.78 5694.34Z" fill="white"/>
<path d="M3677.19 5686.79C3677.19 5690.96 3673.54 5694.34 3669.03 5694.34C3664.52 5694.34 3660.87 5690.96 3660.87 5686.79C3660.87 5682.62 3664.52 5679.23 3669.03 5679.23C3673.54 5679.23 3677.19 5682.62 3677.19 5686.79Z" fill="white"/>
<path d="M3709.84 5728.32C3709.84 5732.49 3706.19 5735.88 3701.68 5735.88C3697.17 5735.88 3693.52 5732.49 3693.52 5728.32C3693.52 5724.15 3697.17 5720.77 3701.68 5720.77C3706.19 5720.77 3709.84 5724.15 3709.84 5728.32Z" fill="white"/>
<path d="M3546.59 5218.55C3546.59 5222.72 3542.94 5226.1 3538.43 5226.1C3533.92 5226.1 3530.27 5222.72 3530.27 5218.55C3530.27 5214.38 3533.92 5211 3538.43 5211C3542.94 5211 3546.59 5214.38 3546.59 5218.55Z" fill="white"/>
<path d="M1036.63 5188.34C1036.63 5192.51 1032.98 5195.89 1028.47 5195.89C1023.96 5195.89 1020.31 5192.51 1020.31 5188.34C1020.31 5184.17 1023.96 5180.79 1028.47 5180.79C1032.98 5180.79 1036.63 5184.17 1036.63 5188.34Z" fill="white"/>
<path d="M1314.16 6068.17C1314.16 6072.34 1310.5 6075.72 1305.99 6075.72C1301.49 6075.72 1297.83 6072.34 1297.83 6068.17C1297.83 6064 1301.49 6060.62 1305.99 6060.62C1310.5 6060.62 1314.16 6064 1314.16 6068.17Z" fill="white"/>
<path d="M1669.22 6166.35C1669.22 6170.52 1665.57 6173.9 1661.06 6173.9C1656.55 6173.9 1652.9 6170.52 1652.9 6166.35C1652.9 6162.18 1656.55 6158.8 1661.06 6158.8C1665.57 6158.8 1669.22 6162.18 1669.22 6166.35Z" fill="white"/>
<path d="M1726.36 6275.86C1726.36 6280.03 1722.71 6283.41 1718.2 6283.41C1713.69 6283.41 1710.04 6280.03 1710.04 6275.86C1710.04 6271.68 1713.69 6268.3 1718.2 6268.3C1722.71 6268.3 1726.36 6271.68 1726.36 6275.86Z" fill="white"/>
<path d="M1661.06 6306.06C1661.06 6310.24 1657.41 6313.62 1652.9 6313.62C1648.39 6313.62 1644.74 6310.24 1644.74 6306.06C1644.74 6301.89 1648.39 6298.51 1652.9 6298.51C1657.41 6298.51 1661.06 6301.89 1661.06 6306.06Z" fill="white"/>
<path d="M1093.77 6306.06C1093.77 6310.24 1090.12 6313.62 1085.61 6313.62C1081.1 6313.62 1077.45 6310.24 1077.45 6306.06C1077.45 6301.89 1081.1 6298.51 1085.61 6298.51C1090.12 6298.51 1093.77 6301.89 1093.77 6306.06Z" fill="white"/>
<path d="M1285.59 6400.47C1285.59 6404.64 1281.93 6408.02 1277.43 6408.02C1272.92 6408.02 1269.26 6404.64 1269.26 6400.47C1269.26 6396.3 1272.92 6392.91 1277.43 6392.91C1281.93 6392.91 1285.59 6396.3 1285.59 6400.47Z" fill="white"/>
<path d="M1399.86 6498.64C1399.86 6502.82 1396.21 6506.2 1391.7 6506.2C1387.19 6506.2 1383.54 6502.82 1383.54 6498.64C1383.54 6494.47 1387.19 6491.09 1391.7 6491.09C1396.21 6491.09 1399.86 6494.47 1399.86 6498.64Z" fill="white"/>
<path d="M1289.67 6555.29C1289.67 6559.46 1286.02 6562.84 1281.51 6562.84C1277 6562.84 1273.34 6559.46 1273.34 6555.29C1273.34 6551.11 1277 6547.73 1281.51 6547.73C1286.02 6547.73 1289.67 6551.11 1289.67 6555.29Z" fill="white"/>
<path d="M1722.28 6717.66C1722.28 6721.83 1718.63 6725.21 1714.12 6725.21C1709.61 6725.21 1705.96 6721.83 1705.96 6717.66C1705.96 6713.49 1709.61 6710.11 1714.12 6710.11C1718.63 6710.11 1722.28 6713.49 1722.28 6717.66Z" fill="white"/>
<path d="M604.022 6445.78C604.022 6449.95 600.368 6453.33 595.86 6453.33C591.352 6453.33 587.697 6449.95 587.697 6445.78C587.697 6441.61 591.352 6438.23 595.86 6438.23C600.368 6438.23 604.022 6441.61 604.022 6445.78Z" fill="white"/>
<path d="M795.84 6158.8C795.84 6162.97 792.186 6166.35 787.678 6166.35C783.17 6166.35 779.515 6162.97 779.515 6158.8C779.515 6154.63 783.17 6151.24 787.678 6151.24C792.186 6151.24 795.84 6154.63 795.84 6158.8Z" fill="white"/>
<path d="M163.249 6736.54C163.249 6740.71 159.595 6744.09 155.087 6744.09C150.579 6744.09 146.924 6740.71 146.924 6736.54C146.924 6732.37 150.579 6728.99 155.087 6728.99C159.595 6728.99 163.249 6732.37 163.249 6736.54Z" fill="white"/>
<path d="M518.317 6830.94C518.317 6835.11 514.662 6838.49 510.154 6838.49C505.646 6838.49 501.992 6835.11 501.992 6830.94C501.992 6826.77 505.646 6823.39 510.154 6823.39C514.662 6823.39 518.317 6826.77 518.317 6830.94Z" fill="white"/>
<path d="M510.154 6974.43C510.154 6978.6 506.5 6981.98 501.992 6981.98C497.484 6981.98 493.829 6978.6 493.829 6974.43C493.829 6970.26 497.484 6966.88 501.992 6966.88C506.5 6966.88 510.154 6970.26 510.154 6974.43Z" fill="white"/>
<path d="M579.535 6944.22C579.535 6948.39 575.881 6951.78 571.373 6951.78C566.865 6951.78 563.21 6948.39 563.21 6944.22C563.21 6940.05 566.865 6936.67 571.373 6936.67C575.881 6936.67 579.535 6940.05 579.535 6944.22Z" fill="white"/>
<path d="M130.599 7068.83C130.599 7073 126.945 7076.39 122.437 7076.39C117.929 7076.39 114.275 7073 114.275 7068.83C114.275 7064.66 117.929 7061.28 122.437 7061.28C126.945 7061.28 130.599 7064.66 130.599 7068.83Z" fill="white"/>
<path d="M832.571 6200.33C832.571 6204.51 828.917 6207.89 824.409 6207.89C819.901 6207.89 816.246 6204.51 816.246 6200.33C816.246 6196.16 819.901 6192.78 824.409 6192.78C828.917 6192.78 832.571 6196.16 832.571 6200.33Z" fill="white"/>
<path d="M2326.3 1274.43C2326.3 1278.6 2322.65 1281.98 2318.14 1281.98C2313.63 1281.98 2309.98 1278.6 2309.98 1274.43C2309.98 1270.26 2313.63 1266.88 2318.14 1266.88C2322.65 1266.88 2326.3 1270.26 2326.3 1274.43Z" fill="white"/>
<path d="M2367.11 1315.97C2367.11 1320.14 2363.46 1323.52 2358.95 1323.52C2354.44 1323.52 2350.79 1320.14 2350.79 1315.97C2350.79 1311.8 2354.44 1308.41 2358.95 1308.41C2363.46 1308.41 2367.11 1311.8 2367.11 1315.97Z" fill="white"/>
<path d="M2138.57 1565.19C2138.57 1569.36 2134.91 1572.74 2130.4 1572.74C2125.9 1572.74 2122.24 1569.36 2122.24 1565.19C2122.24 1561.02 2125.9 1557.64 2130.4 1557.64C2134.91 1557.64 2138.57 1561.02 2138.57 1565.19Z" fill="white"/>
<path d="M2330.38 1738.89C2330.38 1743.06 2326.73 1746.44 2322.22 1746.44C2317.71 1746.44 2314.06 1743.06 2314.06 1738.89C2314.06 1734.72 2317.71 1731.34 2322.22 1731.34C2326.73 1731.34 2330.38 1734.72 2330.38 1738.89Z" fill="white"/>
<path d="M2616.07 1425.47C2616.07 1429.64 2612.42 1433.02 2607.91 1433.02C2603.4 1433.02 2599.75 1429.64 2599.75 1425.47C2599.75 1421.3 2603.4 1417.92 2607.91 1417.92C2612.42 1417.92 2616.07 1421.3 2616.07 1425.47Z" fill="white"/>
<path d="M2824.21 1516.1C2824.21 1520.27 2820.56 1523.65 2816.05 1523.65C2811.54 1523.65 2807.89 1520.27 2807.89 1516.1C2807.89 1511.93 2811.54 1508.55 2816.05 1508.55C2820.56 1508.55 2824.21 1511.93 2824.21 1516.1Z" fill="white"/>
<path d="M2828.29 1670.92C2828.29 1675.09 2824.64 1678.47 2820.13 1678.47C2815.62 1678.47 2811.97 1675.09 2811.97 1670.92C2811.97 1666.75 2815.62 1663.37 2820.13 1663.37C2824.64 1663.37 2828.29 1666.75 2828.29 1670.92Z" fill="white"/>
<path d="M3158.87 1712.46C3158.87 1716.63 3155.22 1720.01 3150.71 1720.01C3146.2 1720.01 3142.55 1716.63 3142.55 1712.46C3142.55 1708.28 3146.2 1704.9 3150.71 1704.9C3155.22 1704.9 3158.87 1708.28 3158.87 1712.46Z" fill="white"/>
<path d="M3971.04 1746.44C3971.04 1750.61 3967.38 1753.99 3962.88 1753.99C3958.37 1753.99 3954.71 1750.61 3954.71 1746.44C3954.71 1742.27 3958.37 1738.89 3962.88 1738.89C3967.38 1738.89 3971.04 1742.27 3971.04 1746.44Z" fill="white"/>
<path d="M3864.93 1810.63C3864.93 1814.8 3861.27 1818.19 3856.76 1818.19C3852.26 1818.19 3848.6 1814.8 3848.6 1810.63C3848.6 1806.46 3852.26 1803.08 3856.76 1803.08C3861.27 1803.08 3864.93 1806.46 3864.93 1810.63Z" fill="white"/>
<path d="M3848.6 1659.59C3848.6 1663.76 3844.95 1667.14 3840.44 1667.14C3835.93 1667.14 3832.28 1663.76 3832.28 1659.59C3832.28 1655.42 3835.93 1652.04 3840.44 1652.04C3844.95 1652.04 3848.6 1655.42 3848.6 1659.59Z" fill="white"/>
<path d="M3358.85 1878.6C3358.85 1882.77 3355.2 1886.16 3350.69 1886.16C3346.18 1886.16 3342.53 1882.77 3342.53 1878.6C3342.53 1874.43 3346.18 1871.05 3350.69 1871.05C3355.2 1871.05 3358.85 1874.43 3358.85 1878.6Z" fill="white"/>
<path d="M3252.74 1837.07C3252.74 1841.24 3249.09 1844.62 3244.58 1844.62C3240.07 1844.62 3236.42 1841.24 3236.42 1837.07C3236.42 1832.9 3240.07 1829.51 3244.58 1829.51C3249.09 1829.51 3252.74 1832.9 3252.74 1837.07Z" fill="white"/>
<path d="M3656.78 1565.19C3656.78 1569.36 3653.13 1572.74 3648.62 1572.74C3644.11 1572.74 3640.46 1569.36 3640.46 1565.19C3640.46 1561.02 3644.11 1557.64 3648.62 1557.64C3653.13 1557.64 3656.78 1561.02 3656.78 1565.19Z" fill="white"/>
<path d="M3881.25 1319.74C3881.25 1323.91 3877.6 1327.29 3873.09 1327.29C3868.58 1327.29 3864.93 1323.91 3864.93 1319.74C3864.93 1315.57 3868.58 1312.19 3873.09 1312.19C3877.6 1312.19 3881.25 1315.57 3881.25 1319.74Z" fill="white"/>
<path d="M4056.75 1255.55C4056.75 1259.72 4053.09 1263.1 4048.58 1263.1C4044.07 1263.1 4040.42 1259.72 4040.42 1255.55C4040.42 1251.38 4044.07 1248 4048.58 1248C4053.09 1248 4056.75 1251.38 4056.75 1255.55Z" fill="white"/>
<path d="M3685.35 1293.31C3685.35 1297.48 3681.7 1300.86 3677.19 1300.86C3672.68 1300.86 3669.03 1297.48 3669.03 1293.31C3669.03 1289.14 3672.68 1285.76 3677.19 1285.76C3681.7 1285.76 3685.35 1289.14 3685.35 1293.31Z" fill="white"/>
<path d="M3799.63 1236.67C3799.63 1240.84 3795.97 1244.22 3791.46 1244.22C3786.96 1244.22 3783.3 1240.84 3783.3 1236.67C3783.3 1232.5 3786.96 1229.12 3791.46 1229.12C3795.97 1229.12 3799.63 1232.5 3799.63 1236.67Z" fill="white"/>
<path d="M3681.27 1142.27C3681.27 1146.44 3677.62 1149.82 3673.11 1149.82C3668.6 1149.82 3664.95 1146.44 3664.95 1142.27C3664.95 1138.1 3668.6 1134.71 3673.11 1134.71C3677.62 1134.71 3681.27 1138.1 3681.27 1142.27Z" fill="white"/>
<path d="M3620.05 1085.62C3620.05 1089.8 3616.4 1093.18 3611.89 1093.18C3607.38 1093.18 3603.73 1089.8 3603.73 1085.62C3603.73 1081.45 3607.38 1078.07 3611.89 1078.07C3616.4 1078.07 3620.05 1081.45 3620.05 1085.62Z" fill="white"/>
<path d="M3730.25 1032.76C3730.25 1036.93 3726.59 1040.31 3722.08 1040.31C3717.58 1040.31 3713.92 1036.93 3713.92 1032.76C3713.92 1028.59 3717.58 1025.21 3722.08 1025.21C3726.59 1025.21 3730.25 1028.59 3730.25 1032.76Z" fill="white"/>
<path d="M3620.05 938.357C3620.05 942.528 3616.4 945.91 3611.89 945.91C3607.38 945.91 3603.73 942.528 3603.73 938.357C3603.73 934.187 3607.38 930.805 3611.89 930.805C3616.4 930.805 3620.05 934.187 3620.05 938.357Z" fill="white"/>
<path d="M3489.45 1047.86C3489.45 1052.03 3485.8 1055.42 3481.29 1055.42C3476.78 1055.42 3473.13 1052.03 3473.13 1047.86C3473.13 1043.69 3476.78 1040.31 3481.29 1040.31C3485.8 1040.31 3489.45 1043.69 3489.45 1047.86Z" fill="white"/>
<path d="M3130.31 1153.59C3130.31 1157.77 3126.65 1161.15 3122.14 1161.15C3117.64 1161.15 3113.98 1157.77 3113.98 1153.59C3113.98 1149.42 3117.64 1146.04 3122.14 1146.04C3126.65 1146.04 3130.31 1149.42 3130.31 1153.59Z" fill="white"/>
<path d="M3003.79 1195.13C3003.79 1199.3 3000.13 1202.68 2995.62 1202.68C2991.12 1202.68 2987.46 1199.3 2987.46 1195.13C2987.46 1190.96 2991.12 1187.58 2995.62 1187.58C3000.13 1187.58 3003.79 1190.96 3003.79 1195.13Z" fill="white"/>
<path d="M2848.7 1180.03C2848.7 1184.2 2845.05 1187.58 2840.54 1187.58C2836.03 1187.58 2832.38 1184.2 2832.38 1180.03C2832.38 1175.86 2836.03 1172.47 2840.54 1172.47C2845.05 1172.47 2848.7 1175.86 2848.7 1180.03Z" fill="white"/>
<path d="M2942.57 983.671C2942.57 987.841 2938.91 991.223 2934.41 991.223C2929.9 991.223 2926.24 987.841 2926.24 983.671C2926.24 979.5 2929.9 976.118 2934.41 976.118C2938.91 976.118 2942.57 979.5 2942.57 983.671Z" fill="white"/>
<path d="M3207.85 1281.98C3207.85 1286.15 3204.19 1289.53 3199.69 1289.53C3195.18 1289.53 3191.52 1286.15 3191.52 1281.98C3191.52 1277.81 3195.18 1274.43 3199.69 1274.43C3204.19 1274.43 3207.85 1277.81 3207.85 1281.98Z" fill="white"/>
<path d="M3191.52 1368.83C3191.52 1373 3187.87 1376.38 3183.36 1376.38C3178.85 1376.38 3175.2 1373 3175.2 1368.83C3175.2 1364.66 3178.85 1361.28 3183.36 1361.28C3187.87 1361.28 3191.52 1364.66 3191.52 1368.83Z" fill="white"/>
<path d="M3191.52 1421.7C3191.52 1425.87 3187.87 1429.25 3183.36 1429.25C3178.85 1429.25 3175.2 1425.87 3175.2 1421.7C3175.2 1417.53 3178.85 1414.14 3183.36 1414.14C3187.87 1414.14 3191.52 1417.53 3191.52 1421.7Z" fill="white"/>
<path d="M3362.94 1414.14C3362.94 1418.32 3359.28 1421.7 3354.77 1421.7C3350.27 1421.7 3346.61 1418.32 3346.61 1414.14C3346.61 1409.97 3350.27 1406.59 3354.77 1406.59C3359.28 1406.59 3362.94 1409.97 3362.94 1414.14Z" fill="white"/>
<path d="M3395.59 1455.68C3395.59 1459.85 3391.93 1463.23 3387.42 1463.23C3382.92 1463.23 3379.26 1459.85 3379.26 1455.68C3379.26 1451.51 3382.92 1448.13 3387.42 1448.13C3391.93 1448.13 3395.59 1451.51 3395.59 1455.68Z" fill="white"/>
<path d="M3232.34 945.91C3232.34 950.081 3228.68 953.462 3224.17 953.462C3219.67 953.462 3216.01 950.081 3216.01 945.91C3216.01 941.739 3219.67 938.357 3224.17 938.357C3228.68 938.357 3232.34 941.739 3232.34 945.91Z" fill="white"/>
<path d="M1334.56 951.574C1334.56 955.745 1330.91 959.126 1326.4 959.126C1321.89 959.126 1318.24 955.745 1318.24 951.574C1318.24 947.403 1321.89 944.022 1326.4 944.022C1330.91 944.022 1334.56 947.403 1334.56 951.574Z" fill="white"/>
<path d="M893.79 1242.33C893.79 1246.5 890.135 1249.88 885.627 1249.88C881.119 1249.88 877.465 1246.5 877.465 1242.33C877.465 1238.16 881.119 1234.78 885.627 1234.78C890.135 1234.78 893.79 1238.16 893.79 1242.33Z" fill="white"/>
<path d="M1248.86 1336.73C1248.86 1340.91 1245.2 1344.29 1240.69 1344.29C1236.19 1344.29 1232.53 1340.91 1232.53 1336.73C1232.53 1332.56 1236.19 1329.18 1240.69 1329.18C1245.2 1329.18 1248.86 1332.56 1248.86 1336.73Z" fill="white"/>
<path d="M1240.69 1480.23C1240.69 1484.4 1237.04 1487.78 1232.53 1487.78C1228.02 1487.78 1224.37 1484.4 1224.37 1480.23C1224.37 1476.05 1228.02 1472.67 1232.53 1472.67C1237.04 1472.67 1240.69 1476.05 1240.69 1480.23Z" fill="white"/>
<path d="M1310.08 1450.02C1310.08 1454.19 1306.42 1457.57 1301.91 1457.57C1297.41 1457.57 1293.75 1454.19 1293.75 1450.02C1293.75 1445.85 1297.41 1442.46 1301.91 1442.46C1306.42 1442.46 1310.08 1445.85 1310.08 1450.02Z" fill="white"/>
<path d="M861.14 1574.63C861.14 1578.8 857.486 1582.18 852.978 1582.18C848.47 1582.18 844.815 1578.8 844.815 1574.63C844.815 1570.46 848.47 1567.08 852.978 1567.08C857.486 1567.08 861.14 1570.46 861.14 1574.63Z" fill="white"/>
<path d="M3791.46 2367.61C3791.46 2371.78 3787.81 2375.16 3783.3 2375.16C3778.79 2375.16 3775.14 2371.78 3775.14 2367.61C3775.14 2363.44 3778.79 2360.05 3783.3 2360.05C3787.81 2360.05 3791.46 2363.44 3791.46 2367.61Z" fill="white"/>
<path d="M3350.69 2658.36C3350.69 2662.54 3347.04 2665.92 3342.53 2665.92C3338.02 2665.92 3334.37 2662.54 3334.37 2658.36C3334.37 2654.19 3338.02 2650.81 3342.53 2650.81C3347.04 2650.81 3350.69 2654.19 3350.69 2658.36Z" fill="white"/>
<path d="M3705.76 2752.77C3705.76 2756.94 3702.1 2760.32 3697.6 2760.32C3693.09 2760.32 3689.43 2756.94 3689.43 2752.77C3689.43 2748.6 3693.09 2745.21 3697.6 2745.21C3702.1 2745.21 3705.76 2748.6 3705.76 2752.77Z" fill="white"/>
<path d="M3697.6 2896.26C3697.6 2900.43 3693.94 2903.81 3689.43 2903.81C3684.93 2903.81 3681.27 2900.43 3681.27 2896.26C3681.27 2892.09 3684.93 2888.71 3689.43 2888.71C3693.94 2888.71 3697.6 2892.09 3697.6 2896.26Z" fill="white"/>
<path d="M3766.98 2866.05C3766.98 2870.22 3763.32 2873.6 3758.82 2873.6C3754.31 2873.6 3750.65 2870.22 3750.65 2866.05C3750.65 2861.88 3754.31 2858.5 3758.82 2858.5C3763.32 2858.5 3766.98 2861.88 3766.98 2866.05Z" fill="white"/>
<path d="M3318.04 2990.66C3318.04 2994.83 3314.39 2998.21 3309.88 2998.21C3305.37 2998.21 3301.72 2994.83 3301.72 2990.66C3301.72 2986.49 3305.37 2983.11 3309.88 2983.11C3314.39 2983.11 3318.04 2986.49 3318.04 2990.66Z" fill="white"/>
<path d="M2640.56 5547.07C2640.56 5551.24 2636.9 5554.62 2632.39 5554.62C2627.89 5554.62 2624.23 5551.24 2624.23 5547.07C2624.23 5542.9 2627.89 5539.52 2632.39 5539.52C2636.9 5539.52 2640.56 5542.9 2640.56 5547.07Z" fill="white"/>
<path d="M2681.37 5588.61C2681.37 5592.78 2677.72 5596.16 2673.21 5596.16C2668.7 5596.16 2665.04 5592.78 2665.04 5588.61C2665.04 5584.44 2668.7 5581.06 2673.21 5581.06C2677.72 5581.06 2681.37 5584.44 2681.37 5588.61Z" fill="white"/>
<path d="M2452.82 5837.83C2452.82 5842 2449.17 5845.38 2444.66 5845.38C2440.15 5845.38 2436.5 5842 2436.5 5837.83C2436.5 5833.66 2440.15 5830.28 2444.66 5830.28C2449.17 5830.28 2452.82 5833.66 2452.82 5837.83Z" fill="white"/>
<path d="M2644.64 6011.53C2644.64 6015.7 2640.98 6019.08 2636.48 6019.08C2631.97 6019.08 2628.31 6015.7 2628.31 6011.53C2628.31 6007.36 2631.97 6003.98 2636.48 6003.98C2640.98 6003.98 2644.64 6007.36 2644.64 6011.53Z" fill="white"/>
<path d="M2930.33 5698.11C2930.33 5702.29 2926.67 5705.67 2922.16 5705.67C2917.65 5705.67 2914 5702.29 2914 5698.11C2914 5693.94 2917.65 5690.56 2922.16 5690.56C2926.67 5690.56 2930.33 5693.94 2930.33 5698.11Z" fill="white"/>
<path d="M3958.8 3711.89C3958.8 3716.06 3955.14 3719.45 3950.63 3719.45C3946.13 3719.45 3942.47 3716.06 3942.47 3711.89C3942.47 3707.72 3946.13 3704.34 3950.63 3704.34C3955.14 3704.34 3958.8 3707.72 3958.8 3711.89Z" fill="white"/>
<path d="M3999.61 3753.43C3999.61 3757.6 3995.95 3760.98 3991.45 3760.98C3986.94 3760.98 3983.28 3757.6 3983.28 3753.43C3983.28 3749.26 3986.94 3745.88 3991.45 3745.88C3995.95 3745.88 3999.61 3749.26 3999.61 3753.43Z" fill="white"/>
<path d="M3771.06 4002.65C3771.06 4006.82 3767.4 4010.2 3762.9 4010.2C3758.39 4010.2 3754.73 4006.82 3754.73 4002.65C3754.73 3998.48 3758.39 3995.1 3762.9 3995.1C3767.4 3995.1 3771.06 3998.48 3771.06 4002.65Z" fill="white"/>
<path d="M3962.88 4176.35C3962.88 4180.52 3959.22 4183.9 3954.71 4183.9C3950.21 4183.9 3946.55 4180.52 3946.55 4176.35C3946.55 4172.18 3950.21 4168.8 3954.71 4168.8C3959.22 4168.8 3962.88 4172.18 3962.88 4176.35Z" fill="white"/>
<path d="M4248.56 3862.94C4248.56 3867.11 4244.91 3870.49 4240.4 3870.49C4235.89 3870.49 4232.24 3867.11 4232.24 3862.94C4232.24 3858.77 4235.89 3855.38 4240.4 3855.38C4244.91 3855.38 4248.56 3858.77 4248.56 3862.94Z" fill="white"/>
<path d="M2640.56 5547.07C2640.56 5551.24 2636.9 5554.62 2632.39 5554.62C2627.89 5554.62 2624.23 5551.24 2624.23 5547.07C2624.23 5542.9 2627.89 5539.52 2632.39 5539.52C2636.9 5539.52 2640.56 5542.9 2640.56 5547.07Z" fill="white"/>
<path d="M2681.37 5588.61C2681.37 5592.78 2677.72 5596.16 2673.21 5596.16C2668.7 5596.16 2665.04 5592.78 2665.04 5588.61C2665.04 5584.44 2668.7 5581.06 2673.21 5581.06C2677.72 5581.06 2681.37 5584.44 2681.37 5588.61Z" fill="white"/>
<path d="M2452.82 5837.83C2452.82 5842 2449.17 5845.38 2444.66 5845.38C2440.15 5845.38 2436.5 5842 2436.5 5837.83C2436.5 5833.66 2440.15 5830.28 2444.66 5830.28C2449.17 5830.28 2452.82 5833.66 2452.82 5837.83Z" fill="white"/>
<path d="M2644.64 6011.53C2644.64 6015.7 2640.98 6019.08 2636.48 6019.08C2631.97 6019.08 2628.31 6015.7 2628.31 6011.53C2628.31 6007.36 2631.97 6003.98 2636.48 6003.98C2640.98 6003.98 2644.64 6007.36 2644.64 6011.53Z" fill="white"/>
<path d="M2930.33 5698.11C2930.33 5702.29 2926.67 5705.67 2922.16 5705.67C2917.65 5705.67 2914 5702.29 2914 5698.11C2914 5693.94 2917.65 5690.56 2922.16 5690.56C2926.67 5690.56 2930.33 5693.94 2930.33 5698.11Z" fill="white"/>
<path d="M3497.62 6827.16C3497.62 6831.33 3493.96 6834.72 3489.45 6834.72C3484.95 6834.72 3481.29 6831.33 3481.29 6827.16C3481.29 6822.99 3484.95 6819.61 3489.45 6819.61C3493.96 6819.61 3497.62 6822.99 3497.62 6827.16Z" fill="white"/>
<path d="M3538.43 6868.7C3538.43 6872.87 3534.77 6876.25 3530.27 6876.25C3525.76 6876.25 3522.1 6872.87 3522.1 6868.7C3522.1 6864.53 3525.76 6861.15 3530.27 6861.15C3534.77 6861.15 3538.43 6864.53 3538.43 6868.7Z" fill="white"/>
<path d="M3309.88 7117.92C3309.88 7122.09 3306.23 7125.47 3301.72 7125.47C3297.21 7125.47 3293.55 7122.09 3293.55 7117.92C3293.55 7113.75 3297.21 7110.37 3301.72 7110.37C3306.23 7110.37 3309.88 7113.75 3309.88 7117.92Z" fill="white"/>
<path d="M3501.7 7291.62C3501.7 7295.79 3498.04 7299.18 3493.54 7299.18C3489.03 7299.18 3485.37 7295.79 3485.37 7291.62C3485.37 7287.45 3489.03 7284.07 3493.54 7284.07C3498.04 7284.07 3501.7 7287.45 3501.7 7291.62Z" fill="white"/>
<path d="M3787.38 6978.21C3787.38 6982.38 3783.73 6985.76 3779.22 6985.76C3774.71 6985.76 3771.06 6982.38 3771.06 6978.21C3771.06 6974.04 3774.71 6970.66 3779.22 6970.66C3783.73 6970.66 3787.38 6974.04 3787.38 6978.21Z" fill="white"/>
</svg>
