<svg xmlns="http://www.w3.org/2000/svg" width="4371" height="7300" fill="none" xmlns:v="https://vecta.io/nano"><g fill="#fff"><path d="M130.599 241.67c0 4.17-3.654 7.552-8.162 7.552s-8.162-3.382-8.162-7.552 3.654-7.553 8.162-7.553 8.162 3.382 8.162 7.553z"/><use href="#B"/><use href="#B" x="326.499" y="226.565"/><path d="M69.381 1517.99c0 4.17-3.654 7.55-8.163 7.55s-8.163-3.38-8.163-7.55 3.655-7.56 8.163-7.56 8.163 3.39 8.163 7.56z"/><use href="#C"/><use href="#C" x="-110.193" y="56.64"/><use href="#D"/><use href="#E"/><use href="#F"/><use href="#G"/><use href="#E" x="261.2" y="105.73"/><use href="#H"/><use href="#H" x="167.33" y="-553.2"/><use href="#I"/><use href="#E" x="828.49" y="105.73"/><use href="#E" x="893.79" y="521.1"/><use href="#E" x="2448.74" y="849.62"/><use href="#E" x="567.29" y="290.76"/><use href="#E" x="461.18" y="351.18"/><use href="#J"/><path d="M510.154 147.267c0 4.171-3.654 7.553-8.162 7.553s-8.163-3.382-8.163-7.553 3.655-7.552 8.163-7.552 8.162 3.381 8.162 7.552z"/><use href="#J" x="436.692" y="-275.654"/><path d="M522.398 7.552c0 4.171-3.655 7.552-8.163 7.552s-8.162-3.381-8.162-7.552S509.727 0 514.235 0s8.163 3.381 8.163 7.552z"/><use href="#K"/><use href="#K" x="191.82" y="173.7"/><use href="#L"/><use href="#L" x="40.81" y="45.313"/><use href="#K" x="485.67" y="-143.491"/><path d="M2048.78 347.4c0 4.171-3.66 7.552-8.16 7.552-4.51 0-8.17-3.381-8.17-7.552s3.66-7.552 8.17-7.552c4.5 0 8.16 3.381 8.16 7.552z"/><use href="#K" x="795.84" y="45.313"/><use href="#L" x="497.91" y="396.489"/><path d="M2077.35 15.104c0 4.171-3.66 7.552-8.17 7.552-4.5 0-8.16-3.381-8.16-7.552s3.66-7.552 8.16-7.552c4.51 0 8.17 3.381 8.17 7.552z"/><use href="#M"/><use href="#K" x="1126.42" y="-173.7"/><use href="#K" x="1061.12" y="-139.715"/><use href="#K" x="1118.26" y="271.878"/><use href="#G" x="542.8" y="1312.19"/><use href="#N"/><use href="#H" x="-726.46" y="819.41"/><use href="#I" x="-930.52" y="347.4"/><use href="#I" x="-1126.42" y="173.7"/><use href="#C" x="350.986" y="1185.69"/><use href="#O"/><use href="#O" x="53.056" y="105.73"/><use href="#F" x="628.51" y="849.62"/><use href="#P"/><use href="#F" x="244.874" y="944.02"/><use href="#Q"/><use href="#R"/><path d="M16.325 2892.48c0 4.17-3.654 7.55-8.162 7.55S0 2896.65 0 2892.48s3.654-7.55 8.162-7.55 8.162 3.38 8.162 7.55zm40.812 37.76c0 4.17-3.655 7.56-8.163 7.56s-8.163-3.39-8.163-7.56 3.654-7.55 8.163-7.55 8.163 3.38 8.163 7.55zm-40.812 426.7c0 4.17-3.654 7.55-8.162 7.55S0 3361.11 0 3356.94s3.654-7.55 8.162-7.55 8.162 3.38 8.162 7.55zm0 388.94c0 4.17-3.654 7.55-8.162 7.55S0 3750.05 0 3745.88s3.654-7.55 8.162-7.55 8.162 3.38 8.162 7.55zm36.731 37.76c0 4.17-3.654 7.55-8.162 7.55s-8.163-3.38-8.163-7.55 3.654-7.55 8.163-7.55 8.162 3.38 8.162 7.55z"/><use href="#R" x="20.406" y="366.28"/><use href="#F" x="395.88" y="1544.42"/><use href="#S"/><use href="#R" x="367.311" y="192.58"/><use href="#P" x="632.591" y="415.37"/><use href="#S" x="53.056" y="309.64"/><use href="#R" x="371.392" y="607.95"/><use href="#P" x="530.56" y="868.5"/><use href="#T"/><use href="#E" x="-302.01" y="1499.11"/><use href="#U"/><use href="#V"/><use href="#E" x="-497.91" y="1253.66"/><use href="#W"/><path d="M501.992 3987.55c0 4.17-3.655 7.55-8.163 7.55s-8.162-3.38-8.162-7.55 3.654-7.56 8.162-7.56 8.163 3.39 8.163 7.56z"/><use href="#F" x="367.311" y="1891.82"/><use href="#F" x="257.118" y="1948.46"/><use href="#R" x="391.798" y="868.5"/><use href="#S" x="69.381" y="860.95"/><use href="#O" x="48.975" y="1408.48"/><use href="#N" x="-693.81" y="800.53"/><use href="#S" x="-216.305" y="1091.29"/><use href="#Q" y="1370.72"/><use href="#X"/><use href="#C" x="404.042" y="3122.82"/><use href="#S" x="-726.459" y="1189.47"/><use href="#F" x="-93.868" y="2480.89"/><path d="M16.325 4217.89c0 4.17-3.654 7.55-8.162 7.55S0 4222.06 0 4217.89s3.654-7.55 8.162-7.55 8.162 3.38 8.162 7.55z"/><use href="#W" x="89.787" y="887.38"/><use href="#Q" x="-142.843" y="1737"/><use href="#P" x="302.011" y="1978.67"/><use href="#S" x="-122.437" y="1514.21"/><use href="#F" x="453.017" y="2613.05"/><use href="#F" x="608.104" y="2556.41"/><use href="#S" x="151.006" y="1189.47"/><use href="#I" x="-840.73" y="2122.16"/><use href="#D" x="134.68" y="2276.98"/><use href="#N" x="269.36" y="1234.78"/><use href="#Y"/><use href="#Y" x="363.23" y="109.51"/><use href="#Z"/><use href="#Z" x="-73.46" y="37.76"/><use href="#Y" x="432.61" y="1110.17"/><use href="#a"/><use href="#E" x="820.33" y="3504.21"/><use href="#H" x="563.21" y="3481.55"/><use href="#b"/><use href="#H" x="1057.04" y="3258.76"/><use href="#H" x="1061.12" y="3413.58"/><use href="#N" x="1759.01" y="2537.53"/><use href="#E" x="2652.8" y="3685.46"/><use href="#G" x="2289.57" y="4197.12"/><use href="#Y" x="1954.91" y="1495.33"/><use href="#V" x="2350.79" y="2469.56"/><use href="#Y" x="1359.05" y="1672.81"/><use href="#H" x="1889.61" y="3307.85"/><use href="#c"/><use href="#E" x="2738.51" y="3194.57"/><use href="#H" x="1918.18" y="3035.97"/><use href="#E" x="2481.39" y="3175.69"/><use href="#Y" x="1787.58" y="978.01"/><use href="#N" x="2220.19" y="1910.7"/><use href="#E" x="2412.01" y="2971.78"/><use href="#H" x="1852.88" y="2681.02"/><path d="M3803.71 5320.51c0 4.17-3.66 7.55-8.16 7.55-4.51 0-8.17-3.38-8.17-7.55 0-4.18 3.66-7.56 8.17-7.56 4.5 0 8.16 3.38 8.16 7.56z"/><use href="#Z" x="816.25" y="781.65"/><use href="#I" x="787.68" y="3058.63"/><use href="#d"/><use href="#E" x="1624.33" y="2922.69"/><use href="#I" x="991.74" y="3145.48"/><use href="#e"/><use href="#H" x="1424.35" y="3164.36"/><use href="#Z" x="1048.88" y="1042.2"/><use href="#I" x="1179.48" y="3319.18"/><use href="#E" x="1914.1" y="2884.93"/><use href="#E" x="-595.86" y="2854.72"/><use href="#Y" x="-893.79" y="1631.27"/><use href="#E" x="36.73" y="3832.73"/><use href="#G" x="-163.25" y="4389.7"/><use href="#D" x="65.3" y="4013.98"/><use href="#D" x="-501.99" y="4013.98"/><use href="#N" x="-428.53" y="2952.9"/><use href="#D" x="-195.9" y="4206.56"/><path d="M1289.67 6555.29c0 4.17-3.65 7.55-8.16 7.55s-8.17-3.38-8.17-7.55c0-4.18 3.66-7.56 8.17-7.56s8.16 3.38 8.16 7.56z"/><use href="#E" x="89.79" y="4384.04"/><use href="#F" x="350.986" y="4255.65"/><use href="#T" x="-155.087" y="2295.86"/><use href="#F" x="-89.787" y="4546.41"/><use href="#S" x="-322.417" y="3387.15"/><use href="#F" x="257.118" y="4784.3"/><use href="#Q" x="-36.731" y="3715.67"/><path d="M130.599 7068.83c0 4.17-3.654 7.56-8.162 7.56s-8.162-3.39-8.162-7.56 3.654-7.55 8.162-7.55 8.162 3.38 8.162 7.55z"/><use href="#X" x="146.924" y="1544.42"/><use href="#E" x="693.81" y="-1059.19"/><use href="#Z" x="-261.2" y="-3328.62"/><use href="#Y" x="-69.38" y="-2871.71"/><use href="#E" x="697.89" y="-594.73"/><use href="#E" x="983.58" y="-908.15"/><use href="#E" x="1191.72" y="-817.52"/><use href="#E" x="1195.8" y="-662.7"/><use href="#G" x="1269.26" y="-173.7"/><use href="#H" x="1889.61" y="-783.54"/><use href="#f"/><use href="#E" x="2216.11" y="-674.03"/><use href="#I" x="828.49" y="-530.54"/><use href="#Z" x="624.43" y="-2807.52"/><use href="#E" x="2024.29" y="-768.43"/><use href="#E" x="2248.76" y="-1013.88"/><use href="#d" x="893.79" y="-4197.12"/><use href="#E" x="2052.86" y="-1040.31"/><use href="#Y" x="1591.68" y="-3200.23"/><use href="#Z" x="1052.96" y="-3502.32"/><use href="#D" x="2024.29" y="-1206.46"/><use href="#Y" x="1522.3" y="-3404.14"/><path d="M3620.05 938.357c0 4.171-3.65 7.553-8.16 7.553s-8.16-3.382-8.16-7.553 3.65-7.552 8.16-7.552 8.16 3.382 8.16 7.552z"/><use href="#I" x="959.09" y="-1361.28"/><use href="#c" x="-1065.2" y="-4438.79"/><use href="#Y" x="795.84" y="-3241.77"/><use href="#Z" x="220.39" y="-3464.56"/><path d="M2942.57 983.671c0 4.17-3.66 7.552-8.16 7.552-4.51 0-8.17-3.382-8.17-7.552s3.66-7.553 8.17-7.553c4.5 0 8.16 3.382 8.16 7.553z"/><use href="#H" x="1126.42" y="-1248"/><use href="#E" x="1559.03" y="-964.79"/><use href="#Z" x="563.21" y="-3222.89"/><use href="#c" x="-832.57" y="-4178.24"/><use href="#Y" x="1187.64" y="-2981.22"/><use href="#M" x="795.84" y="832.627"/><use href="#K" x="-36.73" y="555.085"/><use href="#S" x="53.056" y="-2201.46"/><use href="#c" x="-2946.65" y="-4255.65"/><use href="#G" x="-648.92" y="-405.93"/><use href="#U" x="-134.68" y="-2326.07"/><use href="#F" x="608.104" y="-615.5"/><use href="#Z" x="1163.15" y="-2276.98"/><use href="#D" x="1754.93" y="366.28"/><use href="#N" x="1991.64" y="-694.8"/><use href="#Y" x="1489.65" y="-1540.64"/><use href="#H" x="1685.55" y="336.07"/><use href="#E" x="1685.55" y="657.04"/><use href="#Y" x="432.61" y="1110.17"/><use href="#a"/><use href="#E" x="820.33" y="3504.21"/><use href="#H" x="563.21" y="3481.55"/><use href="#b"/><use href="#f" x="93.87" y="1901.26"/><use href="#H" x="1918.18" y="1223.45"/><use href="#H" x="1689.63" y="1472.67"/><use href="#Y" x="1754.93" y="-260.55"/><use href="#Z" x="1620.25" y="-781.65"/><use href="#Y" x="432.61" y="1110.17"/><use href="#a"/><use href="#E" x="820.33" y="3504.21"/><use href="#H" x="563.21" y="3481.55"/><use href="#b"/><use href="#f" x="-367.31" y="5016.53"/><use href="#H" x="1457" y="4338.72"/><use href="#a" x="628.51" y="1529.31"/><use href="#e" x="-4.08" y="1650.15"/><use href="#E" x="2154.89" y="4644.59"/></g><defs ><path id="B" d="M244.874 336.072c0 4.171-3.655 7.552-8.163 7.552s-8.162-3.381-8.162-7.552 3.654-7.552 8.162-7.552 8.163 3.381 8.163 7.552z"/><path id="C" d="M183.655 1612.39c0 4.17-3.654 7.55-8.162 7.55s-8.162-3.38-8.162-7.55 3.654-7.55 8.162-7.55 8.162 3.38 8.162 7.55z"/><path id="D" d="M1595.76 2292.08c0 4.18-3.65 7.56-8.16 7.56s-8.16-3.38-8.16-7.56c0-4.17 3.65-7.55 8.16-7.55s8.16 3.38 8.16 7.55z"/><path id="E" d="M1632.49 2333.62c0 4.17-3.65 7.55-8.16 7.55s-8.16-3.38-8.16-7.55 3.65-7.55 8.16-7.55 8.16 3.38 8.16 7.55z"/><path id="F" d="M253.036 2190.13c0 4.17-3.654 7.55-8.162 7.55s-8.163-3.38-8.163-7.55 3.655-7.55 8.163-7.55 8.162 3.38 8.162 7.55z"/><path id="G" d="M1889.61 1886.16c0 4.17-3.65 7.55-8.16 7.55s-8.16-3.38-8.16-7.55c0-4.18 3.65-7.56 8.16-7.56s8.16 3.38 8.16 7.56z"/><path id="H" d="M2081.43 2529.98c0 4.17-3.66 7.55-8.16 7.55-4.51 0-8.17-3.38-8.17-7.55s3.66-7.55 8.17-7.55c4.5 0 8.16 3.38 8.16 7.55z"/><path id="I" d="M2530.36 2409.14c0 4.17-3.65 7.56-8.16 7.56s-8.16-3.39-8.16-7.56 3.65-7.55 8.16-7.55 8.16 3.38 8.16 7.55z"/><path id="J" d="M142.843 392.713c0 4.171-3.654 7.552-8.162 7.552s-8.163-3.381-8.163-7.552 3.655-7.552 8.163-7.552 8.162 3.381 8.162 7.552z"/><path id="K" d="M1371.29 396.489c0 4.171-3.65 7.552-8.16 7.552s-8.16-3.381-8.16-7.552 3.65-7.552 8.16-7.552 8.16 3.381 8.16 7.552z"/><path id="L" d="M1563.11 101.954c0 4.171-3.65 7.553-8.16 7.553s-8.16-3.382-8.16-7.553 3.65-7.552 8.16-7.552 8.16 3.381 8.16 7.552z"/><path id="M" d="M2436.5 113.283c0 4.171-3.66 7.552-8.17 7.552-4.5 0-8.16-3.381-8.16-7.552s3.66-7.553 8.16-7.553c4.51 0 8.17 3.382 8.17 7.553z"/><path id="N" d="M1714.12 3447.57c0 4.17-3.66 7.55-8.16 7.55-4.51 0-8.17-3.38-8.17-7.55s3.66-7.56 8.17-7.56c4.5 0 8.16 3.39 8.16 7.56z"/><path id="O" d="M893.79 2900.03c0 4.18-3.655 7.56-8.163 7.56s-8.162-3.38-8.162-7.56c0-4.17 3.654-7.55 8.162-7.55s8.163 3.38 8.163 7.55z"/><path id="P" d="M310.174 3035.97c0 4.17-3.655 7.56-8.163 7.56s-8.162-3.39-8.162-7.56 3.654-7.55 8.162-7.55 8.163 3.38 8.163 7.55z"/><path id="Q" d="M616.266 3228.55c0 4.17-3.654 7.56-8.162 7.56s-8.163-3.39-8.163-7.56 3.655-7.55 8.163-7.55 8.162 3.38 8.162 7.55z"/><path id="R" d="M510.154 3285.2c0 4.17-3.654 7.55-8.162 7.55s-8.163-3.38-8.163-7.55c0-4.18 3.655-7.56 8.163-7.56s8.162 3.38 8.162 7.56z"/><path id="S" d="M840.734 3443.79c0 4.17-3.655 7.55-8.163 7.55s-8.162-3.38-8.162-7.55 3.654-7.55 8.162-7.55 8.163 3.38 8.163 7.55z"/><path id="T" d="M950.927 3862.94c0 4.17-3.654 7.55-8.162 7.55s-8.163-3.38-8.163-7.55 3.655-7.56 8.163-7.56 8.162 3.39 8.162 7.56z"/><path id="U" d="M1444.76 3776.09c0 4.17-3.66 7.55-8.17 7.55-4.5 0-8.16-3.38-8.16-7.55s3.66-7.56 8.16-7.56c4.51 0 8.17 3.39 8.17 7.56z"/><path id="V" d="M1322.32 3681.68c0 4.18-3.66 7.56-8.16 7.56-4.51 0-8.17-3.38-8.17-7.56 0-4.17 3.66-7.55 8.17-7.55 4.5 0 8.16 3.38 8.16 7.55z"/><path id="W" d="M310.174 3893.15c0 4.17-3.655 7.55-8.163 7.55s-8.162-3.38-8.162-7.55c0-4.18 3.654-7.56 8.162-7.56s8.163 3.38 8.163 7.56z"/><path id="X" d="M685.647 4655.91c0 4.18-3.654 7.56-8.162 7.56s-8.163-3.38-8.163-7.56c0-4.17 3.655-7.55 8.163-7.55s8.162 3.38 8.162 7.55z"/><path id="Y" d="M2207.95 4436.9c0 4.17-3.66 7.55-8.17 7.55-4.5 0-8.16-3.38-8.16-7.55s3.66-7.55 8.16-7.55c4.51 0 8.17 3.38 8.17 7.55z"/><path id="Z" d="M2628.31 4644.59c0 4.17-3.65 7.55-8.16 7.55s-8.16-3.38-8.16-7.55 3.65-7.56 8.16-7.56 8.16 3.39 8.16 7.56z"/><path id="a" d="M2681.37 5588.61c0 4.17-3.65 7.55-8.16 7.55s-8.17-3.38-8.17-7.55 3.66-7.55 8.17-7.55 8.16 3.38 8.16 7.55z"/><path id="b" d="M2930.33 5698.11c0 4.18-3.66 7.56-8.17 7.56s-8.16-3.38-8.16-7.56c0-4.17 3.65-7.55 8.16-7.55s8.17 3.38 8.17 7.55z"/><path id="c" d="M4195.51 5592.38c0 4.18-3.66 7.56-8.17 7.56-4.5 0-8.16-3.38-8.16-7.56 0-4.17 3.66-7.55 8.16-7.55 4.51 0 8.17 3.38 8.17 7.55z"/><path id="d" d="M3162.96 5452.67c0 4.17-3.66 7.55-8.17 7.55s-8.16-3.38-8.16-7.55 3.65-7.55 8.16-7.55 8.17 3.38 8.17 7.55z"/><path id="e" d="M3505.78 5641.47c0 4.17-3.66 7.56-8.16 7.56-4.51 0-8.17-3.39-8.17-7.56s3.66-7.55 8.17-7.55c4.5 0 8.16 3.38 8.16 7.55z"/><path id="f" d="M3864.93 1810.63c0 4.17-3.66 7.56-8.17 7.56-4.5 0-8.16-3.39-8.16-7.56s3.66-7.55 8.16-7.55c4.51 0 8.17 3.38 8.17 7.55z"/></defs></svg>