<svg width="1512" height="1680" viewBox="0 0 1512 1680" fill="none" xmlns="http://www.w3.org/2000/svg">
<path d="M-2308.4 -2402.33C-2308.4 -2398.16 -2312.06 -2394.78 -2316.56 -2394.78C-2321.07 -2394.78 -2324.73 -2398.16 -2324.73 -2402.33C-2324.73 -2406.5 -2321.07 -2409.88 -2316.56 -2409.88C-2312.06 -2409.88 -2308.4 -2406.5 -2308.4 -2402.33Z" fill="white"/>
<path d="M-2194.13 -2307.93C-2194.13 -2303.76 -2197.78 -2300.38 -2202.29 -2300.38C-2206.8 -2300.38 -2210.45 -2303.76 -2210.45 -2307.93C-2210.45 -2312.1 -2206.8 -2315.48 -2202.29 -2315.48C-2197.78 -2315.48 -2194.13 -2312.1 -2194.13 -2307.93Z" fill="white"/>
<path d="M-1867.63 -2081.36C-1867.63 -2077.19 -1871.28 -2073.81 -1875.79 -2073.81C-1880.3 -2073.81 -1883.95 -2077.19 -1883.95 -2081.36C-1883.95 -2085.53 -1880.3 -2088.92 -1875.79 -2088.92C-1871.28 -2088.92 -1867.63 -2085.53 -1867.63 -2081.36Z" fill="white"/>
<path d="M-2369.62 -1126.01C-2369.62 -1121.84 -2373.27 -1118.46 -2377.78 -1118.46C-2382.29 -1118.46 -2385.94 -1121.84 -2385.94 -1126.01C-2385.94 -1130.18 -2382.29 -1133.57 -2377.78 -1133.57C-2373.27 -1133.57 -2369.62 -1130.18 -2369.62 -1126.01Z" fill="white"/>
<path d="M-2255.34 -1031.61C-2255.34 -1027.44 -2259 -1024.06 -2263.51 -1024.06C-2268.02 -1024.06 -2271.67 -1027.44 -2271.67 -1031.61C-2271.67 -1035.78 -2268.02 -1039.16 -2263.51 -1039.16C-2259 -1039.16 -2255.34 -1035.78 -2255.34 -1031.61Z" fill="white"/>
<path d="M-2365.54 -974.97C-2365.54 -970.799 -2369.19 -967.418 -2373.7 -967.418C-2378.21 -967.418 -2381.86 -970.799 -2381.86 -974.97C-2381.86 -979.141 -2378.21 -982.522 -2373.7 -982.522C-2369.19 -982.522 -2365.54 -979.141 -2365.54 -974.97Z" fill="white"/>
<path d="M-843.238 -351.916C-843.238 -347.745 -846.893 -344.363 -851.401 -344.363C-855.909 -344.363 -859.563 -347.745 -859.563 -351.916C-859.563 -356.086 -855.909 -359.468 -851.401 -359.468C-846.893 -359.468 -843.238 -356.086 -843.238 -351.916Z" fill="white"/>
<path d="M-806.507 -310.379C-806.507 -306.208 -810.161 -302.826 -814.669 -302.826C-819.177 -302.826 -822.832 -306.208 -822.832 -310.379C-822.832 -314.55 -819.177 -317.931 -814.669 -317.931C-810.161 -317.931 -806.507 -314.55 -806.507 -310.379Z" fill="white"/>
<path d="M-2185.96 -453.87C-2185.96 -449.699 -2189.62 -446.318 -2194.13 -446.318C-2198.63 -446.318 -2202.29 -449.699 -2202.29 -453.87C-2202.29 -458.041 -2198.63 -461.422 -2194.13 -461.422C-2189.62 -461.422 -2185.96 -458.041 -2185.96 -453.87Z" fill="white"/>
<path d="M-549.389 -757.845C-549.389 -753.674 -553.044 -750.293 -557.552 -750.293C-562.06 -750.293 -565.714 -753.674 -565.714 -757.845C-565.714 -762.016 -562.06 -765.397 -557.552 -765.397C-553.044 -765.397 -549.389 -762.016 -549.389 -757.845Z" fill="white"/>
<path d="M-545.308 -204.648C-545.308 -200.477 -548.963 -197.096 -553.471 -197.096C-557.979 -197.096 -561.633 -200.477 -561.633 -204.648C-561.633 -208.819 -557.979 -212.2 -553.471 -212.2C-548.963 -212.2 -545.308 -208.819 -545.308 -204.648Z" fill="white"/>
<path d="M-357.571 -114.022C-357.571 -109.851 -361.226 -106.47 -365.734 -106.47C-370.242 -106.47 -373.896 -109.851 -373.896 -114.022C-373.896 -118.193 -370.242 -121.574 -365.734 -121.574C-361.226 -121.574 -357.571 -118.193 -357.571 -114.022Z" fill="white"/>
<path d="M-190.241 -667.219C-190.241 -663.048 -193.895 -659.667 -198.403 -659.667C-202.911 -659.667 -206.566 -663.048 -206.566 -667.219C-206.566 -671.39 -202.911 -674.771 -198.403 -674.771C-193.895 -674.771 -190.241 -671.39 -190.241 -667.219Z" fill="white"/>
<path d="M91.3643 -234.857C91.3643 -230.686 87.7099 -227.305 83.2019 -227.305C78.6939 -227.305 75.0393 -230.686 75.0393 -234.857C75.0393 -239.028 78.6939 -242.409 83.2019 -242.409C87.7099 -242.409 91.3643 -239.028 91.3643 -234.857Z" fill="white"/>
<path d="M21.9832 -204.648C21.9832 -200.477 18.3288 -197.096 13.8208 -197.096C9.3128 -197.096 5.65845 -200.477 5.65845 -204.648C5.65845 -208.819 9.3128 -212.2 13.8208 -212.2C18.3288 -212.2 21.9832 -208.819 21.9832 -204.648Z" fill="white"/>
<path d="M87.283 210.721C87.283 214.892 83.6284 218.273 79.1204 218.273C74.6124 218.273 70.958 214.892 70.958 210.721C70.958 206.55 74.6124 203.169 79.1204 203.169C83.6284 203.169 87.283 206.55 87.283 210.721Z" fill="white"/>
<path d="M1642.23 539.241C1642.23 543.412 1638.58 546.793 1634.07 546.793C1629.56 546.793 1625.91 543.412 1625.91 539.241C1625.91 535.07 1629.56 531.689 1634.07 531.689C1638.58 531.689 1642.23 535.07 1642.23 539.241Z" fill="white"/>
<path d="M-239.216 -19.6199C-239.216 -15.4489 -242.87 -12.0679 -247.378 -12.0679C-251.886 -12.0679 -255.541 -15.4489 -255.541 -19.6199C-255.541 -23.7908 -251.886 -27.1721 -247.378 -27.1721C-242.87 -27.1721 -239.216 -23.7908 -239.216 -19.6199Z" fill="white"/>
<path d="M-345.328 40.7974C-345.328 44.9683 -348.982 48.3496 -353.49 48.3496C-357.998 48.3496 -361.653 44.9683 -361.653 40.7974C-361.653 36.6264 -357.998 33.2451 -353.49 33.2451C-348.982 33.2451 -345.328 36.6264 -345.328 40.7974Z" fill="white"/>
<path d="M-2296.16 -2251.29C-2296.16 -2247.12 -2299.81 -2243.73 -2304.32 -2243.73C-2308.83 -2243.73 -2312.48 -2247.12 -2312.48 -2251.29C-2312.48 -2255.46 -2308.83 -2258.84 -2304.32 -2258.84C-2299.81 -2258.84 -2296.16 -2255.46 -2296.16 -2251.29Z" fill="white"/>
<path d="M-1928.85 -2496.73C-1928.85 -2492.56 -1932.5 -2489.18 -1937.01 -2489.18C-1941.52 -2489.18 -1945.17 -2492.56 -1945.17 -2496.73C-1945.17 -2500.9 -1941.52 -2504.28 -1937.01 -2504.28C-1932.5 -2504.28 -1928.85 -2500.9 -1928.85 -2496.73Z" fill="white"/>
<path d="M-1859.46 -2526.94C-1859.46 -2522.77 -1863.12 -2519.39 -1867.63 -2519.39C-1872.14 -2519.39 -1875.79 -2522.77 -1875.79 -2526.94C-1875.79 -2531.11 -1872.14 -2534.49 -1867.63 -2534.49C-1863.12 -2534.49 -1859.46 -2531.11 -1859.46 -2526.94Z" fill="white"/>
<path d="M-1916.6 -2636.45C-1916.6 -2632.28 -1920.26 -2628.9 -1924.76 -2628.9C-1929.27 -2628.9 -1932.93 -2632.28 -1932.93 -2636.45C-1932.93 -2640.62 -1929.27 -2644 -1924.76 -2644C-1920.26 -2644 -1916.6 -2640.62 -1916.6 -2636.45Z" fill="white"/>
<path d="M-1067.71 -2247.51C-1067.71 -2243.34 -1071.36 -2239.96 -1075.87 -2239.96C-1080.38 -2239.96 -1084.03 -2243.34 -1084.03 -2247.51C-1084.03 -2251.68 -1080.38 -2255.06 -1075.87 -2255.06C-1071.36 -2255.06 -1067.71 -2251.68 -1067.71 -2247.51Z" fill="white"/>
<path d="M-875.888 -2073.81C-875.888 -2069.64 -879.542 -2066.26 -884.05 -2066.26C-888.558 -2066.26 -892.213 -2069.64 -892.213 -2073.81C-892.213 -2077.98 -888.558 -2081.36 -884.05 -2081.36C-879.542 -2081.36 -875.888 -2077.98 -875.888 -2073.81Z" fill="white"/>
<path d="M-875.888 -2542.05C-875.888 -2537.87 -879.542 -2534.49 -884.05 -2534.49C-888.558 -2534.49 -892.213 -2537.87 -892.213 -2542.05C-892.213 -2546.22 -888.558 -2549.6 -884.05 -2549.6C-879.542 -2549.6 -875.888 -2546.22 -875.888 -2542.05Z" fill="white"/>
<path d="M-835.076 -2496.73C-835.076 -2492.56 -838.73 -2489.18 -843.238 -2489.18C-847.746 -2489.18 -851.401 -2492.56 -851.401 -2496.73C-851.401 -2500.9 -847.746 -2504.28 -843.238 -2504.28C-838.73 -2504.28 -835.076 -2500.9 -835.076 -2496.73Z" fill="white"/>
<path d="M-582.039 -2391C-582.039 -2386.83 -585.694 -2383.45 -590.202 -2383.45C-594.71 -2383.45 -598.364 -2386.83 -598.364 -2391C-598.364 -2395.17 -594.71 -2398.55 -590.202 -2398.55C-585.694 -2398.55 -582.039 -2395.17 -582.039 -2391Z" fill="white"/>
<path d="M-390.221 -2296.6C-390.221 -2292.43 -393.876 -2289.05 -398.384 -2289.05C-402.892 -2289.05 -406.546 -2292.43 -406.546 -2296.6C-406.546 -2300.77 -402.892 -2304.15 -398.384 -2304.15C-393.876 -2304.15 -390.221 -2300.77 -390.221 -2296.6Z" fill="white"/>
<path d="M-271.865 -2202.2C-271.865 -2198.03 -275.52 -2194.65 -280.028 -2194.65C-284.536 -2194.65 -288.19 -2198.03 -288.19 -2202.2C-288.19 -2206.37 -284.536 -2209.75 -280.028 -2209.75C-275.52 -2209.75 -271.865 -2206.37 -271.865 -2202.2Z" fill="white"/>
<path d="M-377.978 -2145.56C-377.978 -2141.39 -381.632 -2138 -386.14 -2138C-390.648 -2138 -394.302 -2141.39 -394.302 -2145.56C-394.302 -2149.73 -390.648 -2153.11 -386.14 -2153.11C-381.632 -2153.11 -377.978 -2149.73 -377.978 -2145.56Z" fill="white"/>
<path d="M-361.653 -2628.9C-361.653 -2624.72 -365.307 -2621.34 -369.815 -2621.34C-374.323 -2621.34 -377.978 -2624.72 -377.978 -2628.9C-377.978 -2633.07 -374.323 -2636.45 -369.815 -2636.45C-365.307 -2636.45 -361.653 -2633.07 -361.653 -2628.9Z" fill="white"/>
<path d="M-2.50415 -2530.72C-2.50415 -2526.55 -6.1585 -2523.17 -10.6665 -2523.17C-15.1745 -2523.17 -18.8291 -2526.55 -18.8291 -2530.72C-18.8291 -2534.89 -15.1745 -2538.27 -10.6665 -2538.27C-6.1585 -2538.27 -2.50415 -2534.89 -2.50415 -2530.72Z" fill="white"/>
<path d="M58.7144 -2421.21C58.7144 -2417.04 55.0598 -2413.66 50.5518 -2413.66C46.0438 -2413.66 42.3894 -2417.04 42.3894 -2421.21C42.3894 -2425.38 46.0438 -2428.76 50.5518 -2428.76C55.0598 -2428.76 58.7144 -2425.38 58.7144 -2421.21Z" fill="white"/>
<path d="M-6.58545 -2387.23C-6.58545 -2383.06 -10.2398 -2379.67 -14.7478 -2379.67C-19.2558 -2379.67 -22.9102 -2383.06 -22.9102 -2387.23C-22.9102 -2391.4 -19.2558 -2394.78 -14.7478 -2394.78C-10.2398 -2394.78 -6.58545 -2391.4 -6.58545 -2387.23Z" fill="white"/>
<path d="M50.5518 -1975.63C50.5518 -1971.46 46.8974 -1968.08 42.3894 -1968.08C37.8814 -1968.08 34.2268 -1971.46 34.2268 -1975.63C34.2268 -1979.8 37.8814 -1983.18 42.3894 -1983.18C46.8974 -1983.18 50.5518 -1979.8 50.5518 -1975.63Z" fill="white"/>
<path d="M-6.58545 554.345C-6.58545 558.516 -10.2398 561.897 -14.7478 561.897C-19.2558 561.897 -22.9102 558.516 -22.9102 554.345C-22.9102 550.174 -19.2558 546.793 -14.7478 546.793C-10.2398 546.793 -6.58545 550.174 -6.58545 554.345Z" fill="white"/>
<path d="M-724.882 803.567C-724.882 807.738 -728.537 811.119 -733.045 811.119C-737.553 811.119 -741.207 807.738 -741.207 803.567C-741.207 799.396 -737.553 796.015 -733.045 796.015C-728.537 796.015 -724.882 799.396 -724.882 803.567Z" fill="white"/>
<path d="M-1084.03 705.389C-1084.03 709.56 -1087.69 712.941 -1092.19 712.941C-1096.7 712.941 -1100.36 709.56 -1100.36 705.389C-1100.36 701.218 -1096.7 697.836 -1092.19 697.836C-1087.69 697.836 -1084.03 701.218 -1084.03 705.389Z" fill="white"/>
<path d="M-839.157 112.543C-839.157 116.714 -842.811 120.095 -847.319 120.095C-851.827 120.095 -855.482 116.714 -855.482 112.543C-855.482 108.372 -851.827 104.991 -847.319 104.991C-842.811 104.991 -839.157 108.372 -839.157 112.543Z" fill="white"/>
<path d="M-1035.06 -61.1567C-1035.06 -56.9858 -1038.71 -53.6047 -1043.22 -53.6047C-1047.73 -53.6047 -1051.38 -56.9858 -1051.38 -61.1567C-1051.38 -65.3277 -1047.73 -68.709 -1043.22 -68.709C-1038.71 -68.709 -1035.06 -65.3277 -1035.06 -61.1567Z" fill="white"/>
<path d="M-1904.36 154.08C-1904.36 158.251 -1908.01 161.632 -1912.52 161.632C-1917.03 161.632 -1920.68 158.251 -1920.68 154.08C-1920.68 149.909 -1917.03 146.528 -1912.52 146.528C-1908.01 146.528 -1904.36 149.909 -1904.36 154.08Z" fill="white"/>
<path d="M-1545.21 256.034C-1545.21 260.205 -1548.86 263.586 -1553.37 263.586C-1557.88 263.586 -1561.54 260.205 -1561.54 256.034C-1561.54 251.863 -1557.88 248.482 -1553.37 248.482C-1548.86 248.482 -1545.21 251.863 -1545.21 256.034Z" fill="white"/>
<path d="M-1492.15 361.765C-1492.15 365.936 -1495.81 369.317 -1500.32 369.317C-1504.82 369.317 -1508.48 365.936 -1508.48 361.765C-1508.48 357.594 -1504.82 354.212 -1500.32 354.212C-1495.81 354.212 -1492.15 357.594 -1492.15 361.765Z" fill="white"/>
<path d="M-1557.45 395.75C-1557.45 399.92 -1561.11 403.302 -1565.62 403.302C-1570.12 403.302 -1573.78 399.92 -1573.78 395.75C-1573.78 391.579 -1570.12 388.197 -1565.62 388.197C-1561.11 388.197 -1557.45 391.579 -1557.45 395.75Z" fill="white"/>
<path d="M-2128.83 391.973C-2128.83 396.144 -2132.48 399.526 -2136.99 399.526C-2141.5 399.526 -2145.15 396.144 -2145.15 391.973C-2145.15 387.802 -2141.5 384.421 -2136.99 384.421C-2132.48 384.421 -2128.83 387.802 -2128.83 391.973Z" fill="white"/>
<path d="M-1941.09 490.152C-1941.09 494.323 -1944.74 497.704 -1949.25 497.704C-1953.76 497.704 -1957.41 494.323 -1957.41 490.152C-1957.41 485.981 -1953.76 482.599 -1949.25 482.599C-1944.74 482.599 -1941.09 485.981 -1941.09 490.152Z" fill="white"/>
<path d="M-1822.73 584.554C-1822.73 588.725 -1826.39 592.106 -1830.9 592.106C-1835.4 592.106 -1839.06 588.725 -1839.06 584.554C-1839.06 580.383 -1835.4 577.002 -1830.9 577.002C-1826.39 577.002 -1822.73 580.383 -1822.73 584.554Z" fill="white"/>
<path d="M-1928.85 641.195C-1928.85 645.366 -1932.5 648.747 -1937.01 648.747C-1941.52 648.747 -1945.17 645.366 -1945.17 641.195C-1945.17 637.024 -1941.52 633.643 -1937.01 633.643C-1932.5 633.643 -1928.85 637.024 -1928.85 641.195Z" fill="white"/>
<path d="M-2422.68 248.482C-2422.68 252.653 -2426.33 256.034 -2430.84 256.034C-2435.35 256.034 -2439 252.653 -2439 248.482C-2439 244.311 -2435.35 240.93 -2430.84 240.93C-2426.33 240.93 -2422.68 244.311 -2422.68 248.482Z" fill="white"/>
<path d="M-2381.86 286.243C-2381.86 290.414 -2385.52 293.795 -2390.03 293.795C-2394.53 293.795 -2398.19 290.414 -2398.19 286.243C-2398.19 282.072 -2394.53 278.691 -2390.03 278.691C-2385.52 278.691 -2381.86 282.072 -2381.86 286.243Z" fill="white"/>
<path d="M-2422.68 712.941C-2422.68 717.112 -2426.33 720.493 -2430.84 720.493C-2435.35 720.493 -2439 717.112 -2439 712.941C-2439 708.77 -2435.35 705.389 -2430.84 705.389C-2426.33 705.389 -2422.68 708.77 -2422.68 712.941Z" fill="white"/>
<path d="M-2422.68 1101.88C-2422.68 1106.05 -2426.33 1109.43 -2430.84 1109.43C-2435.35 1109.43 -2439 1106.05 -2439 1101.88C-2439 1097.71 -2435.35 1094.33 -2430.84 1094.33C-2426.33 1094.33 -2422.68 1097.71 -2422.68 1101.88Z" fill="white"/>
<path d="M-2385.94 1139.64C-2385.94 1143.81 -2389.6 1147.19 -2394.11 1147.19C-2398.61 1147.19 -2402.27 1143.81 -2402.27 1139.64C-2402.27 1135.47 -2398.61 1132.09 -2394.11 1132.09C-2389.6 1132.09 -2385.94 1135.47 -2385.94 1139.64Z" fill="white"/>
<path d="M-1908.44 1007.48C-1908.44 1011.65 -1912.09 1015.03 -1916.6 1015.03C-1921.11 1015.03 -1924.76 1011.65 -1924.76 1007.48C-1924.76 1003.3 -1921.11 999.924 -1916.6 999.924C-1912.09 999.924 -1908.44 1003.3 -1908.44 1007.48Z" fill="white"/>
<path d="M-1790.08 1090.55C-1790.08 1094.72 -1793.74 1098.1 -1798.25 1098.1C-1802.75 1098.1 -1806.41 1094.72 -1806.41 1090.55C-1806.41 1086.38 -1802.75 1083 -1798.25 1083C-1793.74 1083 -1790.08 1086.38 -1790.08 1090.55Z" fill="white"/>
<path d="M-1598.27 799.791C-1598.27 803.962 -1601.92 807.343 -1606.43 807.343C-1610.94 807.343 -1614.59 803.962 -1614.59 799.791C-1614.59 795.62 -1610.94 792.239 -1606.43 792.239C-1601.92 792.239 -1598.27 795.62 -1598.27 799.791Z" fill="white"/>
<path d="M-1561.54 833.776C-1561.54 837.947 -1565.19 841.328 -1569.7 841.328C-1574.21 841.328 -1577.86 837.947 -1577.86 833.776C-1577.86 829.605 -1574.21 826.223 -1569.7 826.223C-1565.19 826.223 -1561.54 829.605 -1561.54 833.776Z" fill="white"/>
<path d="M-1496.24 807.343C-1496.24 811.514 -1499.89 814.895 -1504.4 814.895C-1508.91 814.895 -1512.56 811.514 -1512.56 807.343C-1512.56 803.172 -1508.91 799.791 -1504.4 799.791C-1499.89 799.791 -1496.24 803.172 -1496.24 807.343Z" fill="white"/>
<path d="M-1545.21 1109.43C-1545.21 1113.6 -1548.86 1116.98 -1553.37 1116.98C-1557.88 1116.98 -1561.54 1113.6 -1561.54 1109.43C-1561.54 1105.26 -1557.88 1101.88 -1553.37 1101.88C-1548.86 1101.88 -1545.21 1105.26 -1545.21 1109.43Z" fill="white"/>
<path d="M-1557.45 1249.15C-1557.45 1253.32 -1561.11 1256.7 -1565.62 1256.7C-1570.12 1256.7 -1573.78 1253.32 -1573.78 1249.15C-1573.78 1244.97 -1570.12 1241.59 -1565.62 1241.59C-1561.11 1241.59 -1557.45 1244.97 -1557.45 1249.15Z" fill="white"/>
<path d="M-1598.27 1260.47C-1598.27 1264.64 -1601.92 1268.03 -1606.43 1268.03C-1610.94 1268.03 -1614.59 1264.64 -1614.59 1260.47C-1614.59 1256.3 -1610.94 1252.92 -1606.43 1252.92C-1601.92 1252.92 -1598.27 1256.3 -1598.27 1260.47Z" fill="white"/>
<path d="M-1488.07 1218.94C-1488.07 1223.11 -1491.73 1226.49 -1496.24 1226.49C-1500.74 1226.49 -1504.4 1223.11 -1504.4 1218.94C-1504.4 1214.77 -1500.74 1211.38 -1496.24 1211.38C-1491.73 1211.38 -1488.07 1214.77 -1488.07 1218.94Z" fill="white"/>
<path d="M-1108.52 1188.73C-1108.52 1192.9 -1112.17 1196.28 -1116.68 1196.28C-1121.19 1196.28 -1124.84 1192.9 -1124.84 1188.73C-1124.84 1184.56 -1121.19 1181.18 -1116.68 1181.18C-1112.17 1181.18 -1108.52 1184.56 -1108.52 1188.73Z" fill="white"/>
<path d="M-994.244 1132.09C-994.244 1136.26 -997.898 1139.64 -1002.41 1139.64C-1006.91 1139.64 -1010.57 1136.26 -1010.57 1132.09C-1010.57 1127.92 -1006.91 1124.53 -1002.41 1124.53C-997.898 1124.53 -994.244 1127.92 -994.244 1132.09Z" fill="white"/>
<path d="M-1116.68 1037.68C-1116.68 1041.86 -1120.34 1045.24 -1124.84 1045.24C-1129.35 1045.24 -1133.01 1041.86 -1133.01 1037.68C-1133.01 1033.51 -1129.35 1030.13 -1124.84 1030.13C-1120.34 1030.13 -1116.68 1033.51 -1116.68 1037.68Z" fill="white"/>
<path d="M-1304.42 943.282C-1304.42 947.453 -1308.07 950.834 -1312.58 950.834C-1317.09 950.834 -1320.74 947.453 -1320.74 943.282C-1320.74 939.111 -1317.09 935.73 -1312.58 935.73C-1308.07 935.73 -1304.42 939.111 -1304.42 943.282Z" fill="white"/>
<path d="M-2128.83 1249.15C-2128.83 1253.32 -2132.48 1256.7 -2136.99 1256.7C-2141.5 1256.7 -2145.15 1253.32 -2145.15 1249.15C-2145.15 1244.97 -2141.5 1241.59 -2136.99 1241.59C-2132.48 1241.59 -2128.83 1244.97 -2128.83 1249.15Z" fill="white"/>
<path d="M-1937.01 1343.55C-1937.01 1347.72 -1940.66 1351.1 -1945.17 1351.1C-1949.68 1351.1 -1953.33 1347.72 -1953.33 1343.55C-1953.33 1339.38 -1949.68 1335.99 -1945.17 1335.99C-1940.66 1335.99 -1937.01 1339.38 -1937.01 1343.55Z" fill="white"/>
<path d="M-1818.65 1437.95C-1818.65 1442.12 -1822.31 1445.5 -1826.82 1445.5C-1831.32 1445.5 -1834.98 1442.12 -1834.98 1437.95C-1834.98 1433.78 -1831.32 1430.4 -1826.82 1430.4C-1822.31 1430.4 -1818.65 1433.78 -1818.65 1437.95Z" fill="white"/>
<path d="M-1928.85 1494.59C-1928.85 1498.76 -1932.5 1502.14 -1937.01 1502.14C-1941.52 1502.14 -1945.17 1498.76 -1945.17 1494.59C-1945.17 1490.42 -1941.52 1487.04 -1937.01 1487.04C-1932.5 1487.04 -1928.85 1490.42 -1928.85 1494.59Z" fill="white"/>
<path d="M-1537.05 1509.69C-1537.05 1513.87 -1540.7 1517.25 -1545.21 1517.25C-1549.72 1517.25 -1553.37 1513.87 -1553.37 1509.69C-1553.37 1505.52 -1549.72 1502.14 -1545.21 1502.14C-1540.7 1502.14 -1537.05 1505.52 -1537.05 1509.69Z" fill="white"/>
<path d="M-1528.89 1660.74C-1528.89 1664.91 -1532.54 1668.29 -1537.05 1668.29C-1541.56 1668.29 -1545.21 1664.91 -1545.21 1660.74C-1545.21 1656.57 -1541.56 1653.19 -1537.05 1653.19C-1532.54 1653.19 -1528.89 1656.57 -1528.89 1660.74Z" fill="white"/>
<path d="M-1496.24 1664.51C-1496.24 1668.69 -1499.89 1672.07 -1504.4 1672.07C-1508.91 1672.07 -1512.56 1668.69 -1512.56 1664.51C-1512.56 1660.34 -1508.91 1656.96 -1504.4 1656.96C-1499.89 1656.96 -1496.24 1660.34 -1496.24 1664.51Z" fill="white"/>
<path d="M-1418.69 1604.1C-1418.69 1608.27 -1422.35 1611.65 -1426.85 1611.65C-1431.36 1611.65 -1435.02 1608.27 -1435.02 1604.1C-1435.02 1599.93 -1431.36 1596.54 -1426.85 1596.54C-1422.35 1596.54 -1418.69 1599.93 -1418.69 1604.1Z" fill="white"/>
<path d="M-1814.57 1891.08C-1814.57 1895.25 -1818.23 1898.63 -1822.73 1898.63C-1827.24 1898.63 -1830.9 1895.25 -1830.9 1891.08C-1830.9 1886.91 -1827.24 1883.53 -1822.73 1883.53C-1818.23 1883.53 -1814.57 1886.91 -1814.57 1891.08Z" fill="white"/>
<path d="M-1822.73 1955.27C-1822.73 1959.44 -1826.39 1962.83 -1830.9 1962.83C-1835.4 1962.83 -1839.06 1959.44 -1839.06 1955.27C-1839.06 1951.1 -1835.4 1947.72 -1830.9 1947.72C-1826.39 1947.72 -1822.73 1951.1 -1822.73 1955.27Z" fill="white"/>
<path d="M-1753.35 2011.91C-1753.35 2016.09 -1757.01 2019.47 -1761.52 2019.47C-1766.02 2019.47 -1769.68 2016.09 -1769.68 2011.91C-1769.68 2007.74 -1766.02 2004.36 -1761.52 2004.36C-1757.01 2004.36 -1753.35 2007.74 -1753.35 2011.91Z" fill="white"/>
<path d="M-1851.3 2091.21C-1851.3 2095.38 -1854.96 2098.76 -1859.46 2098.76C-1863.97 2098.76 -1867.63 2095.38 -1867.63 2091.21C-1867.63 2087.04 -1863.97 2083.66 -1859.46 2083.66C-1854.96 2083.66 -1851.3 2087.04 -1851.3 2091.21Z" fill="white"/>
<path d="M-2324.73 1989.26C-2324.73 1993.43 -2328.38 1996.81 -2332.89 1996.81C-2337.4 1996.81 -2341.05 1993.43 -2341.05 1989.26C-2341.05 1985.09 -2337.4 1981.71 -2332.89 1981.71C-2328.38 1981.71 -2324.73 1985.09 -2324.73 1989.26Z" fill="white"/>
<path d="M-2279.83 2027.02C-2279.83 2031.19 -2283.49 2034.57 -2287.99 2034.57C-2292.5 2034.57 -2296.16 2031.19 -2296.16 2027.02C-2296.16 2022.85 -2292.5 2019.47 -2287.99 2019.47C-2283.49 2019.47 -2279.83 2022.85 -2279.83 2027.02Z" fill="white"/>
<path d="M-2422.68 1573.89C-2422.68 1578.06 -2426.33 1581.44 -2430.84 1581.44C-2435.35 1581.44 -2439 1578.06 -2439 1573.89C-2439 1569.72 -2435.35 1566.34 -2430.84 1566.34C-2426.33 1566.34 -2422.68 1569.72 -2422.68 1573.89Z" fill="white"/>
<path d="M-2039.04 2136.53C-2039.04 2140.7 -2042.69 2144.08 -2047.2 2144.08C-2051.71 2144.08 -2055.36 2140.7 -2055.36 2136.53C-2055.36 2132.35 -2051.71 2128.97 -2047.2 2128.97C-2042.69 2128.97 -2039.04 2132.35 -2039.04 2136.53Z" fill="white"/>
<path d="M-1965.58 2321.55C-1965.58 2325.72 -1969.23 2329.11 -1973.74 2329.11C-1978.25 2329.11 -1981.9 2325.72 -1981.9 2321.55C-1981.9 2317.38 -1978.25 2314 -1973.74 2314C-1969.23 2314 -1965.58 2317.38 -1965.58 2321.55Z" fill="white"/>
<path d="M-1826.82 2370.64C-1826.82 2374.81 -1830.47 2378.19 -1834.98 2378.19C-1839.49 2378.19 -1843.14 2374.81 -1843.14 2370.64C-1843.14 2366.47 -1839.49 2363.09 -1834.98 2363.09C-1830.47 2363.09 -1826.82 2366.47 -1826.82 2370.64Z" fill="white"/>
<path d="M-1720.7 2314C-1720.7 2318.17 -1724.36 2321.55 -1728.87 2321.55C-1733.37 2321.55 -1737.03 2318.17 -1737.03 2314C-1737.03 2309.83 -1733.37 2306.45 -1728.87 2306.45C-1724.36 2306.45 -1720.7 2309.83 -1720.7 2314Z" fill="white"/>
<path d="M-1732.95 2159.18C-1732.95 2163.35 -1736.6 2166.73 -1741.11 2166.73C-1745.62 2166.73 -1749.27 2163.35 -1749.27 2159.18C-1749.27 2155.01 -1745.62 2151.63 -1741.11 2151.63C-1736.6 2151.63 -1732.95 2155.01 -1732.95 2159.18Z" fill="white"/>
<path d="M-1577.86 2102.54C-1577.86 2106.71 -1581.51 2110.09 -1586.02 2110.09C-1590.53 2110.09 -1594.18 2106.71 -1594.18 2102.54C-1594.18 2098.37 -1590.53 2094.99 -1586.02 2094.99C-1581.51 2094.99 -1577.86 2098.37 -1577.86 2102.54Z" fill="white"/>
<path d="M-1447.26 1989.26C-1447.26 1993.43 -1450.91 1996.81 -1455.42 1996.81C-1459.93 1996.81 -1463.59 1993.43 -1463.59 1989.26C-1463.59 1985.09 -1459.93 1981.71 -1455.42 1981.71C-1450.91 1981.71 -1447.26 1985.09 -1447.26 1989.26Z" fill="white"/>
<path d="M-749.37 1887.3C-749.37 1891.47 -753.024 1894.86 -757.532 1894.86C-762.04 1894.86 -765.695 1891.47 -765.695 1887.3C-765.695 1883.13 -762.04 1879.75 -757.532 1879.75C-753.024 1879.75 -749.37 1883.13 -749.37 1887.3Z" fill="white"/>
<path d="M-708.557 1925.06C-708.557 1929.24 -712.212 1932.62 -716.72 1932.62C-721.228 1932.62 -724.882 1929.24 -724.882 1925.06C-724.882 1920.89 -721.228 1917.51 -716.72 1917.51C-712.212 1917.51 -708.557 1920.89 -708.557 1925.06Z" fill="white"/>
<path d="M-455.521 2038.35C-455.521 2042.52 -459.175 2045.9 -463.683 2045.9C-468.191 2045.9 -471.846 2042.52 -471.846 2038.35C-471.846 2034.18 -468.191 2030.79 -463.683 2030.79C-459.175 2030.79 -455.521 2034.18 -455.521 2038.35Z" fill="white"/>
<path d="M-231.053 1792.9C-231.053 1797.07 -234.708 1800.45 -239.216 1800.45C-243.724 1800.45 -247.378 1797.07 -247.378 1792.9C-247.378 1788.73 -243.724 1785.35 -239.216 1785.35C-234.708 1785.35 -231.053 1788.73 -231.053 1792.9Z" fill="white"/>
<path d="M132.177 1902.41C132.177 1906.58 128.522 1909.96 124.014 1909.96C119.506 1909.96 115.852 1906.58 115.852 1902.41C115.852 1898.24 119.506 1894.86 124.014 1894.86C128.522 1894.86 132.177 1898.24 132.177 1902.41Z" fill="white"/>
<path d="M189.314 2000.59C189.314 2004.76 185.659 2008.14 181.151 2008.14C176.643 2008.14 172.989 2004.76 172.989 2000.59C172.989 1996.41 176.643 1993.03 181.151 1993.03C185.659 1993.03 189.314 1996.41 189.314 2000.59Z" fill="white"/>
<path d="M115.852 2038.35C115.852 2042.52 112.197 2045.9 107.689 2045.9C103.181 2045.9 99.5266 2042.52 99.5266 2038.35C99.5266 2034.18 103.181 2030.79 107.689 2030.79C112.197 2030.79 115.852 2034.18 115.852 2038.35Z" fill="white"/>
<path d="M201.557 2903.07C201.557 2907.24 197.903 2910.62 193.395 2910.62C188.887 2910.62 185.232 2907.24 185.232 2903.07C185.232 2898.9 188.887 2895.52 193.395 2895.52C197.903 2895.52 201.557 2898.9 201.557 2903.07Z" fill="white"/>
<path d="M242.37 2944.61C242.37 2948.78 238.715 2952.16 234.207 2952.16C229.699 2952.16 226.045 2948.78 226.045 2944.61C226.045 2940.44 229.699 2937.06 234.207 2937.06C238.715 2937.06 242.37 2940.44 242.37 2944.61Z" fill="white"/>
<path d="M13.8208 3193.83C13.8208 3198 10.1665 3201.38 5.65845 3201.38C1.15044 3201.38 -2.50415 3198 -2.50415 3193.83C-2.50415 3189.66 1.15044 3186.28 5.65845 3186.28C10.1665 3186.28 13.8208 3189.66 13.8208 3193.83Z" fill="white"/>
<path d="M205.639 3367.53C205.639 3371.7 201.984 3375.08 197.476 3375.08C192.968 3375.08 189.314 3371.7 189.314 3367.53C189.314 3363.36 192.968 3359.98 197.476 3359.98C201.984 3359.98 205.639 3363.36 205.639 3367.53Z" fill="white"/>
<path d="M491.325 3054.11C491.325 3058.29 487.671 3061.67 483.163 3061.67C478.655 3061.67 475 3058.29 475 3054.11C475 3049.94 478.655 3046.56 483.163 3046.56C487.671 3046.56 491.325 3049.94 491.325 3054.11Z" fill="white"/>
<path d="M699.468 3144.74C699.468 3148.91 695.813 3152.29 691.305 3152.29C686.797 3152.29 683.143 3148.91 683.143 3144.74C683.143 3140.57 686.797 3137.19 691.305 3137.19C695.813 3137.19 699.468 3140.57 699.468 3144.74Z" fill="white"/>
<path d="M703.549 3299.56C703.549 3303.73 699.895 3307.11 695.387 3307.11C690.879 3307.11 687.224 3303.73 687.224 3299.56C687.224 3295.39 690.879 3292.01 695.387 3292.01C699.895 3292.01 703.549 3295.39 703.549 3299.56Z" fill="white"/>
<path d="M1034.13 3341.1C1034.13 3345.27 1030.47 3348.65 1025.97 3348.65C1021.46 3348.65 1017.8 3345.27 1017.8 3341.1C1017.8 3336.93 1021.46 3333.54 1025.97 3333.54C1030.47 3333.54 1034.13 3336.93 1034.13 3341.1Z" fill="white"/>
<path d="M1846.29 3375.08C1846.29 3379.25 1842.64 3382.63 1838.13 3382.63C1833.62 3382.63 1829.97 3379.25 1829.97 3375.08C1829.97 3370.91 1833.62 3367.53 1838.13 3367.53C1842.64 3367.53 1846.29 3370.91 1846.29 3375.08Z" fill="white"/>
<path d="M1740.18 3439.28C1740.18 3443.45 1736.53 3446.83 1732.02 3446.83C1727.51 3446.83 1723.86 3443.45 1723.86 3439.28C1723.86 3435.1 1727.51 3431.72 1732.02 3431.72C1736.53 3431.72 1740.18 3435.1 1740.18 3439.28Z" fill="white"/>
<path d="M1723.86 3288.23C1723.86 3292.4 1720.2 3295.78 1715.69 3295.78C1711.19 3295.78 1707.53 3292.4 1707.53 3288.23C1707.53 3284.06 1711.19 3280.68 1715.69 3280.68C1720.2 3280.68 1723.86 3284.06 1723.86 3288.23Z" fill="white"/>
<path d="M1234.11 3507.25C1234.11 3511.42 1230.45 3514.8 1225.95 3514.8C1221.44 3514.8 1217.78 3511.42 1217.78 3507.25C1217.78 3503.07 1221.44 3499.69 1225.95 3499.69C1230.45 3499.69 1234.11 3503.07 1234.11 3507.25Z" fill="white"/>
<path d="M1128 3465.71C1128 3469.88 1124.34 3473.26 1119.83 3473.26C1115.33 3473.26 1111.67 3469.88 1111.67 3465.71C1111.67 3461.54 1115.33 3458.16 1119.83 3458.16C1124.34 3458.16 1128 3461.54 1128 3465.71Z" fill="white"/>
<path d="M1532.04 3193.83C1532.04 3198 1528.38 3201.38 1523.88 3201.38C1519.37 3201.38 1515.71 3198 1515.71 3193.83C1515.71 3189.66 1519.37 3186.28 1523.88 3186.28C1528.38 3186.28 1532.04 3189.66 1532.04 3193.83Z" fill="white"/>
<path d="M1756.51 2948.38C1756.51 2952.56 1752.85 2955.94 1748.34 2955.94C1743.84 2955.94 1740.18 2952.56 1740.18 2948.38C1740.18 2944.21 1743.84 2940.83 1748.34 2940.83C1752.85 2940.83 1756.51 2944.21 1756.51 2948.38Z" fill="white"/>
<path d="M1932 2884.19C1932 2888.36 1928.35 2891.74 1923.84 2891.74C1919.33 2891.74 1915.68 2888.36 1915.68 2884.19C1915.68 2880.02 1919.33 2876.64 1923.84 2876.64C1928.35 2876.64 1932 2880.02 1932 2884.19Z" fill="white"/>
<path d="M1560.61 2921.95C1560.61 2926.12 1556.95 2929.5 1552.45 2929.5C1547.94 2929.5 1544.28 2926.12 1544.28 2921.95C1544.28 2917.78 1547.94 2914.4 1552.45 2914.4C1556.95 2914.4 1560.61 2917.78 1560.61 2921.95Z" fill="white"/>
<path d="M1674.88 2865.31C1674.88 2869.48 1671.23 2872.86 1666.72 2872.86C1662.21 2872.86 1658.56 2869.48 1658.56 2865.31C1658.56 2861.14 1662.21 2857.76 1666.72 2857.76C1671.23 2857.76 1674.88 2861.14 1674.88 2865.31Z" fill="white"/>
<path d="M1556.53 2770.91C1556.53 2775.08 1552.87 2778.46 1548.36 2778.46C1543.86 2778.46 1540.2 2775.08 1540.2 2770.91C1540.2 2766.74 1543.86 2763.36 1548.36 2763.36C1552.87 2763.36 1556.53 2766.74 1556.53 2770.91Z" fill="white"/>
<path d="M1495.31 2714.27C1495.31 2718.44 1491.65 2721.82 1487.15 2721.82C1482.64 2721.82 1478.98 2718.44 1478.98 2714.27C1478.98 2710.1 1482.64 2706.71 1487.15 2706.71C1491.65 2706.71 1495.31 2710.1 1495.31 2714.27Z" fill="white"/>
<path d="M1605.5 2661.4C1605.5 2665.57 1601.85 2668.95 1597.34 2668.95C1592.83 2668.95 1589.18 2665.57 1589.18 2661.4C1589.18 2657.23 1592.83 2653.85 1597.34 2653.85C1601.85 2653.85 1605.5 2657.23 1605.5 2661.4Z" fill="white"/>
<path d="M1495.31 2567C1495.31 2571.17 1491.65 2574.55 1487.15 2574.55C1482.64 2574.55 1478.98 2571.17 1478.98 2567C1478.98 2562.83 1482.64 2559.45 1487.15 2559.45C1491.65 2559.45 1495.31 2562.83 1495.31 2567Z" fill="white"/>
<path d="M1364.71 2676.51C1364.71 2680.68 1361.05 2684.06 1356.55 2684.06C1352.04 2684.06 1348.38 2680.68 1348.38 2676.51C1348.38 2672.33 1352.04 2668.95 1356.55 2668.95C1361.05 2668.95 1364.71 2672.33 1364.71 2676.51Z" fill="white"/>
<path d="M1005.56 2782.24C1005.56 2786.41 1001.91 2789.79 997.398 2789.79C992.89 2789.79 989.235 2786.41 989.235 2782.24C989.235 2778.07 992.89 2774.68 997.398 2774.68C1001.91 2774.68 1005.56 2778.07 1005.56 2782.24Z" fill="white"/>
<path d="M879.042 2823.77C879.042 2827.94 875.387 2831.33 870.879 2831.33C866.371 2831.33 862.717 2827.94 862.717 2823.77C862.717 2819.6 866.371 2816.22 870.879 2816.22C875.387 2816.22 879.042 2819.6 879.042 2823.77Z" fill="white"/>
<path d="M723.955 2808.67C723.955 2812.84 720.301 2816.22 715.793 2816.22C711.285 2816.22 707.63 2812.84 707.63 2808.67C707.63 2804.5 711.285 2801.12 715.793 2801.12C720.301 2801.12 723.955 2804.5 723.955 2808.67Z" fill="white"/>
<path d="M817.823 2612.31C817.823 2616.48 814.169 2619.86 809.661 2619.86C805.153 2619.86 801.499 2616.48 801.499 2612.31C801.499 2608.14 805.153 2604.76 809.661 2604.76C814.169 2604.76 817.823 2608.14 817.823 2612.31Z" fill="white"/>
<path d="M1083.1 2910.62C1083.1 2914.79 1079.45 2918.18 1074.94 2918.18C1070.43 2918.18 1066.78 2914.79 1066.78 2910.62C1066.78 2906.45 1070.43 2903.07 1074.94 2903.07C1079.45 2903.07 1083.1 2906.45 1083.1 2910.62Z" fill="white"/>
<path d="M1066.78 2997.47C1066.78 3001.64 1063.12 3005.03 1058.62 3005.03C1054.11 3005.03 1050.45 3001.64 1050.45 2997.47C1050.45 2993.3 1054.11 2989.92 1058.62 2989.92C1063.12 2989.92 1066.78 2993.3 1066.78 2997.47Z" fill="white"/>
<path d="M1066.78 3050.34C1066.78 3054.51 1063.12 3057.89 1058.62 3057.89C1054.11 3057.89 1050.45 3054.51 1050.45 3050.34C1050.45 3046.17 1054.11 3042.79 1058.62 3042.79C1063.12 3042.79 1066.78 3046.17 1066.78 3050.34Z" fill="white"/>
<path d="M1238.19 3042.79C1238.19 3046.96 1234.54 3050.34 1230.03 3050.34C1225.52 3050.34 1221.87 3046.96 1221.87 3042.79C1221.87 3038.62 1225.52 3035.23 1230.03 3035.23C1234.54 3035.23 1238.19 3038.62 1238.19 3042.79Z" fill="white"/>
<path d="M1270.84 3084.32C1270.84 3088.49 1267.19 3091.88 1262.68 3091.88C1258.17 3091.88 1254.52 3088.49 1254.52 3084.32C1254.52 3080.15 1258.17 3076.77 1262.68 3076.77C1267.19 3076.77 1270.84 3080.15 1270.84 3084.32Z" fill="white"/>
<path d="M1107.59 2574.55C1107.59 2578.72 1103.94 2582.1 1099.43 2582.1C1094.92 2582.1 1091.27 2578.72 1091.27 2574.55C1091.27 2570.38 1094.92 2567 1099.43 2567C1103.94 2567 1107.59 2570.38 1107.59 2574.55Z" fill="white"/>
<path d="M-1402.37 2544.34C-1402.37 2548.51 -1406.02 2551.89 -1410.53 2551.89C-1415.04 2551.89 -1418.69 2548.51 -1418.69 2544.34C-1418.69 2540.17 -1415.04 2536.79 -1410.53 2536.79C-1406.02 2536.79 -1402.37 2540.17 -1402.37 2544.34Z" fill="white"/>
<path d="M-1124.84 3424.17C-1124.84 3428.34 -1128.5 3431.72 -1133.01 3431.72C-1137.51 3431.72 -1141.17 3428.34 -1141.17 3424.17C-1141.17 3420 -1137.51 3416.62 -1133.01 3416.62C-1128.5 3416.62 -1124.84 3420 -1124.84 3424.17Z" fill="white"/>
<path d="M-769.776 3522.35C-769.776 3526.52 -773.43 3529.9 -777.938 3529.9C-782.446 3529.9 -786.101 3526.52 -786.101 3522.35C-786.101 3518.18 -782.446 3514.8 -777.938 3514.8C-773.43 3514.8 -769.776 3518.18 -769.776 3522.35Z" fill="white"/>
<path d="M-712.639 3631.86C-712.639 3636.03 -716.293 3639.41 -720.801 3639.41C-725.309 3639.41 -728.964 3636.03 -728.964 3631.86C-728.964 3627.68 -725.309 3624.3 -720.801 3624.3C-716.293 3624.3 -712.639 3627.68 -712.639 3631.86Z" fill="white"/>
<path d="M-777.938 3662.06C-777.938 3666.23 -781.593 3669.62 -786.101 3669.62C-790.609 3669.62 -794.263 3666.23 -794.263 3662.06C-794.263 3657.89 -790.609 3654.51 -786.101 3654.51C-781.593 3654.51 -777.938 3657.89 -777.938 3662.06Z" fill="white"/>
<path d="M-1345.23 3662.06C-1345.23 3666.23 -1348.88 3669.62 -1353.39 3669.62C-1357.9 3669.62 -1361.55 3666.23 -1361.55 3662.06C-1361.55 3657.89 -1357.9 3654.51 -1353.39 3654.51C-1348.88 3654.51 -1345.23 3657.89 -1345.23 3662.06Z" fill="white"/>
<path d="M-1153.41 3756.47C-1153.41 3760.64 -1157.07 3764.02 -1161.57 3764.02C-1166.08 3764.02 -1169.74 3760.64 -1169.74 3756.47C-1169.74 3752.3 -1166.08 3748.91 -1161.57 3748.91C-1157.07 3748.91 -1153.41 3752.3 -1153.41 3756.47Z" fill="white"/>
<path d="M-1039.14 3854.64C-1039.14 3858.82 -1042.79 3862.2 -1047.3 3862.2C-1051.81 3862.2 -1055.46 3858.82 -1055.46 3854.64C-1055.46 3850.47 -1051.81 3847.09 -1047.3 3847.09C-1042.79 3847.09 -1039.14 3850.47 -1039.14 3854.64Z" fill="white"/>
<path d="M-1149.33 3911.29C-1149.33 3915.46 -1152.98 3918.84 -1157.49 3918.84C-1162 3918.84 -1165.66 3915.46 -1165.66 3911.29C-1165.66 3907.11 -1162 3903.73 -1157.49 3903.73C-1152.98 3903.73 -1149.33 3907.11 -1149.33 3911.29Z" fill="white"/>
<path d="M-716.72 4073.66C-716.72 4077.83 -720.374 4081.21 -724.882 4081.21C-729.39 4081.21 -733.045 4077.83 -733.045 4073.66C-733.045 4069.49 -729.39 4066.11 -724.882 4066.11C-720.374 4066.11 -716.72 4069.49 -716.72 4073.66Z" fill="white"/>
<path d="M-1834.98 3801.78C-1834.98 3805.95 -1838.63 3809.33 -1843.14 3809.33C-1847.65 3809.33 -1851.3 3805.95 -1851.3 3801.78C-1851.3 3797.61 -1847.65 3794.23 -1843.14 3794.23C-1838.63 3794.23 -1834.98 3797.61 -1834.98 3801.78Z" fill="white"/>
<path d="M-1643.16 3514.8C-1643.16 3518.97 -1646.81 3522.35 -1651.32 3522.35C-1655.83 3522.35 -1659.48 3518.97 -1659.48 3514.8C-1659.48 3510.63 -1655.83 3507.25 -1651.32 3507.25C-1646.81 3507.25 -1643.16 3510.63 -1643.16 3514.8Z" fill="white"/>
<path d="M-2275.75 4092.54C-2275.75 4096.71 -2279.41 4100.09 -2283.91 4100.09C-2288.42 4100.09 -2292.08 4096.71 -2292.08 4092.54C-2292.08 4088.37 -2288.42 4084.99 -2283.91 4084.99C-2279.41 4084.99 -2275.75 4088.37 -2275.75 4092.54Z" fill="white"/>
<path d="M-1920.68 4186.94C-1920.68 4191.11 -1924.34 4194.49 -1928.85 4194.49C-1933.35 4194.49 -1937.01 4191.11 -1937.01 4186.94C-1937.01 4182.77 -1933.35 4179.39 -1928.85 4179.39C-1924.34 4179.39 -1920.68 4182.77 -1920.68 4186.94Z" fill="white"/>
<path d="M-1928.85 4330.43C-1928.85 4334.6 -1932.5 4337.98 -1937.01 4337.98C-1941.52 4337.98 -1945.17 4334.6 -1945.17 4330.43C-1945.17 4326.26 -1941.52 4322.88 -1937.01 4322.88C-1932.5 4322.88 -1928.85 4326.26 -1928.85 4330.43Z" fill="white"/>
<path d="M-1859.46 4300.22C-1859.46 4304.39 -1863.12 4307.77 -1867.63 4307.77C-1872.14 4307.77 -1875.79 4304.39 -1875.79 4300.22C-1875.79 4296.05 -1872.14 4292.67 -1867.63 4292.67C-1863.12 4292.67 -1859.46 4296.05 -1859.46 4300.22Z" fill="white"/>
<path d="M-2308.4 4424.83C-2308.4 4429 -2312.06 4432.39 -2316.56 4432.39C-2321.07 4432.39 -2324.73 4429 -2324.73 4424.83C-2324.73 4420.66 -2321.07 4417.28 -2316.56 4417.28C-2312.06 4417.28 -2308.4 4420.66 -2308.4 4424.83Z" fill="white"/>
<path d="M-1606.43 3556.33C-1606.43 3560.5 -1610.08 3563.89 -1614.59 3563.89C-1619.1 3563.89 -1622.75 3560.5 -1622.75 3556.33C-1622.75 3552.16 -1619.1 3548.78 -1614.59 3548.78C-1610.08 3548.78 -1606.43 3552.16 -1606.43 3556.33Z" fill="white"/>
<path d="M-112.698 -1369.57C-112.698 -1365.4 -116.352 -1362.02 -120.86 -1362.02C-125.368 -1362.02 -129.022 -1365.4 -129.022 -1369.57C-129.022 -1373.74 -125.368 -1377.12 -120.86 -1377.12C-116.352 -1377.12 -112.698 -1373.74 -112.698 -1369.57Z" fill="white"/>
<path d="M-71.8853 -1328.03C-71.8853 -1323.86 -75.5396 -1320.48 -80.0476 -1320.48C-84.5556 -1320.48 -88.21 -1323.86 -88.21 -1328.03C-88.21 -1332.2 -84.5556 -1335.59 -80.0476 -1335.59C-75.5396 -1335.59 -71.8853 -1332.2 -71.8853 -1328.03Z" fill="white"/>
<path d="M-300.434 -1078.81C-300.434 -1074.64 -304.089 -1071.26 -308.597 -1071.26C-313.105 -1071.26 -316.759 -1074.64 -316.759 -1078.81C-316.759 -1082.98 -313.105 -1086.36 -308.597 -1086.36C-304.089 -1086.36 -300.434 -1082.98 -300.434 -1078.81Z" fill="white"/>
<path d="M-108.616 -905.112C-108.616 -900.941 -112.271 -897.56 -116.779 -897.56C-121.287 -897.56 -124.941 -900.941 -124.941 -905.112C-124.941 -909.283 -121.287 -912.664 -116.779 -912.664C-112.271 -912.664 -108.616 -909.283 -108.616 -905.112Z" fill="white"/>
<path d="M177.07 -1218.53C177.07 -1214.36 173.415 -1210.98 168.907 -1210.98C164.399 -1210.98 160.745 -1214.36 160.745 -1218.53C160.745 -1222.7 164.399 -1226.08 168.907 -1226.08C173.415 -1226.08 177.07 -1222.7 177.07 -1218.53Z" fill="white"/>
<path d="M385.213 -1127.9C385.213 -1123.73 381.559 -1120.35 377.051 -1120.35C372.543 -1120.35 368.888 -1123.73 368.888 -1127.9C368.888 -1132.07 372.543 -1135.45 377.051 -1135.45C381.559 -1135.45 385.213 -1132.07 385.213 -1127.9Z" fill="white"/>
<path d="M389.294 -973.082C389.294 -968.911 385.64 -965.53 381.132 -965.53C376.624 -965.53 372.969 -968.911 372.969 -973.082C372.969 -977.253 376.624 -980.634 381.132 -980.634C385.64 -980.634 389.294 -977.253 389.294 -973.082Z" fill="white"/>
<path d="M719.874 -931.545C719.874 -927.374 716.22 -923.993 711.712 -923.993C707.204 -923.993 703.549 -927.374 703.549 -931.545C703.549 -935.716 707.204 -939.097 711.712 -939.097C716.22 -939.097 719.874 -935.716 719.874 -931.545Z" fill="white"/>
<path d="M1532.04 -897.56C1532.04 -893.389 1528.38 -890.008 1523.88 -890.008C1519.37 -890.008 1515.71 -893.389 1515.71 -897.56C1515.71 -901.731 1519.37 -905.112 1523.88 -905.112C1528.38 -905.112 1532.04 -901.731 1532.04 -897.56Z" fill="white"/>
<path d="M1425.93 -833.367C1425.93 -829.196 1422.27 -825.814 1417.76 -825.814C1413.26 -825.814 1409.6 -829.196 1409.6 -833.367C1409.6 -837.538 1413.26 -840.919 1417.76 -840.919C1422.27 -840.919 1425.93 -837.538 1425.93 -833.367Z" fill="white"/>
<path d="M1409.6 -984.41C1409.6 -980.239 1405.95 -976.858 1401.44 -976.858C1396.93 -976.858 1393.28 -980.239 1393.28 -984.41C1393.28 -988.581 1396.93 -991.962 1401.44 -991.962C1405.95 -991.962 1409.6 -988.581 1409.6 -984.41Z" fill="white"/>
<path d="M919.854 -765.397C919.854 -761.226 916.2 -757.845 911.692 -757.845C907.184 -757.845 903.53 -761.226 903.53 -765.397C903.53 -769.568 907.184 -772.949 911.692 -772.949C916.2 -772.949 919.854 -769.568 919.854 -765.397Z" fill="white"/>
<path d="M813.742 -806.934C813.742 -802.763 810.088 -799.382 805.58 -799.382C801.072 -799.382 797.417 -802.763 797.417 -806.934C797.417 -811.105 801.072 -814.486 805.58 -814.486C810.088 -814.486 813.742 -811.105 813.742 -806.934Z" fill="white"/>
<path d="M1217.78 -1078.81C1217.78 -1074.64 1214.13 -1071.26 1209.62 -1071.26C1205.11 -1071.26 1201.46 -1074.64 1201.46 -1078.81C1201.46 -1082.98 1205.11 -1086.36 1209.62 -1086.36C1214.13 -1086.36 1217.78 -1082.98 1217.78 -1078.81Z" fill="white"/>
<path d="M1442.25 -1324.26C1442.25 -1320.09 1438.6 -1316.71 1434.09 -1316.71C1429.58 -1316.71 1425.93 -1320.09 1425.93 -1324.26C1425.93 -1328.43 1429.58 -1331.81 1434.09 -1331.81C1438.6 -1331.81 1442.25 -1328.43 1442.25 -1324.26Z" fill="white"/>
<path d="M1617.75 -1388.45C1617.75 -1384.28 1614.09 -1380.9 1609.58 -1380.9C1605.07 -1380.9 1601.42 -1384.28 1601.42 -1388.45C1601.42 -1392.62 1605.07 -1396 1609.58 -1396C1614.09 -1396 1617.75 -1392.62 1617.75 -1388.45Z" fill="white"/>
<path d="M1246.35 -1350.69C1246.35 -1346.52 1242.7 -1343.14 1238.19 -1343.14C1233.68 -1343.14 1230.03 -1346.52 1230.03 -1350.69C1230.03 -1354.86 1233.68 -1358.24 1238.19 -1358.24C1242.7 -1358.24 1246.35 -1354.86 1246.35 -1350.69Z" fill="white"/>
<path d="M1360.63 -1407.33C1360.63 -1403.16 1356.97 -1399.78 1352.46 -1399.78C1347.96 -1399.78 1344.3 -1403.16 1344.3 -1407.33C1344.3 -1411.5 1347.96 -1414.88 1352.46 -1414.88C1356.97 -1414.88 1360.63 -1411.5 1360.63 -1407.33Z" fill="white"/>
<path d="M1242.27 -1501.73C1242.27 -1497.56 1238.62 -1494.18 1234.11 -1494.18C1229.6 -1494.18 1225.95 -1497.56 1225.95 -1501.73C1225.95 -1505.9 1229.6 -1509.29 1234.11 -1509.29C1238.62 -1509.29 1242.27 -1505.9 1242.27 -1501.73Z" fill="white"/>
<path d="M1181.05 -1558.38C1181.05 -1554.2 1177.4 -1550.82 1172.89 -1550.82C1168.38 -1550.82 1164.73 -1554.2 1164.73 -1558.38C1164.73 -1562.55 1168.38 -1565.93 1172.89 -1565.93C1177.4 -1565.93 1181.05 -1562.55 1181.05 -1558.38Z" fill="white"/>
<path d="M1291.25 -1611.24C1291.25 -1607.07 1287.59 -1603.69 1283.08 -1603.69C1278.58 -1603.69 1274.92 -1607.07 1274.92 -1611.24C1274.92 -1615.41 1278.58 -1618.79 1283.08 -1618.79C1287.59 -1618.79 1291.25 -1615.41 1291.25 -1611.24Z" fill="white"/>
<path d="M1181.05 -1705.64C1181.05 -1701.47 1177.4 -1698.09 1172.89 -1698.09C1168.38 -1698.09 1164.73 -1701.47 1164.73 -1705.64C1164.73 -1709.81 1168.38 -1713.19 1172.89 -1713.19C1177.4 -1713.19 1181.05 -1709.81 1181.05 -1705.64Z" fill="white"/>
<path d="M1050.45 -1596.14C1050.45 -1591.97 1046.8 -1588.58 1042.29 -1588.58C1037.78 -1588.58 1034.13 -1591.97 1034.13 -1596.14C1034.13 -1600.31 1037.78 -1603.69 1042.29 -1603.69C1046.8 -1603.69 1050.45 -1600.31 1050.45 -1596.14Z" fill="white"/>
<path d="M691.305 -1490.41C691.305 -1486.23 687.651 -1482.85 683.143 -1482.85C678.635 -1482.85 674.98 -1486.23 674.98 -1490.41C674.98 -1494.58 678.635 -1497.96 683.143 -1497.96C687.651 -1497.96 691.305 -1494.58 691.305 -1490.41Z" fill="white"/>
<path d="M564.787 -1448.87C564.787 -1444.7 561.133 -1441.32 556.625 -1441.32C552.117 -1441.32 548.462 -1444.7 548.462 -1448.87C548.462 -1453.04 552.117 -1456.42 556.625 -1456.42C561.133 -1456.42 564.787 -1453.04 564.787 -1448.87Z" fill="white"/>
<path d="M409.7 -1463.97C409.7 -1459.8 406.046 -1456.42 401.538 -1456.42C397.03 -1456.42 393.375 -1459.8 393.375 -1463.97C393.375 -1468.14 397.03 -1471.53 401.538 -1471.53C406.046 -1471.53 409.7 -1468.14 409.7 -1463.97Z" fill="white"/>
<path d="M503.569 -1660.33C503.569 -1656.16 499.914 -1652.78 495.406 -1652.78C490.898 -1652.78 487.244 -1656.16 487.244 -1660.33C487.244 -1664.5 490.898 -1667.88 495.406 -1667.88C499.914 -1667.88 503.569 -1664.5 503.569 -1660.33Z" fill="white"/>
<path d="M768.849 -1362.02C768.849 -1357.85 765.194 -1354.47 760.686 -1354.47C756.178 -1354.47 752.524 -1357.85 752.524 -1362.02C752.524 -1366.19 756.178 -1369.57 760.686 -1369.57C765.194 -1369.57 768.849 -1366.19 768.849 -1362.02Z" fill="white"/>
<path d="M752.524 -1275.17C752.524 -1271 748.869 -1267.62 744.361 -1267.62C739.853 -1267.62 736.199 -1271 736.199 -1275.17C736.199 -1279.34 739.853 -1282.72 744.361 -1282.72C748.869 -1282.72 752.524 -1279.34 752.524 -1275.17Z" fill="white"/>
<path d="M752.524 -1222.3C752.524 -1218.13 748.869 -1214.75 744.361 -1214.75C739.853 -1214.75 736.199 -1218.13 736.199 -1222.3C736.199 -1226.47 739.853 -1229.86 744.361 -1229.86C748.869 -1229.86 752.524 -1226.47 752.524 -1222.3Z" fill="white"/>
<path d="M923.936 -1229.86C923.936 -1225.68 920.281 -1222.3 915.773 -1222.3C911.265 -1222.3 907.611 -1225.68 907.611 -1229.86C907.611 -1234.03 911.265 -1237.41 915.773 -1237.41C920.281 -1237.41 923.936 -1234.03 923.936 -1229.86Z" fill="white"/>
<path d="M956.586 -1188.32C956.586 -1184.15 952.931 -1180.77 948.423 -1180.77C943.915 -1180.77 940.261 -1184.15 940.261 -1188.32C940.261 -1192.49 943.915 -1195.87 948.423 -1195.87C952.931 -1195.87 956.586 -1192.49 956.586 -1188.32Z" fill="white"/>
<path d="M793.336 -1698.09C793.336 -1693.92 789.682 -1690.54 785.174 -1690.54C780.666 -1690.54 777.011 -1693.92 777.011 -1698.09C777.011 -1702.26 780.666 -1705.64 785.174 -1705.64C789.682 -1705.64 793.336 -1702.26 793.336 -1698.09Z" fill="white"/>
<path d="M-1104.44 -1692.43C-1104.44 -1688.26 -1108.09 -1684.87 -1112.6 -1684.87C-1117.11 -1684.87 -1120.76 -1688.26 -1120.76 -1692.43C-1120.76 -1696.6 -1117.11 -1699.98 -1112.6 -1699.98C-1108.09 -1699.98 -1104.44 -1696.6 -1104.44 -1692.43Z" fill="white"/>
<path d="M-1545.21 -1401.67C-1545.21 -1397.5 -1548.86 -1394.12 -1553.37 -1394.12C-1557.88 -1394.12 -1561.54 -1397.5 -1561.54 -1401.67C-1561.54 -1405.84 -1557.88 -1409.22 -1553.37 -1409.22C-1548.86 -1409.22 -1545.21 -1405.84 -1545.21 -1401.67Z" fill="white"/>
<path d="M-1190.14 -1307.27C-1190.14 -1303.09 -1193.8 -1299.71 -1198.31 -1299.71C-1202.81 -1299.71 -1206.47 -1303.09 -1206.47 -1307.27C-1206.47 -1311.44 -1202.81 -1314.82 -1198.31 -1314.82C-1193.8 -1314.82 -1190.14 -1311.44 -1190.14 -1307.27Z" fill="white"/>
<path d="M-1198.31 -1163.77C-1198.31 -1159.6 -1201.96 -1156.22 -1206.47 -1156.22C-1210.98 -1156.22 -1214.63 -1159.6 -1214.63 -1163.77C-1214.63 -1167.94 -1210.98 -1171.33 -1206.47 -1171.33C-1201.96 -1171.33 -1198.31 -1167.94 -1198.31 -1163.77Z" fill="white"/>
<path d="M-1128.92 -1193.98C-1128.92 -1189.81 -1132.58 -1186.43 -1137.09 -1186.43C-1141.59 -1186.43 -1145.25 -1189.81 -1145.25 -1193.98C-1145.25 -1198.15 -1141.59 -1201.54 -1137.09 -1201.54C-1132.58 -1201.54 -1128.92 -1198.15 -1128.92 -1193.98Z" fill="white"/>
<path d="M-1577.86 -1069.37C-1577.86 -1065.2 -1581.51 -1061.82 -1586.02 -1061.82C-1590.53 -1061.82 -1594.18 -1065.2 -1594.18 -1069.37C-1594.18 -1073.54 -1590.53 -1076.92 -1586.02 -1076.92C-1581.51 -1076.92 -1577.86 -1073.54 -1577.86 -1069.37Z" fill="white"/>
<path d="M1352.46 -276.394C1352.46 -272.223 1348.81 -268.842 1344.3 -268.842C1339.79 -268.842 1336.14 -272.223 1336.14 -276.394C1336.14 -280.565 1339.79 -283.946 1344.3 -283.946C1348.81 -283.946 1352.46 -280.565 1352.46 -276.394Z" fill="white"/>
<path d="M911.692 14.365C911.692 18.5359 908.038 21.917 903.53 21.917C899.022 21.917 895.367 18.5359 895.367 14.365C895.367 10.194 899.022 6.81274 903.53 6.81274C908.038 6.81274 911.692 10.194 911.692 14.365Z" fill="white"/>
<path d="M1266.76 108.767C1266.76 112.938 1263.1 116.319 1258.6 116.319C1254.09 116.319 1250.43 112.938 1250.43 108.767C1250.43 104.596 1254.09 101.215 1258.6 101.215C1263.1 101.215 1266.76 104.596 1266.76 108.767Z" fill="white"/>
<path d="M1258.6 252.258C1258.6 256.429 1254.94 259.811 1250.43 259.811C1245.93 259.811 1242.27 256.429 1242.27 252.258C1242.27 248.087 1245.93 244.706 1250.43 244.706C1254.94 244.706 1258.6 248.087 1258.6 252.258Z" fill="white"/>
<path d="M1327.98 222.05C1327.98 226.221 1324.32 229.602 1319.82 229.602C1315.31 229.602 1311.65 226.221 1311.65 222.05C1311.65 217.879 1315.31 214.498 1319.82 214.498C1324.32 214.498 1327.98 217.879 1327.98 222.05Z" fill="white"/>
<path d="M879.042 346.66C879.042 350.831 875.387 354.212 870.879 354.212C866.371 354.212 862.717 350.831 862.717 346.66C862.717 342.489 866.371 339.108 870.879 339.108C875.387 339.108 879.042 342.489 879.042 346.66Z" fill="white"/>
<path d="M201.557 2903.07C201.557 2907.24 197.903 2910.62 193.395 2910.62C188.887 2910.62 185.232 2907.24 185.232 2903.07C185.232 2898.9 188.887 2895.52 193.395 2895.52C197.903 2895.52 201.557 2898.9 201.557 2903.07Z" fill="white"/>
<path d="M242.37 2944.61C242.37 2948.78 238.715 2952.16 234.207 2952.16C229.699 2952.16 226.045 2948.78 226.045 2944.61C226.045 2940.44 229.699 2937.06 234.207 2937.06C238.715 2937.06 242.37 2940.44 242.37 2944.61Z" fill="white"/>
<path d="M13.8208 3193.83C13.8208 3198 10.1665 3201.38 5.65845 3201.38C1.15044 3201.38 -2.50415 3198 -2.50415 3193.83C-2.50415 3189.66 1.15044 3186.28 5.65845 3186.28C10.1665 3186.28 13.8208 3189.66 13.8208 3193.83Z" fill="white"/>
<path d="M205.639 3367.53C205.639 3371.7 201.984 3375.08 197.476 3375.08C192.968 3375.08 189.314 3371.7 189.314 3367.53C189.314 3363.36 192.968 3359.98 197.476 3359.98C201.984 3359.98 205.639 3363.36 205.639 3367.53Z" fill="white"/>
<path d="M491.325 3054.11C491.325 3058.29 487.671 3061.67 483.163 3061.67C478.655 3061.67 475 3058.29 475 3054.11C475 3049.94 478.655 3046.56 483.163 3046.56C487.671 3046.56 491.325 3049.94 491.325 3054.11Z" fill="white"/>
<path d="M1519.8 1067.89C1519.8 1072.06 1516.14 1075.45 1511.63 1075.45C1507.13 1075.45 1503.47 1072.06 1503.47 1067.89C1503.47 1063.72 1507.13 1060.34 1511.63 1060.34C1516.14 1060.34 1519.8 1063.72 1519.8 1067.89Z" fill="white"/>
<path d="M1560.61 1109.43C1560.61 1113.6 1556.95 1116.98 1552.45 1116.98C1547.94 1116.98 1544.28 1113.6 1544.28 1109.43C1544.28 1105.26 1547.94 1101.88 1552.45 1101.88C1556.95 1101.88 1560.61 1105.26 1560.61 1109.43Z" fill="white"/>
<path d="M1332.06 1358.65C1332.06 1362.82 1328.4 1366.2 1323.9 1366.2C1319.39 1366.2 1315.73 1362.82 1315.73 1358.65C1315.73 1354.48 1319.39 1351.1 1323.9 1351.1C1328.4 1351.1 1332.06 1354.48 1332.06 1358.65Z" fill="white"/>
<path d="M1523.88 1532.35C1523.88 1536.52 1520.22 1539.9 1515.71 1539.9C1511.21 1539.9 1507.55 1536.52 1507.55 1532.35C1507.55 1528.18 1511.21 1524.8 1515.71 1524.8C1520.22 1524.8 1523.88 1528.18 1523.88 1532.35Z" fill="white"/>
<path d="M1809.56 1218.94C1809.56 1223.11 1805.91 1226.49 1801.4 1226.49C1796.89 1226.49 1793.24 1223.11 1793.24 1218.94C1793.24 1214.77 1796.89 1211.38 1801.4 1211.38C1805.91 1211.38 1809.56 1214.77 1809.56 1218.94Z" fill="white"/>
<path d="M201.557 2903.07C201.557 2907.24 197.903 2910.62 193.395 2910.62C188.887 2910.62 185.232 2907.24 185.232 2903.07C185.232 2898.9 188.887 2895.52 193.395 2895.52C197.903 2895.52 201.557 2898.9 201.557 2903.07Z" fill="white"/>
<path d="M242.37 2944.61C242.37 2948.78 238.715 2952.16 234.207 2952.16C229.699 2952.16 226.045 2948.78 226.045 2944.61C226.045 2940.44 229.699 2937.06 234.207 2937.06C238.715 2937.06 242.37 2940.44 242.37 2944.61Z" fill="white"/>
<path d="M13.8208 3193.83C13.8208 3198 10.1665 3201.38 5.65845 3201.38C1.15044 3201.38 -2.50415 3198 -2.50415 3193.83C-2.50415 3189.66 1.15044 3186.28 5.65845 3186.28C10.1665 3186.28 13.8208 3189.66 13.8208 3193.83Z" fill="white"/>
<path d="M205.639 3367.53C205.639 3371.7 201.984 3375.08 197.476 3375.08C192.968 3375.08 189.314 3371.7 189.314 3367.53C189.314 3363.36 192.968 3359.98 197.476 3359.98C201.984 3359.98 205.639 3363.36 205.639 3367.53Z" fill="white"/>
<path d="M491.325 3054.11C491.325 3058.29 487.671 3061.67 483.163 3061.67C478.655 3061.67 475 3058.29 475 3054.11C475 3049.94 478.655 3046.56 483.163 3046.56C487.671 3046.56 491.325 3049.94 491.325 3054.11Z" fill="white"/>
<path d="M1058.62 4183.16C1058.62 4187.34 1054.96 4190.72 1050.45 4190.72C1045.95 4190.72 1042.29 4187.34 1042.29 4183.16C1042.29 4178.99 1045.95 4175.61 1050.45 4175.61C1054.96 4175.61 1058.62 4178.99 1058.62 4183.16Z" fill="white"/>
<path d="M1099.43 4224.7C1099.43 4228.87 1095.77 4232.25 1091.27 4232.25C1086.76 4232.25 1083.1 4228.87 1083.1 4224.7C1083.1 4220.53 1086.76 4217.15 1091.27 4217.15C1095.77 4217.15 1099.43 4220.53 1099.43 4224.7Z" fill="white"/>
<path d="M870.879 4473.92C870.879 4478.09 867.225 4481.47 862.717 4481.47C858.209 4481.47 854.554 4478.09 854.554 4473.92C854.554 4469.75 858.209 4466.37 862.717 4466.37C867.225 4466.37 870.879 4469.75 870.879 4473.92Z" fill="white"/>
<path d="M1062.7 4647.62C1062.7 4651.79 1059.04 4655.18 1054.53 4655.18C1050.03 4655.18 1046.37 4651.79 1046.37 4647.62C1046.37 4643.45 1050.03 4640.07 1054.53 4640.07C1059.04 4640.07 1062.7 4643.45 1062.7 4647.62Z" fill="white"/>
<path d="M1348.38 4334.21C1348.38 4338.38 1344.73 4341.76 1340.22 4341.76C1335.71 4341.76 1332.06 4338.38 1332.06 4334.21C1332.06 4330.04 1335.71 4326.66 1340.22 4326.66C1344.73 4326.66 1348.38 4330.04 1348.38 4334.21Z" fill="white"/>
</svg>
