<svg width="1512" height="1675" viewBox="0 0 1512 1675" fill="none" xmlns="http://www.w3.org/2000/svg">
<g clip-path="url(#clip0_228_24487)">
<path d="M-2308.4 -5150.33C-2308.4 -5146.16 -2312.06 -5142.78 -2316.56 -5142.78C-2321.07 -5142.78 -2324.73 -5146.16 -2324.73 -5150.33C-2324.73 -5154.5 -2321.07 -5157.88 -2316.56 -5157.88C-2312.06 -5157.88 -2308.4 -5154.5 -2308.4 -5150.33Z" fill="white"/>
<path d="M-2194.13 -5055.93C-2194.13 -5051.76 -2197.78 -5048.38 -2202.29 -5048.38C-2206.8 -5048.38 -2210.45 -5051.76 -2210.45 -5055.93C-2210.45 -5060.1 -2206.8 -5063.48 -2202.29 -5063.48C-2197.78 -5063.48 -2194.13 -5060.1 -2194.13 -5055.93Z" fill="white"/>
<path d="M-1867.63 -4829.36C-1867.63 -4825.19 -1871.28 -4821.81 -1875.79 -4821.81C-1880.3 -4821.81 -1883.95 -4825.19 -1883.95 -4829.36C-1883.95 -4833.53 -1880.3 -4836.92 -1875.79 -4836.92C-1871.28 -4836.92 -1867.63 -4833.53 -1867.63 -4829.36Z" fill="white"/>
<path d="M-2369.62 -3874.01C-2369.62 -3869.84 -2373.27 -3866.46 -2377.78 -3866.46C-2382.29 -3866.46 -2385.94 -3869.84 -2385.94 -3874.01C-2385.94 -3878.18 -2382.29 -3881.57 -2377.78 -3881.57C-2373.27 -3881.57 -2369.62 -3878.18 -2369.62 -3874.01Z" fill="white"/>
<path d="M-2255.34 -3779.61C-2255.34 -3775.44 -2259 -3772.06 -2263.51 -3772.06C-2268.02 -3772.06 -2271.67 -3775.44 -2271.67 -3779.61C-2271.67 -3783.78 -2268.02 -3787.16 -2263.51 -3787.16C-2259 -3787.16 -2255.34 -3783.78 -2255.34 -3779.61Z" fill="white"/>
<path d="M-2365.54 -3722.97C-2365.54 -3718.8 -2369.19 -3715.42 -2373.7 -3715.42C-2378.21 -3715.42 -2381.86 -3718.8 -2381.86 -3722.97C-2381.86 -3727.14 -2378.21 -3730.52 -2373.7 -3730.52C-2369.19 -3730.52 -2365.54 -3727.14 -2365.54 -3722.97Z" fill="white"/>
<path d="M-843.238 -3099.92C-843.238 -3095.74 -846.893 -3092.36 -851.401 -3092.36C-855.909 -3092.36 -859.563 -3095.74 -859.563 -3099.92C-859.563 -3104.09 -855.909 -3107.47 -851.401 -3107.47C-846.893 -3107.47 -843.238 -3104.09 -843.238 -3099.92Z" fill="white"/>
<path d="M-806.507 -3058.38C-806.507 -3054.21 -810.161 -3050.83 -814.669 -3050.83C-819.177 -3050.83 -822.832 -3054.21 -822.832 -3058.38C-822.832 -3062.55 -819.177 -3065.93 -814.669 -3065.93C-810.161 -3065.93 -806.507 -3062.55 -806.507 -3058.38Z" fill="white"/>
<path d="M-2185.96 -3201.87C-2185.96 -3197.7 -2189.62 -3194.32 -2194.13 -3194.32C-2198.63 -3194.32 -2202.29 -3197.7 -2202.29 -3201.87C-2202.29 -3206.04 -2198.63 -3209.42 -2194.13 -3209.42C-2189.62 -3209.42 -2185.96 -3206.04 -2185.96 -3201.87Z" fill="white"/>
<path d="M-549.389 -3505.84C-549.389 -3501.67 -553.044 -3498.29 -557.552 -3498.29C-562.06 -3498.29 -565.714 -3501.67 -565.714 -3505.84C-565.714 -3510.02 -562.06 -3513.4 -557.552 -3513.4C-553.044 -3513.4 -549.389 -3510.02 -549.389 -3505.84Z" fill="white"/>
<path d="M-545.308 -2952.65C-545.308 -2948.48 -548.963 -2945.1 -553.471 -2945.1C-557.979 -2945.1 -561.633 -2948.48 -561.633 -2952.65C-561.633 -2956.82 -557.979 -2960.2 -553.471 -2960.2C-548.963 -2960.2 -545.308 -2956.82 -545.308 -2952.65Z" fill="white"/>
<path d="M-357.571 -2862.02C-357.571 -2857.85 -361.226 -2854.47 -365.734 -2854.47C-370.242 -2854.47 -373.896 -2857.85 -373.896 -2862.02C-373.896 -2866.19 -370.242 -2869.57 -365.734 -2869.57C-361.226 -2869.57 -357.571 -2866.19 -357.571 -2862.02Z" fill="white"/>
<path d="M-190.241 -3415.22C-190.241 -3411.05 -193.895 -3407.67 -198.403 -3407.67C-202.911 -3407.67 -206.566 -3411.05 -206.566 -3415.22C-206.566 -3419.39 -202.911 -3422.77 -198.403 -3422.77C-193.895 -3422.77 -190.241 -3419.39 -190.241 -3415.22Z" fill="white"/>
<path d="M91.3643 -2982.86C91.3643 -2978.69 87.7098 -2975.3 83.2018 -2975.3C78.6938 -2975.3 75.0392 -2978.69 75.0392 -2982.86C75.0392 -2987.03 78.6938 -2990.41 83.2018 -2990.41C87.7098 -2990.41 91.3643 -2987.03 91.3643 -2982.86Z" fill="white"/>
<path d="M21.9832 -2952.65C21.9832 -2948.48 18.3288 -2945.1 13.8208 -2945.1C9.31279 -2945.1 5.65834 -2948.48 5.65834 -2952.65C5.65834 -2956.82 9.31279 -2960.2 13.8208 -2960.2C18.3288 -2960.2 21.9832 -2956.82 21.9832 -2952.65Z" fill="white"/>
<path d="M87.2831 -2537.28C87.2831 -2533.11 83.6284 -2529.73 79.1204 -2529.73C74.6124 -2529.73 70.958 -2533.11 70.958 -2537.28C70.958 -2541.45 74.6124 -2544.83 79.1204 -2544.83C83.6284 -2544.83 87.2831 -2541.45 87.2831 -2537.28Z" fill="white"/>
<path d="M1642.23 -2208.76C1642.23 -2204.59 1638.58 -2201.21 1634.07 -2201.21C1629.56 -2201.21 1625.91 -2204.59 1625.91 -2208.76C1625.91 -2212.93 1629.56 -2216.31 1634.07 -2216.31C1638.58 -2216.31 1642.23 -2212.93 1642.23 -2208.76Z" fill="white"/>
<path d="M-239.216 -2767.62C-239.216 -2763.45 -242.87 -2760.07 -247.378 -2760.07C-251.886 -2760.07 -255.541 -2763.45 -255.541 -2767.62C-255.541 -2771.79 -251.886 -2775.17 -247.378 -2775.17C-242.87 -2775.17 -239.216 -2771.79 -239.216 -2767.62Z" fill="white"/>
<path d="M-345.328 -2707.2C-345.328 -2703.03 -348.982 -2699.65 -353.49 -2699.65C-357.998 -2699.65 -361.653 -2703.03 -361.653 -2707.2C-361.653 -2711.37 -357.998 -2714.75 -353.49 -2714.75C-348.982 -2714.75 -345.328 -2711.37 -345.328 -2707.2Z" fill="white"/>
<path d="M-2296.16 -4999.29C-2296.16 -4995.12 -2299.81 -4991.73 -2304.32 -4991.73C-2308.83 -4991.73 -2312.48 -4995.12 -2312.48 -4999.29C-2312.48 -5003.46 -2308.83 -5006.84 -2304.32 -5006.84C-2299.81 -5006.84 -2296.16 -5003.46 -2296.16 -4999.29Z" fill="white"/>
<path d="M-1928.85 -5244.73C-1928.85 -5240.56 -1932.5 -5237.18 -1937.01 -5237.18C-1941.52 -5237.18 -1945.17 -5240.56 -1945.17 -5244.73C-1945.17 -5248.9 -1941.52 -5252.28 -1937.01 -5252.28C-1932.5 -5252.28 -1928.85 -5248.9 -1928.85 -5244.73Z" fill="white"/>
<path d="M-1859.46 -5274.94C-1859.46 -5270.77 -1863.12 -5267.39 -1867.63 -5267.39C-1872.14 -5267.39 -1875.79 -5270.77 -1875.79 -5274.94C-1875.79 -5279.11 -1872.14 -5282.49 -1867.63 -5282.49C-1863.12 -5282.49 -1859.46 -5279.11 -1859.46 -5274.94Z" fill="white"/>
<path d="M-1916.6 -5384.45C-1916.6 -5380.28 -1920.26 -5376.9 -1924.76 -5376.9C-1929.27 -5376.9 -1932.93 -5380.28 -1932.93 -5384.45C-1932.93 -5388.62 -1929.27 -5392 -1924.76 -5392C-1920.26 -5392 -1916.6 -5388.62 -1916.6 -5384.45Z" fill="white"/>
<path d="M-1067.71 -4995.51C-1067.71 -4991.34 -1071.36 -4987.96 -1075.87 -4987.96C-1080.38 -4987.96 -1084.03 -4991.34 -1084.03 -4995.51C-1084.03 -4999.68 -1080.38 -5003.06 -1075.87 -5003.06C-1071.36 -5003.06 -1067.71 -4999.68 -1067.71 -4995.51Z" fill="white"/>
<path d="M-875.888 -4821.81C-875.888 -4817.64 -879.542 -4814.26 -884.05 -4814.26C-888.558 -4814.26 -892.213 -4817.64 -892.213 -4821.81C-892.213 -4825.98 -888.558 -4829.36 -884.05 -4829.36C-879.542 -4829.36 -875.888 -4825.98 -875.888 -4821.81Z" fill="white"/>
<path d="M-875.888 -5290.05C-875.888 -5285.87 -879.542 -5282.49 -884.05 -5282.49C-888.558 -5282.49 -892.213 -5285.87 -892.213 -5290.05C-892.213 -5294.22 -888.558 -5297.6 -884.05 -5297.6C-879.542 -5297.6 -875.888 -5294.22 -875.888 -5290.05Z" fill="white"/>
<path d="M-835.076 -5244.73C-835.076 -5240.56 -838.73 -5237.18 -843.238 -5237.18C-847.746 -5237.18 -851.401 -5240.56 -851.401 -5244.73C-851.401 -5248.9 -847.746 -5252.28 -843.238 -5252.28C-838.73 -5252.28 -835.076 -5248.9 -835.076 -5244.73Z" fill="white"/>
<path d="M-582.039 -5139C-582.039 -5134.83 -585.694 -5131.45 -590.202 -5131.45C-594.71 -5131.45 -598.364 -5134.83 -598.364 -5139C-598.364 -5143.17 -594.71 -5146.55 -590.202 -5146.55C-585.694 -5146.55 -582.039 -5143.17 -582.039 -5139Z" fill="white"/>
<path d="M-390.221 -5044.6C-390.221 -5040.43 -393.876 -5037.05 -398.384 -5037.05C-402.892 -5037.05 -406.546 -5040.43 -406.546 -5044.6C-406.546 -5048.77 -402.892 -5052.15 -398.384 -5052.15C-393.876 -5052.15 -390.221 -5048.77 -390.221 -5044.6Z" fill="white"/>
<path d="M-271.865 -4950.2C-271.865 -4946.03 -275.52 -4942.65 -280.028 -4942.65C-284.536 -4942.65 -288.191 -4946.03 -288.191 -4950.2C-288.191 -4954.37 -284.536 -4957.75 -280.028 -4957.75C-275.52 -4957.75 -271.865 -4954.37 -271.865 -4950.2Z" fill="white"/>
<path d="M-377.978 -4893.56C-377.978 -4889.39 -381.632 -4886 -386.14 -4886C-390.648 -4886 -394.302 -4889.39 -394.302 -4893.56C-394.302 -4897.73 -390.648 -4901.11 -386.14 -4901.11C-381.632 -4901.11 -377.978 -4897.73 -377.978 -4893.56Z" fill="white"/>
<path d="M-361.653 -5376.9C-361.653 -5372.72 -365.307 -5369.34 -369.815 -5369.34C-374.323 -5369.34 -377.978 -5372.72 -377.978 -5376.9C-377.978 -5381.07 -374.323 -5384.45 -369.815 -5384.45C-365.307 -5384.45 -361.653 -5381.07 -361.653 -5376.9Z" fill="white"/>
<path d="M-2.50411 -5278.72C-2.50411 -5274.55 -6.15856 -5271.17 -10.6666 -5271.17C-15.1746 -5271.17 -18.829 -5274.55 -18.829 -5278.72C-18.829 -5282.89 -15.1746 -5286.27 -10.6666 -5286.27C-6.15856 -5286.27 -2.50411 -5282.89 -2.50411 -5278.72Z" fill="white"/>
<path d="M58.7143 -5169.21C58.7143 -5165.04 55.0598 -5161.66 50.5518 -5161.66C46.0438 -5161.66 42.3894 -5165.04 42.3894 -5169.21C42.3894 -5173.38 46.0438 -5176.76 50.5518 -5176.76C55.0598 -5176.76 58.7143 -5173.38 58.7143 -5169.21Z" fill="white"/>
<path d="M-6.58534 -5135.23C-6.58534 -5131.06 -10.2398 -5127.67 -14.7478 -5127.67C-19.2558 -5127.67 -22.9102 -5131.06 -22.9102 -5135.23C-22.9102 -5139.4 -19.2558 -5142.78 -14.7478 -5142.78C-10.2398 -5142.78 -6.58534 -5139.4 -6.58534 -5135.23Z" fill="white"/>
<path d="M50.5518 -4723.63C50.5518 -4719.46 46.8974 -4716.08 42.3894 -4716.08C37.8814 -4716.08 34.2269 -4719.46 34.2269 -4723.63C34.2269 -4727.8 37.8814 -4731.18 42.3894 -4731.18C46.8974 -4731.18 50.5518 -4727.8 50.5518 -4723.63Z" fill="white"/>
<path d="M-6.58534 -2193.65C-6.58534 -2189.48 -10.2398 -2186.1 -14.7478 -2186.1C-19.2558 -2186.1 -22.9102 -2189.48 -22.9102 -2193.65C-22.9102 -2197.83 -19.2558 -2201.21 -14.7478 -2201.21C-10.2398 -2201.21 -6.58534 -2197.83 -6.58534 -2193.65Z" fill="white"/>
<path d="M-724.882 -1944.43C-724.882 -1940.26 -728.537 -1936.88 -733.045 -1936.88C-737.553 -1936.88 -741.207 -1940.26 -741.207 -1944.43C-741.207 -1948.6 -737.553 -1951.99 -733.045 -1951.99C-728.537 -1951.99 -724.882 -1948.6 -724.882 -1944.43Z" fill="white"/>
<path d="M-1084.03 -2042.61C-1084.03 -2038.44 -1087.69 -2035.06 -1092.19 -2035.06C-1096.7 -2035.06 -1100.36 -2038.44 -1100.36 -2042.61C-1100.36 -2046.78 -1096.7 -2050.16 -1092.19 -2050.16C-1087.69 -2050.16 -1084.03 -2046.78 -1084.03 -2042.61Z" fill="white"/>
<path d="M-839.157 -2635.46C-839.157 -2631.29 -842.811 -2627.9 -847.319 -2627.9C-851.827 -2627.9 -855.482 -2631.29 -855.482 -2635.46C-855.482 -2639.63 -851.827 -2643.01 -847.319 -2643.01C-842.811 -2643.01 -839.157 -2639.63 -839.157 -2635.46Z" fill="white"/>
<path d="M-1035.06 -2809.16C-1035.06 -2804.99 -1038.71 -2801.6 -1043.22 -2801.6C-1047.73 -2801.6 -1051.38 -2804.99 -1051.38 -2809.16C-1051.38 -2813.33 -1047.73 -2816.71 -1043.22 -2816.71C-1038.71 -2816.71 -1035.06 -2813.33 -1035.06 -2809.16Z" fill="white"/>
<path d="M-1904.36 -2593.92C-1904.36 -2589.75 -1908.01 -2586.37 -1912.52 -2586.37C-1917.03 -2586.37 -1920.68 -2589.75 -1920.68 -2593.92C-1920.68 -2598.09 -1917.03 -2601.47 -1912.52 -2601.47C-1908.01 -2601.47 -1904.36 -2598.09 -1904.36 -2593.92Z" fill="white"/>
<path d="M-1545.21 -2491.97C-1545.21 -2487.79 -1548.86 -2484.41 -1553.37 -2484.41C-1557.88 -2484.41 -1561.54 -2487.79 -1561.54 -2491.97C-1561.54 -2496.14 -1557.88 -2499.52 -1553.37 -2499.52C-1548.86 -2499.52 -1545.21 -2496.14 -1545.21 -2491.97Z" fill="white"/>
<path d="M-1492.15 -2386.24C-1492.15 -2382.06 -1495.81 -2378.68 -1500.32 -2378.68C-1504.82 -2378.68 -1508.48 -2382.06 -1508.48 -2386.24C-1508.48 -2390.41 -1504.82 -2393.79 -1500.32 -2393.79C-1495.81 -2393.79 -1492.15 -2390.41 -1492.15 -2386.24Z" fill="white"/>
<path d="M-1557.45 -2352.25C-1557.45 -2348.08 -1561.11 -2344.7 -1565.62 -2344.7C-1570.12 -2344.7 -1573.78 -2348.08 -1573.78 -2352.25C-1573.78 -2356.42 -1570.12 -2359.8 -1565.62 -2359.8C-1561.11 -2359.8 -1557.45 -2356.42 -1557.45 -2352.25Z" fill="white"/>
<path d="M-2128.83 -2356.03C-2128.83 -2351.86 -2132.48 -2348.47 -2136.99 -2348.47C-2141.5 -2348.47 -2145.15 -2351.86 -2145.15 -2356.03C-2145.15 -2360.2 -2141.5 -2363.58 -2136.99 -2363.58C-2132.48 -2363.58 -2128.83 -2360.2 -2128.83 -2356.03Z" fill="white"/>
<path d="M-1941.09 -2257.85C-1941.09 -2253.68 -1944.74 -2250.3 -1949.25 -2250.3C-1953.76 -2250.3 -1957.41 -2253.68 -1957.41 -2257.85C-1957.41 -2262.02 -1953.76 -2265.4 -1949.25 -2265.4C-1944.74 -2265.4 -1941.09 -2262.02 -1941.09 -2257.85Z" fill="white"/>
<path d="M-1822.73 -2163.45C-1822.73 -2159.28 -1826.39 -2155.89 -1830.9 -2155.89C-1835.4 -2155.89 -1839.06 -2159.28 -1839.06 -2163.45C-1839.06 -2167.62 -1835.4 -2171 -1830.9 -2171C-1826.39 -2171 -1822.73 -2167.62 -1822.73 -2163.45Z" fill="white"/>
<path d="M-1928.85 -2106.8C-1928.85 -2102.63 -1932.5 -2099.25 -1937.01 -2099.25C-1941.52 -2099.25 -1945.17 -2102.63 -1945.17 -2106.8C-1945.17 -2110.98 -1941.52 -2114.36 -1937.01 -2114.36C-1932.5 -2114.36 -1928.85 -2110.98 -1928.85 -2106.8Z" fill="white"/>
<path d="M-2422.68 -2499.52C-2422.68 -2495.35 -2426.33 -2491.97 -2430.84 -2491.97C-2435.35 -2491.97 -2439 -2495.35 -2439 -2499.52C-2439 -2503.69 -2435.35 -2507.07 -2430.84 -2507.07C-2426.33 -2507.07 -2422.68 -2503.69 -2422.68 -2499.52Z" fill="white"/>
<path d="M-2381.86 -2461.76C-2381.86 -2457.59 -2385.52 -2454.2 -2390.03 -2454.2C-2394.53 -2454.2 -2398.19 -2457.59 -2398.19 -2461.76C-2398.19 -2465.93 -2394.53 -2469.31 -2390.03 -2469.31C-2385.52 -2469.31 -2381.86 -2465.93 -2381.86 -2461.76Z" fill="white"/>
<path d="M-2422.68 -2035.06C-2422.68 -2030.89 -2426.33 -2027.51 -2430.84 -2027.51C-2435.35 -2027.51 -2439 -2030.89 -2439 -2035.06C-2439 -2039.23 -2435.35 -2042.61 -2430.84 -2042.61C-2426.33 -2042.61 -2422.68 -2039.23 -2422.68 -2035.06Z" fill="white"/>
<path d="M-2422.68 -1646.12C-2422.68 -1641.95 -2426.33 -1638.57 -2430.84 -1638.57C-2435.35 -1638.57 -2439 -1641.95 -2439 -1646.12C-2439 -1650.29 -2435.35 -1653.67 -2430.84 -1653.67C-2426.33 -1653.67 -2422.68 -1650.29 -2422.68 -1646.12Z" fill="white"/>
<path d="M-2385.94 -1608.36C-2385.94 -1604.19 -2389.6 -1600.81 -2394.11 -1600.81C-2398.61 -1600.81 -2402.27 -1604.19 -2402.27 -1608.36C-2402.27 -1612.53 -2398.61 -1615.91 -2394.11 -1615.91C-2389.6 -1615.91 -2385.94 -1612.53 -2385.94 -1608.36Z" fill="white"/>
<path d="M-1908.44 -1740.52C-1908.44 -1736.35 -1912.09 -1732.97 -1916.6 -1732.97C-1921.11 -1732.97 -1924.76 -1736.35 -1924.76 -1740.52C-1924.76 -1744.7 -1921.11 -1748.08 -1916.6 -1748.08C-1912.09 -1748.08 -1908.44 -1744.7 -1908.44 -1740.52Z" fill="white"/>
<path d="M-1790.08 -1657.45C-1790.08 -1653.28 -1793.74 -1649.9 -1798.25 -1649.9C-1802.75 -1649.9 -1806.41 -1653.28 -1806.41 -1657.45C-1806.41 -1661.62 -1802.75 -1665 -1798.25 -1665C-1793.74 -1665 -1790.08 -1661.62 -1790.08 -1657.45Z" fill="white"/>
<path d="M-1598.27 -1948.21C-1598.27 -1944.04 -1601.92 -1940.66 -1606.43 -1940.66C-1610.94 -1940.66 -1614.59 -1944.04 -1614.59 -1948.21C-1614.59 -1952.38 -1610.94 -1955.76 -1606.43 -1955.76C-1601.92 -1955.76 -1598.27 -1952.38 -1598.27 -1948.21Z" fill="white"/>
<path d="M-1561.54 -1914.22C-1561.54 -1910.05 -1565.19 -1906.67 -1569.7 -1906.67C-1574.21 -1906.67 -1577.86 -1910.05 -1577.86 -1914.22C-1577.86 -1918.4 -1574.21 -1921.78 -1569.7 -1921.78C-1565.19 -1921.78 -1561.54 -1918.4 -1561.54 -1914.22Z" fill="white"/>
<path d="M-1496.24 -1940.66C-1496.24 -1936.49 -1499.89 -1933.1 -1504.4 -1933.1C-1508.91 -1933.1 -1512.56 -1936.49 -1512.56 -1940.66C-1512.56 -1944.83 -1508.91 -1948.21 -1504.4 -1948.21C-1499.89 -1948.21 -1496.24 -1944.83 -1496.24 -1940.66Z" fill="white"/>
<path d="M-1545.21 -1638.57C-1545.21 -1634.4 -1548.86 -1631.02 -1553.37 -1631.02C-1557.88 -1631.02 -1561.54 -1634.4 -1561.54 -1638.57C-1561.54 -1642.74 -1557.88 -1646.12 -1553.37 -1646.12C-1548.86 -1646.12 -1545.21 -1642.74 -1545.21 -1638.57Z" fill="white"/>
<path d="M-1557.45 -1498.85C-1557.45 -1494.68 -1561.11 -1491.3 -1565.62 -1491.3C-1570.12 -1491.3 -1573.78 -1494.68 -1573.78 -1498.85C-1573.78 -1503.03 -1570.12 -1506.41 -1565.62 -1506.41C-1561.11 -1506.41 -1557.45 -1503.03 -1557.45 -1498.85Z" fill="white"/>
<path d="M-1598.27 -1487.53C-1598.27 -1483.36 -1601.92 -1479.97 -1606.43 -1479.97C-1610.94 -1479.97 -1614.59 -1483.36 -1614.59 -1487.53C-1614.59 -1491.7 -1610.94 -1495.08 -1606.43 -1495.08C-1601.92 -1495.08 -1598.27 -1491.7 -1598.27 -1487.53Z" fill="white"/>
<path d="M-1488.07 -1529.06C-1488.07 -1524.89 -1491.73 -1521.51 -1496.24 -1521.51C-1500.74 -1521.51 -1504.4 -1524.89 -1504.4 -1529.06C-1504.4 -1533.23 -1500.74 -1536.62 -1496.24 -1536.62C-1491.73 -1536.62 -1488.07 -1533.23 -1488.07 -1529.06Z" fill="white"/>
<path d="M-1108.52 -1559.27C-1108.52 -1555.1 -1112.17 -1551.72 -1116.68 -1551.72C-1121.19 -1551.72 -1124.84 -1555.1 -1124.84 -1559.27C-1124.84 -1563.44 -1121.19 -1566.82 -1116.68 -1566.82C-1112.17 -1566.82 -1108.52 -1563.44 -1108.52 -1559.27Z" fill="white"/>
<path d="M-994.244 -1615.91C-994.244 -1611.74 -997.898 -1608.36 -1002.41 -1608.36C-1006.91 -1608.36 -1010.57 -1611.74 -1010.57 -1615.91C-1010.57 -1620.08 -1006.91 -1623.47 -1002.41 -1623.47C-997.898 -1623.47 -994.244 -1620.08 -994.244 -1615.91Z" fill="white"/>
<path d="M-1116.68 -1710.32C-1116.68 -1706.14 -1120.34 -1702.76 -1124.84 -1702.76C-1129.35 -1702.76 -1133.01 -1706.14 -1133.01 -1710.32C-1133.01 -1714.49 -1129.35 -1717.87 -1124.84 -1717.87C-1120.34 -1717.87 -1116.68 -1714.49 -1116.68 -1710.32Z" fill="white"/>
<path d="M-1304.42 -1804.72C-1304.42 -1800.55 -1308.07 -1797.17 -1312.58 -1797.17C-1317.09 -1797.17 -1320.74 -1800.55 -1320.74 -1804.72C-1320.74 -1808.89 -1317.09 -1812.27 -1312.58 -1812.27C-1308.07 -1812.27 -1304.42 -1808.89 -1304.42 -1804.72Z" fill="white"/>
<path d="M-2128.83 -1498.85C-2128.83 -1494.68 -2132.48 -1491.3 -2136.99 -1491.3C-2141.5 -1491.3 -2145.15 -1494.68 -2145.15 -1498.85C-2145.15 -1503.03 -2141.5 -1506.41 -2136.99 -1506.41C-2132.48 -1506.41 -2128.83 -1503.03 -2128.83 -1498.85Z" fill="white"/>
<path d="M-1937.01 -1404.45C-1937.01 -1400.28 -1940.66 -1396.9 -1945.17 -1396.9C-1949.68 -1396.9 -1953.33 -1400.28 -1953.33 -1404.45C-1953.33 -1408.62 -1949.68 -1412.01 -1945.17 -1412.01C-1940.66 -1412.01 -1937.01 -1408.62 -1937.01 -1404.45Z" fill="white"/>
<path d="M-1818.65 -1310.05C-1818.65 -1305.88 -1822.31 -1302.5 -1826.82 -1302.5C-1831.32 -1302.5 -1834.98 -1305.88 -1834.98 -1310.05C-1834.98 -1314.22 -1831.32 -1317.6 -1826.82 -1317.6C-1822.31 -1317.6 -1818.65 -1314.22 -1818.65 -1310.05Z" fill="white"/>
<path d="M-1928.85 -1253.41C-1928.85 -1249.24 -1932.5 -1245.86 -1937.01 -1245.86C-1941.52 -1245.86 -1945.17 -1249.24 -1945.17 -1253.41C-1945.17 -1257.58 -1941.52 -1260.96 -1937.01 -1260.96C-1932.5 -1260.96 -1928.85 -1257.58 -1928.85 -1253.41Z" fill="white"/>
<path d="M-1537.05 -1238.3C-1537.05 -1234.13 -1540.7 -1230.75 -1545.21 -1230.75C-1549.72 -1230.75 -1553.37 -1234.13 -1553.37 -1238.3C-1553.37 -1242.48 -1549.72 -1245.86 -1545.21 -1245.86C-1540.7 -1245.86 -1537.05 -1242.48 -1537.05 -1238.3Z" fill="white"/>
<path d="M-1528.89 -1087.26C-1528.89 -1083.09 -1532.54 -1079.71 -1537.05 -1079.71C-1541.56 -1079.71 -1545.21 -1083.09 -1545.21 -1087.26C-1545.21 -1091.43 -1541.56 -1094.81 -1537.05 -1094.81C-1532.54 -1094.81 -1528.89 -1091.43 -1528.89 -1087.26Z" fill="white"/>
<path d="M-1496.24 -1083.49C-1496.24 -1079.31 -1499.89 -1075.93 -1504.4 -1075.93C-1508.91 -1075.93 -1512.56 -1079.31 -1512.56 -1083.49C-1512.56 -1087.66 -1508.91 -1091.04 -1504.4 -1091.04C-1499.89 -1091.04 -1496.24 -1087.66 -1496.24 -1083.49Z" fill="white"/>
<path d="M-1418.69 -1143.9C-1418.69 -1139.73 -1422.35 -1136.35 -1426.85 -1136.35C-1431.36 -1136.35 -1435.02 -1139.73 -1435.02 -1143.9C-1435.02 -1148.07 -1431.36 -1151.46 -1426.85 -1151.46C-1422.35 -1151.46 -1418.69 -1148.07 -1418.69 -1143.9Z" fill="white"/>
<path d="M-1814.57 -856.92C-1814.57 -852.749 -1818.23 -849.368 -1822.73 -849.368C-1827.24 -849.368 -1830.9 -852.749 -1830.9 -856.92C-1830.9 -861.091 -1827.24 -864.473 -1822.73 -864.473C-1818.23 -864.473 -1814.57 -861.091 -1814.57 -856.92Z" fill="white"/>
<path d="M-1822.73 -792.727C-1822.73 -788.556 -1826.39 -785.174 -1830.9 -785.174C-1835.4 -785.174 -1839.06 -788.556 -1839.06 -792.727C-1839.06 -796.898 -1835.4 -800.279 -1830.9 -800.279C-1826.39 -800.279 -1822.73 -796.898 -1822.73 -792.727Z" fill="white"/>
<path d="M-1753.35 -736.086C-1753.35 -731.915 -1757.01 -728.533 -1761.52 -728.533C-1766.02 -728.533 -1769.68 -731.915 -1769.68 -736.086C-1769.68 -740.257 -1766.02 -743.638 -1761.52 -743.638C-1757.01 -743.638 -1753.35 -740.257 -1753.35 -736.086Z" fill="white"/>
<path d="M-1851.3 -656.788C-1851.3 -652.617 -1854.96 -649.235 -1859.46 -649.235C-1863.97 -649.235 -1867.63 -652.617 -1867.63 -656.788C-1867.63 -660.959 -1863.97 -664.34 -1859.46 -664.34C-1854.96 -664.34 -1851.3 -660.959 -1851.3 -656.788Z" fill="white"/>
<path d="M-2324.73 -758.742C-2324.73 -754.571 -2328.38 -751.19 -2332.89 -751.19C-2337.4 -751.19 -2341.05 -754.571 -2341.05 -758.742C-2341.05 -762.913 -2337.4 -766.294 -2332.89 -766.294C-2328.38 -766.294 -2324.73 -762.913 -2324.73 -758.742Z" fill="white"/>
<path d="M-2279.83 -720.981C-2279.83 -716.81 -2283.49 -713.429 -2287.99 -713.429C-2292.5 -713.429 -2296.16 -716.81 -2296.16 -720.981C-2296.16 -725.152 -2292.5 -728.533 -2287.99 -728.533C-2283.49 -728.533 -2279.83 -725.152 -2279.83 -720.981Z" fill="white"/>
<path d="M-2422.68 -1174.11C-2422.68 -1169.94 -2426.33 -1166.56 -2430.84 -1166.56C-2435.35 -1166.56 -2439 -1169.94 -2439 -1174.11C-2439 -1178.28 -2435.35 -1181.66 -2430.84 -1181.66C-2426.33 -1181.66 -2422.68 -1178.28 -2422.68 -1174.11Z" fill="white"/>
<path d="M-2039.04 -611.475C-2039.04 -607.304 -2042.69 -603.923 -2047.2 -603.923C-2051.71 -603.923 -2055.36 -607.304 -2055.36 -611.475C-2055.36 -615.646 -2051.71 -619.027 -2047.2 -619.027C-2042.69 -619.027 -2039.04 -615.646 -2039.04 -611.475Z" fill="white"/>
<path d="M-1965.58 -426.446C-1965.58 -422.275 -1969.23 -418.894 -1973.74 -418.894C-1978.25 -418.894 -1981.9 -422.275 -1981.9 -426.446C-1981.9 -430.617 -1978.25 -433.999 -1973.74 -433.999C-1969.23 -433.999 -1965.58 -430.617 -1965.58 -426.446Z" fill="white"/>
<path d="M-1826.82 -377.357C-1826.82 -373.186 -1830.47 -369.805 -1834.98 -369.805C-1839.49 -369.805 -1843.14 -373.186 -1843.14 -377.357C-1843.14 -381.528 -1839.49 -384.909 -1834.98 -384.909C-1830.47 -384.909 -1826.82 -381.528 -1826.82 -377.357Z" fill="white"/>
<path d="M-1720.7 -433.999C-1720.7 -429.828 -1724.36 -426.446 -1728.87 -426.446C-1733.37 -426.446 -1737.03 -429.828 -1737.03 -433.999C-1737.03 -438.17 -1733.37 -441.551 -1728.87 -441.551C-1724.36 -441.551 -1720.7 -438.17 -1720.7 -433.999Z" fill="white"/>
<path d="M-1732.95 -588.818C-1732.95 -584.647 -1736.6 -581.266 -1741.11 -581.266C-1745.62 -581.266 -1749.27 -584.647 -1749.27 -588.818C-1749.27 -592.989 -1745.62 -596.37 -1741.11 -596.37C-1736.6 -596.37 -1732.95 -592.989 -1732.95 -588.818Z" fill="white"/>
<path d="M-1577.86 -645.459C-1577.86 -641.288 -1581.51 -637.907 -1586.02 -637.907C-1590.53 -637.907 -1594.18 -641.288 -1594.18 -645.459C-1594.18 -649.63 -1590.53 -653.011 -1586.02 -653.011C-1581.51 -653.011 -1577.86 -649.63 -1577.86 -645.459Z" fill="white"/>
<path d="M-1447.26 -758.742C-1447.26 -754.571 -1450.91 -751.19 -1455.42 -751.19C-1459.93 -751.19 -1463.59 -754.571 -1463.59 -758.742C-1463.59 -762.913 -1459.93 -766.294 -1455.42 -766.294C-1450.91 -766.294 -1447.26 -762.913 -1447.26 -758.742Z" fill="white"/>
<path d="M-749.37 -860.696C-749.37 -856.525 -753.024 -853.144 -757.532 -853.144C-762.04 -853.144 -765.695 -856.525 -765.695 -860.696C-765.695 -864.867 -762.04 -868.249 -757.532 -868.249C-753.024 -868.249 -749.37 -864.867 -749.37 -860.696Z" fill="white"/>
<path d="M-708.557 -822.935C-708.557 -818.765 -712.212 -815.383 -716.72 -815.383C-721.228 -815.383 -724.882 -818.765 -724.882 -822.935C-724.882 -827.106 -721.228 -830.488 -716.72 -830.488C-712.212 -830.488 -708.557 -827.106 -708.557 -822.935Z" fill="white"/>
<path d="M-455.521 -709.653C-455.521 -705.482 -459.175 -702.101 -463.683 -702.101C-468.191 -702.101 -471.846 -705.482 -471.846 -709.653C-471.846 -713.824 -468.191 -717.205 -463.683 -717.205C-459.175 -717.205 -455.521 -713.824 -455.521 -709.653Z" fill="white"/>
<path d="M-231.053 -955.098C-231.053 -950.928 -234.708 -947.546 -239.216 -947.546C-243.724 -947.546 -247.378 -950.928 -247.378 -955.098C-247.378 -959.269 -243.724 -962.651 -239.216 -962.651C-234.708 -962.651 -231.053 -959.269 -231.053 -955.098Z" fill="white"/>
<path d="M132.177 -845.592C132.177 -841.421 128.522 -838.04 124.014 -838.04C119.506 -838.04 115.852 -841.421 115.852 -845.592C115.852 -849.763 119.506 -853.144 124.014 -853.144C128.522 -853.144 132.177 -849.763 132.177 -845.592Z" fill="white"/>
<path d="M189.314 -747.414C189.314 -743.243 185.659 -739.862 181.151 -739.862C176.643 -739.862 172.989 -743.243 172.989 -747.414C172.989 -751.585 176.643 -754.966 181.151 -754.966C185.659 -754.966 189.314 -751.585 189.314 -747.414Z" fill="white"/>
<path d="M115.852 -709.653C115.852 -705.482 112.197 -702.101 107.689 -702.101C103.181 -702.101 99.5267 -705.482 99.5267 -709.653C99.5267 -713.824 103.181 -717.205 107.689 -717.205C112.197 -717.205 115.852 -713.824 115.852 -709.653Z" fill="white"/>
<path d="M201.557 155.071C201.557 159.242 197.903 162.623 193.395 162.623C188.887 162.623 185.232 159.242 185.232 155.071C185.232 150.9 188.887 147.519 193.395 147.519C197.903 147.519 201.557 150.9 201.557 155.071Z" fill="white"/>
<path d="M242.37 196.608C242.37 200.779 238.715 204.16 234.207 204.16C229.699 204.16 226.045 200.779 226.045 196.608C226.045 192.437 229.699 189.056 234.207 189.056C238.715 189.056 242.37 192.437 242.37 196.608Z" fill="white"/>
<path d="M13.8208 445.83C13.8208 450.001 10.1663 453.382 5.65834 453.382C1.15033 453.382 -2.50411 450.001 -2.50411 445.83C-2.50411 441.659 1.15033 438.277 5.65834 438.277C10.1663 438.277 13.8208 441.659 13.8208 445.83Z" fill="white"/>
<path d="M205.639 619.529C205.639 623.7 201.984 627.082 197.476 627.082C192.968 627.082 189.314 623.7 189.314 619.529C189.314 615.358 192.968 611.977 197.476 611.977C201.984 611.977 205.639 615.358 205.639 619.529Z" fill="white"/>
<path d="M491.325 306.114C491.325 310.285 487.671 313.667 483.163 313.667C478.655 313.667 475 310.285 475 306.114C475 301.943 478.655 298.562 483.163 298.562C487.671 298.562 491.325 301.943 491.325 306.114Z" fill="white"/>
<path d="M699.468 396.74C699.468 400.911 695.813 404.293 691.305 404.293C686.797 404.293 683.143 400.911 683.143 396.74C683.143 392.569 686.797 389.188 691.305 389.188C695.813 389.188 699.468 392.569 699.468 396.74Z" fill="white"/>
<path d="M703.549 551.56C703.549 555.731 699.895 559.112 695.387 559.112C690.879 559.112 687.224 555.731 687.224 551.56C687.224 547.389 690.879 544.008 695.387 544.008C699.895 544.008 703.549 547.389 703.549 551.56Z" fill="white"/>
<path d="M1034.13 593.097C1034.13 597.268 1030.47 600.649 1025.97 600.649C1021.46 600.649 1017.8 597.268 1017.8 593.097C1017.8 588.926 1021.46 585.544 1025.97 585.544C1030.47 585.544 1034.13 588.926 1034.13 593.097Z" fill="white"/>
<path d="M1846.29 627.082C1846.29 631.252 1842.64 634.634 1838.13 634.634C1833.62 634.634 1829.97 631.252 1829.97 627.082C1829.97 622.911 1833.62 619.529 1838.13 619.529C1842.64 619.529 1846.29 622.911 1846.29 627.082Z" fill="white"/>
<path d="M1740.18 691.275C1740.18 695.446 1736.53 698.827 1732.02 698.827C1727.51 698.827 1723.86 695.446 1723.86 691.275C1723.86 687.104 1727.51 683.723 1732.02 683.723C1736.53 683.723 1740.18 687.104 1740.18 691.275Z" fill="white"/>
<path d="M1723.86 540.232C1723.86 544.403 1720.2 547.784 1715.69 547.784C1711.19 547.784 1707.53 544.403 1707.53 540.232C1707.53 536.061 1711.19 532.68 1715.69 532.68C1720.2 532.68 1723.86 536.061 1723.86 540.232Z" fill="white"/>
<path d="M1234.11 759.245C1234.11 763.416 1230.45 766.797 1225.95 766.797C1221.44 766.797 1217.78 763.416 1217.78 759.245C1217.78 755.074 1221.44 751.693 1225.95 751.693C1230.45 751.693 1234.11 755.074 1234.11 759.245Z" fill="white"/>
<path d="M1128 717.708C1128 721.879 1124.34 725.26 1119.83 725.26C1115.33 725.26 1111.67 721.879 1111.67 717.708C1111.67 713.537 1115.33 710.156 1119.83 710.156C1124.34 710.156 1128 713.537 1128 717.708Z" fill="white"/>
<path d="M1532.04 445.83C1532.04 450.001 1528.38 453.382 1523.88 453.382C1519.37 453.382 1515.71 450.001 1515.71 445.83C1515.71 441.659 1519.37 438.277 1523.88 438.277C1528.38 438.277 1532.04 441.659 1532.04 445.83Z" fill="white"/>
<path d="M1756.51 200.384C1756.51 204.555 1752.85 207.936 1748.34 207.936C1743.84 207.936 1740.18 204.555 1740.18 200.384C1740.18 196.213 1743.84 192.832 1748.34 192.832C1752.85 192.832 1756.51 196.213 1756.51 200.384Z" fill="white"/>
<path d="M1932 136.19C1932 140.361 1928.35 143.743 1923.84 143.743C1919.33 143.743 1915.68 140.361 1915.68 136.19C1915.68 132.02 1919.33 128.638 1923.84 128.638C1928.35 128.638 1932 132.02 1932 136.19Z" fill="white"/>
<path d="M1560.61 173.951C1560.61 178.122 1556.95 181.504 1552.45 181.504C1547.94 181.504 1544.28 178.122 1544.28 173.951C1544.28 169.78 1547.94 166.399 1552.45 166.399C1556.95 166.399 1560.61 169.78 1560.61 173.951Z" fill="white"/>
<path d="M1674.88 117.31C1674.88 121.481 1671.23 124.862 1666.72 124.862C1662.21 124.862 1658.56 121.481 1658.56 117.31C1658.56 113.139 1662.21 109.758 1666.72 109.758C1671.23 109.758 1674.88 113.139 1674.88 117.31Z" fill="white"/>
<path d="M1556.53 22.9079C1556.53 27.0789 1552.87 30.4601 1548.36 30.4601C1543.86 30.4601 1540.2 27.0789 1540.2 22.9079C1540.2 18.737 1543.86 15.3557 1548.36 15.3557C1552.87 15.3557 1556.53 18.737 1556.53 22.9079Z" fill="white"/>
<path d="M1495.31 -33.7335C1495.31 -29.5626 1491.65 -26.1813 1487.15 -26.1813C1482.64 -26.1813 1478.98 -29.5626 1478.98 -33.7335C1478.98 -37.9045 1482.64 -41.2857 1487.15 -41.2857C1491.65 -41.2857 1495.31 -37.9045 1495.31 -33.7335Z" fill="white"/>
<path d="M1605.5 -86.5985C1605.5 -82.4275 1601.85 -79.0463 1597.34 -79.0463C1592.83 -79.0463 1589.18 -82.4275 1589.18 -86.5985C1589.18 -90.7694 1592.83 -94.1507 1597.34 -94.1507C1601.85 -94.1507 1605.5 -90.7694 1605.5 -86.5985Z" fill="white"/>
<path d="M1495.31 -181.001C1495.31 -176.83 1491.65 -173.449 1487.15 -173.449C1482.64 -173.449 1478.98 -176.83 1478.98 -181.001C1478.98 -185.172 1482.64 -188.553 1487.15 -188.553C1491.65 -188.553 1495.31 -185.172 1495.31 -181.001Z" fill="white"/>
<path d="M1364.71 -71.4945C1364.71 -67.3235 1361.05 -63.9423 1356.55 -63.9423C1352.04 -63.9423 1348.38 -67.3235 1348.38 -71.4945C1348.38 -75.6654 1352.04 -79.0463 1356.55 -79.0463C1361.05 -79.0463 1364.71 -75.6654 1364.71 -71.4945Z" fill="white"/>
<path d="M1005.56 34.2362C1005.56 38.4072 1001.91 41.7884 997.398 41.7884C992.89 41.7884 989.235 38.4072 989.235 34.2362C989.235 30.0653 992.89 26.684 997.398 26.684C1001.91 26.684 1005.56 30.0653 1005.56 34.2362Z" fill="white"/>
<path d="M879.042 75.7729C879.042 79.9439 875.387 83.3251 870.879 83.3251C866.371 83.3251 862.717 79.9439 862.717 75.7729C862.717 71.602 866.371 68.2207 870.879 68.2207C875.387 68.2207 879.042 71.602 879.042 75.7729Z" fill="white"/>
<path d="M723.955 60.6689C723.955 64.8398 720.301 68.2207 715.793 68.2207C711.285 68.2207 707.63 64.8398 707.63 60.6689C707.63 56.4979 711.285 53.1167 715.793 53.1167C720.301 53.1167 723.955 56.4979 723.955 60.6689Z" fill="white"/>
<path d="M817.824 -135.688C817.824 -131.517 814.169 -128.136 809.661 -128.136C805.153 -128.136 801.499 -131.517 801.499 -135.688C801.499 -139.859 805.153 -143.24 809.661 -143.24C814.169 -143.24 817.824 -139.859 817.824 -135.688Z" fill="white"/>
<path d="M1083.1 162.623C1083.1 166.794 1079.45 170.175 1074.94 170.175C1070.43 170.175 1066.78 166.794 1066.78 162.623C1066.78 158.452 1070.43 155.071 1074.94 155.071C1079.45 155.071 1083.1 158.452 1083.1 162.623Z" fill="white"/>
<path d="M1066.78 249.473C1066.78 253.644 1063.12 257.025 1058.62 257.025C1054.11 257.025 1050.45 253.644 1050.45 249.473C1050.45 245.302 1054.11 241.921 1058.62 241.921C1063.12 241.921 1066.78 245.302 1066.78 249.473Z" fill="white"/>
<path d="M1066.78 302.338C1066.78 306.509 1063.12 309.891 1058.62 309.891C1054.11 309.891 1050.45 306.509 1050.45 302.338C1050.45 298.167 1054.11 294.786 1058.62 294.786C1063.12 294.786 1066.78 298.167 1066.78 302.338Z" fill="white"/>
<path d="M1238.19 294.786C1238.19 298.957 1234.54 302.338 1230.03 302.338C1225.52 302.338 1221.87 298.957 1221.87 294.786C1221.87 290.615 1225.52 287.234 1230.03 287.234C1234.54 287.234 1238.19 290.615 1238.19 294.786Z" fill="white"/>
<path d="M1270.84 336.323C1270.84 340.494 1267.19 343.875 1262.68 343.875C1258.17 343.875 1254.52 340.494 1254.52 336.323C1254.52 332.152 1258.17 328.771 1262.68 328.771C1267.19 328.771 1270.84 332.152 1270.84 336.323Z" fill="white"/>
<path d="M1107.59 -173.449C1107.59 -169.278 1103.94 -165.897 1099.43 -165.897C1094.92 -165.897 1091.27 -169.278 1091.27 -173.449C1091.27 -177.62 1094.92 -181.001 1099.43 -181.001C1103.94 -181.001 1107.59 -177.62 1107.59 -173.449Z" fill="white"/>
<path d="M-1402.37 -203.657C-1402.37 -199.487 -1406.02 -196.105 -1410.53 -196.105C-1415.04 -196.105 -1418.69 -199.487 -1418.69 -203.657C-1418.69 -207.828 -1415.04 -211.21 -1410.53 -211.21C-1406.02 -211.21 -1402.37 -207.828 -1402.37 -203.657Z" fill="white"/>
<path d="M-1124.84 676.171C-1124.84 680.342 -1128.5 683.723 -1133.01 683.723C-1137.51 683.723 -1141.17 680.342 -1141.17 676.171C-1141.17 672 -1137.51 668.619 -1133.01 668.619C-1128.5 668.619 -1124.84 672 -1124.84 676.171Z" fill="white"/>
<path d="M-769.776 774.349C-769.776 778.52 -773.43 781.901 -777.938 781.901C-782.446 781.901 -786.101 778.52 -786.101 774.349C-786.101 770.178 -782.446 766.797 -777.938 766.797C-773.43 766.797 -769.776 770.178 -769.776 774.349Z" fill="white"/>
<path d="M-712.639 883.855C-712.639 888.026 -716.293 891.408 -720.801 891.408C-725.309 891.408 -728.964 888.026 -728.964 883.855C-728.964 879.684 -725.309 876.303 -720.801 876.303C-716.293 876.303 -712.639 879.684 -712.639 883.855Z" fill="white"/>
<path d="M-777.938 914.064C-777.938 918.235 -781.593 921.616 -786.101 921.616C-790.609 921.616 -794.263 918.235 -794.263 914.064C-794.263 909.893 -790.609 906.512 -786.101 906.512C-781.593 906.512 -777.938 909.893 -777.938 914.064Z" fill="white"/>
<path d="M-1345.23 914.064C-1345.23 918.235 -1348.88 921.616 -1353.39 921.616C-1357.9 921.616 -1361.55 918.235 -1361.55 914.064C-1361.55 909.893 -1357.9 906.512 -1353.39 906.512C-1348.88 906.512 -1345.23 909.893 -1345.23 914.064Z" fill="white"/>
<path d="M-1153.41 1008.47C-1153.41 1012.64 -1157.07 1016.02 -1161.57 1016.02C-1166.08 1016.02 -1169.74 1012.64 -1169.74 1008.47C-1169.74 1004.3 -1166.08 1000.91 -1161.57 1000.91C-1157.07 1000.91 -1153.41 1004.3 -1153.41 1008.47Z" fill="white"/>
<path d="M-1039.14 1106.64C-1039.14 1110.82 -1042.79 1114.2 -1047.3 1114.2C-1051.81 1114.2 -1055.46 1110.82 -1055.46 1106.64C-1055.46 1102.47 -1051.81 1099.09 -1047.3 1099.09C-1042.79 1099.09 -1039.14 1102.47 -1039.14 1106.64Z" fill="white"/>
<path d="M-1149.33 1163.29C-1149.33 1167.46 -1152.98 1170.84 -1157.49 1170.84C-1162 1170.84 -1165.66 1167.46 -1165.66 1163.29C-1165.66 1159.11 -1162 1155.73 -1157.49 1155.73C-1152.98 1155.73 -1149.33 1159.11 -1149.33 1163.29Z" fill="white"/>
<path d="M-716.72 1325.66C-716.72 1329.83 -720.374 1333.21 -724.882 1333.21C-729.39 1333.21 -733.045 1329.83 -733.045 1325.66C-733.045 1321.49 -729.39 1318.11 -724.882 1318.11C-720.374 1318.11 -716.72 1321.49 -716.72 1325.66Z" fill="white"/>
<path d="M-1834.98 1053.78C-1834.98 1057.95 -1838.63 1061.33 -1843.14 1061.33C-1847.65 1061.33 -1851.3 1057.95 -1851.3 1053.78C-1851.3 1049.61 -1847.65 1046.23 -1843.14 1046.23C-1838.63 1046.23 -1834.98 1049.61 -1834.98 1053.78Z" fill="white"/>
<path d="M-1643.16 766.797C-1643.16 770.968 -1646.81 774.349 -1651.32 774.349C-1655.83 774.349 -1659.48 770.968 -1659.48 766.797C-1659.48 762.626 -1655.83 759.245 -1651.32 759.245C-1646.81 759.245 -1643.16 762.626 -1643.16 766.797Z" fill="white"/>
<path d="M-2275.75 1344.54C-2275.75 1348.71 -2279.41 1352.09 -2283.91 1352.09C-2288.42 1352.09 -2292.08 1348.71 -2292.08 1344.54C-2292.08 1340.37 -2288.42 1336.99 -2283.91 1336.99C-2279.41 1336.99 -2275.75 1340.37 -2275.75 1344.54Z" fill="white"/>
<path d="M-1920.68 1438.94C-1920.68 1443.11 -1924.34 1446.49 -1928.85 1446.49C-1933.35 1446.49 -1937.01 1443.11 -1937.01 1438.94C-1937.01 1434.77 -1933.35 1431.39 -1928.85 1431.39C-1924.34 1431.39 -1920.68 1434.77 -1920.68 1438.94Z" fill="white"/>
<path d="M-1928.85 1582.43C-1928.85 1586.6 -1932.5 1589.98 -1937.01 1589.98C-1941.52 1589.98 -1945.17 1586.6 -1945.17 1582.43C-1945.17 1578.26 -1941.52 1574.88 -1937.01 1574.88C-1932.5 1574.88 -1928.85 1578.26 -1928.85 1582.43Z" fill="white"/>
<path d="M-1859.46 1552.22C-1859.46 1556.39 -1863.12 1559.78 -1867.63 1559.78C-1872.14 1559.78 -1875.79 1556.39 -1875.79 1552.22C-1875.79 1548.05 -1872.14 1544.67 -1867.63 1544.67C-1863.12 1544.67 -1859.46 1548.05 -1859.46 1552.22Z" fill="white"/>
<path d="M-2308.4 1676.83C-2308.4 1681 -2312.06 1684.39 -2316.56 1684.39C-2321.07 1684.39 -2324.73 1681 -2324.73 1676.83C-2324.73 1672.66 -2321.07 1669.28 -2316.56 1669.28C-2312.06 1669.28 -2308.4 1672.66 -2308.4 1676.83Z" fill="white"/>
<path d="M-1606.43 808.334C-1606.43 812.505 -1610.08 815.886 -1614.59 815.886C-1619.1 815.886 -1622.75 812.505 -1622.75 808.334C-1622.75 804.163 -1619.1 800.782 -1614.59 800.782C-1610.08 800.782 -1606.43 804.163 -1606.43 808.334Z" fill="white"/>
<path d="M-112.697 -4117.57C-112.697 -4113.4 -116.352 -4110.02 -120.86 -4110.02C-125.368 -4110.02 -129.022 -4113.4 -129.022 -4117.57C-129.022 -4121.74 -125.368 -4125.12 -120.86 -4125.12C-116.352 -4125.12 -112.697 -4121.74 -112.697 -4117.57Z" fill="white"/>
<path d="M-71.8851 -4076.03C-71.8851 -4071.86 -75.5396 -4068.48 -80.0476 -4068.48C-84.5556 -4068.48 -88.2101 -4071.86 -88.2101 -4076.03C-88.2101 -4080.2 -84.5556 -4083.59 -80.0476 -4083.59C-75.5396 -4083.59 -71.8851 -4080.2 -71.8851 -4076.03Z" fill="white"/>
<path d="M-300.434 -3826.81C-300.434 -3822.64 -304.089 -3819.26 -308.597 -3819.26C-313.105 -3819.26 -316.759 -3822.64 -316.759 -3826.81C-316.759 -3830.98 -313.105 -3834.36 -308.597 -3834.36C-304.089 -3834.36 -300.434 -3830.98 -300.434 -3826.81Z" fill="white"/>
<path d="M-108.616 -3653.11C-108.616 -3648.94 -112.271 -3645.56 -116.779 -3645.56C-121.287 -3645.56 -124.941 -3648.94 -124.941 -3653.11C-124.941 -3657.28 -121.287 -3660.66 -116.779 -3660.66C-112.271 -3660.66 -108.616 -3657.28 -108.616 -3653.11Z" fill="white"/>
<path d="M177.07 -3966.53C177.07 -3962.36 173.416 -3958.98 168.908 -3958.98C164.4 -3958.98 160.745 -3962.36 160.745 -3966.53C160.745 -3970.7 164.4 -3974.08 168.908 -3974.08C173.416 -3974.08 177.07 -3970.7 177.07 -3966.53Z" fill="white"/>
<path d="M385.213 -3875.9C385.213 -3871.73 381.559 -3868.35 377.051 -3868.35C372.542 -3868.35 368.888 -3871.73 368.888 -3875.9C368.888 -3880.07 372.542 -3883.45 377.051 -3883.45C381.559 -3883.45 385.213 -3880.07 385.213 -3875.9Z" fill="white"/>
<path d="M389.294 -3721.08C389.294 -3716.91 385.64 -3713.53 381.132 -3713.53C376.624 -3713.53 372.969 -3716.91 372.969 -3721.08C372.969 -3725.25 376.624 -3728.63 381.132 -3728.63C385.64 -3728.63 389.294 -3725.25 389.294 -3721.08Z" fill="white"/>
<path d="M719.874 -3679.54C719.874 -3675.37 716.22 -3671.99 711.712 -3671.99C707.204 -3671.99 703.549 -3675.37 703.549 -3679.54C703.549 -3683.72 707.204 -3687.1 711.712 -3687.1C716.22 -3687.1 719.874 -3683.72 719.874 -3679.54Z" fill="white"/>
<path d="M1532.04 -3645.56C1532.04 -3641.39 1528.38 -3638.01 1523.88 -3638.01C1519.37 -3638.01 1515.71 -3641.39 1515.71 -3645.56C1515.71 -3649.73 1519.37 -3653.11 1523.88 -3653.11C1528.38 -3653.11 1532.04 -3649.73 1532.04 -3645.56Z" fill="white"/>
<path d="M1425.93 -3581.37C1425.93 -3577.2 1422.27 -3573.81 1417.76 -3573.81C1413.26 -3573.81 1409.6 -3577.2 1409.6 -3581.37C1409.6 -3585.54 1413.26 -3588.92 1417.76 -3588.92C1422.27 -3588.92 1425.93 -3585.54 1425.93 -3581.37Z" fill="white"/>
<path d="M1409.6 -3732.41C1409.6 -3728.24 1405.95 -3724.86 1401.44 -3724.86C1396.93 -3724.86 1393.28 -3728.24 1393.28 -3732.41C1393.28 -3736.58 1396.93 -3739.96 1401.44 -3739.96C1405.95 -3739.96 1409.6 -3736.58 1409.6 -3732.41Z" fill="white"/>
<path d="M919.855 -3513.4C919.855 -3509.23 916.2 -3505.84 911.692 -3505.84C907.184 -3505.84 903.53 -3509.23 903.53 -3513.4C903.53 -3517.57 907.184 -3520.95 911.692 -3520.95C916.2 -3520.95 919.855 -3517.57 919.855 -3513.4Z" fill="white"/>
<path d="M813.742 -3554.93C813.742 -3550.76 810.088 -3547.38 805.58 -3547.38C801.072 -3547.38 797.417 -3550.76 797.417 -3554.93C797.417 -3559.1 801.072 -3562.49 805.58 -3562.49C810.088 -3562.49 813.742 -3559.1 813.742 -3554.93Z" fill="white"/>
<path d="M1217.78 -3826.81C1217.78 -3822.64 1214.13 -3819.26 1209.62 -3819.26C1205.11 -3819.26 1201.46 -3822.64 1201.46 -3826.81C1201.46 -3830.98 1205.11 -3834.36 1209.62 -3834.36C1214.13 -3834.36 1217.78 -3830.98 1217.78 -3826.81Z" fill="white"/>
<path d="M1442.25 -4072.26C1442.25 -4068.09 1438.6 -4064.71 1434.09 -4064.71C1429.58 -4064.71 1425.93 -4068.09 1425.93 -4072.26C1425.93 -4076.43 1429.58 -4079.81 1434.09 -4079.81C1438.6 -4079.81 1442.25 -4076.43 1442.25 -4072.26Z" fill="white"/>
<path d="M1617.75 -4136.45C1617.75 -4132.28 1614.09 -4128.9 1609.58 -4128.9C1605.07 -4128.9 1601.42 -4132.28 1601.42 -4136.45C1601.42 -4140.62 1605.07 -4144 1609.58 -4144C1614.09 -4144 1617.75 -4140.62 1617.75 -4136.45Z" fill="white"/>
<path d="M1246.35 -4098.69C1246.35 -4094.52 1242.7 -4091.14 1238.19 -4091.14C1233.68 -4091.14 1230.03 -4094.52 1230.03 -4098.69C1230.03 -4102.86 1233.68 -4106.24 1238.19 -4106.24C1242.7 -4106.24 1246.35 -4102.86 1246.35 -4098.69Z" fill="white"/>
<path d="M1360.63 -4155.33C1360.63 -4151.16 1356.97 -4147.78 1352.46 -4147.78C1347.96 -4147.78 1344.3 -4151.16 1344.3 -4155.33C1344.3 -4159.5 1347.96 -4162.88 1352.46 -4162.88C1356.97 -4162.88 1360.63 -4159.5 1360.63 -4155.33Z" fill="white"/>
<path d="M1242.27 -4249.73C1242.27 -4245.56 1238.62 -4242.18 1234.11 -4242.18C1229.6 -4242.18 1225.95 -4245.56 1225.95 -4249.73C1225.95 -4253.9 1229.6 -4257.29 1234.11 -4257.29C1238.62 -4257.29 1242.27 -4253.9 1242.27 -4249.73Z" fill="white"/>
<path d="M1181.05 -4306.38C1181.05 -4302.2 1177.4 -4298.82 1172.89 -4298.82C1168.38 -4298.82 1164.73 -4302.2 1164.73 -4306.38C1164.73 -4310.55 1168.38 -4313.93 1172.89 -4313.93C1177.4 -4313.93 1181.05 -4310.55 1181.05 -4306.38Z" fill="white"/>
<path d="M1291.25 -4359.24C1291.25 -4355.07 1287.59 -4351.69 1283.08 -4351.69C1278.58 -4351.69 1274.92 -4355.07 1274.92 -4359.24C1274.92 -4363.41 1278.58 -4366.79 1283.08 -4366.79C1287.59 -4366.79 1291.25 -4363.41 1291.25 -4359.24Z" fill="white"/>
<path d="M1181.05 -4453.64C1181.05 -4449.47 1177.4 -4446.09 1172.89 -4446.09C1168.38 -4446.09 1164.73 -4449.47 1164.73 -4453.64C1164.73 -4457.81 1168.38 -4461.19 1172.89 -4461.19C1177.4 -4461.19 1181.05 -4457.81 1181.05 -4453.64Z" fill="white"/>
<path d="M1050.45 -4344.14C1050.45 -4339.97 1046.8 -4336.58 1042.29 -4336.58C1037.78 -4336.58 1034.13 -4339.97 1034.13 -4344.14C1034.13 -4348.31 1037.78 -4351.69 1042.29 -4351.69C1046.8 -4351.69 1050.45 -4348.31 1050.45 -4344.14Z" fill="white"/>
<path d="M691.305 -4238.41C691.305 -4234.23 687.651 -4230.85 683.143 -4230.85C678.635 -4230.85 674.981 -4234.23 674.981 -4238.41C674.981 -4242.58 678.635 -4245.96 683.143 -4245.96C687.651 -4245.96 691.305 -4242.58 691.305 -4238.41Z" fill="white"/>
<path d="M564.787 -4196.87C564.787 -4192.7 561.133 -4189.32 556.625 -4189.32C552.117 -4189.32 548.462 -4192.7 548.462 -4196.87C548.462 -4201.04 552.117 -4204.42 556.625 -4204.42C561.133 -4204.42 564.787 -4201.04 564.787 -4196.87Z" fill="white"/>
<path d="M409.7 -4211.97C409.7 -4207.8 406.046 -4204.42 401.538 -4204.42C397.03 -4204.42 393.375 -4207.8 393.375 -4211.97C393.375 -4216.14 397.03 -4219.53 401.538 -4219.53C406.046 -4219.53 409.7 -4216.14 409.7 -4211.97Z" fill="white"/>
<path d="M503.569 -4408.33C503.569 -4404.16 499.914 -4400.78 495.406 -4400.78C490.898 -4400.78 487.244 -4404.16 487.244 -4408.33C487.244 -4412.5 490.898 -4415.88 495.406 -4415.88C499.914 -4415.88 503.569 -4412.5 503.569 -4408.33Z" fill="white"/>
<path d="M768.849 -4110.02C768.849 -4105.85 765.194 -4102.47 760.686 -4102.47C756.178 -4102.47 752.524 -4105.85 752.524 -4110.02C752.524 -4114.19 756.178 -4117.57 760.686 -4117.57C765.194 -4117.57 768.849 -4114.19 768.849 -4110.02Z" fill="white"/>
<path d="M752.524 -4023.17C752.524 -4019 748.869 -4015.62 744.361 -4015.62C739.853 -4015.62 736.199 -4019 736.199 -4023.17C736.199 -4027.34 739.853 -4030.72 744.361 -4030.72C748.869 -4030.72 752.524 -4027.34 752.524 -4023.17Z" fill="white"/>
<path d="M752.524 -3970.3C752.524 -3966.13 748.869 -3962.75 744.361 -3962.75C739.853 -3962.75 736.199 -3966.13 736.199 -3970.3C736.199 -3974.47 739.853 -3977.86 744.361 -3977.86C748.869 -3977.86 752.524 -3974.47 752.524 -3970.3Z" fill="white"/>
<path d="M923.936 -3977.86C923.936 -3973.68 920.281 -3970.3 915.773 -3970.3C911.265 -3970.3 907.611 -3973.68 907.611 -3977.86C907.611 -3982.03 911.265 -3985.41 915.773 -3985.41C920.281 -3985.41 923.936 -3982.03 923.936 -3977.86Z" fill="white"/>
<path d="M956.586 -3936.32C956.586 -3932.15 952.931 -3928.77 948.423 -3928.77C943.915 -3928.77 940.261 -3932.15 940.261 -3936.32C940.261 -3940.49 943.915 -3943.87 948.423 -3943.87C952.931 -3943.87 956.586 -3940.49 956.586 -3936.32Z" fill="white"/>
<path d="M793.336 -4446.09C793.336 -4441.92 789.682 -4438.54 785.174 -4438.54C780.666 -4438.54 777.011 -4441.92 777.011 -4446.09C777.011 -4450.26 780.666 -4453.64 785.174 -4453.64C789.682 -4453.64 793.336 -4450.26 793.336 -4446.09Z" fill="white"/>
<path d="M-1104.44 -4440.43C-1104.44 -4436.26 -1108.09 -4432.87 -1112.6 -4432.87C-1117.11 -4432.87 -1120.76 -4436.26 -1120.76 -4440.43C-1120.76 -4444.6 -1117.11 -4447.98 -1112.6 -4447.98C-1108.09 -4447.98 -1104.44 -4444.6 -1104.44 -4440.43Z" fill="white"/>
<path d="M-1545.21 -4149.67C-1545.21 -4145.5 -1548.86 -4142.12 -1553.37 -4142.12C-1557.88 -4142.12 -1561.54 -4145.5 -1561.54 -4149.67C-1561.54 -4153.84 -1557.88 -4157.22 -1553.37 -4157.22C-1548.86 -4157.22 -1545.21 -4153.84 -1545.21 -4149.67Z" fill="white"/>
<path d="M-1190.14 -4055.27C-1190.14 -4051.09 -1193.8 -4047.71 -1198.31 -4047.71C-1202.81 -4047.71 -1206.47 -4051.09 -1206.47 -4055.27C-1206.47 -4059.44 -1202.81 -4062.82 -1198.31 -4062.82C-1193.8 -4062.82 -1190.14 -4059.44 -1190.14 -4055.27Z" fill="white"/>
<path d="M-1198.31 -3911.77C-1198.31 -3907.6 -1201.96 -3904.22 -1206.47 -3904.22C-1210.98 -3904.22 -1214.63 -3907.6 -1214.63 -3911.77C-1214.63 -3915.95 -1210.98 -3919.33 -1206.47 -3919.33C-1201.96 -3919.33 -1198.31 -3915.95 -1198.31 -3911.77Z" fill="white"/>
<path d="M-1128.92 -3941.98C-1128.92 -3937.81 -1132.58 -3934.43 -1137.09 -3934.43C-1141.59 -3934.43 -1145.25 -3937.81 -1145.25 -3941.98C-1145.25 -3946.15 -1141.59 -3949.54 -1137.09 -3949.54C-1132.58 -3949.54 -1128.92 -3946.15 -1128.92 -3941.98Z" fill="white"/>
<path d="M-1577.86 -3817.37C-1577.86 -3813.2 -1581.51 -3809.82 -1586.02 -3809.82C-1590.53 -3809.82 -1594.18 -3813.2 -1594.18 -3817.37C-1594.18 -3821.54 -1590.53 -3824.92 -1586.02 -3824.92C-1581.51 -3824.92 -1577.86 -3821.54 -1577.86 -3817.37Z" fill="white"/>
<path d="M1352.46 -3024.39C1352.46 -3020.22 1348.81 -3016.84 1344.3 -3016.84C1339.79 -3016.84 1336.14 -3020.22 1336.14 -3024.39C1336.14 -3028.56 1339.79 -3031.95 1344.3 -3031.95C1348.81 -3031.95 1352.46 -3028.56 1352.46 -3024.39Z" fill="white"/>
<path d="M911.692 -2733.64C911.692 -2729.46 908.038 -2726.08 903.53 -2726.08C899.022 -2726.08 895.367 -2729.46 895.367 -2733.64C895.367 -2737.81 899.022 -2741.19 903.53 -2741.19C908.038 -2741.19 911.692 -2737.81 911.692 -2733.64Z" fill="white"/>
<path d="M1266.76 -2639.23C1266.76 -2635.06 1263.1 -2631.68 1258.6 -2631.68C1254.09 -2631.68 1250.43 -2635.06 1250.43 -2639.23C1250.43 -2643.4 1254.09 -2646.79 1258.6 -2646.79C1263.1 -2646.79 1266.76 -2643.4 1266.76 -2639.23Z" fill="white"/>
<path d="M1258.6 -2495.74C1258.6 -2491.57 1254.94 -2488.19 1250.43 -2488.19C1245.93 -2488.19 1242.27 -2491.57 1242.27 -2495.74C1242.27 -2499.91 1245.93 -2503.29 1250.43 -2503.29C1254.94 -2503.29 1258.6 -2499.91 1258.6 -2495.74Z" fill="white"/>
<path d="M1327.98 -2525.95C1327.98 -2521.78 1324.32 -2518.4 1319.82 -2518.4C1315.31 -2518.4 1311.65 -2521.78 1311.65 -2525.95C1311.65 -2530.12 1315.31 -2533.5 1319.82 -2533.5C1324.32 -2533.5 1327.98 -2530.12 1327.98 -2525.95Z" fill="white"/>
<path d="M879.042 -2401.34C879.042 -2397.17 875.387 -2393.79 870.879 -2393.79C866.371 -2393.79 862.717 -2397.17 862.717 -2401.34C862.717 -2405.51 866.371 -2408.89 870.879 -2408.89C875.387 -2408.89 879.042 -2405.51 879.042 -2401.34Z" fill="white"/>
<path d="M201.557 155.071C201.557 159.242 197.903 162.623 193.395 162.623C188.887 162.623 185.232 159.242 185.232 155.071C185.232 150.9 188.887 147.519 193.395 147.519C197.903 147.519 201.557 150.9 201.557 155.071Z" fill="white"/>
<path d="M242.37 196.608C242.37 200.779 238.715 204.16 234.207 204.16C229.699 204.16 226.045 200.779 226.045 196.608C226.045 192.437 229.699 189.056 234.207 189.056C238.715 189.056 242.37 192.437 242.37 196.608Z" fill="white"/>
<path d="M13.8208 445.83C13.8208 450.001 10.1663 453.382 5.65834 453.382C1.15033 453.382 -2.50411 450.001 -2.50411 445.83C-2.50411 441.659 1.15033 438.277 5.65834 438.277C10.1663 438.277 13.8208 441.659 13.8208 445.83Z" fill="white"/>
<path d="M205.639 619.529C205.639 623.7 201.984 627.082 197.476 627.082C192.968 627.082 189.314 623.7 189.314 619.529C189.314 615.358 192.968 611.977 197.476 611.977C201.984 611.977 205.639 615.358 205.639 619.529Z" fill="white"/>
<path d="M491.325 306.114C491.325 310.285 487.671 313.667 483.163 313.667C478.655 313.667 475 310.285 475 306.114C475 301.943 478.655 298.562 483.163 298.562C487.671 298.562 491.325 301.943 491.325 306.114Z" fill="white"/>
<path d="M1519.8 -1680.11C1519.8 -1675.94 1516.14 -1672.55 1511.63 -1672.55C1507.13 -1672.55 1503.47 -1675.94 1503.47 -1680.11C1503.47 -1684.28 1507.13 -1687.66 1511.63 -1687.66C1516.14 -1687.66 1519.8 -1684.28 1519.8 -1680.11Z" fill="white"/>
<path d="M1560.61 -1638.57C1560.61 -1634.4 1556.95 -1631.02 1552.45 -1631.02C1547.94 -1631.02 1544.28 -1634.4 1544.28 -1638.57C1544.28 -1642.74 1547.94 -1646.12 1552.45 -1646.12C1556.95 -1646.12 1560.61 -1642.74 1560.61 -1638.57Z" fill="white"/>
<path d="M1332.06 -1389.35C1332.06 -1385.18 1328.4 -1381.8 1323.9 -1381.8C1319.39 -1381.8 1315.73 -1385.18 1315.73 -1389.35C1315.73 -1393.52 1319.39 -1396.9 1323.9 -1396.9C1328.4 -1396.9 1332.06 -1393.52 1332.06 -1389.35Z" fill="white"/>
<path d="M1523.88 -1215.65C1523.88 -1211.48 1520.22 -1208.1 1515.71 -1208.1C1511.21 -1208.1 1507.55 -1211.48 1507.55 -1215.65C1507.55 -1219.82 1511.21 -1223.2 1515.71 -1223.2C1520.22 -1223.2 1523.88 -1219.82 1523.88 -1215.65Z" fill="white"/>
<path d="M1809.56 -1529.06C1809.56 -1524.89 1805.91 -1521.51 1801.4 -1521.51C1796.89 -1521.51 1793.24 -1524.89 1793.24 -1529.06C1793.24 -1533.23 1796.89 -1536.62 1801.4 -1536.62C1805.91 -1536.62 1809.56 -1533.23 1809.56 -1529.06Z" fill="white"/>
<path d="M201.557 155.071C201.557 159.242 197.903 162.623 193.395 162.623C188.887 162.623 185.232 159.242 185.232 155.071C185.232 150.9 188.887 147.519 193.395 147.519C197.903 147.519 201.557 150.9 201.557 155.071Z" fill="white"/>
<path d="M242.37 196.608C242.37 200.779 238.715 204.16 234.207 204.16C229.699 204.16 226.045 200.779 226.045 196.608C226.045 192.437 229.699 189.056 234.207 189.056C238.715 189.056 242.37 192.437 242.37 196.608Z" fill="white"/>
<path d="M13.8208 445.83C13.8208 450.001 10.1663 453.382 5.65834 453.382C1.15033 453.382 -2.50411 450.001 -2.50411 445.83C-2.50411 441.659 1.15033 438.277 5.65834 438.277C10.1663 438.277 13.8208 441.659 13.8208 445.83Z" fill="white"/>
<path d="M205.639 619.529C205.639 623.7 201.984 627.082 197.476 627.082C192.968 627.082 189.314 623.7 189.314 619.529C189.314 615.358 192.968 611.977 197.476 611.977C201.984 611.977 205.639 615.358 205.639 619.529Z" fill="white"/>
<path d="M491.325 306.114C491.325 310.285 487.671 313.667 483.163 313.667C478.655 313.667 475 310.285 475 306.114C475 301.943 478.655 298.562 483.163 298.562C487.671 298.562 491.325 301.943 491.325 306.114Z" fill="white"/>
<path d="M1058.62 1435.16C1058.62 1439.33 1054.96 1442.72 1050.45 1442.72C1045.95 1442.72 1042.29 1439.33 1042.29 1435.16C1042.29 1430.99 1045.95 1427.61 1050.45 1427.61C1054.96 1427.61 1058.62 1430.99 1058.62 1435.16Z" fill="white"/>
<path d="M1099.43 1476.7C1099.43 1480.87 1095.77 1484.25 1091.27 1484.25C1086.76 1484.25 1083.1 1480.87 1083.1 1476.7C1083.1 1472.53 1086.76 1469.15 1091.27 1469.15C1095.77 1469.15 1099.43 1472.53 1099.43 1476.7Z" fill="white"/>
<path d="M870.879 1725.92C870.879 1730.09 867.225 1733.47 862.717 1733.47C858.209 1733.47 854.555 1730.09 854.555 1725.92C854.555 1721.75 858.209 1718.37 862.717 1718.37C867.225 1718.37 870.879 1721.75 870.879 1725.92Z" fill="white"/>
<path d="M1062.7 1899.62C1062.7 1903.79 1059.04 1907.18 1054.54 1907.18C1050.03 1907.18 1046.37 1903.79 1046.37 1899.62C1046.37 1895.45 1050.03 1892.07 1054.54 1892.07C1059.04 1892.07 1062.7 1895.45 1062.7 1899.62Z" fill="white"/>
<path d="M1348.38 1586.21C1348.38 1590.38 1344.73 1593.76 1340.22 1593.76C1335.71 1593.76 1332.06 1590.38 1332.06 1586.21C1332.06 1582.04 1335.71 1578.66 1340.22 1578.66C1344.73 1578.66 1348.38 1582.04 1348.38 1586.21Z" fill="white"/>
<g filter="url(#filter0_f_228_24487)">
<rect x="671.523" y="1907" width="1202.73" height="1010.55" rx="276.715" transform="rotate(35.4789 671.523 1907)" fill="url(#paint0_linear_228_24487)"/>
</g>
</g>
<defs>
<filter id="filter0_f_228_24487" x="-290.048" y="1531.96" width="2316.03" height="2271.08" filterUnits="userSpaceOnUse" color-interpolation-filters="sRGB">
<feFlood flood-opacity="0" result="BackgroundImageFix"/>
<feBlend mode="normal" in="SourceGraphic" in2="BackgroundImageFix" result="shape"/>
<feGaussianBlur stdDeviation="242.126" result="effect1_foregroundBlur_228_24487"/>
</filter>
<linearGradient id="paint0_linear_228_24487" x1="1272.89" y1="1907" x2="1272.89" y2="2917.55" gradientUnits="userSpaceOnUse">
<stop offset="0.971154" stop-color="#073C72"/>
</linearGradient>
<clipPath id="clip0_228_24487">
<rect width="1512" height="1675" fill="white"/>
</clipPath>
</defs>
</svg>
