<svg width="726" height="278" viewBox="0 0 726 278" fill="none" xmlns="http://www.w3.org/2000/svg">
<g clip-path="url(#clip0_228_30644)">
<g filter="url(#filter0_d_228_30644)">
<g filter="url(#filter1_i_228_30644)">
<path d="M278.161 222.624L284.782 228.749L285.235 228.54L284.868 219.528L292.594 215.961L294.703 214.988L294.722 231.583L304.159 240.062L307.779 243.314L297.717 247.958L290.553 241.369L290.145 241.558L290.557 251.264L280.949 255.699L280.816 250.838L280.48 238.487L267.873 227.373L269.774 226.495L278.161 222.624Z" fill="#6600AA"/>
<path d="M279.075 251.642L280.949 255.699L280.816 250.838L279.075 251.642Z" fill="#6600AA"/>
<path d="M307.779 243.314L305.906 239.256L304.159 240.062L307.779 243.314Z" fill="#6600AA"/>
<path d="M266 223.316L267.873 227.373L269.774 226.495L266 223.316Z" fill="#6600AA"/>
<path d="M294.703 214.988L292.83 210.931L292.594 215.961L294.703 214.988Z" fill="#6600AA"/>
</g>
<g filter="url(#filter2_i_228_30644)">
<path d="M276.288 218.567L282.909 224.692L283.362 224.483L282.995 215.471L292.83 210.931L292.849 227.526L305.906 239.257L295.845 243.901L288.68 237.313L288.272 237.501L288.684 247.207L279.076 251.642L278.607 234.43L266 223.316L276.288 218.567Z" fill="url(#paint0_linear_228_30644)"/>
</g>
<path d="M276.419 217.739L276.762 218.056L282.622 223.478L282.298 215.501L282.279 215.034L293.527 209.842L293.528 210.779L295.044 214.063L295.4 213.899L295.401 214.836L295.629 215.331L295.402 215.435L295.416 228.896L306.031 238.432L306.247 238.332L306.479 238.834L307.161 239.447L306.832 239.599L308.352 242.891L309.034 243.505L297.587 248.789L297.245 248.473L290.888 242.629L291.254 251.235L291.273 251.703L280.279 256.778L280.254 255.863L278.734 252.57L278.406 252.721L278.381 251.805L278.149 251.303L278.366 251.203L277.984 237.22L267.752 228.199L267.531 228.301L267.3 227.8L266.608 227.19L266.946 227.034L265.427 223.744L264.735 223.133L276.419 217.739Z" stroke="black" stroke-width="1.39625"/>
<g filter="url(#filter3_i_228_30644)">
<path d="M321.404 228.729L315.512 231.449L318.671 238.293L309.607 242.477L296.531 214.151L310.807 207.561C317.304 204.562 322.162 206.553 325.384 213.532C327.156 217.369 327.621 220.6 326.78 223.224C326.466 224.212 325.862 225.206 324.967 226.205C324.072 227.205 322.884 228.046 321.404 228.729ZM308.943 217.218L312.165 224.198L314.25 223.235C315.337 222.733 316.074 222.265 316.46 221.83C316.862 221.351 316.875 220.704 316.498 219.888L315.034 216.716C314.657 215.9 314.163 215.505 313.552 215.531C312.957 215.512 312.115 215.754 311.028 216.256L308.943 217.218Z" fill="#6600AA"/>
</g>
<g filter="url(#filter4_i_228_30644)">
<path d="M319.529 224.668L313.637 227.388L316.796 234.232L307.732 238.416L294.656 210.09L308.932 203.5C315.429 200.501 320.287 202.492 323.509 209.471C325.281 213.308 325.746 216.539 324.905 219.163C324.591 220.151 323.987 221.145 323.092 222.144C322.197 223.143 321.009 223.985 319.529 224.668ZM307.068 213.157L310.29 220.137L312.375 219.174C313.462 218.672 314.199 218.204 314.585 217.769C314.987 217.29 315 216.643 314.623 215.827L313.159 212.655C312.782 211.839 312.288 211.444 311.677 211.47C311.082 211.451 310.24 211.693 309.153 212.195L307.068 213.157Z" fill="url(#paint1_linear_228_30644)"/>
</g>
<path d="M308.64 202.868C311.997 201.318 315.047 201.008 317.714 202.1C320.368 203.187 322.492 205.604 324.143 209.181C324.482 209.914 324.775 210.629 325.023 211.327C325.371 211.921 325.703 212.558 326.016 213.237C327.822 217.15 328.358 220.573 327.442 223.433C327.091 224.538 326.427 225.616 325.485 226.668C324.514 227.752 323.243 228.646 321.694 229.361L316.436 231.788L319.595 238.632L309.263 243.401L293.73 209.751L308.64 202.868ZM310.631 219.212L312.082 218.543C313.15 218.05 313.771 217.632 314.057 217.312C314.169 217.174 314.25 216.961 314.156 216.582C313.929 216.268 313.728 216.22 313.579 216.226L313.553 216.227L313.528 216.226C313.104 216.213 312.387 216.394 311.318 216.888L309.867 217.558L310.631 219.212Z" stroke="black" stroke-width="1.39625"/>
</g>
<g filter="url(#filter5_d_228_30644)">
<g filter="url(#filter6_i_228_30644)">
<path d="M49.1607 110.624L55.7817 116.749L56.2349 116.54L55.8682 107.528L63.5944 103.961L65.703 102.988L65.7215 119.583L75.1593 128.062L78.7788 131.314L68.7174 135.958L61.5525 129.369L61.1446 129.558L61.5567 139.264L51.9485 143.699L51.8163 138.838L51.4802 126.487L38.8727 115.373L40.7744 114.495L49.1607 110.624Z" fill="#6600AA"/>
<path d="M50.0755 139.642L51.9485 143.699L51.8163 138.838L50.0755 139.642Z" fill="#6600AA"/>
<path d="M78.7788 131.314L76.9056 127.256L75.1593 128.062L78.7788 131.314Z" fill="#6600AA"/>
<path d="M37 111.316L38.8727 115.373L40.7744 114.495L37 111.316Z" fill="#6600AA"/>
<path d="M65.703 102.988L63.8302 98.931L63.5944 103.961L65.703 102.988Z" fill="#6600AA"/>
</g>
<g filter="url(#filter7_i_228_30644)">
<path d="M47.2879 106.567L53.909 112.692L54.3622 112.483L53.9955 103.471L63.8302 98.931L63.8488 115.526L76.906 127.257L66.8447 131.901L59.6798 125.313L59.2719 125.501L59.6839 135.207L50.0758 139.642L49.6075 122.43L37 111.316L47.2879 106.567Z" fill="url(#paint2_linear_228_30644)"/>
</g>
<path d="M47.419 105.739L47.7622 106.056L53.6216 111.478L53.2975 103.501L53.2789 103.034L64.5269 97.8421L64.5283 98.7793L66.0443 102.063L66.3999 101.899L66.4008 102.836L66.6292 103.331L66.4022 103.435L66.4164 116.896L77.0308 126.432L77.2472 126.332L77.4788 126.834L78.161 127.447L77.8321 127.599L79.3518 130.891L80.034 131.505L68.5873 136.789L68.245 136.473L61.8879 130.629L62.2544 139.235L62.2735 139.703L51.279 144.778L51.2542 143.863L49.7341 140.57L49.406 140.721L49.3813 139.805L49.1492 139.303L49.3656 139.203L48.9845 125.22L38.752 116.199L38.5312 116.301L38.3 115.8L37.6076 115.19L37.9463 115.034L36.4274 111.744L35.7347 111.133L47.419 105.739Z" stroke="black" stroke-width="1.39625"/>
<g filter="url(#filter8_i_228_30644)">
<path d="M92.404 116.729L86.5122 119.449L89.6713 126.293L80.6071 130.477L67.5312 102.151L81.8075 95.5609C88.3035 92.5622 93.1625 94.5526 96.3844 101.532C98.1557 105.369 98.6208 108.6 97.7796 111.224C97.4659 112.212 96.8616 113.206 95.9669 114.205C95.0721 115.205 93.8845 116.046 92.404 116.729ZM79.9429 105.218L83.1648 112.198L85.2496 111.235C86.3373 110.733 87.074 110.265 87.4598 109.83C87.8619 109.351 87.8746 108.704 87.498 107.888L86.0336 104.716C85.657 103.9 85.163 103.505 84.5518 103.531C83.9568 103.512 83.1154 103.754 82.0277 104.256L79.9429 105.218Z" fill="#6600AA"/>
</g>
<g filter="url(#filter9_i_228_30644)">
<path d="M90.529 112.668L84.6372 115.388L87.7963 122.232L78.7321 126.416L65.6562 98.0901L79.9325 91.4999C86.4285 88.5012 91.2875 90.4915 94.5094 97.471C96.2807 101.308 96.7458 104.539 95.9046 107.163C95.5909 108.151 94.9866 109.145 94.0919 110.144C93.1971 111.143 92.0095 111.985 90.529 112.668ZM78.0679 101.157L81.2898 108.137L83.3746 107.174C84.4623 106.672 85.199 106.204 85.5848 105.769C85.9869 105.29 85.9996 104.643 85.623 103.827L84.1586 100.655C83.782 99.839 83.288 99.4439 82.6768 99.4695C82.0818 99.451 81.2404 99.6927 80.1527 100.195L78.0679 101.157Z" fill="url(#paint3_linear_228_30644)"/>
</g>
<path d="M79.6396 90.8682C82.9974 89.3182 86.0468 89.0075 88.7135 90.0999C91.3682 91.1874 93.4925 93.6044 95.1435 97.1809C95.4817 97.9137 95.7754 98.6292 96.0234 99.3271C96.3714 99.9214 96.7025 100.558 97.016 101.237C98.8224 105.15 99.3579 108.573 98.4419 111.433C98.091 112.538 97.4268 113.616 96.4849 114.668C95.5144 115.752 94.2431 116.646 92.6943 117.361L87.4365 119.788L90.5954 126.632L80.2633 131.401L64.7296 97.751L79.6396 90.8682ZM81.631 107.212L83.0816 106.543C84.1495 106.05 84.7712 105.632 85.0574 105.312C85.1692 105.174 85.25 104.961 85.1557 104.582C84.9292 104.268 84.7281 104.22 84.5787 104.226L84.5533 104.227L84.528 104.226C84.1042 104.213 83.3873 104.394 82.3178 104.888L80.8673 105.558L81.631 107.212Z" stroke="black" stroke-width="1.39625"/>
</g>
<g filter="url(#filter10_d_228_30644)">
<g filter="url(#filter11_i_228_30644)">
<path d="M391.161 53.6242L397.782 59.7492L398.235 59.54L397.868 50.5278L405.594 46.9613L407.703 45.9879L407.722 62.583L417.159 71.062L420.779 74.3137L410.717 78.9582L403.553 72.3695L403.145 72.5578L403.557 82.2638L393.949 86.6991L393.816 81.8379L393.48 69.487L380.873 58.3733L382.774 57.4954L391.161 53.6242Z" fill="#6600AA"/>
<path d="M392.075 82.6415L393.949 86.6991L393.816 81.8379L392.075 82.6415Z" fill="#6600AA"/>
<path d="M420.779 74.3137L418.906 70.2559L417.159 71.062L420.779 74.3137Z" fill="#6600AA"/>
<path d="M379 54.3164L380.873 58.3733L382.774 57.4954L379 54.3164Z" fill="#6600AA"/>
<path d="M407.703 45.9879L405.83 41.931L405.594 46.9613L407.703 45.9879Z" fill="#6600AA"/>
</g>
<g filter="url(#filter12_i_228_30644)">
<path d="M389.288 49.5673L395.909 55.6924L396.362 55.4831L395.995 46.4709L405.83 41.931L405.849 58.5261L418.906 70.2568L408.845 74.9013L401.68 68.3126L401.272 68.5009L401.684 78.2069L392.076 82.6422L391.607 65.4301L379 54.3164L389.288 49.5673Z" fill="url(#paint4_linear_228_30644)"/>
</g>
<path d="M389.419 48.7394L389.762 49.0564L395.622 54.4777L395.298 46.5012L395.279 46.0344L406.527 40.8421L406.528 41.7793L408.044 45.0635L408.4 44.8994L408.401 45.8358L408.629 46.3305L408.402 46.4353L408.416 59.8962L419.031 69.4319L419.247 69.332L419.479 69.8339L420.161 70.4472L419.832 70.599L421.352 73.8912L422.034 74.5045L410.587 79.7885L410.245 79.4733L403.888 73.6289L404.254 82.2355L404.273 82.7031L393.279 87.7784L393.254 86.8627L391.734 83.5697L391.406 83.7211L391.381 82.8054L391.149 82.3027L391.366 82.2028L390.984 68.2196L380.752 59.1992L380.531 59.3011L380.3 58.8002L379.608 58.1905L379.946 58.0341L378.427 54.7438L377.735 54.1332L389.419 48.7394Z" stroke="black" stroke-width="1.39625"/>
<g filter="url(#filter13_i_228_30644)">
<path d="M434.404 59.7294L428.512 62.4492L431.671 69.2927L422.607 73.4769L409.531 45.1511L423.807 38.5609C430.304 35.5622 435.162 37.5526 438.384 44.5321C440.156 48.3693 440.621 51.5999 439.78 54.2241C439.466 55.2119 438.862 56.2055 437.967 57.205C437.072 58.2045 435.884 59.046 434.404 59.7294ZM421.943 48.2183L425.165 55.1978L427.25 54.2354C428.337 53.7333 429.074 53.2649 429.46 52.8302C429.862 52.3514 429.875 51.7041 429.498 50.8883L428.034 47.7158C427.657 46.9 427.163 46.5049 426.552 46.5306C425.957 46.512 425.115 46.7538 424.028 47.2559L421.943 48.2183Z" fill="#6600AA"/>
</g>
<g filter="url(#filter14_i_228_30644)">
<path d="M432.529 55.6684L426.637 58.3881L429.796 65.2316L420.732 69.4159L407.656 41.0901L421.932 34.4999C428.429 31.5012 433.287 33.4915 436.509 40.471C438.281 44.3082 438.746 47.5389 437.905 50.163C437.591 51.1509 436.987 52.1445 436.092 53.144C435.197 54.1435 434.009 54.9849 432.529 55.6684ZM420.068 44.1572L423.29 51.1367L425.375 50.1743C426.462 49.6722 427.199 49.2038 427.585 48.7692C427.987 48.2904 428 47.6431 427.623 46.8273L426.159 43.6548C425.782 42.839 425.288 42.4439 424.677 42.4695C424.082 42.451 423.24 42.6927 422.153 43.1949L420.068 44.1572Z" fill="url(#paint5_linear_228_30644)"/>
</g>
<path d="M421.64 33.8682C424.997 32.3182 428.047 32.0075 430.714 33.0999C433.368 34.1874 435.492 36.6044 437.143 40.1809C437.482 40.9137 437.775 41.6292 438.023 42.3271C438.371 42.9214 438.703 43.5583 439.016 44.2374C440.822 48.1505 441.358 51.5731 440.442 54.4329C440.091 55.5381 439.427 56.616 438.485 57.6682C437.514 58.7523 436.243 59.6463 434.694 60.3613L429.436 62.7884L432.595 69.6316L422.263 74.4012L406.73 40.751L421.64 33.8682ZM423.631 50.2122L425.082 49.5426C426.15 49.0496 426.771 48.6316 427.057 48.3121C427.169 48.1738 427.25 47.9613 427.156 47.5816C426.929 47.2683 426.728 47.22 426.579 47.2263L426.553 47.2272L426.528 47.226C426.104 47.2128 425.387 47.3944 424.318 47.8881L422.867 48.5577L423.631 50.2122Z" stroke="black" stroke-width="1.39625"/>
</g>
<g filter="url(#filter15_d_228_30644)">
<g filter="url(#filter16_i_228_30644)">
<path d="M538.161 180.624L544.782 186.749L545.235 186.54L544.868 177.528L552.594 173.961L554.703 172.988L554.722 189.583L564.159 198.062L567.779 201.313L557.717 205.958L550.553 199.369L550.145 199.558L550.557 209.264L540.949 213.699L540.816 208.838L540.48 196.487L527.873 185.373L529.774 184.495L538.161 180.624Z" fill="#6600AA"/>
<path d="M539.075 209.641L540.949 213.699L540.816 208.838L539.075 209.641Z" fill="#6600AA"/>
<path d="M567.779 201.313L565.906 197.256L564.159 198.062L567.779 201.313Z" fill="#6600AA"/>
<path d="M526 181.316L527.873 185.373L529.774 184.495L526 181.316Z" fill="#6600AA"/>
<path d="M554.703 172.988L552.83 168.931L552.594 173.961L554.703 172.988Z" fill="#6600AA"/>
</g>
<g filter="url(#filter17_i_228_30644)">
<path d="M536.288 176.567L542.909 182.692L543.362 182.483L542.995 173.471L552.83 168.931L552.849 185.526L565.906 197.257L555.845 201.901L548.68 195.312L548.272 195.501L548.684 205.207L539.076 209.642L538.607 192.43L526 181.316L536.288 176.567Z" fill="url(#paint6_linear_228_30644)"/>
</g>
<path d="M536.419 175.739L536.762 176.056L542.622 181.477L542.298 173.501L542.279 173.034L553.527 167.842L553.528 168.779L555.044 172.063L555.4 171.899L555.401 172.836L555.629 173.33L555.402 173.435L555.416 186.896L566.031 196.432L566.247 196.332L566.479 196.834L567.161 197.447L566.832 197.599L568.352 200.891L569.034 201.504L557.587 206.788L557.245 206.473L550.888 200.629L551.254 209.235L551.273 209.703L540.279 214.778L540.254 213.862L538.734 210.569L538.406 210.721L538.381 209.805L538.149 209.302L538.366 209.203L537.984 195.219L527.752 186.199L527.531 186.301L527.3 185.8L526.608 185.19L526.946 185.034L525.427 181.744L524.735 181.133L536.419 175.739Z" stroke="black" stroke-width="1.39625"/>
<g filter="url(#filter18_i_228_30644)">
<path d="M581.404 186.729L575.512 189.449L578.671 196.292L569.607 200.477L556.531 172.151L570.807 165.561C577.304 162.562 582.162 164.552 585.384 171.532C587.156 175.369 587.621 178.6 586.78 181.224C586.466 182.212 585.862 183.205 584.967 184.205C584.072 185.204 582.884 186.046 581.404 186.729ZM568.943 175.218L572.165 182.198L574.25 181.235C575.337 180.733 576.074 180.265 576.46 179.83C576.862 179.351 576.875 178.704 576.498 177.888L575.034 174.716C574.657 173.9 574.163 173.505 573.552 173.53C572.957 173.512 572.115 173.754 571.028 174.256L568.943 175.218Z" fill="#6600AA"/>
</g>
<g filter="url(#filter19_i_228_30644)">
<path d="M579.529 182.668L573.637 185.388L576.796 192.231L567.732 196.416L554.656 168.09L568.932 161.5C575.429 158.501 580.287 160.491 583.509 167.471C585.281 171.308 585.746 174.539 584.905 177.163C584.591 178.151 583.987 179.144 583.092 180.144C582.197 181.143 581.009 181.985 579.529 182.668ZM567.068 171.157L570.29 178.136L572.375 177.174C573.462 176.672 574.199 176.204 574.585 175.769C574.987 175.29 575 174.643 574.623 173.827L573.159 170.655C572.782 169.839 572.288 169.444 571.677 169.469C571.082 169.451 570.24 169.693 569.153 170.195L567.068 171.157Z" fill="url(#paint7_linear_228_30644)"/>
</g>
<path d="M568.64 160.868C571.997 159.318 575.047 159.007 577.714 160.1C580.368 161.187 582.492 163.604 584.143 167.181C584.482 167.913 584.775 168.629 585.023 169.327C585.371 169.921 585.703 170.558 586.016 171.237C587.822 175.15 588.358 178.573 587.442 181.433C587.091 182.538 586.427 183.616 585.485 184.668C584.514 185.752 583.243 186.646 581.694 187.361L576.436 189.788L579.595 196.631L569.263 201.401L553.73 167.751L568.64 160.868ZM570.631 177.212L572.082 176.542C573.15 176.049 573.771 175.631 574.057 175.312C574.169 175.174 574.25 174.961 574.156 174.581C573.929 174.268 573.728 174.22 573.579 174.226L573.553 174.227L573.528 174.226C573.104 174.213 572.387 174.394 571.318 174.888L569.867 175.557L570.631 177.212Z" stroke="black" stroke-width="1.39625"/>
</g>
<g filter="url(#filter20_d_228_30644)">
<g filter="url(#filter21_i_228_30644)">
<path d="M670.168 16.6244L676.79 22.7495L677.243 22.5403L676.876 13.528L684.602 9.9615L686.711 8.98813L686.729 25.5832L696.167 34.0622L699.787 37.3139L689.725 41.9585L682.56 35.3697L682.152 35.558L682.564 45.264L672.956 49.6993L672.824 44.8382L672.488 32.4872L659.881 21.3735L661.782 20.4957L670.168 16.6244Z" fill="#6600AA"/>
<path d="M671.083 45.6418L672.956 49.6993L672.824 44.8382L671.083 45.6418Z" fill="#6600AA"/>
<path d="M699.787 37.3139L697.913 33.2561L696.167 34.0622L699.787 37.3139Z" fill="#6600AA"/>
<path d="M658.008 17.3167L659.881 21.3735L661.782 20.4957L658.008 17.3167Z" fill="#6600AA"/>
<path d="M686.711 8.98813L684.838 4.93125L684.602 9.9615L686.711 8.98813Z" fill="#6600AA"/>
</g>
<g filter="url(#filter22_i_228_30644)">
<path d="M668.296 12.5675L674.917 18.6926L675.37 18.4834L675.003 9.47117L684.838 4.93125L684.857 21.5263L697.914 33.2571L687.853 37.9016L680.688 31.3128L680.28 31.5011L680.692 41.2072L671.084 45.6425L670.615 28.4303L658.008 17.3167L668.296 12.5675Z" fill="url(#paint8_linear_228_30644)"/>
</g>
<path d="M668.427 11.7397L668.77 12.0567L674.629 17.4779L674.305 9.50144L674.287 9.03464L685.535 3.8423L685.536 4.77958L687.052 8.06374L687.408 7.89961L687.409 8.83601L687.637 9.33076L687.41 9.43554L687.424 22.8965L698.039 32.4321L698.255 32.3323L698.487 32.8341L699.169 33.4474L698.84 33.5993L700.36 36.8914L701.042 37.5048L689.595 42.7888L689.253 42.4736L682.896 36.6291L683.262 45.2357L683.281 45.7034L672.287 50.7787L672.262 49.8629L670.742 46.5699L670.414 46.7214L670.389 45.8056L670.157 45.3029L670.373 45.203L669.992 31.2198L659.76 22.1995L659.539 22.3014L659.308 21.8004L658.615 21.1907L658.954 21.0344L657.435 17.744L656.743 17.1334L668.427 11.7397Z" stroke="black" stroke-width="1.39625"/>
<g filter="url(#filter23_i_228_30644)">
<path d="M713.404 22.7296L707.512 25.4494L710.671 32.2929L701.607 36.4772L688.531 8.15137L702.807 1.56116C709.304 -1.43756 714.162 0.552826 717.384 7.53231C719.156 11.3695 719.621 14.6002 718.78 17.2243C718.466 18.2121 717.862 19.2058 716.967 20.2053C716.072 21.2048 714.884 22.0462 713.404 22.7296ZM700.943 11.2185L704.165 18.198L706.25 17.2356C707.337 16.7335 708.074 16.2651 708.46 15.8305C708.862 15.3516 708.875 14.7043 708.498 13.8886L707.034 10.7161C706.657 9.90028 706.163 9.50519 705.552 9.5308C704.957 9.51225 704.115 9.75403 703.028 10.2561L700.943 11.2185Z" fill="#6600AA"/>
</g>
<g filter="url(#filter24_i_228_30644)">
<path d="M711.529 18.6686L705.637 21.3884L708.796 28.2319L699.732 32.4161L686.656 4.09033L700.932 -2.49987C707.429 -5.49859 712.287 -3.50821 715.509 3.47127C717.281 7.30847 717.746 10.5391 716.905 13.1633C716.591 14.1511 715.987 15.1447 715.092 16.1442C714.197 17.1437 713.009 17.9852 711.529 18.6686ZM699.068 7.15748L702.29 14.137L704.375 13.1746C705.462 12.6725 706.199 12.2041 706.585 11.7694C706.987 11.2906 707 10.6433 706.623 9.82752L705.159 6.65503C704.782 5.83925 704.288 5.44416 703.677 5.46977C703.082 5.45121 702.24 5.69299 701.153 6.1951L699.068 7.15748Z" fill="url(#paint9_linear_228_30644)"/>
</g>
<path d="M700.64 -3.13152C703.997 -4.68158 707.047 -4.99223 709.714 -3.89987C712.368 -2.81237 714.492 -0.395324 716.143 3.18119C716.482 3.91393 716.775 4.62949 717.023 5.32737C717.371 5.92165 717.703 6.55855 718.016 7.23762C719.822 11.1507 720.358 14.5734 719.442 17.4332C719.091 18.5383 718.427 19.6163 717.485 20.6685C716.514 21.7525 715.243 22.6466 713.694 23.3616L708.436 25.7887L711.595 32.6319L701.263 37.4014L685.73 3.75122L700.64 -3.13152ZM702.631 13.2124L704.082 12.5428C705.15 12.0498 705.771 11.6318 706.057 11.3124C706.169 11.1741 706.25 10.9615 706.156 10.5818C705.929 10.2685 705.728 10.2202 705.579 10.2265L705.553 10.2275L705.528 10.2262C705.104 10.213 704.387 10.3946 703.318 10.8883L701.867 11.5579L702.631 13.2124Z" stroke="black" stroke-width="1.39625"/>
</g>
</g>
<defs>
<filter id="filter0_d_228_30644" x="260.574" y="198.296" width="71.5785" height="63.9489" filterUnits="userSpaceOnUse" color-interpolation-filters="sRGB">
<feFlood flood-opacity="0" result="BackgroundImageFix"/>
<feColorMatrix in="SourceAlpha" type="matrix" values="0 0 0 0 0 0 0 0 0 0 0 0 0 0 0 0 0 0 127 0" result="hardAlpha"/>
<feOffset dy="1.117"/>
<feGaussianBlur stdDeviation="1.7872"/>
<feComposite in2="hardAlpha" operator="out"/>
<feColorMatrix type="matrix" values="0 0 0 0 0.663462 0 0 0 0 0.385637 0 0 0 0 0.022328 0 0 0 1 0"/>
<feBlend mode="normal" in2="BackgroundImageFix" result="effect1_dropShadow_228_30644"/>
<feBlend mode="normal" in="SourceGraphic" in2="effect1_dropShadow_228_30644" result="shape"/>
</filter>
<filter id="filter1_i_228_30644" x="266" y="209.981" width="41.7812" height="45.7178" filterUnits="userSpaceOnUse" color-interpolation-filters="sRGB">
<feFlood flood-opacity="0" result="BackgroundImageFix"/>
<feBlend mode="normal" in="SourceGraphic" in2="BackgroundImageFix" result="shape"/>
<feColorMatrix in="SourceAlpha" type="matrix" values="0 0 0 0 0 0 0 0 0 0 0 0 0 0 0 0 0 0 127 0" result="hardAlpha"/>
<feOffset dy="-1.39625"/>
<feGaussianBlur stdDeviation="0.474726"/>
<feComposite in2="hardAlpha" operator="arithmetic" k2="-1" k3="1"/>
<feColorMatrix type="matrix" values="0 0 0 0 0.572374 0 0 0 0 0.0982433 0 0 0 0 0.888461 0 0 0 0.76 0"/>
<feBlend mode="normal" in2="shape" result="effect1_innerShadow_228_30644"/>
</filter>
<filter id="filter2_i_228_30644" x="266" y="209.535" width="39.9062" height="42.1077" filterUnits="userSpaceOnUse" color-interpolation-filters="sRGB">
<feFlood flood-opacity="0" result="BackgroundImageFix"/>
<feBlend mode="normal" in="SourceGraphic" in2="BackgroundImageFix" result="shape"/>
<feColorMatrix in="SourceAlpha" type="matrix" values="0 0 0 0 0 0 0 0 0 0 0 0 0 0 0 0 0 0 127 0" result="hardAlpha"/>
<feOffset dy="-1.39625"/>
<feGaussianBlur stdDeviation="2.17815"/>
<feComposite in2="hardAlpha" operator="arithmetic" k2="-1" k3="1"/>
<feColorMatrix type="matrix" values="0 0 0 0 0.758929 0 0 0 0 0.4375 0 0 0 0 1 0 0 0 1 0"/>
<feBlend mode="normal" in2="shape" result="effect1_innerShadow_228_30644"/>
</filter>
<filter id="filter3_i_228_30644" x="296.531" y="205.26" width="30.6562" height="37.2173" filterUnits="userSpaceOnUse" color-interpolation-filters="sRGB">
<feFlood flood-opacity="0" result="BackgroundImageFix"/>
<feBlend mode="normal" in="SourceGraphic" in2="BackgroundImageFix" result="shape"/>
<feColorMatrix in="SourceAlpha" type="matrix" values="0 0 0 0 0 0 0 0 0 0 0 0 0 0 0 0 0 0 127 0" result="hardAlpha"/>
<feOffset dy="-1.39625"/>
<feGaussianBlur stdDeviation="0.474726"/>
<feComposite in2="hardAlpha" operator="arithmetic" k2="-1" k3="1"/>
<feColorMatrix type="matrix" values="0 0 0 0 0.572374 0 0 0 0 0.0982433 0 0 0 0 0.888461 0 0 0 0.76 0"/>
<feBlend mode="normal" in2="shape" result="effect1_innerShadow_228_30644"/>
</filter>
<filter id="filter4_i_228_30644" x="294.656" y="200.752" width="30.6562" height="37.6641" filterUnits="userSpaceOnUse" color-interpolation-filters="sRGB">
<feFlood flood-opacity="0" result="BackgroundImageFix"/>
<feBlend mode="normal" in="SourceGraphic" in2="BackgroundImageFix" result="shape"/>
<feColorMatrix in="SourceAlpha" type="matrix" values="0 0 0 0 0 0 0 0 0 0 0 0 0 0 0 0 0 0 127 0" result="hardAlpha"/>
<feOffset dy="-1.39625"/>
<feGaussianBlur stdDeviation="2.17815"/>
<feComposite in2="hardAlpha" operator="arithmetic" k2="-1" k3="1"/>
<feColorMatrix type="matrix" values="0 0 0 0 0.758929 0 0 0 0 0.4375 0 0 0 0 1 0 0 0 1 0"/>
<feBlend mode="normal" in2="shape" result="effect1_innerShadow_228_30644"/>
</filter>
<filter id="filter5_d_228_30644" x="31.574" y="86.2963" width="71.5785" height="63.9489" filterUnits="userSpaceOnUse" color-interpolation-filters="sRGB">
<feFlood flood-opacity="0" result="BackgroundImageFix"/>
<feColorMatrix in="SourceAlpha" type="matrix" values="0 0 0 0 0 0 0 0 0 0 0 0 0 0 0 0 0 0 127 0" result="hardAlpha"/>
<feOffset dy="1.117"/>
<feGaussianBlur stdDeviation="1.7872"/>
<feComposite in2="hardAlpha" operator="out"/>
<feColorMatrix type="matrix" values="0 0 0 0 0.663462 0 0 0 0 0.385637 0 0 0 0 0.022328 0 0 0 1 0"/>
<feBlend mode="normal" in2="BackgroundImageFix" result="effect1_dropShadow_228_30644"/>
<feBlend mode="normal" in="SourceGraphic" in2="effect1_dropShadow_228_30644" result="shape"/>
</filter>
<filter id="filter6_i_228_30644" x="37" y="97.9815" width="41.7812" height="45.7178" filterUnits="userSpaceOnUse" color-interpolation-filters="sRGB">
<feFlood flood-opacity="0" result="BackgroundImageFix"/>
<feBlend mode="normal" in="SourceGraphic" in2="BackgroundImageFix" result="shape"/>
<feColorMatrix in="SourceAlpha" type="matrix" values="0 0 0 0 0 0 0 0 0 0 0 0 0 0 0 0 0 0 127 0" result="hardAlpha"/>
<feOffset dy="-1.39625"/>
<feGaussianBlur stdDeviation="0.474726"/>
<feComposite in2="hardAlpha" operator="arithmetic" k2="-1" k3="1"/>
<feColorMatrix type="matrix" values="0 0 0 0 0.572374 0 0 0 0 0.0982433 0 0 0 0 0.888461 0 0 0 0.76 0"/>
<feBlend mode="normal" in2="shape" result="effect1_innerShadow_228_30644"/>
</filter>
<filter id="filter7_i_228_30644" x="37" y="97.5347" width="39.9062" height="42.1077" filterUnits="userSpaceOnUse" color-interpolation-filters="sRGB">
<feFlood flood-opacity="0" result="BackgroundImageFix"/>
<feBlend mode="normal" in="SourceGraphic" in2="BackgroundImageFix" result="shape"/>
<feColorMatrix in="SourceAlpha" type="matrix" values="0 0 0 0 0 0 0 0 0 0 0 0 0 0 0 0 0 0 127 0" result="hardAlpha"/>
<feOffset dy="-1.39625"/>
<feGaussianBlur stdDeviation="2.17815"/>
<feComposite in2="hardAlpha" operator="arithmetic" k2="-1" k3="1"/>
<feColorMatrix type="matrix" values="0 0 0 0 0.758929 0 0 0 0 0.4375 0 0 0 0 1 0 0 0 1 0"/>
<feBlend mode="normal" in2="shape" result="effect1_innerShadow_228_30644"/>
</filter>
<filter id="filter8_i_228_30644" x="67.5312" y="93.2598" width="30.6562" height="37.2173" filterUnits="userSpaceOnUse" color-interpolation-filters="sRGB">
<feFlood flood-opacity="0" result="BackgroundImageFix"/>
<feBlend mode="normal" in="SourceGraphic" in2="BackgroundImageFix" result="shape"/>
<feColorMatrix in="SourceAlpha" type="matrix" values="0 0 0 0 0 0 0 0 0 0 0 0 0 0 0 0 0 0 127 0" result="hardAlpha"/>
<feOffset dy="-1.39625"/>
<feGaussianBlur stdDeviation="0.474726"/>
<feComposite in2="hardAlpha" operator="arithmetic" k2="-1" k3="1"/>
<feColorMatrix type="matrix" values="0 0 0 0 0.572374 0 0 0 0 0.0982433 0 0 0 0 0.888461 0 0 0 0.76 0"/>
<feBlend mode="normal" in2="shape" result="effect1_innerShadow_228_30644"/>
</filter>
<filter id="filter9_i_228_30644" x="65.6562" y="88.7519" width="30.6562" height="37.6641" filterUnits="userSpaceOnUse" color-interpolation-filters="sRGB">
<feFlood flood-opacity="0" result="BackgroundImageFix"/>
<feBlend mode="normal" in="SourceGraphic" in2="BackgroundImageFix" result="shape"/>
<feColorMatrix in="SourceAlpha" type="matrix" values="0 0 0 0 0 0 0 0 0 0 0 0 0 0 0 0 0 0 127 0" result="hardAlpha"/>
<feOffset dy="-1.39625"/>
<feGaussianBlur stdDeviation="2.17815"/>
<feComposite in2="hardAlpha" operator="arithmetic" k2="-1" k3="1"/>
<feColorMatrix type="matrix" values="0 0 0 0 0.758929 0 0 0 0 0.4375 0 0 0 0 1 0 0 0 1 0"/>
<feBlend mode="normal" in2="shape" result="effect1_innerShadow_228_30644"/>
</filter>
<filter id="filter10_d_228_30644" x="373.574" y="29.2963" width="71.5785" height="63.9489" filterUnits="userSpaceOnUse" color-interpolation-filters="sRGB">
<feFlood flood-opacity="0" result="BackgroundImageFix"/>
<feColorMatrix in="SourceAlpha" type="matrix" values="0 0 0 0 0 0 0 0 0 0 0 0 0 0 0 0 0 0 127 0" result="hardAlpha"/>
<feOffset dy="1.117"/>
<feGaussianBlur stdDeviation="1.7872"/>
<feComposite in2="hardAlpha" operator="out"/>
<feColorMatrix type="matrix" values="0 0 0 0 0.663462 0 0 0 0 0.385637 0 0 0 0 0.022328 0 0 0 1 0"/>
<feBlend mode="normal" in2="BackgroundImageFix" result="effect1_dropShadow_228_30644"/>
<feBlend mode="normal" in="SourceGraphic" in2="effect1_dropShadow_228_30644" result="shape"/>
</filter>
<filter id="filter11_i_228_30644" x="379" y="40.9815" width="41.7812" height="45.7178" filterUnits="userSpaceOnUse" color-interpolation-filters="sRGB">
<feFlood flood-opacity="0" result="BackgroundImageFix"/>
<feBlend mode="normal" in="SourceGraphic" in2="BackgroundImageFix" result="shape"/>
<feColorMatrix in="SourceAlpha" type="matrix" values="0 0 0 0 0 0 0 0 0 0 0 0 0 0 0 0 0 0 127 0" result="hardAlpha"/>
<feOffset dy="-1.39625"/>
<feGaussianBlur stdDeviation="0.474726"/>
<feComposite in2="hardAlpha" operator="arithmetic" k2="-1" k3="1"/>
<feColorMatrix type="matrix" values="0 0 0 0 0.572374 0 0 0 0 0.0982433 0 0 0 0 0.888461 0 0 0 0.76 0"/>
<feBlend mode="normal" in2="shape" result="effect1_innerShadow_228_30644"/>
</filter>
<filter id="filter12_i_228_30644" x="379" y="40.5347" width="39.9062" height="42.1077" filterUnits="userSpaceOnUse" color-interpolation-filters="sRGB">
<feFlood flood-opacity="0" result="BackgroundImageFix"/>
<feBlend mode="normal" in="SourceGraphic" in2="BackgroundImageFix" result="shape"/>
<feColorMatrix in="SourceAlpha" type="matrix" values="0 0 0 0 0 0 0 0 0 0 0 0 0 0 0 0 0 0 127 0" result="hardAlpha"/>
<feOffset dy="-1.39625"/>
<feGaussianBlur stdDeviation="2.17815"/>
<feComposite in2="hardAlpha" operator="arithmetic" k2="-1" k3="1"/>
<feColorMatrix type="matrix" values="0 0 0 0 0.758929 0 0 0 0 0.4375 0 0 0 0 1 0 0 0 1 0"/>
<feBlend mode="normal" in2="shape" result="effect1_innerShadow_228_30644"/>
</filter>
<filter id="filter13_i_228_30644" x="409.531" y="36.2598" width="30.6562" height="37.2173" filterUnits="userSpaceOnUse" color-interpolation-filters="sRGB">
<feFlood flood-opacity="0" result="BackgroundImageFix"/>
<feBlend mode="normal" in="SourceGraphic" in2="BackgroundImageFix" result="shape"/>
<feColorMatrix in="SourceAlpha" type="matrix" values="0 0 0 0 0 0 0 0 0 0 0 0 0 0 0 0 0 0 127 0" result="hardAlpha"/>
<feOffset dy="-1.39625"/>
<feGaussianBlur stdDeviation="0.474726"/>
<feComposite in2="hardAlpha" operator="arithmetic" k2="-1" k3="1"/>
<feColorMatrix type="matrix" values="0 0 0 0 0.572374 0 0 0 0 0.0982433 0 0 0 0 0.888461 0 0 0 0.76 0"/>
<feBlend mode="normal" in2="shape" result="effect1_innerShadow_228_30644"/>
</filter>
<filter id="filter14_i_228_30644" x="407.656" y="31.7519" width="30.6562" height="37.6641" filterUnits="userSpaceOnUse" color-interpolation-filters="sRGB">
<feFlood flood-opacity="0" result="BackgroundImageFix"/>
<feBlend mode="normal" in="SourceGraphic" in2="BackgroundImageFix" result="shape"/>
<feColorMatrix in="SourceAlpha" type="matrix" values="0 0 0 0 0 0 0 0 0 0 0 0 0 0 0 0 0 0 127 0" result="hardAlpha"/>
<feOffset dy="-1.39625"/>
<feGaussianBlur stdDeviation="2.17815"/>
<feComposite in2="hardAlpha" operator="arithmetic" k2="-1" k3="1"/>
<feColorMatrix type="matrix" values="0 0 0 0 0.758929 0 0 0 0 0.4375 0 0 0 0 1 0 0 0 1 0"/>
<feBlend mode="normal" in2="shape" result="effect1_innerShadow_228_30644"/>
</filter>
<filter id="filter15_d_228_30644" x="520.574" y="156.296" width="71.5785" height="63.9489" filterUnits="userSpaceOnUse" color-interpolation-filters="sRGB">
<feFlood flood-opacity="0" result="BackgroundImageFix"/>
<feColorMatrix in="SourceAlpha" type="matrix" values="0 0 0 0 0 0 0 0 0 0 0 0 0 0 0 0 0 0 127 0" result="hardAlpha"/>
<feOffset dy="1.117"/>
<feGaussianBlur stdDeviation="1.7872"/>
<feComposite in2="hardAlpha" operator="out"/>
<feColorMatrix type="matrix" values="0 0 0 0 0.663462 0 0 0 0 0.385637 0 0 0 0 0.022328 0 0 0 1 0"/>
<feBlend mode="normal" in2="BackgroundImageFix" result="effect1_dropShadow_228_30644"/>
<feBlend mode="normal" in="SourceGraphic" in2="effect1_dropShadow_228_30644" result="shape"/>
</filter>
<filter id="filter16_i_228_30644" x="526" y="167.981" width="41.7812" height="45.7178" filterUnits="userSpaceOnUse" color-interpolation-filters="sRGB">
<feFlood flood-opacity="0" result="BackgroundImageFix"/>
<feBlend mode="normal" in="SourceGraphic" in2="BackgroundImageFix" result="shape"/>
<feColorMatrix in="SourceAlpha" type="matrix" values="0 0 0 0 0 0 0 0 0 0 0 0 0 0 0 0 0 0 127 0" result="hardAlpha"/>
<feOffset dy="-1.39625"/>
<feGaussianBlur stdDeviation="0.474726"/>
<feComposite in2="hardAlpha" operator="arithmetic" k2="-1" k3="1"/>
<feColorMatrix type="matrix" values="0 0 0 0 0.572374 0 0 0 0 0.0982433 0 0 0 0 0.888461 0 0 0 0.76 0"/>
<feBlend mode="normal" in2="shape" result="effect1_innerShadow_228_30644"/>
</filter>
<filter id="filter17_i_228_30644" x="526" y="167.534" width="39.9062" height="42.1077" filterUnits="userSpaceOnUse" color-interpolation-filters="sRGB">
<feFlood flood-opacity="0" result="BackgroundImageFix"/>
<feBlend mode="normal" in="SourceGraphic" in2="BackgroundImageFix" result="shape"/>
<feColorMatrix in="SourceAlpha" type="matrix" values="0 0 0 0 0 0 0 0 0 0 0 0 0 0 0 0 0 0 127 0" result="hardAlpha"/>
<feOffset dy="-1.39625"/>
<feGaussianBlur stdDeviation="2.17815"/>
<feComposite in2="hardAlpha" operator="arithmetic" k2="-1" k3="1"/>
<feColorMatrix type="matrix" values="0 0 0 0 0.758929 0 0 0 0 0.4375 0 0 0 0 1 0 0 0 1 0"/>
<feBlend mode="normal" in2="shape" result="effect1_innerShadow_228_30644"/>
</filter>
<filter id="filter18_i_228_30644" x="556.531" y="163.26" width="30.6562" height="37.2173" filterUnits="userSpaceOnUse" color-interpolation-filters="sRGB">
<feFlood flood-opacity="0" result="BackgroundImageFix"/>
<feBlend mode="normal" in="SourceGraphic" in2="BackgroundImageFix" result="shape"/>
<feColorMatrix in="SourceAlpha" type="matrix" values="0 0 0 0 0 0 0 0 0 0 0 0 0 0 0 0 0 0 127 0" result="hardAlpha"/>
<feOffset dy="-1.39625"/>
<feGaussianBlur stdDeviation="0.474726"/>
<feComposite in2="hardAlpha" operator="arithmetic" k2="-1" k3="1"/>
<feColorMatrix type="matrix" values="0 0 0 0 0.572374 0 0 0 0 0.0982433 0 0 0 0 0.888461 0 0 0 0.76 0"/>
<feBlend mode="normal" in2="shape" result="effect1_innerShadow_228_30644"/>
</filter>
<filter id="filter19_i_228_30644" x="554.656" y="158.752" width="30.6562" height="37.6641" filterUnits="userSpaceOnUse" color-interpolation-filters="sRGB">
<feFlood flood-opacity="0" result="BackgroundImageFix"/>
<feBlend mode="normal" in="SourceGraphic" in2="BackgroundImageFix" result="shape"/>
<feColorMatrix in="SourceAlpha" type="matrix" values="0 0 0 0 0 0 0 0 0 0 0 0 0 0 0 0 0 0 127 0" result="hardAlpha"/>
<feOffset dy="-1.39625"/>
<feGaussianBlur stdDeviation="2.17815"/>
<feComposite in2="hardAlpha" operator="arithmetic" k2="-1" k3="1"/>
<feColorMatrix type="matrix" values="0 0 0 0 0.758929 0 0 0 0 0.4375 0 0 0 0 1 0 0 0 1 0"/>
<feBlend mode="normal" in2="shape" result="effect1_innerShadow_228_30644"/>
</filter>
<filter id="filter20_d_228_30644" x="652.582" y="-7.7035" width="71.5707" height="63.9489" filterUnits="userSpaceOnUse" color-interpolation-filters="sRGB">
<feFlood flood-opacity="0" result="BackgroundImageFix"/>
<feColorMatrix in="SourceAlpha" type="matrix" values="0 0 0 0 0 0 0 0 0 0 0 0 0 0 0 0 0 0 127 0" result="hardAlpha"/>
<feOffset dy="1.117"/>
<feGaussianBlur stdDeviation="1.7872"/>
<feComposite in2="hardAlpha" operator="out"/>
<feColorMatrix type="matrix" values="0 0 0 0 0.663462 0 0 0 0 0.385637 0 0 0 0 0.022328 0 0 0 1 0"/>
<feBlend mode="normal" in2="BackgroundImageFix" result="effect1_dropShadow_228_30644"/>
<feBlend mode="normal" in="SourceGraphic" in2="effect1_dropShadow_228_30644" result="shape"/>
</filter>
<filter id="filter21_i_228_30644" x="658.008" y="3.9817" width="41.7812" height="45.7178" filterUnits="userSpaceOnUse" color-interpolation-filters="sRGB">
<feFlood flood-opacity="0" result="BackgroundImageFix"/>
<feBlend mode="normal" in="SourceGraphic" in2="BackgroundImageFix" result="shape"/>
<feColorMatrix in="SourceAlpha" type="matrix" values="0 0 0 0 0 0 0 0 0 0 0 0 0 0 0 0 0 0 127 0" result="hardAlpha"/>
<feOffset dy="-1.39625"/>
<feGaussianBlur stdDeviation="0.474726"/>
<feComposite in2="hardAlpha" operator="arithmetic" k2="-1" k3="1"/>
<feColorMatrix type="matrix" values="0 0 0 0 0.572374 0 0 0 0 0.0982433 0 0 0 0 0.888461 0 0 0 0.76 0"/>
<feBlend mode="normal" in2="shape" result="effect1_innerShadow_228_30644"/>
</filter>
<filter id="filter22_i_228_30644" x="658.008" y="3.5349" width="39.9062" height="42.1077" filterUnits="userSpaceOnUse" color-interpolation-filters="sRGB">
<feFlood flood-opacity="0" result="BackgroundImageFix"/>
<feBlend mode="normal" in="SourceGraphic" in2="BackgroundImageFix" result="shape"/>
<feColorMatrix in="SourceAlpha" type="matrix" values="0 0 0 0 0 0 0 0 0 0 0 0 0 0 0 0 0 0 127 0" result="hardAlpha"/>
<feOffset dy="-1.39625"/>
<feGaussianBlur stdDeviation="2.17815"/>
<feComposite in2="hardAlpha" operator="arithmetic" k2="-1" k3="1"/>
<feColorMatrix type="matrix" values="0 0 0 0 0.758929 0 0 0 0 0.4375 0 0 0 0 1 0 0 0 1 0"/>
<feBlend mode="normal" in2="shape" result="effect1_innerShadow_228_30644"/>
</filter>
<filter id="filter23_i_228_30644" x="688.531" y="-0.739979" width="30.6562" height="37.2173" filterUnits="userSpaceOnUse" color-interpolation-filters="sRGB">
<feFlood flood-opacity="0" result="BackgroundImageFix"/>
<feBlend mode="normal" in="SourceGraphic" in2="BackgroundImageFix" result="shape"/>
<feColorMatrix in="SourceAlpha" type="matrix" values="0 0 0 0 0 0 0 0 0 0 0 0 0 0 0 0 0 0 127 0" result="hardAlpha"/>
<feOffset dy="-1.39625"/>
<feGaussianBlur stdDeviation="0.474726"/>
<feComposite in2="hardAlpha" operator="arithmetic" k2="-1" k3="1"/>
<feColorMatrix type="matrix" values="0 0 0 0 0.572374 0 0 0 0 0.0982433 0 0 0 0 0.888461 0 0 0 0.76 0"/>
<feBlend mode="normal" in2="shape" result="effect1_innerShadow_228_30644"/>
</filter>
<filter id="filter24_i_228_30644" x="686.656" y="-5.24782" width="30.6562" height="37.6641" filterUnits="userSpaceOnUse" color-interpolation-filters="sRGB">
<feFlood flood-opacity="0" result="BackgroundImageFix"/>
<feBlend mode="normal" in="SourceGraphic" in2="BackgroundImageFix" result="shape"/>
<feColorMatrix in="SourceAlpha" type="matrix" values="0 0 0 0 0 0 0 0 0 0 0 0 0 0 0 0 0 0 127 0" result="hardAlpha"/>
<feOffset dy="-1.39625"/>
<feGaussianBlur stdDeviation="2.17815"/>
<feComposite in2="hardAlpha" operator="arithmetic" k2="-1" k3="1"/>
<feColorMatrix type="matrix" values="0 0 0 0 0.758929 0 0 0 0 0.4375 0 0 0 0 1 0 0 0 1 0"/>
<feBlend mode="normal" in2="shape" result="effect1_innerShadow_228_30644"/>
</filter>
<linearGradient id="paint0_linear_228_30644" x1="279.415" y1="217.124" x2="292.491" y2="245.45" gradientUnits="userSpaceOnUse">
<stop stop-color="#904CF9"/>
<stop offset="1" stop-color="#B845FF"/>
</linearGradient>
<linearGradient id="paint1_linear_228_30644" x1="306.666" y1="204.546" x2="319.742" y2="232.872" gradientUnits="userSpaceOnUse">
<stop stop-color="#904CF9"/>
<stop offset="1" stop-color="#B845FF"/>
</linearGradient>
<linearGradient id="paint2_linear_228_30644" x1="50.4151" y1="105.124" x2="63.4909" y2="133.45" gradientUnits="userSpaceOnUse">
<stop stop-color="#904CF9"/>
<stop offset="1" stop-color="#B845FF"/>
</linearGradient>
<linearGradient id="paint3_linear_228_30644" x1="77.6664" y1="92.5459" x2="90.7422" y2="120.872" gradientUnits="userSpaceOnUse">
<stop stop-color="#904CF9"/>
<stop offset="1" stop-color="#B845FF"/>
</linearGradient>
<linearGradient id="paint4_linear_228_30644" x1="392.415" y1="48.1237" x2="405.491" y2="76.4495" gradientUnits="userSpaceOnUse">
<stop stop-color="#904CF9"/>
<stop offset="1" stop-color="#B845FF"/>
</linearGradient>
<linearGradient id="paint5_linear_228_30644" x1="419.666" y1="35.5459" x2="432.742" y2="63.8718" gradientUnits="userSpaceOnUse">
<stop stop-color="#904CF9"/>
<stop offset="1" stop-color="#B845FF"/>
</linearGradient>
<linearGradient id="paint6_linear_228_30644" x1="539.415" y1="175.123" x2="552.491" y2="203.449" gradientUnits="userSpaceOnUse">
<stop stop-color="#904CF9"/>
<stop offset="1" stop-color="#B845FF"/>
</linearGradient>
<linearGradient id="paint7_linear_228_30644" x1="566.666" y1="162.546" x2="579.742" y2="190.872" gradientUnits="userSpaceOnUse">
<stop stop-color="#904CF9"/>
<stop offset="1" stop-color="#B845FF"/>
</linearGradient>
<linearGradient id="paint8_linear_228_30644" x1="671.423" y1="11.1239" x2="684.499" y2="39.4498" gradientUnits="userSpaceOnUse">
<stop stop-color="#904CF9"/>
<stop offset="1" stop-color="#B845FF"/>
</linearGradient>
<linearGradient id="paint9_linear_228_30644" x1="698.666" y1="-1.45381" x2="711.742" y2="26.872" gradientUnits="userSpaceOnUse">
<stop stop-color="#904CF9"/>
<stop offset="1" stop-color="#B845FF"/>
</linearGradient>
<clipPath id="clip0_228_30644">
<rect width="726" height="278" fill="white"/>
</clipPath>
</defs>
</svg>
