<svg xmlns="http://www.w3.org/2000/svg" width="726" height="278" fill="none" xmlns:v="https://vecta.io/nano"><style><![CDATA[.B{fill:#60a}.C{color-interpolation-filters:sRGB}.D{flood-opacity:0}.E{stroke:#000}.F{stroke-width:1.396}]]></style><g clip-path="url(#j)"><g filter="url(#A)"><g filter="url(#B)" class="B"><path d="M278.161 222.624l6.621 6.125.453-.209-.367-9.012 7.726-3.567 2.109-.973.019 16.595 9.437 8.479 3.62 3.252-10.062 4.644-7.164-6.589-.408.189.412 9.706-9.608 4.435-.133-4.861-.336-12.351-12.607-11.114 1.901-.878 8.387-3.871z"/><path d="M279.075 251.642l1.874 4.057-.133-4.861-1.741.804z"/><use href="#k"/><use href="#l"/><use href="#m"/></g><g filter="url(#C)"><path d="M276.288 218.567l6.621 6.125.453-.209-.367-9.012 9.835-4.54.019 16.595 13.057 11.731-10.061 4.644-7.165-6.588-.408.188.412 9.706-9.608 4.435-.469-17.212L266 223.316l10.288-4.749z" fill="url(#Z)"/></g><path d="M276.419 217.739l.343.317 5.86 5.422-.324-7.977-.019-.467 11.248-5.192.001.937 1.516 3.284.356-.164.001.937.228.495-.227.104.014 13.461 10.615 9.536.216-.1.232.502.682.613-.329.152 1.52 3.292.682.614-11.447 5.284-.342-.316-6.357-5.844.366 8.606.019.468-10.994 5.075-.025-.915-1.52-3.293-.328.151-.025-.916-.232-.502.217-.1-.382-13.983-10.232-9.021-.221.102-.231-.501-.692-.61.338-.156-1.519-3.29-.692-.611 11.684-5.394z" class="E F"/><g filter="url(#D)" class="B"><use href="#n"/></g><g filter="url(#E)"><path d="M319.529 224.668l-5.892 2.72 3.159 6.844-9.064 4.184-13.076-28.326 14.276-6.59c6.497-2.999 11.355-1.008 14.577 5.971 1.772 3.837 2.237 7.068 1.396 9.692-.314.988-.918 1.982-1.813 2.981s-2.083 1.841-3.563 2.524zm-12.461-11.511l3.222 6.98 2.085-.963c1.087-.502 1.824-.97 2.21-1.405.402-.479.415-1.126.038-1.942l-1.464-3.172c-.377-.816-.871-1.211-1.482-1.185-.595-.019-1.437.223-2.524.725l-2.085.962z" fill="url(#a)"/></g><path d="M308.64 202.868c3.357-1.55 6.407-1.86 9.074-.768 2.654 1.087 4.778 3.504 6.429 7.081l.88 2.146a21.99 21.99 0 0 1 .993 1.91c1.806 3.913 2.342 7.336 1.426 10.196-.351 1.105-1.015 2.183-1.957 3.235-.971 1.084-2.242 1.978-3.791 2.693l-5.258 2.427 3.159 6.844-10.332 4.769-15.533-33.65 14.91-6.883zm1.991 16.344l1.451-.669c1.068-.493 1.689-.911 1.975-1.231.112-.138.193-.351.099-.73-.227-.314-.428-.362-.577-.356l-.026.001-.025-.001c-.424-.013-1.141.168-2.21.662l-1.451.67.764 1.654z" class="E F"/></g><g filter="url(#F)"><g filter="url(#G)" class="B"><path d="M49.161 110.624l6.621 6.125.453-.209-.367-9.012 7.726-3.567 2.109-.973.019 16.595 9.438 8.479 3.62 3.252-10.061 4.644-7.165-6.589-.408.189.412 9.706-9.608 4.435-.132-4.861-.336-12.351-12.608-11.114 1.902-.878 8.386-3.871z"/><use href="#o"/><path d="M78.779 131.314l-1.873-4.058-1.746.806 3.62 3.252z"/><path d="M37 111.316l1.873 4.057 1.902-.878L37 111.316z"/><path d="M65.703 102.988l-1.873-4.057-.236 5.03 2.109-.973z"/></g><g filter="url(#H)"><path d="M47.288 106.567l6.621 6.125.453-.209-.367-9.012 9.835-4.54.019 16.595 13.057 11.731-10.061 4.644-7.165-6.588-.408.188.412 9.706-9.608 4.435-.468-17.212L37 111.316l10.288-4.749z" fill="url(#b)"/></g><path d="M47.419 105.739l.343.317 5.859 5.422-.324-7.977-.019-.467 11.248-5.192.001.937 1.516 3.284.356-.164.001.937.228.495-.227.104.014 13.461 10.614 9.536.216-.1.232.502.682.613-.329.152 1.52 3.292.682.614-11.447 5.284-.342-.316-6.357-5.844.366 8.606.019.468-10.994 5.075-.025-.915-1.52-3.293-.328.151-.025-.916-.232-.502.216-.1-.381-13.983-10.232-9.021-.221.102-.231-.501-.692-.61.339-.156-1.519-3.29-.693-.611 11.684-5.394z" class="E F"/><g filter="url(#I)" class="B"><path d="M92.404 116.729l-5.892 2.72 3.159 6.844-9.064 4.184-13.076-28.326 14.276-6.59c6.496-2.999 11.355-1.008 14.577 5.971 1.771 3.837 2.236 7.068 1.395 9.692-.314.988-.918 1.982-1.813 2.981s-2.082 1.841-3.563 2.524zm-12.461-11.511l3.222 6.98 2.085-.963c1.088-.502 1.824-.97 2.21-1.405.402-.479.415-1.126.038-1.942l-1.464-3.172c-.377-.816-.871-1.211-1.482-1.185-.595-.019-1.436.223-2.524.725l-2.085.962z"/></g><g filter="url(#J)"><path d="M90.529 112.668l-5.892 2.72 3.159 6.844-9.064 4.184L65.656 98.09l14.276-6.59c6.496-2.999 11.355-1.008 14.577 5.971 1.771 3.837 2.236 7.068 1.395 9.692-.314.988-.918 1.982-1.813 2.981s-2.082 1.841-3.563 2.524zm-12.461-11.511l3.222 6.98 2.085-.963c1.088-.502 1.824-.97 2.21-1.405.402-.479.415-1.126.038-1.942l-1.464-3.172c-.377-.816-.871-1.211-1.482-1.186-.595-.019-1.436.223-2.524.725l-2.085.962z" fill="url(#c)"/></g><path d="M79.64 90.868c3.358-1.55 6.407-1.861 9.074-.768 2.655 1.087 4.779 3.504 6.43 7.081l.88 2.146a22.17 22.17 0 0 1 .993 1.91c1.806 3.913 2.342 7.336 1.426 10.196-.351 1.105-1.015 2.183-1.957 3.235-.971 1.084-2.242 1.978-3.791 2.693l-5.258 2.427 3.159 6.844-10.332 4.769-15.534-33.65 14.91-6.883zm1.991 16.344l1.451-.669c1.068-.493 1.69-.911 1.976-1.231.112-.138.193-.351.098-.73-.227-.314-.428-.362-.577-.356l-.025.001-.025-.001c-.424-.013-1.141.168-2.21.662l-1.451.67.764 1.654z" class="E F"/></g><g filter="url(#K)"><g filter="url(#L)" class="B"><path d="M391.161 53.624l6.621 6.125.453-.209-.367-9.012 7.726-3.566 2.109-.973.019 16.595 9.437 8.479 3.62 3.252-10.062 4.645-7.164-6.589-.408.188.412 9.706-9.608 4.435-.133-4.861-.336-12.351-12.607-11.114 1.901-.878 8.387-3.871z"/><path d="M392.075 82.642l1.874 4.058-.133-4.861-1.741.804z"/><path d="M420.779 74.314l-1.873-4.058-1.747.806 3.62 3.252z"/><path d="M379 54.316l1.873 4.057 1.901-.878L379 54.316z"/><path d="M407.703 45.988l-1.873-4.057-.236 5.03 2.109-.973z"/></g><g filter="url(#M)"><path d="M389.288 49.567l6.621 6.125.453-.209-.367-9.012 9.835-4.54.019 16.595 13.057 11.731-10.061 4.645-7.165-6.589-.408.188.412 9.706-9.608 4.435-.469-17.212L379 54.316l10.288-4.749z" fill="url(#d)"/></g><path d="M389.419 48.739l.343.317 5.86 5.421-.324-7.977-.019-.467 11.248-5.192.001.937 1.516 3.284.356-.164.001.936.228.495-.227.105.014 13.461 10.615 9.536.216-.1.232.502.682.613-.329.152 1.52 3.292.682.613-11.447 5.284-.342-.315-6.357-5.844.366 8.607.019.468-10.994 5.075-.025-.916-1.52-3.293-.328.151-.025-.916-.232-.503.217-.1-.382-13.983-10.232-9.02-.221.102-.231-.501-.692-.61.338-.156-1.519-3.29-.692-.611 11.684-5.394z" class="E F"/><g filter="url(#N)" class="B"><path d="M434.404 59.729l-5.892 2.72 3.159 6.843-9.064 4.184-13.076-28.326 14.276-6.59c6.497-2.999 11.355-1.008 14.577 5.971 1.772 3.837 2.237 7.068 1.396 9.692-.314.988-.918 1.981-1.813 2.981s-2.083 1.841-3.563 2.524zm-12.461-11.511l3.222 6.98 2.085-.962c1.087-.502 1.824-.971 2.21-1.405.402-.479.415-1.126.038-1.942l-1.464-3.172c-.377-.816-.871-1.211-1.482-1.185-.595-.019-1.437.223-2.524.725l-2.085.962z"/></g><g filter="url(#O)"><path d="M432.529 55.668l-5.892 2.72 3.159 6.843-9.064 4.184-13.076-28.326 14.276-6.59c6.497-2.999 11.355-1.008 14.577 5.971 1.772 3.837 2.237 7.068 1.396 9.692-.314.988-.918 1.982-1.813 2.981s-2.083 1.841-3.563 2.524zm-12.461-11.511l3.222 6.979 2.085-.962c1.087-.502 1.824-.971 2.21-1.405.402-.479.415-1.126.038-1.942l-1.464-3.172c-.377-.816-.871-1.211-1.482-1.185-.595-.018-1.437.223-2.524.725l-2.085.962z" fill="url(#e)"/></g><path d="M421.64 33.868c3.357-1.55 6.407-1.861 9.074-.768 2.654 1.087 4.778 3.505 6.429 7.081l.88 2.146c.348.594.68 1.231.993 1.91 1.806 3.913 2.342 7.336 1.426 10.195-.351 1.105-1.015 2.183-1.957 3.235-.971 1.084-2.242 1.978-3.791 2.693l-5.258 2.427 3.159 6.843-10.332 4.77-15.533-33.65 14.91-6.883zm1.991 16.344l1.451-.67c1.068-.493 1.689-.911 1.975-1.23.112-.138.193-.351.099-.73-.227-.313-.428-.362-.577-.355l-.026.001-.025-.001c-.424-.013-1.141.168-2.21.662l-1.451.67.764 1.655z" class="E F"/></g><g filter="url(#P)"><g filter="url(#Q)" class="B"><path d="M538.161 180.624l6.621 6.125.453-.209-.367-9.012 7.726-3.567 2.109-.973.019 16.595 9.437 8.479 3.62 3.251-10.062 4.645-7.164-6.589-.408.189.412 9.706-9.608 4.435-.133-4.861-.336-12.351-12.607-11.114 1.901-.878 8.387-3.871z"/><path d="M539.075 209.641l1.874 4.058-.133-4.861-1.741.803z"/><path d="M567.779 201.313l-1.873-4.057-1.747.806 3.62 3.251z"/><path d="M526 181.316l1.873 4.057 1.901-.878-3.774-3.179z"/><path d="M554.703 172.988l-1.873-4.057-.236 5.03 2.109-.973z"/></g><g filter="url(#R)"><path d="M536.288 176.567l6.621 6.125.453-.209-.367-9.012 9.835-4.54.019 16.595 13.057 11.731-10.061 4.644-7.165-6.589-.408.189.412 9.706-9.608 4.435-.469-17.212L526 181.316l10.288-4.749z" fill="url(#f)"/></g><path d="M536.419 175.739l.343.317 5.86 5.421-.324-7.976-.019-.467 11.248-5.192.001.937 1.516 3.284.356-.164.001.937.228.494-.227.105.014 13.461 10.615 9.536.216-.1.232.502.682.613-.329.152 1.52 3.292.682.613-11.447 5.284-.342-.315-6.357-5.844.366 8.606.019.468-10.994 5.075-.025-.916-1.52-3.293-.328.152-.025-.916-.232-.503.217-.099-.382-13.984-10.232-9.02-.221.102-.231-.501-.692-.61.338-.156-1.519-3.29-.692-.611 11.684-5.394z" class="E F"/><g filter="url(#S)" class="B"><path d="M581.404 186.729l-5.892 2.72 3.159 6.843-9.064 4.185-13.076-28.326 14.276-6.59c6.497-2.999 11.355-1.009 14.577 5.971 1.772 3.837 2.237 7.068 1.396 9.692-.314.988-.918 1.981-1.813 2.981s-2.083 1.841-3.563 2.524zm-12.461-11.511l3.222 6.98 2.085-.963c1.087-.502 1.824-.97 2.21-1.405.402-.479.415-1.126.038-1.942l-1.464-3.172c-.377-.816-.871-1.211-1.482-1.186-.595-.018-1.437.224-2.524.726l-2.085.962z"/></g><g filter="url(#T)"><path d="M579.529 182.668l-5.892 2.72 3.159 6.843-9.064 4.185-13.076-28.326 14.276-6.59c6.497-2.999 11.355-1.009 14.577 5.971 1.772 3.837 2.237 7.068 1.396 9.692-.314.988-.918 1.981-1.813 2.981s-2.083 1.841-3.563 2.524zm-12.461-11.511l3.222 6.979 2.085-.962c1.087-.502 1.824-.97 2.21-1.405.402-.479.415-1.126.038-1.942l-1.464-3.172c-.377-.816-.871-1.211-1.482-1.186-.595-.018-1.437.224-2.524.726l-2.085.962z" fill="url(#g)"/></g><path d="M568.64 160.868c3.357-1.55 6.407-1.861 9.074-.768 2.654 1.087 4.778 3.504 6.429 7.081l.88 2.146a21.99 21.99 0 0 1 .993 1.91c1.806 3.913 2.342 7.336 1.426 10.196-.351 1.105-1.015 2.183-1.957 3.235-.971 1.084-2.242 1.978-3.791 2.693l-5.258 2.427 3.159 6.843-10.332 4.77-15.533-33.65 14.91-6.883zm1.991 16.344l1.451-.67c1.068-.493 1.689-.911 1.975-1.23.112-.138.193-.351.099-.731-.227-.313-.428-.361-.577-.355l-.026.001-.025-.001c-.424-.013-1.141.168-2.21.662l-1.451.669.764 1.655z" class="E F"/></g><g filter="url(#U)"><g filter="url(#V)" class="B"><path d="M670.168 16.624l6.622 6.125.453-.209-.367-9.012 7.726-3.567 2.109-.973.018 16.595 9.438 8.479 3.62 3.252-10.062 4.645-7.165-6.589-.408.188.412 9.706-9.608 4.435-.132-4.861-.336-12.351-12.607-11.114 1.901-.878 8.386-3.871z"/><path d="M671.083 45.642l1.873 4.057-.132-4.861-1.741.804z"/><path d="M699.787 37.314l-1.874-4.058-1.746.806 3.62 3.252z"/><path d="M658.008 17.317l1.873 4.057 1.901-.878-3.774-3.179z"/><path d="M686.711 8.988l-1.873-4.057-.236 5.03 2.109-.973z"/></g><g filter="url(#W)"><path d="M668.296 12.568l6.621 6.125.453-.209-.367-9.012 9.835-4.54.019 16.595 13.057 11.731-10.061 4.645-7.165-6.589-.408.188.412 9.706-9.608 4.435-.469-17.212-12.607-11.114 10.288-4.749z" fill="url(#h)"/></g><path d="M668.427 11.74l.343.317 5.859 5.421-.324-7.976-.018-.467 11.248-5.192.001.937 1.516 3.284.356-.164.001.936.228.495-.227.105.014 13.461 10.615 9.536.216-.1.232.502.682.613-.329.152 1.52 3.292.682.613-11.447 5.284-.342-.315-6.357-5.844.366 8.607.019.468-10.994 5.075-.025-.916-1.52-3.293-.328.152-.025-.916-.232-.503.216-.1-.381-13.983-10.232-9.02-.221.102-.231-.501-.693-.61.339-.156-1.519-3.29-.692-.611 11.684-5.394z" class="E F"/><g filter="url(#X)" class="B"><path d="M713.404 22.73l-5.892 2.72 3.159 6.844-9.064 4.184-13.076-28.326 14.276-6.59c6.497-2.999 11.355-1.008 14.577 5.971 1.772 3.837 2.237 7.068 1.396 9.692-.314.988-.918 1.982-1.813 2.981s-2.083 1.841-3.563 2.524zm-12.461-11.511l3.222 6.98 2.085-.962c1.087-.502 1.824-.971 2.21-1.405.402-.479.415-1.126.038-1.942l-1.464-3.172c-.377-.816-.871-1.211-1.482-1.185-.595-.019-1.437.223-2.524.725l-2.085.962z"/></g><g filter="url(#Y)"><path d="M711.529 18.669l-5.892 2.72 3.159 6.843-9.064 4.184L686.656 4.09l14.276-6.59c6.497-2.999 11.355-1.008 14.577 5.971 1.772 3.837 2.237 7.068 1.396 9.692-.314.988-.918 1.981-1.813 2.981s-2.083 1.841-3.563 2.524zM699.068 7.157l3.222 6.98 2.085-.962c1.087-.502 1.824-.97 2.21-1.405.402-.479.415-1.126.038-1.942l-1.464-3.172c-.377-.816-.871-1.211-1.482-1.185-.595-.019-1.437.223-2.524.725l-2.085.962z" fill="url(#i)"/></g><path d="M700.64-3.132c3.357-1.55 6.407-1.861 9.074-.768 2.654 1.088 4.778 3.505 6.429 7.081l.88 2.146c.348.594.68 1.231.993 1.91 1.806 3.913 2.342 7.336 1.426 10.196-.351 1.105-1.015 2.183-1.957 3.235-.971 1.084-2.242 1.978-3.791 2.693l-5.258 2.427 3.159 6.843-10.332 4.77-15.533-33.65 14.91-6.883zm1.991 16.344l1.451-.67c1.068-.493 1.689-.911 1.975-1.23.112-.138.193-.351.099-.731-.227-.313-.428-.362-.577-.355l-.026.001-.025-.001c-.424-.013-1.141.168-2.21.662l-1.451.67.764 1.655z" class="E F"/></g></g><defs><filter id="A" x="260.574" y="198.296" width="71.579" height="63.949" filterUnits="userSpaceOnUse" class="C"><feFlood result="A" class="D"/><feColorMatrix in="SourceAlpha" values="0 0 0 0 0 0 0 0 0 0 0 0 0 0 0 0 0 0 127 0" result="B"/><feOffset dy="1.117"/><feGaussianBlur stdDeviation="1.787"/><feComposite in2="B" operator="out"/><feColorMatrix values="0 0 0 0 0.663462 0 0 0 0 0.385637 0 0 0 0 0.022328 0 0 0 1 0"/><feBlend in2="A"/><feBlend in="SourceGraphic"/></filter><filter id="B" x="266" y="209.981" width="41.781" height="45.718" filterUnits="userSpaceOnUse" class="C"><feFlood class="D"/><feBlend in="SourceGraphic" result="B"/><feColorMatrix in="SourceAlpha" values="0 0 0 0 0 0 0 0 0 0 0 0 0 0 0 0 0 0 127 0" result="C"/><feOffset dy="-1.39625"/><feGaussianBlur stdDeviation=".475"/><feComposite in2="C" operator="arithmetic" k2="-1" k3="1"/><feColorMatrix values="0 0 0 0 0.572374 0 0 0 0 0.0982433 0 0 0 0 0.888461 0 0 0 0.76 0"/><feBlend in2="B"/></filter><filter id="C" x="266" y="209.535" width="39.906" height="42.108" filterUnits="userSpaceOnUse" class="C"><feFlood class="D"/><feBlend in="SourceGraphic" result="B"/><feColorMatrix in="SourceAlpha" values="0 0 0 0 0 0 0 0 0 0 0 0 0 0 0 0 0 0 127 0" result="C"/><feOffset dy="-1.39625"/><feGaussianBlur stdDeviation="2.178"/><feComposite in2="C" operator="arithmetic" k2="-1" k3="1"/><feColorMatrix values="0 0 0 0 0.758929 0 0 0 0 0.4375 0 0 0 0 1 0 0 0 1 0"/><feBlend in2="B"/></filter><filter id="D" x="296.531" y="205.26" width="30.656" height="37.217" filterUnits="userSpaceOnUse" class="C"><feFlood class="D"/><feBlend in="SourceGraphic" result="B"/><feColorMatrix in="SourceAlpha" values="0 0 0 0 0 0 0 0 0 0 0 0 0 0 0 0 0 0 127 0" result="C"/><feOffset dy="-1.39625"/><feGaussianBlur stdDeviation=".475"/><feComposite in2="C" operator="arithmetic" k2="-1" k3="1"/><feColorMatrix values="0 0 0 0 0.572374 0 0 0 0 0.0982433 0 0 0 0 0.888461 0 0 0 0.76 0"/><feBlend in2="B"/></filter><filter id="E" x="294.656" y="200.752" width="30.656" height="37.664" filterUnits="userSpaceOnUse" class="C"><feFlood class="D"/><feBlend in="SourceGraphic" result="B"/><feColorMatrix in="SourceAlpha" values="0 0 0 0 0 0 0 0 0 0 0 0 0 0 0 0 0 0 127 0" result="C"/><feOffset dy="-1.39625"/><feGaussianBlur stdDeviation="2.178"/><feComposite in2="C" operator="arithmetic" k2="-1" k3="1"/><feColorMatrix values="0 0 0 0 0.758929 0 0 0 0 0.4375 0 0 0 0 1 0 0 0 1 0"/><feBlend in2="B"/></filter><filter id="F" x="31.574" y="86.296" width="71.579" height="63.949" filterUnits="userSpaceOnUse" class="C"><feFlood result="A" class="D"/><feColorMatrix in="SourceAlpha" values="0 0 0 0 0 0 0 0 0 0 0 0 0 0 0 0 0 0 127 0" result="B"/><feOffset dy="1.117"/><feGaussianBlur stdDeviation="1.787"/><feComposite in2="B" operator="out"/><feColorMatrix values="0 0 0 0 0.663462 0 0 0 0 0.385637 0 0 0 0 0.022328 0 0 0 1 0"/><feBlend in2="A"/><feBlend in="SourceGraphic"/></filter><filter id="G" x="37" y="97.982" width="41.781" height="45.718" filterUnits="userSpaceOnUse" class="C"><feFlood class="D"/><feBlend in="SourceGraphic" result="B"/><feColorMatrix in="SourceAlpha" values="0 0 0 0 0 0 0 0 0 0 0 0 0 0 0 0 0 0 127 0" result="C"/><feOffset dy="-1.39625"/><feGaussianBlur stdDeviation=".475"/><feComposite in2="C" operator="arithmetic" k2="-1" k3="1"/><feColorMatrix values="0 0 0 0 0.572374 0 0 0 0 0.0982433 0 0 0 0 0.888461 0 0 0 0.76 0"/><feBlend in2="B"/></filter><filter id="H" x="37" y="97.535" width="39.906" height="42.108" filterUnits="userSpaceOnUse" class="C"><feFlood class="D"/><feBlend in="SourceGraphic" result="B"/><feColorMatrix in="SourceAlpha" values="0 0 0 0 0 0 0 0 0 0 0 0 0 0 0 0 0 0 127 0" result="C"/><feOffset dy="-1.39625"/><feGaussianBlur stdDeviation="2.178"/><feComposite in2="C" operator="arithmetic" k2="-1" k3="1"/><feColorMatrix values="0 0 0 0 0.758929 0 0 0 0 0.4375 0 0 0 0 1 0 0 0 1 0"/><feBlend in2="B"/></filter><filter id="I" x="67.531" y="93.26" width="30.656" height="37.217" filterUnits="userSpaceOnUse" class="C"><feFlood class="D"/><feBlend in="SourceGraphic" result="B"/><feColorMatrix in="SourceAlpha" values="0 0 0 0 0 0 0 0 0 0 0 0 0 0 0 0 0 0 127 0" result="C"/><feOffset dy="-1.39625"/><feGaussianBlur stdDeviation=".475"/><feComposite in2="C" operator="arithmetic" k2="-1" k3="1"/><feColorMatrix values="0 0 0 0 0.572374 0 0 0 0 0.0982433 0 0 0 0 0.888461 0 0 0 0.76 0"/><feBlend in2="B"/></filter><filter id="J" x="65.656" y="88.752" width="30.656" height="37.664" filterUnits="userSpaceOnUse" class="C"><feFlood class="D"/><feBlend in="SourceGraphic" result="B"/><feColorMatrix in="SourceAlpha" values="0 0 0 0 0 0 0 0 0 0 0 0 0 0 0 0 0 0 127 0" result="C"/><feOffset dy="-1.39625"/><feGaussianBlur stdDeviation="2.178"/><feComposite in2="C" operator="arithmetic" k2="-1" k3="1"/><feColorMatrix values="0 0 0 0 0.758929 0 0 0 0 0.4375 0 0 0 0 1 0 0 0 1 0"/><feBlend in2="B"/></filter><filter id="K" x="373.574" y="29.296" width="71.579" height="63.949" filterUnits="userSpaceOnUse" class="C"><feFlood result="A" class="D"/><feColorMatrix in="SourceAlpha" values="0 0 0 0 0 0 0 0 0 0 0 0 0 0 0 0 0 0 127 0" result="B"/><feOffset dy="1.117"/><feGaussianBlur stdDeviation="1.787"/><feComposite in2="B" operator="out"/><feColorMatrix values="0 0 0 0 0.663462 0 0 0 0 0.385637 0 0 0 0 0.022328 0 0 0 1 0"/><feBlend in2="A"/><feBlend in="SourceGraphic"/></filter><filter id="L" x="379" y="40.982" width="41.781" height="45.718" filterUnits="userSpaceOnUse" class="C"><feFlood class="D"/><feBlend in="SourceGraphic" result="B"/><feColorMatrix in="SourceAlpha" values="0 0 0 0 0 0 0 0 0 0 0 0 0 0 0 0 0 0 127 0" result="C"/><feOffset dy="-1.39625"/><feGaussianBlur stdDeviation=".475"/><feComposite in2="C" operator="arithmetic" k2="-1" k3="1"/><feColorMatrix values="0 0 0 0 0.572374 0 0 0 0 0.0982433 0 0 0 0 0.888461 0 0 0 0.76 0"/><feBlend in2="B"/></filter><filter id="M" x="379" y="40.535" width="39.906" height="42.108" filterUnits="userSpaceOnUse" class="C"><feFlood class="D"/><feBlend in="SourceGraphic" result="B"/><feColorMatrix in="SourceAlpha" values="0 0 0 0 0 0 0 0 0 0 0 0 0 0 0 0 0 0 127 0" result="C"/><feOffset dy="-1.39625"/><feGaussianBlur stdDeviation="2.178"/><feComposite in2="C" operator="arithmetic" k2="-1" k3="1"/><feColorMatrix values="0 0 0 0 0.758929 0 0 0 0 0.4375 0 0 0 0 1 0 0 0 1 0"/><feBlend in2="B"/></filter><filter id="N" x="409.531" y="36.26" width="30.656" height="37.217" filterUnits="userSpaceOnUse" class="C"><feFlood class="D"/><feBlend in="SourceGraphic" result="B"/><feColorMatrix in="SourceAlpha" values="0 0 0 0 0 0 0 0 0 0 0 0 0 0 0 0 0 0 127 0" result="C"/><feOffset dy="-1.39625"/><feGaussianBlur stdDeviation=".475"/><feComposite in2="C" operator="arithmetic" k2="-1" k3="1"/><feColorMatrix values="0 0 0 0 0.572374 0 0 0 0 0.0982433 0 0 0 0 0.888461 0 0 0 0.76 0"/><feBlend in2="B"/></filter><filter id="O" x="407.656" y="31.752" width="30.656" height="37.664" filterUnits="userSpaceOnUse" class="C"><feFlood class="D"/><feBlend in="SourceGraphic" result="B"/><feColorMatrix in="SourceAlpha" values="0 0 0 0 0 0 0 0 0 0 0 0 0 0 0 0 0 0 127 0" result="C"/><feOffset dy="-1.39625"/><feGaussianBlur stdDeviation="2.178"/><feComposite in2="C" operator="arithmetic" k2="-1" k3="1"/><feColorMatrix values="0 0 0 0 0.758929 0 0 0 0 0.4375 0 0 0 0 1 0 0 0 1 0"/><feBlend in2="B"/></filter><filter id="P" x="520.574" y="156.296" width="71.579" height="63.949" filterUnits="userSpaceOnUse" class="C"><feFlood result="A" class="D"/><feColorMatrix in="SourceAlpha" values="0 0 0 0 0 0 0 0 0 0 0 0 0 0 0 0 0 0 127 0" result="B"/><feOffset dy="1.117"/><feGaussianBlur stdDeviation="1.787"/><feComposite in2="B" operator="out"/><feColorMatrix values="0 0 0 0 0.663462 0 0 0 0 0.385637 0 0 0 0 0.022328 0 0 0 1 0"/><feBlend in2="A"/><feBlend in="SourceGraphic"/></filter><filter id="Q" x="526" y="167.981" width="41.781" height="45.718" filterUnits="userSpaceOnUse" class="C"><feFlood class="D"/><feBlend in="SourceGraphic" result="B"/><feColorMatrix in="SourceAlpha" values="0 0 0 0 0 0 0 0 0 0 0 0 0 0 0 0 0 0 127 0" result="C"/><feOffset dy="-1.39625"/><feGaussianBlur stdDeviation=".475"/><feComposite in2="C" operator="arithmetic" k2="-1" k3="1"/><feColorMatrix values="0 0 0 0 0.572374 0 0 0 0 0.0982433 0 0 0 0 0.888461 0 0 0 0.76 0"/><feBlend in2="B"/></filter><filter id="R" x="526" y="167.534" width="39.906" height="42.108" filterUnits="userSpaceOnUse" class="C"><feFlood class="D"/><feBlend in="SourceGraphic" result="B"/><feColorMatrix in="SourceAlpha" values="0 0 0 0 0 0 0 0 0 0 0 0 0 0 0 0 0 0 127 0" result="C"/><feOffset dy="-1.39625"/><feGaussianBlur stdDeviation="2.178"/><feComposite in2="C" operator="arithmetic" k2="-1" k3="1"/><feColorMatrix values="0 0 0 0 0.758929 0 0 0 0 0.4375 0 0 0 0 1 0 0 0 1 0"/><feBlend in2="B"/></filter><filter id="S" x="556.531" y="163.26" width="30.656" height="37.217" filterUnits="userSpaceOnUse" class="C"><feFlood class="D"/><feBlend in="SourceGraphic" result="B"/><feColorMatrix in="SourceAlpha" values="0 0 0 0 0 0 0 0 0 0 0 0 0 0 0 0 0 0 127 0" result="C"/><feOffset dy="-1.39625"/><feGaussianBlur stdDeviation=".475"/><feComposite in2="C" operator="arithmetic" k2="-1" k3="1"/><feColorMatrix values="0 0 0 0 0.572374 0 0 0 0 0.0982433 0 0 0 0 0.888461 0 0 0 0.76 0"/><feBlend in2="B"/></filter><filter id="T" x="554.656" y="158.752" width="30.656" height="37.664" filterUnits="userSpaceOnUse" class="C"><feFlood class="D"/><feBlend in="SourceGraphic" result="B"/><feColorMatrix in="SourceAlpha" values="0 0 0 0 0 0 0 0 0 0 0 0 0 0 0 0 0 0 127 0" result="C"/><feOffset dy="-1.39625"/><feGaussianBlur stdDeviation="2.178"/><feComposite in2="C" operator="arithmetic" k2="-1" k3="1"/><feColorMatrix values="0 0 0 0 0.758929 0 0 0 0 0.4375 0 0 0 0 1 0 0 0 1 0"/><feBlend in2="B"/></filter><filter id="U" x="652.582" y="-7.703" width="71.571" height="63.949" filterUnits="userSpaceOnUse" class="C"><feFlood result="A" class="D"/><feColorMatrix in="SourceAlpha" values="0 0 0 0 0 0 0 0 0 0 0 0 0 0 0 0 0 0 127 0" result="B"/><feOffset dy="1.117"/><feGaussianBlur stdDeviation="1.787"/><feComposite in2="B" operator="out"/><feColorMatrix values="0 0 0 0 0.663462 0 0 0 0 0.385637 0 0 0 0 0.022328 0 0 0 1 0"/><feBlend in2="A"/><feBlend in="SourceGraphic"/></filter><filter id="V" x="658.008" y="3.982" width="41.781" height="45.718" filterUnits="userSpaceOnUse" class="C"><feFlood class="D"/><feBlend in="SourceGraphic" result="B"/><feColorMatrix in="SourceAlpha" values="0 0 0 0 0 0 0 0 0 0 0 0 0 0 0 0 0 0 127 0" result="C"/><feOffset dy="-1.39625"/><feGaussianBlur stdDeviation=".475"/><feComposite in2="C" operator="arithmetic" k2="-1" k3="1"/><feColorMatrix values="0 0 0 0 0.572374 0 0 0 0 0.0982433 0 0 0 0 0.888461 0 0 0 0.76 0"/><feBlend in2="B"/></filter><filter id="W" x="658.008" y="3.535" width="39.906" height="42.108" filterUnits="userSpaceOnUse" class="C"><feFlood class="D"/><feBlend in="SourceGraphic" result="B"/><feColorMatrix in="SourceAlpha" values="0 0 0 0 0 0 0 0 0 0 0 0 0 0 0 0 0 0 127 0" result="C"/><feOffset dy="-1.39625"/><feGaussianBlur stdDeviation="2.178"/><feComposite in2="C" operator="arithmetic" k2="-1" k3="1"/><feColorMatrix values="0 0 0 0 0.758929 0 0 0 0 0.4375 0 0 0 0 1 0 0 0 1 0"/><feBlend in2="B"/></filter><filter id="X" x="688.531" y="-.74" width="30.656" height="37.217" filterUnits="userSpaceOnUse" class="C"><feFlood class="D"/><feBlend in="SourceGraphic" result="B"/><feColorMatrix in="SourceAlpha" values="0 0 0 0 0 0 0 0 0 0 0 0 0 0 0 0 0 0 127 0" result="C"/><feOffset dy="-1.39625"/><feGaussianBlur stdDeviation=".475"/><feComposite in2="C" operator="arithmetic" k2="-1" k3="1"/><feColorMatrix values="0 0 0 0 0.572374 0 0 0 0 0.0982433 0 0 0 0 0.888461 0 0 0 0.76 0"/><feBlend in2="B"/></filter><filter id="Y" x="686.656" y="-5.248" width="30.656" height="37.664" filterUnits="userSpaceOnUse" class="C"><feFlood class="D"/><feBlend in="SourceGraphic" result="B"/><feColorMatrix in="SourceAlpha" values="0 0 0 0 0 0 0 0 0 0 0 0 0 0 0 0 0 0 127 0" result="C"/><feOffset dy="-1.39625"/><feGaussianBlur stdDeviation="2.178"/><feComposite in2="C" operator="arithmetic" k2="-1" k3="1"/><feColorMatrix values="0 0 0 0 0.758929 0 0 0 0 0.4375 0 0 0 0 1 0 0 0 1 0"/><feBlend in2="B"/></filter><linearGradient id="Z" x1="279.415" y1="217.124" x2="292.491" y2="245.45" href="#p"><stop stop-color="#904cf9"/><stop offset="1" stop-color="#b845ff"/></linearGradient><linearGradient id="a" x1="306.666" y1="204.546" x2="319.742" y2="232.872" href="#p"><stop stop-color="#904cf9"/><stop offset="1" stop-color="#b845ff"/></linearGradient><linearGradient id="b" x1="50.415" y1="105.124" x2="63.491" y2="133.45" href="#p"><stop stop-color="#904cf9"/><stop offset="1" stop-color="#b845ff"/></linearGradient><linearGradient id="c" x1="77.666" y1="92.546" x2="90.742" y2="120.872" href="#p"><stop stop-color="#904cf9"/><stop offset="1" stop-color="#b845ff"/></linearGradient><linearGradient id="d" x1="392.415" y1="48.124" x2="405.491" y2="76.45" href="#p"><stop stop-color="#904cf9"/><stop offset="1" stop-color="#b845ff"/></linearGradient><linearGradient id="e" x1="419.666" y1="35.546" x2="432.742" y2="63.872" href="#p"><stop stop-color="#904cf9"/><stop offset="1" stop-color="#b845ff"/></linearGradient><linearGradient id="f" x1="539.415" y1="175.123" x2="552.491" y2="203.449" href="#p"><stop stop-color="#904cf9"/><stop offset="1" stop-color="#b845ff"/></linearGradient><linearGradient id="g" x1="566.666" y1="162.546" x2="579.742" y2="190.872" href="#p"><stop stop-color="#904cf9"/><stop offset="1" stop-color="#b845ff"/></linearGradient><linearGradient id="h" x1="671.423" y1="11.124" x2="684.499" y2="39.45" href="#p"><stop stop-color="#904cf9"/><stop offset="1" stop-color="#b845ff"/></linearGradient><linearGradient id="i" x1="698.666" y1="-1.454" x2="711.742" y2="26.872" href="#p"><stop stop-color="#904cf9"/><stop offset="1" stop-color="#b845ff"/></linearGradient><clipPath id="j"><path fill="#fff" d="M0 0h726v278H0z"/></clipPath><path id="k" d="M307.779 243.314l-1.873-4.058-1.747.806 3.62 3.252z"/><path id="l" d="M266 223.316l1.873 4.057 1.901-.878-3.774-3.179z"/><path id="m" d="M294.703 214.988l-1.873-4.057-.236 5.03 2.109-.973z"/><path id="n" d="M321.404 228.729l-5.892 2.72 3.159 6.844-9.064 4.184-13.076-28.326 14.276-6.59c6.497-2.999 11.355-1.008 14.577 5.971 1.772 3.837 2.237 7.068 1.396 9.692-.314.988-.918 1.982-1.813 2.981s-2.083 1.841-3.563 2.524zm-12.461-11.511l3.222 6.98 2.085-.963c1.087-.502 1.824-.97 2.21-1.405.402-.479.415-1.126.038-1.942l-1.464-3.172c-.377-.816-.871-1.211-1.482-1.185-.595-.019-1.437.223-2.524.725l-2.085.962z"/><path id="o" d="M50.076 139.642l1.873 4.057-.132-4.861-1.741.804z"/><linearGradient id="p" gradientUnits="userSpaceOnUse"/></defs></svg>