<svg xmlns="http://www.w3.org/2000/svg" width="132" height="246" fill="none" xmlns:v="https://vecta.io/nano"><style><![CDATA[.B{stroke:#000}.C{color-interpolation-filters:sRGB}.D{flood-opacity:0}.E{stroke-width:1.04}.F{stroke-linejoin:round}.G{stroke-width:1.311}.H{fill:#54495a}.I{fill:#000}.J{stroke-width:1.019}.K{fill:#ecf2ff}.L{stroke-linecap:round}.M{fill-opacity:.53}.N{fill:#f6cf32}.O{fill:#ffe785}.P{fill:#f4f3ff}.Q{stroke-width:.291}.R{stroke-width:1.295}.S{stroke-width:1.165}]]></style><g filter="url(#D)"><ellipse cx="65.268" cy="232.088" rx="57.366" ry="11.562" fill="#a05010"/></g><g filter="url(#E)" class="K"><rect x="31.133" y="133.379" width="68.741" height="68.741" rx="12.816"/></g><rect x="31.788" y="134.034" width="67.43" height="67.43" rx="12.161" class="B G"/><g filter="url(#F)"><use href="#T" fill="#42394a"/></g><use href="#T" class="B F G"/><g filter="url(#G)"><use href="#U" fill="#42394a"/></g><use href="#U" class="B F G"/><g filter="url(#H)" class="H"><path d="M36.585 157.353c3.736-10.972 9.23-20.929 11.782-24.668l17.092.018 17.167.121c2.552 3.739 7.916 13.927 11.55 24.527 3.893 12.432 3.661 16.149 2.234 25.023.519 2.342 1.53 8.362 2.179 15.387s1.428 11.956 1.298 22.556c-2.422 2.136-10.614 5.886-24.629 3.717-.649-4.314-1.687-10.724-2.336-13.559-.689-3.011-1.298-7.395-3.893-8.998-1.168-.616-2.985-.616-3.634-.616-.584-.001-2.336 0-3.504.616-2.595 1.603-3.347 5.985-4.036 8.996-.649 2.835-1.544 9.247-2.193 13.561-12.342 2.339-23.372-1.605-24.8-3.577-.13-10.6.662-15.774 1.311-22.799s1.817-12.942 2.336-15.284c-1.427-8.874-1.687-11.586 2.076-25.021z"/></g><g filter="url(#I)"><path d="M32.454 197.658c.649-7.026 1.817-12.942 2.336-15.284 3.1 4.417 12.796 13.251 30.886 13.251 16.718 0 27.058-8.738 31.015-13.251.519 2.342 1.53 8.362 2.179 15.387s1.428 11.956 1.298 22.556c-2.422 2.136-10.614 5.886-24.629 3.717-.649-4.314-1.687-10.724-2.336-13.559-.689-3.011-1.298-7.395-3.893-8.998-1.168-.616-2.985-.616-3.634-.616-.584-.001-2.336 0-3.504.616-2.595 1.603-3.347 5.985-4.036 8.997-.649 2.834-1.544 9.246-2.193 13.56-12.342 2.339-23.372-1.605-24.8-3.577-.13-10.6.662-15.774 1.311-22.799z" fill="#f8931d"/></g><mask id="A" maskUnits="userSpaceOnUse" x="30" y="132" width="70" height="93" mask-type="alpha"><path d="M36.585 157.354c3.736-10.972 9.23-20.93 11.782-24.668l17.092.017 17.167.121c2.552 3.739 7.916 13.928 11.55 24.528 3.893 12.431 3.661 16.148 2.234 25.022.519 2.342 1.53 8.362 2.179 15.388s1.428 11.955 1.298 22.555c-2.422 2.137-10.614 5.887-24.629 3.717-.649-4.314-1.687-10.724-2.336-13.559-.689-3.011-1.298-7.395-3.893-8.997-1.168-.616-2.985-.616-3.634-.616-.584-.001-2.336 0-3.504.616-2.595 1.602-3.347 5.985-4.036 8.996-.649 2.835-1.544 9.246-2.193 13.56-12.342 2.34-23.372-1.604-24.8-3.576-.13-10.6.662-15.774 1.311-22.8s1.817-12.942 2.336-15.284c-1.427-8.874-1.687-11.585 2.076-25.02z" fill="#2c61bf"/></mask><g mask="url(#A)"><path d="M98.276 190.975l-.301.099c-21.278 6.999-44.24 6.999-65.519 0l-.3-.099v-40.632l.503.078L43 152.022a145.18 145.18 0 0 0 44.434 0l10.339-1.601.504-.078v40.632z" fill="#f8931d" stroke-width=".874" class="B"/><mask id="B" maskUnits="userSpaceOnUse" x="60.531" y="153.186" width="8" height="40" class="I"><path fill="#fff" d="M60.531 153.186h8v40h-8z"/><path d="M62.531 153.186h4.952v39.613h-4.952v-39.613z"/></mask><path d="M62.531 153.186h4.952v39.613h-4.952v-39.613z" class="H"/><path d="M67.483 153.186h-1.04v39.613h1.04 1.04v-39.613h-1.04zm-4.952 39.613h1.04v-39.613h-1.04-1.04v39.613h1.04z" mask="url(#B)" class="I"/><path d="M65.221 195.625c-16.894 0-27.331-8.641-30.438-12.961-1.515 6.641-1.651 8.252-1.748 11.068 0 0 10.631 17.185 32.186 17.185s31.311-16.08 33.35-21.614l-2.33-6.639c-3.301 4.32-14.127 12.961-31.021 12.961z" fill="#e4871a"/><g filter="url(#J)" class="B E"><path d="M100.399 188.27l-.357.118a109.58 109.58 0 0 1-68.775 0l-.356-.118v-9.556l.659.184c22.297 6.223 45.873 6.223 68.17 0l.66-.184v9.556z" class="H"/><path d="M40.613 180.564l-1.456 9.758"/><path d="M91.731 180.564l1.456 9.758"/><path d="M48.91 182.312l-1.456 9.758"/><path d="M83.286 182.312l1.456 9.758"/><path d="M57.359 183.768l-1.456 9.758"/><path d="M74.841 183.768l1.456 9.758"/><path d="M66.168 183.719v9.857"/></g><g filter="url(#K)" class="B"><path d="M61.545 204.568c-8.899.515-24.177-2.171-31.297-5.361-.374 1.579-.247 6.512-1.444 13.096 7.581 3.092 22.499 5.708 30.054 3.861.831-2.826 2.188-9.202 2.687-11.596z" fill="#fff" stroke-width=".89"/><path d="M60.531 207.738c-15.927.745-26.738-3.201-30.488-4.831.026 1.143-.459 2.87-.389 5.918 6.755 3.243 21.793 5.411 29.898 4.776.193-.665.45-2.793.979-5.863z" stroke-width=".89" class="H"/></g></g><g class="B"><path d="M34.727 180.333c-1.283 6.823-4.101 25.662-3.865 39.619.005.316.108.622.339.838 2.9 2.709 14.067 4.955 23.469 3.399.597-.099 1.056-.573 1.152-1.17 1.323-8.242 1.849-16.854 5.027-20.578 1.135-1.331 2.552-1.603 4.542-1.603m30.848-20.505c1.283 6.823 3.922 25.662 3.681 39.619-.005.316-.108.622-.339.838-2.9 2.709-14.067 4.955-23.469 3.399-.597-.099-1.056-.573-1.152-1.17-1.323-8.242-1.849-16.854-5.027-20.578-1.135-1.331-2.552-1.603-4.542-1.603" class="G"/><path d="M76.449 197.239c.067-.029.146-.003.184.06s.021.144-.037.189c-1.621 1.245-6.112 3.727-11.165 3.727s-9.142-2.483-10.562-3.733c-.054-.048-.065-.129-.024-.19s.118-.082.183-.05c1.677.804 6.099 2.679 10.403 2.679s9.135-1.877 11.019-2.682z" class="F I Q"/></g><path d="M103.653 156.167c-5.388-10.485-15.878-19.584-21.409-22.718l-2.956 1.307c.275.312 2.975 1.565 7.181 7.067 5.897 7.713 9.608 19.606 10.485 27.713.575 5.315.027 8.033-.418 10.249l-.019.091c-.449 2.232 1.544 11.887 1.895 15.35 3.097.27 5.471-.858 8.334-4.354 4.482-6.423 2.985-22.88-3.093-34.705z" class="H"/><g filter="url(#L)"><path d="M98.413 195.227c3.098.269 5.472-.859 8.334-4.355 3.462-4.961 3.357-15.908.33-26.084-5.071-.699-9.151.971-10.558 1.894 1.166 5.388.449 10.962 0 13.194s1.544 11.887 1.894 15.351z" fill="#fff"/></g><path d="M100.487 180.707c-.65 3.192-2.26 5.871-3.245 6.363.146.631.233 1.835.583 3.932 1.72-2.333 3.232-6.842 3.139-10.294-.009-.331-.411-.325-.477-.001z" class="I"/><path d="M96.223 166.68c1.65-.873 6.087-2.475 10.631-1.893" class="B G"/><path d="M38.021 201.773l3.83.984-3.768 13.358-3.386-.263-7.99-2.789 1.92-7.934 9.395-3.356z" class="H"/><g stroke-width=".861" class="B F"><path d="M38.021 201.773l3.83.984-3.768 13.358-3.386-.263m3.324-14.079l-9.395 3.356-1.92 7.934 7.99 2.789m3.324-14.079l-3.324 14.079"/><path d="M27.455 204.846c1.332-2.78 3.551-4.384 4.363-4.796.629.223 4.639 1.237 7.839 2.111-1.898-.1-3.995 3.028-4.805 4.604l-7.397-1.919z" fill="#473e4c"/></g><circle cx="32.21" cy="204.012" r=".807" class="I"/><path d="M27.214 156.166c5.388-10.485 15.878-19.585 21.409-22.718l2.956 1.306c-.275.313-5.009.852-8.059 7.07-3.787 7.719-8.73 19.603-9.607 27.711-.575 5.315-.027 8.033.418 10.248l.018.092c.449 2.232-1.544 11.887-1.895 15.35-3.097.27-5.471-.858-8.334-4.355-4.482-6.422-2.985-22.879 3.092-34.704z" class="H"/><g filter="url(#M)"><path d="M32.454 195.225c-3.097.269-5.471-.858-8.334-4.355-3.462-4.961-3.357-15.908-.329-26.083 5.07-.7 9.151.97 10.558 1.893-1.166 5.388-.449 10.962 0 13.194s-1.544 11.887-1.895 15.351z" fill="#fff"/></g><path d="M30.373 180.706c.65 3.192 2.26 5.87 3.245 6.363-.146.631-.233 1.835-.583 3.932-1.719-2.334-3.232-6.843-3.139-10.294.009-.331.411-.326.477-.001z" class="I"/><g class="B"><path d="M34.637 166.679c-1.651-.874-6.088-2.476-10.631-1.893" class="G"/><path d="M33.462 171.508c1.661-12.917 7.917-26.13 10.121-30.074-1.341 3.821-5.08 13.271-7.932 24.335-1.347 5.224-1.294 9.886-.291 14.358l-.819 1.456c-.768-2.854-1.231-6.266-1.079-10.075zm64.369 0c-1.661-12.917-7.917-26.13-10.121-30.074 1.341 3.821 5.092 13.126 7.944 24.19 1.345 5.217 1.004 10.494 0 15.002l.874 1.741c.899-3.005 1.468-6.695 1.302-10.859z" class="I Q"/><path d="M82.254 133.233c5.54 3.133 16.775 13.147 21.7 23.611 6.156 13.081 7.136 27.392 2.792 33.992-2.5 3.478-5.224 4.567-8.326 4.297-.874-6.845-1.893-12.377-2.185-14.272m-47.618-47.63c-5.54 3.133-16.775 13.147-21.7 23.611-6.156 13.081-7.136 27.392-2.792 33.992 2.5 3.478 5.224 4.567 8.326 4.297.874-6.845 2.033-12.963 2.325-14.859" class="G"/></g><g filter="url(#N)" class="K"><path d="M126.861 74.154c-.943-5.758-6.194-7.653-8.701-7.88 1.571 3.869 2.169 9.436 2.227 15.151-.058 5.715-.656 11.282-2.227 15.151 2.507-.228 7.758-2.123 8.701-7.88.295-2.304.387-5.01.395-7.27-.008-2.26-.1-4.966-.395-7.27z"/></g><path d="M118.219 65.628c1.352.123 3.402.687 5.25 1.981 1.805 1.265 3.423 3.235 3.98 6.154l.051.285.002.012.001.011c.3 2.343.393 5.08.401 7.351v.005c-.008 2.27-.101 5.008-.401 7.351l-.001.011-.002.012c-.504 3.077-2.168 5.134-4.031 6.439-1.848 1.294-3.898 1.859-5.25 1.981l-1.059.096.4-.984c1.521-3.748 2.121-9.208 2.179-14.901l-.017-1.065c-.119-5.309-.735-10.332-2.162-13.849l-.4-.984 1.059.096z" class="B R"/><g filter="url(#O)" class="K"><path d="M4.151 74.154c.943-5.758 6.193-7.653 8.701-7.88-1.571 3.869-2.169 9.436-2.227 15.151.058 5.715.656 11.282 2.227 15.151-2.507-.228-7.757-2.123-8.701-7.88-.296-2.304-.388-5.01-.396-7.27.008-2.26.1-4.966.396-7.27z"/></g><g class="B R"><path d="M12.793 65.628c-1.352.123-3.403.687-5.25 1.981-1.805 1.265-3.423 3.235-3.98 6.154l-.051.285-.002.012-.001.011c-.301 2.343-.393 5.08-.401 7.351v.005c.008 2.27.101 5.008.401 7.351l.001.011.002.012c.504 3.077 2.168 5.134 4.031 6.439 1.847 1.294 3.898 1.859 5.25 1.981l1.059.096-.399-.984c-1.522-3.748-2.121-9.208-2.18-14.901l.017-1.065c.119-5.309.735-10.332 2.162-13.849l.399-.984-1.059.096z"/><circle cx="65.099" cy="81.732" r="55.317" fill="#181f2d"/></g><path d="M65.066 28.069c21.996 0 37.711 11.803 46.922 27.491-17.847-21.878-39.27-23.646-46.922-23.646S35.992 33.683 18.145 55.56c9.212-15.688 24.926-27.491 46.922-27.491zm.003 102.095c-25.752 0-42.817-17.373-49.225-27.107 11.705 27.107 37.827 32.529 49.225 32.529s37.519-5.422 49.225-32.529c-6.407 9.734-23.472 27.107-49.225 27.107zm-.415-96.912c-30.781 0-47.295 23.132-51.404 34.687 4.89-9.822 22.016-29.179 51.404-29.179s47.111 18.494 52.083 28.028c-4.318-10.795-21.302-33.536-52.083-33.536z" class="K"/><g filter="url(#P)"><path d="M65.214 128.967c26.345-.037 52.823-20.461 52.823-47.495 0-19.99-23.247-41.42-52.823-41.455-29.577.035-52.823 21.464-52.823 41.455 0 27.034 26.478 47.458 52.823 47.495z" fill="#150d41"/></g><g fill="#ebf6fe" class="M"><path d="M24.595 65.546c-6.112 9.455-5.492 22.668-4.029 30.791.217 1.206 1.702 1.13 1.908-.078 1.096-6.422 3.497-16.555 10.182-26.396 7.167-10.551 16.623-17.878 22.934-21.296 1.038-.562.801-1.892-.369-1.736-8.246 1.102-23.061 7.014-30.625 18.715z"/><ellipse cx="102.213" cy="82.567" rx="7.783" ry="9.76" transform="rotate(9.588 102.213 82.567)"/><ellipse cx="92.933" cy="101.381" rx="4.053" ry="4.513" transform="rotate(8.436 92.933 101.381)"/></g><path d="M.844 57.501c4.078 3.204 7.428 5.68 11.068 8.01 15.5-8.334 58.38-19.982 105.899.096 4.786-3.446 9.737-8.107 12.941-10.874-2.912-1.456-10.574-5.937-13.981-6.845.823-1.197 3.787-6.991 6.117-11.942-7.428-2.185-13.107-2.767-18.952-3.236 2.032-7.33 3.775-11.369 5.227-14.361-8.364-1.197-17.134.997-20.474 2.244L83.026 2.494 68.361 15.359 52.969.848l-9.438 17.951-18.151-8.676-1.162 21.092-19.457 1.197c1.742 3.441 6.43 11.725 8.753 15.914-6.262 5.243-8.156 5.68-12.67 9.175z" class="N"/><path d="M4.629 57.792l7.864 6.117-.583 1.602L.988 57.792l12.379-9.612-8.738-15.729 19.807-1.311 1.311-20.972 17.768 8.447L53.127.848l15.146 14.564L82.982 2.596c1.359 3.884 4.41 12.915 5.74 17.973 7.504-2.515 16.68-2.447 20.329-2.099-1.019 2.621-3.466 9.146-5.097 14.273 7.107.233 15.486 2.233 18.787 3.204l-6.117 12.088 3.641 1.165 10.486 5.68-3.349 2.913-9.467 7.573 8.738-10.486-12.379-6.263 5.098-11.068-18.205-2.621 2.767-14.358-17.331 3.144-5.825-14.709-12.816 10.049L54 6.965l-9.612 15.001-16.166-6.699-1.893 17.622L8.561 34.49l7.573 13.981-11.505 9.321z" class="O"/><path d="M11.912 65.511c-3.641-2.33-6.991-4.806-11.068-8.01 4.515-3.495 6.408-3.932 12.67-9.175L4.761 32.412l19.457-1.197 1.162-21.092 18.151 8.676L52.969.848l15.392 14.51L83.026 2.494l5.663 18.101c3.34-1.247 12.11-3.441 20.474-2.244-.984 3.033-2.586 7.111-5.227 14.361 5.845.469 11.524 1.051 18.952 3.236-2.33 4.952-5.294 10.746-6.117 11.942 3.407.907 11.069 5.389 13.981 6.845-3.204 2.767-8.155 7.427-12.941 10.874" stroke-linecap="square" class="B E"/><g filter="url(#Q)"><path d="M12.496 65.954c1.295-6.521 6.905-15.652 9.35-18.26 18.412-11.449 69.477-10.145 86.45 0 3.597 5.217 7.049 11.014 9.35 19.275-27.33-11.884-80.553-10.724-105.15-1.014z" fill="#56495a"/></g><path d="M65.615 39.076c8.62.082 17.2.841 24.695 2.217 7.251 1.331 13.526 3.247 17.84 5.714l.412.241.097.058.065.093c3.613 5.243 7.1 11.094 9.422 19.431l.293 1.052-1.001-.436c-13.569-5.9-33.625-8.58-53.392-8.562s-39.148 2.733-51.36 7.554l-.886.351.185-.936c.663-3.338 2.418-7.305 4.297-10.745s3.916-6.418 5.184-7.77l.047-.05.058-.036c4.685-2.913 11.405-4.993 19.074-6.327 7.678-1.336 16.35-1.93 24.97-1.849z" class="B E"/><mask id="C" maskUnits="userSpaceOnUse" x="11" y="39" width="108" height="28" mask-type="alpha"><path d="M65.678 39.981c8.677.082 17.304.839 24.825 2.21 7.475 1.362 13.817 3.323 18.035 5.798 3.445 4.969 6.736 10.45 9.024 18.077-13.898-5.714-33.871-8.282-53.463-8.265s-38.897 2.623-51.469 7.315c.758-3.002 2.324-6.47 4.028-9.567 1.862-3.385 3.851-6.26 5.049-7.547 4.576-2.806 11.203-4.854 18.878-6.179 7.7-1.329 16.416-1.924 25.093-1.843z" fill="#56495a" class="B E"/></mask><g mask="url(#C)"><g filter="url(#R)"><use href="#V" fill="#d4d2e7"/></g><use href="#V" class="B E"/><path transform="rotate(341.071 65.211 39.078)" fill-opacity=".39" d="M65.211 39.078h3.597v21.522h-3.597z" class="P"/><path transform="rotate(341.071 72.203 39.882)" fill-opacity=".39" d="M72.203 39.882h3.597v21.522h-3.597z" class="P"/><path transform="rotate(341.071 44.82 39.59)" fill-opacity=".42" d="M44.82 39.59h3.597v21.522H44.82z" class="P"/><path d="M11.908 65.512c-3.641-2.33-6.991-4.806-11.068-8.01 4.515-3.495 6.408-3.932 12.67-9.175L4.757 32.413l19.457-1.197 1.162-21.092L43.527 18.8 52.965.849l15.392 14.51L83.022 2.495l5.663 18.101c3.34-1.247 12.11-3.441 20.474-2.244-1.452 2.992-3.194 7.031-5.227 14.361 5.845.468 11.525 1.051 18.952 3.236-2.33 4.952-5.294 10.746-6.117 11.942 3.408.907 11.069 5.389 13.981 6.845-3.204 2.767-8.155 7.428-12.941 10.874" class="B E F"/><path d="M75.987 47.202l-3.983 1.096c-.751-2.025-3.315-6.029-7.563-5.844-5.31.231-6.447 4.894-5.64 7.843s4.011 6.132 7.844 4.916 3.718-5.045 2.378-6.94-4.023-3.348-6.217-1.332c-1.31 1.204-.963 5.059 2.743 4.525" class="B F L S"/><path d="M58.423 48.312l-3.977 3.804 5.211.172" class="B F L S"/><circle cx="48.027" cy="43.375" r="1.529" class="B J"/><circle cx="46.57" cy="49.491" r="1.529" class="B J"/><circle cx="45.109" cy="55.608" r="1.529" class="B J"/><circle cx="2.039" cy="2.039" r="1.529" transform="matrix(-1 0 0 1 83.2617 41.3364)" class="B J"/><circle cx="2.039" cy="2.039" r="1.529" transform="matrix(-1 0 0 1 84.7188 47.4517)" class="B J"/><circle cx="2.039" cy="2.039" r="1.529" transform="matrix(-1 0 0 1 86.1797 53.5688)" class="B J"/></g><g filter="url(#S)"><path d="M33.458 41.658l2.082-5.114 14.598-.665c-6.928 3.811-10.037 9.166-11.103 10.568-.853 1.122-4.791 8.786-6.653 12.477-.258-1.104-.73-3.995-.56-6.726s1.349-8.546 1.636-10.541z" class="N"/><path d="M35.126 53.569c-1.238-5.089-1.032-10.949 0-14.418-.86 1.108-1.366 4.505-2.698 8.641s-.478 9.07.115 11.021c.43-.337 1.549-3.855 2.582-5.243z" class="O"/><path d="M34.424 39.477c-2.831 6.665-3.222 14.392-2.033 19.636 3.457-6.874 8.325-17.758 16.066-22.359" stroke-width="1.163" class="B F L"/></g><path d="M102.496 35.365l-5.826 2.621-9.029 1.456c1.019 1.942 3.554 6.991 5.534 11.651s3.155 11.36 3.495 14.127l1.456-2.621c1.214 3.107 4.078 10.573 5.826 15.583 1.748-2.913 4.321-12.234 4.515-15.583l.582-7.719V41.773l-2.039-6.117-4.514-.291z" class="N"/><path d="M102.064 71.482c2.476-5.097 6.263-27.962 5.097-35.099.729 1.602 1.807 7.569 2.039 11.797s1.311 16.02-5.097 30.001c-.199-.367-1.633-5.24-2.039-6.699zm-6.263-11.651c1.324-5.001 1.986-13.791 1.838-17.331 1.075.874 1.716 4.074 1.949 8.301s-1.902 12.51-2.476 14.418c-.199-.367-.905-3.929-1.311-5.389z" class="O"/><path d="M107.152 36.239c2.67 5.874 4.223 27.817-3.35 42.672-.874-6.554-3.932-12.816-5.825-16.457m.154-20.099c1.456 5.825 2.352 14.559-1.412 23.558-.19-7.538-5.87-22.684-8.637-25.014" stroke-width="1.066" class="B F L"/><defs><filter id="D" x="6.301" y="218.925" width="117.932" height="26.326" filterUnits="userSpaceOnUse" class="C"><feFlood class="D"/><feBlend in="SourceGraphic"/><feGaussianBlur stdDeviation=".8"/></filter><filter id="E" x="31.133" y="133.379" width="68.742" height="68.741" filterUnits="userSpaceOnUse" class="C"><feFlood class="D"/><feBlend in="SourceGraphic" result="B"/><feColorMatrix in="SourceAlpha" values="0 0 0 0 0 0 0 0 0 0 0 0 0 0 0 0 0 0 127 0" result="C"/><feOffset dx="-4.36912" dy="-9.02952"/><feComposite in2="C" operator="arithmetic" k2="-1" k3="1"/><feColorMatrix values="0 0 0 0 0.843137 0 0 0 0 0.866667 0 0 0 0 0.917647 0 0 0 1 0"/><feBlend in2="B"/></filter><filter id="F" x="26.242" y="221.426" width="28.691" height="15.612" filterUnits="userSpaceOnUse" class="C"><feFlood class="D"/><feBlend in="SourceGraphic" result="B"/><feColorMatrix in="SourceAlpha" values="0 0 0 0 0 0 0 0 0 0 0 0 0 0 0 0 0 0 127 0" result="C"/><feOffset dx="3.4953" dy="-3.78657"/><feComposite in2="C" operator="arithmetic" k2="-1" k3="1"/><feColorMatrix values="0 0 0 0 0.368627 0 0 0 0 0.329412 0 0 0 0 0.403922 0 0 0 1 0"/><feBlend in2="B"/></filter><filter id="G" x="75.91" y="221.426" width="28.691" height="15.612" filterUnits="userSpaceOnUse" class="C"><feFlood class="D"/><feBlend in="SourceGraphic" result="B"/><feColorMatrix in="SourceAlpha" values="0 0 0 0 0 0 0 0 0 0 0 0 0 0 0 0 0 0 127 0" result="C"/><feOffset dx="-2.3302" dy="-3.78657"/><feComposite in2="C" operator="arithmetic" k2="-1" k3="1"/><feColorMatrix values="0 0 0 0 0.368505 0 0 0 0 0.328385 0 0 0 0 0.404167 0 0 0 1 0"/><feBlend in2="B"/></filter><filter id="H" x="30.848" y="132.685" width="69.051" height="92.068" filterUnits="userSpaceOnUse" class="C"><feFlood class="D"/><feBlend in="SourceGraphic" result="B"/><feColorMatrix in="SourceAlpha" values="0 0 0 0 0 0 0 0 0 0 0 0 0 0 0 0 0 0 127 0" result="C"/><feOffset dy="-5.24295"/><feComposite in2="C" operator="arithmetic" k2="-1" k3="1"/><feColorMatrix values="0 0 0 0 1 0 0 0 0 0.854167 0 0 0 0 0.270833 0 0 0 1 0"/><feBlend in2="B"/></filter><filter id="I" x="31.129" y="182.374" width="69.051" height="42.379" filterUnits="userSpaceOnUse" class="C"><feFlood class="D"/><feBlend in="SourceGraphic" result="B"/><feColorMatrix in="SourceAlpha" values="0 0 0 0 0 0 0 0 0 0 0 0 0 0 0 0 0 0 127 0" result="C"/><feOffset dy="-5.24295"/><feComposite in2="C" operator="arithmetic" k2="-1" k3="1"/><feColorMatrix values="0 0 0 0 0.894231 0 0 0 0 0.529012 0 0 0 0 0.10232 0 0 0 1 0"/><feBlend in2="B"/></filter><filter id="J" x="30.391" y="178.029" width="70.527" height="18.161" filterUnits="userSpaceOnUse" class="C"><feFlood result="A" class="D"/><feColorMatrix in="SourceAlpha" values="0 0 0 0 0 0 0 0 0 0 0 0 0 0 0 0 0 0 127 0" result="B"/><feOffset dy="1.74765"/><feComposite in2="B" operator="out"/><feColorMatrix values="0 0 0 0 0 0 0 0 0 0 0 0 0 0 0 0 0 0 0.12 0"/><feBlend in2="A"/><feBlend in="SourceGraphic"/></filter><filter id="K" x="28.301" y="198.58" width="33.797" height="18.644" filterUnits="userSpaceOnUse" class="C"><feFlood class="D"/><feBlend in="SourceGraphic" result="B"/><feColorMatrix in="SourceAlpha" values="0 0 0 0 0 0 0 0 0 0 0 0 0 0 0 0 0 0 127 0" result="C"/><feOffset dx="-13.7676" dy="-2.01476"/><feComposite in2="C" operator="arithmetic" k2="-1" k3="1"/><feColorMatrix values="0 0 0 0 0 0 0 0 0 0 0 0 0 0 0 0 0 0 0.15 0"/><feBlend in2="B"/></filter><filter id="L" x="96.453" y="164.622" width="12.895" height="30.643" filterUnits="userSpaceOnUse" class="C"><feFlood class="D"/><feBlend in="SourceGraphic" result="B"/><feColorMatrix in="SourceAlpha" values="0 0 0 0 0 0 0 0 0 0 0 0 0 0 0 0 0 0 127 0" result="C"/><feOffset dx="-2.03892" dy="-5.24295"/><feComposite in2="C" operator="arithmetic" k2="-1" k3="1"/><feColorMatrix values="0 0 0 0 0.847059 0 0 0 0 0.847059 0 0 0 0 0.847059 0 0 0 1 0"/><feBlend in2="B"/></filter><filter id="M" x="21.52" y="164.62" width="12.895" height="30.643" filterUnits="userSpaceOnUse" class="C"><feFlood class="D"/><feBlend in="SourceGraphic" result="B"/><feColorMatrix in="SourceAlpha" values="0 0 0 0 0 0 0 0 0 0 0 0 0 0 0 0 0 0 127 0" result="C"/><feOffset dx="2.03892" dy="-5.24295"/><feComposite in2="C" operator="arithmetic" k2="-1" k3="1"/><feColorMatrix values="0 0 0 0 0.847059 0 0 0 0 0.847059 0 0 0 0 0.847059 0 0 0 1 0"/><feBlend in2="B"/></filter><filter id="N" x="116.16" y="64.792" width="12.391" height="33.267" filterUnits="userSpaceOnUse" class="C"><feFlood class="D"/><feBlend in="SourceGraphic" result="B"/><feColorMatrix in="SourceAlpha" values="0 0 0 0 0 0 0 0 0 0 0 0 0 0 0 0 0 0 127 0" result="C"/><feOffset dx="-2.96513" dy="-5.68316"/><feComposite in2="C" operator="arithmetic" k2="-1" k3="1"/><feColorMatrix values="0 0 0 0 0.843137 0 0 0 0 0.866667 0 0 0 0 0.917647 0 0 0 1 0"/><feBlend in2="B"/></filter><filter id="O" x="2.461" y="64.792" width="12.391" height="33.267" filterUnits="userSpaceOnUse" class="C"><feFlood class="D"/><feBlend in="SourceGraphic" result="B"/><feColorMatrix in="SourceAlpha" values="0 0 0 0 0 0 0 0 0 0 0 0 0 0 0 0 0 0 127 0" result="C"/><feOffset dx="2.71803" dy="-5.68316"/><feComposite in2="C" operator="arithmetic" k2="-1" k3="1"/><feColorMatrix values="0 0 0 0 0.843137 0 0 0 0 0.866667 0 0 0 0 0.917647 0 0 0 1 0"/><feBlend in2="B"/></filter><filter id="P" x="12.391" y="40.017" width="105.645" height="88.95" filterUnits="userSpaceOnUse" class="C"><feFlood class="D"/><feBlend in="SourceGraphic" result="B"/><feColorMatrix in="SourceAlpha" values="0 0 0 0 0 0 0 0 0 0 0 0 0 0 0 0 0 0 127 0" result="C"/><feOffset dx="-0.287864" dy="-14.3932"/><feComposite in2="C" operator="arithmetic" k2="-1" k3="1"/><feColorMatrix values="0 0 0 0 0.133333 0 0 0 0 0.0588235 0 0 0 0 0.278431 0 0 0 1 0"/><feBlend in2="B"/></filter><filter id="Q" x="11.106" y="38.548" width="108.129" height="30.244" filterUnits="userSpaceOnUse" class="C"><feFlood class="D"/><feBlend in="SourceGraphic" result="B"/><feColorMatrix in="SourceAlpha" values="0 0 0 0 0 0 0 0 0 0 0 0 0 0 0 0 0 0 127 0" result="C"/><feOffset dy="2.3302"/><feComposite in2="C" operator="arithmetic" k2="-1" k3="1"/><feColorMatrix values="0 0 0 0 0.521569 0 0 0 0 0.478431 0 0 0 0 0.541176 0 0 0 1 0"/><feBlend in2="B"/></filter><filter id="R" x="39.227" y="36.795" width="51.723" height="24.867" filterUnits="userSpaceOnUse" class="C"><feFlood class="D"/><feBlend in="SourceGraphic" result="B"/><feColorMatrix in="SourceAlpha" values="0 0 0 0 0 0 0 0 0 0 0 0 0 0 0 0 0 0 127 0" result="C"/><feOffset dy="4.07785"/><feComposite in2="C" operator="arithmetic" k2="-1" k3="1"/><feColorMatrix values="0 0 0 0 0.957372 0 0 0 0 0.952884 0 0 0 0 1 0 0 0 1 0"/><feBlend in2="B"/></filter><filter id="S" x="31.18" y="35.879" width="19.54" height="25.563" filterUnits="userSpaceOnUse" class="C"><feFlood result="A" class="D"/><feColorMatrix in="SourceAlpha" values="0 0 0 0 0 0 0 0 0 0 0 0 0 0 0 0 0 0 127 0" result="B"/><feOffset dx="0.58255" dy="1.74765"/><feComposite in2="B" operator="out"/><feColorMatrix values="0 0 0 0 0 0 0 0 0 0 0 0 0 0 0 0 0 0 0.2 0"/><feBlend in2="A"/><feBlend in="SourceGraphic"/></filter><path id="T" d="M27.069 232.858c-1.301-3.905 5.232-10.419 5.779-10.777h21.39c-.013.428.102 5.311 0 8.651-.127 4.174-6.513 5.216-12.693 5.541-6.334.334-13.307.09-14.475-3.415z"/><path id="U" d="M103.775 232.858c1.301-3.905-5.232-10.419-5.779-10.777H76.607c.013.428-.102 5.311 0 8.651.127 4.174 6.513 5.216 12.693 5.541 6.334.334 13.307.09 14.475-3.415z"/><path id="V" d="M39.871 61.143l4.831-22.574 4.281-.451c10.015-1.056 20.113-1.07 30.132-.042l4.803.493 6.344 22.574H39.871z"/></defs></svg>