<svg width="156" height="279" viewBox="0 0 156 279" fill="none" xmlns="http://www.w3.org/2000/svg">
<g filter="url(#filter0_f_142_13512)">
<ellipse cx="77.9301" cy="263.636" rx="64.9887" ry="13.0985" fill="#19578D" fill-opacity="0.8"/>
</g>
<g filter="url(#filter1_i_142_13512)">
<rect x="40.6406" y="152.818" width="76.8789" height="75.2501" rx="14.3334" fill="#ECF2FF"/>
</g>
<rect x="41.3736" y="153.551" width="75.413" height="73.7842" rx="13.6004" stroke="black" stroke-width="1.46591"/>
<g filter="url(#filter2_i_142_13512)">
<path d="M121.552 264.076C122.726 260.552 117.351 253.805 112.464 251.687L92.5932 251.85C92.1046 253.805 91.6653 258.214 91.7788 261.949C91.9207 266.618 98.4515 267.532 105.363 267.896C112.447 268.268 120.245 267.996 121.552 264.076Z" fill="#431217"/>
</g>
<path d="M121.552 264.076C122.726 260.552 117.351 253.805 112.464 251.687L92.5932 251.85C92.1046 253.805 91.6653 258.214 91.7788 261.949C91.9207 266.618 98.4515 267.532 105.363 267.896C112.447 268.268 120.245 267.996 121.552 264.076Z" stroke="black" stroke-width="1.46591" stroke-linejoin="round"/>
<path d="M91.6172 262.275C95.0919 263.632 104.68 265.793 115.235 263.578C120.447 262.275 120.23 259.18 119.469 257.552" stroke="black" stroke-width="1.48871"/>
<path d="M116.111 254.426C114.532 255.215 113.09 256.714 112.424 258.321C112.336 258.297 112.237 258.269 112.13 258.241C111.646 258.113 110.972 257.946 110.176 257.793C108.59 257.488 106.489 257.232 104.417 257.463C102.389 257.688 100.412 258.17 98.8916 259.036C97.3568 259.91 96.2373 261.208 96.083 263.041L96.042 263.534L96.5215 263.654C97.1863 263.82 97.7067 263.926 98.0977 264C98.5116 264.078 98.7246 264.111 98.8506 264.142L99.252 264.243L99.4785 263.897C99.9929 263.11 101.508 261.961 104.081 261.452C106.63 260.948 110.183 261.082 114.696 262.818L115.321 263.058L115.472 262.406C116.142 259.501 116.73 257.821 117.884 256.859L118.237 256.564L118.032 256.152C117.86 255.807 117.717 255.564 117.519 255.316C117.331 255.082 117.101 254.854 116.785 254.538L116.782 254.535L116.486 254.238L116.111 254.426Z" fill="#B5BBC3" stroke="black" stroke-width="1.16296"/>
<g filter="url(#filter3_i_142_13512)">
<path d="M90.5365 245.429C89.6726 244.248 89.6296 242.066 89.7526 241.095C92.2744 241.895 93.7891 240.535 95.3395 239.582C97.6944 240.804 101.087 239.893 102.065 239.398C106.481 241.297 112.638 240.374 115.164 239.674C115.329 240 115.495 241.116 114.841 242.971C114.024 245.291 107.167 246.303 102.576 247.525C106.497 247.506 111.178 246.222 113.028 245.583C112.816 247.031 112.307 250.141 111.974 250.987C111.558 252.045 106.522 252.897 101.328 253.047C96.1331 253.196 94.4192 252.329 93.1494 251.828C92.1929 250.073 91.883 248.875 92.1306 247.219C95.55 248.756 99.4909 249.431 105.963 248.861C100.251 248.955 91.7223 247.051 90.5365 245.429Z" fill="#B5BBC3"/>
</g>
<path d="M95.607 239.066C96.6396 239.602 97.9445 239.687 99.1558 239.555C100.366 239.424 101.388 239.089 101.802 238.879L102.045 238.757L102.295 238.864C104.392 239.766 106.938 240.009 109.304 239.929C111.663 239.85 113.789 239.452 115.009 239.114L115.468 238.987L115.682 239.412C115.828 239.699 115.911 240.172 115.89 240.77C115.868 241.387 115.733 242.189 115.39 243.165C115.134 243.891 114.484 244.441 113.719 244.878L113.604 245.667C113.497 246.396 113.315 247.543 113.118 248.615C112.926 249.661 112.706 250.713 112.515 251.2C112.399 251.495 112.158 251.706 111.932 251.857C111.694 252.015 111.399 252.154 111.071 252.278C110.413 252.526 109.544 252.745 108.549 252.929C106.553 253.3 103.964 253.552 101.344 253.628C98.7135 253.703 96.9386 253.523 95.6465 253.25C94.3516 252.977 93.5542 252.612 92.9356 252.368L92.7396 252.292L92.639 252.106C91.6428 250.279 91.2842 248.952 91.556 247.133L91.5976 246.849C91.3871 246.75 91.1912 246.652 91.0144 246.55C90.6322 246.328 90.2869 246.072 90.0675 245.772C89.5494 245.064 89.3059 244.107 89.198 243.257C89.0885 242.395 89.1081 241.557 89.1757 241.023L89.2638 240.331L89.9283 240.541C92.1391 241.241 93.3865 240.1 95.0353 239.086L95.3152 238.914L95.607 239.066Z" stroke="black" stroke-width="1.16296"/>
<g filter="url(#filter4_i_142_13512)">
<path d="M37.3664 264.076C36.1921 260.552 41.5672 253.805 46.4535 251.687L66.3248 251.85C66.8134 253.805 67.2527 258.214 67.1391 261.949C66.9972 266.618 60.4664 267.532 53.5546 267.896C46.4706 268.268 38.6726 267.996 37.3664 264.076Z" fill="#431217"/>
</g>
<path d="M37.3664 264.076C36.1921 260.552 41.5672 253.805 46.4535 251.687L66.3248 251.85C66.8134 253.805 67.2527 258.214 67.1391 261.949C66.9972 266.618 60.4664 267.532 53.5546 267.896C46.4706 268.268 38.6726 267.996 37.3664 264.076Z" stroke="black" stroke-width="1.46591" stroke-linejoin="round"/>
<path d="M67.3008 262.275C63.826 263.632 54.2379 265.793 43.6833 263.578C38.4712 262.275 38.6884 259.18 39.4485 257.552" stroke="black" stroke-width="1.48871"/>
<path d="M42.8066 254.426C44.386 255.215 45.8284 256.714 46.4941 258.321C46.5821 258.297 46.6807 258.269 46.7881 258.241C47.2721 258.113 47.946 257.946 48.7422 257.793C50.3284 257.488 52.4287 257.232 54.501 257.463C56.5292 257.688 58.5056 258.17 60.0264 259.036C61.5612 259.91 62.6806 261.208 62.835 263.041L62.876 263.534L62.3965 263.654C61.7317 263.82 61.2112 263.926 60.8203 264C60.4064 264.078 60.1933 264.111 60.0674 264.142L59.666 264.243L59.4395 263.897C58.9251 263.11 57.4104 261.961 54.8369 261.452C52.288 260.948 48.7347 261.082 44.2217 262.818L43.5967 263.058L43.4463 262.406C42.7759 259.501 42.1881 257.821 41.0342 256.859L40.6807 256.564L40.8857 256.152C41.0581 255.807 41.2014 255.564 41.3994 255.316C41.5866 255.082 41.8168 254.854 42.1328 254.538L42.1357 254.535L42.4316 254.238L42.8066 254.426Z" fill="#B5BBC3" stroke="black" stroke-width="1.16296"/>
<g filter="url(#filter5_i_142_13512)">
<path d="M68.3776 245.429C69.2415 244.247 69.2845 242.066 69.1615 241.095C66.6396 241.894 65.1249 240.535 63.5746 239.581C61.2197 240.804 57.827 239.892 56.8492 239.398C52.4326 241.297 46.2763 240.373 43.7502 239.674C43.5853 240 43.4189 241.116 44.0727 242.971C44.8899 245.29 51.7466 246.303 56.3377 247.524C52.4169 247.506 47.736 246.222 45.8856 245.582C46.0985 247.031 46.6075 250.14 46.9402 250.987C47.3562 252.045 52.3916 252.897 57.5863 253.046C62.781 253.196 64.4948 252.328 65.7647 251.827C66.7212 250.073 67.031 248.875 66.7835 247.218C63.3641 248.756 59.4231 249.43 52.9514 248.86C58.6632 248.955 67.1917 247.05 68.3776 245.429Z" fill="#B5BBC3"/>
</g>
<path d="M63.3071 239.066C62.2744 239.602 60.9696 239.686 59.7583 239.555C58.5481 239.424 57.5262 239.088 57.1121 238.879L56.8689 238.756L56.6193 238.864C54.5222 239.766 51.9757 240.008 49.6102 239.929C47.2507 239.849 45.1251 239.451 43.9048 239.114L43.4464 238.987L43.2316 239.411C43.0861 239.699 43.0026 240.172 43.0237 240.769C43.0456 241.387 43.1806 242.188 43.5245 243.164C43.7804 243.89 44.4304 244.44 45.1951 244.878L45.3099 245.666C45.4171 246.396 45.5993 247.542 45.7963 248.615C45.9883 249.661 46.2076 250.712 46.399 251.199C46.5151 251.495 46.7558 251.706 46.9823 251.857C47.2201 252.015 47.5154 252.154 47.8432 252.277C48.5009 252.526 49.3696 252.744 50.3651 252.929C52.3615 253.3 54.9503 253.552 57.5699 253.627C60.2006 253.703 61.9755 253.522 63.2676 253.25C64.5625 252.977 65.3598 252.612 65.9784 252.368L66.1744 252.291L66.275 252.106C67.2713 250.278 67.6298 248.951 67.3581 247.133L67.3164 246.849C67.527 246.75 67.7229 246.651 67.8997 246.549C68.2819 246.328 68.6272 246.072 68.8465 245.772C69.3647 245.063 69.6081 244.106 69.7161 243.256C69.8255 242.394 69.806 241.557 69.7383 241.022L69.6503 240.33L68.9857 240.54C66.7749 241.241 65.5276 240.1 63.8788 239.086L63.5988 238.914L63.3071 239.066Z" stroke="black" stroke-width="1.16296"/>
<path d="M79.0801 221.95C79.8001 221.95 80.4476 222.268 80.999 222.755C81.5462 223.238 82.0339 223.916 82.4658 224.726C83.3301 226.347 84.0402 228.629 84.5361 231.356L84.6455 231.955L84.0801 232.18C82.3108 232.888 80.1271 233.05 78.2139 232.967C76.3033 232.883 74.5446 232.549 73.5996 232.183L73.1553 232.011L73.126 231.536C72.9516 228.746 73.8231 226.38 75.0127 224.706C75.6065 223.87 76.288 223.195 76.9736 222.722C77.6453 222.26 78.383 221.95 79.0801 221.95Z" fill="#0F4B3F" stroke="black" stroke-width="1.48871"/>
<path d="M46.7309 179.634C50.9091 167.363 57.0531 156.226 59.9074 152.045C64.2456 152.045 71.3879 152.065 79.0233 152.065C86.6587 152.063 94.1432 152.201 98.2228 152.2C101.077 156.382 107.076 167.777 111.14 179.631C115.494 193.535 115.234 197.692 113.638 207.617C114.218 210.236 118.911 217.28 119.637 225.137C120.362 232.995 118.985 238.005 115.239 240.448C113.51 241.576 108.561 242.565 103.837 241.588C98.2996 243.543 91.8843 243.405 90.4814 243.054C87.8753 242.403 85.3435 241.338 84.6178 238.168C83.8471 234.8 84.2666 230.577 82.6633 227.581C81.0599 224.584 79.9685 224.649 79.2428 224.649C78.5897 224.648 77.1254 224.812 75.6595 227.418C74.1936 230.024 73.9871 234.149 73.2163 237.516C73.0346 238.31 73.0821 240.448 70.773 241.751C68.464 243.054 65.7238 243.706 61.6518 243.543C57.5798 243.38 55.6254 240.774 52.6936 241.588C49.7617 242.403 45.201 241.914 42.7579 240.285C40.3149 238.656 37.4625 235.265 37.8714 230.838C38.5971 222.981 43.8282 210.236 44.4088 207.617C42.8123 197.692 42.522 194.659 46.7309 179.634Z" fill="#3B1113"/>
<path d="M61.1597 197.774C59.0966 200.217 54.9051 205.169 54.6445 205.429C55.4264 200.999 61.1597 182.844 63.9286 174.32C63.9286 175.243 63.7658 178.457 63.1142 183.929C74.0271 186.21 95.8529 185.232 101.228 181.975C101.445 182.409 102.107 184.874 104.974 196.471C85.4287 201.52 64.5802 199.403 61.1597 197.774Z" fill="#1C0708"/>
<path d="M53.6855 186.302C59.9209 187.901 79.5603 190.185 107.637 186.286L108.413 186.178L108.48 186.959C108.741 189.96 108.916 192.343 108.971 193.163L109.012 193.787L108.405 193.935C103.688 195.094 93.569 196.277 82.7744 196.522C71.9932 196.767 60.395 196.08 52.7676 193.427L52.2676 193.253V192.724C52.2676 189.565 52.6035 188.039 52.7637 186.918L52.8809 186.095L53.6855 186.302Z" fill="#B6BCC2" stroke="black" stroke-width="1.48871"/>
<mask id="mask0_142_13512" style="mask-type:alpha" maskUnits="userSpaceOnUse" x="53" y="187" width="56" height="9">
<path d="M107.062 187.864C107.239 189.934 107.368 191.64 107.438 192.63C102.632 193.707 93.0299 194.801 82.7402 195.034C72.2246 195.272 61.1286 194.609 53.7627 192.19C53.7891 190.142 53.9606 188.896 54.1113 187.934C61.2371 189.55 80.3288 191.489 107.062 187.864Z" fill="#B6BCC2" stroke="black" stroke-width="1.48871"/>
</mask>
<g mask="url(#mask0_142_13512)">
<path d="M62.2097 195.605C61.7139 192.755 62.4227 188.613 62.8109 187.349C63.5162 187.323 65.9055 187.349 68.5116 188.001C67.3171 190.978 67.8688 195.07 68.1858 196.308C67.5891 196.329 65.4842 196.007 62.2097 195.605Z" stroke="black" stroke-width="1.48871"/>
<path d="M96.0989 195.488C96.5947 192.637 95.8859 188.495 95.4977 187.232C94.7924 187.206 92.4031 187.231 89.7969 187.883C90.9915 190.861 90.4398 194.952 90.1227 196.19C90.7195 196.212 92.8244 195.889 96.0989 195.488Z" stroke="black" stroke-width="1.48871"/>
</g>
<path d="M84.1582 186.86L84.2422 186.862H84.2539V186.863C85.373 186.919 86.2627 187.844 86.2627 188.977V195.83L86.2607 195.914L86.2598 195.926C86.2115 196.879 85.5336 197.663 84.6338 197.876V197.935H84.1582L83.6562 197.948V197.935H73.5586V197.875C72.6249 197.655 71.9297 196.819 71.9297 195.818V188.977C71.9297 187.807 72.8775 186.86 74.0469 186.86H84.1582ZM75.3496 189.465C74.9 189.465 74.5353 189.83 74.5352 190.28V195.329H83.6562V190.28C83.6562 189.83 83.2915 189.465 82.8418 189.465H75.3496Z" fill="#A69FA5" stroke="black" stroke-width="0.977274"/>
<path d="M74.582 191.259C75.2343 191.279 76.0118 191.554 76.5869 191.996C76.8989 192.236 76.8998 192.702 76.5869 192.942C76.0121 193.383 75.2263 193.657 74.5576 193.628C74.2205 193.613 73.8817 193.519 73.623 193.294C73.3556 193.061 73.2129 192.722 73.2129 192.306C73.213 191.933 73.3822 191.643 73.6631 191.466C73.9247 191.301 74.2569 191.249 74.582 191.259Z" fill="#D9D9D9" stroke="black" stroke-width="0.651516"/>
<path d="M75.535 167.15C70.3297 166.678 66.9427 164.414 65.9115 163.153L67.4815 157.846C71.0737 158.336 75.3546 158.772 80.0816 158.971C84.0586 159.138 87.8134 158.784 91.134 158.182L92.6361 162.886C91.6642 163.3 90.7458 163.706 89.9157 164.1C84.6413 166.604 80.4445 167.596 75.535 167.15Z" fill="#2D090A"/>
<path d="M68.123 154.856C68.8116 155.006 70.1548 155.104 71.9326 155.156C73.6925 155.207 75.8299 155.213 78.0752 155.189C82.5652 155.142 87.4696 154.979 90.6143 154.844L91.2852 154.815L91.2188 155.482C91.1766 155.904 91.2674 157.41 92.1494 159.427L92.3564 159.898L91.9131 160.16C88.1906 162.36 82.7659 163.093 77.875 162.928C75.4184 162.846 73.0677 162.535 71.0947 162.056C69.1409 161.582 67.4899 160.926 66.4912 160.109L66.2168 159.885L66.291 159.538C66.4562 158.767 66.9176 156.833 67.4482 155.241L67.6133 154.746L68.123 154.856Z" fill="#1B0807" stroke="black" stroke-width="1.16296"/>
<mask id="mask1_142_13512" style="mask-type:alpha" maskUnits="userSpaceOnUse" x="66" y="155" width="26" height="8">
<path d="M90.0596 156.029C90.1086 156.802 90.3221 157.989 90.8818 159.404C87.4474 161.252 82.5148 161.92 77.9141 161.765C75.5251 161.685 73.2543 161.384 71.3691 160.927C69.6722 160.515 68.3407 159.988 67.5098 159.42C67.6892 158.633 68.0185 157.298 68.3984 156.082C69.2418 156.202 70.466 156.277 71.8984 156.319C73.6803 156.371 75.8352 156.376 78.0879 156.352C82.3152 156.308 86.9043 156.159 90.0596 156.029Z" fill="#1B0807" stroke="black" stroke-width="1.16296"/>
</mask>
<g mask="url(#mask1_142_13512)">
<rect x="74.5865" y="156.147" width="8.00388" height="7.35236" fill="#626669" stroke="black" stroke-width="1.16296"/>
<path d="M78.75 156.728V163.08" stroke="black" stroke-width="1.16296"/>
</g>
<path d="M88.2023 235.235C87.6811 232.89 86.2478 230.458 85.5962 229.535C85.0202 228.623 83.0759 226.766 82.1758 225.951C82.2844 226.549 82.7621 228.753 83.8046 232.792C84.4561 238.004 83.8046 240.285 89.994 242.891C94.9455 244.976 101.07 242.674 103.513 241.262C105.685 241.696 110.68 242.304 113.286 241.262C116.543 239.959 119.149 236.864 119.549 231.978C119.949 227.092 118.009 222.857 113.611 223.182C105.956 236.213 89.994 234.747 88.2023 235.235Z" fill="#1C0608"/>
<path d="M56.9286 233.77C45.4619 233.9 41.618 227.961 41.1294 224.974C40.5321 225.192 39.1422 226.31 38.3604 229.046C37.3831 232.467 37.7089 234.91 41.7809 239.308C45.8529 243.706 50.0877 241.914 54.8112 241.425C60.6749 244.031 64.4211 243.706 68.781 242.493C73.1409 241.28 73.5423 236.539 74.3567 231.49C75.1711 226.44 77.4514 225.3 77.94 224.812C78.4287 224.323 77.7772 223.834 75.2428 223.791C68.7993 223.585 71.262 233.607 56.9286 233.77Z" fill="#1C0608"/>
<path d="M80.2161 224.094C77.8145 222.982 73.5258 223.608 71.582 224.011C73.2043 224.03 76.3001 224.051 79.566 225.213C83.0636 226.457 85.3364 229.576 87.1925 232.423C86.5781 229.495 84.6136 226.131 80.2161 224.094Z" fill="black"/>
<path d="M76.961 223.998C75.7123 218.731 73.6709 206.114 75.4951 197.774" stroke="black" stroke-width="1.16296"/>
<path d="M53.8353 241.1C52.7495 239.199 51.0403 235.082 51.2293 233.444C51.718 229.21 60.8391 202.009 67.1914 195.982" stroke="black" stroke-width="0.977274"/>
<path d="M105.466 241.1C106.552 239.199 108.072 232.304 107.258 230.675C106.084 228.329 98.4623 202.009 92.11 195.982" stroke="black" stroke-width="0.977274"/>
<path d="M79.4078 214.388C79.1472 211.652 79.082 201.955 79.082 197.449H79.8964C79.8964 201.847 79.7987 211.391 79.4078 214.388Z" fill="black"/>
<rect x="83.7172" y="167.803" width="14.9849" height="6.84092" rx="1.95455" fill="#B6BCC2" stroke="black" stroke-width="0.651516"/>
<path d="M77.4139 162.592C76.991 163.383 75.641 165.074 75.3323 167.152C74.8888 170.138 74.173 181.026 74.0293 182.463C73.8856 183.9 74.2521 185.155 75.5456 187.023" stroke="black" stroke-width="1.02614"/>
<circle cx="78.9128" cy="167.641" r="2.11743" fill="#B6BCC2" stroke="black" stroke-width="0.651516"/>
<circle cx="77.9401" cy="176.762" r="2.11743" fill="#B6BCC2" stroke="black" stroke-width="0.651516"/>
<path d="M38.1914 231.165C38.1914 236.866 41.4406 240.842 47.1498 242.015C49.5283 242.504 53.2849 241.798 53.8278 241.364C55.2739 242.015 59.8454 243.703 64.5778 243.381C70.6043 242.97 73.0744 240.668 73.5362 236.051C74.1877 229.536 76.1422 224.65 79.074 224.65" stroke="black" stroke-width="1.48871"/>
<path d="M54.1538 240.448C51.2871 240.448 48.073 239.145 46.8242 238.494C47.53 239.634 49.9841 241.914 54.1538 241.914C58.3235 241.914 63.8179 238.765 66.0439 237.191C63.275 238.277 57.0204 240.448 54.1538 240.448Z" fill="black"/>
<path d="M119.637 230.676C119.637 236.377 116.388 240.842 110.678 242.015C108.3 242.504 104.543 241.798 104 241.364C102.554 242.015 97.9827 243.703 93.2503 243.381C87.2238 242.97 84.7537 240.668 84.292 236.051C83.6405 229.536 82.0117 224.65 79.0798 224.65" stroke="black" stroke-width="1.48871"/>
<path d="M103.674 240.448C106.541 240.448 109.755 239.145 111.004 238.494C110.298 239.634 107.844 241.914 103.674 241.914C99.5046 241.914 94.0102 238.765 91.7842 237.191C94.5531 238.277 100.808 240.448 103.674 240.448Z" fill="black"/>
<g filter="url(#filter6_i_142_13512)">
<path d="M41.7756 221.659C38.3118 221.96 35.6564 220.699 32.4551 216.788C29.6942 212.832 28.9618 205.472 29.9964 197.448C33.0519 199.348 40.0751 203.247 43.7244 203.638C43.7815 203.931 43.8388 204.214 43.8945 204.491C44.3966 206.987 42.1674 217.785 41.7756 221.659Z" fill="#F5CC9C"/>
</g>
<path d="M39.4533 205.421C40.1804 208.991 41.9804 211.986 43.082 212.537C42.9192 213.243 42.8214 214.589 42.4305 216.935C40.5074 214.325 38.816 209.282 38.9195 205.422C38.9294 205.052 39.3795 205.058 39.4533 205.421Z" fill="black"/>
<path d="M44.3783 205.429C44.0526 207.549 42.7556 213.903 41.7783 221.558C38.3081 221.86 35.2619 220.642 32.4663 216.753C29.682 212.522 28.8534 205.46 29.949 197.447" stroke="black" stroke-width="1.46591"/>
<g filter="url(#filter7_i_142_13512)">
<path d="M27.2474 197.955L29.0697 195.168C33.7932 199.892 42.5887 202.172 42.5887 202.172C42.4801 202.661 41.872 204.257 40.3084 206.733C34.6193 205.41 29.9333 202.546 27.5598 200.587C26.7711 199.936 26.6877 198.811 27.2474 197.955Z" fill="#431519"/>
</g>
<path d="M29.5957 194.642C31.8537 196.9 35.1264 198.606 37.8867 199.754C39.2578 200.325 40.4842 200.751 41.3672 201.033C41.8082 201.175 42.1631 201.279 42.4062 201.349C42.5278 201.384 42.622 201.41 42.6846 201.427C42.7157 201.435 42.7396 201.441 42.7549 201.446C42.7624 201.448 42.768 201.45 42.7715 201.45L42.7754 201.451L43.4717 201.632L43.3154 202.333C43.1793 202.946 42.5178 204.628 40.9375 207.13L40.6553 207.577L40.1396 207.457C34.3218 206.104 29.5338 203.181 27.0859 201.16C25.9592 200.23 25.8913 198.669 26.624 197.548L28.4463 194.761L28.9482 193.994L29.5957 194.642Z" stroke="black" stroke-width="1.48871"/>
<path d="M50.0782 157.216C52.4236 154.871 56.159 153.524 57.7335 153.144C59.3623 153.633 63.6297 154.838 67.6691 155.75C66.8547 161.451 63.1085 176.599 60.9911 184.417C59.2972 190.672 54.4216 206.026 52.1956 212.921C50.5125 217.862 46.7229 228.818 45.029 233.118C36.5592 231.424 32.1615 227.091 31.0214 225.137L35.2562 217.156C37.1022 213.084 40.957 204.581 41.6085 203.148C33.6274 200.705 25.8092 193.864 24.669 192.561C23.5289 191.258 22.063 190.281 27.1122 186.046C32.1615 181.811 36.2334 175.784 39.6539 171.387C43.0744 166.989 47.1463 160.148 50.0782 157.216Z" fill="#1F6F5F"/>
<path d="M56.1074 163.731L53.5013 162.917L49.918 172.329C50.5695 172.546 52.1005 173.085 53.0127 173.504C53.4036 172.359 55.5644 165.546 56.1074 163.731Z" fill="#101010"/>
<path d="M48.1254 186.698L45.6822 185.884L42.2617 198.914C42.9132 199.131 43.467 199.961 44.3791 200.38C44.7049 195.982 46.0079 190.77 48.1254 186.698Z" fill="#101010"/>
<path d="M67.6699 156.239C67.6699 156.239 61.6434 154.285 59.6888 154.122C58.06 158.845 56.1055 163.732 56.1055 163.732C58.2229 165.523 61.8062 166.338 65.3896 166.175C65.7805 165.03 67.127 158.054 67.6699 156.239Z" fill="#101010"/>
<path d="M62.7841 175.948C62.7841 175.948 56.9205 176.436 52.8485 173.342C51.3826 176.762 48.125 186.698 48.125 186.698C50.2424 188.164 54.9659 189.792 59.2008 189.955C59.5917 188.81 62.2412 177.762 62.7841 175.948Z" fill="#101010"/>
<path d="M56.4328 198.75C56.4328 198.75 49.2661 198.913 45.0313 195.819C43.4025 199.076 39.6562 207.22 39.6562 207.22C41.6108 209.826 48.2888 212.269 52.0351 211.781C52.426 210.636 55.8899 200.565 56.4328 198.75Z" fill="#101010"/>
<path d="M49.0979 222.205C49.0979 222.205 40.1396 223.02 35.2532 217.156C33.6244 220.414 30.8555 225.3 30.8555 225.3C32.81 227.906 41.6055 233.118 45.3517 232.63C45.7426 231.485 48.555 224.02 49.0979 222.205Z" fill="#101010"/>
<path d="M45.8408 181.322C42.8438 180.28 38.837 177.141 37.3711 175.784C38.3484 174.155 42.7461 166.989 44.7007 164.383C46.7855 165.946 50.0214 167.423 51.3787 167.966C50.7815 169.16 47.5347 176.24 45.8408 181.322Z" fill="#101010"/>
<path d="M44.0534 191.421C37.6685 189.336 32.5975 184.58 30.8602 182.463C29.6114 183.549 26.6578 186.209 24.8336 188.163C22.5533 190.607 23.5306 190.932 26.9238 194.774C30.4202 198.498 38.1715 202.017 41.6102 203.311L43.5647 199.402C43.5647 198.316 43.6624 195.2 44.0534 191.421Z" fill="#101010"/>
<path d="M53.173 163.405C44.8661 178.553 40.957 186.045 30.207 197.935L41.9343 203.473L43.5631 199.401C43.5088 197.773 43.5957 193.479 44.3775 189.337C45.3548 184.158 51.033 170.066 53.173 163.405Z" fill="black" fill-opacity="0.36"/>
<path d="M58.217 153.307C55.9367 153.47 51.6693 155.099 48.9329 158.357C45.5125 162.429 41.4405 169.432 36.0655 176.273C32.142 181.267 27.2987 185.701 24.327 188.848C23.5223 189.7 23.3683 190.967 24.0818 191.897C26.4263 194.952 31.9779 199.85 41.9291 203.311" stroke="black" stroke-width="1.48871"/>
<path d="M67.6687 155.588C66.8686 159.917 64.4985 171.429 61.4193 182.848C57.5702 197.122 50.7291 217.293 48.2859 224.391C46.4621 229.69 45.4551 231.85 45.0618 232.605C44.9477 232.824 44.7145 232.936 44.4717 232.892C42.8476 232.599 36.5176 231.145 31.4808 225.632C31.3004 225.434 31.2618 225.148 31.3836 224.91C34.5446 218.727 40.6924 206.106 43.5624 199.728" stroke="black" stroke-width="1.48871"/>
<path d="M42.9072 195.138C44.7649 180.692 51.7611 165.915 54.2258 161.504C52.7264 165.777 48.5448 176.346 45.3551 188.72C44.3768 192.515 43.9155 196.319 44.2154 199.89L43.2381 201.845C42.9415 199.708 42.8086 197.609 42.9072 195.138Z" fill="black" stroke="black" stroke-width="0.325758" stroke-miterlimit="16"/>
<g filter="url(#filter8_i_142_13512)">
<path d="M116.697 221.01C120.161 221.312 122.816 220.05 126.018 216.14C128.778 212.184 129.511 204.824 128.476 196.8C125.421 198.7 118.398 202.598 114.748 202.989C114.691 203.283 114.634 203.566 114.578 203.843C114.076 206.339 116.305 217.137 116.697 221.01Z" fill="#F5CC9C"/>
</g>
<path d="M119.015 204.772C118.288 208.342 116.488 211.337 115.387 211.888C115.55 212.594 115.647 213.94 116.038 216.286C117.961 213.676 119.653 208.633 119.549 204.773C119.539 204.403 119.089 204.409 119.015 204.772Z" fill="black"/>
<path d="M114.094 204.78C114.42 206.9 115.717 213.255 116.694 220.91C120.165 221.211 123.211 219.994 126.006 216.104C128.791 211.874 129.619 204.811 128.524 196.799" stroke="black" stroke-width="1.46591"/>
<g filter="url(#filter9_i_142_13512)">
<path d="M131.221 197.304L129.399 194.517C124.676 199.241 115.88 201.521 115.88 201.521C115.989 202.01 116.597 203.606 118.16 206.082C123.849 204.759 128.535 201.895 130.909 199.936C131.698 199.285 131.781 198.16 131.221 197.304Z" fill="#431519"/>
</g>
<path d="M128.873 193.991C126.615 196.249 123.342 197.955 120.582 199.103C119.211 199.674 117.985 200.1 117.102 200.383C116.661 200.524 116.306 200.628 116.062 200.698C115.941 200.733 115.847 200.759 115.784 200.776C115.753 200.785 115.729 200.791 115.714 200.795C115.706 200.797 115.701 200.799 115.697 200.8L115.693 200.801L114.997 200.981L115.153 201.682C115.289 202.295 115.951 203.977 117.531 206.479L117.813 206.927L118.329 206.806C124.147 205.453 128.935 202.53 131.383 200.51C132.51 199.579 132.577 198.018 131.845 196.897L130.022 194.11L129.521 193.344L128.873 193.991Z" stroke="black" stroke-width="1.48871"/>
<path d="M108.398 156.568C106.053 154.222 102.318 152.876 100.743 152.496C99.1143 152.984 94.8468 154.19 90.8074 155.102C91.6218 160.803 95.368 175.95 97.4855 183.769C99.1794 190.023 104.055 205.377 106.281 212.272C107.964 217.213 111.754 228.169 113.448 232.469C121.917 230.775 126.315 226.443 127.455 224.488L123.22 216.507C121.374 212.435 117.52 203.933 116.868 202.5C124.849 200.057 132.667 193.216 133.808 191.913C134.948 190.61 136.414 189.632 131.364 185.397C126.315 181.163 122.243 175.136 118.823 170.738C115.402 166.341 111.33 159.5 108.398 156.568Z" fill="#1F6F5F"/>
<path d="M102.369 163.083L104.975 162.268L108.559 171.681C107.907 171.898 106.376 172.437 105.464 172.855C105.073 171.71 102.912 164.897 102.369 163.083Z" fill="#101010"/>
<path d="M110.343 186.049L112.787 185.234L116.207 198.264C115.556 198.482 115.002 199.312 114.09 199.73C113.764 195.333 112.461 190.121 110.343 186.049Z" fill="#101010"/>
<path d="M90.795 155.59C90.795 155.59 96.8215 153.635 98.776 153.472C100.405 158.196 102.359 163.082 102.359 163.082C100.242 164.874 96.6586 165.688 93.0753 165.525C92.6844 164.38 91.3379 157.405 90.795 155.59Z" fill="#101010"/>
<path d="M95.6885 175.298C95.6885 175.298 101.552 175.787 105.624 172.692C107.09 176.113 110.348 186.048 110.348 186.048C108.23 187.514 103.507 189.143 99.2719 189.306C98.881 188.161 96.2315 177.113 95.6885 175.298Z" fill="#101010"/>
<path d="M102.044 198.102C102.044 198.102 109.21 198.265 113.445 195.17C115.074 198.428 118.82 206.572 118.82 206.572C116.866 209.178 110.188 211.621 106.442 211.132C106.051 209.987 102.587 199.917 102.044 198.102Z" fill="#101010"/>
<path d="M109.363 221.557C109.363 221.557 118.321 222.371 123.208 216.508C124.837 219.765 127.605 224.652 127.605 224.652C125.651 227.258 116.855 232.47 113.109 231.981C112.718 230.836 109.906 223.372 109.363 221.557Z" fill="#101010"/>
<path d="M112.624 180.674C115.621 179.631 119.628 176.493 121.094 175.136C120.116 173.507 115.719 166.34 113.764 163.734C111.679 165.298 108.443 166.775 107.086 167.317C107.683 168.512 110.93 175.592 112.624 180.674Z" fill="#101010"/>
<path d="M114.415 190.773C120.8 188.688 125.871 183.932 127.609 181.814C128.857 182.9 131.811 185.56 133.635 187.515C135.915 189.958 134.938 190.284 131.545 194.125C128.049 197.85 120.297 201.369 116.859 202.663L114.904 198.754C114.904 197.668 114.806 194.551 114.415 190.773Z" fill="#101010"/>
<path d="M105.296 162.757C113.603 177.904 117.512 185.397 128.262 197.287L116.534 202.825L114.906 198.753C114.96 197.124 114.873 192.831 114.091 188.688C113.114 183.51 107.436 169.418 105.296 162.757Z" fill="black" fill-opacity="0.36"/>
<path d="M100.248 152.658C102.528 152.821 106.796 154.45 109.532 157.708C112.952 161.78 117.024 168.783 122.399 175.624C126.323 180.618 131.166 185.052 134.138 188.199C134.943 189.051 135.097 190.318 134.383 191.248C132.039 194.303 126.487 199.201 116.536 202.662" stroke="black" stroke-width="1.48871"/>
<path d="M90.8001 154.938C91.6002 159.267 93.9702 170.78 97.0495 182.199C100.899 196.472 107.74 216.644 110.183 223.742C112.007 229.04 113.014 231.201 113.407 231.955C113.521 232.174 113.754 232.286 113.997 232.242C115.621 231.95 121.951 230.496 126.988 224.982C127.168 224.785 127.207 224.498 127.085 224.26C123.924 218.078 117.776 205.456 114.906 199.078" stroke="black" stroke-width="1.48871"/>
<path d="M115.558 194.491C113.7 180.044 106.704 165.267 104.239 160.856C105.738 165.129 109.92 175.699 113.11 188.072C114.088 191.867 114.549 195.671 114.249 199.242L115.227 201.197C115.523 199.06 115.656 196.961 115.558 194.491Z" fill="black" stroke="black" stroke-width="0.325758" stroke-miterlimit="16"/>
<g filter="url(#filter10_d_142_13512)">
<g filter="url(#filter11_i_142_13512)">
<path d="M108.067 215.039C103.376 207.482 98.2401 199.434 96.3398 196.176C96.8828 195.905 98.4169 195.193 100.21 194.516C102.94 199.535 123.215 231.358 125.169 234.378C127.124 237.398 123.866 239.339 121.912 236.407C119.471 232.746 114.234 224.975 108.067 215.039Z" fill="#14171D"/>
</g>
<path d="M100.721 194.238C103.437 199.232 123.696 231.032 125.657 234.062C126.2 234.9 126.417 235.72 126.338 236.444C126.258 237.174 125.879 237.774 125.31 238.121C124.139 238.834 122.513 238.358 121.428 236.73C118.987 233.07 113.746 225.29 107.573 215.345C102.892 207.803 97.7434 199.736 95.8379 196.469L95.5254 195.933L96.0801 195.656C96.6401 195.376 98.1923 194.656 100.005 193.972L100.479 193.794L100.721 194.238Z" stroke="black" stroke-width="1.16296"/>
<g filter="url(#filter12_ii_142_13512)">
<ellipse cx="96.2453" cy="192.137" rx="6.51516" ry="5.30568" transform="rotate(-28.7805 96.2453 192.137)" fill="#14171D"/>
</g>
<path d="M93.4115 186.978C96.7438 185.147 100.849 185.778 102.465 188.721C104.081 191.663 102.412 195.466 99.0799 197.297C95.7475 199.127 91.642 198.496 90.0256 195.554C88.4093 192.611 90.0791 188.808 93.4115 186.978Z" stroke="black" stroke-width="1.16296"/>
<path d="M84.8242 174.294C85.504 173.827 86.1982 173.669 86.873 173.765C87.5309 173.859 88.1152 174.187 88.6113 174.589C89.5928 175.385 90.371 176.59 90.8633 177.404C91.7794 178.918 92.332 179.853 93.9609 182.622C95.5891 185.39 97.3856 188.411 98.0352 189.507C98.4396 190.19 98.5327 190.974 98.4102 191.676C98.2885 192.372 97.9444 193.038 97.4062 193.469C96.901 193.873 96.1532 194.177 95.3398 194.159C94.5037 194.141 93.6273 193.782 92.915 192.909C92.2821 192.134 90.8581 189.934 89.4336 187.666C87.9977 185.381 86.5298 182.975 85.7949 181.75C85.4301 181.142 85.0362 180.569 84.6387 179.94C84.2558 179.333 83.8881 178.7 83.6523 178.072C83.416 177.441 83.293 176.764 83.4619 176.088C83.634 175.4 84.086 174.802 84.8242 174.294Z" fill="#15181D" stroke="black" stroke-width="1.16296"/>
<mask id="mask2_142_13512" style="mask-type:alpha" maskUnits="userSpaceOnUse" x="83" y="174" width="15" height="20">
<path d="M86.7129 174.916C87.0921 174.97 87.4841 175.169 87.8828 175.492C88.6907 176.147 89.3792 177.191 89.8721 178.006C90.7842 179.514 91.3344 180.444 92.9629 183.212C94.5923 185.982 96.3895 189.006 97.0381 190.1C97.2824 190.512 97.3502 191.008 97.2686 191.476C97.1859 191.949 96.9605 192.341 96.6846 192.562C96.3754 192.809 95.8887 193.008 95.3691 192.996C94.8724 192.985 94.3168 192.782 93.8203 192.174C93.2444 191.469 91.8648 189.345 90.4219 187.048C88.9903 184.77 87.5269 182.37 86.7959 181.152C86.4279 180.538 85.9867 179.89 85.626 179.319C85.2504 178.724 84.9369 178.175 84.7451 177.663C84.5541 177.154 84.5034 176.732 84.5938 176.37C84.6812 176.021 84.9217 175.64 85.4863 175.252C85.9465 174.936 86.3508 174.865 86.7129 174.916Z" fill="#15181D" stroke="black" stroke-width="1.16296"/>
</mask>
<g mask="url(#mask2_142_13512)">
<path d="M84.4779 174.789C83.0445 175.701 83.2291 177.34 83.5006 178.046C83.8807 178.806 84.706 180.392 84.9666 180.652C85.2923 180.978 86.9474 181.122 88.387 179.675C89.6648 178.391 89.9362 177.142 90.1534 176.762C89.6648 176.165 89.2014 175.57 88.5499 174.789C87.7355 173.811 86.2695 173.648 84.4779 174.789Z" fill="#2A2D32"/>
</g>
<path d="M85.8023 181.004C87.963 180.257 89.7867 178.252 90.2676 176.268" stroke="black" stroke-width="1.16296"/>
<path d="M87.1324 183.821C89.3543 183.283 91.3606 181.46 92.028 179.532" stroke="black" stroke-width="1.16296"/>
<path d="M89.0894 187.079C91.3113 186.541 93.3176 184.718 93.985 182.789" stroke="black" stroke-width="1.16296"/>
<path d="M90.7144 189.685C92.9363 189.147 94.9426 187.324 95.61 185.395" stroke="black" stroke-width="1.16296"/>
<path d="M92.7605 192.725C94.9824 192.187 96.5773 190.582 97.2446 188.653" stroke="black" stroke-width="1.16296"/>
</g>
<path d="M21.0322 115.903C22.3412 117.703 25.5787 122.313 28.0684 126.375L29.082 128.029L27.2275 127.459C26.4886 127.231 25.8005 127.454 25.0459 128.047C24.2693 128.657 23.553 129.557 22.7988 130.479L21.7568 131.753L21.5068 130.127C21.0004 126.834 22.4289 124.237 23.4893 123.016C22.4843 123.852 21.1514 124.217 19.917 124.332C18.2891 124.484 16.6328 124.228 15.6289 123.863L14.0771 123.3L15.5361 122.527C18.0247 121.21 19.3578 118.264 19.7178 116.208L20.0156 114.505L21.0322 115.903Z" fill="#280A0B" stroke="black" stroke-width="1.46591" stroke-miterlimit="3.99393"/>
<path d="M136.956 115.903C135.647 117.703 132.41 122.313 129.92 126.375L128.906 128.029L130.761 127.459C131.5 127.231 132.188 127.454 132.942 128.047C133.719 128.657 134.435 129.557 135.189 130.479L136.231 131.753L136.481 130.127C136.988 126.834 135.559 124.237 134.499 123.016C135.504 123.852 136.837 124.217 138.071 124.332C139.699 124.484 141.355 124.228 142.359 123.863L143.911 123.3L142.452 122.527C139.964 121.21 138.63 118.264 138.271 116.208L137.973 114.505L136.956 115.903Z" fill="#280A0B" stroke="black" stroke-width="1.46591" stroke-miterlimit="3.99393"/>
<g filter="url(#filter13_i_142_13512)">
<path d="M147.692 86.5828C146.637 80.143 140.765 78.0239 137.961 77.7693C139.718 82.0964 140.386 88.3222 140.451 94.7139C140.386 101.106 139.718 107.331 137.961 111.658C140.765 111.404 146.637 109.285 147.692 102.845C148.022 100.268 148.125 97.2415 148.134 94.7139C148.125 92.1862 148.022 89.1597 147.692 86.5828Z" fill="#ECF2FF"/>
</g>
<path d="M138.026 77.0476C139.538 77.1849 141.831 77.8158 143.897 79.2634C145.981 80.7236 147.842 83.0239 148.406 86.4656L148.41 86.491C148.746 89.1114 148.849 92.1726 148.858 94.7117V94.7166C148.849 97.2557 148.746 100.317 148.41 102.937L148.408 102.95L148.406 102.962C147.843 106.403 145.981 108.705 143.897 110.165C141.831 111.612 139.538 112.242 138.026 112.38L136.843 112.487L137.29 111.386C138.992 107.194 139.661 101.088 139.727 94.7214L139.707 93.53C139.574 87.5927 138.887 81.975 137.29 78.0417L136.843 76.9402L138.026 77.0476Z" stroke="black" stroke-width="1.44874"/>
<g filter="url(#filter14_i_142_13512)">
<path d="M10.453 86.5828C11.5078 80.143 17.3796 78.0239 20.1836 77.7693C18.4269 82.0964 17.7582 88.3222 17.6935 94.7139C17.7582 101.106 18.4269 107.331 20.1836 111.658C17.3796 111.404 11.5078 109.285 10.453 102.845C10.1225 100.268 10.0195 97.2415 10.0105 94.7139C10.0195 92.1862 10.1225 89.1597 10.453 86.5828Z" fill="#ECF2FF"/>
</g>
<path d="M20.1182 77.0476C18.6061 77.1849 16.3131 77.8158 14.2471 79.2634C12.1631 80.7236 10.302 83.0239 9.73828 86.4656L9.73438 86.491C9.39827 89.1114 9.29522 92.1726 9.28613 94.7117V94.7166C9.29522 97.2557 9.39823 100.317 9.73438 102.937L9.73633 102.95L9.73828 102.962C10.302 106.403 12.1631 108.705 14.2471 110.165C16.3131 111.612 18.6062 112.242 20.1182 112.38L21.3018 112.487L20.8545 111.386C19.1526 107.194 18.4833 101.088 18.418 94.7214L18.4375 93.53C18.5704 87.5927 19.2577 81.975 20.8545 78.0417L21.3018 76.9402L20.1182 77.0476Z" stroke="black" stroke-width="1.44874"/>
<circle cx="78.6136" cy="95.0581" r="61.8653" fill="#181F2D" stroke="black" stroke-width="1.44874"/>
<path d="M78.5744 35.0447C103.174 35.0447 120.749 48.2443 131.051 65.7903C111.091 41.3226 87.1316 39.3449 78.5744 39.3449C70.0172 39.3449 46.0581 41.3226 26.0977 65.7903C36.3998 48.2443 53.9743 35.0447 78.5744 35.0447Z" fill="#ECF2FF"/>
<path d="M78.5796 149.226C49.7788 149.226 30.6931 129.796 23.5273 118.909C36.6186 149.226 65.8329 155.289 78.5796 155.289C91.3264 155.289 120.541 149.226 133.632 118.909C126.466 129.796 107.38 149.226 78.5796 149.226Z" fill="#ECF2FF"/>
<path d="M78.115 40.8394C43.6901 40.8394 25.2205 66.7096 20.625 79.6335C26.0937 68.6482 45.2478 46.9995 78.115 46.9995C110.982 46.9995 130.803 67.6835 136.364 78.3457C131.534 66.2729 112.54 40.8394 78.115 40.8394Z" fill="#ECF2FF"/>
<g filter="url(#filter15_i_142_13512)">
<path d="M78.7367 147.885C108.2 147.844 137.813 125.002 137.813 94.7674C137.813 72.4105 111.815 48.444 78.7367 48.4051C45.6584 48.444 19.6602 72.4105 19.6602 94.7674C19.6602 125.002 49.2732 147.844 78.7367 147.885Z" fill="#150D41"/>
</g>
<path d="M33.3085 76.9585C26.4733 87.5326 27.1667 102.31 28.8021 111.395C29.045 112.744 30.7052 112.658 30.9357 111.307C32.1608 104.125 34.8469 92.7921 42.3227 81.786C50.3382 69.9855 60.9133 61.7916 67.9722 57.9689C69.1333 57.3401 68.8683 55.8529 67.5595 56.0278C58.3375 57.2606 41.7679 63.8717 33.3085 76.9585Z" fill="#EBF6FE" fill-opacity="0.53"/>
<ellipse cx="120.109" cy="95.9936" rx="8.70493" ry="10.9157" transform="rotate(9.58766 120.109 95.9936)" fill="#EBF6FE" fill-opacity="0.53"/>
<ellipse cx="109.735" cy="117.034" rx="4.53248" ry="5.04739" transform="rotate(8.43644 109.735 117.034)" fill="#EBF6FE" fill-opacity="0.53"/>
<path d="M95.2588 0.842041C95.581 0.885652 95.8487 1.11231 95.9443 1.4231C96.3324 2.68442 97.0173 5.41174 96.8945 8.33423C96.8196 10.1181 96.4374 12.0259 95.4668 13.7161C96.7412 13.2184 97.9728 12.8069 99.2793 12.5598C101.753 12.0921 104.461 12.2061 108.296 13.2336C112.202 14.2803 115.331 16.5312 118.232 18.4026C121.181 20.305 123.904 21.8273 127.199 21.8274C129.996 21.8274 131.955 21.5514 133.254 21.2209C133.903 21.0556 134.379 20.8791 134.706 20.7229C134.869 20.6449 134.991 20.575 135.075 20.5178C135.117 20.4894 135.148 20.4654 135.169 20.4475C135.19 20.4299 135.198 20.4202 135.198 20.4202C135.432 20.1572 135.806 20.0693 136.133 20.2004C136.459 20.3317 136.668 20.6543 136.655 21.0061C136.526 24.4673 134.198 32.0425 126.155 36.509C129.438 39.2693 134.201 43.2576 137.687 50.3928C139.915 54.4889 146.488 57.8432 153.537 53.0852C153.823 52.8921 154.2 52.8959 154.482 53.094C154.765 53.2922 154.896 53.6447 154.812 53.9797C154.249 56.2342 151.11 65.1883 141.229 67.0071C141.677 68.3478 142.53 70.6315 144.031 72.8225C145.981 75.6691 148.955 78.262 153.474 78.4358C153.766 78.4471 154.032 78.6107 154.173 78.8674C154.314 79.1242 154.31 79.4367 154.162 79.6897C152.819 81.9919 149.349 86.1603 141.728 86.3049C142.418 87.5529 143.294 89.0027 144.432 90.3245C145.919 92.0518 147.806 93.5071 150.236 94.01C150.6 94.0853 150.871 94.3917 150.899 94.762C150.928 95.1323 150.708 95.4772 150.36 95.6077C147.703 96.6041 144.316 97.9528 139.522 97.3196C140.108 98.558 140.426 100.179 140.342 102.329C140.283 103.829 140.518 104.944 141.024 105.886C141.535 106.836 142.362 107.685 143.617 108.581C143.946 108.816 144.059 109.253 143.886 109.617C143.712 109.982 143.302 110.171 142.912 110.065C141.097 109.57 136.757 109.158 133.43 104.636C131.542 107.796 128.697 112.2 125.038 114.64C124.731 114.845 124.326 114.823 124.042 114.587C123.758 114.351 123.663 113.957 123.809 113.617C125.308 110.118 126.846 103.106 125.759 94.6389C124.216 96.8179 122.184 99.0941 118.936 100.641C118.597 100.802 118.192 100.717 117.946 100.434C117.701 100.15 117.675 99.7372 117.883 99.425C119.535 96.947 120.842 94.4615 121.608 91.2141C122.378 87.9565 122.615 83.8834 122.059 78.2258C120.952 66.9781 116.544 60.2809 111.899 56.887C109.501 55.1341 107.097 53.642 103.839 52.5784C100.572 51.5121 96.3999 50.8626 90.4609 50.8625C90.0878 50.8625 89.7598 50.6142 89.6582 50.2551C89.5567 49.8962 89.7058 49.5132 90.0234 49.3176C90.1882 49.2163 90.3692 49.1091 90.5654 48.9973C88.5752 49.0737 87.0977 49.0037 85.0137 49.3293C82.8528 49.667 80.0609 50.4388 75.5986 52.2981C75.4218 52.3717 75.2247 52.3818 75.041 52.3274C71.3331 51.2288 66.5604 50.7434 62.8496 50.6477C63.4622 51.0396 64.0096 51.4513 64.4336 51.8752C64.6721 52.1138 64.7443 52.4727 64.6152 52.7844C64.4861 53.0961 64.1811 53.2991 63.8438 53.2991C62.4543 53.2991 61.1573 53.3458 59.6523 53.3928C58.1498 53.4398 56.4524 53.4866 54.2842 53.4866C54.0968 53.4865 53.9147 53.423 53.7676 53.3069C51.992 51.9051 49.5391 50.0478 46.6553 48.8538C43.785 47.6653 40.5387 47.1544 37.1348 48.3762C33.5734 49.6547 31.1596 51.14 29.04 53.3264C26.896 55.5381 25.0193 58.4995 22.583 62.8098C20.1684 67.0818 18.9768 70.1151 17.9277 72.3801C16.8868 74.6275 15.9427 76.2232 13.9824 77.2034C13.8946 77.2473 13.7998 77.2755 13.7021 77.2864C9.99292 77.6985 4.60817 75.6559 1.63379 70.302C1.48482 70.0337 1.49545 69.7049 1.66113 69.4465C1.82687 69.1882 2.12169 69.0421 2.42773 69.0657C4.96072 69.2605 7.24664 69.557 9.24414 67.7747C10.5501 66.6092 11.0934 64.8788 11.376 63.0178C11.5168 62.0905 11.5863 61.1872 11.6709 60.3254C11.7521 59.4985 11.8497 58.668 12.0684 58.012C13.6095 53.3884 16.7837 50.3114 21.623 47.4788C19.9497 47.1258 18.3259 46.3995 16.8721 45.429C14.578 43.8975 12.6409 41.7207 11.5391 39.3167C11.3984 39.0096 11.4573 38.6478 11.6875 38.4006C11.9178 38.1535 12.2745 38.0691 12.5908 38.1877C15.4609 39.264 19.6091 39.686 22.9121 37.8284C26.1127 36.0282 29.2729 32.7064 35.7148 33.1428C34.9378 30.2694 34.1226 25.5245 38.5117 21.135C39.7177 19.929 41.2931 18.6538 42.8818 17.3313C44.4889 15.9936 46.1354 14.587 47.5615 13.0696C50.4253 10.0225 52.2429 6.704 51.2285 2.81567C51.1435 2.4896 51.2628 2.14432 51.5312 1.94067C51.7998 1.73704 52.165 1.71519 52.4561 1.88501L52.4795 1.89868C53.6222 2.56521 55.5143 3.66568 57.2266 5.80884C58.7422 7.70601 60.0853 10.3801 60.7119 14.2249C61.827 13.1957 62.967 12.1492 64.3975 11.2473C66.3688 10.0044 68.8933 9.02095 72.7949 8.4729C76.6758 7.92776 81.1497 7.57885 85.2119 6.59106C89.2747 5.60308 92.6556 4.02924 94.4434 1.21997L94.5156 1.12329C94.6979 0.911968 94.9769 0.804004 95.2588 0.842041Z" fill="#280A0B" stroke="black" stroke-width="1.66823" stroke-miterlimit="4.62023" stroke-linejoin="round"/>
<mask id="mask3_142_13512" style="mask-type:alpha" maskUnits="userSpaceOnUse" x="2" y="1" width="153" height="113">
<path d="M94.7666 3.52563C95.0485 4.81365 95.3013 6.50946 95.2275 8.26392C95.1161 10.9161 94.2778 13.5603 91.8613 15.2268C91.5104 15.469 91.3991 15.9371 91.6025 16.3118C91.8063 16.6865 92.2601 16.8479 92.6543 16.6848C95.4264 15.5377 97.379 14.6175 99.5898 14.1995C101.755 13.7901 104.202 13.8637 107.864 14.845C111.456 15.8073 114.325 17.8675 117.328 19.8049C120.283 21.7113 123.372 23.4953 127.199 23.4954C130.1 23.4954 132.203 23.2096 133.666 22.8372C134.095 22.7279 134.472 22.6081 134.801 22.4866C134.117 26.0948 131.436 32.1205 124.303 35.595C124.05 35.718 123.876 35.9599 123.84 36.2385C123.804 36.5173 123.912 36.7959 124.125 36.9788C127.432 39.812 132.537 43.6406 136.197 51.1438C136.202 51.1543 136.207 51.1648 136.213 51.175C138.644 55.6636 145.29 59.1939 152.498 55.6194C151.108 58.9628 147.621 64.5234 140.025 65.5081C139.778 65.5402 139.559 65.6818 139.427 65.8928C139.294 66.104 139.263 66.3634 139.342 66.5999C139.614 67.4158 140.538 70.6757 142.655 73.7659C144.58 76.5754 147.546 79.3238 151.968 79.97C150.34 82.0999 146.954 84.9211 140.358 84.6213C140.059 84.6077 139.775 84.7557 139.615 85.009C139.455 85.2624 139.443 85.5825 139.584 85.8469L139.663 85.9944C140.42 87.4142 141.54 89.5216 143.167 91.4124C144.324 92.7566 145.762 94.0165 147.537 94.8518C145.006 95.6843 141.975 96.2805 137.886 95.3264C137.523 95.2418 137.148 95.4081 136.967 95.7336C136.786 96.0592 136.843 96.4654 137.106 96.7288C138.022 97.6446 138.794 99.2113 138.675 102.264C138.608 103.979 138.874 105.408 139.555 106.675C139.731 107.003 139.933 107.316 140.159 107.615C138.188 106.939 135.929 105.658 134.098 102.641C133.945 102.39 133.672 102.238 133.379 102.24C133.122 102.242 132.883 102.362 132.728 102.561L132.666 102.652C131.163 105.207 129.024 108.797 126.337 111.421C127.628 106.913 128.463 100.062 127.084 92.2454C127.024 91.9073 126.763 91.6402 126.427 91.5725C126.09 91.5049 125.746 91.65 125.561 91.9387C124.38 93.7756 123.06 95.7164 121.087 97.3215C121.982 95.6144 122.72 93.7657 123.231 91.5979C124.056 88.1076 124.287 83.839 123.719 78.0627C122.576 66.4428 117.986 59.2691 112.884 55.5403C110.409 53.7319 107.845 52.1312 104.356 50.9924C101.545 50.0749 98.1629 49.4671 93.7754 49.2668C96.8553 47.9262 101.573 46.5019 107.323 46.551C107.771 46.5549 108.142 46.2049 108.164 45.7581C108.186 45.3114 107.852 44.9265 107.406 44.886C103.246 44.5077 100.353 44.5494 97.8164 44.9885C95.3243 45.4198 93.219 46.2278 90.6504 47.3254C88.7356 47.4046 87.0064 47.3293 84.7559 47.6809C82.4652 48.0388 79.6101 48.8361 75.2295 50.6458C70.0797 49.1804 63.23 48.8211 59.4912 49.0081C59.1057 49.0274 58.7837 49.3083 58.7129 49.6877C58.6422 50.0674 58.8415 50.446 59.1943 50.6028C59.9444 50.9362 60.671 51.3011 61.3203 51.6731C60.7625 51.6889 60.1946 51.7063 59.6006 51.7249C58.1714 51.7695 56.5774 51.8127 54.5703 51.8167C52.794 50.422 50.2765 48.5478 47.2939 47.3127C44.1663 46.0177 40.4764 45.4037 36.5703 46.8059C32.8217 48.1516 30.1739 49.7595 27.8418 52.1653C25.5341 54.5458 23.568 57.6767 21.1309 61.9885C18.672 66.3388 17.4268 69.4923 16.4141 71.679C15.425 73.8143 14.6953 74.9315 13.3652 75.6418C10.6378 75.8796 6.64055 74.5163 3.96484 70.8538C5.99608 70.9694 8.31615 70.8385 10.3545 69.0198C12.1089 67.4544 12.7273 65.2313 13.0254 63.2678C13.1749 62.2829 13.2508 61.3054 13.3311 60.4885C13.4147 59.6371 13.501 58.9903 13.6514 58.5393C15.235 53.7886 18.7522 50.7698 24.8682 47.5999C25.2197 47.4176 25.3949 47.0131 25.2871 46.6321C25.1792 46.2512 24.8186 45.9987 24.4238 46.0276C22.2149 46.1893 19.8654 45.4208 17.7988 44.0413C16.3208 43.0546 15.0216 41.7756 14.0498 40.3606C16.9811 41.0318 20.6171 41.0335 23.7305 39.2825C27.5231 37.1493 30.1664 34.0336 36.7412 34.9221C37.02 34.9597 37.2992 34.8545 37.4834 34.6418C37.6676 34.429 37.7316 34.1371 37.6543 33.8665C36.8953 31.2098 35.3825 26.6239 39.6914 22.3147C40.8284 21.1777 42.3222 19.9679 43.9492 18.6135C45.558 17.2744 47.2747 15.811 48.7773 14.2122C51.3625 11.4615 53.4331 8.17937 53.1553 4.28638C54.0295 4.89107 55.0045 5.70044 55.9229 6.84985C57.424 8.72882 58.8135 11.5678 59.2656 15.9983C59.2974 16.3092 59.5 16.5767 59.791 16.6907C60.0821 16.8046 60.4131 16.7461 60.6475 16.5393C62.3096 15.0727 63.5092 13.7794 65.2871 12.6584C67.0228 11.5642 69.3127 10.646 73.0264 10.1243C76.7611 9.59965 81.4377 9.2256 85.6055 8.21216C89.147 7.35097 92.5158 5.98776 94.7666 3.52563Z" fill="#280A0B" stroke="black" stroke-width="1.66823" stroke-miterlimit="4.62023" stroke-linejoin="round"/>
</mask>
<g mask="url(#mask3_142_13512)">
<path d="M14.3553 67.6479C12.764 72.5214 5.73298 73.2711 3.29623 72.1465L1.23438 69.3349C4.17096 68.3352 10.419 64.7988 11.9186 58.6507C13.793 50.9656 20.5409 48.3414 25.2269 47.0293C13.793 53.4023 17.3544 58.4632 14.3553 67.6479Z" fill="#652023"/>
<path d="M18.1075 42.5308C19.607 44.3302 21.2941 45.7173 24.8555 46.6545C23.8905 47.4042 19.7946 47.0294 16.9829 45.5298C14.1713 44.0303 11.547 40.0256 10.9414 37.5179C16.3339 41.1273 21.294 38.7819 24.2931 36.9075C29.5414 32.9712 33.1028 33.1587 35.9145 33.1587C34.6024 28.0978 35.1647 25.661 37.6014 22.2871C40.0382 18.9131 47.9107 12.3526 50.16 9.35358C52.4093 6.35451 51.2847 3.168 51.4897 1.66847C60.201 5.1174 60.606 12.2277 59.7196 15.3517C60.1569 14.5395 61.8939 12.4651 65.3428 10.6657C69.654 8.41637 80.713 8.04149 86.3363 6.35451C91.9595 4.66754 94.3963 1.48103 95.7084 0.918701C97.5828 5.79219 97.0205 10.2908 95.5209 13.6647C97.0205 13.1024 101.332 11.9778 106.393 12.5401C111.453 13.1024 119.139 18.5382 124.387 20.975C129.635 23.4117 133.009 21.3499 136.571 20.2252C136.758 23.974 134.321 28.8475 132.447 31.4717C130.947 33.5711 127.573 35.7204 126.074 36.5326C125.762 36.2202 124.05 34.7707 119.701 31.4717C125.099 32.0715 130.448 27.5979 132.447 25.2861C131.072 26.2233 127.199 27.8653 122.888 27.348C118.201 26.7857 113.515 20.975 106.955 18.3508C101.12 16.0169 90.835 17.2261 85.0243 18.3508C91.0224 15.914 93.2716 9.91591 93.4591 7.10428C89.7102 10.8531 76.5893 9.9159 69.4351 12.1849C62.2809 14.454 57.8452 20.2252 53.5341 25.2861C52.222 20.975 53.1592 15.9765 53.1592 13.6647C50.9099 14.9768 44.9118 19.288 41.7252 23.7866C38.5039 28.3343 37.6015 32.7838 37.6015 36.5326C33.4778 36.5326 29.5415 36.9075 25.4455 40.0256C21.9358 42.6972 20.1694 42.5308 18.1075 42.5308Z" fill="#652023"/>
<path d="M117.082 37.4699C109.428 31.8723 97.3176 30.2492 93.2773 30.722C102.462 26.4109 112.209 27.9104 119.801 31.8735C127.392 35.8366 133.39 43.2806 136.697 47.873C140.004 52.4654 140.325 55.0895 146.136 55.2769C150.784 55.4269 154.196 52.8402 155.321 51.5281C155.321 52.7777 154.748 56.1686 152.455 59.7356C149.59 64.1942 144.074 66.336 142.012 67.4606C140.7 69.7099 145.199 74.0211 147.823 76.6453C150.447 79.2694 155.508 78.3322 154.383 79.082C147.448 81.3313 143.699 77.395 141.825 73.8336C139.95 70.2723 140.888 67.2732 141.45 66.336C144.262 65.5862 146.886 61.6499 148.948 58.6509C132.265 64.4616 129.641 46.6546 117.082 37.4699Z" fill="#652023"/>
<path d="M126.637 60.3372L133.572 64.2734C139.945 79.0813 137.696 89.0157 135.259 98.0129C137.808 79.8686 130.573 65.3356 126.637 60.3372Z" fill="#652023"/>
<path d="M6.29688 72.3332C9.67083 75.7071 14.9192 75.5197 14.9192 75.5197C15.0442 75.2697 15.519 74.2825 16.4187 72.3332C17.5434 69.8964 26.3531 53.9639 28.415 51.1522C30.4769 48.3406 35.9127 45.3415 41.7234 45.529C47.5341 45.7164 51.2695 50.5899 53.3314 53.2141C54.2311 52.9142 61.8421 52.9642 64.7787 53.0267L61.7796 49.6527C64.0914 50.1525 69.4273 51.4521 72.2764 52.6518C75.8753 50.2525 85.8971 49.0279 90.4582 48.7155L87.4592 51.5271C88.3339 51.2772 91.7328 50.8523 98.3308 51.1522C106.578 51.5271 114.076 59.2122 118.762 65.0229C116.513 58.0876 110.702 51.902 105.828 49.0904C114.826 48.7155 120.074 53.4015 123.073 55.8383C118.575 48.1532 110.515 43.2797 108.265 41.9676C111.827 41.9676 115.763 43.0922 119.887 44.5918C117.262 42.3425 112.014 37.6564 100.205 37.6564C88.3964 37.6564 82.2108 42.3425 79.0698 44.5007C80.6058 39.4794 81.054 37.0334 81.6485 36.3443C80.6488 37.0941 77.8929 39.2984 74.867 42.1176C76.1456 38.7062 80.3364 33.1578 87.1351 28.524C93.9339 23.8902 102.829 23.4109 108.265 23.7857C99.268 20.4118 87.2717 22.2862 81.2736 24.9104C75.2755 27.5346 72.0889 29.409 66.2782 36.9067C67.9652 25.0978 75.8378 19.662 80.1489 17.0378C57.8823 22.2771 59.5245 37.6028 60.0897 42.8772L60.0927 42.9048C49.221 34.6574 54.282 24.9104 55.028 22.289C50.3383 30.9141 51.0955 36.7192 53.7196 42.3425C44.1601 37.6564 44.1601 29.9713 44.1601 27.3471C39.2117 32.8954 42.973 40.9054 45.4722 44.2169C44.1601 43.4671 40.4488 41.9676 36.1001 41.9676C29.5022 41.9676 25.1035 45.3416 23.729 47.0285C24.9786 46.7161 27.1779 46.9161 30.4769 46.4662C23.3541 47.9657 18.2931 62.0239 15.4815 67.0848C13.2322 71.1335 8.29625 72.2707 6.29688 72.3332Z" fill="#120203"/>
<path d="M121.206 96.3262C129.304 88.9785 128.954 76.02 127.767 70.4592C131.89 87.329 126.829 93.702 125.139 96.1405C123.787 98.0912 119.829 99.7013 118.02 100.262C118.582 99.7001 120.006 98.1256 121.206 96.3262Z" fill="#120203"/>
<path d="M134.698 65.3975C140.883 66.3347 143.695 63.3356 145.194 61.2737C138.672 63.3489 132.346 59.2457 129.908 56.8578C130.755 58.3923 132.898 62.2484 134.698 65.3975Z" fill="#120203"/>
<path d="M149.129 80.3936C143.131 81.5932 138.382 75.1452 136.758 71.7712C138.107 80.4685 137.882 83.2677 137.695 83.2052C138.132 84.2674 139.869 85.6419 142.569 85.6419C145.942 85.6419 148.004 82.4554 149.129 80.3936Z" fill="#120203"/>
<path d="M150.816 94.6394C144.968 96.8887 140.007 92.3276 138.257 89.7659L136.758 94.077C137.07 95.8265 138.932 97.7884 142.381 97.6384C146.692 97.451 148.567 96.3263 150.816 94.6394Z" fill="#120203"/>
</g>
<path d="M36.5319 32.9552C35.9924 33.09 35.4529 33.2249 34.9134 33.3598C34.9767 33.5542 35.0462 33.7247 35.1203 33.8939C36.5124 36.802 38.6378 39.0088 40.9545 40.9079C41.0835 41.0117 41.2133 41.1143 41.3459 41.2175C41.2321 41.0939 41.1215 40.9711 41.0121 40.8475C39.0549 38.6224 37.3687 36.0425 36.6151 33.3674C36.5792 33.2235 36.5494 33.0825 36.5319 32.9552Z" fill="black"/>
<path d="M95.5742 12.358C95.9883 12.7292 96.4023 13.1004 96.8164 13.4715C96.6697 13.6139 96.5286 13.7323 96.3841 13.8473C93.7951 15.7688 90.8852 16.7278 87.9498 17.3254C87.7873 17.357 87.6246 17.3871 87.4592 17.4164C87.6175 17.3602 87.7726 17.3034 87.9271 17.2451C90.6969 16.1914 93.3926 14.6973 95.3081 12.6837C95.407 12.5733 95.4992 12.4624 95.5742 12.358Z" fill="black"/>
<path d="M20.916 46.7563C21.0415 47.298 21.1671 47.8397 21.2926 48.3814C21.4161 48.3386 21.544 48.2972 21.6761 48.2564C24.0665 47.5421 26.5949 47.0565 29.1364 46.7525C29.2782 46.7359 29.4188 46.72 29.5615 46.7047C29.4186 46.6922 29.2774 46.6803 29.1348 46.6691C26.5691 46.4747 23.9897 46.4537 21.3631 46.7028C21.214 46.7187 21.0678 46.7354 20.916 46.7563Z" fill="black"/>
<path d="M125.046 94.1145C125.479 94.4639 125.912 94.8133 126.344 95.1627C126.67 94.7438 126.948 94.3133 127.206 93.8667C131.49 85.6937 130.231 76.1553 127.099 68.125C126.924 67.68 126.741 67.232 126.547 66.7795C126.515 66.7046 126.454 66.6451 126.378 66.6138C126.302 66.5825 126.217 66.5819 126.142 66.6126C126.067 66.6433 126.006 66.7027 125.974 66.7782C125.941 66.8536 125.939 66.9389 125.968 67.0149C126.143 67.4683 126.308 67.9166 126.464 68.3612C129.294 76.3623 130.009 85.7726 125.818 93.0379C125.577 93.4235 125.322 93.7868 125.046 94.1145Z" fill="black"/>
<path d="M134.298 104.77C134.215 104.976 134.055 105.139 133.85 105.223C133.646 105.308 133.415 105.307 133.208 105.222C133.002 105.137 132.838 104.974 132.753 104.769C132.669 104.565 132.67 104.336 132.757 104.132C133.13 103.253 133.484 102.322 133.81 101.406C136.24 94.3046 138.107 86.6961 137.254 79.2618C136.067 69.2169 132.726 59.2587 125.889 51.6647C125.242 50.9169 124.583 50.1963 123.894 49.4803C123.837 49.4211 123.805 49.3412 123.807 49.2586C123.808 49.176 123.841 49.0975 123.9 49.0399C123.959 48.9824 124.038 48.9505 124.121 48.9509C124.203 48.9514 124.282 48.9842 124.34 49.0425C125.05 49.7539 125.729 50.471 126.398 51.2168C133.461 58.7706 137.092 68.9799 138.455 79.0879C139.478 86.8989 137.689 94.6163 135.337 101.935C135.019 102.88 134.672 103.842 134.298 104.77Z" fill="black"/>
<path d="M125.886 36.3436C124.324 34.7816 119.588 30.6829 113.14 29.0334C105.08 26.9715 97.582 27.7213 88.5848 32.4073C79.5876 37.0934 73.356 42.8864 72.2773 51.9013" stroke="black" stroke-width="1.66823"/>
<path d="M64.594 51.3392C59.5331 49.6523 53.3475 45.0787 51.848 35.7816C49.9736 24.1602 59.5331 15.3504 61.0326 14.0383" stroke="black" stroke-width="1.66823"/>
<path d="M12.1065 79.8317C9.55726 83.1307 4.79623 83.3306 2.73438 83.0182C5.35856 87.8917 9.05818 89.1915 12.1065 89.9536C14.3558 90.5159 16.6051 89.9536 17.5423 89.9536C16.6051 92.5778 16.6051 93.7487 16.4176 97.6387C16.6051 101.154 15.293 103.449 13.606 106.823C21.2911 105.511 24.4776 100.263 24.9932 97.405C26.821 101.67 30.1009 104.199 31.9753 106.823C31.2255 104.012 31.0381 95.9517 31.2255 87.1419C31.413 78.3322 35.3492 69.335 39.473 62.5871C45.4711 52.2778 49.7823 54.3396 53.3437 53.5899C49.9697 49.0913 45.6585 46.4671 41.3474 46.0922C32.9125 45.5299 28.7888 51.528 24.4776 56.4015C20.5413 62.7745 15.293 75.708 12.1065 79.8317Z" fill="#280A0B"/>
<path d="M23.1619 79.8318C18.2134 86.4297 9.10372 86.7671 3.48047 84.1429C5.72977 87.7043 9.66605 89.2039 12.4777 89.9536C15.2893 90.7034 16.9763 89.7662 17.0864 91.0188C19.0381 87.8918 20.9126 86.0174 22.787 85.455C22.787 85.2676 23.0119 82.381 23.1619 79.8318Z" fill="#120203"/>
<path d="M35.996 56.9637C39.5572 50.0284 44.9073 48.2789 47.3441 47.7791C48.2188 48.4039 50.718 50.5907 53.1548 53.4023C46.5943 54.1521 43.4078 56.4014 39.5574 62.2121C35.6012 68.1824 31.9741 81.1437 30.662 93.14C27.1006 83.5804 32.2034 64.3495 35.996 56.9637Z" fill="#120203"/>
<path d="M23.1648 86.7666C23.1648 89.5781 23.4937 93.1133 24.102 95.014C25.6014 99.6999 24.8517 100.825 21.6653 103.262C19.5756 104.86 13.6049 107.198 12.668 107.385C14.1673 106.448 19.2282 102.887 19.7906 96.1387C20.3504 89.4211 20.9102 86.7903 23.1345 84.7326C23.1408 84.6674 23.1505 84.6512 23.1648 84.7047C23.1546 84.714 23.1446 84.7233 23.1345 84.7326C23.1017 85.0749 23.1648 86.7666 23.1648 86.7666Z" fill="#120203"/>
<path d="M15.9055 78.894C12.4565 84.4423 6.59586 84.8296 4.09663 84.3298C3.90919 84.1423 3.37432 83.5811 2.73438 82.8355C10.7442 82.8408 12.719 79.4563 14.031 77.3944C15.3431 75.3326 21.9036 60.3372 26.2148 53.9642C30.5259 47.5912 33.525 47.9661 38.9608 46.4666C28.8389 50.5903 20.2166 71.9586 15.9055 78.894Z" fill="#652023"/>
<path d="M26.0371 54.053C30.8462 47.1066 37.5561 45.0845 43.168 46.0198C48.0073 46.8264 51.3006 50.688 52.5137 52.3479L53.4033 53.5647L51.9004 53.6721C49.4479 53.8473 43.8015 55.2644 40.1797 61.1497C35.7328 68.3759 32.5946 76.3245 31.4873 84.9983C30.6012 91.9391 31.3651 100.615 31.8604 104.081L32.1621 106.194L30.5078 104.846C29.6336 104.134 28.2952 102.911 27.0928 101.533C26.3962 100.735 25.7082 99.8427 25.1895 98.9387C22.405 104.092 17.6991 105.675 14.8574 106.845L11.8701 108.074L13.8887 105.553C15.9477 102.979 16.1419 100.621 16.3301 96.1047C16.4248 93.8325 16.6159 92.3079 16.9443 91.095C17.0578 90.6761 17.1878 90.299 17.3311 89.9456C13.7164 90.9205 10.6437 90.0682 8.29395 88.7346C5.54797 87.1761 3.77282 84.9538 3.22168 84.3108L1.92773 82.801L3.91211 82.9358C7.76415 83.1984 10.2369 81.8606 12.0908 79.7913C14.0008 77.6592 15.2597 74.7515 16.5908 71.804C19.2158 65.9915 22.6162 58.9944 26.0371 54.053Z" stroke="black" stroke-width="1.66823"/>
<path d="M26.4234 66.5237C28.2228 61.8752 31.5468 57.3391 32.9839 55.6521C26.0486 66.5237 23.9866 78.1451 23.7991 85.7383C23.6492 91.8129 24.9863 96.4531 25.6736 98.0139C25.4861 98.1389 24.9614 98.4638 24.3615 98.7637C19.4881 86.0177 24.1741 72.3344 26.4234 66.5237Z" fill="black"/>
<defs>
<filter id="filter0_f_142_13512" x="11.1278" y="248.724" width="133.604" height="29.8241" filterUnits="userSpaceOnUse" color-interpolation-filters="sRGB">
<feFlood flood-opacity="0" result="BackgroundImageFix"/>
<feBlend mode="normal" in="SourceGraphic" in2="BackgroundImageFix" result="shape"/>
<feGaussianBlur stdDeviation="0.906819" result="effect1_foregroundBlur_142_13512"/>
</filter>
<filter id="filter1_i_142_13512" x="40.6406" y="152.818" width="76.8789" height="75.25" filterUnits="userSpaceOnUse" color-interpolation-filters="sRGB">
<feFlood flood-opacity="0" result="BackgroundImageFix"/>
<feBlend mode="normal" in="SourceGraphic" in2="BackgroundImageFix" result="shape"/>
<feColorMatrix in="SourceAlpha" type="matrix" values="0 0 0 0 0 0 0 0 0 0 0 0 0 0 0 0 0 0 127 0" result="hardAlpha"/>
<feOffset dx="-4.88637" dy="-10.0985"/>
<feComposite in2="hardAlpha" operator="arithmetic" k2="-1" k3="1"/>
<feColorMatrix type="matrix" values="0 0 0 0 0.843137 0 0 0 0 0.866667 0 0 0 0 0.917647 0 0 0 1 0"/>
<feBlend mode="normal" in2="shape" result="effect1_innerShadow_142_13512"/>
</filter>
<filter id="filter2_i_142_13512" x="91.0273" y="250.954" width="31.4219" height="17.7964" filterUnits="userSpaceOnUse" color-interpolation-filters="sRGB">
<feFlood flood-opacity="0" result="BackgroundImageFix"/>
<feBlend mode="normal" in="SourceGraphic" in2="BackgroundImageFix" result="shape"/>
<feColorMatrix in="SourceAlpha" type="matrix" values="0 0 0 0 0 0 0 0 0 0 0 0 0 0 0 0 0 0 127 0" result="hardAlpha"/>
<feOffset dx="-2.60606" dy="-4.23486"/>
<feComposite in2="hardAlpha" operator="arithmetic" k2="-1" k3="1"/>
<feColorMatrix type="matrix" values="0 0 0 0 0.454902 0 0 0 0 0.45098 0 0 0 0 0.466667 0 0 0 1 0"/>
<feBlend mode="normal" in2="shape" result="effect1_innerShadow_142_13512"/>
</filter>
<filter id="filter3_i_142_13512" x="88.5391" y="238.115" width="27.9375" height="16.1118" filterUnits="userSpaceOnUse" color-interpolation-filters="sRGB">
<feFlood flood-opacity="0" result="BackgroundImageFix"/>
<feBlend mode="normal" in="SourceGraphic" in2="BackgroundImageFix" result="shape"/>
<feColorMatrix in="SourceAlpha" type="matrix" values="0 0 0 0 0 0 0 0 0 0 0 0 0 0 0 0 0 0 127 0" result="hardAlpha"/>
<feOffset dx="-9.44698" dy="1.62879"/>
<feComposite in2="hardAlpha" operator="arithmetic" k2="-1" k3="1"/>
<feColorMatrix type="matrix" values="0 0 0 0 0 0 0 0 0 0 0 0 0 0 0 0 0 0 0.16 0"/>
<feBlend mode="normal" in2="shape" result="effect1_innerShadow_142_13512"/>
</filter>
<filter id="filter4_i_142_13512" x="36.4688" y="250.954" width="31.4219" height="17.7964" filterUnits="userSpaceOnUse" color-interpolation-filters="sRGB">
<feFlood flood-opacity="0" result="BackgroundImageFix"/>
<feBlend mode="normal" in="SourceGraphic" in2="BackgroundImageFix" result="shape"/>
<feColorMatrix in="SourceAlpha" type="matrix" values="0 0 0 0 0 0 0 0 0 0 0 0 0 0 0 0 0 0 127 0" result="hardAlpha"/>
<feOffset dx="2.60606" dy="-4.23486"/>
<feComposite in2="hardAlpha" operator="arithmetic" k2="-1" k3="1"/>
<feColorMatrix type="matrix" values="0 0 0 0 0.454902 0 0 0 0 0.45098 0 0 0 0 0.466667 0 0 0 1 0"/>
<feBlend mode="normal" in2="shape" result="effect1_innerShadow_142_13512"/>
</filter>
<filter id="filter5_i_142_13512" x="42.4375" y="238.115" width="27.9375" height="16.1118" filterUnits="userSpaceOnUse" color-interpolation-filters="sRGB">
<feFlood flood-opacity="0" result="BackgroundImageFix"/>
<feBlend mode="normal" in="SourceGraphic" in2="BackgroundImageFix" result="shape"/>
<feColorMatrix in="SourceAlpha" type="matrix" values="0 0 0 0 0 0 0 0 0 0 0 0 0 0 0 0 0 0 127 0" result="hardAlpha"/>
<feOffset dx="9.44698" dy="1.62879"/>
<feComposite in2="hardAlpha" operator="arithmetic" k2="-1" k3="1"/>
<feColorMatrix type="matrix" values="0 0 0 0 0 0 0 0 0 0 0 0 0 0 0 0 0 0 0.16 0"/>
<feBlend mode="normal" in2="shape" result="effect1_innerShadow_142_13512"/>
</filter>
<filter id="filter6_i_142_13512" x="29.5469" y="197.448" width="14.4219" height="24.2534" filterUnits="userSpaceOnUse" color-interpolation-filters="sRGB">
<feFlood flood-opacity="0" result="BackgroundImageFix"/>
<feBlend mode="normal" in="SourceGraphic" in2="BackgroundImageFix" result="shape"/>
<feColorMatrix in="SourceAlpha" type="matrix" values="0 0 0 0 0 0 0 0 0 0 0 0 0 0 0 0 0 0 127 0" result="hardAlpha"/>
<feOffset dx="2.93182" dy="-2.60606"/>
<feComposite in2="hardAlpha" operator="arithmetic" k2="-1" k3="1"/>
<feColorMatrix type="matrix" values="0 0 0 0 0.858824 0 0 0 0 0.67451 0 0 0 0 0.458824 0 0 0 1 0"/>
<feBlend mode="normal" in2="shape" result="effect1_innerShadow_142_13512"/>
</filter>
<filter id="filter7_i_142_13512" x="25.3984" y="192.82" width="18.957" height="15.6025" filterUnits="userSpaceOnUse" color-interpolation-filters="sRGB">
<feFlood flood-opacity="0" result="BackgroundImageFix"/>
<feBlend mode="normal" in="SourceGraphic" in2="BackgroundImageFix" result="shape"/>
<feColorMatrix in="SourceAlpha" type="matrix" values="0 0 0 0 0 0 0 0 0 0 0 0 0 0 0 0 0 0 127 0" result="hardAlpha"/>
<feOffset dx="-2.28031" dy="4.88637"/>
<feComposite in2="hardAlpha" operator="arithmetic" k2="-1" k3="1"/>
<feColorMatrix type="matrix" values="0 0 0 0 0 0 0 0 0 0 0 0 0 0 0 0 0 0 0.25 0"/>
<feBlend mode="normal" in2="shape" result="effect1_innerShadow_142_13512"/>
</filter>
<filter id="filter8_i_142_13512" x="114.504" y="196.8" width="14.4219" height="24.2534" filterUnits="userSpaceOnUse" color-interpolation-filters="sRGB">
<feFlood flood-opacity="0" result="BackgroundImageFix"/>
<feBlend mode="normal" in="SourceGraphic" in2="BackgroundImageFix" result="shape"/>
<feColorMatrix in="SourceAlpha" type="matrix" values="0 0 0 0 0 0 0 0 0 0 0 0 0 0 0 0 0 0 127 0" result="hardAlpha"/>
<feOffset dx="-2.93182" dy="-2.60606"/>
<feComposite in2="hardAlpha" operator="arithmetic" k2="-1" k3="1"/>
<feColorMatrix type="matrix" values="0 0 0 0 0.858824 0 0 0 0 0.67451 0 0 0 0 0.458824 0 0 0 1 0"/>
<feBlend mode="normal" in2="shape" result="effect1_innerShadow_142_13512"/>
</filter>
<filter id="filter9_i_142_13512" x="114.113" y="192.169" width="18.957" height="15.6025" filterUnits="userSpaceOnUse" color-interpolation-filters="sRGB">
<feFlood flood-opacity="0" result="BackgroundImageFix"/>
<feBlend mode="normal" in="SourceGraphic" in2="BackgroundImageFix" result="shape"/>
<feColorMatrix in="SourceAlpha" type="matrix" values="0 0 0 0 0 0 0 0 0 0 0 0 0 0 0 0 0 0 127 0" result="hardAlpha"/>
<feOffset dx="2.28031" dy="4.88637"/>
<feComposite in2="hardAlpha" operator="arithmetic" k2="-1" k3="1"/>
<feColorMatrix type="matrix" values="0 0 0 0 0 0 0 0 0 0 0 0 0 0 0 0 0 0 0.25 0"/>
<feBlend mode="normal" in2="shape" result="effect1_innerShadow_142_13512"/>
</filter>
<filter id="filter10_d_142_13512" x="82.1493" y="173.156" width="44.7843" height="66.8489" filterUnits="userSpaceOnUse" color-interpolation-filters="sRGB">
<feFlood flood-opacity="0" result="BackgroundImageFix"/>
<feColorMatrix in="SourceAlpha" type="matrix" values="0 0 0 0 0 0 0 0 0 0 0 0 0 0 0 0 0 0 127 0" result="hardAlpha"/>
<feOffset dx="-0.651516" dy="0.977274"/>
<feComposite in2="hardAlpha" operator="out"/>
<feColorMatrix type="matrix" values="0 0 0 0 0 0 0 0 0 0 0 0 0 0 0 0 0 0 0.4 0"/>
<feBlend mode="normal" in2="BackgroundImageFix" result="effect1_dropShadow_142_13512"/>
<feBlend mode="normal" in="SourceGraphic" in2="effect1_dropShadow_142_13512" result="shape"/>
</filter>
<filter id="filter11_i_142_13512" x="94.7109" y="193.071" width="32.2227" height="45.9575" filterUnits="userSpaceOnUse" color-interpolation-filters="sRGB">
<feFlood flood-opacity="0" result="BackgroundImageFix"/>
<feBlend mode="normal" in="SourceGraphic" in2="BackgroundImageFix" result="shape"/>
<feColorMatrix in="SourceAlpha" type="matrix" values="0 0 0 0 0 0 0 0 0 0 0 0 0 0 0 0 0 0 127 0" result="hardAlpha"/>
<feOffset dx="4.23486" dy="1.30303"/>
<feComposite in2="hardAlpha" operator="arithmetic" k2="-1" k3="1"/>
<feColorMatrix type="matrix" values="0 0 0 0 0 0 0 0 0 0 0 0 0 0 0 0 0 0 0.25 0"/>
<feBlend mode="normal" in2="shape" result="effect1_innerShadow_142_13512"/>
</filter>
<filter id="filter12_ii_142_13512" x="88.8164" y="185.37" width="14.8594" height="13.5352" filterUnits="userSpaceOnUse" color-interpolation-filters="sRGB">
<feFlood flood-opacity="0" result="BackgroundImageFix"/>
<feBlend mode="normal" in="SourceGraphic" in2="BackgroundImageFix" result="shape"/>
<feColorMatrix in="SourceAlpha" type="matrix" values="0 0 0 0 0 0 0 0 0 0 0 0 0 0 0 0 0 0 127 0" result="hardAlpha"/>
<feOffset dx="2.28031" dy="2.60606"/>
<feComposite in2="hardAlpha" operator="arithmetic" k2="-1" k3="1"/>
<feColorMatrix type="matrix" values="0 0 0 0 0 0 0 0 0 0 0 0 0 0 0 0 0 0 0.25 0"/>
<feBlend mode="normal" in2="shape" result="effect1_innerShadow_142_13512"/>
<feColorMatrix in="SourceAlpha" type="matrix" values="0 0 0 0 0 0 0 0 0 0 0 0 0 0 0 0 0 0 127 0" result="hardAlpha"/>
<feOffset dx="-1.30303" dy="-1.62879"/>
<feComposite in2="hardAlpha" operator="arithmetic" k2="-1" k3="1"/>
<feColorMatrix type="matrix" values="0 0 0 0 0.164706 0 0 0 0 0.176471 0 0 0 0 0.196078 0 0 0 1 0"/>
<feBlend mode="normal" in2="effect1_innerShadow_142_13512" result="effect2_innerShadow_142_13512"/>
</filter>
<filter id="filter13_i_142_13512" x="135.723" y="76.1116" width="13.8594" height="37.2046" filterUnits="userSpaceOnUse" color-interpolation-filters="sRGB">
<feFlood flood-opacity="0" result="BackgroundImageFix"/>
<feBlend mode="normal" in="SourceGraphic" in2="BackgroundImageFix" result="shape"/>
<feColorMatrix in="SourceAlpha" type="matrix" values="0 0 0 0 0 0 0 0 0 0 0 0 0 0 0 0 0 0 127 0" result="hardAlpha"/>
<feOffset dx="-3.31616" dy="-6.35598"/>
<feComposite in2="hardAlpha" operator="arithmetic" k2="-1" k3="1"/>
<feColorMatrix type="matrix" values="0 0 0 0 0.843137 0 0 0 0 0.866667 0 0 0 0 0.917647 0 0 0 1 0"/>
<feBlend mode="normal" in2="shape" result="effect1_innerShadow_142_13512"/>
</filter>
<filter id="filter14_i_142_13512" x="8.5625" y="76.1116" width="13.8594" height="37.2046" filterUnits="userSpaceOnUse" color-interpolation-filters="sRGB">
<feFlood flood-opacity="0" result="BackgroundImageFix"/>
<feBlend mode="normal" in="SourceGraphic" in2="BackgroundImageFix" result="shape"/>
<feColorMatrix in="SourceAlpha" type="matrix" values="0 0 0 0 0 0 0 0 0 0 0 0 0 0 0 0 0 0 127 0" result="hardAlpha"/>
<feOffset dx="3.03981" dy="-6.35598"/>
<feComposite in2="hardAlpha" operator="arithmetic" k2="-1" k3="1"/>
<feColorMatrix type="matrix" values="0 0 0 0 0.843137 0 0 0 0 0.866667 0 0 0 0 0.917647 0 0 0 1 0"/>
<feBlend mode="normal" in2="shape" result="effect1_innerShadow_142_13512"/>
</filter>
<filter id="filter15_i_142_13512" x="19.6602" y="48.405" width="118.152" height="99.4805" filterUnits="userSpaceOnUse" color-interpolation-filters="sRGB">
<feFlood flood-opacity="0" result="BackgroundImageFix"/>
<feBlend mode="normal" in="SourceGraphic" in2="BackgroundImageFix" result="shape"/>
<feColorMatrix in="SourceAlpha" type="matrix" values="0 0 0 0 0 0 0 0 0 0 0 0 0 0 0 0 0 0 127 0" result="hardAlpha"/>
<feOffset dx="-0.321943" dy="-16.0972"/>
<feComposite in2="hardAlpha" operator="arithmetic" k2="-1" k3="1"/>
<feColorMatrix type="matrix" values="0 0 0 0 0.13338 0 0 0 0 0.0604861 0 0 0 0 0.279167 0 0 0 0.9 0"/>
<feBlend mode="normal" in2="shape" result="effect1_innerShadow_142_13512"/>
</filter>
</defs>
</svg>
