<svg width="132" height="246" viewBox="0 0 132 246" fill="none" xmlns="http://www.w3.org/2000/svg">
<g filter="url(#filter0_f_142_13678)">
<ellipse cx="65.2679" cy="232.088" rx="57.3655" ry="11.562" fill="#A05010"/>
</g>
<g filter="url(#filter1_i_142_13678)">
<rect x="31.1328" y="133.379" width="68.7409" height="68.7409" rx="12.8161" fill="#ECF2FF"/>
</g>
<rect x="31.7882" y="134.034" width="67.4301" height="67.4301" rx="12.1607" stroke="black" stroke-width="1.31074"/>
<g filter="url(#filter2_i_142_13678)">
<path d="M27.0691 232.858C25.7682 228.953 32.301 222.439 32.8476 222.081L54.2372 222.081C54.2242 222.509 54.3387 227.392 54.2372 230.732C54.1103 234.906 47.7239 235.948 41.5437 236.273C35.2096 236.607 28.237 236.363 27.0691 232.858Z" fill="#42394A"/>
</g>
<path d="M27.0691 232.858C25.7682 228.953 32.301 222.439 32.8476 222.081L54.2372 222.081C54.2242 222.509 54.3387 227.392 54.2372 230.732C54.1103 234.906 47.7239 235.948 41.5437 236.273C35.2096 236.607 28.237 236.363 27.0691 232.858Z" stroke="black" stroke-width="1.31074" stroke-linejoin="round"/>
<g filter="url(#filter3_i_142_13678)">
<path d="M103.775 232.858C105.076 228.953 98.5427 222.439 97.9961 222.081L76.6066 222.081C76.6196 222.509 76.5051 227.392 76.6066 230.732C76.7334 234.906 83.1198 235.948 89.3 236.273C95.6341 236.607 102.607 236.363 103.775 232.858Z" fill="#42394A"/>
</g>
<path d="M103.775 232.858C105.076 228.953 98.5427 222.439 97.9961 222.081L76.6066 222.081C76.6196 222.509 76.5051 227.392 76.6066 230.732C76.7334 234.906 83.1198 235.948 89.3 236.273C95.6341 236.607 102.607 236.363 103.775 232.858Z" stroke="black" stroke-width="1.31074" stroke-linejoin="round"/>
<g filter="url(#filter4_i_142_13678)">
<path d="M36.585 157.353C40.3209 146.381 45.8146 136.424 48.3667 132.685C52.2457 132.685 58.632 132.703 65.4591 132.703C72.2863 132.701 78.9785 132.824 82.6263 132.824C85.1785 136.563 90.5423 146.751 94.1759 157.351C98.0691 169.783 97.837 173.5 96.4096 182.374C96.9286 184.716 97.9393 190.736 98.5882 197.761C99.237 204.787 100.016 209.717 99.8859 220.317C97.4635 222.453 89.2721 226.203 75.2568 224.034C74.608 219.72 73.5698 213.31 72.921 210.475C72.2318 207.464 71.6233 203.08 69.0278 201.477C67.8599 200.861 66.0431 200.861 65.3942 200.861C64.8103 200.86 63.0584 200.861 61.8904 201.477C59.295 203.08 58.5434 207.462 57.8542 210.473C57.2054 213.308 56.3103 219.72 55.6614 224.034C43.3199 226.373 32.2893 222.429 30.8618 220.457C30.7319 209.857 31.5241 204.683 32.173 197.658C32.8218 190.632 33.9896 184.716 34.5087 182.374C33.0812 173.5 32.8217 170.788 36.585 157.353Z" fill="#54495A"/>
</g>
<g filter="url(#filter5_i_142_13678)">
<path d="M32.4542 197.658C33.1031 190.632 34.2709 184.716 34.79 182.374C37.8902 186.791 47.5859 195.625 65.6755 195.625C82.3933 195.625 92.7335 186.887 96.6908 182.374C97.2099 184.716 98.2205 190.736 98.8694 197.761C99.5182 204.787 100.297 209.717 100.167 220.317C97.7448 222.453 89.5533 226.203 75.5381 224.034C74.8892 219.72 73.8511 213.31 73.2022 210.475C72.513 207.464 71.9045 203.08 69.3091 201.477C68.1411 200.861 66.3244 200.861 65.6755 200.861C65.0915 200.86 63.3396 200.861 62.1717 201.477C59.5763 203.08 58.8247 207.462 58.1355 210.474C57.4866 213.308 56.5915 219.72 55.9427 224.034C43.6011 226.373 32.5706 222.429 31.143 220.457C31.0131 209.857 31.8054 204.683 32.4542 197.658Z" fill="#F8931D"/>
</g>
<mask id="mask0_142_13678" style="mask-type:alpha" maskUnits="userSpaceOnUse" x="30" y="132" width="70" height="93">
<path d="M36.585 157.354C40.3209 146.382 45.8146 136.424 48.3667 132.686C52.2457 132.685 58.632 132.703 65.4591 132.703C72.2863 132.702 78.9785 132.825 82.6263 132.824C85.1785 136.563 90.5423 146.752 94.1759 157.352C98.0691 169.783 97.837 173.5 96.4096 182.374C96.9286 184.716 97.9393 190.736 98.5882 197.762C99.237 204.787 100.016 209.717 99.8859 220.317C97.4635 222.454 89.2721 226.204 75.2568 224.034C74.608 219.72 73.5698 213.31 72.921 210.475C72.2318 207.464 71.6233 203.08 69.0278 201.478C67.8599 200.862 66.0431 200.862 65.3942 200.862C64.8103 200.861 63.0584 200.862 61.8904 201.478C59.295 203.08 58.5434 207.463 57.8542 210.474C57.2054 213.309 56.3103 219.72 55.6614 224.034C43.3199 226.374 32.2893 222.43 30.8618 220.458C30.7319 209.858 31.5241 204.684 32.173 197.658C32.8218 190.633 33.9896 184.716 34.5087 182.374C33.0812 173.5 32.8217 170.789 36.585 157.354Z" fill="#2C61BF"/>
</mask>
<g mask="url(#mask0_142_13678)">
<path d="M98.2764 190.975L97.9756 191.074C76.6973 198.073 53.7353 198.073 32.457 191.074L32.1572 190.975V150.343L32.6602 150.421L43 152.022C57.7235 154.302 72.7101 154.302 87.4336 152.022L97.7725 150.421L98.2764 150.343V190.975Z" fill="#F8931D" stroke="black" stroke-width="0.873825"/>
<mask id="path-10-outside-1_142_13678" maskUnits="userSpaceOnUse" x="60.5312" y="153.186" width="8" height="40" fill="black">
<rect fill="white" x="60.5312" y="153.186" width="8" height="40"/>
<path d="M62.5312 153.186H67.4829V192.799H62.5312V153.186Z"/>
</mask>
<path d="M62.5312 153.186H67.4829V192.799H62.5312V153.186Z" fill="#54495A"/>
<path d="M67.4829 153.186H66.4431V192.799H67.4829H68.5228V153.186H67.4829ZM62.5312 192.799H63.5711V153.186H62.5312H61.4914V192.799H62.5312Z" fill="black" mask="url(#path-10-outside-1_142_13678)"/>
<path d="M65.221 195.625C48.3271 195.625 37.8897 186.984 34.7828 182.664C33.2682 189.305 33.1322 190.916 33.0352 193.732C33.0352 193.732 43.6667 210.917 65.221 210.917C86.7754 210.917 96.5325 194.837 98.5714 189.303L96.2418 182.664C92.9407 186.984 82.115 195.625 65.221 195.625Z" fill="#E4871A"/>
<g filter="url(#filter6_d_142_13678)">
<path d="M100.399 188.27L100.042 188.388C77.7115 195.768 53.5969 195.769 31.2666 188.388L30.9102 188.27V178.714L31.5693 178.898C53.8658 185.121 77.4427 185.121 99.7393 178.898L100.399 178.714V188.27Z" fill="#54495A" stroke="black" stroke-width="1.03985"/>
<path d="M40.6126 180.564L39.1562 190.322" stroke="black" stroke-width="1.03985"/>
<path d="M91.7311 180.564L93.1875 190.322" stroke="black" stroke-width="1.03985"/>
<path d="M48.9095 182.312L47.4531 192.07" stroke="black" stroke-width="1.03985"/>
<path d="M83.2858 182.312L84.7422 192.07" stroke="black" stroke-width="1.03985"/>
<path d="M57.3587 183.768L55.9023 193.526" stroke="black" stroke-width="1.03985"/>
<path d="M74.8405 183.768L76.2969 193.526" stroke="black" stroke-width="1.03985"/>
<path d="M66.1679 183.719L66.1679 193.576" stroke="black" stroke-width="1.03985"/>
</g>
<g filter="url(#filter7_i_142_13678)">
<path d="M61.5453 204.568C52.6467 205.083 37.3681 202.397 30.2485 199.207C29.8745 200.786 30.0017 205.719 28.8047 212.303C36.3857 215.395 51.3035 218.011 58.8583 216.164C59.6895 213.338 61.0465 206.962 61.5453 204.568Z" fill="white" stroke="black" stroke-width="0.890274"/>
<path d="M60.5307 207.738C44.6038 208.483 33.7929 204.537 30.0431 202.907C30.0686 204.05 29.5846 205.777 29.6544 208.825C36.4092 212.068 51.4478 214.236 59.5522 213.601C59.7447 212.936 60.0026 210.808 60.5307 207.738Z" fill="#54495A" stroke="black" stroke-width="0.890274"/>
</g>
</g>
<path d="M34.7268 180.333C33.444 187.156 30.6253 205.995 30.8616 219.952C30.867 220.268 30.9691 220.574 31.2003 220.79C34.1003 223.499 45.2673 225.745 54.6689 224.189C55.2656 224.09 55.725 223.616 55.8209 223.019C57.1442 214.777 57.6694 206.165 60.8482 202.441C61.9835 201.11 63.4 200.838 65.3901 200.838M96.2383 180.333C97.5211 187.156 100.16 205.995 99.9192 219.952C99.9137 220.268 99.8117 220.574 99.5804 220.79C96.6805 223.499 85.5134 225.745 76.1118 224.189C75.5152 224.09 75.0558 223.616 74.9599 223.019C73.6365 214.777 73.1113 206.165 69.9326 202.441C68.7973 201.11 67.3808 200.838 65.3906 200.838" stroke="black" stroke-width="1.31074"/>
<path d="M76.4492 197.239C76.5167 197.21 76.5957 197.236 76.6328 197.299C76.6696 197.363 76.6536 197.443 76.5957 197.488C74.9748 198.733 70.4833 201.215 65.4307 201.215C60.3761 201.215 56.2886 198.732 54.8682 197.482C54.8138 197.434 54.8037 197.353 54.8438 197.292C54.8838 197.232 54.9618 197.21 55.0273 197.242C56.7039 198.046 61.1259 199.921 65.4307 199.921C69.7371 199.921 74.5659 198.044 76.4492 197.239Z" fill="black" stroke="black" stroke-width="0.291275" stroke-linecap="round" stroke-linejoin="round"/>
<path d="M103.653 156.167C98.2649 145.682 87.7754 136.583 82.2445 133.449L79.2884 134.756C79.5636 135.068 82.2633 136.321 86.4694 141.823C92.3659 149.536 96.0775 161.429 96.954 169.536C97.5286 174.851 96.9814 177.569 96.5356 179.785L96.5171 179.876C96.0681 182.108 98.0614 191.763 98.4116 195.226C101.509 195.496 103.883 194.368 106.746 190.872C111.228 184.449 109.731 167.992 103.653 156.167Z" fill="#54495A"/>
<g filter="url(#filter8_i_142_13678)">
<path d="M98.4134 195.227C101.511 195.496 103.885 194.368 106.747 190.872C110.209 185.911 110.104 174.964 107.077 164.788C102.006 164.089 97.9256 165.759 96.5189 166.682C97.6852 172.07 96.9678 177.644 96.5189 179.876C96.0699 182.108 98.0632 191.763 98.4134 195.227Z" fill="white"/>
</g>
<path d="M100.487 180.707C99.8367 183.899 98.2272 186.578 97.2422 187.07C97.3878 187.701 97.4752 188.905 97.8247 191.002C99.5443 188.669 101.057 184.16 100.964 180.708C100.955 180.377 100.553 180.383 100.487 180.707Z" fill="black"/>
<path d="M96.2227 166.68C97.8732 165.807 102.31 164.205 106.854 164.787" stroke="black" stroke-width="1.31074"/>
<path d="M38.0213 201.773C39.581 202.149 40.6549 202.446 41.8511 202.757L38.083 216.115L34.697 215.852L26.7069 213.063L28.6267 205.129L38.0213 201.773Z" fill="#54495A"/>
<path d="M38.0213 201.773C39.581 202.149 40.6549 202.446 41.8511 202.757L38.083 216.115L34.697 215.852M38.0213 201.773L28.6267 205.129L26.7069 213.063L34.697 215.852M38.0213 201.773L34.697 215.852" stroke="black" stroke-width="0.861316" stroke-linejoin="round"/>
<path d="M27.455 204.846C28.7873 202.066 31.0064 200.462 31.8183 200.05C32.4476 200.273 36.4572 201.287 39.6569 202.161C37.7584 202.061 35.6624 205.189 34.8517 206.765C33.5805 206.4 28.5095 205.111 27.455 204.846Z" fill="#473E4C" stroke="black" stroke-width="0.861316" stroke-linejoin="round"/>
<circle cx="32.2098" cy="204.012" r="0.807483" fill="black"/>
<path d="M27.2139 156.166C32.6023 145.681 43.0918 136.581 48.6226 133.448L51.5788 134.754C51.3036 135.067 46.5701 135.606 43.52 141.824C39.7334 149.543 34.7897 161.427 33.9132 169.535C33.3386 174.85 33.8858 177.568 34.3316 179.783L34.3501 179.875C34.7991 182.107 32.8058 191.762 32.4555 195.225C29.3584 195.495 26.984 194.367 24.1216 190.87C19.6394 184.448 21.1364 167.991 27.2139 156.166Z" fill="#54495A"/>
<g filter="url(#filter9_i_142_13678)">
<path d="M32.4537 195.225C29.3566 195.494 26.9823 194.367 24.1198 190.87C20.6578 185.909 20.7629 174.962 23.7907 164.787C28.8607 164.087 32.9416 165.757 34.3483 166.68C33.1819 172.068 33.8994 177.642 34.3483 179.874C34.7973 182.107 32.804 191.761 32.4537 195.225Z" fill="white"/>
</g>
<path d="M30.3726 180.706C31.0227 183.898 32.6322 186.576 33.6172 187.069C33.4716 187.7 33.3842 188.904 33.0346 191.001C31.3151 188.667 29.8027 184.158 29.8953 180.707C29.9041 180.376 30.3066 180.381 30.3726 180.706Z" fill="black"/>
<path d="M34.6367 166.679C32.9862 165.805 28.5491 164.203 24.0052 164.786" stroke="black" stroke-width="1.31074"/>
<path d="M33.4624 171.508C35.1234 158.591 41.379 145.378 43.5829 141.434C42.2422 145.255 38.5032 154.705 35.6512 165.769C34.3045 170.993 34.357 175.655 35.3604 180.127L34.5417 181.583C33.7737 178.729 33.3104 175.317 33.4624 171.508Z" fill="black" stroke="black" stroke-width="0.291275"/>
<path d="M97.8306 171.508C96.1695 158.591 89.9139 145.378 87.7101 141.434C89.0508 145.255 92.8023 154.56 95.6543 165.624C96.9993 170.841 96.658 176.118 95.6543 180.626L96.5287 182.367C97.4275 179.362 97.9968 175.672 97.8306 171.508Z" fill="black" stroke="black" stroke-width="0.291275"/>
<path d="M82.2539 133.233C87.7944 136.366 99.0291 146.38 103.954 156.844C110.11 169.925 111.09 184.236 106.746 190.836C104.246 194.314 101.522 195.403 98.4197 195.133C97.5458 188.288 96.5264 182.756 96.2351 180.861" stroke="black" stroke-width="1.31074"/>
<path d="M48.6172 133.231C43.0767 136.364 31.842 146.378 26.9172 156.842C20.7612 169.923 19.781 184.234 24.1251 190.834C26.6248 194.312 29.3486 195.401 32.4514 195.131C33.3253 188.286 34.4847 182.168 34.7759 180.272" stroke="black" stroke-width="1.31074"/>
<g filter="url(#filter10_i_142_13678)">
<path d="M126.861 74.1544C125.918 68.3964 120.667 66.5016 118.16 66.2739C119.731 70.143 120.329 75.7097 120.387 81.4249C120.329 87.14 119.731 92.7067 118.16 96.5758C120.667 96.3481 125.918 94.4533 126.861 88.6953C127.156 86.3911 127.248 83.6849 127.256 81.4249C127.248 79.1648 127.156 76.4586 126.861 74.1544Z" fill="#ECF2FF"/>
</g>
<path d="M118.219 65.6284C119.571 65.7512 121.621 66.3154 123.469 67.6099C125.274 68.8747 126.892 70.8446 127.449 73.7642L127.5 74.0493L127.502 74.061L127.503 74.0718C127.803 76.4149 127.896 79.152 127.904 81.4224V81.4272C127.896 83.6977 127.803 86.4347 127.503 88.7778L127.502 88.7886L127.5 88.8003C126.996 91.8774 125.332 93.9341 123.469 95.2397C121.621 96.5342 119.571 97.0984 118.219 97.2212L117.16 97.3169L117.56 96.3325C119.081 92.584 119.681 87.1241 119.739 81.4312L119.722 80.3657C119.603 75.0571 118.987 70.0338 117.56 66.5171L117.16 65.5327L118.219 65.6284Z" stroke="black" stroke-width="1.29539"/>
<g filter="url(#filter11_i_142_13678)">
<path d="M4.15101 74.1544C5.09416 68.3964 10.3444 66.5016 12.8516 66.2739C11.2808 70.143 10.6829 75.7097 10.625 81.4249C10.6829 87.14 11.2808 92.7067 12.8516 96.5758C10.3444 96.3481 5.09416 94.4533 4.15101 88.6953C3.85544 86.3911 3.76343 83.6849 3.75534 81.4249C3.76343 79.1648 3.85544 76.4586 4.15101 74.1544Z" fill="#ECF2FF"/>
</g>
<path d="M12.793 65.6284C11.4409 65.7512 9.39037 66.3154 7.54297 67.6099C5.73789 68.8747 4.12013 70.8446 3.5625 73.7642L3.51172 74.0493L3.50977 74.061L3.50879 74.0718C3.20823 76.4149 3.11555 79.152 3.10742 81.4224V81.4272C3.11555 83.6977 3.20823 86.4347 3.50879 88.7778L3.50977 88.7886L3.51172 88.8003C4.01584 91.8774 5.67972 93.9341 7.54297 95.2397C9.39037 96.5342 11.4409 97.0984 12.793 97.2212L13.8516 97.3169L13.4521 96.3325C11.9304 92.584 11.3309 87.1241 11.2725 81.4312L11.29 80.3657C11.4089 75.0571 12.0245 70.0338 13.4521 66.5171L13.8516 65.5327L12.793 65.6284Z" stroke="black" stroke-width="1.29539"/>
<circle cx="65.0985" cy="81.7318" r="55.3165" fill="#181F2D" stroke="black" stroke-width="1.29539"/>
<path d="M65.0663 28.0693C87.0624 28.0693 102.777 39.8718 111.988 55.5603C94.1406 33.6827 72.7177 31.9144 65.0663 31.9144C57.415 31.9144 35.9921 33.6827 18.1445 55.5603C27.3562 39.8718 43.0703 28.0693 65.0663 28.0693Z" fill="#ECF2FF"/>
<path d="M65.0685 130.164C39.3164 130.164 22.251 112.791 15.8438 103.057C27.5493 130.164 53.671 135.586 65.0685 135.586C76.4659 135.586 102.588 130.164 114.293 103.057C107.886 112.791 90.8206 130.164 65.0685 130.164Z" fill="#ECF2FF"/>
<path d="M64.6544 33.252C33.8736 33.252 17.3591 56.3837 13.25 67.9395C18.1398 58.1171 35.2664 38.7601 64.6544 38.7601C94.0424 38.7601 111.765 57.2545 116.737 66.7881C112.419 55.9932 95.4351 33.252 64.6544 33.252Z" fill="#ECF2FF"/>
<g filter="url(#filter12_i_142_13678)">
<path d="M65.2136 128.967C91.5583 128.93 118.037 108.506 118.037 81.4717C118.037 61.4814 94.7905 40.0519 65.2136 40.0171C35.6368 40.0519 12.3906 61.4814 12.3906 81.4717C12.3906 108.506 38.869 128.93 65.2136 128.967Z" fill="#150D41"/>
</g>
<path d="M24.5945 65.5462C18.4828 75.001 19.1028 88.2138 20.5651 96.3372C20.7822 97.5434 22.2668 97.467 22.4728 96.2588C23.5683 89.8371 25.97 79.7038 32.6545 69.8627C39.8214 59.3113 49.2771 51.9848 55.5889 48.5667C56.6271 48.0045 56.3901 46.6747 55.2198 46.8311C46.974 47.9334 32.1584 53.8447 24.5945 65.5462Z" fill="#EBF6FE" fill-opacity="0.53"/>
<ellipse cx="102.213" cy="82.5672" rx="7.78347" ry="9.76022" transform="rotate(9.58766 102.213 82.5672)" fill="#EBF6FE" fill-opacity="0.53"/>
<ellipse cx="92.9326" cy="101.381" rx="4.05269" ry="4.51309" transform="rotate(8.43644 92.9326 101.381)" fill="#EBF6FE" fill-opacity="0.53"/>
<path d="M0.84375 57.5011C4.9216 60.7052 8.27126 63.181 11.9122 65.5112C27.4121 57.1771 70.2919 45.5287 117.811 65.6077C122.597 62.1615 127.548 57.5011 130.752 54.734C127.84 53.2776 120.178 48.7965 116.771 47.889C117.594 46.6923 120.558 40.8985 122.888 35.9468C115.46 33.7622 109.781 33.1797 103.936 32.7111C105.968 25.3811 107.711 21.3422 109.163 18.3503C100.799 17.1536 92.0289 19.3476 88.6892 20.5942L83.0262 2.49365L68.3606 15.3585L52.969 0.848145L43.5307 18.7991L25.3802 10.1228L24.2186 31.2152L4.76123 32.4119C6.50367 35.8525 11.1909 44.1374 13.5142 48.326C7.2518 53.5689 5.35851 54.0058 0.84375 57.5011Z" fill="#F6CF32"/>
<path d="M4.62922 57.7924L12.4936 63.9092L11.9111 65.5112L0.988281 57.7924L13.3675 48.1803L4.62922 32.4515L24.4359 31.1407L25.7466 10.1689L43.5144 18.6159L53.1265 0.848145L68.2728 15.4119L82.9822 2.59579C84.3415 6.47946 87.3924 15.5112 88.7218 20.569C96.2263 18.0536 105.402 18.1218 109.051 18.4703C108.032 21.0918 105.585 27.6163 103.954 32.7428C111.061 32.9758 119.44 34.9759 122.741 35.9468L116.624 48.0347L120.265 49.1998L130.751 54.8797L127.402 57.7924L117.935 65.3655L126.673 54.8797L114.294 48.6172L119.392 37.5488L101.187 34.9273L103.954 20.569L86.6231 23.7132L80.7976 9.00384L67.9815 19.0528L54.0003 6.96492L44.3882 21.9656L28.2225 15.2663L26.3292 32.8884L8.56143 34.4904L16.1346 48.4716L4.62922 57.7924Z" fill="#FFE785"/>
<path d="M11.9122 65.5112C8.27126 63.181 4.9216 60.7051 0.84375 57.5011C5.35851 54.0058 7.2518 53.5689 13.5142 48.326C11.1909 44.1374 6.50367 35.8525 4.76123 32.4119L24.2186 31.2152L25.3802 10.1228L43.5307 18.7991L52.969 0.848145L68.3606 15.3585L83.0262 2.49365L88.6892 20.5942C92.0289 19.3476 100.799 17.1536 109.163 18.3503C108.179 21.383 106.577 25.4609 103.936 32.7111C109.781 33.1797 115.46 33.7622 122.888 35.9468C120.558 40.8985 117.594 46.6923 116.771 47.8891C120.178 48.7965 127.84 53.2776 130.752 54.734C127.548 57.5011 122.597 62.1615 117.811 65.6077" stroke="black" stroke-width="1.03985" stroke-linecap="square"/>
<g filter="url(#filter13_i_142_13678)">
<path d="M12.4961 65.9537C13.7907 59.4322 19.4006 50.302 21.846 47.6934C40.2581 36.2444 91.3228 37.5487 108.296 47.6934C111.893 52.9106 115.345 58.7076 117.646 66.9682C90.3159 55.0844 37.0935 56.2438 12.4961 65.9537Z" fill="#56495A"/>
</g>
<path d="M65.6152 39.0757C74.2351 39.1574 82.8151 39.9164 90.3105 41.2925C97.5611 42.6237 103.837 44.5395 108.151 47.0063L108.563 47.2476L108.66 47.3052L108.725 47.3979C112.338 52.6406 115.825 58.4915 118.147 66.8286L118.44 67.8804L117.439 67.4448C103.87 61.5444 83.814 58.8652 64.0469 58.8833C44.2806 58.9014 24.8989 61.6161 12.6865 66.437L11.8008 66.7876L11.9863 65.8521C12.649 62.5145 14.4042 58.5472 16.2832 55.1069C18.1609 51.6689 20.1997 48.6891 21.4668 47.3374L21.5137 47.2876L21.5713 47.2515C26.2568 44.338 32.9766 42.2583 40.6455 40.9243C48.3239 39.5887 56.9956 38.9939 65.6152 39.0757Z" stroke="black" stroke-width="1.03985"/>
<mask id="mask1_142_13678" style="mask-type:alpha" maskUnits="userSpaceOnUse" x="11" y="39" width="108" height="28">
<path d="M65.6777 39.981C74.3545 40.0626 82.9813 40.8202 90.5029 42.1909C97.9776 43.553 104.32 45.5137 108.538 47.9888C111.983 52.9581 115.274 58.4392 117.562 66.0659C103.664 60.352 83.6911 57.7835 64.0986 57.8013C44.5058 57.8191 25.2017 60.424 12.6299 65.1167C13.3874 62.115 14.9541 58.6463 16.6582 55.5493C18.5206 52.1647 20.5088 49.2897 21.707 48.0024C26.2831 45.1964 32.9096 43.1489 40.585 41.8237C48.2853 40.4943 57.0008 39.8993 65.6777 39.981Z" fill="#56495A" stroke="black" stroke-width="1.03985"/>
</mask>
<g mask="url(#mask1_142_13678)">
<g filter="url(#filter14_i_142_13678)">
<path d="M39.8711 61.1425L44.7024 38.5687L48.9833 38.1175C58.9987 37.0619 69.0966 37.0479 79.1148 38.0759L83.9176 38.5687L90.2617 61.1425H39.8711Z" fill="#D4D2E7"/>
</g>
<path d="M39.8711 61.1425L44.7024 38.5687L48.9833 38.1175C58.9987 37.0619 69.0966 37.0479 79.1148 38.0759L83.9176 38.5687L90.2617 61.1425H39.8711Z" stroke="black" stroke-width="1.03985"/>
<rect x="65.2109" y="39.0776" width="3.59748" height="21.5216" transform="rotate(-18.9286 65.2109 39.0776)" fill="#F4F3FF" fill-opacity="0.39"/>
<rect x="72.2031" y="39.8818" width="3.59748" height="21.5216" transform="rotate(-18.9286 72.2031 39.8818)" fill="#F4F3FF" fill-opacity="0.39"/>
<rect x="44.8203" y="39.5903" width="3.59748" height="21.5216" transform="rotate(-18.9286 44.8203 39.5903)" fill="#F4F3FF" fill-opacity="0.42"/>
<path d="M11.9083 65.5122C8.26736 63.182 4.91769 60.7061 0.839844 57.5021C5.35461 54.0068 7.24789 53.5699 13.5103 48.3269C11.187 44.1384 6.49977 35.8535 4.75732 32.4129L24.2147 31.2162L25.3763 10.1238L43.5268 18.8001L52.9651 0.849121L68.3567 15.3595L83.0223 2.49463L88.6853 20.5952C92.025 19.3486 100.795 17.1546 109.159 18.3513C107.707 21.3432 105.965 25.3821 103.932 32.7121C109.777 33.1806 115.457 33.7632 122.884 35.9478C120.554 40.8994 117.59 46.6933 116.767 47.89C120.175 48.7975 127.836 53.2786 130.748 54.735C127.544 57.5021 122.593 62.1625 117.807 65.6087" stroke="black" stroke-width="1.03985" stroke-linejoin="round"/>
<path d="M75.9871 47.2019L72.0037 48.2976C71.2527 46.2727 68.6886 42.269 64.4403 42.4539C59.1299 42.6851 57.9932 47.3476 58.8006 50.297C59.6081 53.2465 62.8117 56.4294 66.6443 55.2126C70.4768 53.9958 70.3622 50.1676 69.0227 48.2721C67.6833 46.3765 64.9996 44.9241 62.8055 46.9405C61.4957 48.1443 61.8424 51.9997 65.5481 51.4658" stroke="black" stroke-width="1.1651" stroke-linecap="round" stroke-linejoin="round"/>
<path d="M58.4233 48.3121L54.4466 52.1164L59.6577 52.2889" stroke="black" stroke-width="1.1651" stroke-linecap="round" stroke-linejoin="round"/>
<circle cx="48.0272" cy="43.3754" r="1.52919" stroke="black" stroke-width="1.01946"/>
<circle cx="46.5702" cy="49.4906" r="1.52919" stroke="black" stroke-width="1.01946"/>
<circle cx="45.1092" cy="55.6078" r="1.52919" stroke="black" stroke-width="1.01946"/>
<circle cx="2.03892" cy="2.03892" r="1.52919" transform="matrix(-1 0 0 1 83.2617 41.3364)" stroke="black" stroke-width="1.01946"/>
<circle cx="2.03892" cy="2.03892" r="1.52919" transform="matrix(-1 0 0 1 84.7188 47.4517)" stroke="black" stroke-width="1.01946"/>
<circle cx="2.03892" cy="2.03892" r="1.52919" transform="matrix(-1 0 0 1 86.1797 53.5688)" stroke="black" stroke-width="1.01946"/>
</g>
<g filter="url(#filter15_d_142_13678)">
<path d="M33.4581 41.6575L35.54 36.5439L50.1376 35.8791C43.2091 39.6901 40.101 45.0448 39.0344 46.4471C38.1811 47.5688 34.2436 55.2327 32.3815 58.9244C32.1239 57.8204 31.6514 54.9297 31.8217 52.1986C31.992 49.4676 33.1705 43.6523 33.4581 41.6575Z" fill="#F6CF32"/>
<path d="M35.1262 53.5685C33.8877 48.48 34.0942 42.6198 35.1262 39.1504C34.2658 40.2587 33.7602 43.6549 32.4286 47.7909C31.0969 51.927 31.9507 56.8613 32.544 58.8115C32.9744 58.4741 34.0934 54.9563 35.1262 53.5685Z" fill="#FFE785"/>
<path d="M34.4235 39.4766C31.592 46.1418 31.2012 53.8689 32.3907 59.1127C35.8476 52.2383 40.7155 41.3551 48.4568 36.7532" stroke="black" stroke-width="1.16293" stroke-linecap="round" stroke-linejoin="round"/>
</g>
<path d="M102.496 35.3647L96.6701 37.9862L87.6406 39.4426C88.6601 41.3844 91.1942 46.4332 93.1748 51.0936C95.1555 55.754 96.3303 62.4533 96.6701 65.2204L98.1265 62.599C99.3402 65.7059 102.204 73.1722 103.952 78.1822C105.7 75.2694 108.273 65.9486 108.467 62.599L109.049 54.8802V41.7728L107.01 35.656L102.496 35.3647Z" fill="#F6CF32"/>
<path d="M102.064 71.4822C104.54 66.3849 108.327 43.5198 107.161 36.3836C107.89 37.9856 108.968 43.9526 109.2 48.1802C109.433 52.4079 110.511 64.2003 104.103 78.1815C103.904 77.8144 102.47 72.9414 102.064 71.4822Z" fill="#FFE785"/>
<path d="M95.8009 59.8312C97.1253 54.8298 97.7865 46.0407 97.6391 42.5004C98.7141 43.3742 99.3555 46.574 99.5879 50.8017C99.8204 55.0294 97.686 63.3112 97.112 65.2198C96.9129 64.8527 96.2069 61.2904 95.8009 59.8312Z" fill="#FFE785"/>
<path d="M107.152 36.2388C109.822 42.1128 111.375 64.0555 103.802 78.9106C102.928 72.3569 99.8698 66.0945 97.9766 62.4535" stroke="black" stroke-width="1.06562" stroke-linecap="round" stroke-linejoin="round"/>
<path d="M98.131 42.3553C99.5874 48.1808 100.483 56.9138 96.719 65.9133C96.529 58.3754 90.8491 43.2291 88.082 40.8989" stroke="black" stroke-width="1.06562" stroke-linecap="round" stroke-linejoin="round"/>
<defs>
<filter id="filter0_f_142_13678" x="6.30145" y="218.925" width="117.932" height="26.3258" filterUnits="userSpaceOnUse" color-interpolation-filters="sRGB">
<feFlood flood-opacity="0" result="BackgroundImageFix"/>
<feBlend mode="normal" in="SourceGraphic" in2="BackgroundImageFix" result="shape"/>
<feGaussianBlur stdDeviation="0.800449" result="effect1_foregroundBlur_142_13678"/>
</filter>
<filter id="filter1_i_142_13678" x="31.1328" y="133.379" width="68.7422" height="68.7407" filterUnits="userSpaceOnUse" color-interpolation-filters="sRGB">
<feFlood flood-opacity="0" result="BackgroundImageFix"/>
<feBlend mode="normal" in="SourceGraphic" in2="BackgroundImageFix" result="shape"/>
<feColorMatrix in="SourceAlpha" type="matrix" values="0 0 0 0 0 0 0 0 0 0 0 0 0 0 0 0 0 0 127 0" result="hardAlpha"/>
<feOffset dx="-4.36912" dy="-9.02952"/>
<feComposite in2="hardAlpha" operator="arithmetic" k2="-1" k3="1"/>
<feColorMatrix type="matrix" values="0 0 0 0 0.843137 0 0 0 0 0.866667 0 0 0 0 0.917647 0 0 0 1 0"/>
<feBlend mode="normal" in2="shape" result="effect1_innerShadow_142_13678"/>
</filter>
<filter id="filter2_i_142_13678" x="26.2422" y="221.426" width="28.6914" height="15.6123" filterUnits="userSpaceOnUse" color-interpolation-filters="sRGB">
<feFlood flood-opacity="0" result="BackgroundImageFix"/>
<feBlend mode="normal" in="SourceGraphic" in2="BackgroundImageFix" result="shape"/>
<feColorMatrix in="SourceAlpha" type="matrix" values="0 0 0 0 0 0 0 0 0 0 0 0 0 0 0 0 0 0 127 0" result="hardAlpha"/>
<feOffset dx="3.4953" dy="-3.78657"/>
<feComposite in2="hardAlpha" operator="arithmetic" k2="-1" k3="1"/>
<feColorMatrix type="matrix" values="0 0 0 0 0.368627 0 0 0 0 0.329412 0 0 0 0 0.403922 0 0 0 1 0"/>
<feBlend mode="normal" in2="shape" result="effect1_innerShadow_142_13678"/>
</filter>
<filter id="filter3_i_142_13678" x="75.9102" y="221.426" width="28.6914" height="15.6123" filterUnits="userSpaceOnUse" color-interpolation-filters="sRGB">
<feFlood flood-opacity="0" result="BackgroundImageFix"/>
<feBlend mode="normal" in="SourceGraphic" in2="BackgroundImageFix" result="shape"/>
<feColorMatrix in="SourceAlpha" type="matrix" values="0 0 0 0 0 0 0 0 0 0 0 0 0 0 0 0 0 0 127 0" result="hardAlpha"/>
<feOffset dx="-2.3302" dy="-3.78657"/>
<feComposite in2="hardAlpha" operator="arithmetic" k2="-1" k3="1"/>
<feColorMatrix type="matrix" values="0 0 0 0 0.368505 0 0 0 0 0.328385 0 0 0 0 0.404167 0 0 0 1 0"/>
<feBlend mode="normal" in2="shape" result="effect1_innerShadow_142_13678"/>
</filter>
<filter id="filter4_i_142_13678" x="30.8477" y="132.685" width="69.0508" height="92.0684" filterUnits="userSpaceOnUse" color-interpolation-filters="sRGB">
<feFlood flood-opacity="0" result="BackgroundImageFix"/>
<feBlend mode="normal" in="SourceGraphic" in2="BackgroundImageFix" result="shape"/>
<feColorMatrix in="SourceAlpha" type="matrix" values="0 0 0 0 0 0 0 0 0 0 0 0 0 0 0 0 0 0 127 0" result="hardAlpha"/>
<feOffset dy="-5.24295"/>
<feComposite in2="hardAlpha" operator="arithmetic" k2="-1" k3="1"/>
<feColorMatrix type="matrix" values="0 0 0 0 1 0 0 0 0 0.854167 0 0 0 0 0.270833 0 0 0 1 0"/>
<feBlend mode="normal" in2="shape" result="effect1_innerShadow_142_13678"/>
</filter>
<filter id="filter5_i_142_13678" x="31.1289" y="182.374" width="69.0508" height="42.3794" filterUnits="userSpaceOnUse" color-interpolation-filters="sRGB">
<feFlood flood-opacity="0" result="BackgroundImageFix"/>
<feBlend mode="normal" in="SourceGraphic" in2="BackgroundImageFix" result="shape"/>
<feColorMatrix in="SourceAlpha" type="matrix" values="0 0 0 0 0 0 0 0 0 0 0 0 0 0 0 0 0 0 127 0" result="hardAlpha"/>
<feOffset dy="-5.24295"/>
<feComposite in2="hardAlpha" operator="arithmetic" k2="-1" k3="1"/>
<feColorMatrix type="matrix" values="0 0 0 0 0.894231 0 0 0 0 0.529012 0 0 0 0 0.10232 0 0 0 1 0"/>
<feBlend mode="normal" in2="shape" result="effect1_innerShadow_142_13678"/>
</filter>
<filter id="filter6_d_142_13678" x="30.3906" y="178.029" width="70.5273" height="18.1612" filterUnits="userSpaceOnUse" color-interpolation-filters="sRGB">
<feFlood flood-opacity="0" result="BackgroundImageFix"/>
<feColorMatrix in="SourceAlpha" type="matrix" values="0 0 0 0 0 0 0 0 0 0 0 0 0 0 0 0 0 0 127 0" result="hardAlpha"/>
<feOffset dy="1.74765"/>
<feComposite in2="hardAlpha" operator="out"/>
<feColorMatrix type="matrix" values="0 0 0 0 0 0 0 0 0 0 0 0 0 0 0 0 0 0 0.12 0"/>
<feBlend mode="normal" in2="BackgroundImageFix" result="effect1_dropShadow_142_13678"/>
<feBlend mode="normal" in="SourceGraphic" in2="effect1_dropShadow_142_13678" result="shape"/>
</filter>
<filter id="filter7_i_142_13678" x="28.3008" y="198.58" width="33.7969" height="18.6436" filterUnits="userSpaceOnUse" color-interpolation-filters="sRGB">
<feFlood flood-opacity="0" result="BackgroundImageFix"/>
<feBlend mode="normal" in="SourceGraphic" in2="BackgroundImageFix" result="shape"/>
<feColorMatrix in="SourceAlpha" type="matrix" values="0 0 0 0 0 0 0 0 0 0 0 0 0 0 0 0 0 0 127 0" result="hardAlpha"/>
<feOffset dx="-13.7676" dy="-2.01476"/>
<feComposite in2="hardAlpha" operator="arithmetic" k2="-1" k3="1"/>
<feColorMatrix type="matrix" values="0 0 0 0 0 0 0 0 0 0 0 0 0 0 0 0 0 0 0.15 0"/>
<feBlend mode="normal" in2="shape" result="effect1_innerShadow_142_13678"/>
</filter>
<filter id="filter8_i_142_13678" x="96.4531" y="164.622" width="12.8945" height="30.6426" filterUnits="userSpaceOnUse" color-interpolation-filters="sRGB">
<feFlood flood-opacity="0" result="BackgroundImageFix"/>
<feBlend mode="normal" in="SourceGraphic" in2="BackgroundImageFix" result="shape"/>
<feColorMatrix in="SourceAlpha" type="matrix" values="0 0 0 0 0 0 0 0 0 0 0 0 0 0 0 0 0 0 127 0" result="hardAlpha"/>
<feOffset dx="-2.03892" dy="-5.24295"/>
<feComposite in2="hardAlpha" operator="arithmetic" k2="-1" k3="1"/>
<feColorMatrix type="matrix" values="0 0 0 0 0.847059 0 0 0 0 0.847059 0 0 0 0 0.847059 0 0 0 1 0"/>
<feBlend mode="normal" in2="shape" result="effect1_innerShadow_142_13678"/>
</filter>
<filter id="filter9_i_142_13678" x="21.5195" y="164.62" width="12.8945" height="30.6426" filterUnits="userSpaceOnUse" color-interpolation-filters="sRGB">
<feFlood flood-opacity="0" result="BackgroundImageFix"/>
<feBlend mode="normal" in="SourceGraphic" in2="BackgroundImageFix" result="shape"/>
<feColorMatrix in="SourceAlpha" type="matrix" values="0 0 0 0 0 0 0 0 0 0 0 0 0 0 0 0 0 0 127 0" result="hardAlpha"/>
<feOffset dx="2.03892" dy="-5.24295"/>
<feComposite in2="hardAlpha" operator="arithmetic" k2="-1" k3="1"/>
<feColorMatrix type="matrix" values="0 0 0 0 0.847059 0 0 0 0 0.847059 0 0 0 0 0.847059 0 0 0 1 0"/>
<feBlend mode="normal" in2="shape" result="effect1_innerShadow_142_13678"/>
</filter>
<filter id="filter10_i_142_13678" x="116.16" y="64.7915" width="12.3906" height="33.2666" filterUnits="userSpaceOnUse" color-interpolation-filters="sRGB">
<feFlood flood-opacity="0" result="BackgroundImageFix"/>
<feBlend mode="normal" in="SourceGraphic" in2="BackgroundImageFix" result="shape"/>
<feColorMatrix in="SourceAlpha" type="matrix" values="0 0 0 0 0 0 0 0 0 0 0 0 0 0 0 0 0 0 127 0" result="hardAlpha"/>
<feOffset dx="-2.96513" dy="-5.68316"/>
<feComposite in2="hardAlpha" operator="arithmetic" k2="-1" k3="1"/>
<feColorMatrix type="matrix" values="0 0 0 0 0.843137 0 0 0 0 0.866667 0 0 0 0 0.917647 0 0 0 1 0"/>
<feBlend mode="normal" in2="shape" result="effect1_innerShadow_142_13678"/>
</filter>
<filter id="filter11_i_142_13678" x="2.46094" y="64.7915" width="12.3906" height="33.2666" filterUnits="userSpaceOnUse" color-interpolation-filters="sRGB">
<feFlood flood-opacity="0" result="BackgroundImageFix"/>
<feBlend mode="normal" in="SourceGraphic" in2="BackgroundImageFix" result="shape"/>
<feColorMatrix in="SourceAlpha" type="matrix" values="0 0 0 0 0 0 0 0 0 0 0 0 0 0 0 0 0 0 127 0" result="hardAlpha"/>
<feOffset dx="2.71803" dy="-5.68316"/>
<feComposite in2="hardAlpha" operator="arithmetic" k2="-1" k3="1"/>
<feColorMatrix type="matrix" values="0 0 0 0 0.843137 0 0 0 0 0.866667 0 0 0 0 0.917647 0 0 0 1 0"/>
<feBlend mode="normal" in2="shape" result="effect1_innerShadow_142_13678"/>
</filter>
<filter id="filter12_i_142_13678" x="12.3906" y="40.0171" width="105.645" height="88.9497" filterUnits="userSpaceOnUse" color-interpolation-filters="sRGB">
<feFlood flood-opacity="0" result="BackgroundImageFix"/>
<feBlend mode="normal" in="SourceGraphic" in2="BackgroundImageFix" result="shape"/>
<feColorMatrix in="SourceAlpha" type="matrix" values="0 0 0 0 0 0 0 0 0 0 0 0 0 0 0 0 0 0 127 0" result="hardAlpha"/>
<feOffset dx="-0.287864" dy="-14.3932"/>
<feComposite in2="hardAlpha" operator="arithmetic" k2="-1" k3="1"/>
<feColorMatrix type="matrix" values="0 0 0 0 0.133333 0 0 0 0 0.0588235 0 0 0 0 0.278431 0 0 0 1 0"/>
<feBlend mode="normal" in2="shape" result="effect1_innerShadow_142_13678"/>
</filter>
<filter id="filter13_i_142_13678" x="11.1055" y="38.5483" width="108.129" height="30.2441" filterUnits="userSpaceOnUse" color-interpolation-filters="sRGB">
<feFlood flood-opacity="0" result="BackgroundImageFix"/>
<feBlend mode="normal" in="SourceGraphic" in2="BackgroundImageFix" result="shape"/>
<feColorMatrix in="SourceAlpha" type="matrix" values="0 0 0 0 0 0 0 0 0 0 0 0 0 0 0 0 0 0 127 0" result="hardAlpha"/>
<feOffset dy="2.3302"/>
<feComposite in2="hardAlpha" operator="arithmetic" k2="-1" k3="1"/>
<feColorMatrix type="matrix" values="0 0 0 0 0.521569 0 0 0 0 0.478431 0 0 0 0 0.541176 0 0 0 1 0"/>
<feBlend mode="normal" in2="shape" result="effect1_innerShadow_142_13678"/>
</filter>
<filter id="filter14_i_142_13678" x="39.2266" y="36.7954" width="51.7227" height="24.8672" filterUnits="userSpaceOnUse" color-interpolation-filters="sRGB">
<feFlood flood-opacity="0" result="BackgroundImageFix"/>
<feBlend mode="normal" in="SourceGraphic" in2="BackgroundImageFix" result="shape"/>
<feColorMatrix in="SourceAlpha" type="matrix" values="0 0 0 0 0 0 0 0 0 0 0 0 0 0 0 0 0 0 127 0" result="hardAlpha"/>
<feOffset dy="4.07785"/>
<feComposite in2="hardAlpha" operator="arithmetic" k2="-1" k3="1"/>
<feColorMatrix type="matrix" values="0 0 0 0 0.957372 0 0 0 0 0.952884 0 0 0 0 1 0 0 0 1 0"/>
<feBlend mode="normal" in2="shape" result="effect1_innerShadow_142_13678"/>
</filter>
<filter id="filter15_d_142_13678" x="31.1797" y="35.8789" width="19.5396" height="25.5631" filterUnits="userSpaceOnUse" color-interpolation-filters="sRGB">
<feFlood flood-opacity="0" result="BackgroundImageFix"/>
<feColorMatrix in="SourceAlpha" type="matrix" values="0 0 0 0 0 0 0 0 0 0 0 0 0 0 0 0 0 0 127 0" result="hardAlpha"/>
<feOffset dx="0.58255" dy="1.74765"/>
<feComposite in2="hardAlpha" operator="out"/>
<feColorMatrix type="matrix" values="0 0 0 0 0 0 0 0 0 0 0 0 0 0 0 0 0 0 0.2 0"/>
<feBlend mode="normal" in2="BackgroundImageFix" result="effect1_dropShadow_142_13678"/>
<feBlend mode="normal" in="SourceGraphic" in2="effect1_dropShadow_142_13678" result="shape"/>
</filter>
</defs>
</svg>
