<svg width="203" height="277" viewBox="0 0 203 277" fill="none" xmlns="http://www.w3.org/2000/svg">
<g filter="url(#filter0_i_323_674)">
<rect x="56.5938" y="152.621" width="81.9414" height="81.9414" rx="15.2772" fill="#ECF2FF"/>
</g>
<rect x="57.375" y="153.402" width="80.3789" height="80.3789" rx="14.496" stroke="black" stroke-width="1.56244"/>
<g filter="url(#filter1_i_323_674)">
<path d="M51.7482 271.204C50.1975 266.55 57.9848 258.785 58.6364 258.358L84.1334 258.358C84.1179 258.868 84.2544 264.689 84.1334 268.67C83.9821 273.646 76.3693 274.888 69.0024 275.275C61.4519 275.673 53.1404 275.383 51.7482 271.204Z" fill="#3D3B43"/>
</g>
<path d="M51.7482 271.204C50.1975 266.55 57.9848 258.785 58.6364 258.358L84.1334 258.358C84.1179 258.868 84.2544 264.689 84.1334 268.67C83.9821 273.646 76.3693 274.888 69.0024 275.275C61.4519 275.673 53.1404 275.383 51.7482 271.204Z" stroke="black" stroke-width="1.56244" stroke-linejoin="round"/>
<g filter="url(#filter2_i_323_674)">
<path d="M143.189 271.204C144.74 266.55 136.953 258.785 136.301 258.358L110.804 258.358C110.82 258.868 110.683 264.689 110.804 268.67C110.955 273.646 118.568 274.888 125.935 275.275C133.486 275.673 141.797 275.383 143.189 271.204Z" fill="#3D3B43"/>
</g>
<path d="M143.189 271.204C144.74 266.55 136.953 258.785 136.301 258.358L110.804 258.358C110.82 258.868 110.683 264.689 110.804 268.67C110.955 273.646 118.568 274.888 125.935 275.275C133.486 275.673 141.797 275.383 143.189 271.204Z" stroke="black" stroke-width="1.56244" stroke-linejoin="round"/>
<path d="M63.1002 181.201C67.5535 168.122 74.1021 156.252 77.1444 151.795C81.7682 151.795 89.3808 151.816 97.519 151.816C105.657 151.815 113.635 151.961 117.983 151.961C121.025 156.418 127.419 168.563 131.75 181.198C136.391 196.017 136.115 204.716 134.413 215.294C98.3276 227.296 70.1855 220.295 60.6251 215.294C58.9235 204.716 58.6141 197.216 63.1002 181.201Z" fill="#0D2532"/>
<g filter="url(#filter3_i_323_674)">
<path d="M58.1814 229.245C58.9549 220.87 59.8629 212.009 60.4817 209.218C64.1773 214.483 76.2189 217.03 97.7822 217.03C117.71 217.03 129.552 214.598 134.269 209.218C134.888 212.009 136.577 220.994 137.35 229.368C138.124 237.743 139.052 243.62 138.897 256.255C136.01 258.802 126.245 263.272 109.539 260.686C108.765 255.544 107.528 247.903 106.754 244.524C105.933 240.934 105.207 235.708 102.114 233.798C100.721 233.064 98.5557 233.064 97.7822 233.064C97.0861 233.062 94.9978 233.064 93.6055 233.798C90.5117 235.708 89.6158 240.933 88.7943 244.522C88.0208 247.901 86.9538 255.544 86.1804 260.686C71.4688 263.475 58.3201 258.773 56.6184 256.423C56.4636 243.787 57.4079 237.619 58.1814 229.245Z" fill="#095FC1"/>
</g>
<mask id="mask0_323_674" style="mask-type:alpha" maskUnits="userSpaceOnUse" x="56" y="151" width="83" height="111">
<path d="M63.0891 181.2C67.5425 168.121 74.0911 156.251 77.1333 151.794C81.7572 151.794 89.3698 151.815 97.508 151.815C105.646 151.814 113.624 151.96 117.972 151.96C121.014 156.417 127.408 168.562 131.739 181.197C136.38 196.016 136.104 200.447 134.402 211.025C135.021 213.817 136.225 220.993 136.999 229.367C137.772 237.742 138.701 243.619 138.546 256.254C135.658 258.801 125.894 263.271 109.187 260.685C108.414 255.543 107.176 247.902 106.403 244.522C105.581 240.933 104.856 235.707 101.762 233.797C100.37 233.062 98.2041 233.062 97.4306 233.062C96.7345 233.061 94.6462 233.062 93.254 233.797C90.1602 235.707 89.2642 240.932 88.4427 244.521C87.6692 247.9 86.6023 255.543 85.8288 260.685C71.1173 263.474 57.9685 258.772 56.2668 256.422C56.112 243.786 57.0564 237.618 57.8298 229.244C58.6033 220.869 59.9953 213.817 60.6141 211.025C58.9125 200.447 58.6031 197.215 63.0891 181.2Z" fill="#2C61BF"/>
</mask>
<g mask="url(#mask0_323_674)">
<path d="M113.163 151.84L112.903 152.822V152.824L112.899 152.835C112.897 152.843 112.894 152.854 112.891 152.868C112.883 152.894 112.873 152.932 112.858 152.98C112.83 153.077 112.787 153.216 112.729 153.391C112.612 153.741 112.433 154.235 112.182 154.826C111.68 156.006 110.882 157.584 109.701 159.166C107.333 162.337 103.39 165.555 97.2158 165.555C92.2826 165.555 88.42 163.388 85.6895 160.734C82.9757 158.096 81.3301 154.929 80.833 152.799L80.6094 151.84H113.163Z" fill="#F5CC9C" stroke="black" stroke-width="1.56244"/>
</g>
<path d="M60.8741 208.593C59.3449 216.726 55.985 239.183 56.2667 255.819C56.2731 256.196 56.3948 256.561 56.6704 256.818C60.1272 260.048 73.4387 262.725 84.6457 260.871C85.357 260.753 85.9046 260.188 86.0189 259.476C87.5964 249.652 88.2224 239.386 92.0116 234.946C93.3649 233.36 95.0534 233.036 97.4258 233.036M134.198 208.593C135.727 216.726 138.872 239.183 138.586 255.819C138.579 256.196 138.457 256.561 138.182 256.818C134.725 260.048 121.413 262.725 110.206 260.871C109.495 260.753 108.947 260.188 108.833 259.476C107.256 249.652 106.63 239.386 102.841 234.946C101.487 233.36 99.7987 233.036 97.4263 233.036" stroke="black" stroke-width="1.56244"/>
<path d="M60.788 206.929C61.4154 207.833 62.9094 208.988 65.0728 210.093C67.2118 211.186 69.9305 212.191 72.9194 212.835C78.8474 214.113 87.0581 214.793 97.7751 214.851C107.668 214.904 115.428 214.34 121.244 213.14C124.164 212.537 126.746 211.685 128.836 210.713C130.934 209.736 132.499 208.655 133.421 207.615L133.969 206.996L134.409 207.697L136.115 210.413L136.362 210.806L136.054 211.154C133.176 214.402 128.417 216.471 122.196 217.754C115.916 219.05 107.784 219.616 97.7497 219.562C86.904 219.503 78.3192 218.819 71.9258 217.441C65.6567 216.089 60.945 213.96 58.5693 210.536L58.3765 210.258L58.5051 209.946L59.7063 207.045L60.1407 205.996L60.788 206.929Z" fill="#3D290E" stroke="black" stroke-width="1.23954"/>
<rect x="89.3099" y="213.111" width="17.2112" height="9.57256" rx="2.0086" fill="#6C411F" stroke="black" stroke-width="1.23954"/>
<path d="M110.626 228.746C110.706 228.711 110.799 228.742 110.844 228.817C110.888 228.892 110.869 228.989 110.8 229.042C108.867 230.527 103.514 233.486 97.4912 233.486C91.466 233.486 86.5946 230.525 84.9014 229.035C84.8363 228.977 84.8233 228.881 84.8711 228.809C84.9189 228.737 85.0127 228.711 85.0908 228.749C87.0895 229.707 92.36 231.944 97.4912 231.944C102.625 231.944 108.381 229.706 110.626 228.746Z" fill="black" stroke="black" stroke-width="0.347209" stroke-linecap="round" stroke-linejoin="round"/>
<g filter="url(#filter4_i_323_674)">
<path d="M51.9141 179.891C58.3373 167.393 70.8411 156.546 77.434 152.811L80.9579 154.368C80.6298 154.74 74.6487 157.83 71.3515 162.795C66.8378 171.996 60.9447 186.163 59.8999 195.827C59.215 202.163 59.8672 205.403 60.3987 208.044L60.4207 208.153C60.9559 210.814 58.5799 222.323 58.1623 226.451C54.4704 226.773 51.6401 225.428 48.228 221.26C42.8851 213.604 44.6696 193.987 51.9141 179.891Z" fill="#F5CC9C"/>
</g>
<g filter="url(#filter5_i_323_674)">
<path d="M58.1574 226.452C54.4655 226.774 51.6352 225.429 48.2231 221.261C44.0963 215.348 44.2216 202.298 47.8307 190.169C53.8744 189.336 58.7389 191.326 60.4158 192.426C59.0254 198.849 59.8806 205.494 60.4158 208.154C60.9509 210.815 58.5749 222.324 58.1574 226.452Z" fill="#0B624D"/>
</g>
<g filter="url(#filter6_i_323_674)">
<path d="M59.784 199.255C56.5933 196.651 48.7811 196.13 46.2266 197.111C46.5161 195.607 47.3922 191.756 48.0866 190.228C52.5309 189.395 58.5024 191.385 60.9327 192.485C60.7591 193.468 60.1876 196.568 59.784 199.255Z" fill="#67AF3F"/>
</g>
<path d="M59.784 199.255C56.5933 196.651 48.7811 196.13 46.2266 197.111C46.5161 195.607 47.3922 191.756 48.0866 190.228C52.5309 189.395 58.5024 191.385 60.9327 192.485C60.7591 193.468 60.1876 196.568 59.784 199.255Z" stroke="black" stroke-width="1.56244"/>
<path d="M55.687 209.145C56.462 212.95 58.3806 216.143 59.5547 216.73C59.3811 217.482 59.2769 218.917 58.8603 221.417C56.8105 218.635 55.0077 213.26 55.118 209.146C55.1286 208.751 55.6083 208.758 55.687 209.145Z" fill="black"/>
<path d="M60.7656 192.424C58.7981 191.382 53.509 189.473 48.0925 190.167" stroke="black" stroke-width="1.56244"/>
<path d="M77.4375 152.553C70.8331 156.287 57.441 168.225 51.5704 180.699C44.2322 196.291 43.0638 213.35 48.2422 221.218C51.2219 225.364 54.4687 226.662 58.1674 226.341C59.209 218.181 60.5911 210.887 60.9383 208.628" stroke="black" stroke-width="1.56244"/>
<g filter="url(#filter7_d_323_674)">
<path d="M54.5548 171.678C57.5532 172.518 63.2977 175.938 64.7642 179.358C69.9723 160.435 77.3213 156.153 80.7358 154.88C80.2147 154.706 78.4435 154.116 75.527 153.144C71.0675 154.002 64.0654 158.757 54.3554 171.093C54.1944 171.297 54.3043 171.608 54.5548 171.678Z" fill="#DEEBF9"/>
<path d="M75.7461 152.485C78.6622 153.457 80.4338 154.048 80.9551 154.221L82.8223 154.843L80.9785 155.531C77.8279 156.705 70.6001 160.771 65.4336 179.542L64.9072 181.455L64.126 179.632C63.4719 178.107 61.8036 176.489 59.8369 175.121C57.887 173.764 55.7716 172.74 54.3672 172.346C53.6679 172.15 53.3251 171.279 53.8096 170.664L54.7158 169.524C59.2098 163.935 63.1234 159.974 66.4746 157.273C70.0415 154.399 73.0104 152.921 75.3955 152.462L75.5742 152.428L75.7461 152.485Z" stroke="black" stroke-width="1.38884"/>
</g>
<g filter="url(#filter8_i_323_674)">
<path d="M143.398 179.891C136.975 167.393 124.471 156.546 117.878 152.811L114.355 154.368C114.683 154.74 119.961 156.789 123.961 162.795C128.475 171.996 134.368 186.163 135.413 195.827C136.098 202.163 135.445 205.403 134.914 208.044L134.892 208.153C134.357 210.814 136.733 222.323 137.15 226.451C140.842 226.773 143.672 225.428 147.084 221.26C152.427 213.604 150.643 193.987 143.398 179.891Z" fill="#F5CC9C"/>
</g>
<g filter="url(#filter9_i_323_674)">
<path d="M137.155 226.453C140.847 226.774 143.677 225.43 147.089 221.262C151.216 215.348 151.091 202.299 147.482 190.169C141.438 189.336 136.574 191.327 134.897 192.426C136.287 198.85 135.432 205.494 134.897 208.155C134.362 210.815 136.738 222.324 137.155 226.453Z" fill="#0B624D"/>
</g>
<g filter="url(#filter10_i_323_674)">
<path d="M135.529 199.255C138.719 196.651 146.531 196.13 149.086 197.111C148.796 195.607 147.92 191.756 147.226 190.228C142.782 189.395 136.81 191.385 134.38 192.485C134.553 193.468 135.125 196.568 135.529 199.255Z" fill="#67AF3F"/>
</g>
<path d="M135.529 199.255C138.719 196.651 146.531 196.13 149.086 197.111C148.796 195.607 147.92 191.756 147.226 190.228C142.782 189.395 136.81 191.385 134.38 192.485C134.553 193.468 135.125 196.568 135.529 199.255Z" stroke="black" stroke-width="1.56244"/>
<path d="M139.618 209.145C138.843 212.95 136.924 216.143 135.75 216.73C135.924 217.482 136.028 218.918 136.444 221.417C138.494 218.636 140.297 213.261 140.187 209.146C140.176 208.752 139.696 208.759 139.618 209.145Z" fill="black"/>
<path d="M134.539 192.424C136.507 191.383 141.796 189.473 147.212 190.168" stroke="black" stroke-width="1.56244"/>
<path d="M117.875 152.553C124.479 156.287 137.872 168.225 143.742 180.699C151.08 196.291 152.249 213.35 147.07 221.218C144.091 225.364 140.844 226.662 137.145 226.341C136.103 218.181 134.721 210.887 134.374 208.628" stroke="black" stroke-width="1.56244"/>
<g filter="url(#filter11_d_323_674)">
<path d="M141.453 171.678C138.455 172.518 132.71 175.938 131.244 179.359C126.036 160.436 118.686 156.154 115.272 154.881C115.793 154.707 117.564 154.117 120.481 153.145C124.94 154.002 131.942 158.757 141.652 171.093C141.813 171.298 141.704 171.608 141.453 171.678Z" fill="#DEEBF9"/>
<path d="M120.262 152.485C117.346 153.457 115.574 154.048 115.053 154.222L113.186 154.844L115.029 155.531C118.18 156.706 125.408 160.772 130.574 179.543L131.101 181.455L131.882 179.633C132.536 178.107 134.204 176.49 136.171 175.121C138.121 173.764 140.236 172.74 141.641 172.347C142.34 172.15 142.683 171.28 142.198 170.664L141.292 169.524C136.798 163.935 132.884 159.974 129.533 157.273C125.966 154.399 122.997 152.922 120.612 152.463L120.434 152.429L120.262 152.485Z" stroke="black" stroke-width="1.38884"/>
</g>
<path d="M59.3624 198.073C61.3425 182.676 68.7993 166.926 71.4264 162.224C69.8282 166.779 65.3712 178.044 61.9715 191.232C60.3662 197.46 60.4289 203.016 61.625 208.348L60.649 210.083C59.7335 206.681 59.1812 202.613 59.3624 198.073Z" fill="black" stroke="black" stroke-width="0.347209"/>
<path d="M136.091 198.073C134.111 182.676 126.654 166.926 124.027 162.224C125.625 166.779 130.097 177.87 133.497 191.059C135.1 197.278 134.693 203.569 133.497 208.942L134.539 211.018C135.61 207.436 136.289 203.036 136.091 198.073Z" fill="black" stroke="black" stroke-width="0.347209"/>
<g filter="url(#filter12_di_323_674)">
<path d="M84.7855 224.603C85.366 218.665 87.6703 191.605 89.0629 175.712C80.9352 166.694 73.1094 162.053 68.2312 161.65C58.4467 179.315 55.4839 207.19 54.5706 219.348C54.5363 219.805 54.7829 220.226 55.2011 220.413C64.1938 224.446 79.4239 225.59 83.8076 225.535C84.3318 225.528 84.7345 225.124 84.7855 224.603Z" fill="#0766CD"/>
<path d="M68.2959 160.872C70.9192 161.089 74.2228 162.426 77.8555 164.796C81.5037 167.177 85.5428 170.639 89.6436 175.189L89.8711 175.441L89.8408 175.78C88.4489 191.666 86.1445 218.736 85.5635 224.679C85.4771 225.561 84.775 226.304 83.8174 226.316C81.5758 226.344 76.6309 226.067 71.1221 225.28C65.6214 224.494 59.4793 223.188 54.8818 221.126C54.1588 220.802 53.7334 220.07 53.792 219.29C54.2499 213.194 55.2217 203.152 57.3076 192.415C59.3913 181.688 62.5969 170.209 67.5479 161.271L67.793 160.83L68.2959 160.872Z" stroke="black" stroke-width="1.56244"/>
</g>
<mask id="mask1_323_674" style="mask-type:alpha" maskUnits="userSpaceOnUse" x="54" y="161" width="35" height="65">
<path d="M68.667 162.486C70.8622 162.788 73.6841 163.92 76.917 166.013C80.3229 168.218 84.1346 171.457 88.0811 175.799C86.6859 191.759 84.5632 218.618 84.0059 224.531C83.9982 224.611 83.9647 224.668 83.9297 224.702C83.8968 224.733 83.855 224.754 83.7979 224.754C81.6557 224.781 76.7938 224.513 71.3438 223.734C65.8855 222.954 59.9157 221.672 55.5205 219.702C55.4072 219.651 55.3396 219.541 55.3496 219.408C55.8051 213.345 56.7709 203.369 58.8408 192.713C60.8771 182.231 63.9737 171.147 68.667 162.486Z" fill="#0766CD" stroke="black" stroke-width="1.56244"/>
</mask>
<g mask="url(#mask1_323_674)">
<path d="M54.1719 221.198L54.8663 213.559C56.9495 214.369 62.852 216.389 69.7957 217.986C76.7394 219.583 83.337 219.635 85.7679 219.462C85.6522 220.619 85.3163 222.448 84.8996 225.364C83.6844 226.232 75.3514 225.364 66.8868 224.062C60.1151 223.02 55.5887 222.123 54.1719 221.198Z" fill="#F5C527"/>
<path d="M74.0478 192.513C74.6003 192.024 75.4478 192.091 75.9163 192.661L77.986 195.178C78.4437 195.735 78.362 196.558 77.8037 197.014L63.4132 208.755C62.8649 209.202 62.0598 209.129 61.6002 208.591L59.9686 206.682C59.5074 206.142 59.5638 205.332 60.0954 204.861L74.0478 192.513Z" fill="#F5C527" stroke="black" stroke-width="1.21523"/>
</g>
<path d="M54.6875 213.037C58.5918 215.02 71.1837 219.346 86.1506 219.397" stroke="black" stroke-width="1.56244"/>
<path d="M62.1019 161.111C65.1339 155.73 71.8326 151.414 74.9223 149.879C77.7468 152.105 80.9627 153.44 88.0888 156.571C87.5578 162.37 88.4995 167.098 89.9516 175.481C89.9834 175.664 89.7504 175.774 89.6234 175.637C78.2281 163.394 66.7432 162.292 62.5206 161.893C62.1345 161.857 61.9115 161.448 62.1019 161.111Z" fill="#DEEAF9" stroke="black" stroke-width="1.56244"/>
<g filter="url(#filter13_di_323_674)">
<path d="M110.308 224.603C109.728 218.665 107.423 191.605 106.031 175.712C114.159 166.694 121.984 162.053 126.863 161.65C136.647 179.315 139.61 207.19 140.523 219.348C140.557 219.805 140.311 220.226 139.893 220.413C130.9 224.446 115.67 225.59 111.286 225.535C110.762 225.528 110.359 225.124 110.308 224.603Z" fill="#0766CD"/>
<path d="M126.798 160.872C124.175 161.089 120.871 162.426 117.238 164.796C113.59 167.177 109.551 170.639 105.45 175.189L105.223 175.441L105.253 175.78C106.645 191.666 108.949 218.736 109.53 224.679C109.617 225.561 110.319 226.304 111.276 226.316C113.518 226.344 118.463 226.067 123.972 225.28C129.472 224.494 135.614 223.188 140.212 221.126C140.935 220.802 141.36 220.07 141.302 219.29C140.844 213.194 139.872 203.152 137.786 192.415C135.702 181.688 132.497 170.209 127.546 161.271L127.301 160.83L126.798 160.872Z" stroke="black" stroke-width="1.56244"/>
</g>
<mask id="mask2_323_674" style="mask-type:alpha" maskUnits="userSpaceOnUse" x="106" y="161" width="35" height="65">
<path d="M126.427 162.486C124.232 162.788 121.41 163.92 118.177 166.013C114.771 168.218 110.959 171.457 107.013 175.799C108.408 191.759 110.531 218.618 111.088 224.531C111.096 224.611 111.129 224.668 111.164 224.702C111.197 224.733 111.239 224.754 111.296 224.754C113.438 224.781 118.3 224.513 123.75 223.734C129.208 222.954 135.178 221.672 139.573 219.702C139.687 219.651 139.754 219.541 139.744 219.408C139.289 213.345 138.323 203.369 136.253 192.713C134.217 182.231 131.12 171.147 126.427 162.486Z" fill="#0766CD" stroke="black" stroke-width="1.56244"/>
</mask>
<g mask="url(#mask2_323_674)">
<path d="M140.922 221.198L140.227 213.559C138.144 214.369 132.242 216.389 125.298 217.986C118.354 219.583 111.757 219.635 109.326 219.462C109.442 220.619 109.777 222.448 110.194 225.364C111.409 226.232 119.742 225.364 128.207 224.062C134.979 223.02 139.505 222.123 140.922 221.198Z" fill="#F5C527"/>
<path d="M121.046 192.513C120.493 192.024 119.646 192.091 119.177 192.661L117.108 195.178C116.65 195.735 116.732 196.558 117.29 197.014L131.681 208.755C132.229 209.202 133.034 209.129 133.494 208.591L135.125 206.682C135.586 206.142 135.53 205.332 134.998 204.861L121.046 192.513Z" fill="#F5C527" stroke="black" stroke-width="1.21523"/>
</g>
<path d="M140.406 213.037C136.502 215.02 123.91 219.346 108.943 219.397" stroke="black" stroke-width="1.56244"/>
<path d="M132.992 161.111C129.96 155.73 123.261 151.414 120.171 149.879C117.347 152.105 114.131 153.44 107.005 156.571C107.536 162.37 106.594 167.098 105.142 175.481C105.11 175.664 105.343 175.774 105.47 175.637C116.866 163.394 128.351 162.292 132.573 161.893C132.959 161.857 133.182 161.448 132.992 161.111Z" fill="#DEEAF9" stroke="black" stroke-width="1.56244"/>
<path d="M47.0267 55.9725C47.5547 55.9936 47.906 56.4311 47.9058 56.8942L47.9015 56.9872L41.7877 116.383C41.7276 116.964 41.1432 117.351 40.5779 117.161C34.4132 115.087 28.3745 111.631 23.5257 108.331C18.6805 105.033 14.9754 101.858 13.4814 100.311C13.2567 100.079 13.1595 99.7301 13.275 99.3968C13.3909 99.063 13.684 98.8504 14.006 98.8079L14.3235 98.7756C14.8364 98.7386 15.688 98.7359 17.0487 98.8732C15.6069 97.8209 14.0214 96.4883 12.3823 95.0045C9.33965 92.2503 6.02636 88.9015 2.95127 85.6697C2.65873 85.3619 2.61087 84.8883 2.85175 84.526C8.13399 76.5827 18.2381 69.1636 24.1481 65.468C22.1518 65.3235 18.9857 65.0978 14.5071 64.7905C14.0699 64.7605 13.7595 64.4478 13.6717 64.0922C13.5817 63.7275 13.7208 63.2859 14.1307 63.0679L14.918 62.6666C18.9764 60.6778 24.8258 58.9789 30.6141 57.7899C36.7913 56.5211 43.0019 55.8119 47.0267 55.9725Z" fill="#29444A" stroke="black" stroke-width="1.51244"/>
<mask id="mask3_323_674" style="mask-type:alpha" maskUnits="userSpaceOnUse" x="3" y="56" width="45" height="61">
<path d="M40.3589 115.482C34.5204 113.414 28.7914 110.103 24.1516 106.925C20.3933 104.351 17.3837 101.887 15.6312 100.28C16.6261 100.326 18.169 100.483 20.4904 100.899L20.9211 99.4597C19.077 98.6732 16.3991 96.6017 13.3537 93.8415C10.4708 91.2286 7.33115 88.066 4.37615 84.9698C7.23168 80.8144 11.4614 76.7768 15.6691 73.3771C20.0382 69.847 24.3388 67.0401 26.951 65.5423L29.0784 64.3227L26.6332 64.1327C25.7217 64.0619 22.6017 63.8341 16.8606 63.4369C20.5931 61.8194 25.5947 60.4204 30.6624 59.3829C36.533 58.1811 42.3947 57.4841 46.3299 57.4798L40.3589 115.482Z" fill="#29444A" stroke="black" stroke-width="1.51244"/>
</mask>
<g mask="url(#mask3_323_674)">
<path d="M14.7923 89.8801C11.0716 88.7257 4.89414 86.0259 2.77344 84.8027C6.34872 93.6148 19.617 112.44 41.3767 117.557L43.6311 100.329C32.0186 95.9726 20.6561 90.9812 13.8662 86.755C13.8779 87.0903 14.0796 88.1847 14.7923 89.8801Z" fill="#1B1F1F"/>
</g>
<path d="M159.974 53.2806C162.914 53.2866 167.541 53.4034 171.876 53.7371C174.043 53.904 176.149 54.1262 177.94 54.4175C179.706 54.7047 181.25 55.0715 182.237 55.5618C182.501 55.693 182.67 55.9602 182.677 56.2548C182.684 56.5496 182.526 56.8241 182.268 56.9669L173.242 61.9627C176.848 63.7942 181.448 67.0492 185.615 70.4958C190.341 74.4055 194.658 78.6819 196.368 81.5519C196.551 81.8582 196.506 82.249 196.26 82.5068C191.634 87.3452 184.82 93.7125 180.644 97.3275C181.309 97.2655 181.997 97.2052 182.644 97.1393C183.48 97.0541 184.263 96.96 184.901 96.8449C185.579 96.7225 185.964 96.5963 186.106 96.5068C186.423 96.3053 186.84 96.3546 187.101 96.625C187.363 96.8956 187.398 97.3135 187.186 97.6244C185.427 100.204 177.312 110.118 162.297 117.03C163.833 118.781 165.607 120.782 167.253 122.838C169.154 125.213 170.929 127.716 172 130.072C172.12 130.334 172.087 130.642 171.916 130.873C171.744 131.105 171.46 131.225 171.174 131.187C167.113 130.65 160.557 129.419 156.542 128.627L159.859 133.785C160.044 134.072 160.025 134.445 159.811 134.711C159.597 134.977 159.237 135.077 158.916 134.958C155.761 133.788 148.776 131.192 146.097 130.183C145.818 130.078 145.621 129.825 145.589 129.528C145.476 128.506 145.544 126.901 145.736 124.889C145.929 122.857 146.256 120.351 146.684 117.496C147.542 111.785 148.813 104.649 150.26 97.0662C153.154 81.8988 156.76 64.9138 159.198 53.9018L159.239 53.7704C159.36 53.4773 159.648 53.28 159.974 53.2806Z" fill="#29444A" stroke="black" stroke-width="1.58675" stroke-linejoin="round"/>
<mask id="mask4_323_674" style="mask-type:alpha" maskUnits="userSpaceOnUse" x="146" y="54" width="50" height="81">
<path d="M160.609 54.8713C163.525 54.8917 167.77 55.0134 171.755 55.3202C173.898 55.4853 175.955 55.7025 177.685 55.9839C178.544 56.1237 179.303 56.2764 179.942 56.4398L171.118 61.3267C170.853 61.4734 170.695 61.7579 170.71 62.0603C170.726 62.3627 170.911 62.6302 171.189 62.7496C174.736 64.269 179.895 67.8238 184.603 71.719C189.029 75.3795 192.927 79.2343 194.682 81.8552C189.221 87.515 181.049 95.0377 177.618 97.8043C177.337 98.0314 177.244 98.4203 177.394 98.7497C177.543 99.079 177.895 99.2661 178.252 99.2042C179.327 99.0169 181.075 98.8944 182.805 98.7182C183.393 98.6583 183.975 98.5905 184.511 98.5132C181.303 102.406 173.467 110.362 160.675 116.024C160.445 116.126 160.277 116.331 160.222 116.577C160.167 116.823 160.232 117.08 160.398 117.27C162.101 119.228 164.138 121.486 166.015 123.83C167.517 125.707 168.889 127.605 169.883 129.4C165.099 128.685 158.171 127.347 155.02 126.707C154.708 126.643 154.387 126.773 154.207 127.036C154.027 127.299 154.023 127.645 154.195 127.914L157.237 132.642C153.981 131.432 149.471 129.755 147.132 128.877C147.095 128.004 147.156 126.712 147.316 125.04C147.505 123.048 147.827 120.573 148.253 117.732C149.106 112.052 150.373 104.939 151.818 97.3643C154.654 82.5009 158.176 65.8841 160.609 54.8713Z" fill="#29444A" stroke="black" stroke-width="1.58675" stroke-linejoin="round"/>
</mask>
<g mask="url(#mask4_323_674)">
<path d="M171.956 94.9267C162.818 98.7896 149.723 101.557 146.76 102.36L140.368 130.331L158.354 138.025L173.919 132.914L187.957 97.318L188.996 88.9162L169.843 98.2429C169.932 98.0542 170.479 97.1268 171.956 94.9267Z" fill="#1B1F1F"/>
</g>
<g filter="url(#filter14_i_323_674)">
<path d="M170.707 82.0252C169.583 75.1614 163.325 72.9027 160.336 72.6313C162.208 77.2434 162.921 83.8791 162.99 90.6917C162.921 97.5043 162.208 104.14 160.336 108.752C163.325 108.481 169.583 106.222 170.707 99.3583C171.06 96.6116 171.169 93.3858 171.179 90.6917C171.169 87.9977 171.06 84.7718 170.707 82.0252Z" fill="#ECF2FF"/>
</g>
<path d="M160.405 71.8628C162.017 72.0091 164.462 72.6811 166.664 74.2241C168.885 75.7804 170.868 78.232 171.469 81.8999L171.472 81.9136L171.473 81.9272C171.831 84.7203 171.941 87.9826 171.951 90.689V90.6948C171.941 93.4012 171.831 96.6635 171.473 99.4565L171.472 99.4702L171.469 99.4829C170.868 103.151 168.885 105.603 166.664 107.16C164.462 108.703 162.017 109.375 160.405 109.521L159.144 109.635L159.62 108.461C161.434 103.993 162.148 97.4857 162.218 90.6997L162.197 89.4302C162.056 83.1018 161.322 77.1137 159.62 72.9214L159.144 71.7476L160.405 71.8628Z" stroke="black" stroke-width="1.54414"/>
<g filter="url(#filter15_i_323_674)">
<path d="M24.4333 82.0252C25.5576 75.1614 31.816 72.9027 34.8047 72.6313C32.9323 77.2434 32.2196 83.8791 32.1506 90.6917C32.2196 97.5043 32.9323 104.14 34.8047 108.752C31.816 108.481 25.5576 106.222 24.4333 99.3583C24.081 96.6116 23.9713 93.3858 23.9617 90.6917C23.9713 87.9977 24.081 84.7718 24.4333 82.0252Z" fill="#ECF2FF"/>
</g>
<path d="M34.7354 71.8628C33.1237 72.0091 30.6787 72.6811 28.4766 74.2241C26.2556 75.7804 24.2728 78.232 23.6719 81.8999L23.6689 81.9136L23.668 81.9272C23.3097 84.7203 23.1991 87.9826 23.1895 90.689V90.6948C23.1991 93.4012 23.3097 96.6635 23.668 99.4565L23.6689 99.4702L23.6719 99.4829C24.2727 103.151 26.2554 105.603 28.4766 107.16C30.6787 108.703 33.1237 109.375 34.7354 109.521L35.9971 109.635L35.5205 108.461C33.7066 103.993 32.9925 97.4857 32.9229 90.6997L32.9434 89.4302C33.085 83.1018 33.8186 77.1137 35.5205 72.9214L35.9971 71.7476L34.7354 71.8628Z" stroke="black" stroke-width="1.54414"/>
<circle cx="97.0733" cy="91.0571" r="65.9391" fill="#181F2D" stroke="black" stroke-width="1.54414"/>
<path d="M97.0417 27.0913C123.262 27.0913 141.993 41.1602 152.974 59.8615C131.699 33.7826 106.162 31.6747 97.0417 31.6747C87.921 31.6747 62.3842 33.7826 41.1094 59.8615C52.09 41.1602 70.8217 27.0913 97.0417 27.0913Z" fill="#ECF2FF"/>
<path d="M97.0368 148.792C66.3395 148.792 45.997 128.082 38.3594 116.479C52.3127 148.792 83.4507 155.254 97.0368 155.254C110.623 155.254 141.761 148.792 155.714 116.479C148.077 128.082 127.734 148.792 97.0368 148.792Z" fill="#ECF2FF"/>
<path d="M96.5569 33.2681C59.8652 33.2681 40.1794 60.8419 35.2812 74.6168C41.11 62.9081 61.5255 39.8339 96.5569 39.8339C131.588 39.8339 152.714 61.8799 158.641 73.2442C153.494 60.3764 133.249 33.2681 96.5569 33.2681Z" fill="#ECF2FF"/>
<g filter="url(#filter16_i_323_674)">
<path d="M97.2167 147.364C128.62 147.319 160.183 122.974 160.183 90.7478C160.183 66.9187 132.473 41.374 97.2167 41.3326C61.9602 41.374 34.25 66.9187 34.25 90.7478C34.25 122.974 65.8131 147.319 97.2167 147.364Z" fill="#150D41"/>
</g>
<path d="M48.7985 71.7661C41.5132 83.0366 42.2522 98.7866 43.9953 108.47C44.2542 109.908 46.0237 109.817 46.2694 108.377C47.5752 100.722 50.4381 88.6424 58.4063 76.9115C66.9495 64.3339 78.221 55.6005 85.7448 51.526C86.9823 50.8558 86.6999 49.2707 85.3049 49.4572C75.4756 50.7712 57.8149 57.8175 48.7985 71.7661Z" fill="#EBF6FE" fill-opacity="0.53"/>
<ellipse cx="141.32" cy="92.0559" rx="9.27814" ry="11.6345" transform="rotate(9.58766 141.32 92.0559)" fill="#EBF6FE" fill-opacity="0.53"/>
<ellipse cx="130.255" cy="114.48" rx="4.83094" ry="5.37975" transform="rotate(8.43644 130.255 114.48)" fill="#EBF6FE" fill-opacity="0.53"/>
<path d="M103.723 62.6167C108.233 62.6098 113.462 62.7863 118.31 63.1743C119.109 63.2383 119.565 64.0708 119.26 64.77C112.261 80.7869 104.656 89.4647 101 92.4038C100.124 93.1076 99.0253 92.2701 99.1865 91.3228L99.2861 90.7183C99.8037 87.453 100.805 79.3049 99.3408 72.311C97.6357 73.7907 94.176 76.8317 92.334 78.7241C91.6591 79.4172 90.3104 79.0163 90.3809 77.8755C90.509 75.8024 90.9919 72.9102 91.4512 70.2964C91.9193 67.6325 92.3529 65.302 92.4219 64.2329C92.4536 63.7421 92.8007 63.2703 93.3604 63.1714L93.7627 63.106C95.8766 62.7891 99.5123 62.6231 103.723 62.6167Z" fill="#29444A" stroke="black" stroke-width="1.58675"/>
<path d="M159.586 65.1255H160.975C162.711 65.8199 164.273 66.8615 166.877 68.0768C166.461 72.6599 163.579 75.7732 162.19 76.757C161.785 75.3682 160.766 71.9308 159.933 69.292C159.1 66.6532 159.354 65.4148 159.586 65.1255Z" fill="#29444A"/>
<path d="M168.19 66.7155C168.205 66.2776 167.863 65.9101 167.425 65.8946C166.987 65.8792 166.62 66.2216 166.604 66.6595L167.397 66.6875L168.19 66.7155ZM167.397 66.6875L166.604 66.6595C166.536 68.576 165.413 73.3112 161.494 76.4714L161.992 77.089L162.49 77.7066C166.867 74.1767 168.111 68.9458 168.19 66.7155L167.397 66.6875Z" fill="black"/>
<path d="M25.1057 78.5321C24.0766 77.4506 22.2939 74.932 21.5312 73.8078L29.6907 72.0718L27.0866 80.2312C26.8551 80.1155 26.1349 79.6136 25.1057 78.5321Z" fill="#29444A"/>
<path d="M21.7075 73.9805C22.7487 75.8902 25.6127 79.2309 27.1293 80.388C29.0494 74.1642 30.1587 70.0837 31.3497 69.324C31.8505 70.2371 32.4798 71.858 33.2204 74.3277" stroke="black" stroke-width="1.38884" stroke-linecap="round" stroke-linejoin="round"/>
<path d="M97.5625 45.2368C116.276 45.2369 129.413 48.2707 138.246 52.0991C147.049 55.9149 151.648 60.555 153.143 63.8257L153.323 64.2192L153.089 64.5845C151.736 66.6873 149.304 69.8478 146.376 72.5356C143.476 75.1979 139.951 77.5251 136.419 77.7104L136.418 77.7095C134.881 77.8244 132.926 77.2221 130.688 76.3774C129.541 75.9448 128.276 75.4299 126.908 74.8794C125.536 74.3273 124.052 73.7354 122.451 73.1411C116.052 70.766 107.784 68.3521 97.5625 68.3521C87.341 68.3521 79.0724 70.7659 72.6729 73.1411C71.0716 73.7354 69.5876 74.3273 68.2158 74.8794C66.8481 75.4298 65.583 75.9448 64.4365 76.3774C62.1977 77.2223 60.2424 77.8249 58.7051 77.7095C55.1733 77.5241 51.6481 75.1979 48.748 72.5356C45.8202 69.8479 43.3887 66.6873 42.0361 64.5845L41.8018 64.2192L41.9814 63.8257C43.4757 60.5549 48.0753 55.9149 56.8789 52.0991C65.7116 48.2707 78.8484 45.2368 97.5625 45.2368Z" fill="#DEEAF9" stroke="black" stroke-width="1.58675"/>
<path d="M97.3955 0.793945C138.915 0.794038 158.099 23.1003 159.356 36.6621C160.269 46.5053 159.632 59.418 159.129 65.6289C159.042 66.7047 158.052 67.4431 157.013 67.2881L152.3 66.585L152.109 66.5566L151.953 66.4434C145.602 61.8642 125.752 52.545 97.3955 52.5449C69.0398 52.5449 49.1891 61.8641 42.8379 66.4434L42.6816 66.5566L42.4902 66.585L37.7773 67.2881C36.7381 67.4428 35.7482 66.7045 35.6611 65.6289C35.1581 59.418 34.522 46.5053 35.4346 36.6621C36.6886 23.1353 51.3112 0.793945 97.3955 0.793945Z" fill="#F73D38" stroke="black" stroke-width="1.58675"/>
<path d="M35.2422 49.0901C53.9915 38.3266 118.746 30.8616 159.196 49.0901" stroke="black" stroke-width="1.58675"/>
<path d="M97.3867 12.251C104.089 12.2511 110.517 14.9132 115.256 19.6523C120.009 24.4053 122.831 31.8813 122.831 38.5635V39.4248L121.974 39.3545L109.271 38.3125L108.543 38.2529V37.5225C108.543 34.5635 107.368 31.7251 105.275 29.6328C103.183 27.5405 100.345 26.3652 97.3857 26.3652C94.427 26.3654 91.5893 27.5407 89.4971 29.6328C87.4047 31.7251 86.2295 34.5635 86.2295 37.5225V38.2529L85.501 38.3125L72.7988 39.3545L71.9414 39.4248V38.5635C71.9415 31.8813 74.7636 24.4053 79.5166 19.6523C84.2559 14.9131 90.6843 12.251 97.3867 12.251Z" fill="#DEEAF9" stroke="black" stroke-width="1.58675"/>
<defs>
<filter id="filter0_i_323_674" x="56.5938" y="152.621" width="81.9375" height="81.9414" filterUnits="userSpaceOnUse" color-interpolation-filters="sRGB">
<feFlood flood-opacity="0" result="BackgroundImageFix"/>
<feBlend mode="normal" in="SourceGraphic" in2="BackgroundImageFix" result="shape"/>
<feColorMatrix in="SourceAlpha" type="matrix" values="0 0 0 0 0 0 0 0 0 0 0 0 0 0 0 0 0 0 127 0" result="hardAlpha"/>
<feOffset dx="-5.20814" dy="-10.7635"/>
<feComposite in2="hardAlpha" operator="arithmetic" k2="-1" k3="1"/>
<feColorMatrix type="matrix" values="0 0 0 0 0.843137 0 0 0 0 0.866667 0 0 0 0 0.917647 0 0 0 1 0"/>
<feBlend mode="normal" in2="shape" result="effect1_innerShadow_323_674"/>
</filter>
<filter id="filter1_i_323_674" x="50.7656" y="257.577" width="34.2031" height="18.6104" filterUnits="userSpaceOnUse" color-interpolation-filters="sRGB">
<feFlood flood-opacity="0" result="BackgroundImageFix"/>
<feBlend mode="normal" in="SourceGraphic" in2="BackgroundImageFix" result="shape"/>
<feColorMatrix in="SourceAlpha" type="matrix" values="0 0 0 0 0 0 0 0 0 0 0 0 0 0 0 0 0 0 127 0" result="hardAlpha"/>
<feOffset dx="4.16651" dy="-4.51372"/>
<feComposite in2="hardAlpha" operator="arithmetic" k2="-1" k3="1"/>
<feColorMatrix type="matrix" values="0 0 0 0 0.145098 0 0 0 0 0.14902 0 0 0 0 0.168627 0 0 0 1 0"/>
<feBlend mode="normal" in2="shape" result="effect1_innerShadow_323_674"/>
</filter>
<filter id="filter2_i_323_674" x="109.969" y="257.577" width="34.2031" height="18.6104" filterUnits="userSpaceOnUse" color-interpolation-filters="sRGB">
<feFlood flood-opacity="0" result="BackgroundImageFix"/>
<feBlend mode="normal" in="SourceGraphic" in2="BackgroundImageFix" result="shape"/>
<feColorMatrix in="SourceAlpha" type="matrix" values="0 0 0 0 0 0 0 0 0 0 0 0 0 0 0 0 0 0 127 0" result="hardAlpha"/>
<feOffset dx="-2.77767" dy="-4.51372"/>
<feComposite in2="hardAlpha" operator="arithmetic" k2="-1" k3="1"/>
<feColorMatrix type="matrix" values="0 0 0 0 0.145098 0 0 0 0 0.14902 0 0 0 0 0.168627 0 0 0 1 0"/>
<feBlend mode="normal" in2="shape" result="effect1_innerShadow_323_674"/>
</filter>
<filter id="filter3_i_323_674" x="56.6016" y="209.218" width="82.3125" height="52.3262" filterUnits="userSpaceOnUse" color-interpolation-filters="sRGB">
<feFlood flood-opacity="0" result="BackgroundImageFix"/>
<feBlend mode="normal" in="SourceGraphic" in2="BackgroundImageFix" result="shape"/>
<feColorMatrix in="SourceAlpha" type="matrix" values="0 0 0 0 0 0 0 0 0 0 0 0 0 0 0 0 0 0 127 0" result="hardAlpha"/>
<feOffset dy="-6.24976"/>
<feComposite in2="hardAlpha" operator="arithmetic" k2="-1" k3="1"/>
<feColorMatrix type="matrix" values="0 0 0 0 0.0196078 0 0 0 0 0.282353 0 0 0 0 0.517647 0 0 0 1 0"/>
<feBlend mode="normal" in2="shape" result="effect1_innerShadow_323_674"/>
</filter>
<filter id="filter4_i_323_674" x="45.1328" y="152.811" width="35.8281" height="73.686" filterUnits="userSpaceOnUse" color-interpolation-filters="sRGB">
<feFlood flood-opacity="0" result="BackgroundImageFix"/>
<feBlend mode="normal" in="SourceGraphic" in2="BackgroundImageFix" result="shape"/>
<feColorMatrix in="SourceAlpha" type="matrix" values="0 0 0 0 0 0 0 0 0 0 0 0 0 0 0 0 0 0 127 0" result="hardAlpha"/>
<feOffset dx="4.86093" dy="-2.08325"/>
<feComposite in2="hardAlpha" operator="arithmetic" k2="-1" k3="1"/>
<feColorMatrix type="matrix" values="0 0 0 0 0.858824 0 0 0 0 0.67451 0 0 0 0 0.458824 0 0 0 1 0"/>
<feBlend mode="normal" in2="shape" result="effect1_innerShadow_323_674"/>
</filter>
<filter id="filter5_i_323_674" x="45.125" y="189.97" width="15.3672" height="36.5273" filterUnits="userSpaceOnUse" color-interpolation-filters="sRGB">
<feFlood flood-opacity="0" result="BackgroundImageFix"/>
<feBlend mode="normal" in="SourceGraphic" in2="BackgroundImageFix" result="shape"/>
<feColorMatrix in="SourceAlpha" type="matrix" values="0 0 0 0 0 0 0 0 0 0 0 0 0 0 0 0 0 0 127 0" result="hardAlpha"/>
<feOffset dx="4.86093" dy="-4.86093"/>
<feComposite in2="hardAlpha" operator="arithmetic" k2="-1" k3="1"/>
<feColorMatrix type="matrix" values="0 0 0 0 0 0 0 0 0 0 0 0 0 0 0 0 0 0 0.18 0"/>
<feBlend mode="normal" in2="shape" result="effect1_innerShadow_323_674"/>
</filter>
<filter id="filter6_i_323_674" x="45.1953" y="189.248" width="16.6094" height="11.48" filterUnits="userSpaceOnUse" color-interpolation-filters="sRGB">
<feFlood flood-opacity="0" result="BackgroundImageFix"/>
<feBlend mode="normal" in="SourceGraphic" in2="BackgroundImageFix" result="shape"/>
<feColorMatrix in="SourceAlpha" type="matrix" values="0 0 0 0 0 0 0 0 0 0 0 0 0 0 0 0 0 0 127 0" result="hardAlpha"/>
<feOffset dx="4.51372" dy="0.694418"/>
<feComposite in2="hardAlpha" operator="arithmetic" k2="-1" k3="1"/>
<feColorMatrix type="matrix" values="0 0 0 0 0 0 0 0 0 0 0 0 0 0 0 0 0 0 0.14 0"/>
<feBlend mode="normal" in2="shape" result="effect1_innerShadow_323_674"/>
</filter>
<filter id="filter7_d_323_674" x="52.8828" y="151.711" width="32.0234" height="33.2282" filterUnits="userSpaceOnUse" color-interpolation-filters="sRGB">
<feFlood flood-opacity="0" result="BackgroundImageFix"/>
<feColorMatrix in="SourceAlpha" type="matrix" values="0 0 0 0 0 0 0 0 0 0 0 0 0 0 0 0 0 0 127 0" result="hardAlpha"/>
<feOffset dy="1.38884"/>
<feComposite in2="hardAlpha" operator="out"/>
<feColorMatrix type="matrix" values="0 0 0 0 0 0 0 0 0 0 0 0 0 0 0 0 0 0 0.25 0"/>
<feBlend mode="normal" in2="BackgroundImageFix" result="effect1_dropShadow_323_674"/>
<feBlend mode="normal" in="SourceGraphic" in2="effect1_dropShadow_323_674" result="shape"/>
</filter>
<filter id="filter8_i_323_674" x="114.352" y="152.811" width="35.8281" height="73.686" filterUnits="userSpaceOnUse" color-interpolation-filters="sRGB">
<feFlood flood-opacity="0" result="BackgroundImageFix"/>
<feBlend mode="normal" in="SourceGraphic" in2="BackgroundImageFix" result="shape"/>
<feColorMatrix in="SourceAlpha" type="matrix" values="0 0 0 0 0 0 0 0 0 0 0 0 0 0 0 0 0 0 127 0" result="hardAlpha"/>
<feOffset dx="-4.86093" dy="-2.08325"/>
<feComposite in2="hardAlpha" operator="arithmetic" k2="-1" k3="1"/>
<feColorMatrix type="matrix" values="0 0 0 0 0.858824 0 0 0 0 0.67451 0 0 0 0 0.458824 0 0 0 1 0"/>
<feBlend mode="normal" in2="shape" result="effect1_innerShadow_323_674"/>
</filter>
<filter id="filter9_i_323_674" x="134.82" y="189.971" width="15.3672" height="36.5273" filterUnits="userSpaceOnUse" color-interpolation-filters="sRGB">
<feFlood flood-opacity="0" result="BackgroundImageFix"/>
<feBlend mode="normal" in="SourceGraphic" in2="BackgroundImageFix" result="shape"/>
<feColorMatrix in="SourceAlpha" type="matrix" values="0 0 0 0 0 0 0 0 0 0 0 0 0 0 0 0 0 0 127 0" result="hardAlpha"/>
<feOffset dx="-4.86093" dy="-4.86093"/>
<feComposite in2="hardAlpha" operator="arithmetic" k2="-1" k3="1"/>
<feColorMatrix type="matrix" values="0 0 0 0 0 0 0 0 0 0 0 0 0 0 0 0 0 0 0.18 0"/>
<feBlend mode="normal" in2="shape" result="effect1_innerShadow_323_674"/>
</filter>
<filter id="filter10_i_323_674" x="133.508" y="189.248" width="16.6094" height="11.48" filterUnits="userSpaceOnUse" color-interpolation-filters="sRGB">
<feFlood flood-opacity="0" result="BackgroundImageFix"/>
<feBlend mode="normal" in="SourceGraphic" in2="BackgroundImageFix" result="shape"/>
<feColorMatrix in="SourceAlpha" type="matrix" values="0 0 0 0 0 0 0 0 0 0 0 0 0 0 0 0 0 0 127 0" result="hardAlpha"/>
<feOffset dx="-4.51372" dy="0.694418"/>
<feComposite in2="hardAlpha" operator="arithmetic" k2="-1" k3="1"/>
<feColorMatrix type="matrix" values="0 0 0 0 0 0 0 0 0 0 0 0 0 0 0 0 0 0 0.14 0"/>
<feBlend mode="normal" in2="shape" result="effect1_innerShadow_323_674"/>
</filter>
<filter id="filter11_d_323_674" x="111.102" y="151.712" width="32.0234" height="33.2282" filterUnits="userSpaceOnUse" color-interpolation-filters="sRGB">
<feFlood flood-opacity="0" result="BackgroundImageFix"/>
<feColorMatrix in="SourceAlpha" type="matrix" values="0 0 0 0 0 0 0 0 0 0 0 0 0 0 0 0 0 0 127 0" result="hardAlpha"/>
<feOffset dy="1.38884"/>
<feComposite in2="hardAlpha" operator="out"/>
<feColorMatrix type="matrix" values="0 0 0 0 0 0 0 0 0 0 0 0 0 0 0 0 0 0 0.25 0"/>
<feBlend mode="normal" in2="BackgroundImageFix" result="effect1_dropShadow_323_674"/>
<feBlend mode="normal" in="SourceGraphic" in2="effect1_dropShadow_323_674" result="shape"/>
</filter>
<filter id="filter12_di_323_674" x="53.0078" y="160.01" width="37.6719" height="68.8249" filterUnits="userSpaceOnUse" color-interpolation-filters="sRGB">
<feFlood flood-opacity="0" result="BackgroundImageFix"/>
<feColorMatrix in="SourceAlpha" type="matrix" values="0 0 0 0 0 0 0 0 0 0 0 0 0 0 0 0 0 0 127 0" result="hardAlpha"/>
<feOffset dy="1.73605"/>
<feComposite in2="hardAlpha" operator="out"/>
<feColorMatrix type="matrix" values="0 0 0 0 0 0 0 0 0 0 0 0 0 0 0 0 0 0 0.25 0"/>
<feBlend mode="normal" in2="BackgroundImageFix" result="effect1_dropShadow_323_674"/>
<feBlend mode="normal" in="SourceGraphic" in2="effect1_dropShadow_323_674" result="shape"/>
<feColorMatrix in="SourceAlpha" type="matrix" values="0 0 0 0 0 0 0 0 0 0 0 0 0 0 0 0 0 0 127 0" result="hardAlpha"/>
<feOffset dx="-1.73605" dy="6.24976"/>
<feComposite in2="hardAlpha" operator="arithmetic" k2="-1" k3="1"/>
<feColorMatrix type="matrix" values="0 0 0 0 0 0 0 0 0 0 0 0 0 0 0 0 0 0 0.17 0"/>
<feBlend mode="normal" in2="shape" result="effect2_innerShadow_323_674"/>
</filter>
<filter id="filter13_di_323_674" x="104.414" y="160.01" width="37.6719" height="68.8249" filterUnits="userSpaceOnUse" color-interpolation-filters="sRGB">
<feFlood flood-opacity="0" result="BackgroundImageFix"/>
<feColorMatrix in="SourceAlpha" type="matrix" values="0 0 0 0 0 0 0 0 0 0 0 0 0 0 0 0 0 0 127 0" result="hardAlpha"/>
<feOffset dy="1.73605"/>
<feComposite in2="hardAlpha" operator="out"/>
<feColorMatrix type="matrix" values="0 0 0 0 0 0 0 0 0 0 0 0 0 0 0 0 0 0 0.25 0"/>
<feBlend mode="normal" in2="BackgroundImageFix" result="effect1_dropShadow_323_674"/>
<feBlend mode="normal" in="SourceGraphic" in2="effect1_dropShadow_323_674" result="shape"/>
<feColorMatrix in="SourceAlpha" type="matrix" values="0 0 0 0 0 0 0 0 0 0 0 0 0 0 0 0 0 0 127 0" result="hardAlpha"/>
<feOffset dx="-1.73605" dy="6.24976"/>
<feComposite in2="hardAlpha" operator="arithmetic" k2="-1" k3="1"/>
<feColorMatrix type="matrix" values="0 0 0 0 0 0 0 0 0 0 0 0 0 0 0 0 0 0 0.17 0"/>
<feBlend mode="normal" in2="shape" result="effect2_innerShadow_323_674"/>
</filter>
<filter id="filter14_i_323_674" x="157.953" y="70.8643" width="14.7734" height="39.6548" filterUnits="userSpaceOnUse" color-interpolation-filters="sRGB">
<feFlood flood-opacity="0" result="BackgroundImageFix"/>
<feBlend mode="normal" in="SourceGraphic" in2="BackgroundImageFix" result="shape"/>
<feColorMatrix in="SourceAlpha" type="matrix" values="0 0 0 0 0 0 0 0 0 0 0 0 0 0 0 0 0 0 127 0" result="hardAlpha"/>
<feOffset dx="-3.53453" dy="-6.77452"/>
<feComposite in2="hardAlpha" operator="arithmetic" k2="-1" k3="1"/>
<feColorMatrix type="matrix" values="0 0 0 0 0.843137 0 0 0 0 0.866667 0 0 0 0 0.917647 0 0 0 1 0"/>
<feBlend mode="normal" in2="shape" result="effect1_innerShadow_323_674"/>
</filter>
<filter id="filter15_i_323_674" x="22.4141" y="70.8643" width="14.7734" height="39.6548" filterUnits="userSpaceOnUse" color-interpolation-filters="sRGB">
<feFlood flood-opacity="0" result="BackgroundImageFix"/>
<feBlend mode="normal" in="SourceGraphic" in2="BackgroundImageFix" result="shape"/>
<feColorMatrix in="SourceAlpha" type="matrix" values="0 0 0 0 0 0 0 0 0 0 0 0 0 0 0 0 0 0 127 0" result="hardAlpha"/>
<feOffset dx="3.23999" dy="-6.77452"/>
<feComposite in2="hardAlpha" operator="arithmetic" k2="-1" k3="1"/>
<feColorMatrix type="matrix" values="0 0 0 0 0.843137 0 0 0 0 0.866667 0 0 0 0 0.917647 0 0 0 1 0"/>
<feBlend mode="normal" in2="shape" result="effect1_innerShadow_323_674"/>
</filter>
<filter id="filter16_i_323_674" x="34.25" y="41.3325" width="125.93" height="106.031" filterUnits="userSpaceOnUse" color-interpolation-filters="sRGB">
<feFlood flood-opacity="0" result="BackgroundImageFix"/>
<feBlend mode="normal" in="SourceGraphic" in2="BackgroundImageFix" result="shape"/>
<feColorMatrix in="SourceAlpha" type="matrix" values="0 0 0 0 0 0 0 0 0 0 0 0 0 0 0 0 0 0 127 0" result="hardAlpha"/>
<feOffset dx="-0.343143" dy="-17.1572"/>
<feComposite in2="hardAlpha" operator="arithmetic" k2="-1" k3="1"/>
<feColorMatrix type="matrix" values="0 0 0 0 0.133333 0 0 0 0 0.0588235 0 0 0 0 0.278431 0 0 0 1 0"/>
<feBlend mode="normal" in2="shape" result="effect1_innerShadow_323_674"/>
</filter>
</defs>
</svg>
