<svg xmlns="http://www.w3.org/2000/svg" width="203" height="277" fill="none" xmlns:v="https://vecta.io/nano"><style><![CDATA[.B{stroke:#000}.C{color-interpolation-filters:sRGB}.D{flood-opacity:0}.E{stroke-width:1.562}.F{stroke-linejoin:round}.G{fill:#29444a}.H{fill:#ecf2ff}.I{fill:#0766cd}.J{fill:#f5c527}.K{fill:#deeaf9}.L{stroke-width:1.587}.M{fill:#f5cc9c}.N{stroke-width:1.389}.O{fill-opacity:.53}.P{stroke-width:.347}.Q{stroke-width:1.215}.R{stroke-width:1.512}.S{stroke-width:1.544}]]></style><g filter="url(#F)" class="H"><rect x="56.594" y="152.621" width="81.941" height="81.941" rx="15.277"/></g><rect x="57.375" y="153.402" width="80.379" height="80.379" rx="14.496" class="B E"/><g filter="url(#G)"><use href="#W" fill="#3d3b43"/></g><use href="#W" class="B E F"/><g filter="url(#H)"><use href="#X" fill="#3d3b43"/></g><use href="#X" class="B E F"/><path d="M63.1 181.201c4.453-13.079 11.002-24.949 14.044-29.406l20.375.021 20.464.145c3.042 4.457 9.436 16.602 13.767 29.237 4.641 14.819 4.365 23.518 2.663 34.096-36.085 12.002-64.228 5.001-73.788 0-1.702-10.578-2.011-18.078 2.475-34.093z" fill="#0d2532"/><g filter="url(#I)"><path d="M58.181 229.245c.774-8.375 1.682-17.236 2.3-20.027 3.696 5.265 15.737 7.812 37.301 7.812 19.928 0 31.77-2.432 36.487-7.812.619 2.791 2.308 11.776 3.081 20.15s1.702 14.252 1.547 26.887c-2.887 2.547-12.652 7.017-29.358 4.431-.774-5.142-2.011-12.783-2.785-16.162-.821-3.59-1.547-8.816-4.64-10.726-1.393-.734-3.558-.734-4.332-.734-.696-.002-2.784 0-4.177.734-3.094 1.91-3.99 7.135-4.811 10.724-.774 3.379-1.841 11.022-2.614 16.164-14.712 2.789-27.86-1.913-29.562-4.263-.155-12.636.789-18.804 1.563-27.178z" fill="#095fc1"/></g><mask id="A" maskUnits="userSpaceOnUse" x="56" y="151" width="83" height="111" mask-type="alpha"><path d="M63.089 181.2c4.453-13.079 11.002-24.949 14.044-29.406l20.375.021 20.464.145c3.042 4.457 9.436 16.602 13.767 29.237 4.641 14.819 4.365 19.25 2.663 29.828.619 2.792 1.823 9.968 2.597 18.342s1.702 14.252 1.547 26.887c-2.888 2.547-12.652 7.017-29.359 4.431-.773-5.142-2.011-12.783-2.784-16.163-.822-3.589-1.547-8.815-4.641-10.725-1.392-.735-3.558-.735-4.331-.735-.696-.001-2.784 0-4.177.735-3.094 1.91-3.99 7.135-4.811 10.724-.773 3.379-1.84 11.022-2.614 16.164-14.711 2.789-27.86-1.913-29.562-4.263-.155-12.636.79-18.804 1.563-27.178s2.166-15.427 2.784-18.219c-1.702-10.578-2.011-13.81 2.475-29.825z" fill="#2c61bf"/></mask><g mask="url(#A)" class="B E M"><path d="M113.163 151.84l-.26.982v.002l-.004.011-.008.033-.033.112-.129.411-.547 1.435a21.21 21.21 0 0 1-2.481 4.34c-2.368 3.171-6.311 6.389-12.485 6.389-4.933 0-8.796-2.167-11.526-4.821-2.714-2.638-4.359-5.805-4.856-7.935l-.224-.959h32.554z"/></g><g class="B"><path d="M60.874 208.593c-1.529 8.133-4.889 30.59-4.607 47.226.006.377.128.742.404.999 3.457 3.23 16.768 5.907 27.975 4.053.711-.118 1.259-.683 1.373-1.395 1.578-9.824 2.203-20.09 5.993-24.53 1.353-1.586 3.042-1.91 5.414-1.91m36.772-24.443c1.529 8.133 4.674 30.59 4.388 47.226-.007.377-.129.742-.404.999-3.457 3.23-16.769 5.907-27.976 4.053-.711-.118-1.259-.683-1.373-1.395-1.577-9.824-2.203-20.09-5.992-24.53-1.354-1.586-3.042-1.91-5.415-1.91" class="E"/><g stroke-width="1.24"><path d="M60.788 206.929c.627.904 2.121 2.059 4.285 3.164 2.139 1.093 4.858 2.098 7.847 2.742 5.928 1.278 14.139 1.958 24.856 2.016 9.893.053 17.653-.511 23.469-1.711 2.92-.603 5.502-1.455 7.592-2.427 2.098-.977 3.663-2.058 4.585-3.098l.548-.619.44.701 1.706 2.716.247.393-.308.348c-2.878 3.248-7.637 5.317-13.858 6.6-6.28 1.296-14.412 1.862-24.446 1.808-10.846-.059-19.431-.743-25.824-2.121-6.269-1.352-10.981-3.481-13.356-6.905l-.193-.278.129-.312 1.201-2.901.434-1.049.647.933z" fill="#3d290e"/><rect x="89.31" y="213.111" width="17.211" height="9.573" rx="2.009" fill="#6c411f"/></g><path d="M110.626 228.746c.08-.035.173-.004.218.071s.025.172-.044.225c-1.933 1.485-7.286 4.444-13.309 4.444s-10.897-2.961-12.59-4.451c-.065-.058-.078-.154-.03-.226s.142-.098.22-.06c1.999.958 7.269 3.195 12.4 3.195s10.89-2.238 13.135-3.198z" fill="#000" class="F P"/></g><g filter="url(#J)" class="M"><path d="M51.914 179.891c6.423-12.498 18.927-23.345 25.52-27.08l3.524 1.557c-.328.372-6.309 3.462-9.606 8.427-4.514 9.201-10.407 23.368-11.452 33.032-.685 6.336-.033 9.576.499 12.217l.022.109c.535 2.661-1.841 14.17-2.258 18.298-3.692.322-6.522-1.023-9.934-5.191-5.343-7.656-3.558-27.273 3.686-41.369z"/></g><g filter="url(#K)"><path d="M58.157 226.452c-3.692.322-6.522-1.023-9.934-5.191-4.127-5.913-4.001-18.963-.392-31.092 6.044-.833 10.908 1.157 12.585 2.257-1.39 6.423-.535 13.068 0 15.728s-1.841 14.17-2.258 18.298z" fill="#0b624d"/></g><g filter="url(#L)"><use href="#Y" fill="#67af3f"/></g><use href="#Y" class="B E"/><path d="M55.687 209.145c.775 3.805 2.694 6.998 3.868 7.585-.174.752-.278 2.187-.694 4.687-2.05-2.782-3.853-8.157-3.742-12.271.011-.395.49-.388.569-.001z" fill="#000"/><g class="B E"><path d="M60.766 192.424c-1.968-1.042-7.257-2.951-12.673-2.257"/><path d="M77.438 152.553c-6.604 3.734-19.996 15.672-25.867 28.146-7.338 15.592-8.507 32.651-3.328 40.519 2.98 4.146 6.227 5.444 9.925 5.123 1.042-8.16 2.424-15.454 2.771-17.713"/></g><g filter="url(#M)"><path d="M54.555 171.678c2.998.84 8.743 4.26 10.209 7.68 5.208-18.923 12.557-23.205 15.972-24.478l-5.209-1.736c-4.46.858-11.462 5.613-21.172 17.949-.161.204-.051.515.199.585z" fill="#deebf9"/><path d="M75.746 152.485l5.209 1.736 1.867.622-1.844.688c-3.151 1.174-10.378 5.24-15.545 24.011l-.526 1.913-.781-1.823c-.654-1.525-2.322-3.143-4.289-4.511-1.95-1.357-4.065-2.381-5.47-2.775-.699-.196-1.042-1.067-.558-1.682l.906-1.14c4.494-5.589 8.408-9.55 11.759-12.251 3.567-2.874 6.536-4.352 8.921-4.811l.179-.034.172.057z" class="B N"/></g><g filter="url(#N)" class="M"><path d="M143.398 179.891c-6.423-12.498-18.927-23.345-25.52-27.08l-3.523 1.557c.328.372 5.606 2.421 9.606 8.427 4.514 9.201 10.407 23.368 11.452 33.032.685 6.336.032 9.576-.499 12.217l-.022.109c-.535 2.661 1.841 14.17 2.258 18.298 3.692.322 6.522-1.023 9.934-5.191 5.343-7.656 3.559-27.273-3.686-41.369z"/></g><g filter="url(#O)"><path d="M137.155 226.453c3.692.321 6.522-1.023 9.934-5.191 4.127-5.914 4.002-18.963.393-31.093-6.044-.833-10.908 1.158-12.585 2.257 1.39 6.424.535 13.068 0 15.729s1.841 14.169 2.258 18.298z" fill="#0b624d"/></g><g filter="url(#P)"><use href="#Z" fill="#67af3f"/></g><use href="#Z" class="B E"/><path d="M139.618 209.145c-.775 3.805-2.694 6.998-3.868 7.585.174.752.278 2.188.694 4.687 2.05-2.781 3.853-8.156 3.743-12.271-.011-.394-.491-.387-.569-.001z" fill="#000"/><g class="B E"><path d="M134.539 192.424c1.968-1.041 7.257-2.951 12.673-2.256"/><path d="M117.875 152.553c6.604 3.734 19.997 15.672 25.867 28.146 7.338 15.592 8.507 32.651 3.328 40.519-2.979 4.146-6.226 5.444-9.925 5.123-1.042-8.16-2.424-15.454-2.771-17.713"/></g><g filter="url(#Q)"><path d="M141.453 171.678c-2.998.84-8.743 4.26-10.209 7.681-5.208-18.923-12.558-23.205-15.972-24.478l5.209-1.736c4.459.857 11.461 5.612 21.171 17.948.161.205.052.515-.199.585z" fill="#deebf9"/><path d="M120.262 152.485l-5.209 1.737-1.867.622 1.843.687c3.151 1.175 10.379 5.241 15.545 24.012l.527 1.912.781-1.822c.654-1.526 2.322-3.143 4.289-4.512 1.95-1.357 4.065-2.381 5.47-2.774.699-.197 1.042-1.067.557-1.683l-.906-1.14c-4.494-5.589-8.408-9.55-11.759-12.251-3.567-2.874-6.536-4.351-8.921-4.81l-.178-.034-.172.056z" class="B N"/></g><path d="M59.362 198.073c1.98-15.397 9.437-31.147 12.064-35.849-1.598 4.555-6.055 15.82-9.455 29.008-1.605 6.228-1.543 11.784-.346 17.116l-.976 1.735c-.916-3.402-1.468-7.47-1.287-12.01zm76.729 0c-1.98-15.397-9.437-31.147-12.064-35.849 1.598 4.555 6.07 15.646 9.47 28.835 1.603 6.219 1.196 12.51 0 17.883l1.042 2.076c1.071-3.582 1.75-7.982 1.552-12.945z" fill="#000" class="B P"/><g filter="url(#R)"><path d="M84.786 224.603l4.277-48.891c-8.128-9.018-15.954-13.659-20.832-14.062-9.785 17.665-12.747 45.54-13.661 57.698-.034.457.212.878.63 1.065 8.993 4.033 24.223 5.177 28.606 5.122.524-.007.927-.411.978-.932z" class="I"/><path d="M68.296 160.872c2.623.217 5.927 1.554 9.56 3.924 3.648 2.381 7.687 5.843 11.788 10.393l.227.252-.03.339-4.277 48.899c-.086.882-.788 1.625-1.746 1.637-2.242.028-7.187-.249-12.695-1.036-5.501-.786-11.643-2.092-16.24-4.154a1.85 1.85 0 0 1-1.09-1.836c.458-6.096 1.43-16.138 3.516-26.875 2.084-10.727 5.289-22.206 10.24-31.144l.245-.441.503.042z" class="B E"/></g><mask id="B" maskUnits="userSpaceOnUse" x="54" y="161" width="35" height="65" mask-type="alpha"><path d="M68.667 162.486c2.195.302 5.017 1.434 8.25 3.527 3.406 2.205 7.218 5.444 11.164 9.786l-4.075 48.732c-.008.08-.041.137-.076.171s-.075.052-.132.052c-2.142.027-7.004-.241-12.454-1.02-5.458-.78-11.428-2.062-15.823-4.032-.113-.051-.181-.161-.171-.294.456-6.063 1.421-16.039 3.491-26.695 2.036-10.482 5.133-21.566 9.826-30.227z" class="B E I"/></mask><g mask="url(#B)" class="J"><path d="M54.172 221.198l.694-7.639c2.083.81 7.986 2.83 14.929 4.427s13.541 1.649 15.972 1.476c-.116 1.157-.452 2.986-.868 5.902-1.215.868-9.548 0-18.013-1.302-6.772-1.042-11.298-1.939-12.715-2.864z"/><path d="M74.048 192.513a1.3 1.3 0 0 1 1.869.148l2.07 2.517c.458.557.376 1.38-.182 1.836l-14.391 11.741c-.548.447-1.353.374-1.813-.164l-1.632-1.909c-.461-.54-.405-1.35.127-1.821l13.952-12.348z" class="B Q"/></g><g class="B E"><path d="M54.688 213.037c3.904 1.983 16.496 6.309 31.463 6.36"/><path d="M62.102 161.111c3.032-5.381 9.731-9.697 12.82-11.232 2.824 2.226 6.04 3.561 13.167 6.692-.531 5.799.411 10.527 1.863 18.91.032.183-.201.293-.328.156-11.395-12.243-22.88-13.345-27.103-13.744-.386-.036-.609-.445-.419-.782z" class="K"/></g><g filter="url(#S)"><path d="M110.308 224.603l-4.277-48.891c8.128-9.018 15.953-13.659 20.832-14.062 9.784 17.665 12.747 45.54 13.66 57.698.034.457-.212.878-.63 1.065-8.993 4.033-24.223 5.177-28.607 5.122-.524-.007-.927-.411-.978-.932z" class="I"/><path d="M126.798 160.872c-2.623.217-5.927 1.554-9.56 3.924-3.648 2.381-7.687 5.843-11.788 10.393l-.227.252.03.339 4.277 48.899c.087.882.789 1.625 1.746 1.637 2.242.028 7.187-.249 12.696-1.036 5.5-.786 11.642-2.092 16.24-4.154a1.85 1.85 0 0 0 1.09-1.836c-.458-6.096-1.43-16.138-3.516-26.875-2.084-10.727-5.289-22.206-10.24-31.144l-.245-.441-.503.042z" class="B E"/></g><mask id="C" maskUnits="userSpaceOnUse" x="106" y="161" width="35" height="65" mask-type="alpha"><path d="M126.427 162.486c-2.195.302-5.017 1.434-8.25 3.527-3.406 2.205-7.218 5.444-11.164 9.786l4.075 48.732c.008.08.041.137.076.171s.075.052.132.052c2.142.027 7.004-.241 12.454-1.02 5.458-.78 11.428-2.062 15.823-4.032.114-.051.181-.161.171-.294-.455-6.063-1.421-16.039-3.491-26.695-2.036-10.482-5.133-21.566-9.826-30.227z" class="B E I"/></mask><g mask="url(#C)" class="J"><path d="M140.922 221.198l-.695-7.639c-2.083.81-7.985 2.83-14.929 4.427s-13.541 1.649-15.972 1.476c.116 1.157.451 2.986.868 5.902 1.215.868 9.548 0 18.013-1.302 6.772-1.042 11.298-1.939 12.715-2.864z"/><path d="M121.046 192.513a1.3 1.3 0 0 0-1.869.148l-2.069 2.517c-.458.557-.376 1.38.182 1.836l14.391 11.741c.548.447 1.353.374 1.813-.164l1.631-1.909c.461-.54.405-1.35-.127-1.821l-13.952-12.348z" class="B Q"/></g><g class="B"><g class="E"><path d="M140.406 213.037c-3.904 1.983-16.496 6.309-31.463 6.36"/><path d="M132.992 161.111c-3.032-5.381-9.731-9.697-12.821-11.232-2.824 2.226-6.04 3.561-13.166 6.692.531 5.799-.411 10.527-1.863 18.91-.032.183.201.293.328.156 11.396-12.243 22.881-13.345 27.103-13.744.386-.036.609-.445.419-.782z" class="K"/></g><path d="M47.027 55.973c.528.021.879.459.879.922l-.004.093-6.114 59.396a.92.92 0 0 1-1.21.778c-6.165-2.074-12.203-5.53-17.052-8.83s-8.55-6.473-10.044-8.02c-.225-.232-.322-.581-.206-.914a.89.89 0 0 1 .731-.589l.317-.032c.513-.037 1.365-.04 2.725.098-1.442-1.052-3.027-2.385-4.666-3.869-3.043-2.754-6.356-6.103-9.431-9.335a.92.92 0 0 1-.1-1.144c5.282-7.943 15.386-15.362 21.296-19.058l-9.641-.678a.92.92 0 0 1-.835-.698.91.91 0 0 1 .459-1.024l.787-.401c4.058-1.989 9.908-3.688 15.696-4.877 6.177-1.269 12.388-1.978 16.413-1.817z" class="G R"/></g><mask id="D" maskUnits="userSpaceOnUse" x="3" y="56" width="45" height="61" mask-type="alpha"><path d="M40.359 115.482c-5.838-2.068-11.567-5.379-16.207-8.557-3.758-2.574-6.768-5.038-8.52-6.645.995.046 2.538.203 4.859.619l.431-1.439c-1.844-.787-4.522-2.858-7.567-5.618-2.883-2.613-6.023-5.775-8.978-8.872 2.856-4.155 7.085-8.193 11.293-11.593 4.369-3.53 8.67-6.337 11.282-7.835l2.127-1.22-2.445-.19-9.773-.696c3.732-1.617 8.734-3.017 13.802-4.054 5.871-1.202 11.732-1.899 15.668-1.903l-5.971 58.002z" class="B G R"/></mask><g mask="url(#D)"><path d="M14.792 89.88c-3.721-1.154-9.898-3.854-12.019-5.077 3.575 8.812 16.844 27.637 38.603 32.754l2.254-17.228c-11.613-4.356-22.975-9.348-29.765-13.574.012.335.213 1.43.926 3.125z" fill="#1b1f1f"/></g><path d="M159.974 53.281a171.29 171.29 0 0 1 11.902.456l6.064.68c1.766.287 3.31.654 4.297 1.144.264.131.433.398.44.693s-.151.569-.409.712l-9.026 4.996c3.606 1.831 8.206 5.087 12.373 8.533 4.726 3.91 9.043 8.186 10.753 11.056.183.306.138.697-.108.955-4.626 4.838-11.44 11.206-15.616 14.821l2-.188c.836-.085 1.619-.179 2.257-.294.678-.122 1.063-.249 1.205-.338.317-.201.734-.152.995.118s.297.689.085.999c-1.759 2.58-9.874 12.494-24.889 19.406 1.536 1.751 3.31 3.752 4.956 5.808 1.901 2.375 3.676 4.878 4.747 7.234.12.262.087.57-.084.801s-.456.352-.742.314c-4.061-.537-10.617-1.768-14.632-2.56l3.317 5.158a.79.79 0 0 1-.048.926c-.214.266-.574.366-.895.247l-12.819-4.775a.79.79 0 0 1-.508-.655c-.113-1.022-.045-2.627.147-4.639.193-2.032.52-4.538.948-7.393.858-5.711 2.129-12.847 3.576-20.43l8.938-43.164.041-.131c.121-.293.409-.49.735-.49z" class="B F G L"/><mask id="E" maskUnits="userSpaceOnUse" x="146" y="54" width="50" height="81" mask-type="alpha"><path d="M160.609 54.871c2.916.02 7.161.142 11.146.449 2.143.165 4.2.382 5.93.664.859.14 1.618.293 2.257.456l-8.824 4.887c-.265.147-.423.431-.408.734s.201.57.479.689c3.547 1.519 8.706 5.074 13.414 8.969 4.426 3.66 8.324 7.515 10.079 10.136-5.461 5.66-13.633 13.183-17.064 15.949-.281.227-.374.616-.224.945a.79.79 0 0 0 .858.454c1.075-.187 2.823-.31 4.553-.486a41.9 41.9 0 0 0 1.706-.205c-3.208 3.893-11.044 11.849-23.836 17.511-.23.102-.398.307-.453.553a.79.79 0 0 0 .176.693c1.703 1.958 3.74 4.216 5.617 6.56 1.502 1.877 2.874 3.775 3.868 5.57-4.784-.715-11.712-2.053-14.863-2.693-.312-.064-.633.066-.813.329s-.184.609-.012.878l3.042 4.728-10.105-3.765c-.037-.873.024-2.165.184-3.837.189-1.992.511-4.467.937-7.308.853-5.68 2.12-12.793 3.565-20.368l8.791-42.493z" class="B F G L"/></mask><g mask="url(#E)"><path d="M171.956 94.927c-9.138 3.863-22.233 6.63-25.196 7.433l-6.392 27.971 17.986 7.694 15.565-5.111 14.038-35.596 1.039-8.402-19.153 9.327c.089-.189.636-1.116 2.113-3.316z" fill="#1b1f1f"/></g><g filter="url(#T)" class="H"><path d="M170.707 82.025c-1.124-6.864-7.382-9.123-10.371-9.394 1.872 4.612 2.585 11.248 2.654 18.06-.069 6.813-.782 13.448-2.654 18.06 2.989-.271 9.247-2.53 10.371-9.394.353-2.747.462-5.972.472-8.667-.01-2.694-.119-5.92-.472-8.666z"/></g><path d="M160.405 71.863c1.612.146 4.057.818 6.259 2.361 2.221 1.556 4.204 4.008 4.805 7.676l.003.014.001.014c.358 2.793.468 6.055.478 8.762v.006c-.01 2.706-.12 5.969-.478 8.762l-.001.014-.003.013a11.37 11.37 0 0 1-4.805 7.677c-2.202 1.543-4.647 2.215-6.259 2.361l-1.261.114.476-1.174c1.814-4.468 2.528-10.975 2.598-17.761l-.021-1.27c-.141-6.328-.875-12.317-2.577-16.509l-.476-1.174 1.261.115z" class="B S"/><g filter="url(#U)" class="H"><path d="M24.433 82.025c1.124-6.864 7.383-9.123 10.371-9.394-1.872 4.612-2.585 11.248-2.654 18.06.069 6.813.782 13.448 2.654 18.06-2.989-.271-9.247-2.53-10.371-9.394-.352-2.747-.462-5.972-.472-8.667.01-2.694.119-5.92.472-8.666z"/></g><g class="B S"><path d="M34.735 71.863c-1.612.146-4.057.818-6.259 2.361-2.221 1.556-4.204 4.008-4.805 7.676l-.003.014-.001.014c-.358 2.793-.469 6.055-.479 8.762v.006c.01 2.706.12 5.969.479 8.762l.001.014.003.013c.601 3.668 2.584 6.12 4.805 7.677 2.202 1.543 4.647 2.215 6.259 2.361l1.262.114-.477-1.174c-1.814-4.468-2.528-10.975-2.598-17.761l.02-1.27c.142-6.328.875-12.317 2.577-16.509l.477-1.174-1.262.115z"/><circle cx="97.073" cy="91.057" r="65.939" fill="#181f2d"/></g><path d="M97.042 27.091c26.22 0 44.951 14.069 55.932 32.77-21.275-26.079-46.812-28.187-55.932-28.187S62.384 33.782 41.11 59.861c10.981-18.701 29.712-32.77 55.932-32.77zm-.005 121.701c-30.697 0-51.04-20.71-58.677-32.313 13.953 32.313 45.091 38.775 58.677 38.775s44.724-6.462 58.677-38.775c-7.637 11.603-27.98 32.313-58.677 32.313zm-.48-115.524c-36.692 0-56.377 27.574-61.276 41.349 5.829-11.709 26.244-34.783 61.276-34.783s56.157 22.046 62.084 33.41c-5.147-12.868-25.392-39.976-62.084-39.976z" class="H"/><g filter="url(#V)"><path d="M97.217 147.364c31.403-.045 62.966-24.39 62.966-56.616 0-23.829-27.71-49.374-62.966-49.415-35.256.041-62.967 25.586-62.967 49.415 0 32.226 31.563 56.571 62.967 56.616z" fill="#150d41"/></g><g fill="#ebf6fe" class="O"><path d="M48.799 71.766c-7.285 11.271-6.546 27.021-4.803 36.704.259 1.438 2.028 1.347 2.274-.093 1.306-7.655 4.169-19.735 12.137-31.465 8.543-12.578 19.815-21.311 27.338-25.385 1.237-.67.955-2.255-.44-2.069-9.829 1.314-27.49 8.36-36.506 22.309z"/><ellipse cx="141.32" cy="92.056" rx="9.278" ry="11.635" transform="rotate(9.588 141.32 92.056)"/><ellipse cx="130.255" cy="114.48" rx="4.831" ry="5.38" transform="rotate(8.436 130.255 114.48)"/></g><g class="G"><path d="M103.723 62.617a186.1 186.1 0 0 1 14.587.558c.799.064 1.255.897.95 1.596-6.999 16.017-14.604 24.695-18.26 27.634-.876.704-1.975-.134-1.814-1.081l.1-.605c.518-3.265 1.519-11.413.055-18.407-1.705 1.48-5.165 4.521-7.007 6.413-.675.693-2.024.292-1.953-.849.128-2.073.611-4.965 1.07-7.579.468-2.664.902-4.994.971-6.064.032-.491.379-.963.939-1.062l.402-.065c2.114-.317 5.75-.483 9.96-.489z" class="B L"/><path d="M159.586 65.126h1.389c1.736.694 3.298 1.736 5.902 2.951-.416 4.583-3.298 7.696-4.687 8.68l-2.257-7.465c-.833-2.639-.579-3.877-.347-4.166z"/></g><path d="M168.19 66.716c.015-.438-.327-.805-.765-.821s-.805.327-.821.765l.793.028.793.028zm-.793-.028l-.793-.028c-.068 1.916-1.191 6.652-5.11 9.812l.498.618.498.618c4.377-3.53 5.621-8.761 5.7-10.991l-.793-.028z" fill="#000"/><path d="M25.106 78.532c-1.029-1.082-2.812-3.6-3.575-4.724l8.16-1.736-2.604 8.159c-.232-.116-.952-.618-1.981-1.699z" class="G"/><g class="B"><path d="M21.708 73.981c1.041 1.91 3.905 5.25 5.422 6.407 1.92-6.224 3.029-10.304 4.22-11.064.501.913 1.13 2.534 1.871 5.004" stroke-linecap="round" class="F N"/><g class="L"><path d="M97.563 45.237c18.713 0 31.851 3.034 40.684 6.862 8.803 3.816 13.402 8.456 14.897 11.727l.18.394-.234.365a43.37 43.37 0 0 1-6.713 7.951c-2.9 2.662-6.425 4.989-9.957 5.175h-.001c-1.537.115-3.492-.487-5.73-1.332-1.147-.433-2.412-.947-3.78-1.498l-4.457-1.738c-6.399-2.375-14.667-4.789-24.888-4.789s-18.49 2.414-24.89 4.789c-1.601.594-3.085 1.186-4.457 1.738l-3.779 1.498c-2.239.845-4.194 1.448-5.731 1.332-3.532-.185-7.057-2.512-9.957-5.174-2.928-2.688-5.359-5.848-6.712-7.951l-.234-.365.18-.394c1.494-3.271 6.094-7.911 14.898-11.727 8.833-3.828 21.969-6.862 40.684-6.862z" class="K"/><path d="M97.396.794c41.519 0 60.703 22.306 61.96 35.868.913 9.843.276 22.756-.227 28.967-.087 1.076-1.077 1.814-2.116 1.659l-4.713-.703-.191-.028-.156-.113c-6.351-4.579-26.201-13.898-54.558-13.898s-48.206 9.319-54.558 13.898l-.156.113-.191.028-4.713.703c-1.039.155-2.029-.584-2.116-1.659-.503-6.211-1.139-19.124-.226-28.967C36.689 23.135 51.311.794 97.396.794z" fill="#f73d38"/><path d="M35.242 49.09c18.749-10.763 83.504-18.228 123.954 0"/><path d="M97.387 12.251a25.27 25.27 0 0 1 17.869 7.401c4.753 4.753 7.575 12.229 7.575 18.911v.861l-.857-.07-12.703-1.042-.728-.06v-.73c0-2.959-1.175-5.797-3.268-7.89s-4.93-3.268-7.889-3.268A11.16 11.16 0 0 0 86.23 37.523v.73l-.728.06-12.702 1.042-.857.07v-.861c0-6.682 2.822-14.158 7.575-18.911 4.739-4.739 11.168-7.401 17.87-7.401z" class="K"/></g></g><defs><filter id="F" x="56.594" y="152.621" width="81.938" height="81.941" filterUnits="userSpaceOnUse" class="C"><feFlood class="D"/><feBlend in="SourceGraphic" result="B"/><feColorMatrix in="SourceAlpha" values="0 0 0 0 0 0 0 0 0 0 0 0 0 0 0 0 0 0 127 0" result="C"/><feOffset dx="-5.20814" dy="-10.7635"/><feComposite in2="C" operator="arithmetic" k2="-1" k3="1"/><feColorMatrix values="0 0 0 0 0.843137 0 0 0 0 0.866667 0 0 0 0 0.917647 0 0 0 1 0"/><feBlend in2="B"/></filter><filter id="G" x="50.766" y="257.577" width="34.203" height="18.61" filterUnits="userSpaceOnUse" class="C"><feFlood class="D"/><feBlend in="SourceGraphic" result="B"/><feColorMatrix in="SourceAlpha" values="0 0 0 0 0 0 0 0 0 0 0 0 0 0 0 0 0 0 127 0" result="C"/><feOffset dx="4.16651" dy="-4.51372"/><feComposite in2="C" operator="arithmetic" k2="-1" k3="1"/><feColorMatrix values="0 0 0 0 0.145098 0 0 0 0 0.14902 0 0 0 0 0.168627 0 0 0 1 0"/><feBlend in2="B"/></filter><filter id="H" x="109.969" y="257.577" width="34.203" height="18.61" filterUnits="userSpaceOnUse" class="C"><feFlood class="D"/><feBlend in="SourceGraphic" result="B"/><feColorMatrix in="SourceAlpha" values="0 0 0 0 0 0 0 0 0 0 0 0 0 0 0 0 0 0 127 0" result="C"/><feOffset dx="-2.77767" dy="-4.51372"/><feComposite in2="C" operator="arithmetic" k2="-1" k3="1"/><feColorMatrix values="0 0 0 0 0.145098 0 0 0 0 0.14902 0 0 0 0 0.168627 0 0 0 1 0"/><feBlend in2="B"/></filter><filter id="I" x="56.602" y="209.218" width="82.313" height="52.326" filterUnits="userSpaceOnUse" class="C"><feFlood class="D"/><feBlend in="SourceGraphic" result="B"/><feColorMatrix in="SourceAlpha" values="0 0 0 0 0 0 0 0 0 0 0 0 0 0 0 0 0 0 127 0" result="C"/><feOffset dy="-6.24976"/><feComposite in2="C" operator="arithmetic" k2="-1" k3="1"/><feColorMatrix values="0 0 0 0 0.0196078 0 0 0 0 0.282353 0 0 0 0 0.517647 0 0 0 1 0"/><feBlend in2="B"/></filter><filter id="J" x="45.133" y="152.811" width="35.828" height="73.686" filterUnits="userSpaceOnUse" class="C"><feFlood class="D"/><feBlend in="SourceGraphic" result="B"/><feColorMatrix in="SourceAlpha" values="0 0 0 0 0 0 0 0 0 0 0 0 0 0 0 0 0 0 127 0" result="C"/><feOffset dx="4.86093" dy="-2.08325"/><feComposite in2="C" operator="arithmetic" k2="-1" k3="1"/><feColorMatrix values="0 0 0 0 0.858824 0 0 0 0 0.67451 0 0 0 0 0.458824 0 0 0 1 0"/><feBlend in2="B"/></filter><filter id="K" x="45.125" y="189.97" width="15.367" height="36.527" filterUnits="userSpaceOnUse" class="C"><feFlood class="D"/><feBlend in="SourceGraphic" result="B"/><feColorMatrix in="SourceAlpha" values="0 0 0 0 0 0 0 0 0 0 0 0 0 0 0 0 0 0 127 0" result="C"/><feOffset dx="4.86093" dy="-4.86093"/><feComposite in2="C" operator="arithmetic" k2="-1" k3="1"/><feColorMatrix values="0 0 0 0 0 0 0 0 0 0 0 0 0 0 0 0 0 0 0.18 0"/><feBlend in2="B"/></filter><filter id="L" x="45.195" y="189.248" width="16.609" height="11.48" filterUnits="userSpaceOnUse" class="C"><feFlood class="D"/><feBlend in="SourceGraphic" result="B"/><feColorMatrix in="SourceAlpha" values="0 0 0 0 0 0 0 0 0 0 0 0 0 0 0 0 0 0 127 0" result="C"/><feOffset dx="4.51372" dy="0.694418"/><feComposite in2="C" operator="arithmetic" k2="-1" k3="1"/><feColorMatrix values="0 0 0 0 0 0 0 0 0 0 0 0 0 0 0 0 0 0 0.14 0"/><feBlend in2="B"/></filter><filter id="M" x="52.883" y="151.711" width="32.023" height="33.228" filterUnits="userSpaceOnUse" class="C"><feFlood result="A" class="D"/><feColorMatrix in="SourceAlpha" values="0 0 0 0 0 0 0 0 0 0 0 0 0 0 0 0 0 0 127 0" result="B"/><feOffset dy="1.38884"/><feComposite in2="B" operator="out"/><feColorMatrix values="0 0 0 0 0 0 0 0 0 0 0 0 0 0 0 0 0 0 0.25 0"/><feBlend in2="A"/><feBlend in="SourceGraphic"/></filter><filter id="N" x="114.352" y="152.811" width="35.828" height="73.686" filterUnits="userSpaceOnUse" class="C"><feFlood class="D"/><feBlend in="SourceGraphic" result="B"/><feColorMatrix in="SourceAlpha" values="0 0 0 0 0 0 0 0 0 0 0 0 0 0 0 0 0 0 127 0" result="C"/><feOffset dx="-4.86093" dy="-2.08325"/><feComposite in2="C" operator="arithmetic" k2="-1" k3="1"/><feColorMatrix values="0 0 0 0 0.858824 0 0 0 0 0.67451 0 0 0 0 0.458824 0 0 0 1 0"/><feBlend in2="B"/></filter><filter id="O" x="134.82" y="189.971" width="15.367" height="36.527" filterUnits="userSpaceOnUse" class="C"><feFlood class="D"/><feBlend in="SourceGraphic" result="B"/><feColorMatrix in="SourceAlpha" values="0 0 0 0 0 0 0 0 0 0 0 0 0 0 0 0 0 0 127 0" result="C"/><feOffset dx="-4.86093" dy="-4.86093"/><feComposite in2="C" operator="arithmetic" k2="-1" k3="1"/><feColorMatrix values="0 0 0 0 0 0 0 0 0 0 0 0 0 0 0 0 0 0 0.18 0"/><feBlend in2="B"/></filter><filter id="P" x="133.508" y="189.248" width="16.609" height="11.48" filterUnits="userSpaceOnUse" class="C"><feFlood class="D"/><feBlend in="SourceGraphic" result="B"/><feColorMatrix in="SourceAlpha" values="0 0 0 0 0 0 0 0 0 0 0 0 0 0 0 0 0 0 127 0" result="C"/><feOffset dx="-4.51372" dy="0.694418"/><feComposite in2="C" operator="arithmetic" k2="-1" k3="1"/><feColorMatrix values="0 0 0 0 0 0 0 0 0 0 0 0 0 0 0 0 0 0 0.14 0"/><feBlend in2="B"/></filter><filter id="Q" x="111.102" y="151.712" width="32.023" height="33.228" filterUnits="userSpaceOnUse" class="C"><feFlood result="A" class="D"/><feColorMatrix in="SourceAlpha" values="0 0 0 0 0 0 0 0 0 0 0 0 0 0 0 0 0 0 127 0" result="B"/><feOffset dy="1.38884"/><feComposite in2="B" operator="out"/><feColorMatrix values="0 0 0 0 0 0 0 0 0 0 0 0 0 0 0 0 0 0 0.25 0"/><feBlend in2="A"/><feBlend in="SourceGraphic"/></filter><filter id="R" x="53.008" y="160.01" width="37.672" height="68.825" filterUnits="userSpaceOnUse" class="C"><feFlood result="A" class="D"/><feColorMatrix in="SourceAlpha" values="0 0 0 0 0 0 0 0 0 0 0 0 0 0 0 0 0 0 127 0" result="B"/><feOffset dy="1.73605"/><feComposite in2="B" operator="out"/><feColorMatrix values="0 0 0 0 0 0 0 0 0 0 0 0 0 0 0 0 0 0 0.25 0"/><feBlend in2="A"/><feBlend in="SourceGraphic" result="D"/><feColorMatrix in="SourceAlpha" values="0 0 0 0 0 0 0 0 0 0 0 0 0 0 0 0 0 0 127 0" result="B"/><feOffset dx="-1.73605" dy="6.24976"/><feComposite in2="B" operator="arithmetic" k2="-1" k3="1"/><feColorMatrix values="0 0 0 0 0 0 0 0 0 0 0 0 0 0 0 0 0 0 0.17 0"/><feBlend in2="D"/></filter><filter id="S" x="104.414" y="160.01" width="37.672" height="68.825" filterUnits="userSpaceOnUse" class="C"><feFlood result="A" class="D"/><feColorMatrix in="SourceAlpha" values="0 0 0 0 0 0 0 0 0 0 0 0 0 0 0 0 0 0 127 0" result="B"/><feOffset dy="1.73605"/><feComposite in2="B" operator="out"/><feColorMatrix values="0 0 0 0 0 0 0 0 0 0 0 0 0 0 0 0 0 0 0.25 0"/><feBlend in2="A"/><feBlend in="SourceGraphic" result="D"/><feColorMatrix in="SourceAlpha" values="0 0 0 0 0 0 0 0 0 0 0 0 0 0 0 0 0 0 127 0" result="B"/><feOffset dx="-1.73605" dy="6.24976"/><feComposite in2="B" operator="arithmetic" k2="-1" k3="1"/><feColorMatrix values="0 0 0 0 0 0 0 0 0 0 0 0 0 0 0 0 0 0 0.17 0"/><feBlend in2="D"/></filter><filter id="T" x="157.953" y="70.864" width="14.773" height="39.655" filterUnits="userSpaceOnUse" class="C"><feFlood class="D"/><feBlend in="SourceGraphic" result="B"/><feColorMatrix in="SourceAlpha" values="0 0 0 0 0 0 0 0 0 0 0 0 0 0 0 0 0 0 127 0" result="C"/><feOffset dx="-3.53453" dy="-6.77452"/><feComposite in2="C" operator="arithmetic" k2="-1" k3="1"/><feColorMatrix values="0 0 0 0 0.843137 0 0 0 0 0.866667 0 0 0 0 0.917647 0 0 0 1 0"/><feBlend in2="B"/></filter><filter id="U" x="22.414" y="70.864" width="14.773" height="39.655" filterUnits="userSpaceOnUse" class="C"><feFlood class="D"/><feBlend in="SourceGraphic" result="B"/><feColorMatrix in="SourceAlpha" values="0 0 0 0 0 0 0 0 0 0 0 0 0 0 0 0 0 0 127 0" result="C"/><feOffset dx="3.23999" dy="-6.77452"/><feComposite in2="C" operator="arithmetic" k2="-1" k3="1"/><feColorMatrix values="0 0 0 0 0.843137 0 0 0 0 0.866667 0 0 0 0 0.917647 0 0 0 1 0"/><feBlend in2="B"/></filter><filter id="V" x="34.25" y="41.333" width="125.93" height="106.031" filterUnits="userSpaceOnUse" class="C"><feFlood class="D"/><feBlend in="SourceGraphic" result="B"/><feColorMatrix in="SourceAlpha" values="0 0 0 0 0 0 0 0 0 0 0 0 0 0 0 0 0 0 127 0" result="C"/><feOffset dx="-0.343143" dy="-17.1572"/><feComposite in2="C" operator="arithmetic" k2="-1" k3="1"/><feColorMatrix values="0 0 0 0 0.133333 0 0 0 0 0.0588235 0 0 0 0 0.278431 0 0 0 1 0"/><feBlend in2="B"/></filter><path id="W" d="M51.748 271.204c-1.551-4.654 6.237-12.419 6.888-12.846h25.497c-.015.51.121 6.331 0 10.312-.151 4.976-7.764 6.218-15.131 6.605-7.55.398-15.862.108-17.254-4.071z"/><path id="X" d="M143.189 271.204c1.551-4.654-6.236-12.419-6.888-12.846h-25.497c.016.51-.121 6.331 0 10.312.151 4.976 7.764 6.218 15.131 6.605 7.551.398 15.862.108 17.254-4.071z"/><path id="Y" d="M59.784 199.255c-3.191-2.604-11.003-3.125-13.557-2.144.29-1.504 1.166-5.355 1.86-6.883 4.444-.833 10.416 1.157 12.846 2.257l-1.149 6.77z"/><path id="Z" d="M135.529 199.255c3.19-2.604 11.002-3.125 13.557-2.144-.29-1.504-1.166-5.355-1.86-6.883-4.444-.833-10.416 1.157-12.846 2.257l1.149 6.77z"/></defs></svg>