<svg xmlns="http://www.w3.org/2000/svg" width="150" height="263" fill="none" xmlns:v="https://vecta.io/nano"><style><![CDATA[.B{stroke:#000}.C{color-interpolation-filters:sRGB}.D{flood-opacity:0}.E{stroke-width:1.477}.F{fill:#242323}.G{fill:#fc2337}.H{stroke-linejoin:round}.I{fill:#161717}.J{fill:#f5cc9c}.K{fill:#ecf2ff}.L{fill-opacity:.53}.M{stroke-width:1.5}.N{stroke-width:.328}.O{stroke-width:1.46}.P{stroke-width:1.304}]]></style><g filter="url(#E)" class="F"><use href="#U"/></g><use href="#U" class="B E H"/><g filter="url(#F)" class="F"><use href="#V"/></g><use href="#V" class="B E H"/><g filter="url(#G)" class="F"><path d="M36.11 194.628c-1.609-11.035-1.901-14.407 2.34-31.113 1.881-6.096 4.158-11.941 6.357-16.956.41-.936-4.69-2.205-4.288-3.079 4.288-5.433 9.856-8.456 11.208-10.64l19.261.022 19.345.15c1.377 2.227 7.627 6.665 11.073 10.649.403.902-4.513 2.56-4.103 3.522 2.103 4.93 4.259 10.581 6.045 16.329 4.387 15.458 4.125 20.081 2.517 31.116.585 2.912 1.724 10.397 2.455 19.134s1.608 14.866 1.462 28.047c-2.73 2.657-11.96 7.32-27.754 4.622-.731-5.364-1.901-13.335-2.632-16.86-.777-3.744-1.462-9.196-4.387-11.188-1.316-.767-3.363-.767-4.095-.767-.658-.001-2.632 0-3.948.767-2.925 1.992-3.772 7.442-4.548 11.186-.731 3.525-1.74 11.498-2.471 16.862-13.907 2.909-26.337-1.995-27.946-4.447-.146-13.181.746-19.615 1.477-28.351s2.047-16.093 2.632-19.005z"/></g><mask id="A" maskUnits="userSpaceOnUse" x="32" y="132" width="79" height="116" mask-type="alpha"><path d="M36.446 194.627c-1.609-11.035-1.901-14.407 2.34-31.113 1.949-6.317 4.323-12.365 6.596-17.499l-1.9-1.856c-.972-.757-1.927-1.504-1.807-1.766 4.759-5.252 8.987-7.29 10.387-9.554l19.261.022 19.345.151c1.344 2.173 7.717 5.556 9.924 10.467.594 1.322-3.137 3.259-2.528 4.709 1.966 4.686 3.953 9.963 5.619 15.323 4.387 15.459 4.125 20.081 2.517 31.116.585 2.912 1.724 10.398 2.455 19.134s1.608 14.867 1.462 28.048c-2.73 2.656-11.96 7.319-27.754 4.622-.731-5.364-1.901-13.335-2.632-16.861-.777-3.744-1.462-9.196-4.387-11.188-1.316-.766-3.363-.766-4.094-.766-.658-.002-2.632 0-3.948.766-2.925 1.992-3.772 7.442-4.548 11.187-.731 3.525-1.74 11.498-2.471 16.862-13.907 2.909-26.337-1.996-27.946-4.448-.146-13.181.746-19.615 1.478-28.351s2.047-16.093 2.632-19.005z" fill="#1d1d1d"/></mask><g mask="url(#A)"><path d="M88.166 231.524c12.643-6.981 17.481-13.345 19.65-17.054l1.246 6.619c-3.509 3.084-9.806 7.131-20.896 10.435zm-35.082 0c-12.643-6.981-17.481-13.345-19.651-17.054l-1.245 6.619c3.509 3.084 9.806 7.131 20.896 10.435z" class="I"/><path d="M89.754 134.966H51.68c3.009 3.622 9.519 16.299 19.693 22.094 7.878-4.201 15.537-16.48 18.381-22.094z" class="J"/><g filter="url(#H)"><path d="M50.503 130.658l-7.354 4.836c5.615 9.654 14.573 19.516 22.973 27.582l5.088-5.229c-9.532-10.487-16.802-21.153-20.707-27.189z" fill="#373737"/></g><g filter="url(#I)"><path d="M50.634 176.623c19.724-13.579 35.254-36.037 41.678-45.967l7.354 4.837c-9.876 16.98-30.097 34.607-39.429 41.965-.656.055-2.509-.13-8.901-.765l-.702-.07z" fill="#373737"/></g><g filter="url(#J)"><path d="M107.925 173.024c-31.828 9.103-62.343 3.793-73.622 0-.661 1.445-.864 4.316-1.982 10.25 29.081 13.081 64.313 7.012 77.596 0-.7-1.484-1.119-6.204-1.991-10.25z" class="G"/><path d="M108.646 172.869l1.068 6.123.44 2.47c.151.71.295 1.21.43 1.497l.301.639-.624.329c-6.764 3.571-19.006 6.857-33.179 7.619-14.185.763-30.388-.997-45.064-7.599l-.53-.239.107-.571c.557-2.957.885-5.14 1.16-6.792.269-1.615.497-2.798.876-3.627l.276-.606.631.212c11.166 3.755 41.527 9.045 73.184-.01l.758-.216.166.771z" class="B E"/></g><g filter="url(#K)"><g filter="url(#L)"><rect x="51.516" y="171.261" width="39.056" height="25.6" rx="3.817" fill="#fff"/></g><rect x="51.516" y="171.261" width="39.056" height="25.6" rx="3.817" class="B E"/><path d="M76.508 171.73v9.249a4 4 0 0 1-1.292 2.944l-1.415 1.302a4 4 0 0 0-1.292 2.944v8.101" class="B E"/><path d="M61.841 179.94c2.242 0 3.938 1.982 3.938 4.269s-1.696 4.27-3.937 4.27-3.938-1.982-3.939-4.27 1.697-4.269 3.939-4.269z" class="B E G"/></g><path d="M70.722 211.104c-19.037 0-30.799-10.745-34.3-16.118-1.707 8.258-1.86 10.263-1.969 13.764 0 0 11.98 21.37 36.269 21.37s34.957-20.102 37.254-26.984l-2.297-8.15c-3.72 5.373-15.919 16.118-34.957 16.118z" fill="#181716"/></g><g class="B"><path d="M36.356 192.091c-1.448 8.501-4.634 31.999-4.354 49.363.005.331.105.653.332.894 3.191 3.392 15.854 6.224 26.503 4.277.668-.123 1.174-.664 1.272-1.336 1.504-10.284 2.087-21.058 5.682-25.707 1.279-1.654 2.876-1.992 5.118-1.992m34.762-25.499c1.448 8.501 4.43 31.999 4.146 49.363-.005.331-.105.653-.332.894-3.191 3.392-15.854 6.224-26.503 4.277-.668-.123-1.174-.664-1.272-1.336-1.504-10.284-2.087-21.058-5.682-25.707-1.279-1.654-2.876-1.992-5.118-1.992" class="E"/><path d="M83.381 213.131c.074-.035.163-.009.208.06s.031.161-.032.214c-1.826 1.548-6.889 4.637-12.588 4.637s-10.308-3.091-11.907-4.644c-.059-.057-.067-.149-.019-.215s.138-.087.21-.049c1.89 1 6.869 3.332 11.716 3.332s10.29-2.333 12.412-3.335z" fill="#000" class="H N"/></g><path d="M117.53 205.191c5.051-7.986 3.364-28.45-3.484-43.155-3.322-7.132-10.355-15.921-15.262-21.09l-3.373 6.157c5.867 9.459 10.176 22.272 11.086 31.557.647 6.609.03 9.99-.472 12.744l-.021.114c-.506 2.776 1.74 14.782 2.135 19.088 3.49.336 6.166-1.067 9.391-5.415z" class="F"/><path d="M89.21 135.329c-6.389 9.388-18.212 24.33-31.62 35.677m39.691-31.693c-8.079 12.16-19.094 23.871-28.367 31.874" class="B E"/><g filter="url(#M)" class="J"><path d="M108.141 210.605c3.49.336 6.165-1.067 9.391-5.415 3.901-6.168 3.783-19.781.371-32.434-5.713-.87-10.312 1.207-11.897 2.354 1.314 6.701.506 13.632 0 16.407s1.74 14.782 2.135 19.088z"/></g><path d="M110.484 192.552c-.733 3.97-2.546 7.299-3.656 7.912.164.785.263 2.282.657 4.889 1.937-2.901 3.641-8.507 3.537-12.8-.009-.378-.469-.373-.538-.001z" fill="#000"/><path d="M105.68 175.109c1.86-1.087 6.86-3.079 11.98-2.355" class="B E"/><path d="M24.407 205.188c-5.051-7.986-3.364-28.45 3.485-43.155 3.055-6.56 11.227-16.668 15.749-21.631l2.297 4.347-.701 4.527c-5.203 9.18-8.954 20.79-9.796 29.381-.648 6.609-.031 9.99.471 12.744l.021.114c.506 2.776-1.74 14.782-2.135 19.088-3.49.336-6.166-1.067-9.391-5.415z" class="F"/><g filter="url(#N)" class="J"><path d="M33.797 210.604c-3.49.335-6.166-1.067-9.391-5.415-3.901-6.169-3.783-19.782-.371-32.435 5.713-.869 10.312 1.208 11.897 2.354-1.314 6.701-.506 13.632 0 16.408s-1.74 14.781-2.135 19.088z"/></g><path d="M31.45 192.552c.733 3.969 2.546 7.299 3.656 7.911-.164.785-.263 2.282-.657 4.89-1.937-2.902-3.642-8.508-3.538-12.8.009-.378.47-.373.538-.001z" fill="#000"/><g class="B"><path d="M53.602 135.332c4.06 5.965 10.313 14.172 17.773 22.275m-25.844-18.291c5.77 8.684 13.037 17.14 20.098 24.179m-29.375 11.611c-1.86-1.087-6.86-3.079-11.98-2.354" class="E"/><path d="M34.935 181.119c1.872-16.062 8.921-32.492 11.404-37.397-1.511 4.751-5.724 16.503-8.938 30.261-2.864 12.261 1.044 24.608 3.966 30.432-2.776-2.299-6.87-11.188-6.432-23.296zm72.533-.001c-1.872-16.062-8.921-32.492-11.405-37.397 1.511 4.751 5.738 16.322 8.952 30.08 2.864 12.261-1.058 24.789-3.98 30.613 2.776-2.299 6.871-11.188 6.433-23.296z" fill="#000" class="N"/><path d="M89.918 133.523c6.243 3.895 18.903 16.349 24.453 29.361 6.937 16.265 8.042 34.06 3.146 42.268-2.817 4.325-5.886 5.679-9.382 5.344-.985-8.512-2.134-15.391-2.462-17.748M52.016 133.52c-6.243 3.895-18.903 16.348-24.453 29.36-6.937 16.265-8.042 34.061-3.146 42.269 2.817 4.325 5.886 5.678 9.383 5.343.985-8.511 2.133-15.39 2.462-17.747" class="E"/></g><g filter="url(#O)" class="K"><path d="M140.187 60.057c-1.063-7.16-6.979-9.516-9.804-9.799 1.77 4.811 2.444 11.733 2.509 18.84-.065 7.107-.739 14.029-2.509 18.84 2.825-.283 8.741-2.639 9.804-9.799.333-2.865.437-6.23.446-9.041-.009-2.81-.113-6.175-.446-9.041z"/></g><path d="M130.456 49.531c2.976.298 9.128 2.733 10.397 10.066l.056.354.002.012.001.011c.338 2.905.442 6.302.451 9.123v.005c-.009 2.821-.113 6.217-.451 9.122l-.001.012-.002.012c-1.129 7.608-7.43 10.115-10.453 10.418l-1.161.116.403-1.095c1.724-4.685 2.398-11.496 2.464-18.581l-.019-1.325c-.134-6.608-.828-12.875-2.445-17.27l-.403-1.095 1.161.116z" class="B O"/><g filter="url(#P)" class="K"><path d="M1.907 60.057c1.063-7.16 6.979-9.516 9.804-9.799-1.77 4.811-2.444 11.733-2.509 18.84.065 7.107.739 14.029 2.509 18.84-2.825-.283-8.742-2.639-9.804-9.799-.333-2.865-.437-6.23-.446-9.041.009-2.81.113-6.175.446-9.041z"/></g><g class="B O"><path d="M11.638 49.531c-2.976.298-9.128 2.733-10.396 10.066l-.057.354-.002.012-.001.011C.844 62.878.74 66.275.73 69.096v.005c.009 2.821.113 6.217.451 9.122l.001.012.002.012c1.129 7.608 7.43 10.115 10.453 10.418l1.161.116-.403-1.095c-1.723-4.685-2.398-11.496-2.464-18.581l.02-1.325c.134-6.608.827-12.875 2.444-17.27l.403-1.095-1.161.116z"/><path d="M70.589.77c34.492 0 62.334 30.832 62.334 68.71s-27.842 68.71-62.334 68.71S8.255 107.358 8.255 69.48 36.097.77 70.589.77z" fill="#181f2d"/></g><path d="M70.558 2.753c24.787 0 42.494 14.676 52.875 34.185C103.321 9.733 79.18 7.534 70.558 7.534S37.795 9.733 17.684 36.938C28.064 17.429 45.772 2.753 70.558 2.753zm-.002 126.953c-29.019 0-48.25-21.604-55.47-33.708 13.191 33.708 42.626 40.449 55.47 40.449s42.279-6.741 55.469-40.449c-7.22 12.104-26.45 33.708-55.469 33.708zM70.094 9.195c-34.686 0-53.295 28.764-57.926 43.134 5.51-12.214 24.809-36.284 57.926-36.284s53.087 22.998 58.69 34.853c-4.866-13.423-24.004-41.702-58.69-41.702z" class="K"/><g filter="url(#Q)"><path d="M70.724 128.218c29.686-.046 59.524-25.443 59.524-59.06 0-24.858-26.195-51.505-59.524-51.548-33.329.043-59.524 26.691-59.524 51.549 0 33.617 29.838 59.014 59.524 59.06z" fill="#150d41"/></g><g fill="#ebf6fe" class="L"><path d="M24.953 49.355c-6.882 11.748-6.189 28.161-4.544 38.265.227 1.392 1.939 1.312 2.155-.082 1.235-7.986 3.942-20.582 11.472-32.815 8.256-13.413 19.208-22.636 26.315-26.759 1.121-.65.853-2.111-.432-1.944-9.192 1.193-26.301 8.544-34.965 23.335z"/><ellipse cx="8.797" cy="12.107" rx="8.797" ry="12.107" transform="matrix(.983068 .183242 -.151311 .988486 105.598 56.9414)"/><ellipse cx="4.578" cy="5.601" rx="4.578" ry="5.601" transform="matrix(.98687 .161518 -.133209 .991088 98.1875 87.624)"/></g><g stroke-width="1.172" class="B G"><path d="M137.419 45.65c-3.146.695-6.41-.773-7.648-1.594l-.233 6.198c1.029.461 3.951 1.409 7.405 1.514 4.319.132 7.848-2.387 9.181-3.992-.144-1.673-.277-3.672-1.294-4.96-1.079.343-3.479 1.965-7.411 2.834z"/><path d="M130.934 33.587c-3.194 1.789-4.261 5.186-4.395 6.661.309.439 1.335 2.283 2.967 6.148 1.637-4.173 3.586-6.404 7.812-7.747s6.521-3.362 7.497-4.102.561-2.327.005-4.084-1.548-2.946-2.659-3.445c-1.347 3.444-7.235 4.333-11.227 6.568z"/></g><g filter="url(#R)" class="F"><path d="M37.877 42.601c-13.847 1.337-23.589 7.686-26.893 10.693C14.856 36.049 31.926 1.579 70.558 1.5c38.631.079 55.701 34.549 59.573 51.794-3.304-3.007-13.046-9.356-26.893-10.693-17.239-1.664-21.799 5.821-32.68 5.617-10.881.204-15.441-7.281-32.68-5.617z"/></g><path d="M130.862 53.13c-1.958-8.724-7.244-21.774-16.923-32.668C104.245 9.55 90.127.79 70.56.75h-.004c-19.568.04-33.685 8.8-43.38 19.712-9.679 10.894-14.964 23.944-16.923 32.668l-.52 2.318 1.757-1.6c3.199-2.911 12.792-9.182 26.46-10.501 8.481-.819 13.819.609 18.403 2.222 4.578 1.611 8.6 3.501 14.205 3.4 5.605.102 9.627-1.789 14.205-3.4 4.585-1.613 9.922-3.04 18.403-2.222l.638.065c13.328 1.449 22.673 7.569 25.822 10.435l1.757 1.6-.521-2.318z" class="B M"/><mask id="B" maskUnits="userSpaceOnUse" x="12" y="0" width="118" height="52" mask-type="alpha"><path d="M128.139 49.723c-2.214-8.279-7.206-19.675-15.76-29.303C103.082 9.956 89.594 1.593 70.871 1.555c-18.723.039-32.211 8.401-41.508 18.865-8.553 9.627-13.545 21.023-15.759 29.302 4.361-3.269 13.218-8.122 25.098-9.269 8.602-.83 14.065.626 18.706 2.259s8.274 3.352 13.449 3.255l.014-.001.014.001c5.175.097 8.805-1.621 13.449-3.255s10.104-3.089 18.706-2.259c11.88 1.147 20.737 6.001 25.099 9.27z" stroke-width="1.473" class="B F"/></mask><g mask="url(#B)" class="I"><path d="M57.927 26.662C31.818 30.476 19.793 38.437 13.93 43.515l6.4-11.952c7.877-3.079 16.247-6.52 37.597-4.9zm20.998-9.597c26.108 3.814 38.134 11.775 43.997 16.853l-6.401-11.953c-7.877-3.079-16.247-6.519-37.596-4.9z"/></g><g filter="url(#S)" class="G"><path d="M15.445 38.445c-2.283 0-2.462 1.449-3.446 4.165l-1.422 5.629c-.547 2.339-.368 3.463 2.057 3.778s12.411 1.259 24.109 2.047 23.552.884 33.681 1.042c10.129-.157 21.983-.255 33.681-1.042s21.99-1.722 24.415-2.037 2.462-1.811 1.751-3.788c-.59-1.64-1.094-4.362-1.637-5.57-1.002-2.233-1.606-3.947-3.888-3.947s-2.381 1.173-21.497 1.645l-32.825.787c-9.13 0-13.709-.315-32.825-.787s-19.871-1.924-22.153-1.924z"/></g><path d="M15.445 37.793c.645 0 1.179.105 1.868.248l2.99.544c2.827.416 7.766.896 17.311 1.132l32.809.787c9.12 0 13.674-.314 32.809-.787 9.548-.236 14.326-.646 16.993-.994 1.33-.174 2.138-.332 2.766-.449s1.119-.202 1.754-.202c1.351 0 2.257.528 2.935 1.383.626.789 1.069 1.881 1.549 2.949.298.666.574 1.711.836 2.727.272 1.052.537 2.105.819 2.89.358.996.606 2.055.304 2.946-.336.996-1.25 1.535-2.584 1.708-2.448.318-12.759 1.254-24.457 2.041-11.718.788-23.592.886-33.713 1.043l-.011.001-.01-.001c-10.121-.157-21.996-.254-33.715-1.043-11.699-.787-21.702-1.732-24.148-2.05-1.273-.165-2.228-.574-2.653-1.506-.199-.436-.247-.922-.222-1.419s.127-1.051.267-1.648c.399-1.706.939-3.676 1.424-5.638l.009-.033.012-.032.634-1.801c.194-.527.401-1.019.668-1.433.275-.425.622-.782 1.101-1.023.471-.238 1.02-.339 1.657-.339z" class="B P"/><mask id="C" maskUnits="userSpaceOnUse" x="10" y="38" width="121" height="18" mask-type="alpha"><path d="M15.445 39.098c.496 0 .912.076 1.604.22l3.066.558c2.9.427 7.897.909 17.468 1.145l32.841.787c9.14 0 13.745-.315 32.841-.787 9.568-.236 14.398-.648 17.13-1.005 1.368-.179 2.208-.343 2.836-.46s1.009-.18 1.515-.18c.931 0 1.468.328 1.913.889.497.626.858 1.509 1.381 2.673.243.542.491 1.462.764 2.519.263 1.021.545 2.149.853 3.005.353.981.442 1.657.297 2.087-.11.325-.427.691-1.517.833-2.404.312-12.679 1.246-24.376 2.033-11.673.785-23.503.882-33.637 1.039-10.134-.157-21.964-.254-33.637-1.039-11.695-.787-21.665-1.73-24.069-2.042-1.151-.15-1.5-.461-1.634-.755-.08-.176-.126-.43-.106-.811s.101-.845.234-1.417c.398-1.703.915-3.582 1.413-5.594l.619-1.756c.188-.509.354-.888.54-1.176.178-.276.365-.452.593-.567.235-.119.565-.198 1.069-.198z" class="B F P"/></mask><g mask="url(#C)"><path d="M19.145 44.378c-2.759-.326-5.747-3.261-6.404-4.484-.205.226-.813 1.957-1.108 3.261.369.408 2.586 1.495 7.512 1.223zm103.429 3.986c2.759-.326 5.747-3.261 6.404-4.484.205.227.812 1.957 1.108 3.261-.369.408-2.586 1.495-7.512 1.223zm-52.349-1.951H24.766c8.698.785 29.967 2.354 45.46 2.354s37.09-1.57 45.952-2.354H70.225z" fill="#bd1a29"/></g><g filter="url(#T)" class="F"><path d="M37.877 96.221c-13.847-1.337-23.589-7.686-26.893-10.693 3.871 17.245 20.942 51.716 59.573 51.794 38.631-.078 55.701-34.549 59.573-51.794-3.304 3.007-13.046 9.356-26.893 10.693-17.239 1.664-21.799-5.821-32.68-5.617-10.881-.204-15.441 7.281-32.68 5.617z"/></g><path d="M130.862 85.692c-1.958 8.724-7.244 21.774-16.923 32.668-9.694 10.912-23.812 19.672-43.379 19.712h-.004c-19.568-.04-33.685-8.8-43.38-19.712-9.679-10.894-14.964-23.944-16.923-32.668l-.52-2.318 1.757 1.6c3.199 2.912 12.792 9.182 26.46 10.501 8.481.819 13.819-.609 18.403-2.222 4.578-1.611 8.6-3.501 14.205-3.399 5.605-.102 9.627 1.789 14.205 3.399 4.585 1.613 9.922 3.04 18.403 2.222l.638-.065c13.328-1.449 22.673-7.57 25.822-10.436l1.757-1.6-.521 2.318z" class="B M"/><mask id="D" maskUnits="userSpaceOnUse" x="10" y="85" width="121" height="53" mask-type="alpha"><path d="M128.863 87.532c-2.253 8.429-7.336 20.032-16.045 29.834-9.466 10.654-23.198 19.167-42.26 19.207-19.063-.04-32.795-8.553-42.261-19.207-8.709-9.802-13.792-21.405-16.045-29.834 4.44 3.328 13.458 8.27 25.554 9.438 8.758.845 14.32-.637 19.045-2.3s8.424-3.412 13.693-3.313h.027c5.269-.099 8.965 1.65 13.693 3.313s10.288 3.145 19.046 2.3l-.001-.001c12.095-1.168 21.113-6.108 25.553-9.437z" class="B F M"/></mask><g mask="url(#D)" class="I"><path d="M57.943 112.161c-26.109-3.813-38.134-11.775-43.997-16.852l6.4 11.952c7.877 3.079 16.247 6.52 37.597 4.9zm20.989 9.599c26.109-3.814 38.134-11.775 43.998-16.853l-6.401 11.952c-7.877 3.079-16.247 6.52-37.597 4.901z"/></g><defs><filter id="E" x="26.805" y="243.265" width="32.332" height="19.261" filterUnits="userSpaceOnUse" class="C"><feFlood class="D"/><feBlend in="SourceGraphic" result="B"/><feColorMatrix in="SourceAlpha" values="0 0 0 0 0 0 0 0 0 0 0 0 0 0 0 0 0 0 127 0" result="C"/><feOffset dx="3.93873" dy="-4.26696"/><feComposite in2="C" operator="arithmetic" k2="-1" k3="1"/><feColorMatrix values="0 0 0 0 0.0941176 0 0 0 0 0.0901961 0 0 0 0 0.0862745 0 0 0 1 0"/><feBlend in2="B"/></filter><filter id="F" x="82.777" y="243.265" width="32.332" height="19.261" filterUnits="userSpaceOnUse" class="C"><feFlood class="D"/><feBlend in="SourceGraphic" result="B"/><feColorMatrix in="SourceAlpha" values="0 0 0 0 0 0 0 0 0 0 0 0 0 0 0 0 0 0 127 0" result="C"/><feOffset dx="-2.62582" dy="-4.26696"/><feComposite in2="C" operator="arithmetic" k2="-1" k3="1"/><feColorMatrix values="0 0 0 0 0.0941176 0 0 0 0 0.0901961 0 0 0 0 0.0862745 0 0 0 1 0"/><feBlend in2="B"/></filter><filter id="G" x="31.984" y="132.84" width="77.813" height="114.486" filterUnits="userSpaceOnUse" class="C"><feFlood class="D"/><feBlend in="SourceGraphic" result="B"/><feColorMatrix in="SourceAlpha" values="0 0 0 0 0 0 0 0 0 0 0 0 0 0 0 0 0 0 127 0" result="C"/><feOffset dy="-5.9081"/><feComposite in2="C" operator="arithmetic" k2="-1" k3="1"/><feColorMatrix values="0 0 0 0 0.0941176 0 0 0 0 0.0901961 0 0 0 0 0.0862745 0 0 0 1 0"/><feBlend in2="B"/></filter><filter id="H" x="43.148" y="130.658" width="28.063" height="36.357" filterUnits="userSpaceOnUse" class="C"><feFlood result="A" class="D"/><feColorMatrix in="SourceAlpha" values="0 0 0 0 0 0 0 0 0 0 0 0 0 0 0 0 0 0 127 0" result="B"/><feOffset dy="3.93873"/><feComposite in2="B" operator="out"/><feColorMatrix values="0 0 0 0 0 0 0 0 0 0 0 0 0 0 0 0 0 0 0.25 0"/><feBlend in2="A"/><feBlend in="SourceGraphic"/></filter><filter id="I" x="50.633" y="130.656" width="49.031" height="50.75" filterUnits="userSpaceOnUse" class="C"><feFlood result="A" class="D"/><feColorMatrix in="SourceAlpha" values="0 0 0 0 0 0 0 0 0 0 0 0 0 0 0 0 0 0 127 0" result="B"/><feOffset dy="3.93873"/><feComposite in2="B" operator="out"/><feColorMatrix values="0 0 0 0 0 0 0 0 0 0 0 0 0 0 0 0 0 0 0.25 0"/><feBlend in2="A"/><feBlend in="SourceGraphic"/></filter><filter id="J" x="30.652" y="171.17" width="81.199" height="23.25" filterUnits="userSpaceOnUse" class="C"><feFlood result="A" class="D"/><feColorMatrix in="SourceAlpha" values="0 0 0 0 0 0 0 0 0 0 0 0 0 0 0 0 0 0 127 0" result="B"/><feOffset dy="1.96937"/><feComposite in2="B" operator="out"/><feColorMatrix values="0 0 0 0 0.0941176 0 0 0 0 0.0901961 0 0 0 0 0.0862745 0 0 0 1 0"/><feBlend in2="A"/><feBlend in="SourceGraphic" result="D"/><feColorMatrix in="SourceAlpha" values="0 0 0 0 0 0 0 0 0 0 0 0 0 0 0 0 0 0 127 0" result="B"/><feOffset dy="-5.57987"/><feComposite in2="B" operator="arithmetic" k2="-1" k3="1"/><feColorMatrix values="0 0 0 0 0.741176 0 0 0 0 0.129412 0 0 0 0 0.164706 0 0 0 1 0"/><feBlend in2="D"/></filter><filter id="K" x="50.777" y="170.523" width="40.531" height="29.046" filterUnits="userSpaceOnUse" class="C"><feFlood result="A" class="D"/><feColorMatrix in="SourceAlpha" values="0 0 0 0 0 0 0 0 0 0 0 0 0 0 0 0 0 0 127 0" result="B"/><feOffset dy="1.96937"/><feComposite in2="B" operator="out"/><feColorMatrix values="0 0 0 0 0.0941176 0 0 0 0 0.0901961 0 0 0 0 0.0862745 0 0 0 1 0"/><feBlend in2="A"/><feBlend in="SourceGraphic"/></filter><filter id="L" x="50.777" y="170.523" width="40.531" height="27.076" filterUnits="userSpaceOnUse" class="C"><feFlood class="D"/><feBlend in="SourceGraphic" result="B"/><feColorMatrix in="SourceAlpha" values="0 0 0 0 0 0 0 0 0 0 0 0 0 0 0 0 0 0 127 0" result="C"/><feOffset dx="2.95405" dy="-4.26696"/><feComposite in2="C" operator="arithmetic" k2="-1" k3="1"/><feColorMatrix values="0 0 0 0 0.847059 0 0 0 0 0.847059 0 0 0 0 0.847059 0 0 0 1 0"/><feBlend in2="B"/></filter><filter id="M" x="105.934" y="172.548" width="14.527" height="38.105" filterUnits="userSpaceOnUse" class="C"><feFlood class="D"/><feBlend in="SourceGraphic" result="B"/><feColorMatrix in="SourceAlpha" values="0 0 0 0 0 0 0 0 0 0 0 0 0 0 0 0 0 0 127 0" result="C"/><feOffset dx="-2.29759" dy="-5.9081"/><feComposite in2="C" operator="arithmetic" k2="-1" k3="1"/><feColorMatrix values="0 0 0 0 0.858824 0 0 0 0 0.67451 0 0 0 0 0.458824 0 0 0 1 0"/><feBlend in2="B"/></filter><filter id="N" x="21.477" y="172.547" width="14.527" height="38.105" filterUnits="userSpaceOnUse" class="C"><feFlood class="D"/><feBlend in="SourceGraphic" result="B"/><feColorMatrix in="SourceAlpha" values="0 0 0 0 0 0 0 0 0 0 0 0 0 0 0 0 0 0 127 0" result="C"/><feOffset dx="2.29759" dy="-5.9081"/><feComposite in2="C" operator="arithmetic" k2="-1" k3="1"/><feColorMatrix values="0 0 0 0 0.858824 0 0 0 0 0.67451 0 0 0 0 0.458824 0 0 0 1 0"/><feBlend in2="B"/></filter><filter id="O" x="128.207" y="48.573" width="13.887" height="41.05" filterUnits="userSpaceOnUse" class="C"><feFlood class="D"/><feBlend in="SourceGraphic" result="B"/><feColorMatrix in="SourceAlpha" values="0 0 0 0 0 0 0 0 0 0 0 0 0 0 0 0 0 0 127 0" result="C"/><feOffset dx="-3.3413" dy="-6.40416"/><feComposite in2="C" operator="arithmetic" k2="-1" k3="1"/><feColorMatrix values="0 0 0 0 0.843137 0 0 0 0 0.866667 0 0 0 0 0.917647 0 0 0 1 0"/><feBlend in2="B"/></filter><filter id="P" x="0" y="48.573" width="13.887" height="41.05" filterUnits="userSpaceOnUse" class="C"><feFlood class="D"/><feBlend in="SourceGraphic" result="B"/><feColorMatrix in="SourceAlpha" values="0 0 0 0 0 0 0 0 0 0 0 0 0 0 0 0 0 0 127 0" result="C"/><feOffset dx="3.06286" dy="-6.40416"/><feComposite in2="C" operator="arithmetic" k2="-1" k3="1"/><feColorMatrix values="0 0 0 0 0.843137 0 0 0 0 0.866667 0 0 0 0 0.917647 0 0 0 1 0"/><feBlend in2="B"/></filter><filter id="Q" x="11.199" y="17.609" width="119.051" height="110.608" filterUnits="userSpaceOnUse" class="C"><feFlood class="D"/><feBlend in="SourceGraphic" result="B"/><feColorMatrix in="SourceAlpha" values="0 0 0 0 0 0 0 0 0 0 0 0 0 0 0 0 0 0 127 0" result="C"/><feOffset dx="-0.324384" dy="-16.2192"/><feComposite in2="C" operator="arithmetic" k2="-1" k3="1"/><feColorMatrix values="0 0 0 0 0.13338 0 0 0 0 0.0604861 0 0 0 0 0.279167 0 0 0 0.9 0"/><feBlend in2="B"/></filter><filter id="R" x="8.48" y="0" width="124.156" height="57.602" filterUnits="userSpaceOnUse" class="C"><feFlood class="D"/><feBlend in="SourceGraphic" result="B"/><feColorMatrix in="SourceAlpha" values="0 0 0 0 0 0 0 0 0 0 0 0 0 0 0 0 0 0 127 0" result="C"/><feOffset dy="3.6105"/><feComposite in2="C" operator="arithmetic" k2="-1" k3="1"/><feColorMatrix values="0 0 0 0 0.0862745 0 0 0 0 0.0901961 0 0 0 0 0.0901961 0 0 0 1 0"/><feBlend in2="B"/></filter><filter id="S" x="9.016" y="37.141" width="122.961" height="19.269" filterUnits="userSpaceOnUse" class="C"><feFlood class="D"/><feBlend in="SourceGraphic" result="B"/><feColorMatrix in="SourceAlpha" values="0 0 0 0 0 0 0 0 0 0 0 0 0 0 0 0 0 0 127 0" result="C"/><feOffset dy="-2.95405"/><feComposite in2="C" operator="arithmetic" k2="-1" k3="1"/><feColorMatrix values="0 0 0 0 0 0 0 0 0 0 0 0 0 0 0 0 0 0 0.25 0"/><feBlend in2="B"/></filter><filter id="T" x="8.48" y="81.22" width="124.156" height="57.602" filterUnits="userSpaceOnUse" class="C"><feFlood class="D"/><feBlend in="SourceGraphic" result="B"/><feColorMatrix in="SourceAlpha" values="0 0 0 0 0 0 0 0 0 0 0 0 0 0 0 0 0 0 127 0" result="C"/><feOffset dy="-3.6105"/><feComposite in2="C" operator="arithmetic" k2="-1" k3="1"/><feColorMatrix values="0 0 0 0 0.0862745 0 0 0 0 0.0901961 0 0 0 0 0.0901961 0 0 0 1 0"/><feBlend in2="B"/></filter><path id="U" d="M27.734 257.405c-1.466-4.856 5.896-12.956 6.512-13.401h24.103c-.015.532.114 6.604 0 10.757-.143 5.191-7.34 6.486-14.304 6.891-7.138.414-14.995.111-16.311-4.247z"/><path id="V" d="M114.18 257.405c1.466-4.856-5.896-12.956-6.512-13.401H83.565c.015.532-.114 6.604 0 10.757.143 5.191 7.34 6.486 14.304 6.891 7.138.414 14.995.111 16.311-4.247z"/></defs></svg>