<svg width="203" height="323" viewBox="0 0 203 323" fill="none" xmlns="http://www.w3.org/2000/svg">
<g filter="url(#filter0_f_142_13400)">
<ellipse cx="101.167" cy="305.21" rx="75.4876" ry="15.2146" fill="#00775E" fill-opacity="0.89"/>
</g>
<g filter="url(#filter1_i_142_13400)">
<rect x="52.2539" y="163.417" width="98.6232" height="98.6232" rx="18.3874" fill="#ECF2FF"/>
</g>
<rect x="53.1942" y="164.358" width="96.7426" height="96.7426" rx="17.4471" stroke="black" stroke-width="1.88053"/>
<path d="M46.0058 305.723C44.1394 300.122 53.5121 290.776 54.2963 290.262L84.984 290.262C84.9654 290.876 85.1297 297.881 84.984 302.673C84.802 308.662 75.6394 310.157 66.7726 310.623C57.6851 311.102 47.6814 310.752 46.0058 305.723Z" fill="#F5CC9C" stroke="black" stroke-width="1.88053" stroke-linejoin="round"/>
<mask id="mask0_142_13400" style="mask-type:alpha" maskUnits="userSpaceOnUse" x="45" y="290" width="41" height="21">
<path d="M84.0488 291.202C84.0589 292.064 84.0787 293.399 84.0915 294.909C84.112 297.334 84.1162 300.268 84.044 302.644C83.9716 305.025 82.1502 306.684 78.8284 307.83C75.54 308.965 71.1459 309.452 66.7235 309.685C62.1922 309.923 57.5061 309.949 53.7679 309.312C51.8988 308.993 50.323 308.517 49.1371 307.857C47.961 307.202 47.2212 306.398 46.8974 305.426C46.529 304.32 46.6886 302.929 47.2832 301.347C47.872 299.781 48.8437 298.146 49.9228 296.63C50.9982 295.12 52.1577 293.759 53.097 292.745C53.5662 292.239 53.9776 291.823 54.291 291.521C54.4267 291.391 54.5419 291.284 54.6339 291.202L84.0488 291.202Z" fill="white" stroke="black" stroke-width="1.88053" stroke-linejoin="round"/>
</mask>
<g mask="url(#mask0_142_13400)">
<path d="M66.0828 296.648C70.7674 298.712 77.3545 301.7 81.2121 310.816L81.4603 311.403L80.9122 311.729C78.6439 313.079 77.0765 313.575 76.473 313.643L75.8708 313.712L75.6917 313.133C75.2097 311.574 73.7147 309.29 71.4591 307.014C69.2191 304.754 66.2961 302.57 63.0435 301.174L63.031 301.169C56.4833 298.21 52.0065 298.29 49.0176 299.701L47.3362 300.495L48.0263 298.768C48.2553 298.196 48.8014 297.109 49.4748 296.059C49.8131 295.531 50.1929 294.999 50.5911 294.537C50.9828 294.083 51.4251 293.659 51.8955 293.39L52.0452 293.305L52.217 293.295C57.9665 292.972 62.7349 295.174 66.0828 296.648Z" fill="#B5732E" stroke="black" stroke-width="1.46263"/>
<path d="M84.9678 303.673C85.1364 306.592 85.0387 310.226 84.9688 311.679L84.9395 312.276H44.9434V302.53L46.0498 303.847C46.494 304.376 47.8317 305.322 50.3877 306.134C52.9185 306.939 56.5879 307.594 61.6211 307.594C74.3152 307.594 80.5933 305.784 83.9619 303.211L84.9004 302.495L84.9678 303.673Z" fill="#B5732E" stroke="black" stroke-width="1.25368"/>
</g>
<path d="M155.967 306.142C157.833 300.541 148.461 291.195 147.676 290.681L116.989 290.681C117.007 291.295 116.843 298.3 116.989 303.092C117.171 309.081 126.333 310.576 135.2 311.042C144.288 311.521 154.291 311.171 155.967 306.142Z" fill="#F5CC9C" stroke="black" stroke-width="1.88053" stroke-linejoin="round"/>
<mask id="mask1_142_13400" style="mask-type:alpha" maskUnits="userSpaceOnUse" x="116" y="290" width="41" height="22">
<path d="M117.928 291.621C117.918 292.483 117.898 293.818 117.885 295.328C117.865 297.753 117.86 300.687 117.933 303.063C118.005 305.444 119.826 307.103 123.148 308.249C126.437 309.384 130.831 309.871 135.253 310.104C139.784 310.342 144.47 310.368 148.209 309.73C150.078 309.412 151.654 308.936 152.839 308.276C154.016 307.621 154.755 306.817 155.079 305.845C155.448 304.739 155.288 303.348 154.693 301.766C154.105 300.2 153.133 298.565 152.054 297.049C150.978 295.539 149.819 294.178 148.88 293.164C148.41 292.658 147.999 292.242 147.686 291.94C147.55 291.81 147.435 291.703 147.343 291.621L117.928 291.621Z" fill="white" stroke="black" stroke-width="1.88053" stroke-linejoin="round"/>
</mask>
<g mask="url(#mask1_142_13400)">
<path d="M135.898 297.067C131.213 299.13 124.626 302.118 120.768 311.234L120.52 311.822L121.068 312.148C123.337 313.498 124.904 313.993 125.507 314.062L126.11 314.131L126.289 313.551C126.771 311.993 128.266 309.709 130.521 307.433C132.761 305.172 135.684 302.989 138.937 301.593L138.949 301.587C145.497 298.629 149.974 298.708 152.963 300.12L154.644 300.914L153.954 299.187C153.725 298.614 153.179 297.528 152.506 296.477C152.167 295.95 151.788 295.417 151.389 294.955C150.998 294.502 150.555 294.078 150.085 293.809L149.935 293.723L149.763 293.714C144.014 293.39 139.246 295.592 135.898 297.067Z" fill="#B5732E" stroke="black" stroke-width="1.46263"/>
<path d="M117.009 304.092C116.84 307.011 116.938 310.645 117.008 312.098L117.037 312.695H157.033V302.949L155.927 304.266C155.483 304.795 154.145 305.741 151.589 306.553C149.058 307.358 145.389 308.013 140.355 308.013C127.661 308.013 121.383 306.203 118.015 303.63L117.076 302.914L117.009 304.092Z" fill="#B5732E" stroke="black" stroke-width="1.25368"/>
</g>
<path d="M59.6534 197.815C65.0133 182.073 72.8951 167.787 76.5567 162.423C82.1219 162.422 91.2843 162.448 101.079 162.448C110.874 162.446 120.476 162.622 125.709 162.622C129.371 167.986 137.066 182.604 142.28 197.811C147.865 215.647 147.532 220.98 145.484 233.712C146.229 237.072 147.679 245.709 148.61 255.788C149.541 265.868 150.658 272.941 150.472 288.149C146.996 291.214 135.244 296.594 115.136 293.482C114.205 287.293 112.716 278.096 111.785 274.029C110.796 269.709 109.923 263.419 106.199 261.12C104.524 260.236 101.917 260.236 100.986 260.236C100.148 260.234 97.6349 260.236 95.9592 261.12C92.2355 263.419 91.1572 269.707 90.1685 274.027C89.2375 278.094 87.9533 287.293 87.0224 293.482C69.3159 296.838 53.4903 291.179 51.4421 288.35C51.2558 273.142 52.3924 265.719 53.3233 255.639C54.2543 245.56 56.7382 236.985 57.483 233.625C55.435 220.893 54.254 217.09 59.6534 197.815Z" fill="#F5CC9C"/>
<g filter="url(#filter2_i_142_13400)">
<path d="M148.774 255.698C147.843 245.618 146.645 238.653 145.901 235.294C135.044 236.13 125.366 235.293 101.381 235.293H56.8614C56.1166 238.653 54.4147 245.619 53.4838 255.698C52.5529 265.778 51.9652 264.338 51.5469 274.367C55.0223 277.432 68.9247 285.001 89.0325 281.889C89.9634 275.7 89.5638 274.464 90.4947 270.397C91.4835 266.077 93.1893 262.457 95.8942 261.03C97.5699 260.145 100.198 260.145 101.129 260.145H101.129C102.06 260.145 104.688 260.145 106.364 261.029C108.673 262.248 110.192 265.45 111.181 269.77C112.112 273.837 112.131 275.491 113.061 281.68C133.169 284.792 146.651 277.432 150.127 274.367C149.708 264.337 149.705 265.777 148.774 255.698Z" fill="#2D5EC5"/>
</g>
<mask id="mask2_142_13400" style="mask-type:alpha" maskUnits="userSpaceOnUse" x="51" y="162" width="100" height="133">
<path d="M60.0713 197.815C65.4313 182.074 73.313 167.787 76.9746 162.423C82.5398 162.423 91.7022 162.449 101.497 162.449C111.292 162.447 120.894 162.623 126.127 162.622C129.789 167.986 137.484 182.604 142.698 197.812C148.283 215.647 147.95 220.98 145.902 233.713C146.647 237.072 148.097 245.709 149.028 255.789C149.959 265.868 151.076 272.942 150.89 288.149C147.414 291.214 135.662 296.595 115.554 293.482C114.623 287.293 113.134 278.096 112.203 274.029C111.214 269.709 110.341 263.419 106.617 261.12C104.942 260.236 102.335 260.236 101.404 260.236C100.566 260.235 98.0528 260.236 96.3772 261.12C92.6535 263.419 91.5752 269.707 90.5864 274.027C89.6555 278.094 88.3713 287.293 87.4404 293.482C69.7338 296.839 53.9082 291.18 51.8601 288.351C51.6738 273.143 52.8104 265.719 53.7413 255.64C54.6722 245.56 55.2749 237.404 56.0196 234.044C54.7659 221.507 54.672 217.09 60.0713 197.815Z" fill="#1D1D1D"/>
</mask>
<g mask="url(#mask2_142_13400)">
<path d="M101.319 189.747C98.1974 189.747 92.2266 185.369 89.6314 182.667L88.749 187.235C90.857 189.151 95.0436 193.395 94.926 195.046C94.573 198.464 87.6215 204.919 84.1898 207.719L83.6016 210.224C87.9646 206.835 97.6164 200.027 101.319 199.909C105.021 199.791 113.699 206.049 117.575 209.193L117.869 208.161C114.437 204.624 107.545 197.05 107.427 195.046C107.309 193.042 111.692 188.906 113.898 187.088L113.163 182.225C110.515 185.074 104.441 189.747 101.319 189.747Z" fill="#DE9C74" stroke="black" stroke-width="1.46263"/>
<g filter="url(#filter3_d_142_13400)">
<path d="M100.02 224.865C74.1729 224.865 60.0276 221.968 56.1859 220.519L54.8633 233.178C59.3348 236.201 74.6263 242.247 100.02 242.247C125.413 242.247 142.09 236.201 147.255 233.178L145.932 219.008C141.397 220.96 125.867 224.865 100.02 224.865Z" fill="#FFD00C"/>
<path d="M100.02 224.865C74.1729 224.865 60.0276 221.968 56.1859 220.519L54.8633 233.178C59.3348 236.201 74.6263 242.247 100.02 242.247C125.413 242.247 142.09 236.201 147.255 233.178L145.932 219.008C141.397 220.96 125.867 224.865 100.02 224.865Z" stroke="black" stroke-width="1.68156"/>
</g>
<path d="M88.4936 233.746C71.6781 232.423 59.0191 228.078 55.9961 225.811V229.4C67.3324 232.612 77.6107 234.048 88.4936 233.746Z" fill="#010000"/>
<path d="M129.505 225.936C119.004 228.539 99.2445 229.487 90.1914 229.634C98.5932 231.035 118.995 230.381 130.214 229.777C131.489 229.708 132.485 228.905 132.094 227.689C131.768 226.672 130.542 225.679 129.505 225.936Z" fill="#010000"/>
<path d="M146.88 227.889C137.461 232.036 115.438 236.03 105.911 237.34C115.096 237.752 136.889 234.479 147.13 232.605C147.279 231.841 147.179 229.954 146.88 227.889Z" fill="#010000"/>
<g filter="url(#filter4_d_142_13400)">
<path d="M121.734 223.688C123.093 225.961 124.035 229.872 125.166 236.096C125.166 229.695 123.658 225.429 122.973 223.536C124.687 223.019 129.045 222.804 131.011 222.76C133.901 234.14 139.833 257.681 140.437 260.81C138.778 261.664 134.844 261.759 133.084 261.699C132.393 257.669 130.822 248.826 130.068 245.697C129.879 247.119 131.011 257.788 131.576 263.3C125.92 264.544 120.642 264.366 117.058 262.944C118.564 250.675 118.002 242.141 117.058 236.096C116.113 230.05 113.855 227.383 113.704 225.429C113.552 223.475 114.798 223.471 117.437 223.688C120.076 223.905 120.265 223.649 121.734 223.688Z" fill="#FFD00C"/>
<path d="M131.825 222.553C134.71 233.91 140.653 257.489 141.263 260.651L141.382 261.27L140.821 261.558C139.83 262.068 138.28 262.312 136.871 262.435C135.421 262.561 133.963 262.57 133.056 262.54L132.371 262.516L132.294 262.069C132.335 262.47 132.375 262.852 132.412 263.213L132.489 263.959L131.757 264.121C126.004 265.387 120.541 265.231 116.748 263.725L116.145 263.486L116.224 262.841C117.72 250.65 117.16 242.193 116.228 236.225C115.769 233.291 114.994 231.182 114.309 229.554C113.978 228.768 113.625 228.001 113.378 227.382C113.124 226.746 112.913 226.115 112.865 225.494C112.822 224.933 112.866 224.391 113.101 223.924C113.353 223.423 113.77 223.118 114.246 222.951C114.691 222.795 115.202 222.754 115.718 222.753C116.242 222.753 116.848 222.796 117.506 222.85C118.792 222.956 119.46 222.945 119.977 222.916C120.491 222.886 120.975 222.827 121.756 222.847L122.218 222.86L122.23 222.881L122.729 222.731C123.685 222.443 125.29 222.256 126.83 222.132C128.399 222.007 129.997 221.941 130.992 221.919L131.661 221.905L131.825 222.553Z" stroke="black" stroke-width="1.68156"/>
</g>
<path d="M51.6275 220.671C53.0233 221.893 54.7104 221.803 55.7158 221.74C55.979 221.723 56.176 221.957 56.127 222.217C55.1805 227.223 55.2064 231.529 56.0154 237.596C57.8959 233.626 62.9107 230.492 66.6717 229.238C70.1201 228.089 74.2739 228.429 77.3692 228.847C78.8818 229.051 80.3019 228.089 80.6359 226.6L90.2891 183.546C90.4095 183.009 90.1659 182.456 89.684 182.191C86.889 180.649 83.4486 178.906 79.835 174.912C75.9949 170.668 74.1644 166.329 73.567 164.673L73.5127 164.713C71.6562 166.069 66.606 169.759 60.0157 176.939C52.7427 184.862 48.6575 188.41 44.105 199.986C42.1017 205.079 37.0482 207.697 33.9346 209.178C33.1776 209.539 32.7968 210.414 33.2407 211.125C33.8207 212.054 34.9086 213.344 37.0012 214.821C40.5533 217.328 42.085 214.838 45.8451 215.567C49.538 216.283 49.1813 218.531 51.6275 220.671Z" fill="#CE2817" stroke="black" stroke-width="1.85963"/>
<circle cx="81.9214" cy="187.24" r="3.47375" fill="#FFD00D" stroke="black" stroke-width="1.09697"/>
<circle cx="78.1635" cy="200.194" r="3.47375" fill="#FFD00D" stroke="black" stroke-width="1.09697"/>
<path d="M150.458 220.671C149.063 221.893 147.375 221.803 146.37 221.74C146.107 221.723 145.91 221.957 145.959 222.217C146.905 227.223 146.88 231.529 146.071 237.596C144.19 233.626 139.175 230.492 135.414 229.238C131.966 228.089 127.812 228.429 124.717 228.847C123.204 229.051 121.784 228.089 121.45 226.6L111.797 183.546C111.676 183.009 111.92 182.456 112.403 182.193C115.23 180.651 118.844 178.908 122.459 174.912C126.3 170.668 127.922 166.329 128.519 164.673L128.573 164.713C130.43 166.069 135.48 169.759 142.07 176.939C149.343 184.862 153.428 188.41 157.981 199.986C159.984 205.079 165.038 207.697 168.151 209.178C168.908 209.539 169.289 210.414 168.845 211.125C168.265 212.054 167.177 213.344 165.085 214.821C161.533 217.328 160.001 214.838 156.241 215.567C152.548 216.283 152.905 218.531 150.458 220.671Z" fill="#CE2817" stroke="black" stroke-width="1.85963"/>
</g>
<path d="M100.984 260.203C98.1289 260.203 96.0966 260.594 94.4678 262.502C89.9072 267.846 89.1537 280.202 87.2551 292.026C87.1175 292.883 86.4584 293.563 85.6024 293.705C72.1138 295.937 56.0924 292.714 51.9318 288.828C51.6 288.518 51.4535 288.078 51.4458 287.624C51.1664 271.109 53.8683 249.829 55.8564 237.387M100.985 260.203C103.84 260.203 105.872 260.594 107.501 262.502C112.062 267.846 112.815 280.202 114.714 292.026C114.852 292.883 115.511 293.563 116.367 293.705C129.855 295.937 145.877 292.714 150.037 288.828C150.369 288.518 150.516 288.077 150.523 287.623C150.775 272.998 148.823 254.635 147.036 241.984C146.871 240.818 146.708 239.701 146.548 238.64" stroke="black" stroke-width="1.88053"/>
<path d="M116.867 255.039C116.964 254.997 117.077 255.035 117.13 255.125C117.183 255.216 117.161 255.333 117.077 255.397C114.752 257.184 108.307 260.745 101.058 260.745C93.8063 260.745 87.9435 257.182 85.9053 255.388C85.8269 255.319 85.8116 255.203 85.8691 255.116C85.9267 255.029 86.0398 254.997 86.1338 255.042C88.5394 256.196 94.8819 258.888 101.058 258.888C107.237 258.888 114.165 256.194 116.867 255.039Z" fill="black" stroke="black" stroke-width="0.417895" stroke-linecap="round" stroke-linejoin="round"/>
<path d="M53.64 271.091C55.9559 271.201 57.2273 271.982 58.194 272.804C58.4218 272.998 58.6347 273.195 58.8224 273.367C59.0159 273.543 59.1872 273.697 59.3596 273.832C59.6941 274.095 60.0114 274.272 60.4072 274.358C61.3564 274.562 61.9353 274.49 62.598 274.381C63.3068 274.265 64.1369 274.098 65.4282 274.218C67.5401 274.415 68.5458 274.859 69.355 275.281C70.0772 275.658 70.4838 275.924 71.5698 275.975C72.7447 276.031 73.2601 275.899 73.8196 275.744C74.4644 275.566 75.1781 275.35 76.6291 275.315C77.3809 275.297 77.9722 275.385 78.4786 275.548C78.9826 275.711 79.365 275.938 79.6863 276.139C80.2923 276.519 80.7387 276.845 81.7845 276.943C83.5773 277.11 85.3804 276.422 86.0239 276.07C87.0642 275.501 88.0487 275.335 88.9233 275.601C89.7938 275.865 90.3961 276.508 90.7743 277.226C91.1511 277.941 91.3375 278.784 91.3704 279.588C91.4031 280.391 91.2849 281.219 90.9907 281.909C90.3082 283.508 89.5862 284.603 88.7878 285.301C87.9619 286.024 87.094 286.287 86.2273 286.293C85.4081 286.298 84.603 286.07 83.9173 285.877C83.1901 285.672 82.5702 285.498 81.9545 285.478C80.6572 285.434 79.8025 285.742 78.891 286.086C77.9616 286.438 76.9293 286.85 75.4608 286.781C74.038 286.713 73.3934 286.416 72.7803 286.137C72.2865 285.911 71.805 285.691 70.5624 285.632C69.3171 285.573 68.361 285.813 67.1974 286.064C66.032 286.315 64.7306 286.554 62.9613 286.372C61.1126 286.181 59.8153 285.39 58.7953 284.681C58.2661 284.313 57.873 284.012 57.4622 283.763C57.0684 283.525 56.7493 283.394 56.4481 283.357C55.5815 283.253 55.0855 283.304 54.2813 283.302C53.4804 283.3 52.528 283.238 50.9313 282.9C50.0758 282.719 49.3708 282.425 48.8104 281.998C48.2425 281.565 47.8616 281.024 47.6174 280.413C47.2096 279.393 47.1851 278.162 47.2307 276.912L47.2532 276.375C47.2559 275.053 47.6291 273.655 48.6778 272.612C49.7462 271.549 51.3841 270.984 53.64 271.091Z" fill="white" stroke="black" stroke-width="1.63083"/>
<path d="M147.563 271.091C145.247 271.201 143.976 271.982 143.009 272.804C142.781 272.998 142.568 273.195 142.381 273.367C142.187 273.543 142.016 273.697 141.844 273.832C141.509 274.095 141.192 274.272 140.796 274.358C139.847 274.562 139.268 274.49 138.605 274.381C137.896 274.265 137.066 274.098 135.775 274.218C133.663 274.415 132.657 274.859 131.848 275.281C131.126 275.658 130.719 275.924 129.633 275.975C128.458 276.031 127.943 275.899 127.384 275.744C126.739 275.566 126.025 275.35 124.574 275.315C123.822 275.297 123.231 275.385 122.725 275.548C122.221 275.711 121.838 275.938 121.517 276.139C120.911 276.519 120.464 276.845 119.419 276.943C117.626 277.11 115.823 276.422 115.179 276.07C114.139 275.501 113.154 275.335 112.28 275.601C111.409 275.865 110.807 276.508 110.429 277.226C110.052 277.941 109.866 278.784 109.833 279.588C109.8 280.391 109.918 281.219 110.212 281.909C110.895 283.508 111.617 284.603 112.415 285.301C113.241 286.024 114.109 286.287 114.976 286.293C115.795 286.298 116.6 286.07 117.286 285.877C118.013 285.672 118.633 285.498 119.249 285.478C120.546 285.434 121.401 285.742 122.312 286.086C123.241 286.438 124.274 286.85 125.742 286.781C127.165 286.713 127.81 286.416 128.423 286.137C128.917 285.911 129.398 285.691 130.641 285.632C131.886 285.573 132.842 285.813 134.006 286.064C135.171 286.315 136.473 286.554 138.242 286.372C140.09 286.181 141.388 285.39 142.408 284.681C142.937 284.313 143.33 284.012 143.741 283.763C144.135 283.525 144.454 283.394 144.755 283.357C145.622 283.253 146.118 283.304 146.922 283.302C147.723 283.3 148.675 283.238 150.272 282.9C151.127 282.719 151.832 282.425 152.393 281.998C152.961 281.565 153.342 281.024 153.586 280.413C153.994 279.393 154.018 278.162 153.972 276.912L153.95 276.375C153.947 275.053 153.574 273.655 152.525 272.612C151.457 271.549 149.819 270.984 147.563 271.091Z" fill="white" stroke="black" stroke-width="1.63083"/>
<g filter="url(#filter5_i_142_13400)">
<path d="M53.7336 252.144C49.2901 252.531 45.8836 250.913 41.7769 245.896C36.8099 238.779 36.8034 228.193 39.7286 216.074C49.3402 211.895 50.803 224.641 56.0266 221.507C55.4001 222.76 55.6087 225.686 55.6087 231.536C55.6086 237.387 54.2362 247.175 53.7336 252.144Z" fill="#F5CC9C"/>
</g>
<path d="M50.7473 231.314C51.68 235.894 53.9892 239.736 55.4023 240.443C55.1934 241.348 55.068 243.075 54.5666 246.084C52.0995 242.736 49.9297 236.267 50.0625 231.315C50.0752 230.84 50.6526 230.848 50.7473 231.314Z" fill="black"/>
<path d="M39.4637 215.865C36.8676 228.248 37.6206 239.521 41.7866 245.851C45.3729 250.84 49.2808 252.402 53.7324 252.016C54.6016 245.207 55.6679 239.1 56.3795 235.088" stroke="black" stroke-width="1.88053"/>
<g filter="url(#filter6_i_142_13400)">
<path d="M148.985 252.144C153.429 252.531 156.835 250.913 160.942 245.896C165.909 238.779 165.915 228.193 162.99 216.074C153.379 211.895 151.916 224.641 146.692 221.507C147.319 222.76 147.11 225.686 147.11 231.536C147.11 237.387 148.483 247.175 148.985 252.144Z" fill="#F5CC9C"/>
</g>
<path d="M151.971 231.314C151.039 235.894 148.73 239.736 147.316 240.443C147.525 241.348 147.651 243.075 148.152 246.084C150.619 242.736 152.789 236.267 152.656 231.315C152.644 230.84 152.066 230.848 151.971 231.314Z" fill="black"/>
<path d="M163.251 215.865C165.847 228.248 165.094 239.521 160.928 245.851C157.342 250.84 153.434 252.402 148.982 252.016C148.113 245.207 147.047 239.1 146.335 235.088" stroke="black" stroke-width="1.88053"/>
<path d="M60.9687 201.78C58.4091 208.899 56.6026 219.152 56.0193 223.389C56.0193 221.508 54.9746 222.344 52.2583 221.508C49.542 220.672 49.9599 217.538 46.6167 215.866C43.2736 214.195 40.5573 216.493 37.632 215.449C35.2918 214.613 33.5923 211.618 33.0352 210.225C33.2441 209.737 34.5275 208.398 37.9899 206.942C42.3179 205.121 43.6914 200.195 45.5719 196.225C47.4524 192.255 50.7956 186.196 59.0278 177.82C65.6137 171.12 71.328 166.404 73.3619 164.883L76.705 170.734C72.5261 178.117 63.5283 194.662 60.9687 201.78Z" fill="#CE2817"/>
<path d="M79.8389 174.912C75.9988 170.668 74.1683 166.329 73.5709 164.673C71.76 165.997 66.6752 169.688 60.0196 176.939C52.7466 184.862 48.6614 188.41 44.1089 199.986C42.1056 205.079 37.0522 207.697 33.9386 209.178C33.1815 209.539 32.8007 210.414 33.2446 211.125C33.8246 212.054 34.9125 213.344 37.0051 214.821C40.5572 217.328 42.0889 214.838 45.8491 215.567C49.5419 216.283 49.1852 218.531 51.6314 220.671C53.0272 221.893 54.7143 221.803 55.7197 221.74C55.9829 221.723 56.1799 221.957 56.1309 222.217C55.1844 227.223 55.2103 231.529 56.0193 237.596" stroke="black" stroke-width="1.85963"/>
<path d="M142.73 201.658C145.289 208.776 145.907 218.525 146.491 222.762C146.491 220.881 147.326 222.344 150.042 221.508C152.759 220.672 152.341 217.538 155.684 215.866C159.027 214.195 161.744 216.493 164.669 215.449C167.009 214.613 168.708 211.618 169.266 210.225C169.057 209.737 167.773 208.398 164.311 206.942C159.983 205.121 158.609 200.195 156.729 196.225C154.848 192.255 151.505 186.196 143.273 177.82C136.687 171.12 130.973 166.404 128.939 164.883L125.596 170.734C129.775 178.117 140.17 194.54 142.73 201.658Z" fill="#CE2817"/>
<path d="M122.466 174.912C126.306 170.668 128.136 166.329 128.734 164.673C130.545 165.997 135.629 169.688 142.285 176.939C149.558 184.862 153.643 188.41 158.196 199.986C160.199 205.079 165.253 207.697 168.366 209.178C169.123 209.539 169.504 210.414 169.06 211.125C168.48 212.054 167.392 213.344 165.3 214.821C161.747 217.328 160.216 214.838 156.456 215.567C152.763 216.283 153.12 218.531 150.673 220.671C149.277 221.893 147.59 221.803 146.585 221.74C146.322 221.723 146.125 221.957 146.174 222.217C147.12 227.223 147.094 231.529 146.285 237.596" stroke="black" stroke-width="1.85963"/>
<path d="M55.1741 218.124C57.5573 199.592 66.5322 180.635 69.6941 174.977C67.7706 180.458 62.4062 194.017 58.3144 209.89C57.2294 214.099 56.672 218.108 56.8534 222.133L55.1876 222.551C55.1211 221.123 55.1134 219.645 55.1741 218.124Z" fill="black" stroke="black" stroke-width="0.417895"/>
<path d="M147.427 218.124C145.044 199.592 136.069 180.635 132.907 174.977C134.831 180.458 140.195 194.017 144.287 209.89C145.372 214.099 145.93 218.108 145.748 222.133L147.414 222.551C147.48 221.123 147.488 219.645 147.427 218.124Z" fill="black" stroke="black" stroke-width="0.417895"/>
<g filter="url(#filter7_i_142_13400)">
<path d="M188.768 78.4488C187.415 70.1877 179.882 67.4692 176.285 67.1426C178.539 72.6936 179.397 80.6802 179.48 88.8797C179.397 97.0793 178.539 105.066 176.285 110.617C179.882 110.29 187.415 107.572 188.768 99.3107C189.192 96.0048 189.324 92.1223 189.336 88.8797C189.324 85.6372 189.192 81.7547 188.768 78.4488Z" fill="#ECF2FF"/>
</g>
<path d="M176.369 66.2168C178.309 66.3929 181.251 67.2024 183.901 69.0596C186.491 70.8742 188.812 73.7 189.612 77.8887L189.685 78.2988L189.688 78.3145L189.689 78.3311C190.121 81.6926 190.253 85.6188 190.265 88.876V88.8828C190.253 92.1402 190.121 96.067 189.689 99.4287L189.688 99.4453L189.685 99.4609C188.961 103.876 186.575 106.827 183.901 108.7C181.251 110.557 178.309 111.366 176.369 111.542L174.851 111.681L175.424 110.268C177.607 104.89 178.467 97.0565 178.551 88.8887L178.525 87.3613C178.355 79.7446 177.472 72.5379 175.424 67.4922L174.851 66.0791L176.369 66.2168Z" stroke="black" stroke-width="1.8585"/>
<g filter="url(#filter8_i_142_13400)">
<path d="M12.7125 78.4488C14.0657 70.1877 21.5982 67.4692 25.1953 67.1426C22.9418 72.6936 22.0839 80.6802 22.0009 88.8797C22.0839 97.0793 22.9418 105.066 25.1953 110.617C21.5982 110.29 14.0657 107.572 12.7125 99.3107C12.2885 96.0048 12.1565 92.1223 12.1449 88.8797C12.1565 85.6372 12.2885 81.7547 12.7125 78.4488Z" fill="#ECF2FF"/>
</g>
<path d="M25.1113 66.2168C23.1716 66.3929 20.2296 67.2024 17.5791 69.0596C14.9894 70.8742 12.6682 73.7 11.8682 77.8887L11.7959 78.2988L11.793 78.3145L11.791 78.3311C11.3599 81.6926 11.2275 85.6188 11.2158 88.876V88.8828C11.2275 92.1402 11.3598 96.067 11.791 99.4287L11.793 99.4453L11.7959 99.4609C12.5191 103.876 14.9058 106.827 17.5791 108.7C20.2296 110.557 23.1716 111.366 25.1113 111.542L26.6299 111.681L26.0566 110.268C23.8733 104.89 23.0135 97.0565 22.9297 88.8887L22.9551 87.3613C23.1255 79.7446 24.0082 72.5379 26.0566 67.4922L26.6299 66.0791L25.1113 66.2168Z" stroke="black" stroke-width="1.8585"/>
<circle cx="100.559" cy="89.3201" r="79.3631" fill="#181F2D" stroke="black" stroke-width="1.8585"/>
<path d="M100.522 12.3325C132.08 12.3325 154.625 29.2656 167.841 51.7741C142.235 20.386 111.5 17.849 100.522 17.849C89.5448 17.849 58.8092 20.386 33.2031 51.7741C46.4192 29.2656 68.9643 12.3325 100.522 12.3325Z" fill="#ECF2FF"/>
<path d="M100.525 158.808C63.5787 158.808 39.0948 133.883 29.9023 119.917C46.6963 158.808 84.1735 166.587 100.525 166.587C116.878 166.587 154.355 158.808 171.149 119.917C161.956 133.883 137.472 158.808 100.525 158.808Z" fill="#ECF2FF"/>
<path d="M99.93 19.7656C55.7685 19.7656 32.075 52.953 26.1797 69.5322C33.1951 55.4399 57.7667 27.6682 99.93 27.6682C142.093 27.6682 167.52 54.2023 174.653 67.8802C168.458 52.3927 144.091 19.7656 99.93 19.7656Z" fill="#ECF2FF"/>
<g filter="url(#filter9_i_142_13400)">
<path d="M100.731 157.089C138.528 157.036 176.517 127.734 176.517 88.9475C176.517 60.2673 143.165 29.5221 100.731 29.4722C58.2968 29.5221 24.9453 60.2673 24.9453 88.9475C24.9453 127.734 62.9341 157.036 100.731 157.089Z" fill="#150D41"/>
</g>
<path d="M42.4553 66.1008C33.6869 79.6657 34.5764 98.6222 36.6744 110.277C36.9859 112.007 39.1157 111.898 39.4114 110.164C40.983 100.951 44.4288 86.4127 54.0191 72.2936C64.3016 57.1555 77.8677 46.6441 86.9233 41.7401C88.4128 40.9335 88.0728 39.0257 86.3938 39.2501C74.5635 40.8316 53.3074 49.3125 42.4553 66.1008Z" fill="#EBF6FE" fill-opacity="0.53"/>
<ellipse cx="153.808" cy="90.52" rx="11.167" ry="14.0031" transform="rotate(9.58766 153.808 90.52)" fill="#EBF6FE" fill-opacity="0.53"/>
<ellipse cx="140.493" cy="117.511" rx="5.81443" ry="6.47498" transform="rotate(8.43644 140.493 117.511)" fill="#EBF6FE" fill-opacity="0.53"/>
<path d="M100.688 0.846191C124.231 0.846191 140.675 9.90836 151.514 19.9849C162.326 30.0369 167.573 41.1073 168.758 45.2095L169.069 46.2905H34.042L34.3545 45.2095C36.689 37.128 53.5457 0.846395 100.688 0.846191Z" fill="#FFBF3B" stroke="black" stroke-width="1.69299"/>
<mask id="mask3_142_13400" style="mask-type:alpha" maskUnits="userSpaceOnUse" x="35" y="1" width="133" height="45">
<path d="M100.688 2.53955C123.751 2.53955 139.795 11.4015 150.361 21.2251C160.079 30.2592 165.155 40.0997 166.775 44.5981H36.3281C39.6044 35.1206 56.5052 2.53975 100.688 2.53955Z" fill="#FFBF3B" stroke="black" stroke-width="1.69299"/>
</mask>
<g mask="url(#mask3_142_13400)">
<path d="M67.5718 43.4913C73.9229 13.6522 92.7463 3.19272 101.364 1.69287L41.1789 3.37579L31.7422 55.336C33.2101 54.8451 42.4311 51.789 67.5718 43.4913Z" fill="#D6972D" fill-opacity="0.5"/>
<path d="M101.551 24.4341C140.619 24.4341 162.274 39.5335 168.146 45.2163C168.444 45.5038 168.49 45.9646 168.256 46.3052C168.021 46.6457 167.575 46.7671 167.2 46.5923C143.004 35.3014 113.459 34.8189 101.551 34.8188C89.8331 34.8188 60.0977 35.3015 35.9014 46.5923C35.5268 46.7671 35.0802 46.6456 34.8457 46.3052C34.6113 45.9646 34.657 45.5038 34.9541 45.2163C40.8256 39.5337 62.4813 24.4341 101.551 24.4341Z" fill="#CD2A18" stroke="black" stroke-width="1.69299" stroke-linejoin="round"/>
<mask id="mask4_142_13400" style="mask-type:alpha" maskUnits="userSpaceOnUse" x="35" y="25" width="133" height="21">
<path d="M101.551 26.1279C133.1 26.128 153.045 36.0867 162.324 42.667C138.975 33.5263 112.565 33.127 101.551 33.127C90.7121 33.127 64.1477 33.5266 40.7734 42.6699C50.0507 36.0896 69.9973 26.1279 101.551 26.1279Z" fill="#CD2A18" stroke="black" stroke-width="1.69299" stroke-linejoin="round"/>
</mask>
<g mask="url(#mask4_142_13400)">
<path d="M67.5679 44.6339C73.919 14.7948 92.7424 4.33529 101.36 2.83545L41.175 4.51837L31.7383 56.4786C33.2062 55.9877 42.4272 52.9316 67.5679 44.6339Z" fill="#A72115"/>
</g>
<path d="M54.8476 25.4927C56.6375 22.5925 62.0744 16.1647 69.5028 13.655C65.52 13.3462 56.6899 18.9577 54.8476 25.4927Z" fill="black"/>
<path d="M61.4219 30.6073C62.8088 27.9339 67.1854 21.9084 73.5962 19.1938C70.0454 19.1938 62.6055 24.7327 61.4219 30.6073Z" fill="black"/>
<path d="M149.777 25.4927C147.987 22.5925 142.551 16.1647 135.122 13.655C139.105 13.3462 147.935 18.9577 149.777 25.4927Z" fill="black"/>
<path d="M143.215 30.6073C141.828 27.9339 137.451 21.9084 131.041 19.1938C134.591 19.1938 142.031 24.7327 143.215 30.6073Z" fill="black"/>
</g>
<path d="M101.464 35.0864C111.442 35.0864 141.508 35.2305 166.188 45.8071C197.169 59.0849 202.083 80.9188 202.083 91.0981C202.083 96.1632 201.058 103.033 196.533 110.306C192.009 117.578 184.026 125.19 170.215 131.808L167.708 133.009L169.12 130.615C171.314 126.895 174.206 122.24 176.343 115.631C178.478 109.029 179.866 100.449 178.978 88.9272C178.092 77.4434 174.817 70.2485 169.481 65.0884C164.105 59.8889 156.551 56.6647 146.878 53.3179C131.53 48.0075 110.648 46.481 101.464 46.481C92.2795 46.481 71.3974 48.0075 56.0498 53.3179C46.377 56.6648 38.823 59.8889 33.4463 65.0884C28.1103 70.2485 24.8355 77.4434 23.9502 88.9272C23.0629 100.438 24.332 109.063 26.3486 115.712C28.3661 122.365 31.1399 127.072 33.3242 130.776L33.3447 130.81L34.7568 133.205L32.25 132.003C18.4343 125.383 10.564 117.719 6.15625 110.393C1.74863 103.067 0.844752 96.1502 0.844727 91.0981C0.844727 80.9188 5.75787 59.0849 36.7393 45.8071C61.4189 35.2301 91.6767 35.0864 101.464 35.0864Z" fill="#FFC13A" stroke="black" stroke-width="1.69299"/>
<mask id="mask5_142_13400" style="mask-type:alpha" maskUnits="userSpaceOnUse" x="1" y="35" width="201" height="97">
<path d="M101.464 36.7798C111.46 36.7798 141.199 36.94 165.521 47.3638C195.792 60.3369 200.39 81.4943 200.39 91.0981C200.39 95.9246 199.417 102.466 195.096 109.412C191.051 115.913 184.039 122.824 172.024 129.018C173.965 125.691 176.208 121.551 177.954 116.152C180.16 109.331 181.569 100.529 180.665 88.7974C179.758 77.0271 176.371 69.3966 170.658 63.8716C164.986 58.386 157.102 55.0647 147.431 51.7183C131.827 46.3194 110.731 44.7876 101.464 44.7876C92.1965 44.7876 71.0997 46.3193 55.4961 51.7183C45.8247 55.0647 37.942 58.3861 32.2695 63.8716C26.5562 69.3966 23.1691 77.027 22.2617 88.7974C21.3574 100.528 22.7567 109.378 24.9502 116.247C26.6884 121.689 28.9232 125.87 30.8623 129.214C18.8491 123.016 11.8454 116.06 7.81055 109.512C3.5 102.517 2.53811 95.9264 2.53809 91.0981C2.53809 81.4943 7.13592 60.3369 37.4062 47.3638C61.7282 36.9401 91.658 36.7798 101.464 36.7798Z" fill="#FFC13A" stroke="black" stroke-width="1.69299"/>
</mask>
<g mask="url(#mask5_142_13400)">
<path d="M8.69062 87.9187C3.71503 85.7083 0.442252 82.6621 -0.192852 80.7818L-4.39453 142.459H100.419H205.232L201.03 80.7818C200.395 82.6621 197.123 85.7083 192.147 87.9187C187.715 89.8878 183.263 86.5539 182.092 81.8474C180.109 73.8837 176.391 65.0997 165.799 58.4803C149.846 48.5113 125.172 42.9737 100.419 42.4009C75.6658 42.9737 50.9912 48.5113 35.039 58.4803C24.4467 65.0997 20.7284 73.8837 18.7459 81.8474C17.5743 86.5539 13.123 89.8878 8.69062 87.9187Z" fill="#D6962C"/>
<path d="M180.823 81.7656C185.835 76.8298 187.132 70.4554 187.186 67.34C187.192 66.9796 187.433 66.6609 187.785 66.5794C188.251 66.4712 188.699 66.8239 188.676 67.3026C188.353 74.0674 183.924 79.774 180.823 81.7656Z" fill="black"/>
<path d="M185.657 87.7296C189.846 83.6041 190.93 78.2761 190.975 75.6721C190.98 75.3709 191.182 75.1045 191.476 75.0364C191.866 74.9459 192.24 75.2408 192.221 75.6408C191.951 81.2951 188.249 86.065 185.657 87.7296Z" fill="black"/>
<path d="M21.036 81.7656C16.0246 76.8298 14.7279 70.4554 14.6736 67.34C14.6673 66.9796 14.4259 66.6609 14.0748 66.5794C13.608 66.4712 13.1604 66.8239 13.1832 67.3026C13.5064 74.0674 17.9354 79.774 21.036 81.7656Z" fill="black"/>
<path d="M16.2022 87.7296C12.0134 83.6041 10.9296 78.2761 10.8842 75.6721C10.879 75.3709 10.6772 75.1045 10.3838 75.0364C9.99362 74.9459 9.61942 75.2408 9.63853 75.6408C9.90867 81.2951 13.6106 86.065 16.2022 87.7296Z" fill="black"/>
</g>
<defs>
<filter id="filter0_f_142_13400" x="23.5731" y="287.889" width="155.19" height="34.6425" filterUnits="userSpaceOnUse" color-interpolation-filters="sRGB">
<feFlood flood-opacity="0" result="BackgroundImageFix"/>
<feBlend mode="normal" in="SourceGraphic" in2="BackgroundImageFix" result="shape"/>
<feGaussianBlur stdDeviation="1.05332" result="effect1_foregroundBlur_142_13400"/>
</filter>
<filter id="filter1_i_142_13400" x="52.2539" y="163.417" width="98.625" height="98.623" filterUnits="userSpaceOnUse" color-interpolation-filters="sRGB">
<feFlood flood-opacity="0" result="BackgroundImageFix"/>
<feBlend mode="normal" in="SourceGraphic" in2="BackgroundImageFix" result="shape"/>
<feColorMatrix in="SourceAlpha" type="matrix" values="0 0 0 0 0 0 0 0 0 0 0 0 0 0 0 0 0 0 127 0" result="hardAlpha"/>
<feOffset dx="-6.26842" dy="-12.9547"/>
<feComposite in2="hardAlpha" operator="arithmetic" k2="-1" k3="1"/>
<feColorMatrix type="matrix" values="0 0 0 0 0.843137 0 0 0 0 0.866667 0 0 0 0 0.917647 0 0 0 1 0"/>
<feBlend mode="normal" in2="shape" result="effect1_innerShadow_142_13400"/>
</filter>
<filter id="filter2_i_142_13400" x="51.5469" y="235.293" width="98.5781" height="47.332" filterUnits="userSpaceOnUse" color-interpolation-filters="sRGB">
<feFlood flood-opacity="0" result="BackgroundImageFix"/>
<feBlend mode="normal" in="SourceGraphic" in2="BackgroundImageFix" result="shape"/>
<feColorMatrix in="SourceAlpha" type="matrix" values="0 0 0 0 0 0 0 0 0 0 0 0 0 0 0 0 0 0 127 0" result="hardAlpha"/>
<feOffset dy="-12.1189"/>
<feComposite in2="hardAlpha" operator="arithmetic" k2="-1" k3="1"/>
<feColorMatrix type="matrix" values="0 0 0 0 0.109804 0 0 0 0 0.298039 0 0 0 0 0.666667 0 0 0 1 0"/>
<feBlend mode="normal" in2="shape" result="effect1_innerShadow_142_13400"/>
</filter>
<filter id="filter3_d_142_13400" x="53.9766" y="217.778" width="94.1641" height="27.8169" filterUnits="userSpaceOnUse" color-interpolation-filters="sRGB">
<feFlood flood-opacity="0" result="BackgroundImageFix"/>
<feColorMatrix in="SourceAlpha" type="matrix" values="0 0 0 0 0 0 0 0 0 0 0 0 0 0 0 0 0 0 127 0" result="hardAlpha"/>
<feOffset dy="2.50737"/>
<feComposite in2="hardAlpha" operator="out"/>
<feColorMatrix type="matrix" values="0 0 0 0 0.111324 0 0 0 0 0.298788 0 0 0 0 0.665384 0 0 0 1 0"/>
<feBlend mode="normal" in2="BackgroundImageFix" result="effect1_dropShadow_142_13400"/>
<feBlend mode="normal" in="SourceGraphic" in2="effect1_dropShadow_142_13400" result="shape"/>
</filter>
<filter id="filter4_d_142_13400" x="112.012" y="221.05" width="30.3164" height="46.4353" filterUnits="userSpaceOnUse" color-interpolation-filters="sRGB">
<feFlood flood-opacity="0" result="BackgroundImageFix"/>
<feColorMatrix in="SourceAlpha" type="matrix" values="0 0 0 0 0 0 0 0 0 0 0 0 0 0 0 0 0 0 127 0" result="hardAlpha"/>
<feOffset dy="1.67158"/>
<feComposite in2="hardAlpha" operator="out"/>
<feColorMatrix type="matrix" values="0 0 0 0 0.109804 0 0 0 0 0.298039 0 0 0 0 0.666667 0 0 0 1 0"/>
<feBlend mode="normal" in2="BackgroundImageFix" result="effect1_dropShadow_142_13400"/>
<feBlend mode="normal" in="SourceGraphic" in2="effect1_dropShadow_142_13400" result="shape"/>
</filter>
<filter id="filter5_i_142_13400" x="37.7422" y="215.224" width="18.2852" height="36.9751" filterUnits="userSpaceOnUse" color-interpolation-filters="sRGB">
<feFlood flood-opacity="0" result="BackgroundImageFix"/>
<feBlend mode="normal" in="SourceGraphic" in2="BackgroundImageFix" result="shape"/>
<feColorMatrix in="SourceAlpha" type="matrix" values="0 0 0 0 0 0 0 0 0 0 0 0 0 0 0 0 0 0 127 0" result="hardAlpha"/>
<feOffset dx="2.92526" dy="-7.5221"/>
<feComposite in2="hardAlpha" operator="arithmetic" k2="-1" k3="1"/>
<feColorMatrix type="matrix" values="0 0 0 0 0.858824 0 0 0 0 0.67451 0 0 0 0 0.458824 0 0 0 1 0"/>
<feBlend mode="normal" in2="shape" result="effect1_innerShadow_142_13400"/>
</filter>
<filter id="filter6_i_142_13400" x="146.691" y="215.224" width="18.2852" height="36.9751" filterUnits="userSpaceOnUse" color-interpolation-filters="sRGB">
<feFlood flood-opacity="0" result="BackgroundImageFix"/>
<feBlend mode="normal" in="SourceGraphic" in2="BackgroundImageFix" result="shape"/>
<feColorMatrix in="SourceAlpha" type="matrix" values="0 0 0 0 0 0 0 0 0 0 0 0 0 0 0 0 0 0 127 0" result="hardAlpha"/>
<feOffset dx="-2.92526" dy="-7.5221"/>
<feComposite in2="hardAlpha" operator="arithmetic" k2="-1" k3="1"/>
<feColorMatrix type="matrix" values="0 0 0 0 0.858824 0 0 0 0 0.67451 0 0 0 0 0.458824 0 0 0 1 0"/>
<feBlend mode="normal" in2="shape" result="effect1_innerShadow_142_13400"/>
</filter>
<filter id="filter7_i_142_13400" x="173.414" y="65.0161" width="17.7812" height="47.7275" filterUnits="userSpaceOnUse" color-interpolation-filters="sRGB">
<feFlood flood-opacity="0" result="BackgroundImageFix"/>
<feBlend mode="normal" in="SourceGraphic" in2="BackgroundImageFix" result="shape"/>
<feColorMatrix in="SourceAlpha" type="matrix" values="0 0 0 0 0 0 0 0 0 0 0 0 0 0 0 0 0 0 127 0" result="hardAlpha"/>
<feOffset dx="-4.2541" dy="-8.15369"/>
<feComposite in2="hardAlpha" operator="arithmetic" k2="-1" k3="1"/>
<feColorMatrix type="matrix" values="0 0 0 0 0.843137 0 0 0 0 0.866667 0 0 0 0 0.917647 0 0 0 1 0"/>
<feBlend mode="normal" in2="shape" result="effect1_innerShadow_142_13400"/>
</filter>
<filter id="filter8_i_142_13400" x="10.2852" y="65.0161" width="17.7812" height="47.7275" filterUnits="userSpaceOnUse" color-interpolation-filters="sRGB">
<feFlood flood-opacity="0" result="BackgroundImageFix"/>
<feBlend mode="normal" in="SourceGraphic" in2="BackgroundImageFix" result="shape"/>
<feColorMatrix in="SourceAlpha" type="matrix" values="0 0 0 0 0 0 0 0 0 0 0 0 0 0 0 0 0 0 127 0" result="hardAlpha"/>
<feOffset dx="3.89959" dy="-8.15369"/>
<feComposite in2="hardAlpha" operator="arithmetic" k2="-1" k3="1"/>
<feColorMatrix type="matrix" values="0 0 0 0 0.843137 0 0 0 0 0.866667 0 0 0 0 0.917647 0 0 0 1 0"/>
<feBlend mode="normal" in2="shape" result="effect1_innerShadow_142_13400"/>
</filter>
<filter id="filter9_i_142_13400" x="24.9453" y="29.4722" width="151.57" height="127.617" filterUnits="userSpaceOnUse" color-interpolation-filters="sRGB">
<feFlood flood-opacity="0" result="BackgroundImageFix"/>
<feBlend mode="normal" in="SourceGraphic" in2="BackgroundImageFix" result="shape"/>
<feColorMatrix in="SourceAlpha" type="matrix" values="0 0 0 0 0 0 0 0 0 0 0 0 0 0 0 0 0 0 127 0" result="hardAlpha"/>
<feOffset dx="-0.413001" dy="-20.65"/>
<feComposite in2="hardAlpha" operator="arithmetic" k2="-1" k3="1"/>
<feColorMatrix type="matrix" values="0 0 0 0 0.13338 0 0 0 0 0.0604861 0 0 0 0 0.279167 0 0 0 0.9 0"/>
<feBlend mode="normal" in2="shape" result="effect1_innerShadow_142_13400"/>
</filter>
</defs>
</svg>
