<svg width="150" height="263" viewBox="0 0 150 263" fill="none" xmlns="http://www.w3.org/2000/svg">
<g filter="url(#filter0_i_142_13807)">
<path d="M27.7343 257.405C26.2683 252.549 33.6299 244.449 34.2458 244.004L58.349 244.004C58.3343 244.536 58.4634 250.608 58.349 254.761C58.206 259.952 51.0094 261.247 44.0451 261.652C36.9075 262.066 29.0503 261.763 27.7343 257.405Z" fill="#242323"/>
</g>
<path d="M27.7343 257.405C26.2683 252.549 33.6299 244.449 34.2458 244.004L58.349 244.004C58.3343 244.536 58.4634 250.608 58.349 254.761C58.206 259.952 51.0094 261.247 44.0451 261.652C36.9075 262.066 29.0503 261.763 27.7343 257.405Z" stroke="black" stroke-width="1.47702" stroke-linejoin="round"/>
<g filter="url(#filter1_i_142_13807)">
<path d="M114.18 257.405C115.646 252.549 108.284 244.449 107.668 244.004L83.5651 244.004C83.5797 244.536 83.4507 250.608 83.5651 254.761C83.7081 259.952 90.9047 261.247 97.8689 261.652C105.007 262.066 112.864 261.763 114.18 257.405Z" fill="#242323"/>
</g>
<path d="M114.18 257.405C115.646 252.549 108.284 244.449 107.668 244.004L83.5651 244.004C83.5797 244.536 83.4507 250.608 83.5651 254.761C83.7081 259.952 90.9047 261.247 97.8689 261.652C105.007 262.066 112.864 261.763 114.18 257.405Z" stroke="black" stroke-width="1.47702" stroke-linejoin="round"/>
<g filter="url(#filter2_i_142_13807)">
<path d="M36.1099 194.628C34.5013 183.593 34.2088 180.221 38.4496 163.515C40.3307 157.419 42.6072 151.574 44.8068 146.559C45.2171 145.623 40.1164 144.354 40.5183 143.48C44.8068 138.047 50.3748 135.024 51.726 132.84C56.0971 132.839 63.2935 132.862 70.9868 132.862C78.6801 132.86 86.2213 133.013 90.3319 133.012C91.7092 135.239 97.9588 139.677 101.405 143.661C101.808 144.563 96.8923 146.221 97.3023 147.183C99.405 152.113 101.561 157.764 103.347 163.512C107.734 178.97 107.472 183.593 105.864 194.628C106.449 197.54 107.588 205.025 108.319 213.762C109.05 222.498 109.927 228.628 109.781 241.809C107.051 244.466 97.8208 249.129 82.0275 246.431C81.2964 241.067 80.1265 233.096 79.3953 229.571C78.6187 225.827 77.933 220.375 75.0083 218.383C73.6922 217.616 71.6449 217.616 70.9137 217.616C70.2557 217.615 68.2815 217.616 66.9654 218.383C64.0407 220.375 63.1938 225.825 62.4171 229.569C61.686 233.094 60.6773 241.067 59.9462 246.431C46.0389 249.34 33.6089 244.436 32.0003 241.984C31.8539 228.803 32.7467 222.369 33.4778 213.633C34.209 204.896 35.5249 197.54 36.1099 194.628Z" fill="#242323"/>
</g>
<mask id="mask0_142_13807" style="mask-type:alpha" maskUnits="userSpaceOnUse" x="32" y="132" width="79" height="116">
<path d="M36.4458 194.627C34.8372 183.592 34.5448 180.22 38.7856 163.514C40.735 157.197 43.1091 151.149 45.3821 146.015L43.4821 144.159C42.5104 143.402 41.5556 142.655 41.6748 142.393C46.4341 137.141 50.6615 135.103 52.062 132.839C56.433 132.839 63.6295 132.861 71.3228 132.861C79.0161 132.86 86.5573 133.012 90.6679 133.012C92.0123 135.185 98.3853 138.568 100.592 143.479C101.186 144.801 97.4554 146.738 98.0636 148.188C100.03 152.874 102.017 158.151 103.683 163.511C108.07 178.97 107.808 183.592 106.2 194.627C106.785 197.539 107.924 205.025 108.655 213.761C109.386 222.497 110.263 228.628 110.117 241.809C107.387 244.465 98.1568 249.128 82.3635 246.431C81.6323 241.067 80.4624 233.096 79.7313 229.57C78.9547 225.826 78.2689 220.374 75.3442 218.382C74.0281 217.616 71.9808 217.616 71.2497 217.616C70.5916 217.614 68.6174 217.616 67.3013 218.382C64.3766 220.374 63.5297 225.824 62.7531 229.569C62.0219 233.094 61.0132 241.067 60.2821 246.431C46.3748 249.34 33.9449 244.435 32.3362 241.983C32.1899 228.802 33.0826 222.368 33.8138 213.632C34.545 204.896 35.8609 197.539 36.4458 194.627Z" fill="#1D1D1D"/>
</mask>
<g mask="url(#mask0_142_13807)">
<path d="M88.1658 231.524C100.809 224.543 105.647 218.179 107.816 214.47L109.062 221.089C105.553 224.173 99.2561 228.22 88.1658 231.524Z" fill="#161717"/>
<path d="M53.0842 231.524C40.4412 224.543 35.6028 218.179 33.4336 214.47L32.1881 221.089C35.6967 224.173 41.9939 228.22 53.0842 231.524Z" fill="#161717"/>
<path d="M89.7541 134.966H51.6797C54.6882 138.588 61.1983 151.265 71.3727 157.06C79.2502 152.859 86.9092 140.58 89.7541 134.966Z" fill="#F5CC9C"/>
<g filter="url(#filter3_d_142_13807)">
<path d="M50.5034 130.658C49.0099 131.623 46.4727 133.239 43.1496 135.494C48.7643 145.148 57.7229 155.01 66.1231 163.076L71.2106 157.847C61.6787 147.36 54.4086 136.694 50.5034 130.658Z" fill="#373737"/>
</g>
<g filter="url(#filter4_d_142_13807)">
<path d="M50.6344 176.623C70.3587 163.044 85.8881 140.586 92.312 130.656C93.8055 131.622 96.3427 133.237 99.6658 135.493C89.7899 152.473 69.5687 170.1 60.2371 177.458C59.5815 177.513 57.728 177.328 51.3365 176.693L50.6344 176.623Z" fill="#373737"/>
</g>
<g filter="url(#filter5_di_142_13807)">
<path d="M107.925 173.024C76.0972 182.127 45.5818 176.817 34.3025 173.024C33.6418 174.469 33.4388 177.34 32.3203 183.274C61.401 196.355 96.6335 190.286 109.916 183.274C109.216 181.79 108.797 177.07 107.925 173.024Z" fill="#FC2337"/>
<path d="M108.646 172.869C109.088 174.917 109.415 177.136 109.714 178.992C109.864 179.927 110.007 180.767 110.154 181.462C110.305 182.172 110.449 182.672 110.584 182.959L110.885 183.598L110.261 183.927C103.497 187.498 91.2551 190.784 77.082 191.546C62.8965 192.309 46.6937 190.549 32.0176 183.947L31.4873 183.708L31.5947 183.137C32.152 180.18 32.4798 177.997 32.7549 176.345C33.0238 174.73 33.2519 173.547 33.6309 172.718L33.9072 172.112L34.5381 172.324C45.7044 176.079 76.0647 181.369 107.722 172.314L108.48 172.098L108.646 172.869Z" stroke="black" stroke-width="1.47702"/>
</g>
<g filter="url(#filter6_d_142_13807)">
<g filter="url(#filter7_i_142_13807)">
<rect x="51.5156" y="171.261" width="39.0558" height="25.5995" rx="3.81749" fill="white"/>
</g>
<rect x="51.5156" y="171.261" width="39.0558" height="25.5995" rx="3.81749" stroke="black" stroke-width="1.47702"/>
<path d="M76.5076 171.73V180.979C76.5076 182.098 76.0388 183.166 75.2152 183.923L73.8002 185.225C72.9765 185.982 72.5078 187.05 72.5078 188.169V196.27" stroke="black" stroke-width="1.47702"/>
<path d="M61.8408 179.94C64.0824 179.94 65.7783 181.922 65.7783 184.209C65.7782 186.497 64.0824 188.479 61.8408 188.479C59.5991 188.479 57.9025 186.497 57.9023 184.209C57.9023 181.922 59.599 179.94 61.8408 179.94Z" fill="#FC2337" stroke="black" stroke-width="1.47702"/>
</g>
<path d="M70.7223 211.104C51.6851 211.104 39.9236 200.359 36.4225 194.986C34.7157 203.244 34.5625 205.249 34.4531 208.75C34.4531 208.75 46.4334 230.12 70.7223 230.12C95.0111 230.12 105.679 210.018 107.976 203.136L105.679 194.986C101.959 200.359 89.7595 211.104 70.7223 211.104Z" fill="#181716"/>
</g>
<path d="M36.3557 192.091C34.9074 200.592 31.7219 224.09 32.0017 241.454C32.007 241.785 32.1066 242.107 32.3336 242.348C35.5248 245.74 48.1873 248.572 58.8364 246.625C59.5044 246.502 60.0104 245.961 60.1087 245.289C61.6126 235.005 62.1952 224.231 65.7909 219.582C67.0703 217.928 68.6664 217.59 70.9091 217.59M105.671 192.091C107.119 200.592 110.101 224.09 109.817 241.454C109.812 241.785 109.712 242.107 109.485 242.348C106.294 245.74 93.6314 248.572 82.9824 246.625C82.3144 246.502 81.8083 245.961 81.7101 245.289C80.2061 235.005 79.6236 224.231 76.0278 219.582C74.7485 217.928 73.1523 217.59 70.9096 217.59" stroke="black" stroke-width="1.47702"/>
<path d="M83.3809 213.131C83.4553 213.096 83.5443 213.122 83.5889 213.191C83.6334 213.26 83.6194 213.352 83.5566 213.405C81.731 214.953 76.6675 218.042 70.9688 218.042C65.2679 218.041 60.661 214.951 59.0615 213.398C59.0029 213.341 58.9949 213.249 59.043 213.183C59.091 213.117 59.1808 213.096 59.2529 213.134C61.1426 214.134 66.1219 216.466 70.9688 216.466C75.8182 216.466 81.2584 214.133 83.3809 213.131Z" fill="black" stroke="black" stroke-width="0.328227" stroke-linecap="round" stroke-linejoin="round"/>
<path d="M117.53 205.191C122.581 197.205 120.894 176.741 114.046 162.036C110.724 154.904 103.691 146.115 98.7844 140.946L95.4112 147.103C101.278 156.562 105.587 169.375 106.497 178.66C107.144 185.269 106.527 188.65 106.025 191.404L106.004 191.518C105.498 194.294 107.744 206.3 108.139 210.606C111.629 210.942 114.305 209.539 117.53 205.191Z" fill="#242323"/>
<path d="M89.21 135.329C82.8208 144.717 70.9977 159.659 57.5896 171.006M97.2805 139.313C89.2013 151.473 78.1866 163.184 68.9139 171.187" stroke="black" stroke-width="1.47702"/>
<g filter="url(#filter8_i_142_13807)">
<path d="M108.141 210.605C111.631 210.941 114.306 209.538 117.532 205.19C121.433 199.022 121.315 185.409 117.903 172.756C112.19 171.886 107.591 173.963 106.006 175.11C107.32 181.811 106.512 188.742 106.006 191.517C105.5 194.293 107.746 206.299 108.141 210.605Z" fill="#F5CC9C"/>
</g>
<path d="M110.484 192.552C109.751 196.522 107.938 199.851 106.828 200.464C106.992 201.249 107.091 202.746 107.485 205.353C109.422 202.452 111.126 196.846 111.022 192.553C111.013 192.175 110.553 192.18 110.484 192.552Z" fill="black"/>
<path d="M105.68 175.109C107.54 174.022 112.54 172.03 117.66 172.754" stroke="black" stroke-width="1.47702"/>
<path d="M24.4067 205.188C19.3559 197.202 21.0428 176.738 27.8913 162.033C30.9466 155.473 39.1184 145.365 43.6403 140.402L45.9375 144.749L45.2361 149.276C40.0334 158.456 36.2822 170.066 35.4405 178.657C34.793 185.266 35.4096 188.647 35.912 191.401L35.9329 191.515C36.4388 194.291 34.1926 206.297 33.7979 210.603C30.3078 210.939 27.6323 209.536 24.4067 205.188Z" fill="#242323"/>
<g filter="url(#filter9_i_142_13807)">
<path d="M33.7968 210.604C30.3067 210.939 27.6311 209.537 24.4056 205.189C20.5043 199.02 20.6228 185.407 24.0346 172.754C29.7479 171.885 34.3465 173.962 35.9317 175.108C34.6173 181.809 35.4258 188.74 35.9317 191.516C36.4376 194.291 34.1915 206.297 33.7968 210.604Z" fill="#F5CC9C"/>
</g>
<path d="M31.4495 192.552C32.1822 196.521 33.9956 199.851 35.1055 200.463C34.9414 201.248 34.8429 202.745 34.449 205.353C32.5115 202.451 30.8074 196.845 30.9113 192.553C30.9205 192.175 31.3808 192.18 31.4495 192.552Z" fill="black"/>
<path d="M53.6022 135.332C57.662 141.297 63.9156 149.504 71.3757 157.607M45.5318 139.316C51.3018 148 58.5691 156.456 65.6299 163.495" stroke="black" stroke-width="1.47702"/>
<path d="M36.2539 175.106C34.394 174.019 29.3939 172.027 24.2736 172.752" stroke="black" stroke-width="1.47702"/>
<path d="M34.9348 181.119C36.8066 165.057 43.8558 148.627 46.3392 143.722C44.8284 148.473 40.6151 160.225 37.4012 173.983C34.537 186.244 38.4451 198.591 41.3673 204.415C38.5915 202.116 34.4968 193.227 34.9348 181.119Z" fill="black" stroke="black" stroke-width="0.328227"/>
<path d="M107.468 181.118C105.596 165.056 98.5466 148.626 96.0631 143.721C97.5739 148.472 101.801 160.043 105.015 173.801C107.879 186.062 103.957 198.59 101.035 204.414C103.811 202.115 107.906 193.226 107.468 181.118Z" fill="black" stroke="black" stroke-width="0.328227"/>
<path d="M89.918 133.523C96.1613 137.418 108.821 149.872 114.371 162.884C121.308 179.149 122.413 196.944 117.517 205.152C114.7 209.477 111.631 210.831 108.135 210.496C107.15 201.984 106.001 195.105 105.673 192.748" stroke="black" stroke-width="1.47702"/>
<path d="M52.0156 133.52C45.7723 137.415 33.1123 149.868 27.5627 162.88C20.6257 179.145 19.5211 196.941 24.4164 205.149C27.2332 209.474 30.3025 210.827 33.799 210.492C34.7837 201.981 35.9325 195.102 36.2607 192.745" stroke="black" stroke-width="1.47702"/>
<g filter="url(#filter10_i_142_13807)">
<path d="M140.187 60.0572C139.124 52.8971 133.208 50.5409 130.383 50.2578C132.153 55.069 132.827 61.9912 132.892 69.0979C132.827 76.2046 132.153 83.1267 130.383 87.9379C133.208 87.6548 139.124 85.2986 140.187 78.1386C140.52 75.2733 140.624 71.9082 140.633 69.0979C140.624 66.2875 140.52 62.9224 140.187 60.0572Z" fill="#ECF2FF"/>
</g>
<path d="M130.456 49.5312C133.432 49.8296 139.584 52.2641 140.853 59.5967L140.909 59.9502L140.911 59.9619L140.912 59.9727C141.25 62.8778 141.354 66.2748 141.363 69.0957V69.1006C141.354 71.9214 141.25 75.3177 140.912 78.2227L140.911 78.2344L140.909 78.2461C139.78 85.8538 133.479 88.361 130.456 88.6641L129.295 88.7803L129.698 87.6855C131.422 83.0006 132.096 76.1892 132.162 69.1045L132.143 67.7793C132.009 61.1713 131.315 54.9047 129.698 50.5098L129.295 49.415L130.456 49.5312Z" stroke="black" stroke-width="1.45973"/>
<g filter="url(#filter11_i_142_13807)">
<path d="M1.90658 60.0572C2.96939 52.8971 8.88566 50.5409 11.7109 50.2578C9.94093 55.069 9.26713 61.9912 9.20195 69.0979C9.26713 76.2046 9.94093 83.1267 11.7109 87.9379C8.88566 87.6548 2.96939 85.2986 1.90658 78.1386C1.57352 75.2733 1.46984 71.9082 1.46073 69.0979C1.46984 66.2875 1.57352 62.9224 1.90658 60.0572Z" fill="#ECF2FF"/>
</g>
<path d="M11.6377 49.5312C8.66207 49.8296 2.51008 52.2641 1.24121 59.5967L1.18457 59.9502L1.18262 59.9619L1.18164 59.9727C0.843939 62.8778 0.739613 66.2748 0.730469 69.0957V69.1006C0.739621 71.9214 0.843969 75.3177 1.18164 78.2227L1.18262 78.2344L1.18457 78.2461C2.31401 85.8538 8.61482 88.361 11.6377 88.6641L12.7988 88.7803L12.3955 87.6855C10.6721 83.0006 9.99738 76.1892 9.93164 69.1045L9.95117 67.7793C10.0851 61.1713 10.7786 54.9047 12.3955 50.5098L12.7988 49.415L11.6377 49.5312Z" stroke="black" stroke-width="1.45973"/>
<path d="M70.5889 0.77002C105.081 0.770074 132.923 31.6018 132.923 69.48C132.923 107.358 105.081 138.19 70.5889 138.19C36.0967 138.19 8.25499 107.358 8.25488 69.48C8.25488 31.6017 36.0966 0.77002 70.5889 0.77002Z" fill="#181F2D" stroke="black" stroke-width="1.45973"/>
<path d="M70.5581 2.75293C95.3447 2.75293 113.052 17.4291 123.433 36.9378C103.321 9.73308 79.1802 7.5342 70.5581 7.5342C61.9361 7.5342 37.7954 9.73308 17.6836 36.9378C28.0639 17.4291 45.7715 2.75293 70.5581 2.75293Z" fill="#ECF2FF"/>
<path d="M70.5556 129.706C41.5364 129.706 22.306 108.102 15.0859 95.998C28.2765 129.706 57.7122 136.447 70.5556 136.447C83.399 136.447 112.835 129.706 126.025 95.998C118.805 108.102 99.5747 129.706 70.5556 129.706Z" fill="#ECF2FF"/>
<path d="M70.0937 9.19531C35.408 9.19531 16.7983 37.9595 12.168 52.3291C17.6781 40.1149 36.9774 16.0446 70.0937 16.0446C103.21 16.0446 123.181 39.0423 128.784 50.8972C123.918 37.4739 104.78 9.19531 70.0937 9.19531Z" fill="#ECF2FF"/>
<g filter="url(#filter12_i_142_13807)">
<path d="M70.7236 128.218C100.41 128.172 130.248 102.775 130.248 69.1579C130.248 44.3001 104.053 17.6527 70.7236 17.6094C37.3945 17.6527 11.1992 44.3001 11.1992 69.1579C11.1992 102.775 41.0368 128.172 70.7236 128.218Z" fill="#150D41"/>
</g>
<path d="M24.9525 49.3547C18.0709 61.1026 18.7631 77.5162 20.4081 87.6195C20.6347 89.0111 22.3475 88.9311 22.563 87.5377C23.7979 79.552 26.5051 66.9555 34.0351 54.7222C42.2915 41.3089 53.2434 32.0866 60.3498 27.9636C61.4708 27.3133 61.2031 25.8529 59.9179 26.0197C50.7255 27.2124 33.617 34.5634 24.9525 49.3547Z" fill="#EBF6FE" fill-opacity="0.53"/>
<ellipse cx="8.79736" cy="12.1066" rx="8.79736" ry="12.1066" transform="matrix(0.983068 0.183242 -0.151311 0.988486 105.598 56.9414)" fill="#EBF6FE" fill-opacity="0.53"/>
<ellipse cx="4.57753" cy="5.60119" rx="4.57753" ry="5.60119" transform="matrix(0.98687 0.161518 -0.133209 0.991088 98.1875 87.624)" fill="#EBF6FE" fill-opacity="0.53"/>
<path d="M137.419 45.6495C134.273 46.3449 131.009 44.8768 129.771 44.0558L129.538 50.2534C130.567 50.7142 133.489 51.6622 136.943 51.7676C141.262 51.8993 144.791 49.381 146.124 47.7754C145.98 46.1024 145.847 44.1032 144.83 42.8151C143.751 43.158 141.351 44.7803 137.419 45.6495Z" fill="#FC2337" stroke="black" stroke-width="1.17177"/>
<path d="M130.934 33.5866C127.74 35.3752 126.673 38.7726 126.539 40.2478C126.848 40.6867 127.874 42.5306 129.506 46.3954C131.143 42.2223 133.092 39.9914 137.318 38.6485C141.543 37.3056 143.839 35.2865 144.815 34.5468C145.79 33.8071 145.376 32.2198 144.82 30.4627C144.264 28.7056 143.272 27.5167 142.161 27.0182C140.814 30.4625 134.926 31.3509 130.934 33.5866Z" fill="#FC2337" stroke="black" stroke-width="1.17177"/>
<g filter="url(#filter13_i_142_13807)">
<path d="M37.8774 42.6009C24.03 43.9376 14.2884 50.2865 10.9844 53.2939C14.8559 36.049 31.9263 1.57873 70.5577 1.49977C109.189 1.57873 126.259 36.049 130.131 53.2939C126.827 50.2865 117.085 43.9376 103.238 42.6009C85.9989 40.9369 81.4389 48.4216 70.5577 48.2179C59.6765 48.4216 55.1164 40.9369 37.8774 42.6009Z" fill="#242323"/>
</g>
<path d="M130.862 53.1299C128.904 44.4059 123.618 31.3558 113.939 20.4619C104.245 9.55027 90.1272 0.790101 70.5596 0.75H70.5557C50.9881 0.790139 36.8705 9.5503 27.1758 20.4619C17.4969 31.3558 12.2115 44.4059 10.2529 53.1299L9.73242 55.4482L11.4893 53.8486C14.688 50.9371 24.2817 44.667 37.9492 43.3477C46.4302 42.529 51.7678 43.9564 56.3525 45.5693C60.9305 47.1799 64.9528 49.0704 70.5576 48.9688C76.1625 49.0704 80.1847 47.1799 84.7627 45.5693C89.3474 43.9564 94.6849 42.529 103.166 43.3477L103.804 43.4131C117.132 44.8621 126.477 50.9825 129.626 53.8486L131.383 55.4482L130.862 53.1299Z" stroke="black" stroke-width="1.5"/>
<mask id="mask1_142_13807" style="mask-type:alpha" maskUnits="userSpaceOnUse" x="12" y="0" width="118" height="52">
<path d="M128.139 49.7227C125.925 41.4438 120.933 30.0473 112.379 20.4199C103.082 9.9556 89.5943 1.59334 70.8711 1.55469C52.1481 1.59346 38.6605 9.95567 29.3633 20.4199C20.8101 30.0469 15.8179 41.443 13.6045 49.7217C17.9659 46.4529 26.8228 41.5999 38.7021 40.4531C47.3039 39.6228 52.7671 41.0791 57.4082 42.7119C62.0523 44.3458 65.6823 46.0637 70.8574 45.9668L70.8711 45.9658L70.8848 45.9668C76.0598 46.0637 79.69 44.3457 84.334 42.7119C88.9751 41.0791 94.4382 39.6228 103.04 40.4531C114.92 41.5999 123.777 46.4538 128.139 49.7227Z" fill="#242323" stroke="black" stroke-width="1.47328"/>
</mask>
<g mask="url(#mask1_142_13807)">
<path d="M57.9269 26.6618C31.8181 30.4755 19.7929 38.4368 13.9297 43.5146L20.3301 31.5621C28.2076 28.4834 36.5774 25.0426 57.9269 26.6618Z" fill="#161717"/>
<path d="M78.9246 17.0652C105.033 20.8788 117.059 28.8401 122.922 33.918L116.521 21.9654C108.644 18.8868 100.274 15.4459 78.9246 17.0652Z" fill="#161717"/>
</g>
<g filter="url(#filter14_i_142_13807)">
<path d="M15.4449 38.4448C13.1624 38.4448 12.9833 39.8936 11.9985 42.6101C11.5062 44.6022 10.9756 46.5309 10.576 48.2395C10.0289 50.5785 10.2082 51.7028 12.6333 52.0176C15.0585 52.3325 25.0446 53.277 36.7424 54.0641C48.4403 54.8512 60.294 54.9485 70.423 55.1059C80.552 54.9485 92.4058 54.8512 104.104 54.0641C115.801 53.277 126.094 52.3421 128.519 52.0273C130.945 51.7124 130.981 50.2163 130.27 48.2395C129.68 46.5994 129.176 43.8778 128.633 42.6696C127.631 40.4369 127.027 38.7231 124.745 38.7231C122.462 38.7231 122.364 39.8962 103.248 40.3685C84.1321 40.8407 79.553 41.1556 70.423 41.1556C61.293 41.1556 56.7139 40.8407 37.598 40.3685C18.482 39.8962 17.7274 38.4448 15.4449 38.4448Z" fill="#FC2337"/>
</g>
<path d="M15.4453 37.7925C16.0902 37.7925 16.6247 37.8974 17.3135 38.0405C18.0037 38.1839 18.8929 38.3766 20.3037 38.5845C23.1309 39.001 28.07 39.4805 37.6143 39.7163C56.7498 40.1891 61.3029 40.5034 70.4229 40.5034C79.5429 40.5034 84.0967 40.1891 103.232 39.7163C112.78 39.4804 117.558 39.0702 120.225 38.7222C121.555 38.5486 122.363 38.3903 122.991 38.2729C123.624 38.1548 124.11 38.0708 124.745 38.0708C126.096 38.0709 127.002 38.5992 127.68 39.4536C128.306 40.243 128.749 41.3344 129.229 42.4028C129.527 43.0688 129.803 44.1133 130.065 45.1294C130.337 46.1809 130.602 47.2347 130.884 48.019C131.242 49.0148 131.49 50.0744 131.188 50.9653C130.852 51.9612 129.938 52.5001 128.604 52.6733C126.156 52.991 115.845 53.9272 104.147 54.7144C92.4289 55.5029 80.555 55.6 70.4336 55.7573L70.4229 55.7583L70.4131 55.7573C60.2916 55.6 48.417 55.5029 36.6982 54.7144C24.9987 53.9271 14.9966 52.9822 12.5498 52.6646C11.2766 52.4993 10.3217 52.0905 9.89648 51.1587C9.69749 50.7225 9.64968 50.2368 9.6748 49.7397C9.69998 49.2425 9.80161 48.689 9.94141 48.0913C10.3405 46.385 10.8805 44.415 11.3652 42.4536L11.374 42.4204L11.3857 42.3882C11.6104 41.7685 11.8399 41.0746 12.0195 40.5874C12.2138 40.0606 12.4202 39.5687 12.6875 39.1548C12.9622 38.7295 13.3098 38.3728 13.7881 38.1313C14.2595 37.8934 14.8082 37.7925 15.4453 37.7925Z" stroke="black" stroke-width="1.30388"/>
<mask id="mask2_142_13807" style="mask-type:alpha" maskUnits="userSpaceOnUse" x="10" y="38" width="121" height="18">
<path d="M15.4453 39.0977C15.9413 39.0977 16.3572 39.1737 17.0488 39.3174C17.7393 39.4608 18.6619 39.661 20.1143 39.875C23.014 40.3022 28.0108 40.784 37.582 41.0205C56.678 41.4923 61.283 41.8076 70.4229 41.8076C79.5627 41.8076 84.1679 41.4923 103.264 41.0205C112.832 40.7841 117.662 40.3721 120.394 40.0156C121.762 39.837 122.602 39.673 123.23 39.5557C123.855 39.4391 124.239 39.376 124.745 39.376C125.676 39.3761 126.213 39.7044 126.658 40.2646C127.155 40.8904 127.516 41.7733 128.039 42.9375C128.282 43.4797 128.53 44.3998 128.803 45.4561C129.066 46.4775 129.348 47.6051 129.656 48.4609C130.009 49.4416 130.098 50.1179 129.953 50.5479C129.843 50.8729 129.526 51.2392 128.436 51.3809C126.032 51.6928 115.757 52.627 104.06 53.4141C92.3866 54.1995 80.5571 54.2957 70.4229 54.4531C60.2886 54.2957 48.4591 54.1995 36.7861 53.4141C25.0909 52.6271 15.121 51.6842 12.7168 51.3721C11.5653 51.2225 11.217 50.9108 11.083 50.6172C11.0026 50.4407 10.9573 50.1867 10.9766 49.8057C10.9959 49.4246 11.0772 48.9603 11.2109 48.3887C11.6093 46.6857 12.1262 44.8071 12.624 42.7949C12.8837 42.0766 13.0444 41.5782 13.2432 41.0391C13.4307 40.5304 13.5974 40.1511 13.7832 39.8633C13.9617 39.5869 14.148 39.411 14.376 39.2959C14.6109 39.1774 14.9414 39.0977 15.4453 39.0977Z" fill="#242323" stroke="black" stroke-width="1.30388"/>
</mask>
<g mask="url(#mask2_142_13807)">
<path d="M19.1447 44.378C16.3862 44.0518 13.3979 41.1166 12.7411 39.8936C12.5359 40.12 11.9284 41.8504 11.6328 43.1549C12.0022 43.5626 14.2189 44.6497 19.1447 44.378Z" fill="#BD1A29"/>
<path d="M122.574 48.3643C125.333 48.0381 128.321 45.1029 128.978 43.8799C129.183 44.1064 129.79 45.8367 130.086 47.1413C129.717 47.5489 127.5 48.6361 122.574 48.3643Z" fill="#BD1A29"/>
<path d="M70.2251 46.4131H24.7656C33.4637 47.1978 54.7328 48.7674 70.2251 48.7674C85.7175 48.7674 107.315 47.1978 116.177 46.4131H70.2251Z" fill="#BD1A29"/>
</g>
<g filter="url(#filter15_i_142_13807)">
<path d="M37.8774 96.2213C24.03 94.8847 14.2884 88.5357 10.9844 85.5283C14.8559 102.773 31.9263 137.244 70.5577 137.322C109.189 137.244 126.259 102.773 130.131 85.5283C126.827 88.5357 117.085 94.8847 103.238 96.2213C85.9989 97.8854 81.4389 90.4007 70.5577 90.6044C59.6765 90.4007 55.1164 97.8854 37.8774 96.2213Z" fill="#242323"/>
</g>
<path d="M130.862 85.6924C128.904 94.4164 123.618 107.466 113.939 118.36C104.245 129.272 90.1272 138.032 70.5596 138.072H70.5557C50.9881 138.032 36.8705 129.272 27.1758 118.36C17.4969 107.466 12.2115 94.4163 10.2529 85.6924L9.73242 83.374L11.4893 84.9736C14.688 87.8852 24.2817 94.1553 37.9492 95.4746C46.4302 96.2932 51.7678 94.8659 56.3525 93.2529C60.9305 91.6424 64.9528 89.7519 70.5576 89.8535C76.1625 89.7519 80.1847 91.6423 84.7627 93.2529C89.3474 94.8659 94.6849 96.2933 103.166 95.4746L103.804 95.4092C117.132 93.9602 126.477 87.8397 129.626 84.9736L131.383 83.374L130.862 85.6924Z" stroke="black" stroke-width="1.5"/>
<mask id="mask3_142_13807" style="mask-type:alpha" maskUnits="userSpaceOnUse" x="10" y="85" width="121" height="53">
<path d="M128.863 87.5317C126.61 95.9607 121.527 107.564 112.818 117.366C103.352 128.02 89.6204 136.533 70.5576 136.573C51.4949 136.533 37.7628 128.02 28.2969 117.366C19.5882 107.564 14.5054 95.9607 12.252 87.5317C16.6924 90.8598 25.7103 95.8017 37.8057 96.9692C46.5633 97.8145 52.1253 96.3318 56.8506 94.6694C61.5789 93.0059 65.2749 91.2573 70.5439 91.356H70.5713C75.8403 91.2573 79.5364 93.006 84.2646 94.6694C88.99 96.3319 94.5527 97.8146 103.311 96.9692L103.31 96.9683C115.405 95.8008 124.423 90.8598 128.863 87.5317Z" fill="#242323" stroke="black" stroke-width="1.5"/>
</mask>
<g mask="url(#mask3_142_13807)">
<path d="M57.9426 112.161C31.8337 108.348 19.8085 100.386 13.9453 95.3086L20.3457 107.261C28.2232 110.34 36.593 113.781 57.9426 112.161Z" fill="#161717"/>
<path d="M78.9324 121.76C105.041 117.946 117.066 109.985 122.93 104.907L116.529 116.859C108.652 119.938 100.282 123.379 78.9324 121.76Z" fill="#161717"/>
</g>
<defs>
<filter id="filter0_i_142_13807" x="26.8047" y="243.265" width="32.332" height="19.2612" filterUnits="userSpaceOnUse" color-interpolation-filters="sRGB">
<feFlood flood-opacity="0" result="BackgroundImageFix"/>
<feBlend mode="normal" in="SourceGraphic" in2="BackgroundImageFix" result="shape"/>
<feColorMatrix in="SourceAlpha" type="matrix" values="0 0 0 0 0 0 0 0 0 0 0 0 0 0 0 0 0 0 127 0" result="hardAlpha"/>
<feOffset dx="3.93873" dy="-4.26696"/>
<feComposite in2="hardAlpha" operator="arithmetic" k2="-1" k3="1"/>
<feColorMatrix type="matrix" values="0 0 0 0 0.0941176 0 0 0 0 0.0901961 0 0 0 0 0.0862745 0 0 0 1 0"/>
<feBlend mode="normal" in2="shape" result="effect1_innerShadow_142_13807"/>
</filter>
<filter id="filter1_i_142_13807" x="82.7773" y="243.265" width="32.332" height="19.2612" filterUnits="userSpaceOnUse" color-interpolation-filters="sRGB">
<feFlood flood-opacity="0" result="BackgroundImageFix"/>
<feBlend mode="normal" in="SourceGraphic" in2="BackgroundImageFix" result="shape"/>
<feColorMatrix in="SourceAlpha" type="matrix" values="0 0 0 0 0 0 0 0 0 0 0 0 0 0 0 0 0 0 127 0" result="hardAlpha"/>
<feOffset dx="-2.62582" dy="-4.26696"/>
<feComposite in2="hardAlpha" operator="arithmetic" k2="-1" k3="1"/>
<feColorMatrix type="matrix" values="0 0 0 0 0.0941176 0 0 0 0 0.0901961 0 0 0 0 0.0862745 0 0 0 1 0"/>
<feBlend mode="normal" in2="shape" result="effect1_innerShadow_142_13807"/>
</filter>
<filter id="filter2_i_142_13807" x="31.9844" y="132.84" width="77.8125" height="114.486" filterUnits="userSpaceOnUse" color-interpolation-filters="sRGB">
<feFlood flood-opacity="0" result="BackgroundImageFix"/>
<feBlend mode="normal" in="SourceGraphic" in2="BackgroundImageFix" result="shape"/>
<feColorMatrix in="SourceAlpha" type="matrix" values="0 0 0 0 0 0 0 0 0 0 0 0 0 0 0 0 0 0 127 0" result="hardAlpha"/>
<feOffset dy="-5.9081"/>
<feComposite in2="hardAlpha" operator="arithmetic" k2="-1" k3="1"/>
<feColorMatrix type="matrix" values="0 0 0 0 0.0941176 0 0 0 0 0.0901961 0 0 0 0 0.0862745 0 0 0 1 0"/>
<feBlend mode="normal" in2="shape" result="effect1_innerShadow_142_13807"/>
</filter>
<filter id="filter3_d_142_13807" x="43.1484" y="130.658" width="28.0625" height="36.3572" filterUnits="userSpaceOnUse" color-interpolation-filters="sRGB">
<feFlood flood-opacity="0" result="BackgroundImageFix"/>
<feColorMatrix in="SourceAlpha" type="matrix" values="0 0 0 0 0 0 0 0 0 0 0 0 0 0 0 0 0 0 127 0" result="hardAlpha"/>
<feOffset dy="3.93873"/>
<feComposite in2="hardAlpha" operator="out"/>
<feColorMatrix type="matrix" values="0 0 0 0 0 0 0 0 0 0 0 0 0 0 0 0 0 0 0.25 0"/>
<feBlend mode="normal" in2="BackgroundImageFix" result="effect1_dropShadow_142_13807"/>
<feBlend mode="normal" in="SourceGraphic" in2="effect1_dropShadow_142_13807" result="shape"/>
</filter>
<filter id="filter4_d_142_13807" x="50.6328" y="130.656" width="49.0312" height="50.7498" filterUnits="userSpaceOnUse" color-interpolation-filters="sRGB">
<feFlood flood-opacity="0" result="BackgroundImageFix"/>
<feColorMatrix in="SourceAlpha" type="matrix" values="0 0 0 0 0 0 0 0 0 0 0 0 0 0 0 0 0 0 127 0" result="hardAlpha"/>
<feOffset dy="3.93873"/>
<feComposite in2="hardAlpha" operator="out"/>
<feColorMatrix type="matrix" values="0 0 0 0 0 0 0 0 0 0 0 0 0 0 0 0 0 0 0.25 0"/>
<feBlend mode="normal" in2="BackgroundImageFix" result="effect1_dropShadow_142_13807"/>
<feBlend mode="normal" in="SourceGraphic" in2="effect1_dropShadow_142_13807" result="shape"/>
</filter>
<filter id="filter5_di_142_13807" x="30.6523" y="171.17" width="81.1992" height="23.2496" filterUnits="userSpaceOnUse" color-interpolation-filters="sRGB">
<feFlood flood-opacity="0" result="BackgroundImageFix"/>
<feColorMatrix in="SourceAlpha" type="matrix" values="0 0 0 0 0 0 0 0 0 0 0 0 0 0 0 0 0 0 127 0" result="hardAlpha"/>
<feOffset dy="1.96937"/>
<feComposite in2="hardAlpha" operator="out"/>
<feColorMatrix type="matrix" values="0 0 0 0 0.0941176 0 0 0 0 0.0901961 0 0 0 0 0.0862745 0 0 0 1 0"/>
<feBlend mode="normal" in2="BackgroundImageFix" result="effect1_dropShadow_142_13807"/>
<feBlend mode="normal" in="SourceGraphic" in2="effect1_dropShadow_142_13807" result="shape"/>
<feColorMatrix in="SourceAlpha" type="matrix" values="0 0 0 0 0 0 0 0 0 0 0 0 0 0 0 0 0 0 127 0" result="hardAlpha"/>
<feOffset dy="-5.57987"/>
<feComposite in2="hardAlpha" operator="arithmetic" k2="-1" k3="1"/>
<feColorMatrix type="matrix" values="0 0 0 0 0.741176 0 0 0 0 0.129412 0 0 0 0 0.164706 0 0 0 1 0"/>
<feBlend mode="normal" in2="shape" result="effect2_innerShadow_142_13807"/>
</filter>
<filter id="filter6_d_142_13807" x="50.7773" y="170.523" width="40.5312" height="29.0455" filterUnits="userSpaceOnUse" color-interpolation-filters="sRGB">
<feFlood flood-opacity="0" result="BackgroundImageFix"/>
<feColorMatrix in="SourceAlpha" type="matrix" values="0 0 0 0 0 0 0 0 0 0 0 0 0 0 0 0 0 0 127 0" result="hardAlpha"/>
<feOffset dy="1.96937"/>
<feComposite in2="hardAlpha" operator="out"/>
<feColorMatrix type="matrix" values="0 0 0 0 0.0941176 0 0 0 0 0.0901961 0 0 0 0 0.0862745 0 0 0 1 0"/>
<feBlend mode="normal" in2="BackgroundImageFix" result="effect1_dropShadow_142_13807"/>
<feBlend mode="normal" in="SourceGraphic" in2="effect1_dropShadow_142_13807" result="shape"/>
</filter>
<filter id="filter7_i_142_13807" x="50.7773" y="170.523" width="40.5312" height="27.0762" filterUnits="userSpaceOnUse" color-interpolation-filters="sRGB">
<feFlood flood-opacity="0" result="BackgroundImageFix"/>
<feBlend mode="normal" in="SourceGraphic" in2="BackgroundImageFix" result="shape"/>
<feColorMatrix in="SourceAlpha" type="matrix" values="0 0 0 0 0 0 0 0 0 0 0 0 0 0 0 0 0 0 127 0" result="hardAlpha"/>
<feOffset dx="2.95405" dy="-4.26696"/>
<feComposite in2="hardAlpha" operator="arithmetic" k2="-1" k3="1"/>
<feColorMatrix type="matrix" values="0 0 0 0 0.847059 0 0 0 0 0.847059 0 0 0 0 0.847059 0 0 0 1 0"/>
<feBlend mode="normal" in2="shape" result="effect1_innerShadow_142_13807"/>
</filter>
<filter id="filter8_i_142_13807" x="105.934" y="172.548" width="14.5273" height="38.1045" filterUnits="userSpaceOnUse" color-interpolation-filters="sRGB">
<feFlood flood-opacity="0" result="BackgroundImageFix"/>
<feBlend mode="normal" in="SourceGraphic" in2="BackgroundImageFix" result="shape"/>
<feColorMatrix in="SourceAlpha" type="matrix" values="0 0 0 0 0 0 0 0 0 0 0 0 0 0 0 0 0 0 127 0" result="hardAlpha"/>
<feOffset dx="-2.29759" dy="-5.9081"/>
<feComposite in2="hardAlpha" operator="arithmetic" k2="-1" k3="1"/>
<feColorMatrix type="matrix" values="0 0 0 0 0.858824 0 0 0 0 0.67451 0 0 0 0 0.458824 0 0 0 1 0"/>
<feBlend mode="normal" in2="shape" result="effect1_innerShadow_142_13807"/>
</filter>
<filter id="filter9_i_142_13807" x="21.4766" y="172.547" width="14.5273" height="38.1045" filterUnits="userSpaceOnUse" color-interpolation-filters="sRGB">
<feFlood flood-opacity="0" result="BackgroundImageFix"/>
<feBlend mode="normal" in="SourceGraphic" in2="BackgroundImageFix" result="shape"/>
<feColorMatrix in="SourceAlpha" type="matrix" values="0 0 0 0 0 0 0 0 0 0 0 0 0 0 0 0 0 0 127 0" result="hardAlpha"/>
<feOffset dx="2.29759" dy="-5.9081"/>
<feComposite in2="hardAlpha" operator="arithmetic" k2="-1" k3="1"/>
<feColorMatrix type="matrix" values="0 0 0 0 0.858824 0 0 0 0 0.67451 0 0 0 0 0.458824 0 0 0 1 0"/>
<feBlend mode="normal" in2="shape" result="effect1_innerShadow_142_13807"/>
</filter>
<filter id="filter10_i_142_13807" x="128.207" y="48.5728" width="13.8867" height="41.0503" filterUnits="userSpaceOnUse" color-interpolation-filters="sRGB">
<feFlood flood-opacity="0" result="BackgroundImageFix"/>
<feBlend mode="normal" in="SourceGraphic" in2="BackgroundImageFix" result="shape"/>
<feColorMatrix in="SourceAlpha" type="matrix" values="0 0 0 0 0 0 0 0 0 0 0 0 0 0 0 0 0 0 127 0" result="hardAlpha"/>
<feOffset dx="-3.3413" dy="-6.40416"/>
<feComposite in2="hardAlpha" operator="arithmetic" k2="-1" k3="1"/>
<feColorMatrix type="matrix" values="0 0 0 0 0.843137 0 0 0 0 0.866667 0 0 0 0 0.917647 0 0 0 1 0"/>
<feBlend mode="normal" in2="shape" result="effect1_innerShadow_142_13807"/>
</filter>
<filter id="filter11_i_142_13807" x="0" y="48.5728" width="13.8867" height="41.0503" filterUnits="userSpaceOnUse" color-interpolation-filters="sRGB">
<feFlood flood-opacity="0" result="BackgroundImageFix"/>
<feBlend mode="normal" in="SourceGraphic" in2="BackgroundImageFix" result="shape"/>
<feColorMatrix in="SourceAlpha" type="matrix" values="0 0 0 0 0 0 0 0 0 0 0 0 0 0 0 0 0 0 127 0" result="hardAlpha"/>
<feOffset dx="3.06286" dy="-6.40416"/>
<feComposite in2="hardAlpha" operator="arithmetic" k2="-1" k3="1"/>
<feColorMatrix type="matrix" values="0 0 0 0 0.843137 0 0 0 0 0.866667 0 0 0 0 0.917647 0 0 0 1 0"/>
<feBlend mode="normal" in2="shape" result="effect1_innerShadow_142_13807"/>
</filter>
<filter id="filter12_i_142_13807" x="11.1992" y="17.6094" width="119.051" height="110.608" filterUnits="userSpaceOnUse" color-interpolation-filters="sRGB">
<feFlood flood-opacity="0" result="BackgroundImageFix"/>
<feBlend mode="normal" in="SourceGraphic" in2="BackgroundImageFix" result="shape"/>
<feColorMatrix in="SourceAlpha" type="matrix" values="0 0 0 0 0 0 0 0 0 0 0 0 0 0 0 0 0 0 127 0" result="hardAlpha"/>
<feOffset dx="-0.324384" dy="-16.2192"/>
<feComposite in2="hardAlpha" operator="arithmetic" k2="-1" k3="1"/>
<feColorMatrix type="matrix" values="0 0 0 0 0.13338 0 0 0 0 0.0604861 0 0 0 0 0.279167 0 0 0 0.9 0"/>
<feBlend mode="normal" in2="shape" result="effect1_innerShadow_142_13807"/>
</filter>
<filter id="filter13_i_142_13807" x="8.48047" y="0" width="124.156" height="57.6021" filterUnits="userSpaceOnUse" color-interpolation-filters="sRGB">
<feFlood flood-opacity="0" result="BackgroundImageFix"/>
<feBlend mode="normal" in="SourceGraphic" in2="BackgroundImageFix" result="shape"/>
<feColorMatrix in="SourceAlpha" type="matrix" values="0 0 0 0 0 0 0 0 0 0 0 0 0 0 0 0 0 0 127 0" result="hardAlpha"/>
<feOffset dy="3.6105"/>
<feComposite in2="hardAlpha" operator="arithmetic" k2="-1" k3="1"/>
<feColorMatrix type="matrix" values="0 0 0 0 0.0862745 0 0 0 0 0.0901961 0 0 0 0 0.0901961 0 0 0 1 0"/>
<feBlend mode="normal" in2="shape" result="effect1_innerShadow_142_13807"/>
</filter>
<filter id="filter14_i_142_13807" x="9.01562" y="37.1411" width="122.961" height="19.269" filterUnits="userSpaceOnUse" color-interpolation-filters="sRGB">
<feFlood flood-opacity="0" result="BackgroundImageFix"/>
<feBlend mode="normal" in="SourceGraphic" in2="BackgroundImageFix" result="shape"/>
<feColorMatrix in="SourceAlpha" type="matrix" values="0 0 0 0 0 0 0 0 0 0 0 0 0 0 0 0 0 0 127 0" result="hardAlpha"/>
<feOffset dy="-2.95405"/>
<feComposite in2="hardAlpha" operator="arithmetic" k2="-1" k3="1"/>
<feColorMatrix type="matrix" values="0 0 0 0 0 0 0 0 0 0 0 0 0 0 0 0 0 0 0.25 0"/>
<feBlend mode="normal" in2="shape" result="effect1_innerShadow_142_13807"/>
</filter>
<filter id="filter15_i_142_13807" x="8.48047" y="81.2202" width="124.156" height="57.6021" filterUnits="userSpaceOnUse" color-interpolation-filters="sRGB">
<feFlood flood-opacity="0" result="BackgroundImageFix"/>
<feBlend mode="normal" in="SourceGraphic" in2="BackgroundImageFix" result="shape"/>
<feColorMatrix in="SourceAlpha" type="matrix" values="0 0 0 0 0 0 0 0 0 0 0 0 0 0 0 0 0 0 127 0" result="hardAlpha"/>
<feOffset dy="-3.6105"/>
<feComposite in2="hardAlpha" operator="arithmetic" k2="-1" k3="1"/>
<feColorMatrix type="matrix" values="0 0 0 0 0.0862745 0 0 0 0 0.0901961 0 0 0 0 0.0901961 0 0 0 1 0"/>
<feBlend mode="normal" in2="shape" result="effect1_innerShadow_142_13807"/>
</filter>
</defs>
</svg>
