<svg xmlns="http://www.w3.org/2000/svg" width="156" height="279" fill="none" xmlns:v="https://vecta.io/nano"><style><![CDATA[.B{stroke:#000}.C{stroke-width:1.163}.D{color-interpolation-filters:sRGB}.E{flood-opacity:0}.F{stroke-width:1.489}.G{fill:#000}.H{stroke-width:1.466}.I{fill:#ecf2ff}.J{stroke-linejoin:round}.K{fill:#b5bbc3}.L{fill:#b6bcc2}.M{fill:#280a0b}.N{stroke-width:1.668}.O{stroke-width:.652}.P{fill-opacity:.53}.Q{fill:#652023}.R{stroke-width:.977}.S{stroke-width:.326}.T{stroke-miterlimit:16}.U{stroke-width:1.449}.V{stroke-miterlimit:4.62023}]]></style><g filter="url(#E)"><ellipse cx="77.93" cy="263.636" rx="64.989" ry="13.099" fill="#19578d" fill-opacity=".8"/></g><g filter="url(#F)" class="I"><rect x="40.641" y="152.818" width="76.879" height="75.25" rx="14.333"/></g><rect x="41.374" y="153.551" width="75.413" height="73.784" rx="13.6" class="B H"/><g filter="url(#G)"><use href="#U" fill="#431217"/></g><g class="B"><use href="#U" class="H J"/><path d="M91.617 262.275c3.475 1.357 13.063 3.518 23.618 1.303 5.212-1.303 4.995-4.398 4.234-6.026" class="F"/><path d="M116.111 254.426c-1.579.789-3.021 2.288-3.687 3.895l-.294-.08-1.954-.448c-1.586-.305-3.687-.561-5.759-.33-2.028.225-4.005.707-5.525 1.573-1.535.874-2.654 2.172-2.809 4.005l-.041.493.48.12 1.576.346.753.142.401.101.227-.346c.514-.787 2.029-1.936 4.603-2.445 2.549-.504 6.102-.37 10.615 1.366l.625.24.151-.652c.67-2.905 1.258-4.585 2.412-5.547l.353-.295-.205-.412a4.4 4.4 0 0 0-.513-.836c-.188-.234-.418-.462-.734-.778l-.003-.003-.296-.297-.375.188z" class="C K"/></g><g filter="url(#H)" class="K"><path d="M90.537 245.429c-.864-1.181-.907-3.363-.784-4.334 2.522.8 4.037-.56 5.587-1.513 2.355 1.222 5.748.311 6.725-.184 4.416 1.899 10.573.976 13.099.276.165.326.331 1.442-.323 3.297-.817 2.32-7.674 3.332-12.265 4.554 3.921-.019 8.602-1.303 10.452-1.942-.212 1.448-.721 4.558-1.054 5.404-.416 1.058-5.452 1.91-10.646 2.06s-6.909-.718-8.179-1.219c-.957-1.755-1.266-2.953-1.019-4.609 3.419 1.537 7.36 2.212 13.832 1.642-5.712.094-14.241-1.81-15.426-3.432z"/></g><path d="M95.607 239.066c1.033.536 2.338.621 3.549.489s2.232-.466 2.646-.676l.243-.122.25.107c2.097.902 4.643 1.145 7.009 1.065 2.359-.079 4.485-.477 5.705-.815l.459-.127.214.425c.146.287.229.76.208 1.358-.022.617-.157 1.419-.5 2.395-.256.726-.906 1.276-1.671 1.713l-.115.789-.486 2.948-.603 2.585c-.116.295-.357.506-.583.657-.238.158-.533.297-.861.421-.658.248-1.527.467-2.522.651-1.996.371-4.585.623-7.205.699-2.63.075-4.405-.105-5.697-.378s-2.092-.638-2.711-.882l-.196-.076-.101-.186c-.996-1.827-1.355-3.154-1.083-4.973l.042-.284-.583-.299c-.382-.222-.727-.478-.947-.778-.518-.708-.762-1.665-.87-2.515-.109-.862-.09-1.7-.022-2.234l.088-.692.664.21c2.211.7 3.458-.441 5.107-1.455l.28-.172.292.152z" class="B C"/><g filter="url(#I)"><use href="#V" fill="#431217"/></g><g class="B"><use href="#V" class="H J"/><path d="M67.301 262.275c-3.475 1.357-13.063 3.518-23.617 1.303-5.212-1.303-4.995-4.398-4.235-6.026" class="F"/><path d="M42.807 254.426c1.579.789 3.022 2.288 3.688 3.895l.294-.08 1.954-.448c1.586-.305 3.687-.561 5.759-.33 2.028.225 4.005.707 5.525 1.573 1.535.874 2.654 2.172 2.809 4.005l.041.493-.479.12-1.576.346-.753.142-.401.101-.226-.346c-.514-.787-2.029-1.936-4.603-2.445-2.549-.504-6.102-.37-10.615 1.366l-.625.24-.15-.652c-.67-2.905-1.258-4.585-2.412-5.547l-.353-.295.205-.412c.172-.345.316-.588.514-.836.187-.234.417-.462.733-.778l.003-.003.296-.297.375.188z" class="C K"/></g><g filter="url(#J)" class="K"><path d="M68.378 245.429c.864-1.182.907-3.363.784-4.334-2.522.799-4.037-.56-5.587-1.514-2.355 1.223-5.748.311-6.725-.183-4.417 1.899-10.573.975-13.099.276-.165.326-.331 1.442.322 3.297.817 2.319 7.674 3.332 12.265 4.553-3.921-.018-8.602-1.302-10.452-1.942.213 1.449.722 4.558 1.055 5.405.416 1.058 5.451 1.91 10.646 2.059s6.908-.718 8.178-1.219c.956-1.754 1.266-2.952 1.019-4.609-3.419 1.538-7.36 2.212-13.832 1.642 5.712.095 14.24-1.81 15.426-3.431z"/></g><g class="B"><path d="M63.307 239.066c-1.033.536-2.337.62-3.549.489s-2.232-.467-2.646-.676l-.243-.123-.25.108c-2.097.902-4.644 1.144-7.009 1.065-2.359-.08-4.485-.478-5.705-.815l-.458-.127-.215.424c-.145.288-.229.761-.208 1.358.022.618.157 1.419.501 2.395.256.726.906 1.276 1.671 1.714l.115.788.486 2.949.603 2.584c.116.296.357.507.583.658.238.158.533.297.861.42.658.249 1.526.467 2.522.652 1.996.371 4.585.623 7.205.698 2.631.076 4.406-.105 5.698-.377s2.092-.638 2.711-.882l.196-.077.101-.185c.996-1.828 1.355-3.155 1.083-4.973l-.042-.284.583-.3c.382-.221.728-.477.947-.777.518-.709.762-1.666.87-2.516.109-.862.09-1.699.022-2.234l-.088-.692-.665.21c-2.211.701-3.458-.44-5.107-1.454l-.28-.172-.292.152z" class="C"/><path d="M79.08 221.95c.72 0 1.367.318 1.919.805s1.035 1.161 1.467 1.971c.864 1.621 1.574 3.903 2.07 6.63l.109.599-.565.225c-1.769.708-3.953.87-5.866.787s-3.669-.418-4.614-.784l-.444-.172-.029-.475c-.174-2.79.697-5.156 1.887-6.83.594-.836 1.275-1.511 1.961-1.984.672-.462 1.409-.772 2.106-.772z" fill="#0f4b3f" class="F"/></g><path d="M46.731 179.634c4.178-12.271 10.322-23.408 13.177-27.589l19.116.02 19.2.135c2.854 4.182 8.853 15.577 12.917 27.431 4.354 13.904 4.094 18.061 2.498 27.986.58 2.619 5.273 9.663 5.999 17.52s-.652 12.868-4.398 15.311c-1.729 1.128-6.678 2.117-11.402 1.14-5.537 1.955-11.953 1.817-13.356 1.466-2.606-.651-5.138-1.716-5.864-4.886-.771-3.368-.351-7.591-1.954-10.587s-2.695-2.932-3.421-2.932c-.653-.001-2.117.163-3.583 2.769s-1.672 6.731-2.443 10.098c-.182.794-.134 2.932-2.443 4.235s-5.049 1.955-9.121 1.792-6.026-2.769-8.958-1.955-7.493.326-9.936-1.303-5.295-5.02-4.886-9.447c.726-7.857 5.957-20.602 6.537-23.221-1.596-9.925-1.887-12.958 2.322-27.983z" fill="#3b1113"/><path d="M61.16 197.774l-6.515 7.655c.782-4.43 6.515-22.585 9.284-31.109 0 .923-.163 4.137-.814 9.609 10.913 2.281 32.739 1.303 38.114-1.954.217.434.879 2.899 3.746 14.496-19.545 5.049-40.394 2.932-43.814 1.303z" fill="#1c0708"/><path d="M53.686 186.302c6.235 1.599 25.875 3.883 53.952-.016l.776-.108.067.781.491 6.204.041.624-.607.148c-4.717 1.159-14.836 2.342-25.631 2.587-10.781.245-22.379-.442-30.007-3.095l-.5-.174v-.529c0-3.159.336-4.685.496-5.806l.117-.823.805.207z" class="B F L"/><mask id="A" maskUnits="userSpaceOnUse" x="53" y="187" width="56" height="9" mask-type="alpha"><path d="M107.062 187.864l.376 4.766c-4.806 1.077-14.408 2.171-24.698 2.404-10.516.238-21.612-.425-28.977-2.844.026-2.048.198-3.294.349-4.256 7.126 1.616 26.218 3.555 52.951-.07z" class="B F L"/></mask><g mask="url(#A)" class="B F"><path d="M62.21 195.605c-.496-2.85.213-6.992.601-8.256.705-.026 3.095 0 5.701.652-1.195 2.977-.643 7.069-.326 8.307-.597.021-2.702-.301-5.976-.703zm33.889-.117c.496-2.851-.213-6.993-.601-8.256-.705-.026-3.095-.001-5.701.651 1.195 2.978.643 7.069.326 8.307.597.022 2.702-.301 5.976-.702z"/></g><g class="B"><path d="M84.158 186.86l.084.002h.012v.001c1.119.056 2.009.981 2.009 2.114v6.853l-.002.084-.001.012c-.048.953-.726 1.737-1.626 1.95v.059h-.476l-.502.013v-.013H73.559v-.06c-.934-.22-1.629-1.056-1.629-2.057v-6.841c0-1.17.948-2.117 2.117-2.117h10.111zm-8.809 2.605c-.45 0-.814.365-.814.815v5.049h9.121v-5.049c0-.45-.365-.815-.814-.815H75.35z" fill="#a69fa5" class="R"/><path d="M74.582 191.259c.652.02 1.43.295 2.005.737.312.24.313.706 0 .946-.575.441-1.361.715-2.029.686-.337-.015-.676-.109-.935-.334-.267-.233-.41-.572-.41-.988 0-.373.169-.663.45-.84.262-.165.594-.217.919-.207z" fill="#d9d9d9" class="O"/></g><path d="M75.535 167.15c-5.205-.472-8.592-2.736-9.623-3.997l1.57-5.307c3.592.49 7.873.926 12.6 1.125 3.977.167 7.732-.187 11.052-.789l1.502 4.704c-.972.414-1.89.82-2.72 1.214-5.274 2.504-9.471 3.496-14.381 3.05z" fill="#2d090a"/><path d="M68.123 154.856c.689.15 2.032.248 3.81.3l6.143.033c4.49-.047 9.394-.21 12.539-.345l.671-.029-.066.667c-.042.422.049 1.928.931 3.945l.207.471-.443.262c-3.722 2.2-9.147 2.933-14.038 2.768-2.457-.082-4.807-.393-6.78-.872-1.954-.474-3.605-1.13-4.603-1.947l-.274-.224.074-.347c.165-.771.627-2.705 1.157-4.297l.165-.495.51.11z" fill="#1b0807" class="B C"/><mask id="B" maskUnits="userSpaceOnUse" x="66" y="155" width="26" height="8" mask-type="alpha"><path d="M90.06 156.029c.049.773.263 1.96.822 3.375-3.434 1.848-8.367 2.516-12.968 2.361-2.389-.08-4.66-.381-6.545-.838-1.697-.412-3.028-.939-3.859-1.507a47.22 47.22 0 0 1 .889-3.338c.843.12 2.068.195 3.5.237 1.782.052 3.937.057 6.19.033 4.227-.044 8.816-.193 11.972-.323z" fill="#1b0807" class="B C"/></mask><g mask="url(#B)" class="B C"><path fill="#626669" d="M74.587 156.147h8.004v7.352h-8.004z"/><path d="M78.75 156.728v6.352"/></g><path d="M88.202 235.235c-.521-2.345-1.954-4.777-2.606-5.7-.576-.912-2.52-2.769-3.42-3.584.109.598.586 2.802 1.629 6.841.652 5.212 0 7.493 6.189 10.099 4.951 2.085 11.076-.217 13.519-1.629 2.172.434 7.167 1.042 9.773 0 3.257-1.303 5.863-4.398 6.263-9.284s-1.54-9.121-5.938-8.796c-7.655 13.031-23.617 11.565-25.409 12.053zm-31.273-1.465c-11.467.13-15.311-5.809-15.799-8.796-.597.218-1.987 1.336-2.769 4.072-.977 3.421-.651 5.864 3.421 10.262s8.307 2.606 13.03 2.117c5.864 2.606 9.61 2.281 13.97 1.068s4.761-5.954 5.576-11.003 3.095-6.19 3.583-6.678-.163-.978-2.697-1.021c-6.443-.206-3.981 9.816-18.314 9.979z" fill="#1c0608"/><path d="M80.216 224.094c-2.402-1.112-6.69-.486-8.634-.083 1.622.019 4.718.04 7.984 1.202 3.498 1.244 5.77 4.363 7.626 7.21-.614-2.928-2.579-6.292-6.976-8.329z" class="G"/><g class="B"><path d="M76.961 223.998c-1.249-5.267-3.29-17.884-1.466-26.224" class="C"/><path d="M53.835 241.1c-1.086-1.901-2.795-6.018-2.606-7.656.489-4.234 9.61-31.435 15.962-37.462m38.275 45.118c1.086-1.901 2.606-8.796 1.792-10.425-1.174-2.346-8.796-28.666-15.148-34.693" class="R"/></g><path d="M79.408 214.388c-.261-2.736-.326-12.433-.326-16.939h.814c0 4.398-.098 13.942-.489 16.939z" class="G"/><g class="B"><rect x="83.717" y="167.803" width="14.985" height="6.841" rx="1.955" class="L O"/><path d="M77.414 162.592c-.423.791-1.773 2.482-2.082 4.56-.444 2.986-1.159 13.874-1.303 15.311s.223 2.692 1.516 4.56" stroke-width="1.026"/><g class="L O"><circle cx="78.913" cy="167.641" r="2.117"/><circle cx="77.94" cy="176.762" r="2.117"/></g><path d="M38.191 231.165c0 5.701 3.249 9.677 8.958 10.85 2.379.489 6.135-.217 6.678-.651 1.446.651 6.018 2.339 10.75 2.017 6.026-.411 8.497-2.713 8.958-7.33.652-6.515 2.606-11.401 5.538-11.401" class="F"/></g><path d="M54.154 240.448c-2.867 0-6.081-1.303-7.33-1.954.706 1.14 3.16 3.42 7.33 3.42s9.664-3.149 11.89-4.723c-2.769 1.086-9.023 3.257-11.89 3.257z" class="G"/><path d="M119.637 230.676c0 5.701-3.249 10.166-8.959 11.339-2.378.489-6.135-.217-6.678-.651-1.446.651-6.017 2.339-10.75 2.017-6.026-.411-8.497-2.713-8.958-7.33-.651-6.515-2.28-11.401-5.212-11.401" class="B F"/><path d="M103.674 240.448c2.867 0 6.081-1.303 7.33-1.954-.706 1.14-3.16 3.42-7.33 3.42s-9.664-3.149-11.89-4.723c2.769 1.086 9.024 3.257 11.89 3.257z" class="G"/><g filter="url(#K)"><path d="M41.776 221.659c-3.464.301-6.119-.96-9.32-4.871-2.761-3.956-3.493-11.316-2.459-19.34 3.056 1.9 10.079 5.799 13.728 6.19l.17.853c.502 2.496-1.727 13.294-2.119 17.168z" fill="#f5cc9c"/></g><path d="M39.453 205.421c.727 3.57 2.527 6.565 3.629 7.116-.163.706-.261 2.052-.651 4.398-1.923-2.61-3.614-7.653-3.511-11.513.01-.37.46-.364.534-.001z" class="G"/><path d="M44.378 205.429c-.326 2.12-1.623 8.474-2.6 16.129-3.47.302-6.516-.916-9.312-4.805-2.784-4.231-3.613-11.293-2.517-19.306" class="B H"/><g filter="url(#L)"><path d="M27.247 197.955l1.822-2.787c4.723 4.724 13.519 7.004 13.519 7.004-.109.489-.717 2.085-2.28 4.561-5.689-1.323-10.375-4.187-12.749-6.146-.789-.651-.872-1.776-.312-2.632z" fill="#431519"/></g><path d="M29.596 194.642c2.258 2.258 5.531 3.964 8.291 5.112l3.48 1.279 1.039.316.278.078.07.019.02.005.696.181-.156.701c-.136.613-.798 2.295-2.378 4.797l-.282.447-.516-.12c-5.818-1.353-10.606-4.276-13.054-6.297-1.127-.93-1.195-2.491-.462-3.612l1.822-2.787.502-.767.648.648z" class="B F"/><path d="M50.078 157.216c2.345-2.345 6.081-3.692 7.655-4.072a168.27 168.27 0 0 0 9.936 2.606c-.814 5.701-4.561 20.849-6.678 28.667-1.694 6.255-6.57 21.609-8.796 28.504l-7.167 20.197c-8.47-1.694-12.868-6.027-14.008-7.981l4.235-7.981 6.352-14.008c-7.981-2.443-15.799-9.284-16.939-10.587s-2.606-2.28 2.443-6.515 9.121-10.262 12.542-14.659 7.492-11.239 10.424-14.171z" fill="#1f6f5f"/><g fill="#101010"><path d="M56.107 163.731l-2.606-.814-3.583 9.412 3.095 1.175a609.05 609.05 0 0 0 3.095-9.773zm-7.982 22.967l-2.443-.814-3.421 13.03c.652.217 1.205 1.047 2.117 1.466.326-4.398 1.629-9.61 3.746-13.682z"/><path d="M67.67 156.239s-6.026-1.954-7.981-2.117c-1.629 4.723-3.583 9.61-3.583 9.61 2.117 1.791 5.701 2.606 9.284 2.443.391-1.145 1.737-8.121 2.28-9.936zm-4.886 19.709s-5.864.488-9.936-2.606c-1.466 3.42-4.724 13.356-4.724 13.356 2.117 1.466 6.841 3.094 11.076 3.257.391-1.145 3.04-12.193 3.583-14.007zm-6.351 22.802s-7.167.163-11.401-2.931c-1.629 3.257-5.375 11.401-5.375 11.401 1.955 2.606 8.633 5.049 12.379 4.561l4.398-13.031zm-7.335 23.455s-8.958.815-13.845-5.049l-4.398 8.144c1.955 2.606 10.75 7.818 14.496 7.33.391-1.145 3.203-8.61 3.746-10.425zm-3.257-40.883c-2.997-1.042-7.004-4.181-8.47-5.538.977-1.629 5.375-8.795 7.33-11.401 2.085 1.563 5.321 3.04 6.678 3.583-.597 1.194-3.844 8.274-5.538 13.356z"/><path d="M44.053 191.421c-6.385-2.085-11.456-6.841-13.193-8.958-1.249 1.086-4.202 3.746-6.027 5.7-2.28 2.444-1.303 2.769 2.09 6.611 3.496 3.724 11.248 7.243 14.686 8.537l1.955-3.909c0-1.086.098-4.202.489-7.981z"/></g><path d="M53.173 163.405c-8.307 15.148-12.216 22.64-22.966 34.53l11.727 5.538 1.629-4.072a52.05 52.05 0 0 1 .814-10.064c.977-5.179 6.656-19.271 8.796-25.932z" fill-opacity=".36" class="G"/><g class="B"><g class="F"><path d="M58.217 153.307c-2.28.163-6.548 1.792-9.284 5.05-3.42 4.072-7.492 11.075-12.867 17.916-3.923 4.994-8.767 9.428-11.738 12.575-.805.852-.959 2.119-.245 3.049 2.345 3.055 7.896 7.953 17.847 11.414"/><path d="M67.669 155.588c-.8 4.329-3.17 15.841-6.249 27.26-3.849 14.274-10.69 34.445-13.133 41.543-1.824 5.299-2.831 7.459-3.224 8.214-.114.219-.347.331-.59.287-1.624-.293-7.954-1.747-12.991-7.26-.18-.198-.219-.484-.097-.722 3.161-6.183 9.309-18.804 12.179-25.182"/></g><path d="M42.907 195.138c1.858-14.446 8.854-29.223 11.319-33.634-1.499 4.273-5.681 14.842-8.871 27.216-.978 3.795-1.44 7.599-1.14 11.17l-.977 1.955c-.297-2.137-.43-4.236-.331-6.707z" class="G S T"/></g><g filter="url(#M)"><path d="M116.697 221.01c3.464.302 6.119-.96 9.321-4.87 2.76-3.956 3.493-11.316 2.458-19.34-3.055 1.9-10.078 5.798-13.728 6.189l-.17.854c-.502 2.496 1.727 13.294 2.119 17.167z" fill="#f5cc9c"/></g><path d="M119.015 204.772c-.727 3.57-2.527 6.565-3.628 7.116.163.706.26 2.052.651 4.398 1.923-2.61 3.615-7.653 3.511-11.513-.01-.37-.46-.364-.534-.001z" class="G"/><path d="M114.094 204.78c.326 2.12 1.623 8.475 2.6 16.13 3.471.301 6.517-.916 9.312-4.806 2.785-4.23 3.613-11.293 2.518-19.305" class="B H"/><g filter="url(#N)"><path d="M131.221 197.304l-1.822-2.787c-4.723 4.724-13.519 7.004-13.519 7.004.109.489.717 2.085 2.28 4.561 5.689-1.323 10.375-4.187 12.749-6.146.789-.651.872-1.776.312-2.632z" fill="#431519"/></g><path d="M128.873 193.991c-2.258 2.258-5.531 3.964-8.291 5.112l-3.48 1.28-1.04.315-.278.078-.07.019-.021.006-.696.18.156.701c.136.613.798 2.295 2.378 4.797l.282.448.516-.121c5.818-1.353 10.606-4.276 13.054-6.296 1.127-.931 1.194-2.492.462-3.613l-1.823-2.787-.501-.766-.648.647z" class="B F"/><path d="M108.398 156.568c-2.345-2.346-6.08-3.692-7.655-4.072-1.629.488-5.896 1.694-9.936 2.606.814 5.701 4.561 20.848 6.678 28.667 1.694 6.254 6.57 21.608 8.796 28.503l7.167 20.197c8.469-1.694 12.867-6.026 14.007-7.981l-4.235-7.981-6.352-14.007c7.981-2.443 15.799-9.284 16.94-10.587s2.606-2.281-2.444-6.516-9.121-10.261-12.541-14.659-7.493-11.238-10.425-14.17z" fill="#1f6f5f"/><g fill="#101010"><path d="M102.369 163.083l2.606-.815 3.584 9.413-3.095 1.174c-.391-1.145-2.552-7.958-3.095-9.772zm7.974 22.966l2.444-.815 3.42 13.03c-.651.218-1.205 1.048-2.117 1.466-.326-4.397-1.629-9.609-3.747-13.681zM90.795 155.59s6.026-1.955 7.981-2.118c1.629 4.724 3.583 9.61 3.583 9.61-2.117 1.792-5.7 2.606-9.284 2.443-.391-1.145-1.737-8.12-2.28-9.935z"/><path d="M95.689 175.298s5.864.489 9.935-2.606c1.466 3.421 4.724 13.356 4.724 13.356-2.118 1.466-6.841 3.095-11.076 3.258-.391-1.145-3.04-12.193-3.583-14.008zm6.355 22.804s7.166.163 11.401-2.932c1.629 3.258 5.375 11.402 5.375 11.402-1.954 2.606-8.632 5.049-12.378 4.56l-4.398-13.03zm7.319 23.455s8.958.814 13.845-5.049l4.397 8.144c-1.954 2.606-10.75 7.818-14.496 7.329-.391-1.145-3.203-8.609-3.746-10.424zm3.261-40.883c2.997-1.043 7.004-4.181 8.47-5.538-.978-1.629-5.375-8.796-7.33-11.402-2.085 1.564-5.321 3.041-6.678 3.583.597 1.195 3.844 8.275 5.538 13.357z"/><path d="M114.415 190.773c6.385-2.085 11.456-6.841 13.194-8.959 1.248 1.086 4.202 3.746 6.026 5.701 2.28 2.443 1.303 2.769-2.09 6.61-3.496 3.725-11.248 7.244-14.686 8.538l-1.955-3.909c0-1.086-.098-4.203-.489-7.981z"/></g><path d="M105.296 162.757c8.307 15.147 12.216 22.64 22.966 34.53l-11.728 5.538-1.628-4.072c.054-1.629-.033-5.922-.815-10.065-.977-5.178-6.655-19.27-8.795-25.931z" fill-opacity=".36" class="G"/><g class="B"><g class="F"><path d="M100.248 152.658c2.28.163 6.548 1.792 9.284 5.05 3.42 4.072 7.492 11.075 12.867 17.916 3.924 4.994 8.767 9.428 11.739 12.575.805.852.959 2.119.245 3.049-2.344 3.055-7.896 7.953-17.847 11.414"/><path d="M90.8 154.938c.8 4.329 3.17 15.842 6.249 27.261 3.85 14.273 10.691 34.445 13.134 41.543 1.824 5.298 2.831 7.459 3.224 8.213.114.219.347.331.59.287 1.624-.292 7.954-1.746 12.991-7.26a.64.64 0 0 0 .097-.722c-3.161-6.182-9.309-18.804-12.179-25.182"/></g><path d="M115.558 194.491c-1.858-14.447-8.854-29.224-11.319-33.635 1.499 4.273 5.681 14.843 8.871 27.216.978 3.795 1.439 7.599 1.139 11.17l.978 1.955c.296-2.137.429-4.236.331-6.706z" class="G S T"/></g><g filter="url(#O)"><g filter="url(#P)"><path d="M108.067 215.039L96.34 196.176c.543-.271 2.077-.983 3.87-1.66 2.73 5.019 23.005 36.842 24.959 39.862s-1.303 4.961-3.257 2.029c-2.441-3.661-7.678-11.432-13.845-21.368z" fill="#14171d"/></g><path d="M100.721 194.238c2.716 4.994 22.975 36.794 24.936 39.824.543.838.76 1.658.681 2.382-.08.73-.459 1.33-1.028 1.677-1.171.713-2.797.237-3.882-1.391-2.441-3.66-7.682-11.44-13.855-21.385l-11.735-18.876-.312-.536.555-.277c.56-.28 2.112-1 3.925-1.684l.474-.178.242.444z" class="B C"/><g filter="url(#Q)"><ellipse cx="96.245" cy="192.137" rx="6.515" ry="5.306" transform="rotate(331.22 96.245 192.137)" fill="#14171d"/></g><path d="M93.412 186.978c3.332-1.831 7.438-1.2 9.054 1.743s-.053 6.745-3.385 8.576-7.438 1.199-9.054-1.743.053-6.746 3.386-8.576z" class="B C"/><path d="M84.824 174.294c.68-.467 1.374-.625 2.049-.529.658.094 1.242.422 1.738.824.981.796 1.76 2.001 2.252 2.815l3.098 5.218 4.074 6.885c.404.683.498 1.467.375 2.169-.122.696-.466 1.362-1.004 1.793-.505.404-1.253.708-2.066.69-.836-.018-1.712-.377-2.425-1.25-.633-.775-2.057-2.975-3.481-5.243l-3.639-5.916-1.156-1.81c-.383-.607-.751-1.24-.986-1.868s-.359-1.308-.19-1.984c.172-.688.624-1.286 1.362-1.794z" fill="#15181d" class="B C"/><mask id="C" maskUnits="userSpaceOnUse" x="83" y="174" width="15" height="20" mask-type="alpha"><path d="M86.713 174.916c.379.054.771.253 1.17.576.808.655 1.496 1.699 1.989 2.514l3.091 5.206 4.075 6.888c.244.412.312.908.231 1.376-.083.473-.308.865-.584 1.086-.309.247-.796.446-1.315.434-.497-.011-1.052-.214-1.549-.822-.576-.705-1.956-2.829-3.398-5.126l-3.626-5.896-1.17-1.833c-.376-.595-.689-1.144-.881-1.656s-.242-.931-.151-1.293c.087-.349.328-.73.892-1.118.46-.316.865-.387 1.227-.336z" fill="#15181d" class="B C"/></mask><g mask="url(#C)"><path d="M84.478 174.789c-1.433.912-1.249 2.551-.977 3.257l1.466 2.606c.326.326 1.981.47 3.42-.977 1.278-1.284 1.549-2.533 1.766-2.913l-1.604-1.973c-.814-.978-2.28-1.141-4.072 0z" fill="#2a2d32"/></g><path d="M85.802 181.004c2.161-.747 3.984-2.752 4.465-4.736" class="B C"/><path d="M87.132 183.821c2.222-.538 4.228-2.361 4.896-4.289" class="B C"/><use href="#W" class="B C"/><use href="#W" x="1.625" y="2.606" class="B C"/><path d="M92.761 192.725a6.28 6.28 0 0 0 4.484-4.072" class="B C"/></g><path d="M21.032 115.903c1.309 1.8 4.547 6.41 7.036 10.472l1.014 1.654-1.855-.57c-.739-.228-1.427-.005-2.182.588-.777.61-1.493 1.51-2.247 2.432l-1.042 1.274-.25-1.626a8.98 8.98 0 0 1 1.983-7.111c-1.005.836-2.338 1.201-3.572 1.316-1.628.152-3.284-.104-4.288-.469l-1.552-.563 1.459-.773c2.489-1.317 3.822-4.263 4.182-6.319l.298-1.703 1.017 1.398zm115.924 0c-1.309 1.8-4.546 6.41-7.036 10.472l-1.014 1.654 1.855-.57c.739-.228 1.427-.005 2.181.588.777.61 1.493 1.51 2.247 2.432l1.042 1.274.25-1.626c.507-3.293-.922-5.89-1.982-7.111 1.005.836 2.338 1.201 3.572 1.316 1.628.152 3.284-.104 4.288-.469l1.552-.563-1.459-.773c-2.488-1.317-3.822-4.263-4.181-6.319l-.298-1.703-1.017 1.398z" stroke-miterlimit="3.99393" class="B H M"/><g filter="url(#R)" class="I"><path d="M147.692 86.583c-1.055-6.44-6.927-8.559-9.731-8.814 1.757 4.327 2.425 10.553 2.49 16.945-.065 6.392-.733 12.617-2.49 16.944 2.804-.254 8.676-2.373 9.731-8.813.33-2.577.433-5.603.442-8.131-.009-2.528-.112-5.554-.442-8.131z"/></g><path d="M138.026 77.048c1.512.137 3.805.768 5.871 2.216 2.084 1.46 3.945 3.76 4.509 7.202l.004.025c.336 2.62.439 5.682.448 8.221v.005c-.009 2.539-.112 5.6-.448 8.22l-.002.013-.002.012c-.563 3.441-2.425 5.743-4.509 7.203-2.066 1.447-4.359 2.077-5.871 2.215l-1.183.107.447-1.101c1.702-4.192 2.371-10.298 2.437-16.665l-.02-1.191c-.133-5.937-.82-11.555-2.417-15.488l-.447-1.102 1.183.107z" class="B U"/><g filter="url(#S)" class="I"><path d="M10.453 86.583c1.055-6.44 6.927-8.559 9.731-8.814-1.757 4.327-2.425 10.553-2.49 16.945.065 6.392.733 12.617 2.49 16.944-2.804-.254-8.676-2.373-9.731-8.813-.33-2.577-.433-5.603-.442-8.131.009-2.528.112-5.554.442-8.131z"/></g><g class="B U"><path d="M20.118 77.048c-1.512.137-3.805.768-5.871 2.216-2.084 1.46-3.945 3.76-4.509 7.202l-.004.025c-.336 2.62-.439 5.682-.448 8.221v.005c.009 2.539.112 5.6.448 8.22l.002.013.002.012c.564 3.441 2.425 5.743 4.509 7.203 2.066 1.447 4.359 2.077 5.871 2.215l1.184.107-.447-1.101c-1.702-4.192-2.371-10.298-2.437-16.665l.02-1.191c.133-5.937.82-11.555 2.417-15.488l.447-1.102-1.184.107z"/><circle cx="78.614" cy="95.058" r="61.865" fill="#181f2d"/></g><path d="M78.574 35.045c24.6 0 42.175 13.2 52.477 30.746-19.96-24.468-43.919-26.445-52.477-26.445S46.058 41.323 26.098 65.79C36.4 48.244 53.974 35.045 78.574 35.045zm.006 114.181c-28.801 0-47.886-19.43-55.052-30.317 13.091 30.317 42.306 36.38 55.052 36.38s41.961-6.063 55.052-36.38c-7.166 10.887-26.252 30.317-55.052 30.317zm-.465-108.387c-34.425 0-52.894 25.87-57.49 38.794C26.094 68.648 45.248 47 78.115 47s52.688 20.684 58.249 31.346c-4.83-12.073-23.824-37.506-58.249-37.506z" class="I"/><g filter="url(#T)"><path d="M78.737 147.885c29.463-.041 59.076-22.883 59.076-53.118 0-22.357-25.998-46.323-59.076-46.362-33.078.039-59.076 24.005-59.076 46.362 0 30.235 29.613 53.077 59.076 53.118z" fill="#150d41"/></g><g fill="#ebf6fe" class="P"><path d="M33.309 76.959c-6.835 10.574-6.142 25.352-4.506 34.436.243 1.349 1.903 1.263 2.134-.088 1.225-7.182 3.911-18.515 11.387-29.521 8.016-11.8 18.591-19.994 25.65-23.817 1.161-.629.896-2.116-.413-1.941-9.222 1.233-25.792 7.844-34.251 20.931z"/><ellipse cx="120.109" cy="95.994" rx="8.705" ry="10.916" transform="rotate(9.588 120.109 95.994)"/><ellipse cx="109.735" cy="117.034" rx="4.532" ry="5.047" transform="rotate(8.436 109.735 117.034)"/></g><path d="M95.259.842c.322.044.59.27.686.581.388 1.261 1.073 3.989.95 6.911-.075 1.784-.457 3.692-1.428 5.382 1.274-.498 2.506-.909 3.813-1.156 2.474-.468 5.182-.354 9.017.674 3.906 1.047 7.035 3.298 9.936 5.169 2.949 1.902 5.672 3.425 8.967 3.425 2.797 0 4.756-.276 6.055-.607.649-.165 1.125-.342 1.452-.498.163-.078.285-.148.369-.205a1.08 1.08 0 0 0 .094-.07c.021-.018.029-.027.029-.027.234-.263.608-.351.935-.22s.535.454.522.806c-.129 3.461-2.457 11.036-10.5 15.503 3.283 2.76 8.046 6.749 11.532 13.884 2.228 4.096 8.801 7.45 15.85 2.692.286-.193.663-.189.945.009s.414.551.33.886c-.563 2.255-3.702 11.209-13.583 13.027.448 1.341 1.301 3.624 2.802 5.815 1.95 2.847 4.924 5.439 9.443 5.613.292.011.558.175.699.432s.137.569-.011.822c-1.343 2.302-4.813 6.471-12.434 6.615.69 1.248 1.566 2.698 2.704 4.02 1.487 1.727 3.374 3.183 5.804 3.686.364.075.635.382.663.752s-.191.715-.539.846c-2.657.996-6.044 2.345-10.838 1.712.586 1.238.904 2.859.82 5.009-.059 1.5.176 2.615.682 3.557.511.95 1.338 1.799 2.593 2.695.329.235.442.672.269 1.036s-.584.554-.974.448c-1.815-.495-6.155-.907-9.482-5.429-1.888 3.16-4.733 7.564-8.392 10.004-.307.205-.712.183-.996-.053s-.379-.63-.233-.97c1.499-3.499 3.037-10.511 1.95-18.978-1.543 2.179-3.575 4.455-6.823 6.002-.339.161-.744.076-.99-.207s-.271-.697-.063-1.009c1.652-2.478 2.959-4.963 3.725-8.211.77-3.258 1.007-7.331.451-12.988-1.107-11.248-5.515-17.945-10.16-21.339-2.398-1.753-4.802-3.245-8.06-4.309-3.267-1.066-7.439-1.716-13.378-1.716-.373 0-.701-.248-.803-.607s.048-.742.365-.937a19.02 19.02 0 0 1 .542-.32c-1.99.076-3.468.006-5.552.332-2.161.338-4.953 1.109-9.415 2.969-.177.074-.374.084-.558.029-3.708-1.099-8.481-1.584-12.191-1.68.613.392 1.16.804 1.584 1.227.239.239.311.598.182.909s-.434.515-.771.515c-1.389 0-2.687.047-4.192.094l-5.368.094c-.187 0-.369-.064-.517-.18-1.776-1.402-4.229-3.259-7.112-4.453-2.87-1.188-6.117-1.699-9.52-.478-3.561 1.279-5.975 2.764-8.095 4.95-2.144 2.212-4.021 5.173-6.457 9.483-2.415 4.272-3.606 7.305-4.655 9.57-1.041 2.247-1.985 3.843-3.945 4.823-.088.044-.183.072-.28.083-3.709.412-9.094-1.63-12.068-6.984-.149-.268-.138-.597.027-.856s.461-.404.767-.381c2.533.195 4.819.491 6.816-1.291 1.306-1.165 1.849-2.896 2.132-4.757.141-.927.21-1.831.295-2.692.081-.827.179-1.657.398-2.313 1.541-4.624 4.715-7.701 9.555-10.533-1.673-.353-3.297-1.079-4.751-2.05-2.294-1.532-4.231-3.708-5.333-6.112-.141-.307-.082-.669.148-.916s.587-.331.903-.213c2.87 1.076 7.018 1.498 10.321-.359 3.201-1.8 6.361-5.122 12.803-4.686-.777-2.873-1.592-7.618 2.797-12.008 1.206-1.206 2.781-2.481 4.37-3.804 1.607-1.338 3.254-2.744 4.68-4.262 2.864-3.047 4.681-6.366 3.667-10.254-.085-.326.034-.671.303-.875s.634-.225.925-.056l.023.014c1.143.667 3.035 1.767 4.747 3.91 1.516 1.897 2.859 4.571 3.485 8.416 1.115-1.029 2.255-2.076 3.686-2.978 1.971-1.243 4.496-2.226 8.397-2.774 3.881-.545 8.355-.894 12.417-1.882s7.444-2.562 9.231-5.371l.072-.097c.182-.211.461-.319.743-.281z" class="B J M N V"/><mask id="D" maskUnits="userSpaceOnUse" x="2" y="1" width="153" height="113" mask-type="alpha"><path d="M94.767 3.526c.282 1.288.535 2.984.461 4.738-.111 2.652-.95 5.296-3.366 6.963-.351.242-.462.71-.259 1.085s.658.536 1.052.373c2.772-1.147 4.725-2.067 6.935-2.485 2.165-.409 4.612-.336 8.274.646 3.592.962 6.461 3.022 9.464 4.96 2.955 1.906 6.044 3.69 9.871 3.691 2.901 0 5.004-.286 6.467-.658.429-.109.806-.229 1.135-.351-.684 3.608-3.365 9.634-10.498 13.108-.253.123-.427.365-.463.644s.072.557.285.74c3.307 2.833 8.412 6.662 12.072 14.165a.4.4 0 0 0 .016.031c2.431 4.489 9.077 8.019 16.285 4.444-1.39 3.343-4.877 8.904-12.473 9.889a.83.83 0 0 0-.683 1.092c.272.816 1.196 4.076 3.313 7.166 1.925 2.81 4.891 5.558 9.313 6.204-1.628 2.13-5.014 4.951-11.61 4.651-.299-.014-.583.134-.743.388s-.172.573-.031.838l.079.147c.757 1.42 1.877 3.527 3.504 5.418 1.157 1.344 2.595 2.604 4.37 3.439-2.531.832-5.562 1.429-9.651.475-.363-.085-.738.082-.919.407s-.124.732.139.995c.916.916 1.688 2.482 1.569 5.535-.067 1.715.199 3.144.88 4.411a7.22 7.22 0 0 0 .604.94c-1.971-.676-4.23-1.957-6.061-4.974-.153-.251-.426-.403-.719-.401-.257.002-.496.122-.651.321l-.062.091c-1.503 2.555-3.642 6.145-6.329 8.769 1.291-4.508 2.126-11.359.747-19.176-.06-.338-.321-.605-.657-.673s-.681.078-.866.366c-1.181 1.837-2.501 3.778-4.474 5.383.895-1.707 1.633-3.556 2.144-5.724.825-3.49 1.056-7.759.488-13.535-1.143-11.62-5.733-18.794-10.835-22.522-2.475-1.808-5.039-3.409-8.528-4.548-2.811-.918-6.193-1.525-10.581-1.726 3.08-1.341 7.798-2.765 13.548-2.716.448.004.819-.346.841-.793s-.312-.832-.758-.872c-4.16-.378-7.053-.337-9.59.102-2.492.431-4.597 1.239-7.166 2.337-1.915.079-3.644.004-5.895.355-2.291.358-5.146 1.155-9.526 2.965-5.15-1.465-12-1.825-15.738-1.638-.386.019-.707.3-.778.68s.129.758.481.915c.75.333 1.477.698 2.126 1.07l-1.72.052-5.03.092c-1.776-1.395-4.294-3.269-7.276-4.504-3.128-1.295-6.818-1.909-10.724-.507-3.749 1.346-6.396 2.954-8.729 5.359-2.308 2.38-4.274 5.511-6.711 9.823-2.459 4.35-3.704 7.504-4.717 9.691-.989 2.135-1.719 3.252-3.049 3.963-2.727.238-6.725-1.126-9.4-4.788 2.031.116 4.351-.015 6.39-1.834 1.754-1.565 2.373-3.788 2.671-5.752.149-.985.225-1.962.306-2.779.084-.851.17-1.498.32-1.949 1.584-4.751 5.101-7.77 11.217-10.939.351-.182.527-.587.419-.968s-.468-.633-.863-.605c-2.209.162-4.558-.607-6.625-1.986-1.478-.987-2.777-2.266-3.749-3.681 2.931.671 6.567.673 9.681-1.078 3.793-2.133 6.436-5.249 13.011-4.36.279.038.558-.068.742-.28s.248-.505.171-.775c-.759-2.657-2.272-7.243 2.037-11.552 1.137-1.137 2.631-2.347 4.258-3.701 1.609-1.339 3.326-2.802 4.828-4.401 2.585-2.751 4.656-6.033 4.378-9.926.874.605 1.849 1.414 2.768 2.563 1.501 1.879 2.891 4.718 3.343 9.148.032.311.234.578.525.692s.622.055.857-.151c1.662-1.467 2.862-2.76 4.64-3.881 1.736-1.094 4.026-2.012 7.739-2.534 3.735-.525 8.411-.899 12.579-1.912 3.541-.861 6.91-2.224 9.161-4.687z" class="B J M N V"/></mask><g mask="url(#D)"><path d="M14.355 67.648c-1.591 4.873-8.622 5.623-11.059 4.499l-2.062-2.812c2.937-1 9.185-4.536 10.684-10.684 1.874-7.685 8.622-10.309 13.308-11.621-11.434 6.373-7.873 11.434-10.872 20.619zm3.753-25.117c1.499 1.799 3.187 3.187 6.748 4.124-.965.75-5.061.375-7.873-1.125s-5.436-5.504-6.042-8.012c5.393 3.609 10.353 1.264 13.352-.61 5.248-3.936 8.81-3.749 11.621-3.749-1.312-5.061-.75-7.498 1.687-10.872s10.31-9.934 12.559-12.933 1.125-6.186 1.33-7.685c8.711 3.449 9.116 10.559 8.23 13.683.437-.812 2.174-2.887 5.623-4.686 4.311-2.249 15.37-2.624 20.993-4.311s8.06-4.873 9.372-5.436c1.874 4.873 1.312 9.372-.187 12.746 1.5-.562 5.811-1.687 10.872-1.125s12.746 5.998 17.994 8.435 8.622.375 12.184-.75c.187 3.749-2.25 8.622-4.124 11.246-1.5 2.099-4.874 4.249-6.373 5.061-.312-.312-2.024-1.762-6.373-5.061 5.398.6 10.747-3.874 12.746-6.186-1.375.937-5.248 2.579-9.559 2.062-4.687-.562-9.373-6.373-15.933-8.997-5.835-2.334-16.12-1.125-21.931 0 5.998-2.437 8.247-8.435 8.435-11.247-3.749 3.749-16.87 2.812-24.024 5.081s-11.59 8.04-15.901 13.101c-1.312-4.311-.375-9.31-.375-11.621-2.249 1.312-8.247 5.623-11.434 10.122-3.221 4.548-4.124 8.997-4.124 12.746-4.124 0-8.06.375-12.156 3.493-3.51 2.672-5.276 2.505-7.338 2.505z" class="Q"/><path d="M117.082 37.47c-7.654-5.598-19.764-7.221-23.805-6.748 9.185-4.311 18.932-2.812 26.524 1.151s13.589 11.407 16.896 15.999 3.628 7.217 9.439 7.404c4.648.15 8.06-2.437 9.185-3.749 0 1.25-.573 4.64-2.866 8.207-2.865 4.459-8.381 6.6-10.443 7.725-1.312 2.249 3.187 6.561 5.811 9.185s7.685 1.687 6.56 2.437c-6.935 2.249-10.684-1.687-12.558-5.248s-.937-6.56-.375-7.498c2.812-.75 5.436-4.686 7.498-7.685-16.683 5.811-19.307-11.996-31.866-21.181zm9.555 22.867l6.935 3.936c6.373 14.808 4.124 24.742 1.687 33.74 2.549-18.144-4.686-32.677-8.622-37.676z" class="Q"/><path d="M6.297 72.333c3.374 3.374 8.622 3.186 8.622 3.186l1.5-3.186c1.125-2.437 9.934-18.369 11.996-21.181s7.498-5.811 13.308-5.623 9.546 5.061 11.608 7.685c.9-.3 8.511-.25 11.447-.187l-2.999-3.374c2.312.5 7.648 1.799 10.497 2.999 3.599-2.399 13.621-3.624 18.182-3.936l-2.999 2.812c.875-.25 4.274-.675 10.872-.375 8.247.375 15.745 8.06 20.431 13.871-2.249-6.935-8.06-13.121-12.934-15.933 8.998-.375 14.246 4.311 17.245 6.748-4.498-7.685-12.558-12.559-14.808-13.871 3.562 0 7.498 1.125 11.622 2.624-2.625-2.249-7.873-6.935-19.682-6.935s-17.994 4.686-21.135 6.844c1.536-5.021 1.984-7.467 2.579-8.156-1 .75-3.756 2.954-6.781 5.773 1.279-3.411 5.469-8.96 12.268-13.594s15.694-5.113 21.13-4.738c-8.997-3.374-20.993-1.499-26.991 1.125S72.09 29.41 66.28 36.907c1.687-11.809 9.56-17.245 13.871-19.869-22.267 5.239-20.624 20.565-20.059 25.839l.003.028c-10.872-8.247-5.811-17.994-5.065-20.616-4.69 8.625-3.932 14.43-1.308 20.054-9.559-4.686-9.559-12.371-9.559-14.995-4.948 5.548-1.187 13.558 1.312 16.87-1.312-.75-5.023-2.249-9.372-2.249-6.598 0-10.997 3.374-12.371 5.061 1.25-.312 3.449-.112 6.748-.562-7.123 1.499-12.184 15.558-14.995 20.619-2.249 4.049-7.185 5.186-9.185 5.248zm114.909 23.993c8.098-7.348 7.748-20.306 6.561-25.867 4.123 16.87-.938 23.243-2.628 25.681-1.352 1.951-5.31 3.561-7.119 4.121a29.03 29.03 0 0 0 3.186-3.936zm13.492-30.929c6.185.937 8.997-2.062 10.496-4.124-6.522 2.075-12.848-2.028-15.286-4.416l4.79 8.54zm14.431 14.997c-5.998 1.2-10.747-5.248-12.371-8.622 1.349 8.697 1.124 11.497.937 11.434.437 1.062 2.174 2.437 4.874 2.437 3.373 0 5.435-3.187 6.56-5.248zm1.687 14.245c-5.848 2.249-10.809-2.312-12.559-4.873l-1.499 4.311c.312 1.749 2.174 3.711 5.623 3.561 4.311-.187 6.186-1.312 8.435-2.999z" fill="#120203"/></g><path d="M36.532 32.955l-1.618.405c.063.194.133.365.207.534 1.392 2.908 3.517 5.115 5.834 7.014l.391.31-.334-.37c-1.957-2.225-3.643-4.805-4.397-7.48l-.083-.412zm59.042-20.597l1.242 1.114c-.147.142-.288.261-.432.376-2.589 1.922-5.499 2.88-8.434 3.478l-.491.091.468-.171c2.77-1.054 5.466-2.548 7.381-4.561l.266-.326zM20.916 46.756l.377 1.625.384-.125c2.39-.714 4.919-1.2 7.46-1.504l.425-.048-.427-.036c-2.566-.194-5.145-.215-7.772.034l-.447.053zm104.13 47.359l1.298 1.048a11.21 11.21 0 0 0 .862-1.296c4.284-8.173 3.025-17.711-.107-25.742l-.552-1.346c-.032-.075-.093-.134-.169-.166a.31.31 0 0 0-.404.164c-.033.075-.035.161-.006.237a46.61 46.61 0 0 1 .496 1.346c2.83 8.001 3.545 17.411-.646 24.677-.241.386-.496.749-.772 1.077zm9.252 10.655c-.083.206-.243.369-.448.453a.84.84 0 0 1-1.097-.454c-.084-.204-.083-.433.004-.637l1.053-2.726c2.43-7.101 4.297-14.71 3.444-22.144-1.187-10.045-4.528-20.003-11.365-27.597a55.62 55.62 0 0 0-1.995-2.184.31.31 0 0 1-.087-.222.31.31 0 0 1 .093-.219c.059-.058.138-.089.221-.089s.161.033.219.092c.71.711 1.389 1.428 2.058 2.174 7.063 7.554 10.694 17.763 12.057 27.871 1.023 7.811-.766 15.528-3.118 22.847a52.02 52.02 0 0 1-1.039 2.835z" class="G"/><path d="M125.886 36.344c-1.562-1.562-6.298-5.661-12.746-7.31-8.06-2.062-15.558-1.312-24.555 3.374S73.356 42.886 72.277 51.901m-7.683-.562c-5.061-1.687-11.246-6.26-12.746-15.558-1.874-11.621 7.685-20.431 9.185-21.743" class="B N"/><path d="M12.107 79.832c-2.549 3.299-7.31 3.499-9.372 3.186 2.624 4.874 6.324 6.173 9.372 6.935 2.249.562 4.499 0 5.436 0-.937 2.624-.937 3.795-1.125 7.685.188 3.515-1.125 5.81-2.812 9.184 7.685-1.312 10.872-6.56 11.387-9.418 1.828 4.265 5.108 6.794 6.982 9.418-.75-2.811-.937-10.871-.75-19.681s4.124-17.807 8.247-24.555c5.998-10.309 10.309-8.248 13.871-8.997-3.374-4.499-7.685-7.123-11.996-7.498-8.435-.562-12.559 5.436-16.87 10.309-3.936 6.373-9.185 19.307-12.371 23.43z" class="M"/><g fill="#120203"><path d="M23.162 79.832C18.213 86.43 9.104 86.767 3.48 84.143c2.249 3.561 6.186 5.061 8.997 5.811s4.499-.187 4.609 1.065c1.952-3.127 3.826-5.001 5.701-5.564 0-.187.225-3.074.375-5.623zm12.834-22.868c3.561-6.935 8.911-8.685 11.348-9.185.875.625 3.374 2.812 5.811 5.623-6.561.75-9.747 2.999-13.597 8.81-3.956 5.97-7.583 18.932-8.895 30.928-3.561-9.56 1.541-28.79 5.334-36.176z"/><path d="M23.165 86.767c0 2.812.329 6.347.937 8.247 1.499 4.686.75 5.811-2.437 8.248-2.09 1.598-8.06 3.936-8.997 4.123 1.499-.937 6.56-4.498 7.123-11.246.56-6.718 1.12-9.348 3.344-11.406.006-.065.016-.081.03-.028l-.03.028c-.033.342.03 2.034.03 2.034z"/></g><path d="M15.906 78.894c-3.449 5.548-9.31 5.936-11.809 5.436-.187-.187-.722-.749-1.362-1.494 8.01.005 9.985-3.379 11.297-5.441s7.873-17.057 12.184-23.43 7.31-5.998 12.746-7.498C28.839 50.59 20.217 71.959 15.906 78.894z" class="Q"/><path d="M26.037 54.053c4.809-6.946 11.519-8.968 17.131-8.033 4.839.807 8.133 4.668 9.346 6.328l.89 1.217-1.503.107c-2.453.175-8.099 1.592-11.721 7.478-4.447 7.226-7.585 15.175-8.692 23.849-.886 6.941-.122 15.617.373 19.083l.302 2.113-1.654-1.348c-.874-.712-2.213-1.935-3.415-3.313-.697-.798-1.385-1.69-1.903-2.594-2.784 5.153-7.49 6.736-10.332 7.906l-2.987 1.229 2.019-2.521c2.059-2.574 2.253-4.932 2.441-9.448.095-2.272.286-3.797.614-5.01.114-.419.244-.796.387-1.149-3.615.975-6.687.123-9.037-1.211-2.746-1.558-4.521-3.781-5.072-4.424l-1.294-1.51 1.984.135c3.852.263 6.325-1.075 8.179-3.144 1.91-2.132 3.169-5.04 4.5-7.987 2.625-5.812 6.025-12.81 9.446-17.751z" class="B N"/><path d="M26.423 66.524c1.799-4.649 5.123-9.185 6.56-10.872-6.935 10.872-8.997 22.493-9.185 30.086-.15 6.075 1.187 10.715 1.875 12.276-.187.125-.712.45-1.312.75-4.873-12.746-.187-26.429 2.062-32.24z" class="G"/><defs><filter id="E" x="11.128" y="248.724" width="133.604" height="29.824" filterUnits="userSpaceOnUse" class="D"><feFlood class="E"/><feBlend in="SourceGraphic"/><feGaussianBlur stdDeviation=".907"/></filter><filter id="F" x="40.641" y="152.818" width="76.879" height="75.25" filterUnits="userSpaceOnUse" class="D"><feFlood class="E"/><feBlend in="SourceGraphic" result="B"/><feColorMatrix in="SourceAlpha" values="0 0 0 0 0 0 0 0 0 0 0 0 0 0 0 0 0 0 127 0" result="C"/><feOffset dx="-4.88637" dy="-10.0985"/><feComposite in2="C" operator="arithmetic" k2="-1" k3="1"/><feColorMatrix values="0 0 0 0 0.843137 0 0 0 0 0.866667 0 0 0 0 0.917647 0 0 0 1 0"/><feBlend in2="B"/></filter><filter id="G" x="91.027" y="250.954" width="31.422" height="17.796" filterUnits="userSpaceOnUse" class="D"><feFlood class="E"/><feBlend in="SourceGraphic" result="B"/><feColorMatrix in="SourceAlpha" values="0 0 0 0 0 0 0 0 0 0 0 0 0 0 0 0 0 0 127 0" result="C"/><feOffset dx="-2.60606" dy="-4.23486"/><feComposite in2="C" operator="arithmetic" k2="-1" k3="1"/><feColorMatrix values="0 0 0 0 0.454902 0 0 0 0 0.45098 0 0 0 0 0.466667 0 0 0 1 0"/><feBlend in2="B"/></filter><filter id="H" x="88.539" y="238.115" width="27.938" height="16.112" filterUnits="userSpaceOnUse" class="D"><feFlood class="E"/><feBlend in="SourceGraphic" result="B"/><feColorMatrix in="SourceAlpha" values="0 0 0 0 0 0 0 0 0 0 0 0 0 0 0 0 0 0 127 0" result="C"/><feOffset dx="-9.44698" dy="1.62879"/><feComposite in2="C" operator="arithmetic" k2="-1" k3="1"/><feColorMatrix values="0 0 0 0 0 0 0 0 0 0 0 0 0 0 0 0 0 0 0.16 0"/><feBlend in2="B"/></filter><filter id="I" x="36.469" y="250.954" width="31.422" height="17.796" filterUnits="userSpaceOnUse" class="D"><feFlood class="E"/><feBlend in="SourceGraphic" result="B"/><feColorMatrix in="SourceAlpha" values="0 0 0 0 0 0 0 0 0 0 0 0 0 0 0 0 0 0 127 0" result="C"/><feOffset dx="2.60606" dy="-4.23486"/><feComposite in2="C" operator="arithmetic" k2="-1" k3="1"/><feColorMatrix values="0 0 0 0 0.454902 0 0 0 0 0.45098 0 0 0 0 0.466667 0 0 0 1 0"/><feBlend in2="B"/></filter><filter id="J" x="42.438" y="238.115" width="27.938" height="16.112" filterUnits="userSpaceOnUse" class="D"><feFlood class="E"/><feBlend in="SourceGraphic" result="B"/><feColorMatrix in="SourceAlpha" values="0 0 0 0 0 0 0 0 0 0 0 0 0 0 0 0 0 0 127 0" result="C"/><feOffset dx="9.44698" dy="1.62879"/><feComposite in2="C" operator="arithmetic" k2="-1" k3="1"/><feColorMatrix values="0 0 0 0 0 0 0 0 0 0 0 0 0 0 0 0 0 0 0.16 0"/><feBlend in2="B"/></filter><filter id="K" x="29.547" y="197.448" width="14.422" height="24.253" filterUnits="userSpaceOnUse" class="D"><feFlood class="E"/><feBlend in="SourceGraphic" result="B"/><feColorMatrix in="SourceAlpha" values="0 0 0 0 0 0 0 0 0 0 0 0 0 0 0 0 0 0 127 0" result="C"/><feOffset dx="2.93182" dy="-2.60606"/><feComposite in2="C" operator="arithmetic" k2="-1" k3="1"/><feColorMatrix values="0 0 0 0 0.858824 0 0 0 0 0.67451 0 0 0 0 0.458824 0 0 0 1 0"/><feBlend in2="B"/></filter><filter id="L" x="25.398" y="192.82" width="18.957" height="15.603" filterUnits="userSpaceOnUse" class="D"><feFlood class="E"/><feBlend in="SourceGraphic" result="B"/><feColorMatrix in="SourceAlpha" values="0 0 0 0 0 0 0 0 0 0 0 0 0 0 0 0 0 0 127 0" result="C"/><feOffset dx="-2.28031" dy="4.88637"/><feComposite in2="C" operator="arithmetic" k2="-1" k3="1"/><feColorMatrix values="0 0 0 0 0 0 0 0 0 0 0 0 0 0 0 0 0 0 0.25 0"/><feBlend in2="B"/></filter><filter id="M" x="114.504" y="196.8" width="14.422" height="24.253" filterUnits="userSpaceOnUse" class="D"><feFlood class="E"/><feBlend in="SourceGraphic" result="B"/><feColorMatrix in="SourceAlpha" values="0 0 0 0 0 0 0 0 0 0 0 0 0 0 0 0 0 0 127 0" result="C"/><feOffset dx="-2.93182" dy="-2.60606"/><feComposite in2="C" operator="arithmetic" k2="-1" k3="1"/><feColorMatrix values="0 0 0 0 0.858824 0 0 0 0 0.67451 0 0 0 0 0.458824 0 0 0 1 0"/><feBlend in2="B"/></filter><filter id="N" x="114.113" y="192.169" width="18.957" height="15.603" filterUnits="userSpaceOnUse" class="D"><feFlood class="E"/><feBlend in="SourceGraphic" result="B"/><feColorMatrix in="SourceAlpha" values="0 0 0 0 0 0 0 0 0 0 0 0 0 0 0 0 0 0 127 0" result="C"/><feOffset dx="2.28031" dy="4.88637"/><feComposite in2="C" operator="arithmetic" k2="-1" k3="1"/><feColorMatrix values="0 0 0 0 0 0 0 0 0 0 0 0 0 0 0 0 0 0 0.25 0"/><feBlend in2="B"/></filter><filter id="O" x="82.149" y="173.156" width="44.784" height="66.849" filterUnits="userSpaceOnUse" class="D"><feFlood result="A" class="E"/><feColorMatrix in="SourceAlpha" values="0 0 0 0 0 0 0 0 0 0 0 0 0 0 0 0 0 0 127 0" result="B"/><feOffset dx="-0.651516" dy="0.977274"/><feComposite in2="B" operator="out"/><feColorMatrix values="0 0 0 0 0 0 0 0 0 0 0 0 0 0 0 0 0 0 0.4 0"/><feBlend in2="A"/><feBlend in="SourceGraphic"/></filter><filter id="P" x="94.711" y="193.071" width="32.223" height="45.958" filterUnits="userSpaceOnUse" class="D"><feFlood class="E"/><feBlend in="SourceGraphic" result="B"/><feColorMatrix in="SourceAlpha" values="0 0 0 0 0 0 0 0 0 0 0 0 0 0 0 0 0 0 127 0" result="C"/><feOffset dx="4.23486" dy="1.30303"/><feComposite in2="C" operator="arithmetic" k2="-1" k3="1"/><feColorMatrix values="0 0 0 0 0 0 0 0 0 0 0 0 0 0 0 0 0 0 0.25 0"/><feBlend in2="B"/></filter><filter id="Q" x="88.816" y="185.37" width="14.859" height="13.535" filterUnits="userSpaceOnUse" class="D"><feFlood class="E"/><feBlend in="SourceGraphic" result="B"/><feColorMatrix in="SourceAlpha" values="0 0 0 0 0 0 0 0 0 0 0 0 0 0 0 0 0 0 127 0" result="C"/><feOffset dx="2.28031" dy="2.60606"/><feComposite in2="C" operator="arithmetic" k2="-1" k3="1"/><feColorMatrix values="0 0 0 0 0 0 0 0 0 0 0 0 0 0 0 0 0 0 0.25 0"/><feBlend in2="B" result="D"/><feColorMatrix in="SourceAlpha" values="0 0 0 0 0 0 0 0 0 0 0 0 0 0 0 0 0 0 127 0" result="C"/><feOffset dx="-1.30303" dy="-1.62879"/><feComposite in2="C" operator="arithmetic" k2="-1" k3="1"/><feColorMatrix values="0 0 0 0 0.164706 0 0 0 0 0.176471 0 0 0 0 0.196078 0 0 0 1 0"/><feBlend in2="D"/></filter><filter id="R" x="135.723" y="76.112" width="13.859" height="37.205" filterUnits="userSpaceOnUse" class="D"><feFlood class="E"/><feBlend in="SourceGraphic" result="B"/><feColorMatrix in="SourceAlpha" values="0 0 0 0 0 0 0 0 0 0 0 0 0 0 0 0 0 0 127 0" result="C"/><feOffset dx="-3.31616" dy="-6.35598"/><feComposite in2="C" operator="arithmetic" k2="-1" k3="1"/><feColorMatrix values="0 0 0 0 0.843137 0 0 0 0 0.866667 0 0 0 0 0.917647 0 0 0 1 0"/><feBlend in2="B"/></filter><filter id="S" x="8.563" y="76.112" width="13.859" height="37.205" filterUnits="userSpaceOnUse" class="D"><feFlood class="E"/><feBlend in="SourceGraphic" result="B"/><feColorMatrix in="SourceAlpha" values="0 0 0 0 0 0 0 0 0 0 0 0 0 0 0 0 0 0 127 0" result="C"/><feOffset dx="3.03981" dy="-6.35598"/><feComposite in2="C" operator="arithmetic" k2="-1" k3="1"/><feColorMatrix values="0 0 0 0 0.843137 0 0 0 0 0.866667 0 0 0 0 0.917647 0 0 0 1 0"/><feBlend in2="B"/></filter><filter id="T" x="19.66" y="48.405" width="118.152" height="99.481" filterUnits="userSpaceOnUse" class="D"><feFlood class="E"/><feBlend in="SourceGraphic" result="B"/><feColorMatrix in="SourceAlpha" values="0 0 0 0 0 0 0 0 0 0 0 0 0 0 0 0 0 0 127 0" result="C"/><feOffset dx="-0.321943" dy="-16.0972"/><feComposite in2="C" operator="arithmetic" k2="-1" k3="1"/><feColorMatrix values="0 0 0 0 0.13338 0 0 0 0 0.0604861 0 0 0 0 0.279167 0 0 0 0.9 0"/><feBlend in2="B"/></filter><path id="U" d="M121.552 264.076c1.174-3.524-4.201-10.271-9.088-12.389l-19.871.163c-.489 1.955-.928 6.364-.814 10.099.142 4.669 6.673 5.583 13.584 5.947 7.084.372 14.882.1 16.189-3.82z"/><path id="V" d="M37.366 264.076c-1.174-3.524 4.201-10.271 9.087-12.389l19.871.163c.489 1.955.928 6.364.814 10.099-.142 4.669-6.673 5.583-13.584 5.947-7.084.372-14.882.1-16.188-3.82z"/><path id="W" d="M89.089 187.079c2.222-.538 4.228-2.361 4.896-4.29"/></defs></svg>