<svg xmlns="http://www.w3.org/2000/svg" width="203" height="323" fill="none" xmlns:v="https://vecta.io/nano"><style><![CDATA[.B{stroke:#000}.C{color-interpolation-filters:sRGB}.D{flood-opacity:0}.E{stroke-width:1.881}.F{stroke-linejoin:round}.G{fill:#000}.H{stroke-width:1.693}.I{fill:#f5cc9c}.J{fill:#ecf2ff}.K{fill:#b5732e}.L{fill:#ce2817}.M{stroke-width:1.86}.N{stroke-width:1.463}.O{fill-opacity:.53}.P{stroke-width:1.254}.Q{stroke-width:1.682}.R{stroke-width:1.097}.S{stroke-width:.418}.T{stroke-width:1.859}]]></style><g filter="url(#G)"><ellipse cx="101.167" cy="305.21" rx="75.488" ry="15.215" fill="#00775e" fill-opacity=".89"/></g><g filter="url(#H)" class="J"><rect x="52.254" y="163.417" width="98.623" height="98.623" rx="18.387"/></g><g class="B E"><rect x="53.194" y="164.358" width="96.743" height="96.743" rx="17.447"/><path d="M46.006 305.723c-1.866-5.601 7.506-14.947 8.291-15.461h30.688c-.019.614.146 7.619 0 12.411-.182 5.989-9.345 7.484-18.211 7.95-9.087.479-19.091.129-20.767-4.9z" class="F I"/></g><mask id="A" maskUnits="userSpaceOnUse" x="45" y="290" width="41" height="21" mask-type="alpha"><path d="M84.049 291.202l.043 3.707-.047 7.735c-.072 2.381-1.894 4.04-5.216 5.186-3.288 1.135-7.683 1.622-12.105 1.855-4.531.238-9.217.264-12.956-.373-1.869-.319-3.445-.795-4.631-1.455-1.176-.655-1.916-1.459-2.24-2.431-.368-1.106-.209-2.497.386-4.079.589-1.566 1.56-3.201 2.64-4.717 1.075-1.51 2.235-2.871 3.174-3.885a31.13 31.13 0 0 1 1.194-1.224 13.45 13.45 0 0 1 .343-.319h29.415z" fill="#fff" class="B E F"/></mask><g mask="url(#A)" class="B K"><path d="M66.083 296.648c4.685 2.064 11.272 5.052 15.129 14.168l.248.587-.548.326c-2.268 1.35-3.836 1.846-4.439 1.914l-.602.069-.179-.579c-.482-1.559-1.977-3.843-4.233-6.119-2.24-2.26-5.163-4.444-8.416-5.84l-.013-.005c-6.548-2.959-11.024-2.879-14.013-1.468l-1.681.794.69-1.727c.229-.572.775-1.659 1.449-2.709.338-.528.718-1.06 1.116-1.522.392-.454.834-.878 1.304-1.147l.15-.085.172-.01c5.75-.323 10.518 1.879 13.866 3.353z" class="N"/><path d="M84.968 303.673c.169 2.919.071 6.553.001 8.006l-.029.597H44.943v-9.746l1.106 1.317c.444.529 1.782 1.475 4.338 2.287 2.531.805 6.2 1.46 11.233 1.46 12.694 0 18.972-1.81 22.341-4.383l.939-.716.067 1.178z" class="P"/></g><path d="M155.967 306.142c1.866-5.601-7.506-14.947-8.291-15.461h-30.687c.018.614-.146 7.619 0 12.411.182 5.989 9.344 7.484 18.211 7.95 9.088.479 19.091.129 20.767-4.9z" class="B E F I"/><mask id="B" maskUnits="userSpaceOnUse" x="116" y="290" width="41" height="22" mask-type="alpha"><path d="M117.928 291.621l-.043 3.707.048 7.735c.072 2.381 1.893 4.04 5.215 5.186 3.289 1.135 7.683 1.622 12.105 1.855 4.531.238 9.217.264 12.956-.374 1.869-.318 3.445-.794 4.63-1.454 1.177-.655 1.916-1.459 2.24-2.431.369-1.106.209-2.497-.386-4.079-.588-1.566-1.56-3.201-2.639-4.717-1.076-1.51-2.235-2.871-3.174-3.885-.47-.506-.881-.922-1.194-1.224l-.343-.319h-29.415z" fill="#fff" class="B E F"/></mask><g mask="url(#B)" class="B K"><path d="M135.898 297.067c-4.685 2.063-11.272 5.051-15.13 14.167l-.248.588.548.326c2.269 1.35 3.836 1.845 4.439 1.914l.603.069.179-.58c.482-1.558 1.977-3.842 4.232-6.118 2.24-2.261 5.163-4.444 8.416-5.84l.012-.006c6.548-2.958 11.025-2.879 14.014-1.467l1.681.794-.69-1.727c-.229-.573-.775-1.659-1.448-2.71-.339-.527-.718-1.06-1.117-1.522-.391-.453-.834-.877-1.304-1.146l-.15-.086-.172-.009c-5.749-.324-10.517 1.878-13.865 3.353z" class="N"/><path d="M117.009 304.092c-.169 2.919-.071 6.553-.001 8.006l.029.597h39.996v-9.746l-1.106 1.317c-.444.529-1.782 1.475-4.338 2.287-2.531.805-6.2 1.46-11.234 1.46-12.694 0-18.972-1.81-22.34-4.383l-.939-.716-.067 1.178z" class="P"/></g><path d="M59.653 197.815c5.36-15.742 13.242-30.028 16.903-35.392l24.522.025 24.63.174c3.662 5.364 11.357 19.982 16.571 35.189 5.585 17.836 5.252 23.169 3.204 35.901.745 3.36 2.195 11.997 3.126 22.076s2.048 17.153 1.862 32.361c-3.476 3.065-15.228 8.445-35.336 5.333-.931-6.189-2.42-15.386-3.351-19.453-.989-4.32-1.862-10.61-5.586-12.909-1.675-.884-4.282-.884-5.213-.884-.838-.002-3.351 0-5.027.884-3.724 2.299-4.802 8.587-5.791 12.907-.931 4.067-2.215 13.266-3.146 19.455-17.707 3.356-33.532-2.303-35.58-5.132-.186-15.208.95-22.631 1.881-32.711s3.415-18.654 4.16-22.014c-2.048-12.732-3.229-16.535 2.17-35.81z" class="I"/><g filter="url(#I)"><path d="M148.774 255.698c-.931-10.08-2.129-17.045-2.873-20.404-10.857.836-20.535-.001-44.52-.001h-44.52c-.745 3.36-2.447 10.326-3.378 20.405s-1.519 8.64-1.937 18.669c3.475 3.065 17.378 10.634 37.486 7.522.931-6.189.531-7.425 1.462-11.492.989-4.32 2.695-7.94 5.4-9.367 1.676-.885 4.304-.885 5.235-.885h0c.931 0 3.559 0 5.235.884 2.309 1.219 3.828 4.421 4.817 8.741.931 4.067.95 5.721 1.88 11.91 20.108 3.112 33.59-4.248 37.066-7.313-.419-10.03-.422-8.59-1.353-18.669z" fill="#2d5ec5"/></g><mask id="C" maskUnits="userSpaceOnUse" x="51" y="162" width="100" height="133" mask-type="alpha"><path d="M60.071 197.815c5.36-15.741 13.242-30.028 16.903-35.392l24.522.026 24.63.173c3.662 5.364 11.357 19.982 16.571 35.19 5.585 17.835 5.252 23.168 3.204 35.901.745 3.359 2.195 11.996 3.126 22.076s2.048 17.153 1.862 32.36c-3.476 3.065-15.228 8.446-35.336 5.333-.931-6.189-2.42-15.386-3.351-19.453-.989-4.32-1.862-10.61-5.586-12.909-1.675-.884-4.282-.884-5.213-.884-.838-.001-3.351 0-5.027.884-3.724 2.299-4.802 8.587-5.791 12.907-.931 4.067-2.215 13.266-3.146 19.455-17.707 3.357-33.532-2.302-35.58-5.131-.186-15.208.95-22.632 1.881-32.711s1.534-18.236 2.278-21.596c-1.254-12.537-1.348-16.954 4.052-36.229z" fill="#1d1d1d"/></mask><g mask="url(#C)"><path d="M101.319 189.747c-3.122 0-9.092-4.378-11.688-7.08l-.882 4.568c2.108 1.916 6.295 6.16 6.177 7.811-.353 3.418-7.305 9.873-10.736 12.673l-.588 2.505c4.363-3.389 14.015-10.197 17.717-10.315s12.38 6.14 16.256 9.284l.294-1.032c-3.432-3.537-10.324-11.111-10.442-13.115s4.265-6.14 6.471-7.958l-.735-4.863c-2.648 2.849-8.722 7.522-11.844 7.522z" fill="#de9c74" class="B N"/><g filter="url(#J)"><use href="#Q" fill="#ffd00c"/><use href="#Q" class="B Q"/></g><path d="M88.494 233.746c-16.815-1.323-29.474-5.668-32.498-7.935v3.589c11.336 3.212 21.615 4.648 32.498 4.346zm41.011-7.81c-10.501 2.603-30.26 3.551-39.314 3.698 8.402 1.401 28.804.747 40.023.143 1.275-.069 2.271-.872 1.88-2.088-.326-1.017-1.552-2.01-2.589-1.753zm17.375 1.953c-9.419 4.147-31.442 8.141-40.969 9.451 9.185.412 30.978-2.861 41.219-4.735.149-.764.049-2.651-.25-4.716z" fill="#010000"/><g filter="url(#K)"><path d="M121.734 223.688c1.359 2.273 2.301 6.184 3.432 12.408 0-6.401-1.508-10.667-2.193-12.56 1.714-.517 6.072-.732 8.038-.776l9.426 38.05c-1.659.854-5.593.949-7.353.889-.691-4.03-2.262-12.873-3.016-16.002-.189 1.422.943 12.091 1.508 17.603-5.656 1.244-10.934 1.066-14.518-.356 1.506-12.269.944-20.803 0-26.848s-3.203-8.713-3.354-10.667 1.094-1.958 3.733-1.741 2.828-.039 4.297 0z" fill="#ffd00c"/><path d="M131.825 222.553l9.438 38.098.119.619-.561.288c-.991.51-2.541.754-3.95.877-1.45.126-2.908.135-3.815.105l-.685-.024-.077-.447.118 1.144.077.746-.732.162c-5.753 1.266-11.216 1.11-15.009-.396l-.603-.239.079-.645c1.496-12.191.936-20.648.004-26.616-.459-2.934-1.234-5.043-1.919-6.671l-.931-2.172c-.254-.636-.465-1.267-.513-1.888-.043-.561.001-1.103.236-1.57.252-.501.669-.806 1.145-.973.445-.156.956-.197 1.472-.198.524 0 1.13.043 1.788.097 1.286.106 1.954.095 2.471.066s.998-.089 1.779-.069l.462.013.012.021.499-.15c.956-.288 2.561-.475 4.101-.599 1.569-.125 3.167-.191 4.162-.213l.669-.014.164.648z" class="B Q"/></g><path d="M51.628 220.671c1.396 1.222 3.083 1.132 4.088 1.069.263-.017.46.217.411.477-.947 5.006-.921 9.312-.112 15.379 1.88-3.97 6.895-7.104 10.656-8.358 3.448-1.149 7.602-.809 10.698-.391 1.513.204 2.933-.758 3.267-2.247l9.653-43.054c.12-.537-.123-1.09-.605-1.355-2.795-1.542-6.235-3.285-9.849-7.279-3.84-4.244-5.671-8.583-6.268-10.239l-.054.04c-1.856 1.356-6.907 5.046-13.497 12.226-7.273 7.923-11.358 11.471-15.911 23.047-2.003 5.093-7.057 7.711-10.17 9.192-.757.361-1.138 1.236-.694 1.947.58.929 1.668 2.219 3.761 3.696 3.552 2.507 5.084.017 8.844.746 3.693.716 3.336 2.964 5.782 5.104z" class="B L M"/><circle cx="81.921" cy="187.24" r="3.474" fill="#ffd00d" class="B R"/><circle cx="78.164" cy="200.194" r="3.474" fill="#ffd00d" class="B R"/><path d="M150.458 220.671c-1.395 1.222-3.083 1.132-4.088 1.069-.263-.017-.46.217-.411.477.946 5.006.921 9.312.112 15.379-1.881-3.97-6.896-7.104-10.657-8.358-3.448-1.149-7.602-.809-10.697-.391-1.513.204-2.933-.758-3.267-2.247l-9.653-43.054a1.23 1.23 0 0 1 .606-1.353c2.827-1.542 6.441-3.285 10.056-7.281 3.841-4.244 5.463-8.583 6.06-10.239l.054.04c1.857 1.356 6.907 5.046 13.497 12.226 7.273 7.923 11.358 11.471 15.911 23.047 2.003 5.093 7.057 7.711 10.17 9.192.757.361 1.138 1.236.694 1.947-.58.929-1.668 2.219-3.76 3.696-3.552 2.507-5.084.017-8.844.746-3.693.716-3.336 2.964-5.783 5.104z" class="B L M"/></g><g class="B"><path d="M100.984 260.203c-2.855 0-4.887.391-6.516 2.299-4.561 5.344-5.314 17.7-7.213 29.524-.138.857-.797 1.537-1.653 1.679-13.489 2.232-29.51-.991-33.671-4.877-.332-.31-.478-.75-.486-1.204-.279-16.515 2.422-37.795 4.411-50.237m45.129 22.816c2.855 0 4.887.391 6.516 2.299 4.561 5.344 5.314 17.7 7.213 29.524.138.857.797 1.537 1.653 1.679 13.488 2.232 29.51-.991 33.67-4.877.332-.31.479-.751.486-1.205.252-14.625-1.7-32.988-3.487-45.639l-.488-3.344" class="E"/><path d="M116.867 255.039a.21.21 0 0 1 .263.086.21.21 0 0 1-.053.272c-2.325 1.787-8.77 5.348-16.019 5.348s-13.115-3.563-15.153-5.357c-.078-.069-.094-.185-.036-.272a.21.21 0 0 1 .265-.074c2.406 1.154 8.748 3.846 14.924 3.846s13.107-2.694 15.809-3.849z" class="F G S"/><path d="M53.64 271.091c2.316.11 3.587.891 4.554 1.713l.628.563.537.465c.334.263.652.44 1.048.526.949.204 1.528.132 2.191.023.709-.116 1.539-.283 2.83-.163 2.112.197 3.118.641 3.927 1.063.722.377 1.129.643 2.215.694 1.175.056 1.69-.076 2.25-.231.645-.178 1.359-.394 2.81-.429.752-.018 1.343.07 1.85.233s.886.39 1.208.591c.606.38 1.052.706 2.098.804 1.793.167 3.596-.521 4.239-.873 1.04-.569 2.025-.735 2.899-.469s1.473.907 1.851 1.625.563 1.558.596 2.362-.086 1.631-.38 2.321c-.683 1.599-1.404 2.694-2.203 3.392-.826.723-1.694.986-2.561.992-.819.005-1.624-.223-2.31-.416-.727-.205-1.347-.379-1.963-.399-1.297-.044-2.152.264-3.063.608-.929.352-1.962.764-3.43.695-1.423-.068-2.067-.365-2.681-.644-.494-.226-.975-.446-2.218-.505s-2.201.181-3.365.432-2.467.49-4.236.308c-1.849-.191-3.146-.982-4.166-1.691l-1.333-.918c-.394-.238-.713-.369-1.014-.406-.867-.104-1.363-.053-2.167-.055s-1.753-.064-3.35-.402c-.855-.181-1.56-.475-2.121-.902-.568-.433-.949-.974-1.193-1.585-.408-1.02-.432-2.251-.387-3.501l.023-.537c.003-1.322.376-2.72 1.425-3.763 1.068-1.063 2.706-1.628 4.962-1.521zm93.923 0c-2.316.11-3.587.891-4.554 1.713l-.628.563-.537.465c-.335.263-.652.44-1.048.526-.949.204-1.528.132-2.191.023-.709-.116-1.539-.283-2.83-.163-2.112.197-3.118.641-3.927 1.063-.722.377-1.129.643-2.215.694-1.175.056-1.69-.076-2.249-.231-.645-.178-1.359-.394-2.81-.429-.752-.018-1.343.07-1.849.233s-.887.39-1.208.591c-.606.38-1.053.706-2.098.804-1.793.167-3.596-.521-4.24-.873-1.04-.569-2.025-.735-2.899-.469s-1.473.907-1.851 1.625-.563 1.558-.596 2.362.085 1.631.379 2.321c.683 1.599 1.405 2.694 2.203 3.392.826.723 1.694.986 2.561.992.819.005 1.624-.223 2.31-.416.727-.205 1.347-.379 1.963-.399 1.297-.044 2.152.264 3.063.608.929.352 1.962.764 3.43.695 1.423-.068 2.068-.365 2.681-.644.494-.226.975-.446 2.218-.505s2.201.181 3.365.432 2.467.49 4.236.308c1.848-.191 3.146-.982 4.166-1.691l1.333-.918c.394-.238.713-.369 1.014-.406.867-.104 1.363-.053 2.167-.055s1.753-.064 3.35-.402c.855-.181 1.56-.475 2.121-.902.568-.433.949-.974 1.193-1.585.408-1.02.432-2.251.386-3.501l-.022-.537c-.003-1.322-.376-2.72-1.425-3.763-1.068-1.063-2.706-1.628-4.962-1.521z" fill="#fff" stroke-width="1.631"/></g><g filter="url(#L)" class="I"><path d="M53.734 252.144c-4.443.387-7.85-1.231-11.957-6.248-4.967-7.117-4.973-17.703-2.048-29.822 9.612-4.179 11.074 8.567 16.298 5.433-.626 1.253-.418 4.179-.418 10.029s-1.373 15.639-1.875 20.608z"/></g><path d="M50.747 231.314c.933 4.58 3.242 8.422 4.655 9.129-.209.905-.334 2.632-.836 5.641-2.467-3.348-4.637-9.817-4.504-14.769.013-.475.59-.467.685-.001z" class="G"/><path d="M39.464 215.865c-2.596 12.383-1.843 23.656 2.323 29.986 3.586 4.989 7.494 6.551 11.946 6.165.869-6.809 1.936-12.916 2.647-16.928" class="B E"/><g filter="url(#M)" class="I"><path d="M148.985 252.144c4.444.387 7.85-1.231 11.957-6.248 4.967-7.117 4.973-17.703 2.048-29.822-9.611-4.179-11.074 8.567-16.298 5.433.627 1.253.418 4.179.418 10.029s1.373 15.639 1.875 20.608z"/></g><path d="M151.971 231.314c-.932 4.58-3.241 8.422-4.655 9.129.209.905.335 2.632.836 5.641 2.467-3.348 4.637-9.817 4.504-14.769-.012-.475-.59-.467-.685-.001z" class="G"/><path d="M163.251 215.865c2.596 12.383 1.843 23.656-2.323 29.986-3.586 4.989-7.494 6.551-11.946 6.165-.869-6.809-1.935-12.916-2.647-16.928" class="B E"/><path d="M60.969 201.78c-2.56 7.119-4.366 17.372-4.949 21.609 0-1.881-1.045-1.045-3.761-1.881s-2.298-3.97-5.642-5.642-6.059.627-8.985-.417c-2.34-.836-4.04-3.831-4.597-5.224.209-.488 1.492-1.827 4.955-3.283 4.328-1.821 5.702-6.747 7.582-10.717s5.224-10.029 13.456-18.405c6.586-6.7 12.3-11.416 14.334-12.937l3.343 5.851c-4.179 7.383-13.177 23.928-15.736 31.046z" class="L"/><path d="M79.839 174.912c-3.84-4.244-5.671-8.583-6.268-10.239-1.811 1.324-6.896 5.015-13.551 12.266-7.273 7.923-11.358 11.471-15.911 23.047-2.003 5.093-7.057 7.711-10.17 9.192-.757.361-1.138 1.236-.694 1.947.58.929 1.668 2.219 3.761 3.696 3.552 2.507 5.084.017 8.844.746 3.693.716 3.336 2.964 5.782 5.104 1.396 1.222 3.083 1.132 4.088 1.069.263-.017.46.217.411.477-.947 5.006-.921 9.312-.112 15.379" class="B M"/><path d="M142.73 201.658c2.559 7.118 3.177 16.867 3.761 21.104 0-1.881.835-.418 3.551-1.254s2.299-3.97 5.642-5.642 6.06.627 8.985-.417c2.34-.836 4.039-3.831 4.597-5.224-.209-.488-1.493-1.827-4.955-3.283-4.328-1.821-5.702-6.747-7.582-10.717s-5.224-10.029-13.456-18.405c-6.586-6.7-12.3-11.416-14.334-12.937l-3.343 5.851c4.179 7.383 14.574 23.806 17.134 30.924z" class="L"/><g class="B"><path d="M122.466 174.912c3.84-4.244 5.67-8.583 6.268-10.239 1.811 1.324 6.895 5.015 13.551 12.266 7.273 7.923 11.358 11.471 15.911 23.047 2.003 5.093 7.057 7.711 10.17 9.192.757.361 1.138 1.236.694 1.947-.58.929-1.668 2.219-3.76 3.696-3.553 2.507-5.084.017-8.844.746-3.693.716-3.336 2.964-5.783 5.104-1.396 1.222-3.083 1.132-4.088 1.069-.263-.017-.46.217-.411.477.946 5.006.92 9.312.111 15.379" class="M"/><path d="M55.174 218.124c2.383-18.532 11.358-37.489 14.52-43.147-1.924 5.481-7.288 19.04-11.38 34.913-1.085 4.209-1.642 8.218-1.461 12.243l-1.666.418c-.067-1.428-.074-2.906-.014-4.427zm92.253 0c-2.383-18.532-11.358-37.489-14.52-43.147 1.924 5.481 7.288 19.04 11.38 34.913 1.085 4.209 1.643 8.218 1.461 12.243l1.666.418a51.34 51.34 0 0 0 .013-4.427z" class="G S"/></g><g filter="url(#N)" class="J"><path d="M188.768 78.449c-1.353-8.261-8.886-10.98-12.483-11.306 2.254 5.551 3.112 13.538 3.195 21.737-.083 8.2-.941 16.186-3.195 21.737 3.597-.327 11.13-3.045 12.483-11.306.424-3.306.556-7.188.568-10.431-.012-3.242-.144-7.125-.568-10.431z"/></g><path d="M176.369 66.217c1.94.176 4.882.986 7.532 2.843 2.59 1.815 4.911 4.64 5.711 8.829l.073.41.003.016.001.017c.432 3.361.564 7.288.576 10.545v.007c-.012 3.257-.144 7.184-.576 10.546l-.001.017-.003.016c-.724 4.415-3.11 7.366-5.784 9.239-2.65 1.857-5.592 2.666-7.532 2.842l-1.518.139.573-1.413c2.183-5.378 3.043-13.211 3.127-21.379l-.026-1.527c-.17-7.617-1.053-14.823-3.101-19.869l-.573-1.413 1.518.138z" class="B T"/><g filter="url(#O)" class="J"><path d="M12.713 78.449c1.353-8.261 8.886-10.98 12.483-11.306-2.253 5.551-3.111 13.538-3.194 21.737.083 8.2.941 16.186 3.194 21.737-3.597-.327-11.13-3.045-12.483-11.306-.424-3.306-.556-7.188-.568-10.431.012-3.242.144-7.125.568-10.431z"/></g><g class="B T"><path d="M25.111 66.217c-1.94.176-4.882.986-7.532 2.843-2.59 1.815-4.911 4.64-5.711 8.829l-.072.41-.003.016-.002.017c-.431 3.361-.564 7.288-.575 10.545v.007c.012 3.257.144 7.184.575 10.546l.002.017.003.016a13.68 13.68 0 0 0 5.783 9.239c2.651 1.857 5.593 2.666 7.532 2.842l1.519.139-.573-1.413c-2.183-5.378-3.043-13.211-3.127-21.379l.025-1.527c.17-7.617 1.053-14.823 3.101-19.869l.573-1.413-1.519.138z"/><circle cx="100.559" cy="89.32" r="79.363" fill="#181f2d"/></g><path d="M100.522 12.333c31.558 0 54.103 16.933 67.319 39.442C142.235 20.387 111.5 17.85 100.522 17.85s-41.713 2.537-67.319 33.925c13.216-22.508 35.761-39.442 67.319-39.442zm.003 146.475c-36.946 0-61.43-24.925-70.623-38.891 16.794 38.891 54.271 46.67 70.623 46.67s53.83-7.779 70.624-46.67c-9.193 13.966-33.677 38.891-70.624 38.891zM99.93 19.766c-44.162 0-67.855 33.187-73.75 49.767 7.015-14.092 31.587-41.864 73.75-41.864s67.59 26.534 74.723 40.212c-6.195-15.488-30.562-48.115-74.723-48.115z" class="J"/><g filter="url(#P)"><path d="M100.731 157.089c37.797-.053 75.786-29.355 75.786-68.141 0-28.68-33.352-59.425-75.786-59.475-42.434.05-75.786 30.795-75.786 59.475 0 38.786 37.989 68.089 75.786 68.142z" fill="#150d41"/></g><g fill="#ebf6fe" class="O"><path d="M42.455 66.101c-8.768 13.565-7.879 32.521-5.781 44.176.312 1.73 2.441 1.621 2.737-.113 1.572-9.213 5.017-23.751 14.608-37.87C64.302 57.156 77.868 46.644 86.923 41.74c1.49-.807 1.15-2.714-.529-2.49-11.83 1.581-33.086 10.062-43.938 26.851z"/><ellipse cx="153.808" cy="90.52" rx="11.167" ry="14.003" transform="rotate(9.588 153.808 90.52)"/><ellipse cx="140.493" cy="117.511" rx="5.814" ry="6.475" transform="rotate(8.436 140.493 117.511)"/></g><path d="M100.688.846c23.543 0 39.987 9.062 50.826 19.139 10.812 10.052 16.059 21.122 17.244 25.225l.311 1.081H34.042l.313-1.081C36.689 37.128 53.546.846 100.688.846z" fill="#ffbf3b" class="B H"/><mask id="D" maskUnits="userSpaceOnUse" x="35" y="1" width="133" height="45" mask-type="alpha"><path d="M100.688 2.54c23.063 0 39.107 8.862 49.673 18.686 9.718 9.034 14.794 18.875 16.414 23.373H36.328c3.276-9.477 20.177-42.058 64.36-42.059z" fill="#ffbf3b" class="B H"/></mask><g mask="url(#D)"><path d="M67.572 43.491c6.351-29.839 25.175-40.299 33.792-41.798L41.179 3.376l-9.437 51.96 35.83-11.845z" fill="#d6972d" fill-opacity=".5"/><path d="M101.551 24.434c39.068 0 60.723 15.099 66.595 20.782.298.288.344.748.11 1.089a.85.85 0 0 1-1.056.287c-24.196-11.291-53.741-11.773-65.649-11.773-11.718 0-41.453.483-65.65 11.773a.85.85 0 0 1-.947-1.376c5.872-5.683 27.527-20.782 66.597-20.782z" fill="#cd2a18" class="B F H"/><mask id="E" maskUnits="userSpaceOnUse" x="35" y="25" width="133" height="21" mask-type="alpha"><path d="M101.551 26.128c31.549 0 51.494 9.959 60.773 16.539-23.349-9.141-49.759-9.54-60.773-9.54-10.839 0-37.403.4-60.778 9.543 9.277-6.58 29.224-16.542 60.778-16.542z" fill="#cd2a18" class="B F H"/></mask><g mask="url(#E)"><path d="M67.568 44.634C73.919 14.795 92.742 4.335 101.36 2.835L41.175 4.518l-9.437 51.96 35.83-11.845z" fill="#a72115"/></g><path d="M54.848 25.493c1.79-2.9 7.227-9.328 14.655-11.838-3.983-.309-12.813 5.303-14.655 11.838zm6.574 5.114c1.387-2.673 5.764-8.699 12.174-11.413-3.551 0-10.991 5.539-12.174 11.414zm88.355-5.114c-1.79-2.9-7.226-9.328-14.655-11.838 3.983-.309 12.813 5.303 14.655 11.838zm-6.562 5.114c-1.387-2.673-5.764-8.699-12.174-11.413 3.55 0 10.99 5.539 12.174 11.414z" class="G"/></g><path d="M101.464 35.086c9.978 0 40.044.144 64.724 10.721 30.981 13.278 35.895 35.112 35.895 45.291 0 5.065-1.025 11.935-5.55 19.208s-12.507 14.884-26.318 21.502l-2.507 1.201 1.412-2.394c2.194-3.72 5.086-8.375 7.223-14.984 2.135-6.602 3.523-15.182 2.635-26.704-.886-11.484-4.161-18.679-9.497-23.839-5.376-5.199-12.93-8.424-22.603-11.77-15.348-5.31-36.23-6.837-45.414-6.837s-30.067 1.526-45.414 6.837c-9.673 3.347-17.227 6.571-22.603 11.77-5.336 5.16-8.611 12.355-9.496 23.839-.887 11.511.382 20.136 2.398 26.785s4.791 11.36 6.976 15.064l.021.034 1.412 2.395-2.507-1.202c-13.816-6.62-21.686-14.284-26.094-21.61S.845 96.15.845 91.098c0-10.179 4.913-32.013 35.895-45.291 24.68-10.577 54.937-10.721 64.725-10.721z" fill="#ffc13a" class="B H"/><mask id="F" maskUnits="userSpaceOnUse" x="1" y="35" width="201" height="97" mask-type="alpha"><path d="M101.464 36.78c9.996 0 39.735.16 64.057 10.584 30.271 12.973 34.869 34.131 34.869 43.734 0 4.826-.973 11.368-5.294 18.314-4.045 6.501-11.057 13.412-23.072 19.606 1.941-3.327 4.184-7.467 5.93-12.866 2.206-6.821 3.615-15.623 2.711-27.355-.907-11.77-4.294-19.401-10.007-24.926-5.672-5.486-13.556-8.807-23.227-12.153-15.604-5.399-36.7-6.931-45.967-6.931S71.1 46.319 55.496 51.718c-9.671 3.346-17.554 6.668-23.227 12.153-5.713 5.525-9.1 13.155-10.008 24.926-.904 11.731.495 20.581 2.688 27.45 1.738 5.442 3.973 9.623 5.912 12.967-12.013-6.198-19.017-13.154-23.052-19.702-4.311-6.995-5.272-13.586-5.272-18.414 0-9.604 4.598-30.761 34.868-43.734C61.728 36.94 91.658 36.78 101.464 36.78z" fill="#ffc13a" class="B H"/></mask><g mask="url(#F)"><path d="M8.691 87.919c-4.976-2.21-8.248-5.257-8.883-7.137l-4.202 61.677h104.814 104.813l-4.202-61.677c-.635 1.88-3.907 4.926-8.883 7.137-4.432 1.969-8.884-1.365-10.055-6.071-1.983-7.964-5.701-16.748-16.293-23.367-15.953-9.969-40.627-15.507-65.38-16.079-24.753.573-49.428 6.11-65.38 16.079C24.447 65.1 20.728 73.884 18.746 81.847c-1.172 4.707-5.623 8.04-10.055 6.071z" fill="#d6962c"/><path d="M180.823 81.766c5.012-4.936 6.309-11.31 6.363-14.426.006-.36.247-.679.599-.761.466-.108.914.244.891.723-.323 6.765-4.752 12.471-7.853 14.463zm4.834 5.964c4.189-4.126 5.273-9.454 5.318-12.058.005-.301.207-.568.501-.636a.6.6 0 0 1 .745.604c-.27 5.654-3.972 10.424-6.564 12.089zM21.036 81.766c-5.011-4.936-6.308-11.31-6.362-14.426-.006-.36-.248-.679-.599-.761-.467-.108-.914.244-.892.723.323 6.765 4.752 12.471 7.853 14.463zm-4.834 5.964c-4.189-4.126-5.273-9.454-5.318-12.058-.005-.301-.207-.568-.5-.636a.6.6 0 0 0-.745.604c.27 5.654 3.972 10.424 6.564 12.089z" class="G"/></g><defs><filter id="G" x="23.573" y="287.889" width="155.19" height="34.643" filterUnits="userSpaceOnUse" class="C"><feFlood class="D"/><feBlend in="SourceGraphic"/><feGaussianBlur stdDeviation="1.053"/></filter><filter id="H" x="52.254" y="163.417" width="98.625" height="98.623" filterUnits="userSpaceOnUse" class="C"><feFlood class="D"/><feBlend in="SourceGraphic" result="B"/><feColorMatrix in="SourceAlpha" values="0 0 0 0 0 0 0 0 0 0 0 0 0 0 0 0 0 0 127 0" result="C"/><feOffset dx="-6.26842" dy="-12.9547"/><feComposite in2="C" operator="arithmetic" k2="-1" k3="1"/><feColorMatrix values="0 0 0 0 0.843137 0 0 0 0 0.866667 0 0 0 0 0.917647 0 0 0 1 0"/><feBlend in2="B"/></filter><filter id="I" x="51.547" y="235.293" width="98.578" height="47.332" filterUnits="userSpaceOnUse" class="C"><feFlood class="D"/><feBlend in="SourceGraphic" result="B"/><feColorMatrix in="SourceAlpha" values="0 0 0 0 0 0 0 0 0 0 0 0 0 0 0 0 0 0 127 0" result="C"/><feOffset dy="-12.1189"/><feComposite in2="C" operator="arithmetic" k2="-1" k3="1"/><feColorMatrix values="0 0 0 0 0.109804 0 0 0 0 0.298039 0 0 0 0 0.666667 0 0 0 1 0"/><feBlend in2="B"/></filter><filter id="J" x="53.977" y="217.778" width="94.164" height="27.817" filterUnits="userSpaceOnUse" class="C"><feFlood result="A" class="D"/><feColorMatrix in="SourceAlpha" values="0 0 0 0 0 0 0 0 0 0 0 0 0 0 0 0 0 0 127 0" result="B"/><feOffset dy="2.50737"/><feComposite in2="B" operator="out"/><feColorMatrix values="0 0 0 0 0.111324 0 0 0 0 0.298788 0 0 0 0 0.665384 0 0 0 1 0"/><feBlend in2="A"/><feBlend in="SourceGraphic"/></filter><filter id="K" x="112.012" y="221.05" width="30.316" height="46.435" filterUnits="userSpaceOnUse" class="C"><feFlood result="A" class="D"/><feColorMatrix in="SourceAlpha" values="0 0 0 0 0 0 0 0 0 0 0 0 0 0 0 0 0 0 127 0" result="B"/><feOffset dy="1.67158"/><feComposite in2="B" operator="out"/><feColorMatrix values="0 0 0 0 0.109804 0 0 0 0 0.298039 0 0 0 0 0.666667 0 0 0 1 0"/><feBlend in2="A"/><feBlend in="SourceGraphic"/></filter><filter id="L" x="37.742" y="215.224" width="18.285" height="36.975" filterUnits="userSpaceOnUse" class="C"><feFlood class="D"/><feBlend in="SourceGraphic" result="B"/><feColorMatrix in="SourceAlpha" values="0 0 0 0 0 0 0 0 0 0 0 0 0 0 0 0 0 0 127 0" result="C"/><feOffset dx="2.92526" dy="-7.5221"/><feComposite in2="C" operator="arithmetic" k2="-1" k3="1"/><feColorMatrix values="0 0 0 0 0.858824 0 0 0 0 0.67451 0 0 0 0 0.458824 0 0 0 1 0"/><feBlend in2="B"/></filter><filter id="M" x="146.691" y="215.224" width="18.285" height="36.975" filterUnits="userSpaceOnUse" class="C"><feFlood class="D"/><feBlend in="SourceGraphic" result="B"/><feColorMatrix in="SourceAlpha" values="0 0 0 0 0 0 0 0 0 0 0 0 0 0 0 0 0 0 127 0" result="C"/><feOffset dx="-2.92526" dy="-7.5221"/><feComposite in2="C" operator="arithmetic" k2="-1" k3="1"/><feColorMatrix values="0 0 0 0 0.858824 0 0 0 0 0.67451 0 0 0 0 0.458824 0 0 0 1 0"/><feBlend in2="B"/></filter><filter id="N" x="173.414" y="65.016" width="17.781" height="47.728" filterUnits="userSpaceOnUse" class="C"><feFlood class="D"/><feBlend in="SourceGraphic" result="B"/><feColorMatrix in="SourceAlpha" values="0 0 0 0 0 0 0 0 0 0 0 0 0 0 0 0 0 0 127 0" result="C"/><feOffset dx="-4.2541" dy="-8.15369"/><feComposite in2="C" operator="arithmetic" k2="-1" k3="1"/><feColorMatrix values="0 0 0 0 0.843137 0 0 0 0 0.866667 0 0 0 0 0.917647 0 0 0 1 0"/><feBlend in2="B"/></filter><filter id="O" x="10.285" y="65.016" width="17.781" height="47.728" filterUnits="userSpaceOnUse" class="C"><feFlood class="D"/><feBlend in="SourceGraphic" result="B"/><feColorMatrix in="SourceAlpha" values="0 0 0 0 0 0 0 0 0 0 0 0 0 0 0 0 0 0 127 0" result="C"/><feOffset dx="3.89959" dy="-8.15369"/><feComposite in2="C" operator="arithmetic" k2="-1" k3="1"/><feColorMatrix values="0 0 0 0 0.843137 0 0 0 0 0.866667 0 0 0 0 0.917647 0 0 0 1 0"/><feBlend in2="B"/></filter><filter id="P" x="24.945" y="29.472" width="151.57" height="127.617" filterUnits="userSpaceOnUse" class="C"><feFlood class="D"/><feBlend in="SourceGraphic" result="B"/><feColorMatrix in="SourceAlpha" values="0 0 0 0 0 0 0 0 0 0 0 0 0 0 0 0 0 0 127 0" result="C"/><feOffset dx="-0.413001" dy="-20.65"/><feComposite in2="C" operator="arithmetic" k2="-1" k3="1"/><feColorMatrix values="0 0 0 0 0.13338 0 0 0 0 0.0604861 0 0 0 0 0.279167 0 0 0 0.9 0"/><feBlend in2="B"/></filter><path id="Q" d="M100.02 224.865c-25.847 0-39.992-2.897-43.834-4.346l-1.323 12.659c4.471 3.023 19.763 9.069 45.157 9.069s42.07-6.046 47.235-9.069l-1.323-14.17c-4.535 1.952-20.065 5.857-45.912 5.857z"/></defs></svg>